solid ascii
  facet normal 1.000000e+000 -0.000000e+000 0.000000e+000
    outer loop
      vertex   -2.292253e+001 -3.400000e+001 1.900000e+001
      vertex   -2.292253e+001 -3.400000e+001 0.000000e+000
      vertex   -2.292253e+001 -3.200000e+001 1.900000e+001
    endloop
  endfacet
  facet normal 1.000000e+000 -0.000000e+000 0.000000e+000
    outer loop
      vertex   -2.292253e+001 -3.200000e+001 1.900000e+001
      vertex   -2.292253e+001 -3.400000e+001 0.000000e+000
      vertex   -2.292253e+001 -3.200000e+001 0.000000e+000
    endloop
  endfacet
  facet normal 0.000000e+000 -0.000000e+000 1.000000e+000
    outer loop
      vertex   -5.422529e+000 -3.500000e+001 -4.238555e-001
      vertex   -5.422529e+000 -2.400000e+001 -4.238555e-001
      vertex   -2.042253e+001 -3.500000e+001 -4.238555e-001
    endloop
  endfacet
  facet normal 0.000000e+000 -0.000000e+000 1.000000e+000
    outer loop
      vertex   -2.042253e+001 -3.500000e+001 -4.238555e-001
      vertex   -5.422529e+000 -2.400000e+001 -4.238555e-001
      vertex   -2.042253e+001 -2.400000e+001 -4.238555e-001
    endloop
  endfacet
  facet normal 0.000000e+000 1.000000e+000 0.000000e+000
    outer loop
      vertex   -3.750000e+001 -3.250000e+001 1.450000e+001
      vertex   -3.150000e+001 -3.250000e+001 1.450000e+001
      vertex   -3.750000e+001 -3.250000e+001 7.500000e+000
    endloop
  endfacet
  facet normal -0.000000e+000 1.000000e+000 0.000000e+000
    outer loop
      vertex   -3.750000e+001 -3.250000e+001 7.500000e+000
      vertex   -3.150000e+001 -3.250000e+001 1.450000e+001
      vertex   -3.150000e+001 -3.250000e+001 7.500000e+000
    endloop
  endfacet
  facet normal 0.000000e+000 -0.000000e+000 -1.000000e+000
    outer loop
      vertex   0.000000e+000 3.500000e+001 -2.000000e+000
      vertex   3.750000e+001 3.500000e+001 -2.000000e+000
      vertex   0.000000e+000 0.000000e+000 -2.000000e+000
    endloop
  endfacet
  facet normal 0.000000e+000 -0.000000e+000 -1.000000e+000
    outer loop
      vertex   -3.750000e+001 0.000000e+000 -2.000000e+000
      vertex   0.000000e+000 0.000000e+000 -2.000000e+000
      vertex   -3.750000e+001 -3.500000e+001 -2.000000e+000
    endloop
  endfacet
  facet normal 0.000000e+000 0.000000e+000 -1.000000e+000
    outer loop
      vertex   -3.750000e+001 0.000000e+000 -2.000000e+000
      vertex   0.000000e+000 3.500000e+001 -2.000000e+000
      vertex   0.000000e+000 0.000000e+000 -2.000000e+000
    endloop
  endfacet
  facet normal 0.000000e+000 0.000000e+000 -1.000000e+000
    outer loop
      vertex   -3.750000e+001 0.000000e+000 -2.000000e+000
      vertex   -3.750000e+001 3.500000e+001 -2.000000e+000
      vertex   0.000000e+000 3.500000e+001 -2.000000e+000
    endloop
  endfacet
  facet normal 0.000000e+000 0.000000e+000 -1.000000e+000
    outer loop
      vertex   3.750000e+001 -3.500000e+001 -2.000000e+000
      vertex   0.000000e+000 -3.500000e+001 -2.000000e+000
      vertex   3.750000e+001 0.000000e+000 -2.000000e+000
    endloop
  endfacet
  facet normal -0.000000e+000 0.000000e+000 -1.000000e+000
    outer loop
      vertex   3.750000e+001 0.000000e+000 -2.000000e+000
      vertex   0.000000e+000 -3.500000e+001 -2.000000e+000
      vertex   0.000000e+000 0.000000e+000 -2.000000e+000
    endloop
  endfacet
  facet normal -0.000000e+000 -0.000000e+000 -1.000000e+000
    outer loop
      vertex   3.750000e+001 3.500000e+001 -2.000000e+000
      vertex   3.750000e+001 0.000000e+000 -2.000000e+000
      vertex   0.000000e+000 0.000000e+000 -2.000000e+000
    endloop
  endfacet
  facet normal 0.000000e+000 0.000000e+000 -1.000000e+000
    outer loop
      vertex   0.000000e+000 -3.500000e+001 -2.000000e+000
      vertex   -3.750000e+001 -3.500000e+001 -2.000000e+000
      vertex   0.000000e+000 0.000000e+000 -2.000000e+000
    endloop
  endfacet
  facet normal 0.000000e+000 -0.000000e+000 1.000000e+000
    outer loop
      vertex   3.500000e+001 -5.000000e+000 7.500000e+000
      vertex   3.750000e+001 -5.000000e+000 7.500000e+000
      vertex   3.500000e+001 5.000000e+000 7.500000e+000
    endloop
  endfacet
  facet normal -0.000000e+000 0.000000e+000 1.000000e+000
    outer loop
      vertex   3.500000e+001 5.000000e+000 7.500000e+000
      vertex   3.750000e+001 -5.000000e+000 7.500000e+000
      vertex   3.750000e+001 5.000000e+000 7.500000e+000
    endloop
  endfacet
  facet normal -0.000000e+000 -1.000000e+000 -0.000000e+000
    outer loop
      vertex   -3.500000e+001 -5.500000e+000 1.450000e+001
      vertex   -3.750000e+001 -5.500000e+000 1.450000e+001
      vertex   -3.500000e+001 -5.500000e+000 7.500000e+000
    endloop
  endfacet
  facet normal -0.000000e+000 -1.000000e+000 -0.000000e+000
    outer loop
      vertex   -3.500000e+001 -5.500000e+000 7.500000e+000
      vertex   -3.750000e+001 -5.500000e+000 1.450000e+001
      vertex   -3.750000e+001 -5.500000e+000 7.500000e+000
    endloop
  endfacet
  facet normal 5.075309e-016 3.552714e-015 -1.000000e+000
    outer loop
      vertex   -3.150000e+001 -3.200000e+001 1.450000e+001
      vertex   -3.150000e+001 -3.250000e+001 1.450000e+001
      vertex   -3.500000e+001 -3.200000e+001 1.450000e+001
    endloop
  endfacet
  facet normal -2.960596e-016 -2.072416e-015 -1.000000e+000
    outer loop
      vertex   -3.500000e+001 -3.200000e+001 1.450000e+001
      vertex   -3.150000e+001 -3.250000e+001 1.450000e+001
      vertex   -3.750000e+001 -3.250000e+001 1.450000e+001
    endloop
  endfacet
  facet normal -7.105427e-016 0.000000e+000 -1.000000e+000
    outer loop
      vertex   -3.750000e+001 -5.500000e+000 1.450000e+001
      vertex   -3.500000e+001 -3.200000e+001 1.450000e+001
      vertex   -3.750000e+001 -3.250000e+001 1.450000e+001
    endloop
  endfacet
  facet normal 0.000000e+000 6.703233e-017 -1.000000e+000
    outer loop
      vertex   -3.750000e+001 -5.500000e+000 1.450000e+001
      vertex   -3.500000e+001 -5.500000e+000 1.450000e+001
      vertex   -3.500000e+001 -3.200000e+001 1.450000e+001
    endloop
  endfacet
  facet normal -1.000000e+000 -0.000000e+000 -0.000000e+000
    outer loop
      vertex   -3.150000e+001 -3.200000e+001 1.450000e+001
      vertex   -3.150000e+001 -3.200000e+001 7.500000e+000
      vertex   -3.150000e+001 -3.250000e+001 1.450000e+001
    endloop
  endfacet
  facet normal -1.000000e+000 -0.000000e+000 -0.000000e+000
    outer loop
      vertex   -3.150000e+001 -3.250000e+001 1.450000e+001
      vertex   -3.150000e+001 -3.200000e+001 7.500000e+000
      vertex   -3.150000e+001 -3.250000e+001 7.500000e+000
    endloop
  endfacet
  facet normal 0.000000e+000 0.000000e+000 1.000000e+000
    outer loop
      vertex   -3.150000e+001 -3.200000e+001 7.500000e+000
      vertex   -3.500000e+001 -3.200000e+001 7.500000e+000
      vertex   -3.150000e+001 -3.250000e+001 7.500000e+000
    endloop
  endfacet
  facet normal 0.000000e+000 0.000000e+000 1.000000e+000
    outer loop
      vertex   -3.150000e+001 -3.250000e+001 7.500000e+000
      vertex   -3.500000e+001 -3.200000e+001 7.500000e+000
      vertex   -3.750000e+001 -3.250000e+001 7.500000e+000
    endloop
  endfacet
  facet normal 0.000000e+000 -0.000000e+000 1.000000e+000
    outer loop
      vertex   -3.750000e+001 -3.250000e+001 7.500000e+000
      vertex   -3.500000e+001 -3.200000e+001 7.500000e+000
      vertex   -3.750000e+001 -5.500000e+000 7.500000e+000
    endloop
  endfacet
  facet normal -0.000000e+000 0.000000e+000 1.000000e+000
    outer loop
      vertex   -3.750000e+001 -5.500000e+000 7.500000e+000
      vertex   -3.500000e+001 -3.200000e+001 7.500000e+000
      vertex   -3.500000e+001 -5.500000e+000 7.500000e+000
    endloop
  endfacet
  facet normal -0.000000e+000 -1.000000e+000 -0.000000e+000
    outer loop
      vertex   -5.422529e+000 -2.400000e+001 0.000000e+000
      vertex   -2.042253e+001 -2.400000e+001 0.000000e+000
      vertex   -5.422529e+000 -2.400000e+001 -4.238555e-001
    endloop
  endfacet
  facet normal -0.000000e+000 -1.000000e+000 -0.000000e+000
    outer loop
      vertex   -5.422529e+000 -2.400000e+001 -4.238555e-001
      vertex   -2.042253e+001 -2.400000e+001 0.000000e+000
      vertex   -2.042253e+001 -2.400000e+001 -4.238555e-001
    endloop
  endfacet
  facet normal 1.000000e+000 0.000000e+000 0.000000e+000
    outer loop
      vertex   -2.042253e+001 -3.400000e+001 1.557614e+001
      vertex   -2.042253e+001 -3.500000e+001 1.557614e+001
      vertex   -2.042253e+001 -3.400000e+001 0.000000e+000
    endloop
  endfacet
  facet normal 1.000000e+000 0.000000e+000 0.000000e+000
    outer loop
      vertex   -2.042253e+001 -3.400000e+001 0.000000e+000
      vertex   -2.042253e+001 -3.500000e+001 1.557614e+001
      vertex   -2.042253e+001 -3.500000e+001 -4.238555e-001
    endloop
  endfacet
  facet normal 1.000000e+000 0.000000e+000 0.000000e+000
    outer loop
      vertex   -2.042253e+001 -2.400000e+001 -4.238555e-001
      vertex   -2.042253e+001 -3.400000e+001 0.000000e+000
      vertex   -2.042253e+001 -3.500000e+001 -4.238555e-001
    endloop
  endfacet
  facet normal 1.000000e+000 0.000000e+000 -0.000000e+000
    outer loop
      vertex   -2.042253e+001 -2.400000e+001 -4.238555e-001
      vertex   -2.042253e+001 -2.400000e+001 0.000000e+000
      vertex   -2.042253e+001 -3.400000e+001 0.000000e+000
    endloop
  endfacet
  facet normal -0.000000e+000 0.000000e+000 -1.000000e+000
    outer loop
      vertex   -5.422529e+000 -3.400000e+001 1.557614e+001
      vertex   -5.422529e+000 -3.500000e+001 1.557614e+001
      vertex   -2.042253e+001 -3.400000e+001 1.557614e+001
    endloop
  endfacet
  facet normal -0.000000e+000 -0.000000e+000 -1.000000e+000
    outer loop
      vertex   -2.042253e+001 -3.400000e+001 1.557614e+001
      vertex   -5.422529e+000 -3.500000e+001 1.557614e+001
      vertex   -2.042253e+001 -3.500000e+001 1.557614e+001
    endloop
  endfacet
  facet normal -1.000000e+000 8.881784e-016 1.710651e-016
    outer loop
      vertex   -5.422529e+000 -3.400000e+001 1.557614e+001
      vertex   -5.422529e+000 -3.400000e+001 0.000000e+000
      vertex   -5.422529e+000 -3.500000e+001 1.557614e+001
    endloop
  endfacet
  facet normal -1.000000e+000 -1.776357e-015 0.000000e+000
    outer loop
      vertex   -5.422529e+000 -3.500000e+001 1.557614e+001
      vertex   -5.422529e+000 -3.400000e+001 0.000000e+000
      vertex   -5.422529e+000 -3.500000e+001 -4.238555e-001
    endloop
  endfacet
  facet normal -1.000000e+000 8.074349e-017 -4.381446e-015
    outer loop
      vertex   -5.422529e+000 -3.500000e+001 -4.238555e-001
      vertex   -5.422529e+000 -3.400000e+001 0.000000e+000
      vertex   -5.422529e+000 -2.400000e+001 -4.238555e-001
    endloop
  endfacet
  facet normal -1.000000e+000 1.776357e-016 -2.095474e-015
    outer loop
      vertex   -5.422529e+000 -2.400000e+001 -4.238555e-001
      vertex   -5.422529e+000 -3.400000e+001 0.000000e+000
      vertex   -5.422529e+000 -2.400000e+001 0.000000e+000
    endloop
  endfacet
  facet normal -0.000000e+000 1.000000e+000 0.000000e+000
    outer loop
      vertex   -2.922529e+000 -3.200000e+001 0.000000e+000
      vertex   -2.922529e+000 -3.200000e+001 1.900000e+001
      vertex   3.500000e+001 -3.200000e+001 0.000000e+000
    endloop
  endfacet
  facet normal 0.000000e+000 1.000000e+000 -0.000000e+000
    outer loop
      vertex   3.500000e+001 -3.200000e+001 0.000000e+000
      vertex   -2.922529e+000 -3.200000e+001 1.900000e+001
      vertex   3.500000e+001 -3.200000e+001 1.900000e+001
    endloop
  endfacet
  facet normal -0.000000e+000 1.000000e+000 0.000000e+000
    outer loop
      vertex   3.500000e+001 -5.000000e+000 1.900000e+001
      vertex   3.750000e+001 -5.000000e+000 1.900000e+001
      vertex   3.500000e+001 -5.000000e+000 7.500000e+000
    endloop
  endfacet
  facet normal -0.000000e+000 1.000000e+000 0.000000e+000
    outer loop
      vertex   3.500000e+001 -5.000000e+000 7.500000e+000
      vertex   3.750000e+001 -5.000000e+000 1.900000e+001
      vertex   3.750000e+001 -5.000000e+000 7.500000e+000
    endloop
  endfacet
  facet normal 0.000000e+000 -1.000000e+000 0.000000e+000
    outer loop
      vertex   -5.422529e+000 -3.500000e+001 1.557614e+001
      vertex   -5.422529e+000 -3.500000e+001 -4.238555e-001
      vertex   0.000000e+000 -3.500000e+001 -2.000000e+000
    endloop
  endfacet
  facet normal 0.000000e+000 -1.000000e+000 0.000000e+000
    outer loop
      vertex   0.000000e+000 -3.500000e+001 1.900000e+001
      vertex   0.000000e+000 -3.500000e+001 -2.000000e+000
      vertex   3.750000e+001 -3.500000e+001 1.900000e+001
    endloop
  endfacet
  facet normal 0.000000e+000 -1.000000e+000 -0.000000e+000
    outer loop
      vertex   0.000000e+000 -3.500000e+001 1.900000e+001
      vertex   -5.422529e+000 -3.500000e+001 1.557614e+001
      vertex   0.000000e+000 -3.500000e+001 -2.000000e+000
    endloop
  endfacet
  facet normal 0.000000e+000 -1.000000e+000 -0.000000e+000
    outer loop
      vertex   0.000000e+000 -3.500000e+001 1.900000e+001
      vertex   -2.042253e+001 -3.500000e+001 1.557614e+001
      vertex   -5.422529e+000 -3.500000e+001 1.557614e+001
    endloop
  endfacet
  facet normal -0.000000e+000 -1.000000e+000 -0.000000e+000
    outer loop
      vertex   0.000000e+000 -3.500000e+001 1.900000e+001
      vertex   -3.750000e+001 -3.500000e+001 1.900000e+001
      vertex   -2.042253e+001 -3.500000e+001 1.557614e+001
    endloop
  endfacet
  facet normal -0.000000e+000 -1.000000e+000 -0.000000e+000
    outer loop
      vertex   -2.042253e+001 -3.500000e+001 1.557614e+001
      vertex   -3.750000e+001 -3.500000e+001 1.900000e+001
      vertex   -3.750000e+001 -3.500000e+001 -2.000000e+000
    endloop
  endfacet
  facet normal 0.000000e+000 -1.000000e+000 -0.000000e+000
    outer loop
      vertex   -2.042253e+001 -3.500000e+001 -4.238555e-001
      vertex   -3.750000e+001 -3.500000e+001 -2.000000e+000
      vertex   0.000000e+000 -3.500000e+001 -2.000000e+000
    endloop
  endfacet
  facet normal -0.000000e+000 -1.000000e+000 -0.000000e+000
    outer loop
      vertex   -5.422529e+000 -3.500000e+001 -4.238555e-001
      vertex   -2.042253e+001 -3.500000e+001 -4.238555e-001
      vertex   0.000000e+000 -3.500000e+001 -2.000000e+000
    endloop
  endfacet
  facet normal -0.000000e+000 -1.000000e+000 0.000000e+000
    outer loop
      vertex   -2.042253e+001 -3.500000e+001 -4.238555e-001
      vertex   -2.042253e+001 -3.500000e+001 1.557614e+001
      vertex   -3.750000e+001 -3.500000e+001 -2.000000e+000
    endloop
  endfacet
  facet normal 0.000000e+000 -1.000000e+000 0.000000e+000
    outer loop
      vertex   0.000000e+000 -3.500000e+001 -2.000000e+000
      vertex   3.750000e+001 -3.500000e+001 -2.000000e+000
      vertex   3.750000e+001 -3.500000e+001 1.900000e+001
    endloop
  endfacet
  facet normal -1.000000e+000 0.000000e+000 0.000000e+000
    outer loop
      vertex   -3.750000e+001 -5.500000e+000 1.450000e+001
      vertex   -3.750000e+001 -3.250000e+001 1.450000e+001
      vertex   -3.750000e+001 -3.500000e+001 1.900000e+001
    endloop
  endfacet
  facet normal -1.000000e+000 -0.000000e+000 0.000000e+000
    outer loop
      vertex   -3.750000e+001 0.000000e+000 1.900000e+001
      vertex   -3.750000e+001 -5.500000e+000 1.450000e+001
      vertex   -3.750000e+001 -3.500000e+001 1.900000e+001
    endloop
  endfacet
  facet normal -1.000000e+000 -0.000000e+000 0.000000e+000
    outer loop
      vertex   -3.750000e+001 0.000000e+000 1.900000e+001
      vertex   -3.750000e+001 -5.500000e+000 7.500000e+000
      vertex   -3.750000e+001 -5.500000e+000 1.450000e+001
    endloop
  endfacet
  facet normal -1.000000e+000 -0.000000e+000 -0.000000e+000
    outer loop
      vertex   -3.750000e+001 0.000000e+000 1.900000e+001
      vertex   -3.750000e+001 0.000000e+000 -2.000000e+000
      vertex   -3.750000e+001 -5.500000e+000 7.500000e+000
    endloop
  endfacet
  facet normal -1.000000e+000 -0.000000e+000 -0.000000e+000
    outer loop
      vertex   -3.750000e+001 0.000000e+000 1.900000e+001
      vertex   -3.750000e+001 3.500000e+001 -2.000000e+000
      vertex   -3.750000e+001 0.000000e+000 -2.000000e+000
    endloop
  endfacet
  facet normal -1.000000e+000 0.000000e+000 0.000000e+000
    outer loop
      vertex   -3.750000e+001 0.000000e+000 1.900000e+001
      vertex   -3.750000e+001 3.500000e+001 1.900000e+001
      vertex   -3.750000e+001 3.500000e+001 -2.000000e+000
    endloop
  endfacet
  facet normal -1.000000e+000 -0.000000e+000 0.000000e+000
    outer loop
      vertex   -3.750000e+001 -5.500000e+000 7.500000e+000
      vertex   -3.750000e+001 -3.500000e+001 -2.000000e+000
      vertex   -3.750000e+001 -3.250000e+001 7.500000e+000
    endloop
  endfacet
  facet normal -1.000000e+000 -0.000000e+000 -0.000000e+000
    outer loop
      vertex   -3.750000e+001 -5.500000e+000 7.500000e+000
      vertex   -3.750000e+001 0.000000e+000 -2.000000e+000
      vertex   -3.750000e+001 -3.500000e+001 -2.000000e+000
    endloop
  endfacet
  facet normal -1.000000e+000 0.000000e+000 0.000000e+000
    outer loop
      vertex   -3.750000e+001 -3.500000e+001 -2.000000e+000
      vertex   -3.750000e+001 -3.500000e+001 1.900000e+001
      vertex   -3.750000e+001 -3.250000e+001 7.500000e+000
    endloop
  endfacet
  facet normal -1.000000e+000 0.000000e+000 0.000000e+000
    outer loop
      vertex   -3.750000e+001 -3.250000e+001 7.500000e+000
      vertex   -3.750000e+001 -3.500000e+001 1.900000e+001
      vertex   -3.750000e+001 -3.250000e+001 1.450000e+001
    endloop
  endfacet
  facet normal 0.000000e+000 1.000000e+000 0.000000e+000
    outer loop
      vertex   3.750000e+001 3.500000e+001 1.900000e+001
      vertex   3.750000e+001 3.500000e+001 -2.000000e+000
      vertex   0.000000e+000 3.500000e+001 1.900000e+001
    endloop
  endfacet
  facet normal 0.000000e+000 1.000000e+000 0.000000e+000
    outer loop
      vertex   0.000000e+000 3.500000e+001 1.900000e+001
      vertex   3.750000e+001 3.500000e+001 -2.000000e+000
      vertex   0.000000e+000 3.500000e+001 -2.000000e+000
    endloop
  endfacet
  facet normal 0.000000e+000 1.000000e+000 0.000000e+000
    outer loop
      vertex   -3.750000e+001 3.500000e+001 1.900000e+001
      vertex   0.000000e+000 3.500000e+001 -2.000000e+000
      vertex   -3.750000e+001 3.500000e+001 -2.000000e+000
    endloop
  endfacet
  facet normal -0.000000e+000 1.000000e+000 0.000000e+000
    outer loop
      vertex   -3.750000e+001 3.500000e+001 1.900000e+001
      vertex   0.000000e+000 3.500000e+001 1.900000e+001
      vertex   0.000000e+000 3.500000e+001 -2.000000e+000
    endloop
  endfacet
  facet normal 1.000000e+000 -0.000000e+000 0.000000e+000
    outer loop
      vertex   3.750000e+001 5.000000e+000 1.900000e+001
      vertex   3.750000e+001 5.000000e+000 7.500000e+000
      vertex   3.750000e+001 3.500000e+001 1.900000e+001
    endloop
  endfacet
  facet normal 1.000000e+000 0.000000e+000 0.000000e+000
    outer loop
      vertex   3.750000e+001 3.500000e+001 1.900000e+001
      vertex   3.750000e+001 5.000000e+000 7.500000e+000
      vertex   3.750000e+001 3.500000e+001 -2.000000e+000
    endloop
  endfacet
  facet normal 1.000000e+000 0.000000e+000 0.000000e+000
    outer loop
      vertex   3.750000e+001 3.500000e+001 -2.000000e+000
      vertex   3.750000e+001 5.000000e+000 7.500000e+000
      vertex   3.750000e+001 0.000000e+000 -2.000000e+000
    endloop
  endfacet
  facet normal 1.000000e+000 0.000000e+000 -0.000000e+000
    outer loop
      vertex   3.750000e+001 0.000000e+000 -2.000000e+000
      vertex   3.750000e+001 5.000000e+000 7.500000e+000
      vertex   3.750000e+001 -5.000000e+000 7.500000e+000
    endloop
  endfacet
  facet normal 1.000000e+000 0.000000e+000 -0.000000e+000
    outer loop
      vertex   3.750000e+001 -3.500000e+001 -2.000000e+000
      vertex   3.750000e+001 -5.000000e+000 7.500000e+000
      vertex   3.750000e+001 -3.500000e+001 1.900000e+001
    endloop
  endfacet
  facet normal 1.000000e+000 0.000000e+000 -0.000000e+000
    outer loop
      vertex   3.750000e+001 -3.500000e+001 -2.000000e+000
      vertex   3.750000e+001 0.000000e+000 -2.000000e+000
      vertex   3.750000e+001 -5.000000e+000 7.500000e+000
    endloop
  endfacet
  facet normal 1.000000e+000 0.000000e+000 -0.000000e+000
    outer loop
      vertex   3.750000e+001 -5.000000e+000 7.500000e+000
      vertex   3.750000e+001 -5.000000e+000 1.900000e+001
      vertex   3.750000e+001 -3.500000e+001 1.900000e+001
    endloop
  endfacet
  facet normal -0.000000e+000 -1.000000e+000 -0.000000e+000
    outer loop
      vertex   3.750000e+001 5.000000e+000 1.900000e+001
      vertex   3.500000e+001 5.000000e+000 1.900000e+001
      vertex   3.750000e+001 5.000000e+000 7.500000e+000
    endloop
  endfacet
  facet normal -0.000000e+000 -1.000000e+000 -0.000000e+000
    outer loop
      vertex   3.750000e+001 5.000000e+000 7.500000e+000
      vertex   3.500000e+001 5.000000e+000 1.900000e+001
      vertex   3.500000e+001 5.000000e+000 7.500000e+000
    endloop
  endfacet
  facet normal -1.000000e+000 -0.000000e+000 -0.000000e+000
    outer loop
      vertex   3.500000e+001 -5.000000e+000 1.900000e+001
      vertex   3.500000e+001 -5.000000e+000 7.500000e+000
      vertex   3.500000e+001 -3.200000e+001 1.900000e+001
    endloop
  endfacet
  facet normal -1.000000e+000 0.000000e+000 -0.000000e+000
    outer loop
      vertex   3.500000e+001 -3.200000e+001 1.900000e+001
      vertex   3.500000e+001 -5.000000e+000 7.500000e+000
      vertex   3.500000e+001 -3.200000e+001 0.000000e+000
    endloop
  endfacet
  facet normal -1.000000e+000 0.000000e+000 0.000000e+000
    outer loop
      vertex   3.500000e+001 -3.200000e+001 0.000000e+000
      vertex   3.500000e+001 -5.000000e+000 7.500000e+000
      vertex   3.500000e+001 0.000000e+000 0.000000e+000
    endloop
  endfacet
  facet normal -1.000000e+000 0.000000e+000 0.000000e+000
    outer loop
      vertex   3.500000e+001 0.000000e+000 0.000000e+000
      vertex   3.500000e+001 -5.000000e+000 7.500000e+000
      vertex   3.500000e+001 5.000000e+000 7.500000e+000
    endloop
  endfacet
  facet normal -1.000000e+000 0.000000e+000 0.000000e+000
    outer loop
      vertex   3.500000e+001 3.200000e+001 0.000000e+000
      vertex   3.500000e+001 5.000000e+000 7.500000e+000
      vertex   3.500000e+001 3.200000e+001 1.900000e+001
    endloop
  endfacet
  facet normal -1.000000e+000 0.000000e+000 0.000000e+000
    outer loop
      vertex   3.500000e+001 3.200000e+001 0.000000e+000
      vertex   3.500000e+001 0.000000e+000 0.000000e+000
      vertex   3.500000e+001 5.000000e+000 7.500000e+000
    endloop
  endfacet
  facet normal -1.000000e+000 0.000000e+000 0.000000e+000
    outer loop
      vertex   3.500000e+001 5.000000e+000 7.500000e+000
      vertex   3.500000e+001 5.000000e+000 1.900000e+001
      vertex   3.500000e+001 3.200000e+001 1.900000e+001
    endloop
  endfacet
  facet normal -0.000000e+000 -1.000000e+000 0.000000e+000
    outer loop
      vertex   3.500000e+001 3.200000e+001 0.000000e+000
      vertex   3.500000e+001 3.200000e+001 1.900000e+001
      vertex   0.000000e+000 3.200000e+001 0.000000e+000
    endloop
  endfacet
  facet normal 0.000000e+000 -1.000000e+000 0.000000e+000
    outer loop
      vertex   0.000000e+000 3.200000e+001 0.000000e+000
      vertex   3.500000e+001 3.200000e+001 1.900000e+001
      vertex   0.000000e+000 3.200000e+001 1.900000e+001
    endloop
  endfacet
  facet normal 0.000000e+000 -1.000000e+000 0.000000e+000
    outer loop
      vertex   -3.500000e+001 3.200000e+001 0.000000e+000
      vertex   0.000000e+000 3.200000e+001 1.900000e+001
      vertex   -3.500000e+001 3.200000e+001 1.900000e+001
    endloop
  endfacet
  facet normal 0.000000e+000 -1.000000e+000 0.000000e+000
    outer loop
      vertex   -3.500000e+001 3.200000e+001 0.000000e+000
      vertex   0.000000e+000 3.200000e+001 0.000000e+000
      vertex   0.000000e+000 3.200000e+001 1.900000e+001
    endloop
  endfacet
  facet normal 1.000000e+000 0.000000e+000 -0.000000e+000
    outer loop
      vertex   -3.500000e+001 -3.200000e+001 1.450000e+001
      vertex   -3.500000e+001 -5.500000e+000 1.450000e+001
      vertex   -3.500000e+001 -3.200000e+001 1.900000e+001
    endloop
  endfacet
  facet normal 1.000000e+000 -0.000000e+000 0.000000e+000
    outer loop
      vertex   -3.500000e+001 -3.200000e+001 1.900000e+001
      vertex   -3.500000e+001 -5.500000e+000 1.450000e+001
      vertex   -3.500000e+001 0.000000e+000 1.900000e+001
    endloop
  endfacet
  facet normal 1.000000e+000 0.000000e+000 0.000000e+000
    outer loop
      vertex   -3.500000e+001 0.000000e+000 1.900000e+001
      vertex   -3.500000e+001 -5.500000e+000 1.450000e+001
      vertex   -3.500000e+001 -5.500000e+000 7.500000e+000
    endloop
  endfacet
  facet normal 1.000000e+000 0.000000e+000 0.000000e+000
    outer loop
      vertex   -3.500000e+001 0.000000e+000 0.000000e+000
      vertex   -3.500000e+001 -5.500000e+000 7.500000e+000
      vertex   -3.500000e+001 -3.200000e+001 0.000000e+000
    endloop
  endfacet
  facet normal 1.000000e+000 0.000000e+000 -0.000000e+000
    outer loop
      vertex   -3.500000e+001 0.000000e+000 0.000000e+000
      vertex   -3.500000e+001 0.000000e+000 1.900000e+001
      vertex   -3.500000e+001 -5.500000e+000 7.500000e+000
    endloop
  endfacet
  facet normal 1.000000e+000 0.000000e+000 -0.000000e+000
    outer loop
      vertex   -3.500000e+001 0.000000e+000 0.000000e+000
      vertex   -3.500000e+001 3.200000e+001 1.900000e+001
      vertex   -3.500000e+001 0.000000e+000 1.900000e+001
    endloop
  endfacet
  facet normal 1.000000e+000 0.000000e+000 0.000000e+000
    outer loop
      vertex   -3.500000e+001 0.000000e+000 0.000000e+000
      vertex   -3.500000e+001 3.200000e+001 0.000000e+000
      vertex   -3.500000e+001 3.200000e+001 1.900000e+001
    endloop
  endfacet
  facet normal 1.000000e+000 0.000000e+000 0.000000e+000
    outer loop
      vertex   -3.500000e+001 -5.500000e+000 7.500000e+000
      vertex   -3.500000e+001 -3.200000e+001 7.500000e+000
      vertex   -3.500000e+001 -3.200000e+001 0.000000e+000
    endloop
  endfacet
  facet normal -1.000000e+000 -0.000000e+000 -0.000000e+000
    outer loop
      vertex   -2.922529e+000 -3.200000e+001 1.900000e+001
      vertex   -2.922529e+000 -3.200000e+001 0.000000e+000
      vertex   -2.922529e+000 -3.400000e+001 1.900000e+001
    endloop
  endfacet
  facet normal -1.000000e+000 -4.440892e-016 -4.674623e-017
    outer loop
      vertex   -2.922529e+000 -3.400000e+001 1.900000e+001
      vertex   -2.922529e+000 -3.200000e+001 0.000000e+000
      vertex   -2.922529e+000 -3.400000e+001 0.000000e+000
    endloop
  endfacet
  facet normal -0.000000e+000 1.000000e+000 0.000000e+000
    outer loop
      vertex   -3.500000e+001 -3.200000e+001 1.450000e+001
      vertex   -3.500000e+001 -3.200000e+001 1.900000e+001
      vertex   -3.150000e+001 -3.200000e+001 1.450000e+001
    endloop
  endfacet
  facet normal 0.000000e+000 1.000000e+000 -0.000000e+000
    outer loop
      vertex   -3.150000e+001 -3.200000e+001 1.450000e+001
      vertex   -3.500000e+001 -3.200000e+001 1.900000e+001
      vertex   -2.292253e+001 -3.200000e+001 1.900000e+001
    endloop
  endfacet
  facet normal -0.000000e+000 1.000000e+000 0.000000e+000
    outer loop
      vertex   -3.150000e+001 -3.200000e+001 7.500000e+000
      vertex   -2.292253e+001 -3.200000e+001 1.900000e+001
      vertex   -2.292253e+001 -3.200000e+001 0.000000e+000
    endloop
  endfacet
  facet normal -0.000000e+000 1.000000e+000 0.000000e+000
    outer loop
      vertex   -3.500000e+001 -3.200000e+001 0.000000e+000
      vertex   -3.150000e+001 -3.200000e+001 7.500000e+000
      vertex   -2.292253e+001 -3.200000e+001 0.000000e+000
    endloop
  endfacet
  facet normal 0.000000e+000 1.000000e+000 0.000000e+000
    outer loop
      vertex   -3.500000e+001 -3.200000e+001 0.000000e+000
      vertex   -3.500000e+001 -3.200000e+001 7.500000e+000
      vertex   -3.150000e+001 -3.200000e+001 7.500000e+000
    endloop
  endfacet
  facet normal -0.000000e+000 1.000000e+000 0.000000e+000
    outer loop
      vertex   -3.150000e+001 -3.200000e+001 1.450000e+001
      vertex   -2.292253e+001 -3.200000e+001 1.900000e+001
      vertex   -3.150000e+001 -3.200000e+001 7.500000e+000
    endloop
  endfacet
  facet normal 0.000000e+000 -0.000000e+000 1.000000e+000
    outer loop
      vertex   -2.292253e+001 -3.400000e+001 0.000000e+000
      vertex   -2.042253e+001 -3.400000e+001 0.000000e+000
      vertex   -2.292253e+001 -3.200000e+001 0.000000e+000
    endloop
  endfacet
  facet normal -0.000000e+000 0.000000e+000 1.000000e+000
    outer loop
      vertex   -2.292253e+001 -3.200000e+001 0.000000e+000
      vertex   -2.042253e+001 -3.400000e+001 0.000000e+000
      vertex   -2.042253e+001 -2.400000e+001 0.000000e+000
    endloop
  endfacet
  facet normal 0.000000e+000 -0.000000e+000 1.000000e+000
    outer loop
      vertex   -3.500000e+001 -3.200000e+001 0.000000e+000
      vertex   -2.042253e+001 -2.400000e+001 0.000000e+000
      vertex   -3.500000e+001 0.000000e+000 0.000000e+000
    endloop
  endfacet
  facet normal 0.000000e+000 0.000000e+000 1.000000e+000
    outer loop
      vertex   -3.500000e+001 -3.200000e+001 0.000000e+000
      vertex   -2.292253e+001 -3.200000e+001 0.000000e+000
      vertex   -2.042253e+001 -2.400000e+001 0.000000e+000
    endloop
  endfacet
  facet normal -0.000000e+000 0.000000e+000 1.000000e+000
    outer loop
      vertex   -3.500000e+001 0.000000e+000 0.000000e+000
      vertex   -2.042253e+001 -2.400000e+001 0.000000e+000
      vertex   0.000000e+000 -1.000000e+000 0.000000e+000
    endloop
  endfacet
  facet normal -0.000000e+000 0.000000e+000 1.000000e+000
    outer loop
      vertex   0.000000e+000 3.200000e+001 0.000000e+000
      vertex   0.000000e+000 -1.000000e+000 0.000000e+000
      vertex   3.500000e+001 0.000000e+000 0.000000e+000
    endloop
  endfacet
  facet normal 0.000000e+000 0.000000e+000 1.000000e+000
    outer loop
      vertex   3.500000e+001 3.200000e+001 0.000000e+000
      vertex   0.000000e+000 3.200000e+001 0.000000e+000
      vertex   3.500000e+001 0.000000e+000 0.000000e+000
    endloop
  endfacet
  facet normal 0.000000e+000 -0.000000e+000 1.000000e+000
    outer loop
      vertex   -5.422529e+000 -3.400000e+001 0.000000e+000
      vertex   -2.922529e+000 -3.200000e+001 0.000000e+000
      vertex   -5.422529e+000 -2.400000e+001 0.000000e+000
    endloop
  endfacet
  facet normal 0.000000e+000 -0.000000e+000 1.000000e+000
    outer loop
      vertex   -5.422529e+000 -3.400000e+001 0.000000e+000
      vertex   -2.922529e+000 -3.400000e+001 0.000000e+000
      vertex   -2.922529e+000 -3.200000e+001 0.000000e+000
    endloop
  endfacet
  facet normal 0.000000e+000 -0.000000e+000 1.000000e+000
    outer loop
      vertex   -2.922529e+000 -3.200000e+001 0.000000e+000
      vertex   3.500000e+001 -3.200000e+001 0.000000e+000
      vertex   -5.422529e+000 -2.400000e+001 0.000000e+000
    endloop
  endfacet
  facet normal -0.000000e+000 -0.000000e+000 1.000000e+000
    outer loop
      vertex   -5.422529e+000 -2.400000e+001 0.000000e+000
      vertex   3.500000e+001 -3.200000e+001 0.000000e+000
      vertex   0.000000e+000 -1.000000e+000 0.000000e+000
    endloop
  endfacet
  facet normal 0.000000e+000 0.000000e+000 1.000000e+000
    outer loop
      vertex   -2.042253e+001 -2.400000e+001 0.000000e+000
      vertex   -5.422529e+000 -2.400000e+001 0.000000e+000
      vertex   0.000000e+000 -1.000000e+000 0.000000e+000
    endloop
  endfacet
  facet normal 0.000000e+000 -0.000000e+000 1.000000e+000
    outer loop
      vertex   3.500000e+001 -3.200000e+001 0.000000e+000
      vertex   3.500000e+001 0.000000e+000 0.000000e+000
      vertex   0.000000e+000 -1.000000e+000 0.000000e+000
    endloop
  endfacet
  facet normal -0.000000e+000 0.000000e+000 1.000000e+000
    outer loop
      vertex   -3.500000e+001 3.200000e+001 0.000000e+000
      vertex   -3.500000e+001 0.000000e+000 0.000000e+000
      vertex   0.000000e+000 3.200000e+001 0.000000e+000
    endloop
  endfacet
  facet normal 0.000000e+000 0.000000e+000 1.000000e+000
    outer loop
      vertex   0.000000e+000 3.200000e+001 0.000000e+000
      vertex   -3.500000e+001 0.000000e+000 0.000000e+000
      vertex   0.000000e+000 -1.000000e+000 0.000000e+000
    endloop
  endfacet
  facet normal 0.000000e+000 1.000000e+000 0.000000e+000
    outer loop
      vertex   -2.922529e+000 -3.400000e+001 1.900000e+001
      vertex   -5.422529e+000 -3.400000e+001 1.557614e+001
      vertex   -2.292253e+001 -3.400000e+001 1.900000e+001
    endloop
  endfacet
  facet normal 0.000000e+000 1.000000e+000 0.000000e+000
    outer loop
      vertex   -2.922529e+000 -3.400000e+001 1.900000e+001
      vertex   -2.922529e+000 -3.400000e+001 0.000000e+000
      vertex   -5.422529e+000 -3.400000e+001 1.557614e+001
    endloop
  endfacet
  facet normal 0.000000e+000 1.000000e+000 0.000000e+000
    outer loop
      vertex   -5.422529e+000 -3.400000e+001 1.557614e+001
      vertex   -2.922529e+000 -3.400000e+001 0.000000e+000
      vertex   -5.422529e+000 -3.400000e+001 0.000000e+000
    endloop
  endfacet
  facet normal 0.000000e+000 1.000000e+000 0.000000e+000
    outer loop
      vertex   -5.422529e+000 -3.400000e+001 1.557614e+001
      vertex   -2.042253e+001 -3.400000e+001 1.557614e+001
      vertex   -2.292253e+001 -3.400000e+001 1.900000e+001
    endloop
  endfacet
  facet normal 0.000000e+000 1.000000e+000 0.000000e+000
    outer loop
      vertex   -2.292253e+001 -3.400000e+001 1.900000e+001
      vertex   -2.042253e+001 -3.400000e+001 1.557614e+001
      vertex   -2.292253e+001 -3.400000e+001 0.000000e+000
    endloop
  endfacet
  facet normal -0.000000e+000 1.000000e+000 0.000000e+000
    outer loop
      vertex   -2.292253e+001 -3.400000e+001 0.000000e+000
      vertex   -2.042253e+001 -3.400000e+001 1.557614e+001
      vertex   -2.042253e+001 -3.400000e+001 0.000000e+000
    endloop
  endfacet
  facet normal 0.000000e+000 0.000000e+000 1.000000e+000
    outer loop
      vertex   3.500000e+001 -3.200000e+001 1.900000e+001
      vertex   -2.922529e+000 -3.200000e+001 1.900000e+001
      vertex   0.000000e+000 -3.500000e+001 1.900000e+001
    endloop
  endfacet
  facet normal 0.000000e+000 0.000000e+000 1.000000e+000
    outer loop
      vertex   3.750000e+001 -3.500000e+001 1.900000e+001
      vertex   3.500000e+001 -3.200000e+001 1.900000e+001
      vertex   0.000000e+000 -3.500000e+001 1.900000e+001
    endloop
  endfacet
  facet normal 0.000000e+000 -0.000000e+000 1.000000e+000
    outer loop
      vertex   3.750000e+001 -3.500000e+001 1.900000e+001
      vertex   3.750000e+001 -5.000000e+000 1.900000e+001
      vertex   3.500000e+001 -3.200000e+001 1.900000e+001
    endloop
  endfacet
  facet normal 0.000000e+000 -0.000000e+000 1.000000e+000
    outer loop
      vertex   3.500000e+001 -3.200000e+001 1.900000e+001
      vertex   3.750000e+001 -5.000000e+000 1.900000e+001
      vertex   3.500000e+001 -5.000000e+000 1.900000e+001
    endloop
  endfacet
  facet normal 0.000000e+000 0.000000e+000 1.000000e+000
    outer loop
      vertex   -2.922529e+000 -3.200000e+001 1.900000e+001
      vertex   -2.922529e+000 -3.400000e+001 1.900000e+001
      vertex   0.000000e+000 -3.500000e+001 1.900000e+001
    endloop
  endfacet
  facet normal 0.000000e+000 0.000000e+000 1.000000e+000
    outer loop
      vertex   0.000000e+000 -3.500000e+001 1.900000e+001
      vertex   -2.922529e+000 -3.400000e+001 1.900000e+001
      vertex   -2.292253e+001 -3.400000e+001 1.900000e+001
    endloop
  endfacet
  facet normal 0.000000e+000 -0.000000e+000 1.000000e+000
    outer loop
      vertex   -3.750000e+001 -3.500000e+001 1.900000e+001
      vertex   -2.292253e+001 -3.400000e+001 1.900000e+001
      vertex   -3.500000e+001 -3.200000e+001 1.900000e+001
    endloop
  endfacet
  facet normal -0.000000e+000 0.000000e+000 1.000000e+000
    outer loop
      vertex   -3.750000e+001 0.000000e+000 1.900000e+001
      vertex   -3.500000e+001 -3.200000e+001 1.900000e+001
      vertex   -3.500000e+001 0.000000e+000 1.900000e+001
    endloop
  endfacet
  facet normal -0.000000e+000 0.000000e+000 1.000000e+000
    outer loop
      vertex   -3.500000e+001 3.200000e+001 1.900000e+001
      vertex   -3.750000e+001 0.000000e+000 1.900000e+001
      vertex   -3.500000e+001 0.000000e+000 1.900000e+001
    endloop
  endfacet
  facet normal 0.000000e+000 0.000000e+000 1.000000e+000
    outer loop
      vertex   -3.500000e+001 3.200000e+001 1.900000e+001
      vertex   -3.750000e+001 3.500000e+001 1.900000e+001
      vertex   -3.750000e+001 0.000000e+000 1.900000e+001
    endloop
  endfacet
  facet normal 0.000000e+000 -0.000000e+000 1.000000e+000
    outer loop
      vertex   -3.500000e+001 3.200000e+001 1.900000e+001
      vertex   0.000000e+000 3.500000e+001 1.900000e+001
      vertex   -3.750000e+001 3.500000e+001 1.900000e+001
    endloop
  endfacet
  facet normal 0.000000e+000 0.000000e+000 1.000000e+000
    outer loop
      vertex   -3.500000e+001 3.200000e+001 1.900000e+001
      vertex   0.000000e+000 3.200000e+001 1.900000e+001
      vertex   0.000000e+000 3.500000e+001 1.900000e+001
    endloop
  endfacet
  facet normal -0.000000e+000 0.000000e+000 1.000000e+000
    outer loop
      vertex   0.000000e+000 3.500000e+001 1.900000e+001
      vertex   0.000000e+000 3.200000e+001 1.900000e+001
      vertex   3.500000e+001 3.200000e+001 1.900000e+001
    endloop
  endfacet
  facet normal 0.000000e+000 0.000000e+000 1.000000e+000
    outer loop
      vertex   3.750000e+001 3.500000e+001 1.900000e+001
      vertex   3.500000e+001 3.200000e+001 1.900000e+001
      vertex   3.750000e+001 5.000000e+000 1.900000e+001
    endloop
  endfacet
  facet normal 0.000000e+000 0.000000e+000 1.000000e+000
    outer loop
      vertex   3.750000e+001 3.500000e+001 1.900000e+001
      vertex   0.000000e+000 3.500000e+001 1.900000e+001
      vertex   3.500000e+001 3.200000e+001 1.900000e+001
    endloop
  endfacet
  facet normal 0.000000e+000 -0.000000e+000 1.000000e+000
    outer loop
      vertex   -2.292253e+001 -3.400000e+001 1.900000e+001
      vertex   -2.292253e+001 -3.200000e+001 1.900000e+001
      vertex   -3.500000e+001 -3.200000e+001 1.900000e+001
    endloop
  endfacet
  facet normal 0.000000e+000 -0.000000e+000 1.000000e+000
    outer loop
      vertex   -3.750000e+001 -3.500000e+001 1.900000e+001
      vertex   -3.500000e+001 -3.200000e+001 1.900000e+001
      vertex   -3.750000e+001 0.000000e+000 1.900000e+001
    endloop
  endfacet
  facet normal -0.000000e+000 0.000000e+000 1.000000e+000
    outer loop
      vertex   3.500000e+001 3.200000e+001 1.900000e+001
      vertex   3.500000e+001 5.000000e+000 1.900000e+001
      vertex   3.750000e+001 5.000000e+000 1.900000e+001
    endloop
  endfacet
  facet normal 0.000000e+000 -0.000000e+000 1.000000e+000
    outer loop
      vertex   -3.750000e+001 -3.500000e+001 1.900000e+001
      vertex   0.000000e+000 -3.500000e+001 1.900000e+001
      vertex   -2.292253e+001 -3.400000e+001 1.900000e+001
    endloop
  endfacet
endsolid
