M48
M72, LZ
T1C0.0330
T2C0.0330
T3C0.0315
T4C0.0400
T5C0.1378
T6C0.1260
T7C0.0135
%
T1
X1.4300Y1.4800
T2
X1.5300Y1.4800
X1.8400Y1.4800
X1.9400Y1.4800
T3
X0.4000Y2.6750
X0.5000Y2.6750
X0.6000Y2.6750
X0.4000Y2.5750
X0.5000Y2.5750
X0.6000Y2.5750
X0.1000Y2.5750
X0.2000Y2.5750
X0.3000Y2.5750
X0.1000Y2.6750
X0.2000Y2.6750
X0.3000Y2.6750
T4
X2.2900Y0.3400
X2.0900Y0.3400
X0.9500Y2.5750
X0.7500Y2.5750
X2.1100Y1.4700
X2.3100Y1.4700
X0.9500Y2.6750
X0.7500Y2.6750
X0.0750Y0.7250
X0.0750Y0.6250
X0.0750Y0.5250
X0.0750Y0.4250
X0.1200Y1.5500
X0.2200Y1.5500
X0.3200Y1.5500
X0.4200Y1.5500
X0.5200Y1.5500
X0.6200Y1.5500
X0.7200Y1.5500
X0.8200Y1.5500
X0.9200Y1.5500
X1.0200Y1.5500
X1.1200Y1.5500
X1.2200Y1.5500
X1.2200Y2.1500
X1.1200Y2.1500
X1.0200Y2.1500
X0.9200Y2.1500
X0.8200Y2.1500
X0.7200Y2.1500
X0.6200Y2.1500
X0.5200Y2.1500
X0.4200Y2.1500
X0.3200Y2.1500
X0.2200Y2.1500
X0.1200Y2.1500
X1.7200Y2.6100
X1.8200Y2.6100
X1.9200Y2.6100
X2.0200Y2.6100
X1.1700Y1.0500
X1.1700Y0.8200
X2.3300Y0.8200
X2.3300Y1.0500
X1.9000Y2.4000
X1.8000Y2.4000
X1.7000Y2.4000
X1.6000Y2.4000
X1.5000Y2.4000
X1.4000Y2.4000
X1.3000Y2.4000
X1.2000Y2.4000
X1.1000Y2.4000
X1.0000Y2.4000
X0.9000Y2.4000
X0.8000Y2.4000
X0.7000Y2.4000
X0.6000Y2.4000
X0.5000Y2.4000
X0.5000Y1.3000
X0.6000Y1.3000
X0.7000Y1.3000
X0.8000Y1.3000
X0.9000Y1.3000
X1.0000Y1.3000
X1.1000Y1.3000
X1.2000Y1.3000
X1.3000Y1.3000
X1.4000Y1.3000
X1.5000Y1.3000
X1.6000Y1.3000
X1.7000Y1.3000
X1.8000Y1.3000
X1.9000Y1.3000
X1.6400Y0.0800
X1.7400Y0.0800
X1.8400Y0.0800
X1.1500Y0.0700
X1.3500Y0.0700
X0.8100Y1.0800
X0.9100Y1.0800
X0.7100Y1.0800
X0.6100Y1.0800
X0.5100Y1.0800
X0.4100Y1.0800
X1.6900Y1.4800
X1.6900Y1.7800
T5
X1.2500Y0.5213
T6
X1.2500Y0.2851
X1.4370Y0.4032
T7
X1.4100Y2.0000
X1.3300Y1.7100
X1.3600Y1.9400
X1.3600Y1.6800
X1.2800Y1.7200
X1.1800Y1.7200
T00
M30
