M48
M72, LZ
T1C0.0330
T2C0.0330
T3C0.0400
T4C0.1378
T5C0.1260
T6C0.1221
T7C0.0135
%
T1
X1.6250Y1.6750
T2
X1.6250Y1.7750
T3
X1.5000Y2.1000
X1.7000Y2.1000
X0.4500Y2.2000
X0.5500Y2.2000
X0.6500Y2.2000
X0.7500Y2.2000
X1.4250Y1.7000
X1.4250Y2.0000
X0.1500Y2.0500
X0.2500Y2.0500
X0.3500Y2.0500
X0.4500Y2.0500
X0.5500Y2.0500
X0.6500Y2.0500
X0.7500Y2.0500
X0.8500Y2.0500
X0.9500Y2.0500
X1.0500Y2.0500
X1.1500Y2.0500
X1.2500Y2.0500
X1.2500Y1.4500
X1.1500Y1.4500
X1.0500Y1.4500
X0.9500Y1.4500
X0.8500Y1.4500
X0.7500Y1.4500
X0.6500Y1.4500
X0.5500Y1.4500
X0.4500Y1.4500
X0.3500Y1.4500
X0.2500Y1.4500
X0.1500Y1.4500
X1.6750Y0.9000
X1.5750Y0.9000
X1.4750Y0.9000
X0.1000Y0.7250
X0.1000Y0.6250
X0.1000Y0.5250
X0.1000Y0.4250
X2.0000Y1.0500
X2.0000Y0.9500
X2.0000Y0.8500
X2.0000Y0.7500
X2.0000Y0.6500
X2.0000Y0.5500
X2.0000Y1.6000
X2.0000Y1.7000
X2.0000Y1.8000
X1.9000Y1.6000
X1.9000Y1.7000
X1.9000Y1.8000
X2.0000Y1.2000
X2.0000Y1.3000
X2.0000Y1.4000
X1.9000Y1.2000
X1.9000Y1.3000
X1.9000Y1.4000
X1.7750Y0.1250
X1.9750Y0.1250
X1.7750Y0.3250
X1.9750Y0.3250
X1.7500Y0.8000
X1.7500Y0.5000
X1.6000Y0.7000
X1.3000Y0.7000
X2.0000Y2.0000
X2.0000Y2.1000
X1.9000Y2.0000
X1.9000Y2.1000
X1.2500Y2.2000
X1.3500Y2.2000
X0.2500Y1.0750
X0.2500Y0.9750
X0.2500Y0.8750
X0.2500Y0.7750
X0.2500Y0.6750
X0.2500Y0.5750
X0.2500Y0.4750
X0.2500Y0.3750
X1.1500Y0.3750
X1.1500Y0.4750
X1.1500Y0.5750
X1.1500Y0.6750
X1.1500Y0.7750
X1.1500Y0.8750
X1.1500Y0.9750
X1.1500Y1.0750
T4
X1.4000Y0.4413
T5
X1.4000Y0.2051
X1.5870Y0.3232
T6
X1.3250Y0.8750
X1.7250Y2.2500
T7
X0.2000Y1.3750
X0.2000Y2.2250
X1.0000Y2.1375
X1.4250Y2.2000
X1.2750Y1.8000
T00
M30
