G04 -- Generated By PCBWeb Designer*
%FSLAX24Y24*%
%MOIN*%
%OFA0B0*%
%SFA1.0B1.0*%
%AMROTRECT*21,1,$1,$2,0,0,$3*%
%AMROTOBLONG*1,1,$7,$1,$2*1,1,$7,$3,$4*21,1,$5,$6,0,0,$8*%
%ADD10C,0.025*%
%ADD11R,0.055X0.055*%
%ADD12C,0.033*%
%ADD13R,0.065X0.065*%
%ADD14C,0.055*%
%ADD15C,0.033*%
%ADD16C,0.065*%
%ADD17C,0.01*%
%ADD18C,0.008*%
%ADD19C,0.024*%
%ADD20R,0.0532X0.0532*%
%ADD21C,0.0315*%
%ADD22R,0.0632X0.0632*%
%ADD23C,0.0532*%
%ADD24C,0.0632*%
%ADD25C,0.075*%
%ADD26C,0.04*%
%ADD27C,0.085*%
%ADD28R,0.075X0.075*%
%ADD29R,0.085X0.085*%
%ADD30C,0.026*%
%ADD31C,0.074*%
%ADD32C,0.084*%
%ADD33C,0.0048*%
%ADD34C,0.0208*%
%ADD35C,0.175*%
%ADD36C,0.185*%
%ADD37C,0.1969*%
%ADD38C,0.1378*%
%ADD39C,0.2069*%
%ADD40C,0.126*%
%ADD41R,0.02X0.04*%
%ADD42R,0.03X0.05*%
%ADD43C,0.001*%
%ADD44C,0.0*%
%ADD45C,0.0275*%
G01*
%LNBASEFILL*%
%LPD*%
G36*
X7375Y27225D02*
X245Y27254D01*
X4385Y27135D01*
X7375Y27225D01*
G37*
G36*
X245Y27254D02*
X3615Y27135D01*
X4385Y27135D01*
X245Y27254D01*
G37*
G36*
X245Y27254D02*
X3000Y27135D01*
X3615Y27135D01*
X245Y27254D01*
G37*
G36*
X3000Y27135D02*
X3119Y27116D01*
X3615Y27135D01*
X3000Y27135D01*
G37*
G36*
X3119Y27116D02*
X3226Y27061D01*
X3615Y27135D01*
X3119Y27116D01*
G37*
G36*
X3226Y27061D02*
X3311Y26976D01*
X3615Y27135D01*
X3226Y27061D01*
G37*
G36*
X3311Y26976D02*
X3366Y26869D01*
X3615Y27135D01*
X3311Y26976D01*
G37*
G36*
X3366Y26869D02*
X3385Y26750D01*
X3615Y27135D01*
X3366Y26869D01*
G37*
G36*
X3385Y26750D02*
X3615Y26365D01*
X3615Y27135D01*
X3385Y26750D01*
G37*
G36*
X3385Y26750D02*
X3366Y26631D01*
X3615Y26365D01*
X3385Y26750D01*
G37*
G36*
X3366Y26631D02*
X3311Y26524D01*
X3615Y26365D01*
X3366Y26631D01*
G37*
G36*
X3311Y26524D02*
X3226Y26439D01*
X3615Y26365D01*
X3311Y26524D01*
G37*
G36*
X3615Y26365D02*
X3226Y26439D01*
X3226Y26061D01*
X3615Y26365D01*
G37*
G36*
X3226Y26061D02*
X3226Y26439D01*
X3119Y26116D01*
X3226Y26061D01*
G37*
G36*
X3226Y26439D02*
X3119Y26384D01*
X3119Y26116D01*
X3226Y26439D01*
G37*
G36*
X3000Y26365D02*
X3119Y26116D01*
X3119Y26384D01*
X3000Y26365D01*
G37*
G36*
X3000Y26365D02*
X3000Y26135D01*
X3119Y26116D01*
X3000Y26365D01*
G37*
G36*
X2881Y26116D02*
X3000Y26135D01*
X3000Y26365D01*
X2881Y26116D01*
G37*
G36*
X2881Y26384D02*
X2881Y26116D01*
X3000Y26365D01*
X2881Y26384D01*
G37*
G36*
X2774Y26061D02*
X2881Y26116D01*
X2881Y26384D01*
X2774Y26061D01*
G37*
G36*
X2774Y26439D02*
X2774Y26061D01*
X2881Y26384D01*
X2774Y26439D01*
G37*
G36*
X2689Y25976D02*
X2774Y26061D01*
X2774Y26439D01*
X2689Y25976D01*
G37*
G36*
X2311Y26524D02*
X2689Y25976D01*
X2774Y26439D01*
X2311Y26524D01*
G37*
G36*
X2689Y26524D02*
X2311Y26524D01*
X2774Y26439D01*
X2689Y26524D01*
G37*
G36*
X2366Y26631D02*
X2311Y26524D01*
X2689Y26524D01*
X2366Y26631D01*
G37*
G36*
X2634Y26631D02*
X2366Y26631D01*
X2689Y26524D01*
X2634Y26631D01*
G37*
G36*
X2385Y26750D02*
X2366Y26631D01*
X2634Y26631D01*
X2385Y26750D01*
G37*
G36*
X2615Y26750D02*
X2385Y26750D01*
X2634Y26631D01*
X2615Y26750D01*
G37*
G36*
X2366Y26869D02*
X2385Y26750D01*
X2615Y26750D01*
X2366Y26869D01*
G37*
G36*
X2366Y26869D02*
X2615Y26750D01*
X2634Y26869D01*
X2366Y26869D01*
G37*
G36*
X2311Y26976D02*
X2366Y26869D01*
X2634Y26869D01*
X2311Y26976D01*
G37*
G36*
X2689Y26976D02*
X2311Y26976D01*
X2634Y26869D01*
X2689Y26976D01*
G37*
G36*
X2774Y27061D02*
X2311Y26976D01*
X2689Y26976D01*
X2774Y27061D01*
G37*
G36*
X2774Y27061D02*
X2226Y27061D01*
X2311Y26976D01*
X2774Y27061D01*
G37*
G36*
X2881Y27116D02*
X2226Y27061D01*
X2774Y27061D01*
X2881Y27116D01*
G37*
G36*
X2119Y27116D02*
X2226Y27061D01*
X2881Y27116D01*
X2119Y27116D01*
G37*
G36*
X3000Y27135D02*
X2119Y27116D01*
X2881Y27116D01*
X3000Y27135D01*
G37*
G36*
X2000Y27135D02*
X2119Y27116D01*
X3000Y27135D01*
X2000Y27135D01*
G37*
G36*
X245Y27254D02*
X2000Y27135D01*
X3000Y27135D01*
X245Y27254D01*
G37*
G36*
X245Y27254D02*
X1385Y27135D01*
X2000Y27135D01*
X245Y27254D01*
G37*
G36*
X1385Y27135D02*
X1881Y27116D01*
X2000Y27135D01*
X1385Y27135D01*
G37*
G36*
X1385Y27135D02*
X1774Y27061D01*
X1881Y27116D01*
X1385Y27135D01*
G37*
G36*
X1385Y27135D02*
X1689Y26976D01*
X1774Y27061D01*
X1385Y27135D01*
G37*
G36*
X1385Y27135D02*
X1634Y26869D01*
X1689Y26976D01*
X1385Y27135D01*
G37*
G36*
X1634Y26869D02*
X1385Y27135D01*
X1615Y26750D01*
X1634Y26869D01*
G37*
G36*
X1615Y26750D02*
X1385Y27135D01*
X1385Y26365D01*
X1615Y26750D01*
G37*
G36*
X1615Y26750D02*
X1385Y26365D01*
X1634Y26631D01*
X1615Y26750D01*
G37*
G36*
X1634Y26631D02*
X1385Y26365D01*
X1689Y26524D01*
X1634Y26631D01*
G37*
G36*
X1689Y26524D02*
X1385Y26365D01*
X1774Y26439D01*
X1689Y26524D01*
G37*
G36*
X1774Y26439D02*
X1385Y26365D01*
X1774Y26061D01*
X1774Y26439D01*
G37*
G36*
X1774Y26061D02*
X1385Y26365D01*
X1385Y26135D01*
X1774Y26061D01*
G37*
G36*
X615Y26365D02*
X1385Y26135D01*
X1385Y26365D01*
X615Y26365D01*
G37*
G36*
X615Y26365D02*
X615Y26135D01*
X1385Y26135D01*
X615Y26365D01*
G37*
G36*
X615Y26365D02*
X245Y27254D01*
X615Y26135D01*
X615Y26365D01*
G37*
G36*
X615Y26135D02*
X245Y27254D01*
X615Y25365D01*
X615Y26135D01*
G37*
G36*
X711Y21500D02*
X615Y25365D01*
X245Y27254D01*
X711Y21500D01*
G37*
G36*
X711Y15500D02*
X711Y21500D01*
X245Y27254D01*
X711Y15500D01*
G37*
G36*
X711Y15500D02*
X245Y27254D01*
X256Y7250D01*
X711Y15500D01*
G37*
G36*
X256Y6250D02*
X256Y7250D01*
X245Y27254D01*
X256Y6250D01*
G37*
G36*
X245Y27254D02*
X256Y5250D01*
X256Y6250D01*
X245Y27254D01*
G37*
G36*
X256Y6250D02*
X256Y5250D01*
X280Y6097D01*
X256Y6250D01*
G37*
G36*
X256Y5250D02*
X280Y5403D01*
X280Y6097D01*
X256Y5250D01*
G37*
G36*
X280Y6097D02*
X280Y5403D01*
X350Y5540D01*
X280Y6097D01*
G37*
G36*
X350Y5960D02*
X280Y6097D01*
X350Y5540D01*
X350Y5960D01*
G37*
G36*
X350Y5960D02*
X350Y5540D01*
X460Y5650D01*
X350Y5960D01*
G37*
G36*
X460Y5850D02*
X350Y5960D01*
X460Y5650D01*
X460Y5850D01*
G37*
G36*
X460Y5850D02*
X460Y5650D01*
X597Y5720D01*
X460Y5850D01*
G37*
G36*
X597Y5780D02*
X460Y5850D01*
X597Y5720D01*
X597Y5780D01*
G37*
G36*
X597Y5780D02*
X597Y5720D01*
X750Y5744D01*
X597Y5780D01*
G37*
G36*
X750Y5756D02*
X597Y5780D01*
X750Y5744D01*
X750Y5756D01*
G37*
G36*
X903Y5780D02*
X750Y5756D01*
X750Y5744D01*
X903Y5780D01*
G37*
G36*
X903Y5780D02*
X750Y5744D01*
X903Y5720D01*
X903Y5780D01*
G37*
G36*
X903Y5780D02*
X903Y5720D01*
X1040Y5650D01*
X903Y5780D01*
G37*
G36*
X903Y5780D02*
X1040Y5650D01*
X1040Y5850D01*
X903Y5780D01*
G37*
G36*
X1150Y5960D02*
X1040Y5850D01*
X1040Y5650D01*
X1150Y5960D01*
G37*
G36*
X1150Y5960D02*
X1040Y5650D01*
X1150Y5540D01*
X1150Y5960D01*
G37*
G36*
X1150Y5960D02*
X1150Y5540D01*
X1950Y6091D01*
X1150Y5960D01*
G37*
G36*
X1950Y6091D02*
X1150Y5540D01*
X1220Y5403D01*
X1950Y6091D01*
G37*
G36*
X1220Y5403D02*
X1244Y5250D01*
X1950Y6091D01*
X1220Y5403D01*
G37*
G36*
X1244Y5250D02*
X1220Y5097D01*
X1950Y6091D01*
X1244Y5250D01*
G37*
G36*
X1950Y6091D02*
X1220Y5097D01*
X1220Y4403D01*
X1950Y6091D01*
G37*
G36*
X1220Y5097D02*
X1150Y4540D01*
X1220Y4403D01*
X1220Y5097D01*
G37*
G36*
X1220Y5097D02*
X1150Y4960D01*
X1150Y4540D01*
X1220Y5097D01*
G37*
G36*
X1150Y4960D02*
X1040Y4650D01*
X1150Y4540D01*
X1150Y4960D01*
G37*
G36*
X1150Y4960D02*
X1040Y4850D01*
X1040Y4650D01*
X1150Y4960D01*
G37*
G36*
X903Y4780D02*
X1040Y4650D01*
X1040Y4850D01*
X903Y4780D01*
G37*
G36*
X903Y4780D02*
X903Y4720D01*
X1040Y4650D01*
X903Y4780D01*
G37*
G36*
X903Y4780D02*
X750Y4744D01*
X903Y4720D01*
X903Y4780D01*
G37*
G36*
X903Y4780D02*
X750Y4756D01*
X750Y4744D01*
X903Y4780D01*
G37*
G36*
X750Y4756D02*
X597Y4780D01*
X750Y4744D01*
X750Y4756D01*
G37*
G36*
X597Y4780D02*
X597Y4720D01*
X750Y4744D01*
X597Y4780D01*
G37*
G36*
X597Y4780D02*
X460Y4850D01*
X597Y4720D01*
X597Y4780D01*
G37*
G36*
X460Y4850D02*
X460Y4650D01*
X597Y4720D01*
X460Y4850D01*
G37*
G36*
X460Y4850D02*
X350Y4960D01*
X460Y4650D01*
X460Y4850D01*
G37*
G36*
X350Y4960D02*
X350Y4540D01*
X460Y4650D01*
X350Y4960D01*
G37*
G36*
X350Y4960D02*
X280Y5097D01*
X350Y4540D01*
X350Y4960D01*
G37*
G36*
X280Y5097D02*
X280Y4403D01*
X350Y4540D01*
X280Y5097D01*
G37*
G36*
X256Y4250D02*
X280Y4403D01*
X280Y5097D01*
X256Y4250D01*
G37*
G36*
X256Y5250D02*
X256Y4250D01*
X280Y5097D01*
X256Y5250D01*
G37*
G36*
X256Y4250D02*
X256Y5250D01*
X245Y27254D01*
X256Y4250D01*
G37*
G36*
X245Y245D02*
X256Y4250D01*
X245Y27254D01*
X245Y245D01*
G37*
G36*
X280Y4097D02*
X256Y4250D01*
X245Y245D01*
X280Y4097D01*
G37*
G36*
X280Y4097D02*
X245Y245D01*
X350Y3960D01*
X280Y4097D01*
G37*
G36*
X350Y3960D02*
X245Y245D01*
X460Y3850D01*
X350Y3960D01*
G37*
G36*
X460Y3850D02*
X245Y245D01*
X597Y3780D01*
X460Y3850D01*
G37*
G36*
X597Y3780D02*
X245Y245D01*
X750Y3756D01*
X597Y3780D01*
G37*
G36*
X903Y3780D02*
X750Y3756D01*
X245Y245D01*
X903Y3780D01*
G37*
G36*
X11005Y700D02*
X903Y3780D01*
X245Y245D01*
X11005Y700D01*
G37*
G36*
X11005Y700D02*
X245Y245D01*
X11029Y547D01*
X11005Y700D01*
G37*
G36*
X11029Y547D02*
X245Y245D01*
X11100Y409D01*
X11029Y547D01*
G37*
G36*
X11100Y409D02*
X245Y245D01*
X11209Y300D01*
X11100Y409D01*
G37*
G36*
X11209Y300D02*
X245Y245D01*
X11316Y245D01*
X11209Y300D01*
G37*
G36*
X11005Y700D02*
X1040Y3850D01*
X903Y3780D01*
X11005Y700D01*
G37*
G36*
X11005Y700D02*
X1150Y3960D01*
X1040Y3850D01*
X11005Y700D01*
G37*
G36*
X11029Y853D02*
X1150Y3960D01*
X11005Y700D01*
X11029Y853D01*
G37*
G36*
X1220Y4097D02*
X1150Y3960D01*
X11029Y853D01*
X1220Y4097D01*
G37*
G36*
X2029Y6112D02*
X1220Y4097D01*
X11029Y853D01*
X2029Y6112D01*
G37*
G36*
X11029Y853D02*
X2062Y6138D01*
X2029Y6112D01*
X11029Y853D01*
G37*
G36*
X11029Y853D02*
X2412Y6488D01*
X2062Y6138D01*
X11029Y853D01*
G37*
G36*
X11100Y991D02*
X2412Y6488D01*
X11029Y853D01*
X11100Y991D01*
G37*
G36*
X2438Y6521D02*
X2412Y6488D01*
X11100Y991D01*
X2438Y6521D01*
G37*
G36*
X11396Y5213D02*
X2438Y6521D01*
X11100Y991D01*
X11396Y5213D01*
G37*
G36*
X11209Y1100D02*
X11396Y5213D01*
X11100Y991D01*
X11209Y1100D01*
G37*
G36*
X11209Y1100D02*
X11397Y2851D01*
X11396Y5213D01*
X11209Y1100D01*
G37*
G36*
X11396Y5213D02*
X11397Y2851D01*
X11450Y4872D01*
X11396Y5213D01*
G37*
G36*
X11450Y4872D02*
X11397Y2851D01*
X11451Y3192D01*
X11450Y4872D01*
G37*
G36*
X11450Y4872D02*
X11451Y3192D01*
X11607Y4564D01*
X11450Y4872D01*
G37*
G36*
X11607Y4564D02*
X11451Y3192D01*
X11607Y3500D01*
X11607Y4564D01*
G37*
G36*
X11607Y4564D02*
X11607Y3500D01*
X11851Y4320D01*
X11607Y4564D01*
G37*
G36*
X11851Y4320D02*
X11607Y3500D01*
X11852Y3744D01*
X11851Y4320D01*
G37*
G36*
X11851Y4320D02*
X11852Y3744D01*
X12159Y4163D01*
X11851Y4320D01*
G37*
G36*
X12159Y4163D02*
X11852Y3744D01*
X12159Y3900D01*
X12159Y4163D01*
G37*
G36*
X12159Y4163D02*
X12159Y3900D01*
X12500Y4109D01*
X12159Y4163D01*
G37*
G36*
X12159Y3900D02*
X12500Y3954D01*
X12500Y4109D01*
X12159Y3900D01*
G37*
G36*
X12500Y4109D02*
X12500Y3954D01*
X12841Y3900D01*
X12500Y4109D01*
G37*
G36*
X12500Y4109D02*
X12841Y3900D01*
X12841Y4163D01*
X12500Y4109D01*
G37*
G36*
X12841Y4163D02*
X12841Y3900D01*
X13267Y4032D01*
X12841Y4163D01*
G37*
G36*
X12841Y3900D02*
X13148Y3744D01*
X13267Y4032D01*
X12841Y3900D01*
G37*
G36*
X13267Y4032D02*
X13148Y3744D01*
X13321Y3691D01*
X13267Y4032D01*
G37*
G36*
X13321Y3691D02*
X13148Y3744D01*
X13393Y3500D01*
X13321Y3691D01*
G37*
G36*
X13321Y3691D02*
X13393Y3500D01*
X13478Y3384D01*
X13321Y3691D01*
G37*
G36*
X13478Y3384D02*
X13393Y3500D01*
X13549Y3192D01*
X13478Y3384D01*
G37*
G36*
X13478Y3384D02*
X13549Y3192D01*
X13722Y3140D01*
X13478Y3384D01*
G37*
G36*
X13549Y3192D02*
X13603Y2851D01*
X13722Y3140D01*
X13549Y3192D01*
G37*
G36*
X13722Y3140D02*
X13603Y2851D01*
X14029Y2983D01*
X13722Y3140D01*
G37*
G36*
X13549Y2510D02*
X14029Y2983D01*
X13603Y2851D01*
X13549Y2510D01*
G37*
G36*
X14370Y2929D02*
X14029Y2983D01*
X13549Y2510D01*
X14370Y2929D01*
G37*
G36*
X13791Y1100D02*
X14370Y2929D01*
X13549Y2510D01*
X13791Y1100D01*
G37*
G36*
X13791Y1100D02*
X13549Y2510D01*
X13393Y2203D01*
X13791Y1100D01*
G37*
G36*
X13791Y1100D02*
X13393Y2203D01*
X13653Y1171D01*
X13791Y1100D01*
G37*
G36*
X13653Y1171D02*
X13393Y2203D01*
X13500Y1195D01*
X13653Y1171D01*
G37*
G36*
X13393Y2203D02*
X13148Y1959D01*
X13500Y1195D01*
X13393Y2203D01*
G37*
G36*
X13148Y1959D02*
X13347Y1171D01*
X13500Y1195D01*
X13148Y1959D01*
G37*
G36*
X13148Y1959D02*
X12841Y1802D01*
X13347Y1171D01*
X13148Y1959D01*
G37*
G36*
X12841Y1802D02*
X13209Y1100D01*
X13347Y1171D01*
X12841Y1802D01*
G37*
G36*
X13209Y1100D02*
X12841Y1802D01*
X13100Y991D01*
X13209Y1100D01*
G37*
G36*
X12841Y1802D02*
X12500Y1748D01*
X13100Y991D01*
X12841Y1802D01*
G37*
G36*
X12500Y1748D02*
X13029Y853D01*
X13100Y991D01*
X12500Y1748D01*
G37*
G36*
X12500Y1748D02*
X11971Y853D01*
X13029Y853D01*
X12500Y1748D01*
G37*
G36*
X11995Y700D02*
X13029Y853D01*
X11971Y853D01*
X11995Y700D01*
G37*
G36*
X13029Y853D02*
X11995Y700D01*
X13005Y700D01*
X13029Y853D01*
G37*
G36*
X13005Y700D02*
X11995Y700D01*
X13029Y547D01*
X13005Y700D01*
G37*
G36*
X11995Y700D02*
X11971Y547D01*
X13029Y547D01*
X11995Y700D01*
G37*
G36*
X13029Y547D02*
X11971Y547D01*
X11900Y409D01*
X13029Y547D01*
G37*
G36*
X13100Y409D02*
X13029Y547D01*
X11900Y409D01*
X13100Y409D01*
G37*
G36*
X13100Y409D02*
X11900Y409D01*
X13209Y300D01*
X13100Y409D01*
G37*
G36*
X11900Y409D02*
X11791Y300D01*
X13209Y300D01*
X11900Y409D01*
G37*
G36*
X13209Y300D02*
X11791Y300D01*
X11684Y245D01*
X13209Y300D01*
G37*
G36*
X13316Y245D02*
X13209Y300D01*
X11684Y245D01*
X13316Y245D01*
G37*
G36*
X11900Y991D02*
X11971Y853D01*
X12500Y1748D01*
X11900Y991D01*
G37*
G36*
X12500Y1748D02*
X12159Y1802D01*
X11900Y991D01*
X12500Y1748D01*
G37*
G36*
X12159Y1802D02*
X11791Y1100D01*
X11900Y991D01*
X12159Y1802D01*
G37*
G36*
X12159Y1802D02*
X11653Y1171D01*
X11791Y1100D01*
X12159Y1802D01*
G37*
G36*
X11852Y1959D02*
X11653Y1171D01*
X12159Y1802D01*
X11852Y1959D01*
G37*
G36*
X11852Y1959D02*
X11500Y1195D01*
X11653Y1171D01*
X11852Y1959D01*
G37*
G36*
X11852Y1959D02*
X11607Y2203D01*
X11500Y1195D01*
X11852Y1959D01*
G37*
G36*
X11607Y2203D02*
X11347Y1171D01*
X11500Y1195D01*
X11607Y2203D01*
G37*
G36*
X11347Y1171D02*
X11607Y2203D01*
X11209Y1100D01*
X11347Y1171D01*
G37*
G36*
X11607Y2203D02*
X11451Y2510D01*
X11209Y1100D01*
X11607Y2203D01*
G37*
G36*
X11451Y2510D02*
X11397Y2851D01*
X11209Y1100D01*
X11451Y2510D01*
G37*
G36*
X14370Y2929D02*
X13791Y1100D01*
X14825Y870D01*
X14370Y2929D01*
G37*
G36*
X14825Y870D02*
X13791Y1100D01*
X13900Y991D01*
X14825Y870D01*
G37*
G36*
X14825Y870D02*
X13900Y991D01*
X13962Y870D01*
X14825Y870D01*
G37*
G36*
X14711Y2983D02*
X14370Y2929D01*
X14825Y870D01*
X14711Y2983D01*
G37*
G36*
X15875Y2015D02*
X14711Y2983D01*
X14825Y870D01*
X15875Y2015D01*
G37*
G36*
X15019Y3140D02*
X14711Y2983D01*
X15875Y2015D01*
X15019Y3140D01*
G37*
G36*
X15880Y2020D02*
X15019Y3140D01*
X15875Y2015D01*
X15880Y2020D01*
G37*
G36*
X15880Y2020D02*
X15875Y2015D01*
X15878Y2017D01*
X15880Y2020D01*
G37*
G36*
X15909Y2043D02*
X15019Y3140D01*
X15880Y2020D01*
X15909Y2043D01*
G37*
G36*
X15909Y2043D02*
X15880Y2020D01*
X15894Y2031D01*
X15909Y2043D01*
G37*
G36*
X15909Y2043D02*
X15915Y2047D01*
X15019Y3140D01*
X15909Y2043D01*
G37*
G36*
X15915Y2047D02*
X15932Y2054D01*
X15019Y3140D01*
X15915Y2047D01*
G37*
G36*
X15263Y3384D02*
X15019Y3140D01*
X15932Y2054D01*
X15263Y3384D01*
G37*
G36*
X15949Y2062D02*
X15263Y3384D01*
X15932Y2054D01*
X15949Y2062D01*
G37*
G36*
X15949Y2062D02*
X15956Y2064D01*
X15263Y3384D01*
X15949Y2062D01*
G37*
G36*
X15956Y2064D02*
X15974Y2067D01*
X15263Y3384D01*
X15956Y2064D01*
G37*
G36*
X15263Y3384D02*
X15974Y2067D01*
X15419Y3691D01*
X15263Y3384D01*
G37*
G36*
X15993Y2070D02*
X15419Y3691D01*
X15974Y2067D01*
X15993Y2070D01*
G37*
G36*
X16000Y2070D02*
X15419Y3691D01*
X15993Y2070D01*
X16000Y2070D01*
G37*
G36*
X15993Y2070D02*
X15996Y2070D01*
X16000Y2070D01*
X15993Y2070D01*
G37*
G36*
X16000Y2070D02*
X16230Y2070D01*
X15419Y3691D01*
X16000Y2070D01*
G37*
G36*
X16230Y2070D02*
X15473Y4032D01*
X15419Y3691D01*
X16230Y2070D01*
G37*
G36*
X16230Y2070D02*
X16230Y5680D01*
X15473Y4032D01*
X16230Y2070D01*
G37*
G36*
X15419Y4373D02*
X15473Y4032D01*
X16230Y5680D01*
X15419Y4373D01*
G37*
G36*
X16180Y5680D02*
X15419Y4373D01*
X16230Y5680D01*
X16180Y5680D01*
G37*
G36*
X15263Y4681D02*
X15419Y4373D01*
X16180Y5680D01*
X15263Y4681D01*
G37*
G36*
X15019Y4925D02*
X15263Y4681D01*
X16180Y5680D01*
X15019Y4925D01*
G37*
G36*
X15019Y4925D02*
X16180Y5680D01*
X16180Y5830D01*
X15019Y4925D01*
G37*
G36*
X14711Y5082D02*
X15019Y4925D01*
X16180Y5830D01*
X14711Y5082D01*
G37*
G36*
X14711Y5082D02*
X16180Y5830D01*
X13470Y5830D01*
X14711Y5082D01*
G37*
G36*
X13470Y5830D02*
X14370Y5136D01*
X14711Y5082D01*
X13470Y5830D01*
G37*
G36*
X14370Y5136D02*
X13470Y5830D01*
X13550Y5555D01*
X14370Y5136D01*
G37*
G36*
X13470Y5830D02*
X13430Y5790D01*
X13550Y5555D01*
X13470Y5830D01*
G37*
G36*
X14029Y5082D02*
X14370Y5136D01*
X13550Y5555D01*
X14029Y5082D01*
G37*
G36*
X13550Y5555D02*
X13604Y5213D01*
X14029Y5082D01*
X13550Y5555D01*
G37*
G36*
X13604Y5213D02*
X13722Y4925D01*
X14029Y5082D01*
X13604Y5213D01*
G37*
G36*
X13604Y5213D02*
X13550Y4872D01*
X13722Y4925D01*
X13604Y5213D01*
G37*
G36*
X13478Y4681D02*
X13722Y4925D01*
X13550Y4872D01*
X13478Y4681D01*
G37*
G36*
X13393Y4564D02*
X13478Y4681D01*
X13550Y4872D01*
X13393Y4564D01*
G37*
G36*
X13478Y4681D02*
X13393Y4564D01*
X13321Y4373D01*
X13478Y4681D01*
G37*
G36*
X13149Y4320D02*
X13321Y4373D01*
X13393Y4564D01*
X13149Y4320D01*
G37*
G36*
X13149Y4320D02*
X13267Y4032D01*
X13321Y4373D01*
X13149Y4320D01*
G37*
G36*
X13149Y4320D02*
X12841Y4163D01*
X13267Y4032D01*
X13149Y4320D01*
G37*
G36*
X15953Y2063D02*
X15956Y2064D01*
X15949Y2062D01*
X15953Y2063D01*
G37*
G36*
X15912Y2045D02*
X15915Y2047D01*
X15909Y2043D01*
X15912Y2045D01*
G37*
G36*
X11396Y5213D02*
X2454Y6559D01*
X2438Y6521D01*
X11396Y5213D01*
G37*
G36*
X11396Y5213D02*
X2459Y6600D01*
X2454Y6559D01*
X11396Y5213D01*
G37*
G36*
X11396Y5213D02*
X10896Y7616D01*
X2459Y6600D01*
X11396Y5213D01*
G37*
G36*
X10755Y7893D02*
X2459Y6600D01*
X10896Y7616D01*
X10755Y7893D01*
G37*
G36*
X2459Y6600D02*
X10755Y7893D01*
X5100Y10306D01*
X2459Y6600D01*
G37*
G36*
X10755Y7893D02*
X10706Y8200D01*
X5100Y10306D01*
X10755Y7893D01*
G37*
G36*
X10706Y8200D02*
X10755Y8507D01*
X5100Y10306D01*
X10706Y8200D01*
G37*
G36*
X10755Y8507D02*
X6100Y10306D01*
X5100Y10306D01*
X10755Y8507D01*
G37*
G36*
X5253Y10330D02*
X5100Y10306D01*
X6100Y10306D01*
X5253Y10330D01*
G37*
G36*
X5947Y10330D02*
X5253Y10330D01*
X6100Y10306D01*
X5947Y10330D01*
G37*
G36*
X5390Y10400D02*
X5253Y10330D01*
X5947Y10330D01*
X5390Y10400D01*
G37*
G36*
X5810Y10400D02*
X5390Y10400D01*
X5947Y10330D01*
X5810Y10400D01*
G37*
G36*
X5500Y10510D02*
X5390Y10400D01*
X5810Y10400D01*
X5500Y10510D01*
G37*
G36*
X5700Y10510D02*
X5500Y10510D01*
X5810Y10400D01*
X5700Y10510D01*
G37*
G36*
X5570Y10647D02*
X5500Y10510D01*
X5700Y10510D01*
X5570Y10647D01*
G37*
G36*
X5630Y10647D02*
X5570Y10647D01*
X5700Y10510D01*
X5630Y10647D01*
G37*
G36*
X5594Y10800D02*
X5570Y10647D01*
X5630Y10647D01*
X5594Y10800D01*
G37*
G36*
X5606Y10800D02*
X5594Y10800D01*
X5630Y10647D01*
X5606Y10800D01*
G37*
G36*
X5570Y10953D02*
X5594Y10800D01*
X5606Y10800D01*
X5570Y10953D01*
G37*
G36*
X5630Y10953D02*
X5570Y10953D01*
X5606Y10800D01*
X5630Y10953D01*
G37*
G36*
X5570Y10953D02*
X5630Y10953D01*
X5700Y11090D01*
X5570Y10953D01*
G37*
G36*
X5500Y11090D02*
X5570Y10953D01*
X5700Y11090D01*
X5500Y11090D01*
G37*
G36*
X5390Y11200D02*
X5500Y11090D01*
X5700Y11090D01*
X5390Y11200D01*
G37*
G36*
X5700Y11090D02*
X5810Y11200D01*
X5390Y11200D01*
X5700Y11090D01*
G37*
G36*
X5810Y11200D02*
X5947Y11270D01*
X5390Y11200D01*
X5810Y11200D01*
G37*
G36*
X5253Y11270D02*
X5390Y11200D01*
X5947Y11270D01*
X5253Y11270D01*
G37*
G36*
X5947Y11270D02*
X5494Y12506D01*
X5253Y11270D01*
X5947Y11270D01*
G37*
G36*
X5100Y11294D02*
X5253Y11270D01*
X5494Y12506D01*
X5100Y11294D01*
G37*
G36*
X4506Y12506D02*
X5100Y11294D01*
X5494Y12506D01*
X4506Y12506D01*
G37*
G36*
X4506Y12506D02*
X4947Y11270D01*
X5100Y11294D01*
X4506Y12506D01*
G37*
G36*
X4506Y12506D02*
X4810Y11200D01*
X4947Y11270D01*
X4506Y12506D01*
G37*
G36*
X4506Y12506D02*
X4253Y11270D01*
X4810Y11200D01*
X4506Y12506D01*
G37*
G36*
X4390Y11200D02*
X4810Y11200D01*
X4253Y11270D01*
X4390Y11200D01*
G37*
G36*
X4390Y11200D02*
X4500Y11090D01*
X4810Y11200D01*
X4390Y11200D01*
G37*
G36*
X4700Y11090D02*
X4810Y11200D01*
X4500Y11090D01*
X4700Y11090D01*
G37*
G36*
X4700Y11090D02*
X4500Y11090D01*
X4570Y10953D01*
X4700Y11090D01*
G37*
G36*
X4570Y10953D02*
X4630Y10953D01*
X4700Y11090D01*
X4570Y10953D01*
G37*
G36*
X4630Y10953D02*
X4570Y10953D01*
X4606Y10800D01*
X4630Y10953D01*
G37*
G36*
X4570Y10953D02*
X4594Y10800D01*
X4606Y10800D01*
X4570Y10953D01*
G37*
G36*
X4606Y10800D02*
X4594Y10800D01*
X4630Y10647D01*
X4606Y10800D01*
G37*
G36*
X4594Y10800D02*
X4570Y10647D01*
X4630Y10647D01*
X4594Y10800D01*
G37*
G36*
X4630Y10647D02*
X4570Y10647D01*
X4700Y10510D01*
X4630Y10647D01*
G37*
G36*
X4570Y10647D02*
X4500Y10510D01*
X4700Y10510D01*
X4570Y10647D01*
G37*
G36*
X4700Y10510D02*
X4500Y10510D01*
X4810Y10400D01*
X4700Y10510D01*
G37*
G36*
X4500Y10510D02*
X4390Y10400D01*
X4810Y10400D01*
X4500Y10510D01*
G37*
G36*
X4810Y10400D02*
X4390Y10400D01*
X4947Y10330D01*
X4810Y10400D01*
G37*
G36*
X4390Y10400D02*
X4253Y10330D01*
X4947Y10330D01*
X4390Y10400D01*
G37*
G36*
X2459Y6600D02*
X4947Y10330D01*
X4253Y10330D01*
X2459Y6600D01*
G37*
G36*
X4100Y10306D02*
X2459Y6600D01*
X4253Y10330D01*
X4100Y10306D01*
G37*
G36*
X3947Y10330D02*
X2459Y6600D01*
X4100Y10306D01*
X3947Y10330D01*
G37*
G36*
X3810Y10400D02*
X2459Y6600D01*
X3947Y10330D01*
X3810Y10400D01*
G37*
G36*
X3700Y10510D02*
X2459Y6600D01*
X3810Y10400D01*
X3700Y10510D01*
G37*
G36*
X3630Y10647D02*
X2459Y6600D01*
X3700Y10510D01*
X3630Y10647D01*
G37*
G36*
X3606Y10800D02*
X2459Y6600D01*
X3630Y10647D01*
X3606Y10800D01*
G37*
G36*
X2459Y14234D02*
X2459Y6600D01*
X3606Y10800D01*
X2459Y14234D01*
G37*
G36*
X2459Y14234D02*
X3606Y10800D01*
X3630Y10953D01*
X2459Y14234D01*
G37*
G36*
X2459Y14234D02*
X3630Y10953D01*
X3700Y11090D01*
X2459Y14234D01*
G37*
G36*
X2459Y14234D02*
X3700Y11090D01*
X3810Y11200D01*
X2459Y14234D01*
G37*
G36*
X4506Y12506D02*
X2459Y14234D01*
X3810Y11200D01*
X4506Y12506D01*
G37*
G36*
X3947Y11270D02*
X4506Y12506D01*
X3810Y11200D01*
X3947Y11270D01*
G37*
G36*
X4100Y11294D02*
X4506Y12506D01*
X3947Y11270D01*
X4100Y11294D01*
G37*
G36*
X4100Y11294D02*
X4253Y11270D01*
X4506Y12506D01*
X4100Y11294D01*
G37*
G36*
X4506Y13494D02*
X2459Y14234D01*
X4506Y12506D01*
X4506Y13494D01*
G37*
G36*
X2866Y14641D02*
X2459Y14234D01*
X4506Y13494D01*
X2866Y14641D01*
G37*
G36*
X4500Y14641D02*
X2866Y14641D01*
X4506Y13494D01*
X4500Y14641D01*
G37*
G36*
X4500Y14641D02*
X4506Y13494D01*
X4541Y14646D01*
X4500Y14641D01*
G37*
G36*
X4579Y14662D02*
X4541Y14646D01*
X4506Y13494D01*
X4579Y14662D01*
G37*
G36*
X5494Y13494D02*
X4579Y14662D01*
X4506Y13494D01*
X5494Y13494D01*
G37*
G36*
X4612Y14688D02*
X4579Y14662D01*
X5494Y13494D01*
X4612Y14688D01*
G37*
G36*
X5200Y15011D02*
X4612Y14688D01*
X5494Y13494D01*
X5200Y15011D01*
G37*
G36*
X5494Y13494D02*
X5351Y15035D01*
X5200Y15011D01*
X5494Y13494D01*
G37*
G36*
X6049Y15035D02*
X5351Y15035D01*
X5494Y13494D01*
X6049Y15035D01*
G37*
G36*
X6049Y15035D02*
X5494Y13494D01*
X5847Y13470D01*
X6049Y15035D01*
G37*
G36*
X5494Y13494D02*
X5710Y13400D01*
X5847Y13470D01*
X5494Y13494D01*
G37*
G36*
X5494Y13494D02*
X5600Y13290D01*
X5710Y13400D01*
X5494Y13494D01*
G37*
G36*
X5494Y13494D02*
X5530Y13153D01*
X5600Y13290D01*
X5494Y13494D01*
G37*
G36*
X5530Y13153D02*
X5494Y13494D01*
X5506Y13000D01*
X5530Y13153D01*
G37*
G36*
X5494Y12506D02*
X5506Y13000D01*
X5494Y13494D01*
X5494Y12506D01*
G37*
G36*
X5494Y12506D02*
X5530Y12847D01*
X5506Y13000D01*
X5494Y12506D01*
G37*
G36*
X5530Y12847D02*
X5494Y12506D01*
X5600Y12710D01*
X5530Y12847D01*
G37*
G36*
X5600Y12710D02*
X5494Y12506D01*
X5710Y12600D01*
X5600Y12710D01*
G37*
G36*
X5710Y12600D02*
X5494Y12506D01*
X5847Y12530D01*
X5710Y12600D01*
G37*
G36*
X5847Y12530D02*
X5494Y12506D01*
X5947Y11270D01*
X5847Y12530D01*
G37*
G36*
X6000Y12506D02*
X5847Y12530D01*
X5947Y11270D01*
X6000Y12506D01*
G37*
G36*
X6000Y12506D02*
X5947Y11270D01*
X6100Y11294D01*
X6000Y12506D01*
G37*
G36*
X6000Y12506D02*
X6100Y11294D01*
X6253Y11270D01*
X6000Y12506D01*
G37*
G36*
X6253Y11270D02*
X6153Y12530D01*
X6000Y12506D01*
X6253Y11270D01*
G37*
G36*
X6253Y11270D02*
X6847Y12530D01*
X6153Y12530D01*
X6253Y11270D01*
G37*
G36*
X6290Y12600D02*
X6153Y12530D01*
X6847Y12530D01*
X6290Y12600D01*
G37*
G36*
X6710Y12600D02*
X6290Y12600D01*
X6847Y12530D01*
X6710Y12600D01*
G37*
G36*
X6400Y12710D02*
X6290Y12600D01*
X6710Y12600D01*
X6400Y12710D01*
G37*
G36*
X6600Y12710D02*
X6400Y12710D01*
X6710Y12600D01*
X6600Y12710D01*
G37*
G36*
X6470Y12847D02*
X6400Y12710D01*
X6600Y12710D01*
X6470Y12847D01*
G37*
G36*
X6530Y12847D02*
X6470Y12847D01*
X6600Y12710D01*
X6530Y12847D01*
G37*
G36*
X6494Y13000D02*
X6470Y12847D01*
X6530Y12847D01*
X6494Y13000D01*
G37*
G36*
X6506Y13000D02*
X6494Y13000D01*
X6530Y12847D01*
X6506Y13000D01*
G37*
G36*
X6470Y13153D02*
X6494Y13000D01*
X6506Y13000D01*
X6470Y13153D01*
G37*
G36*
X6530Y13153D02*
X6470Y13153D01*
X6506Y13000D01*
X6530Y13153D01*
G37*
G36*
X6470Y13153D02*
X6530Y13153D01*
X6600Y13290D01*
X6470Y13153D01*
G37*
G36*
X6400Y13290D02*
X6470Y13153D01*
X6600Y13290D01*
X6400Y13290D01*
G37*
G36*
X6290Y13400D02*
X6400Y13290D01*
X6600Y13290D01*
X6290Y13400D01*
G37*
G36*
X6710Y13400D02*
X6290Y13400D01*
X6600Y13290D01*
X6710Y13400D01*
G37*
G36*
X6290Y13400D02*
X6710Y13400D01*
X6847Y13470D01*
X6290Y13400D01*
G37*
G36*
X6847Y13470D02*
X6153Y13470D01*
X6290Y13400D01*
X6847Y13470D01*
G37*
G36*
X6153Y13470D02*
X6847Y13470D01*
X6351Y15035D01*
X6153Y13470D01*
G37*
G36*
X6847Y13470D02*
X7049Y15035D01*
X6351Y15035D01*
X6847Y13470D01*
G37*
G36*
X6487Y15104D02*
X6351Y15035D01*
X7049Y15035D01*
X6487Y15104D01*
G37*
G36*
X6913Y15104D02*
X6487Y15104D01*
X7049Y15035D01*
X6913Y15104D01*
G37*
G36*
X6596Y15213D02*
X6487Y15104D01*
X6913Y15104D01*
X6596Y15213D01*
G37*
G36*
X6804Y15213D02*
X6596Y15213D01*
X6913Y15104D01*
X6804Y15213D01*
G37*
G36*
X6804Y15213D02*
X6735Y15349D01*
X6596Y15213D01*
X6804Y15213D01*
G37*
G36*
X6735Y15349D02*
X6665Y15349D01*
X6596Y15213D01*
X6735Y15349D01*
G37*
G36*
X6735Y15349D02*
X6711Y15500D01*
X6665Y15349D01*
X6735Y15349D01*
G37*
G36*
X6711Y15500D02*
X6689Y15500D01*
X6665Y15349D01*
X6711Y15500D01*
G37*
G36*
X6689Y15500D02*
X6711Y15500D01*
X6735Y15651D01*
X6689Y15500D01*
G37*
G36*
X6665Y15651D02*
X6689Y15500D01*
X6735Y15651D01*
X6665Y15651D01*
G37*
G36*
X6665Y15651D02*
X6735Y15651D01*
X6804Y15787D01*
X6665Y15651D01*
G37*
G36*
X6596Y15787D02*
X6665Y15651D01*
X6804Y15787D01*
X6596Y15787D01*
G37*
G36*
X6487Y15896D02*
X6596Y15787D01*
X6804Y15787D01*
X6487Y15896D01*
G37*
G36*
X6913Y15896D02*
X6487Y15896D01*
X6804Y15787D01*
X6913Y15896D01*
G37*
G36*
X6487Y15896D02*
X6913Y15896D01*
X7041Y15961D01*
X6487Y15896D01*
G37*
G36*
X7041Y15961D02*
X6351Y15965D01*
X6487Y15896D01*
X7041Y15961D01*
G37*
G36*
X7041Y19500D02*
X6351Y15965D01*
X7041Y15961D01*
X7041Y19500D01*
G37*
G36*
X7041Y19500D02*
X6200Y15989D01*
X6351Y15965D01*
X7041Y19500D01*
G37*
G36*
X6200Y15989D02*
X7041Y19500D01*
X6049Y15965D01*
X6200Y15989D01*
G37*
G36*
X5351Y15965D02*
X6049Y15965D01*
X7041Y19500D01*
X5351Y15965D01*
G37*
G36*
X5351Y15965D02*
X7041Y19500D01*
X5200Y15989D01*
X5351Y15965D01*
G37*
G36*
X5200Y15989D02*
X7041Y19500D01*
X5049Y15965D01*
X5200Y15989D01*
G37*
G36*
X4351Y15965D02*
X5049Y15965D01*
X7041Y19500D01*
X4351Y15965D01*
G37*
G36*
X7041Y19500D02*
X4200Y21011D01*
X4351Y15965D01*
X7041Y19500D01*
G37*
G36*
X4200Y21011D02*
X4200Y15989D01*
X4351Y15965D01*
X4200Y21011D01*
G37*
G36*
X4200Y21011D02*
X4049Y15965D01*
X4200Y15989D01*
X4200Y21011D01*
G37*
G36*
X4200Y21011D02*
X4049Y21035D01*
X4049Y15965D01*
X4200Y21011D01*
G37*
G36*
X4049Y15965D02*
X4049Y21035D01*
X3351Y21035D01*
X4049Y15965D01*
G37*
G36*
X3487Y21104D02*
X3351Y21035D01*
X4049Y21035D01*
X3487Y21104D01*
G37*
G36*
X3913Y21104D02*
X3487Y21104D01*
X4049Y21035D01*
X3913Y21104D01*
G37*
G36*
X3596Y21213D02*
X3487Y21104D01*
X3913Y21104D01*
X3596Y21213D01*
G37*
G36*
X3804Y21213D02*
X3596Y21213D01*
X3913Y21104D01*
X3804Y21213D01*
G37*
G36*
X3804Y21213D02*
X3735Y21349D01*
X3596Y21213D01*
X3804Y21213D01*
G37*
G36*
X3735Y21349D02*
X3665Y21349D01*
X3596Y21213D01*
X3735Y21349D01*
G37*
G36*
X3735Y21349D02*
X3711Y21500D01*
X3665Y21349D01*
X3735Y21349D01*
G37*
G36*
X3711Y21500D02*
X3689Y21500D01*
X3665Y21349D01*
X3711Y21500D01*
G37*
G36*
X3689Y21500D02*
X3711Y21500D01*
X3735Y21651D01*
X3689Y21500D01*
G37*
G36*
X3665Y21651D02*
X3689Y21500D01*
X3735Y21651D01*
X3665Y21651D01*
G37*
G36*
X3665Y21651D02*
X3735Y21651D01*
X3804Y21787D01*
X3665Y21651D01*
G37*
G36*
X3665Y21651D02*
X3804Y21787D01*
X3596Y21787D01*
X3665Y21651D01*
G37*
G36*
X3721Y21962D02*
X3596Y21787D01*
X3804Y21787D01*
X3721Y21962D01*
G37*
G36*
X3759Y21946D02*
X3721Y21962D01*
X3804Y21787D01*
X3759Y21946D01*
G37*
G36*
X3800Y21941D02*
X3759Y21946D01*
X3804Y21787D01*
X3800Y21941D01*
G37*
G36*
X3800Y21941D02*
X3804Y21787D01*
X3913Y21896D01*
X3800Y21941D01*
G37*
G36*
X3800Y21941D02*
X3913Y21896D01*
X3998Y21941D01*
X3800Y21941D01*
G37*
G36*
X3998Y21941D02*
X3913Y21896D01*
X3999Y21939D01*
X3998Y21941D01*
G37*
G36*
X3721Y21962D02*
X3688Y21988D01*
X3596Y21787D01*
X3721Y21962D01*
G37*
G36*
X3688Y21988D02*
X3487Y21896D01*
X3596Y21787D01*
X3688Y21988D01*
G37*
G36*
X3488Y22188D02*
X3487Y21896D01*
X3688Y21988D01*
X3488Y22188D01*
G37*
G36*
X3351Y21965D02*
X3487Y21896D01*
X3488Y22188D01*
X3351Y21965D01*
G37*
G36*
X3462Y22221D02*
X3351Y21965D01*
X3488Y22188D01*
X3462Y22221D01*
G37*
G36*
X3462Y22221D02*
X3200Y21989D01*
X3351Y21965D01*
X3462Y22221D01*
G37*
G36*
X3462Y22221D02*
X3446Y22259D01*
X3200Y21989D01*
X3462Y22221D01*
G37*
G36*
X3441Y22300D02*
X3200Y21989D01*
X3446Y22259D01*
X3441Y22300D01*
G37*
G36*
X3049Y21965D02*
X3200Y21989D01*
X3441Y22300D01*
X3049Y21965D01*
G37*
G36*
X3441Y22300D02*
X2351Y21965D01*
X3049Y21965D01*
X3441Y22300D01*
G37*
G36*
X2351Y21965D02*
X2487Y21896D01*
X3049Y21965D01*
X2351Y21965D01*
G37*
G36*
X2487Y21896D02*
X2913Y21896D01*
X3049Y21965D01*
X2487Y21896D01*
G37*
G36*
X2913Y21896D02*
X2487Y21896D01*
X2804Y21787D01*
X2913Y21896D01*
G37*
G36*
X2487Y21896D02*
X2596Y21787D01*
X2804Y21787D01*
X2487Y21896D01*
G37*
G36*
X2596Y21787D02*
X2665Y21651D01*
X2804Y21787D01*
X2596Y21787D01*
G37*
G36*
X2665Y21651D02*
X2735Y21651D01*
X2804Y21787D01*
X2665Y21651D01*
G37*
G36*
X2665Y21651D02*
X2689Y21500D01*
X2735Y21651D01*
X2665Y21651D01*
G37*
G36*
X2689Y21500D02*
X2711Y21500D01*
X2735Y21651D01*
X2689Y21500D01*
G37*
G36*
X2711Y21500D02*
X2689Y21500D01*
X2665Y21349D01*
X2711Y21500D01*
G37*
G36*
X2735Y21349D02*
X2711Y21500D01*
X2665Y21349D01*
X2735Y21349D01*
G37*
G36*
X2735Y21349D02*
X2665Y21349D01*
X2596Y21213D01*
X2735Y21349D01*
G37*
G36*
X2804Y21213D02*
X2735Y21349D01*
X2596Y21213D01*
X2804Y21213D01*
G37*
G36*
X2804Y21213D02*
X2596Y21213D01*
X2913Y21104D01*
X2804Y21213D01*
G37*
G36*
X2596Y21213D02*
X2487Y21104D01*
X2913Y21104D01*
X2596Y21213D01*
G37*
G36*
X2913Y21104D02*
X2487Y21104D01*
X3049Y21035D01*
X2913Y21104D01*
G37*
G36*
X2487Y21104D02*
X2351Y21035D01*
X3049Y21035D01*
X2487Y21104D01*
G37*
G36*
X3049Y15965D02*
X3049Y21035D01*
X2351Y21035D01*
X3049Y15965D01*
G37*
G36*
X2351Y21035D02*
X2351Y15965D01*
X3049Y15965D01*
X2351Y21035D01*
G37*
G36*
X2351Y15965D02*
X2487Y15896D01*
X3049Y15965D01*
X2351Y15965D01*
G37*
G36*
X2487Y15896D02*
X2913Y15896D01*
X3049Y15965D01*
X2487Y15896D01*
G37*
G36*
X2913Y15896D02*
X2487Y15896D01*
X2804Y15787D01*
X2913Y15896D01*
G37*
G36*
X2487Y15896D02*
X2596Y15787D01*
X2804Y15787D01*
X2487Y15896D01*
G37*
G36*
X2596Y15787D02*
X2665Y15651D01*
X2804Y15787D01*
X2596Y15787D01*
G37*
G36*
X2665Y15651D02*
X2735Y15651D01*
X2804Y15787D01*
X2665Y15651D01*
G37*
G36*
X2665Y15651D02*
X2689Y15500D01*
X2735Y15651D01*
X2665Y15651D01*
G37*
G36*
X2689Y15500D02*
X2711Y15500D01*
X2735Y15651D01*
X2689Y15500D01*
G37*
G36*
X2711Y15500D02*
X2689Y15500D01*
X2665Y15349D01*
X2711Y15500D01*
G37*
G36*
X2735Y15349D02*
X2711Y15500D01*
X2665Y15349D01*
X2735Y15349D01*
G37*
G36*
X2735Y15349D02*
X2665Y15349D01*
X2596Y15213D01*
X2735Y15349D01*
G37*
G36*
X2804Y15213D02*
X2735Y15349D01*
X2596Y15213D01*
X2804Y15213D01*
G37*
G36*
X2759Y14954D02*
X2804Y15213D01*
X2596Y15213D01*
X2759Y14954D01*
G37*
G36*
X2759Y14954D02*
X2596Y15213D01*
X2721Y14938D01*
X2759Y14954D01*
G37*
G36*
X2721Y14938D02*
X2596Y15213D01*
X2487Y15104D01*
X2721Y14938D01*
G37*
G36*
X2721Y14938D02*
X2487Y15104D01*
X2688Y14912D01*
X2721Y14938D01*
G37*
G36*
X2487Y15104D02*
X2351Y15035D01*
X2688Y14912D01*
X2487Y15104D01*
G37*
G36*
X2688Y14912D02*
X2351Y15035D01*
X2188Y14412D01*
X2688Y14912D01*
G37*
G36*
X2351Y15035D02*
X2200Y15011D01*
X2188Y14412D01*
X2351Y15035D01*
G37*
G36*
X2200Y15011D02*
X2049Y15035D01*
X2188Y14412D01*
X2200Y15011D01*
G37*
G36*
X2188Y14412D02*
X2049Y15035D01*
X2162Y14379D01*
X2188Y14412D01*
G37*
G36*
X2049Y15035D02*
X1913Y15104D01*
X2162Y14379D01*
X2049Y15035D01*
G37*
G36*
X2162Y14379D02*
X1913Y15104D01*
X1487Y15104D01*
X2162Y14379D01*
G37*
G36*
X1596Y15213D02*
X1487Y15104D01*
X1913Y15104D01*
X1596Y15213D01*
G37*
G36*
X1804Y15213D02*
X1596Y15213D01*
X1913Y15104D01*
X1804Y15213D01*
G37*
G36*
X1804Y15213D02*
X1735Y15349D01*
X1596Y15213D01*
X1804Y15213D01*
G37*
G36*
X1735Y15349D02*
X1665Y15349D01*
X1596Y15213D01*
X1735Y15349D01*
G37*
G36*
X1735Y15349D02*
X1711Y15500D01*
X1665Y15349D01*
X1735Y15349D01*
G37*
G36*
X1711Y15500D02*
X1689Y15500D01*
X1665Y15349D01*
X1711Y15500D01*
G37*
G36*
X1689Y15500D02*
X1711Y15500D01*
X1735Y15651D01*
X1689Y15500D01*
G37*
G36*
X1665Y15651D02*
X1689Y15500D01*
X1735Y15651D01*
X1665Y15651D01*
G37*
G36*
X1665Y15651D02*
X1735Y15651D01*
X1804Y15787D01*
X1665Y15651D01*
G37*
G36*
X1596Y15787D02*
X1665Y15651D01*
X1804Y15787D01*
X1596Y15787D01*
G37*
G36*
X1487Y15896D02*
X1596Y15787D01*
X1804Y15787D01*
X1487Y15896D01*
G37*
G36*
X1913Y15896D02*
X1487Y15896D01*
X1804Y15787D01*
X1913Y15896D01*
G37*
G36*
X1487Y15896D02*
X1913Y15896D01*
X2049Y15965D01*
X1487Y15896D01*
G37*
G36*
X1351Y15965D02*
X1487Y15896D01*
X2049Y15965D01*
X1351Y15965D01*
G37*
G36*
X1351Y21035D02*
X1351Y15965D01*
X2049Y15965D01*
X1351Y21035D01*
G37*
G36*
X2049Y15965D02*
X2049Y21035D01*
X1351Y21035D01*
X2049Y15965D01*
G37*
G36*
X1487Y21104D02*
X1351Y21035D01*
X2049Y21035D01*
X1487Y21104D01*
G37*
G36*
X1913Y21104D02*
X1487Y21104D01*
X2049Y21035D01*
X1913Y21104D01*
G37*
G36*
X1596Y21213D02*
X1487Y21104D01*
X1913Y21104D01*
X1596Y21213D01*
G37*
G36*
X1804Y21213D02*
X1596Y21213D01*
X1913Y21104D01*
X1804Y21213D01*
G37*
G36*
X1804Y21213D02*
X1735Y21349D01*
X1596Y21213D01*
X1804Y21213D01*
G37*
G36*
X1735Y21349D02*
X1665Y21349D01*
X1596Y21213D01*
X1735Y21349D01*
G37*
G36*
X1735Y21349D02*
X1711Y21500D01*
X1665Y21349D01*
X1735Y21349D01*
G37*
G36*
X1711Y21500D02*
X1689Y21500D01*
X1665Y21349D01*
X1711Y21500D01*
G37*
G36*
X1689Y21500D02*
X1711Y21500D01*
X1735Y21651D01*
X1689Y21500D01*
G37*
G36*
X1665Y21651D02*
X1689Y21500D01*
X1735Y21651D01*
X1665Y21651D01*
G37*
G36*
X1665Y21651D02*
X1735Y21651D01*
X1804Y21787D01*
X1665Y21651D01*
G37*
G36*
X1596Y21787D02*
X1665Y21651D01*
X1804Y21787D01*
X1596Y21787D01*
G37*
G36*
X1487Y21896D02*
X1596Y21787D01*
X1804Y21787D01*
X1487Y21896D01*
G37*
G36*
X1913Y21896D02*
X1487Y21896D01*
X1804Y21787D01*
X1913Y21896D01*
G37*
G36*
X1487Y21896D02*
X1913Y21896D01*
X2049Y21965D01*
X1487Y21896D01*
G37*
G36*
X1351Y21965D02*
X1487Y21896D01*
X2049Y21965D01*
X1351Y21965D01*
G37*
G36*
X1385Y25365D02*
X1351Y21965D01*
X2049Y21965D01*
X1385Y25365D01*
G37*
G36*
X2049Y21965D02*
X2000Y25365D01*
X1385Y25365D01*
X2049Y21965D01*
G37*
G36*
X1881Y25384D02*
X1385Y25365D01*
X2000Y25365D01*
X1881Y25384D01*
G37*
G36*
X1774Y25439D02*
X1385Y25365D01*
X1881Y25384D01*
X1774Y25439D01*
G37*
G36*
X1689Y25524D02*
X1385Y25365D01*
X1774Y25439D01*
X1689Y25524D01*
G37*
G36*
X1634Y25631D02*
X1385Y25365D01*
X1689Y25524D01*
X1634Y25631D01*
G37*
G36*
X1615Y25750D02*
X1385Y25365D01*
X1634Y25631D01*
X1615Y25750D01*
G37*
G36*
X1615Y25750D02*
X1385Y26135D01*
X1385Y25365D01*
X1615Y25750D01*
G37*
G36*
X1634Y25869D02*
X1385Y26135D01*
X1615Y25750D01*
X1634Y25869D01*
G37*
G36*
X1385Y26135D02*
X1634Y25869D01*
X1689Y25976D01*
X1385Y26135D01*
G37*
G36*
X1774Y26061D02*
X1385Y26135D01*
X1689Y25976D01*
X1774Y26061D01*
G37*
G36*
X2200Y21989D02*
X2000Y25365D01*
X2049Y21965D01*
X2200Y21989D01*
G37*
G36*
X3441Y24800D02*
X2000Y25365D01*
X2200Y21989D01*
X3441Y24800D01*
G37*
G36*
X3441Y24800D02*
X2200Y21989D01*
X3441Y22300D01*
X3441Y24800D01*
G37*
G36*
X3441Y22300D02*
X2200Y21989D01*
X2351Y21965D01*
X3441Y22300D01*
G37*
G36*
X3441Y24800D02*
X2119Y25384D01*
X2000Y25365D01*
X3441Y24800D01*
G37*
G36*
X3441Y24800D02*
X2881Y25384D01*
X2119Y25384D01*
X3441Y24800D01*
G37*
G36*
X2226Y25439D02*
X2119Y25384D01*
X2881Y25384D01*
X2226Y25439D01*
G37*
G36*
X2774Y25439D02*
X2226Y25439D01*
X2881Y25384D01*
X2774Y25439D01*
G37*
G36*
X2311Y25524D02*
X2226Y25439D01*
X2774Y25439D01*
X2311Y25524D01*
G37*
G36*
X2689Y25524D02*
X2311Y25524D01*
X2774Y25439D01*
X2689Y25524D01*
G37*
G36*
X2366Y25631D02*
X2311Y25524D01*
X2689Y25524D01*
X2366Y25631D01*
G37*
G36*
X2634Y25631D02*
X2366Y25631D01*
X2689Y25524D01*
X2634Y25631D01*
G37*
G36*
X2385Y25750D02*
X2366Y25631D01*
X2634Y25631D01*
X2385Y25750D01*
G37*
G36*
X2615Y25750D02*
X2385Y25750D01*
X2634Y25631D01*
X2615Y25750D01*
G37*
G36*
X2385Y25750D02*
X2615Y25750D01*
X2634Y25869D01*
X2385Y25750D01*
G37*
G36*
X2366Y25869D02*
X2385Y25750D01*
X2634Y25869D01*
X2366Y25869D01*
G37*
G36*
X2311Y25976D02*
X2366Y25869D01*
X2634Y25869D01*
X2311Y25976D01*
G37*
G36*
X2634Y25869D02*
X2689Y25976D01*
X2311Y25976D01*
X2634Y25869D01*
G37*
G36*
X2311Y25976D02*
X2689Y25976D01*
X2226Y26439D01*
X2311Y25976D01*
G37*
G36*
X2311Y26524D02*
X2226Y26439D01*
X2689Y25976D01*
X2311Y26524D01*
G37*
G36*
X2226Y26439D02*
X2226Y26061D01*
X2311Y25976D01*
X2226Y26439D01*
G37*
G36*
X2226Y26439D02*
X2119Y26116D01*
X2226Y26061D01*
X2226Y26439D01*
G37*
G36*
X2226Y26439D02*
X2119Y26384D01*
X2119Y26116D01*
X2226Y26439D01*
G37*
G36*
X2000Y26365D02*
X2119Y26116D01*
X2119Y26384D01*
X2000Y26365D01*
G37*
G36*
X2000Y26365D02*
X2000Y26135D01*
X2119Y26116D01*
X2000Y26365D01*
G37*
G36*
X1881Y26116D02*
X2000Y26135D01*
X2000Y26365D01*
X1881Y26116D01*
G37*
G36*
X1881Y26384D02*
X1881Y26116D01*
X2000Y26365D01*
X1881Y26384D01*
G37*
G36*
X1774Y26061D02*
X1881Y26116D01*
X1881Y26384D01*
X1774Y26061D01*
G37*
G36*
X1881Y26384D02*
X1774Y26439D01*
X1774Y26061D01*
X1881Y26384D01*
G37*
G36*
X3000Y25365D02*
X2881Y25384D01*
X3441Y24800D01*
X3000Y25365D01*
G37*
G36*
X3446Y24841D02*
X3000Y25365D01*
X3441Y24800D01*
X3446Y24841D01*
G37*
G36*
X3000Y25365D02*
X3446Y24841D01*
X3462Y24879D01*
X3000Y25365D01*
G37*
G36*
X3119Y25384D02*
X3000Y25365D01*
X3462Y24879D01*
X3119Y25384D01*
G37*
G36*
X3488Y24912D02*
X3119Y25384D01*
X3462Y24879D01*
X3488Y24912D01*
G37*
G36*
X3488Y24912D02*
X3226Y25439D01*
X3119Y25384D01*
X3488Y24912D01*
G37*
G36*
X3615Y25365D02*
X3226Y25439D01*
X3488Y24912D01*
X3615Y25365D01*
G37*
G36*
X3615Y25365D02*
X3488Y24912D01*
X3788Y25212D01*
X3615Y25365D01*
G37*
G36*
X3615Y25365D02*
X3788Y25212D01*
X3821Y25238D01*
X3615Y25365D01*
G37*
G36*
X3615Y25365D02*
X3821Y25238D01*
X3859Y25254D01*
X3615Y25365D01*
G37*
G36*
X3615Y25365D02*
X3859Y25254D01*
X3900Y25259D01*
X3615Y25365D01*
G37*
G36*
X4350Y25365D02*
X3615Y25365D01*
X3900Y25259D01*
X4350Y25365D01*
G37*
G36*
X3900Y25259D02*
X4238Y25259D01*
X4350Y25365D01*
X3900Y25259D01*
G37*
G36*
X4350Y25365D02*
X4238Y25259D01*
X4351Y25364D01*
X4350Y25365D01*
G37*
G36*
X3311Y25524D02*
X3226Y25439D01*
X3615Y25365D01*
X3311Y25524D01*
G37*
G36*
X3366Y25631D02*
X3311Y25524D01*
X3615Y25365D01*
X3366Y25631D01*
G37*
G36*
X3385Y25750D02*
X3366Y25631D01*
X3615Y25365D01*
X3385Y25750D01*
G37*
G36*
X3385Y25750D02*
X3615Y25365D01*
X3615Y26135D01*
X3385Y25750D01*
G37*
G36*
X3366Y25869D02*
X3385Y25750D01*
X3615Y26135D01*
X3366Y25869D01*
G37*
G36*
X3311Y25976D02*
X3366Y25869D01*
X3615Y26135D01*
X3311Y25976D01*
G37*
G36*
X3226Y26061D02*
X3311Y25976D01*
X3615Y26135D01*
X3226Y26061D01*
G37*
G36*
X3615Y26365D02*
X3226Y26061D01*
X3615Y26135D01*
X3615Y26365D01*
G37*
G36*
X3615Y26365D02*
X3615Y26135D01*
X4385Y26135D01*
X3615Y26365D01*
G37*
G36*
X3615Y26365D02*
X4385Y26135D01*
X4385Y26365D01*
X3615Y26365D01*
G37*
G36*
X4774Y26061D02*
X4385Y26365D01*
X4385Y26135D01*
X4774Y26061D01*
G37*
G36*
X4774Y26061D02*
X4385Y26135D01*
X4689Y25976D01*
X4774Y26061D01*
G37*
G36*
X4385Y26135D02*
X4634Y25869D01*
X4689Y25976D01*
X4385Y26135D01*
G37*
G36*
X4385Y26135D02*
X4615Y25750D01*
X4634Y25869D01*
X4385Y26135D01*
G37*
G36*
X4615Y25750D02*
X4385Y26135D01*
X4385Y25397D01*
X4615Y25750D01*
G37*
G36*
X4634Y25631D02*
X4615Y25750D01*
X4385Y25397D01*
X4634Y25631D01*
G37*
G36*
X4634Y25631D02*
X4385Y25397D01*
X4386Y25397D01*
X4634Y25631D01*
G37*
G36*
X4634Y25631D02*
X4386Y25397D01*
X4635Y25628D01*
X4634Y25631D01*
G37*
G36*
X4774Y26439D02*
X4385Y26365D01*
X4774Y26061D01*
X4774Y26439D01*
G37*
G36*
X4881Y26384D02*
X4774Y26439D01*
X4774Y26061D01*
X4881Y26384D01*
G37*
G36*
X4774Y26061D02*
X4881Y26116D01*
X4881Y26384D01*
X4774Y26061D01*
G37*
G36*
X4881Y26384D02*
X4881Y26116D01*
X5000Y26365D01*
X4881Y26384D01*
G37*
G36*
X4881Y26116D02*
X5000Y26135D01*
X5000Y26365D01*
X4881Y26116D01*
G37*
G36*
X5118Y26384D02*
X5000Y26365D01*
X5000Y26135D01*
X5118Y26384D01*
G37*
G36*
X5119Y26116D02*
X5118Y26384D01*
X5000Y26135D01*
X5119Y26116D01*
G37*
G36*
X5341Y26139D02*
X5118Y26384D01*
X5119Y26116D01*
X5341Y26139D01*
G37*
G36*
X5341Y26139D02*
X5119Y26116D01*
X5226Y26061D01*
X5341Y26139D01*
G37*
G36*
X5226Y26061D02*
X5311Y25976D01*
X5341Y26139D01*
X5226Y26061D01*
G37*
G36*
X5311Y25976D02*
X5341Y25921D01*
X5341Y26139D01*
X5311Y25976D01*
G37*
G36*
X5311Y25976D02*
X5339Y25921D01*
X5341Y25921D01*
X5311Y25976D01*
G37*
G36*
X4689Y26524D02*
X4385Y26365D01*
X4774Y26439D01*
X4689Y26524D01*
G37*
G36*
X4634Y26631D02*
X4385Y26365D01*
X4689Y26524D01*
X4634Y26631D01*
G37*
G36*
X4615Y26750D02*
X4385Y26365D01*
X4634Y26631D01*
X4615Y26750D01*
G37*
G36*
X4615Y26750D02*
X4385Y27135D01*
X4385Y26365D01*
X4615Y26750D01*
G37*
G36*
X4634Y26869D02*
X4385Y27135D01*
X4615Y26750D01*
X4634Y26869D01*
G37*
G36*
X4385Y27135D02*
X4634Y26869D01*
X4689Y26976D01*
X4385Y27135D01*
G37*
G36*
X4385Y27135D02*
X4689Y26976D01*
X4774Y27061D01*
X4385Y27135D01*
G37*
G36*
X4385Y27135D02*
X4774Y27061D01*
X4881Y27116D01*
X4385Y27135D01*
G37*
G36*
X4385Y27135D02*
X4881Y27116D01*
X5000Y27135D01*
X4385Y27135D01*
G37*
G36*
X5000Y27135D02*
X7375Y27225D01*
X4385Y27135D01*
X5000Y27135D01*
G37*
G36*
X7375Y27225D02*
X5000Y27135D01*
X6000Y27135D01*
X7375Y27225D01*
G37*
G36*
X5000Y27135D02*
X5119Y27116D01*
X6000Y27135D01*
X5000Y27135D01*
G37*
G36*
X6000Y27135D02*
X5119Y27116D01*
X5881Y27116D01*
X6000Y27135D01*
G37*
G36*
X5119Y27116D02*
X5226Y27061D01*
X5881Y27116D01*
X5119Y27116D01*
G37*
G36*
X5881Y27116D02*
X5226Y27061D01*
X5774Y27061D01*
X5881Y27116D01*
G37*
G36*
X5774Y27061D02*
X5226Y27061D01*
X5311Y26976D01*
X5774Y27061D01*
G37*
G36*
X5774Y27061D02*
X5311Y26976D01*
X5689Y26976D01*
X5774Y27061D01*
G37*
G36*
X5689Y26976D02*
X5311Y26976D01*
X5634Y26869D01*
X5689Y26976D01*
G37*
G36*
X5311Y26976D02*
X5366Y26869D01*
X5634Y26869D01*
X5311Y26976D01*
G37*
G36*
X5366Y26869D02*
X5615Y26750D01*
X5634Y26869D01*
X5366Y26869D01*
G37*
G36*
X5366Y26869D02*
X5385Y26750D01*
X5615Y26750D01*
X5366Y26869D01*
G37*
G36*
X5615Y26750D02*
X5385Y26750D01*
X5634Y26631D01*
X5615Y26750D01*
G37*
G36*
X5385Y26750D02*
X5366Y26631D01*
X5634Y26631D01*
X5385Y26750D01*
G37*
G36*
X5634Y26631D02*
X5366Y26631D01*
X5350Y26601D01*
X5634Y26631D01*
G37*
G36*
X5689Y26524D02*
X5634Y26631D01*
X5350Y26601D01*
X5689Y26524D01*
G37*
G36*
X5350Y26601D02*
X5618Y26307D01*
X5689Y26524D01*
X5350Y26601D01*
G37*
G36*
X5689Y26524D02*
X5618Y26307D01*
X5774Y26439D01*
X5689Y26524D01*
G37*
G36*
X5618Y26307D02*
X5627Y26293D01*
X5774Y26439D01*
X5618Y26307D01*
G37*
G36*
X5627Y26293D02*
X5638Y26279D01*
X5774Y26439D01*
X5627Y26293D01*
G37*
G36*
X5774Y26439D02*
X5638Y26279D01*
X5641Y26273D01*
X5774Y26439D01*
G37*
G36*
X5638Y26279D02*
X5639Y26276D01*
X5641Y26273D01*
X5638Y26279D01*
G37*
G36*
X5774Y26439D02*
X5641Y26273D01*
X5647Y26257D01*
X5774Y26439D01*
G37*
G36*
X5881Y26384D02*
X5774Y26439D01*
X5647Y26257D01*
X5881Y26384D01*
G37*
G36*
X5647Y26257D02*
X5654Y26241D01*
X5881Y26384D01*
X5647Y26257D01*
G37*
G36*
X5881Y26384D02*
X5654Y26241D01*
X5655Y26234D01*
X5881Y26384D01*
G37*
G36*
X5654Y26241D02*
X5654Y26237D01*
X5655Y26234D01*
X5654Y26241D01*
G37*
G36*
X5881Y26384D02*
X5655Y26234D01*
X5881Y26116D01*
X5881Y26384D01*
G37*
G36*
X5881Y26116D02*
X5655Y26234D01*
X5657Y26217D01*
X5881Y26116D01*
G37*
G36*
X5881Y26116D02*
X5657Y26217D01*
X5659Y26200D01*
X5881Y26116D01*
G37*
G36*
X5659Y26200D02*
X5774Y26061D01*
X5881Y26116D01*
X5659Y26200D01*
G37*
G36*
X5659Y26200D02*
X5689Y25976D01*
X5774Y26061D01*
X5659Y26200D01*
G37*
G36*
X5689Y25976D02*
X5659Y26200D01*
X5659Y25921D01*
X5689Y25976D01*
G37*
G36*
X5689Y25976D02*
X5659Y25921D01*
X5661Y25921D01*
X5689Y25976D01*
G37*
G36*
X5881Y26384D02*
X5881Y26116D01*
X6000Y26365D01*
X5881Y26384D01*
G37*
G36*
X5881Y26116D02*
X6000Y26135D01*
X6000Y26365D01*
X5881Y26116D01*
G37*
G36*
X6000Y26365D02*
X6000Y26135D01*
X6119Y26116D01*
X6000Y26365D01*
G37*
G36*
X6000Y26365D02*
X6119Y26116D01*
X6119Y26384D01*
X6000Y26365D01*
G37*
G36*
X6226Y26439D02*
X6119Y26384D01*
X6119Y26116D01*
X6226Y26439D01*
G37*
G36*
X6226Y26439D02*
X6119Y26116D01*
X6226Y26061D01*
X6226Y26439D01*
G37*
G36*
X6226Y26439D02*
X6226Y26061D01*
X6311Y25976D01*
X6226Y26439D01*
G37*
G36*
X6226Y26439D02*
X6311Y25976D01*
X6311Y26524D01*
X6226Y26439D01*
G37*
G36*
X6311Y25976D02*
X7100Y26459D01*
X6311Y26524D01*
X6311Y25976D01*
G37*
G36*
X7100Y26459D02*
X6366Y26631D01*
X6311Y26524D01*
X7100Y26459D01*
G37*
G36*
X7029Y26597D02*
X6366Y26631D01*
X7100Y26459D01*
X7029Y26597D01*
G37*
G36*
X7029Y26597D02*
X7005Y26750D01*
X6366Y26631D01*
X7029Y26597D01*
G37*
G36*
X7005Y26750D02*
X6385Y26750D01*
X6366Y26631D01*
X7005Y26750D01*
G37*
G36*
X6366Y26869D02*
X6385Y26750D01*
X7005Y26750D01*
X6366Y26869D01*
G37*
G36*
X6366Y26869D02*
X7005Y26750D01*
X7029Y26903D01*
X6366Y26869D01*
G37*
G36*
X6311Y26976D02*
X6366Y26869D01*
X7029Y26903D01*
X6311Y26976D01*
G37*
G36*
X7100Y27041D02*
X6311Y26976D01*
X7029Y26903D01*
X7100Y27041D01*
G37*
G36*
X7209Y27150D02*
X6311Y26976D01*
X7100Y27041D01*
X7209Y27150D01*
G37*
G36*
X7209Y27150D02*
X6226Y27061D01*
X6311Y26976D01*
X7209Y27150D01*
G37*
G36*
X7209Y27150D02*
X6119Y27116D01*
X6226Y27061D01*
X7209Y27150D01*
G37*
G36*
X7347Y27221D02*
X6119Y27116D01*
X7209Y27150D01*
X7347Y27221D01*
G37*
G36*
X7347Y27221D02*
X6000Y27135D01*
X6119Y27116D01*
X7347Y27221D01*
G37*
G36*
X7375Y27225D02*
X6000Y27135D01*
X7347Y27221D01*
X7375Y27225D01*
G37*
G36*
X6366Y25869D02*
X7100Y26459D01*
X6311Y25976D01*
X6366Y25869D01*
G37*
G36*
X6366Y25869D02*
X6385Y25750D01*
X7100Y26459D01*
X6366Y25869D01*
G37*
G36*
X7100Y26040D02*
X7100Y26459D01*
X6385Y25750D01*
X7100Y26040D01*
G37*
G36*
X7100Y26040D02*
X6385Y25750D01*
X7030Y25903D01*
X7100Y26040D01*
G37*
G36*
X7030Y25903D02*
X6385Y25750D01*
X7006Y25750D01*
X7030Y25903D01*
G37*
G36*
X7006Y25750D02*
X6385Y25750D01*
X6366Y25631D01*
X7006Y25750D01*
G37*
G36*
X7030Y25597D02*
X7006Y25750D01*
X6366Y25631D01*
X7030Y25597D01*
G37*
G36*
X6366Y25631D02*
X6311Y25524D01*
X7030Y25597D01*
X6366Y25631D01*
G37*
G36*
X7030Y25597D02*
X6311Y25524D01*
X7067Y25526D01*
X7030Y25597D01*
G37*
G36*
X7067Y25526D02*
X6311Y25524D01*
X6432Y24859D01*
X7067Y25526D01*
G37*
G36*
X6311Y25524D02*
X6226Y25439D01*
X6432Y24859D01*
X6311Y25524D01*
G37*
G36*
X6226Y25439D02*
X6119Y25384D01*
X6432Y24859D01*
X6226Y25439D01*
G37*
G36*
X6119Y25384D02*
X6000Y25365D01*
X6432Y24859D01*
X6119Y25384D01*
G37*
G36*
X5612Y25288D02*
X6432Y24859D01*
X6000Y25365D01*
X5612Y25288D01*
G37*
G36*
X6000Y25365D02*
X5638Y25321D01*
X5612Y25288D01*
X6000Y25365D01*
G37*
G36*
X6000Y25365D02*
X5881Y25384D01*
X5638Y25321D01*
X6000Y25365D01*
G37*
G36*
X5638Y25321D02*
X5881Y25384D01*
X5654Y25359D01*
X5638Y25321D01*
G37*
G36*
X5881Y25384D02*
X5774Y25439D01*
X5654Y25359D01*
X5881Y25384D01*
G37*
G36*
X5774Y25439D02*
X5659Y25400D01*
X5654Y25359D01*
X5774Y25439D01*
G37*
G36*
X5689Y25524D02*
X5659Y25400D01*
X5774Y25439D01*
X5689Y25524D01*
G37*
G36*
X5659Y25579D02*
X5659Y25400D01*
X5689Y25524D01*
X5659Y25579D01*
G37*
G36*
X5661Y25579D02*
X5659Y25579D01*
X5689Y25524D01*
X5661Y25579D01*
G37*
G36*
X5612Y25288D02*
X5186Y24859D01*
X6432Y24859D01*
X5612Y25288D01*
G37*
G36*
X5185Y24860D02*
X5186Y24859D01*
X5612Y25288D01*
X5185Y24860D01*
G37*
G36*
X7100Y26459D02*
X7100Y26040D01*
X7209Y26350D01*
X7100Y26459D01*
G37*
G36*
X7209Y26350D02*
X7100Y26040D01*
X7210Y26150D01*
X7209Y26350D01*
G37*
G36*
X7209Y26350D02*
X7210Y26150D01*
X7347Y26279D01*
X7209Y26350D01*
G37*
G36*
X7347Y26279D02*
X7210Y26150D01*
X7347Y26220D01*
X7347Y26279D01*
G37*
G36*
X7347Y26279D02*
X7347Y26220D01*
X7500Y26255D01*
X7347Y26279D01*
G37*
G36*
X7347Y26220D02*
X7500Y26244D01*
X7500Y26255D01*
X7347Y26220D01*
G37*
G36*
X7500Y26255D02*
X7500Y26244D01*
X7653Y26220D01*
X7500Y26255D01*
G37*
G36*
X7500Y26255D02*
X7653Y26220D01*
X7653Y26279D01*
X7500Y26255D01*
G37*
G36*
X7653Y26279D02*
X7653Y26220D01*
X7790Y26150D01*
X7653Y26279D01*
G37*
G36*
X7653Y26279D02*
X7790Y26150D01*
X7791Y26350D01*
X7653Y26279D01*
G37*
G36*
X7791Y26350D02*
X7790Y26150D01*
X7900Y26040D01*
X7791Y26350D01*
G37*
G36*
X7791Y26350D02*
X7900Y26040D01*
X7900Y26459D01*
X7791Y26350D01*
G37*
G36*
X7900Y26459D02*
X7900Y26040D01*
X7970Y25903D01*
X7900Y26459D01*
G37*
G36*
X7900Y26459D02*
X7970Y25903D01*
X7971Y26597D01*
X7900Y26459D01*
G37*
G36*
X9030Y25903D02*
X7971Y26597D01*
X7970Y25903D01*
X9030Y25903D01*
G37*
G36*
X7970Y25903D02*
X7994Y25750D01*
X9030Y25903D01*
X7970Y25903D01*
G37*
G36*
X9006Y25750D02*
X9030Y25903D01*
X7994Y25750D01*
X9006Y25750D01*
G37*
G36*
X9006Y25750D02*
X7994Y25750D01*
X9030Y25597D01*
X9006Y25750D01*
G37*
G36*
X9030Y25597D02*
X7994Y25750D01*
X9100Y25460D01*
X9030Y25597D01*
G37*
G36*
X9100Y25460D02*
X7994Y25750D01*
X7970Y25597D01*
X9100Y25460D01*
G37*
G36*
X9100Y25460D02*
X7970Y25597D01*
X7900Y25460D01*
X9100Y25460D01*
G37*
G36*
X7900Y25460D02*
X8000Y24494D01*
X9100Y25460D01*
X7900Y25460D01*
G37*
G36*
X9100Y25460D02*
X8000Y24494D01*
X8153Y24470D01*
X9100Y25460D01*
G37*
G36*
X9100Y25460D02*
X8153Y24470D01*
X8847Y24470D01*
X9100Y25460D01*
G37*
G36*
X8153Y24470D02*
X8290Y24400D01*
X8847Y24470D01*
X8153Y24470D01*
G37*
G36*
X8290Y24400D02*
X8710Y24400D01*
X8847Y24470D01*
X8290Y24400D01*
G37*
G36*
X8710Y24400D02*
X8290Y24400D01*
X8600Y24290D01*
X8710Y24400D01*
G37*
G36*
X8290Y24400D02*
X8400Y24290D01*
X8600Y24290D01*
X8290Y24400D01*
G37*
G36*
X8400Y24290D02*
X8470Y24153D01*
X8600Y24290D01*
X8400Y24290D01*
G37*
G36*
X8470Y24153D02*
X8530Y24153D01*
X8600Y24290D01*
X8470Y24153D01*
G37*
G36*
X8530Y24153D02*
X8470Y24153D01*
X8506Y24000D01*
X8530Y24153D01*
G37*
G36*
X8470Y24153D02*
X8494Y24000D01*
X8506Y24000D01*
X8470Y24153D01*
G37*
G36*
X8506Y24000D02*
X8494Y24000D01*
X8530Y23847D01*
X8506Y24000D01*
G37*
G36*
X8494Y24000D02*
X8470Y23847D01*
X8530Y23847D01*
X8494Y24000D01*
G37*
G36*
X8530Y23847D02*
X8470Y23847D01*
X8600Y23710D01*
X8530Y23847D01*
G37*
G36*
X8470Y23847D02*
X8400Y23710D01*
X8600Y23710D01*
X8470Y23847D01*
G37*
G36*
X8600Y23710D02*
X8400Y23710D01*
X8710Y23600D01*
X8600Y23710D01*
G37*
G36*
X8400Y23710D02*
X8290Y23600D01*
X8710Y23600D01*
X8400Y23710D01*
G37*
G36*
X8710Y23600D02*
X8290Y23600D01*
X8847Y23530D01*
X8710Y23600D01*
G37*
G36*
X8290Y23600D02*
X8153Y23530D01*
X8847Y23530D01*
X8290Y23600D01*
G37*
G36*
X8847Y23530D02*
X8153Y23530D01*
X9000Y23506D01*
X8847Y23530D01*
G37*
G36*
X8153Y23530D02*
X8000Y23506D01*
X9000Y23506D01*
X8153Y23530D01*
G37*
G36*
X4666Y23059D02*
X9000Y23506D01*
X8000Y23506D01*
X4666Y23059D01*
G37*
G36*
X4666Y23059D02*
X8000Y23506D01*
X7000Y23506D01*
X4666Y23059D01*
G37*
G36*
X7153Y23530D02*
X7000Y23506D01*
X8000Y23506D01*
X7153Y23530D01*
G37*
G36*
X7847Y23530D02*
X7153Y23530D01*
X8000Y23506D01*
X7847Y23530D01*
G37*
G36*
X7290Y23600D02*
X7153Y23530D01*
X7847Y23530D01*
X7290Y23600D01*
G37*
G36*
X7710Y23600D02*
X7290Y23600D01*
X7847Y23530D01*
X7710Y23600D01*
G37*
G36*
X7400Y23710D02*
X7290Y23600D01*
X7710Y23600D01*
X7400Y23710D01*
G37*
G36*
X7600Y23710D02*
X7400Y23710D01*
X7710Y23600D01*
X7600Y23710D01*
G37*
G36*
X7470Y23847D02*
X7400Y23710D01*
X7600Y23710D01*
X7470Y23847D01*
G37*
G36*
X7530Y23847D02*
X7470Y23847D01*
X7600Y23710D01*
X7530Y23847D01*
G37*
G36*
X7494Y24000D02*
X7470Y23847D01*
X7530Y23847D01*
X7494Y24000D01*
G37*
G36*
X7506Y24000D02*
X7494Y24000D01*
X7530Y23847D01*
X7506Y24000D01*
G37*
G36*
X7470Y24153D02*
X7494Y24000D01*
X7506Y24000D01*
X7470Y24153D01*
G37*
G36*
X7530Y24153D02*
X7470Y24153D01*
X7506Y24000D01*
X7530Y24153D01*
G37*
G36*
X7600Y24290D02*
X7470Y24153D01*
X7530Y24153D01*
X7600Y24290D01*
G37*
G36*
X7470Y24153D02*
X7600Y24290D01*
X7400Y24290D01*
X7470Y24153D01*
G37*
G36*
X7600Y24290D02*
X7290Y24400D01*
X7400Y24290D01*
X7600Y24290D01*
G37*
G36*
X7290Y24400D02*
X7600Y24290D01*
X7710Y24400D01*
X7290Y24400D01*
G37*
G36*
X7500Y25256D02*
X7290Y24400D01*
X7710Y24400D01*
X7500Y25256D01*
G37*
G36*
X7500Y25256D02*
X7710Y24400D01*
X7847Y24470D01*
X7500Y25256D01*
G37*
G36*
X7653Y25280D02*
X7500Y25256D01*
X7847Y24470D01*
X7653Y25280D01*
G37*
G36*
X8000Y24494D02*
X7653Y25280D01*
X7847Y24470D01*
X8000Y24494D01*
G37*
G36*
X7790Y25350D02*
X7653Y25280D01*
X8000Y24494D01*
X7790Y25350D01*
G37*
G36*
X7900Y25460D02*
X7790Y25350D01*
X8000Y24494D01*
X7900Y25460D01*
G37*
G36*
X7153Y24470D02*
X7290Y24400D01*
X7500Y25256D01*
X7153Y24470D01*
G37*
G36*
X7347Y25280D02*
X7153Y24470D01*
X7500Y25256D01*
X7347Y25280D01*
G37*
G36*
X7347Y25280D02*
X7000Y24494D01*
X7153Y24470D01*
X7347Y25280D01*
G37*
G36*
X7297Y25306D02*
X7000Y24494D01*
X7347Y25280D01*
X7297Y25306D01*
G37*
G36*
X7297Y25306D02*
X6615Y24590D01*
X7000Y24494D01*
X7297Y25306D01*
G37*
G36*
X6615Y24590D02*
X6847Y24470D01*
X7000Y24494D01*
X6615Y24590D01*
G37*
G36*
X6847Y24470D02*
X6615Y24590D01*
X6710Y24400D01*
X6847Y24470D01*
G37*
G36*
X6710Y24400D02*
X6615Y24590D01*
X6612Y24588D01*
X6710Y24400D01*
G37*
G36*
X6615Y24590D02*
X6614Y24589D01*
X6612Y24588D01*
X6615Y24590D01*
G37*
G36*
X6612Y24588D02*
X6597Y24576D01*
X6710Y24400D01*
X6612Y24588D01*
G37*
G36*
X6597Y24576D02*
X6583Y24564D01*
X6710Y24400D01*
X6597Y24576D01*
G37*
G36*
X6710Y24400D02*
X6583Y24564D01*
X6579Y24562D01*
X6710Y24400D01*
G37*
G36*
X6583Y24564D02*
X6581Y24564D01*
X6579Y24562D01*
X6583Y24564D01*
G37*
G36*
X6579Y24562D02*
X6562Y24555D01*
X6710Y24400D01*
X6579Y24562D01*
G37*
G36*
X6562Y24555D02*
X6545Y24547D01*
X6710Y24400D01*
X6562Y24555D01*
G37*
G36*
X6600Y24290D02*
X6710Y24400D01*
X6545Y24547D01*
X6600Y24290D01*
G37*
G36*
X6600Y24290D02*
X6545Y24547D01*
X6541Y24546D01*
X6600Y24290D01*
G37*
G36*
X6545Y24547D02*
X6543Y24547D01*
X6541Y24546D01*
X6545Y24547D01*
G37*
G36*
X6600Y24290D02*
X6541Y24546D01*
X6522Y24544D01*
X6600Y24290D01*
G37*
G36*
X6600Y24290D02*
X6522Y24544D01*
X6504Y24541D01*
X6600Y24290D01*
G37*
G36*
X6504Y24541D02*
X6500Y24541D01*
X6600Y24290D01*
X6504Y24541D01*
G37*
G36*
X6500Y24541D02*
X6400Y24290D01*
X6600Y24290D01*
X6500Y24541D01*
G37*
G36*
X6470Y24153D02*
X6600Y24290D01*
X6400Y24290D01*
X6470Y24153D01*
G37*
G36*
X6600Y24290D02*
X6470Y24153D01*
X6530Y24153D01*
X6600Y24290D01*
G37*
G36*
X6530Y24153D02*
X6470Y24153D01*
X6506Y24000D01*
X6530Y24153D01*
G37*
G36*
X6470Y24153D02*
X6494Y24000D01*
X6506Y24000D01*
X6470Y24153D01*
G37*
G36*
X6506Y24000D02*
X6494Y24000D01*
X6530Y23847D01*
X6506Y24000D01*
G37*
G36*
X6494Y24000D02*
X6470Y23847D01*
X6530Y23847D01*
X6494Y24000D01*
G37*
G36*
X6530Y23847D02*
X6470Y23847D01*
X6600Y23710D01*
X6530Y23847D01*
G37*
G36*
X6470Y23847D02*
X6400Y23710D01*
X6600Y23710D01*
X6470Y23847D01*
G37*
G36*
X6600Y23710D02*
X6400Y23710D01*
X6710Y23600D01*
X6600Y23710D01*
G37*
G36*
X6400Y23710D02*
X6290Y23600D01*
X6710Y23600D01*
X6400Y23710D01*
G37*
G36*
X6710Y23600D02*
X6290Y23600D01*
X6847Y23530D01*
X6710Y23600D01*
G37*
G36*
X6290Y23600D02*
X6153Y23530D01*
X6847Y23530D01*
X6290Y23600D01*
G37*
G36*
X6847Y23530D02*
X6153Y23530D01*
X7000Y23506D01*
X6847Y23530D01*
G37*
G36*
X6153Y23530D02*
X6000Y23506D01*
X7000Y23506D01*
X6153Y23530D01*
G37*
G36*
X4666Y23059D02*
X7000Y23506D01*
X6000Y23506D01*
X4666Y23059D01*
G37*
G36*
X6000Y23506D02*
X5847Y23530D01*
X4666Y23059D01*
X6000Y23506D01*
G37*
G36*
X4666Y23059D02*
X5847Y23530D01*
X5153Y23530D01*
X4666Y23059D01*
G37*
G36*
X5290Y23600D02*
X5153Y23530D01*
X5847Y23530D01*
X5290Y23600D01*
G37*
G36*
X5710Y23600D02*
X5290Y23600D01*
X5847Y23530D01*
X5710Y23600D01*
G37*
G36*
X5400Y23710D02*
X5290Y23600D01*
X5710Y23600D01*
X5400Y23710D01*
G37*
G36*
X5600Y23710D02*
X5400Y23710D01*
X5710Y23600D01*
X5600Y23710D01*
G37*
G36*
X5470Y23847D02*
X5400Y23710D01*
X5600Y23710D01*
X5470Y23847D01*
G37*
G36*
X5530Y23847D02*
X5470Y23847D01*
X5600Y23710D01*
X5530Y23847D01*
G37*
G36*
X5494Y24000D02*
X5470Y23847D01*
X5530Y23847D01*
X5494Y24000D01*
G37*
G36*
X5506Y24000D02*
X5494Y24000D01*
X5530Y23847D01*
X5506Y24000D01*
G37*
G36*
X5470Y24153D02*
X5494Y24000D01*
X5506Y24000D01*
X5470Y24153D01*
G37*
G36*
X5530Y24153D02*
X5470Y24153D01*
X5506Y24000D01*
X5530Y24153D01*
G37*
G36*
X5470Y24153D02*
X5530Y24153D01*
X5600Y24290D01*
X5470Y24153D01*
G37*
G36*
X5400Y24290D02*
X5470Y24153D01*
X5600Y24290D01*
X5400Y24290D01*
G37*
G36*
X5600Y24290D02*
X5710Y24400D01*
X5400Y24290D01*
X5600Y24290D01*
G37*
G36*
X5710Y24400D02*
X5290Y24400D01*
X5400Y24290D01*
X5710Y24400D01*
G37*
G36*
X5710Y24400D02*
X5847Y24470D01*
X5290Y24400D01*
X5710Y24400D01*
G37*
G36*
X5290Y24400D02*
X5847Y24470D01*
X5153Y24470D01*
X5290Y24400D01*
G37*
G36*
X5847Y24470D02*
X5000Y24494D01*
X5153Y24470D01*
X5847Y24470D01*
G37*
G36*
X5000Y24494D02*
X5847Y24470D01*
X6000Y24494D01*
X5000Y24494D01*
G37*
G36*
X4566Y24541D02*
X5000Y24494D01*
X6000Y24494D01*
X4566Y24541D01*
G37*
G36*
X6500Y24541D02*
X4566Y24541D01*
X6000Y24494D01*
X6500Y24541D01*
G37*
G36*
X6000Y24494D02*
X6153Y24470D01*
X6500Y24541D01*
X6000Y24494D01*
G37*
G36*
X6153Y24470D02*
X6290Y24400D01*
X6500Y24541D01*
X6153Y24470D01*
G37*
G36*
X6290Y24400D02*
X6400Y24290D01*
X6500Y24541D01*
X6290Y24400D01*
G37*
G36*
X4566Y24541D02*
X4847Y24470D01*
X5000Y24494D01*
X4566Y24541D01*
G37*
G36*
X4566Y24541D02*
X4710Y24400D01*
X4847Y24470D01*
X4566Y24541D01*
G37*
G36*
X4710Y24400D02*
X4566Y24541D01*
X4600Y24290D01*
X4710Y24400D01*
G37*
G36*
X4566Y24541D02*
X4459Y24434D01*
X4600Y24290D01*
X4566Y24541D01*
G37*
G36*
X4459Y24434D02*
X4530Y24153D01*
X4600Y24290D01*
X4459Y24434D01*
G37*
G36*
X4459Y24434D02*
X4506Y24000D01*
X4530Y24153D01*
X4459Y24434D01*
G37*
G36*
X4459Y24434D02*
X4459Y23266D01*
X4506Y24000D01*
X4459Y24434D01*
G37*
G36*
X4459Y23266D02*
X4530Y23847D01*
X4506Y24000D01*
X4459Y23266D01*
G37*
G36*
X4530Y23847D02*
X4459Y23266D01*
X4600Y23710D01*
X4530Y23847D01*
G37*
G36*
X4600Y23710D02*
X4459Y23266D01*
X4710Y23600D01*
X4600Y23710D01*
G37*
G36*
X4710Y23600D02*
X4459Y23266D01*
X4847Y23530D01*
X4710Y23600D01*
G37*
G36*
X4847Y23530D02*
X4459Y23266D01*
X4666Y23059D01*
X4847Y23530D01*
G37*
G36*
X5000Y23506D02*
X4847Y23530D01*
X4666Y23059D01*
X5000Y23506D01*
G37*
G36*
X4666Y23059D02*
X5153Y23530D01*
X5000Y23506D01*
X4666Y23059D01*
G37*
G36*
X6502Y24541D02*
X6500Y24541D01*
X6504Y24541D01*
X6502Y24541D01*
G37*
G36*
X12800Y23059D02*
X9000Y23506D01*
X4666Y23059D01*
X12800Y23059D01*
G37*
G36*
X10000Y23506D02*
X9000Y23506D01*
X12800Y23059D01*
X10000Y23506D01*
G37*
G36*
X11000Y23506D02*
X10000Y23506D01*
X12800Y23059D01*
X11000Y23506D01*
G37*
G36*
X12800Y23059D02*
X11153Y23530D01*
X11000Y23506D01*
X12800Y23059D01*
G37*
G36*
X12800Y23059D02*
X11847Y23530D01*
X11153Y23530D01*
X12800Y23059D01*
G37*
G36*
X11290Y23600D02*
X11153Y23530D01*
X11847Y23530D01*
X11290Y23600D01*
G37*
G36*
X11710Y23600D02*
X11290Y23600D01*
X11847Y23530D01*
X11710Y23600D01*
G37*
G36*
X11400Y23710D02*
X11290Y23600D01*
X11710Y23600D01*
X11400Y23710D01*
G37*
G36*
X11600Y23710D02*
X11400Y23710D01*
X11710Y23600D01*
X11600Y23710D01*
G37*
G36*
X11470Y23847D02*
X11400Y23710D01*
X11600Y23710D01*
X11470Y23847D01*
G37*
G36*
X11530Y23847D02*
X11470Y23847D01*
X11600Y23710D01*
X11530Y23847D01*
G37*
G36*
X11494Y24000D02*
X11470Y23847D01*
X11530Y23847D01*
X11494Y24000D01*
G37*
G36*
X11506Y24000D02*
X11494Y24000D01*
X11530Y23847D01*
X11506Y24000D01*
G37*
G36*
X11470Y24153D02*
X11494Y24000D01*
X11506Y24000D01*
X11470Y24153D01*
G37*
G36*
X11530Y24153D02*
X11470Y24153D01*
X11506Y24000D01*
X11530Y24153D01*
G37*
G36*
X11470Y24153D02*
X11530Y24153D01*
X11600Y24290D01*
X11470Y24153D01*
G37*
G36*
X11400Y24290D02*
X11470Y24153D01*
X11600Y24290D01*
X11400Y24290D01*
G37*
G36*
X11290Y24400D02*
X11400Y24290D01*
X11600Y24290D01*
X11290Y24400D01*
G37*
G36*
X11710Y24400D02*
X11290Y24400D01*
X11600Y24290D01*
X11710Y24400D01*
G37*
G36*
X11290Y24400D02*
X11710Y24400D01*
X11847Y24470D01*
X11290Y24400D01*
G37*
G36*
X11153Y24470D02*
X11290Y24400D01*
X11847Y24470D01*
X11153Y24470D01*
G37*
G36*
X9994Y25750D02*
X11153Y24470D01*
X11847Y24470D01*
X9994Y25750D01*
G37*
G36*
X9994Y25750D02*
X11847Y24470D01*
X9970Y25903D01*
X9994Y25750D01*
G37*
G36*
X9970Y25903D02*
X11847Y24470D01*
X12000Y24494D01*
X9970Y25903D01*
G37*
G36*
X12000Y24494D02*
X9971Y26597D01*
X9970Y25903D01*
X12000Y24494D01*
G37*
G36*
X9900Y26459D02*
X9970Y25903D01*
X9971Y26597D01*
X9900Y26459D01*
G37*
G36*
X9900Y26459D02*
X9900Y26040D01*
X9970Y25903D01*
X9900Y26459D01*
G37*
G36*
X9791Y26350D02*
X9900Y26040D01*
X9900Y26459D01*
X9791Y26350D01*
G37*
G36*
X9791Y26350D02*
X9790Y26150D01*
X9900Y26040D01*
X9791Y26350D01*
G37*
G36*
X9653Y26279D02*
X9790Y26150D01*
X9791Y26350D01*
X9653Y26279D01*
G37*
G36*
X9653Y26279D02*
X9653Y26220D01*
X9790Y26150D01*
X9653Y26279D01*
G37*
G36*
X9500Y26255D02*
X9653Y26220D01*
X9653Y26279D01*
X9500Y26255D01*
G37*
G36*
X9500Y26255D02*
X9500Y26244D01*
X9653Y26220D01*
X9500Y26255D01*
G37*
G36*
X9347Y26220D02*
X9500Y26244D01*
X9500Y26255D01*
X9347Y26220D01*
G37*
G36*
X9347Y26279D02*
X9347Y26220D01*
X9500Y26255D01*
X9347Y26279D01*
G37*
G36*
X9347Y26279D02*
X9210Y26150D01*
X9347Y26220D01*
X9347Y26279D01*
G37*
G36*
X9209Y26350D02*
X9210Y26150D01*
X9347Y26279D01*
X9209Y26350D01*
G37*
G36*
X9209Y26350D02*
X9100Y26040D01*
X9210Y26150D01*
X9209Y26350D01*
G37*
G36*
X9100Y26459D02*
X9100Y26040D01*
X9209Y26350D01*
X9100Y26459D01*
G37*
G36*
X9100Y26459D02*
X9030Y25903D01*
X9100Y26040D01*
X9100Y26459D01*
G37*
G36*
X9029Y26597D02*
X9030Y25903D01*
X9100Y26459D01*
X9029Y26597D01*
G37*
G36*
X9029Y26597D02*
X7995Y26750D01*
X9030Y25903D01*
X9029Y26597D01*
G37*
G36*
X7995Y26750D02*
X7971Y26597D01*
X9030Y25903D01*
X7995Y26750D01*
G37*
G36*
X9005Y26750D02*
X7995Y26750D01*
X9029Y26597D01*
X9005Y26750D01*
G37*
G36*
X7971Y26903D02*
X7995Y26750D01*
X9005Y26750D01*
X7971Y26903D01*
G37*
G36*
X7971Y26903D02*
X9005Y26750D01*
X9029Y26903D01*
X7971Y26903D01*
G37*
G36*
X7900Y27041D02*
X7971Y26903D01*
X9029Y26903D01*
X7900Y27041D01*
G37*
G36*
X9100Y27041D02*
X7900Y27041D01*
X9029Y26903D01*
X9100Y27041D01*
G37*
G36*
X9209Y27150D02*
X7900Y27041D01*
X9100Y27041D01*
X9209Y27150D01*
G37*
G36*
X9209Y27150D02*
X7791Y27150D01*
X7900Y27041D01*
X9209Y27150D01*
G37*
G36*
X9340Y27217D02*
X7791Y27150D01*
X9209Y27150D01*
X9340Y27217D01*
G37*
G36*
X7653Y27221D02*
X7791Y27150D01*
X9340Y27217D01*
X7653Y27221D01*
G37*
G36*
X7632Y27224D02*
X7653Y27221D01*
X9340Y27217D01*
X7632Y27224D01*
G37*
G36*
X9995Y26750D02*
X9971Y26597D01*
X12000Y24494D01*
X9995Y26750D01*
G37*
G36*
X12153Y24470D02*
X9995Y26750D01*
X12000Y24494D01*
X12153Y24470D01*
G37*
G36*
X12153Y24470D02*
X12847Y24470D01*
X9995Y26750D01*
X12153Y24470D01*
G37*
G36*
X9995Y26750D02*
X12847Y24470D01*
X9971Y26903D01*
X9995Y26750D01*
G37*
G36*
X13000Y24494D02*
X9971Y26903D01*
X12847Y24470D01*
X13000Y24494D01*
G37*
G36*
X13000Y24494D02*
X13847Y24470D01*
X9971Y26903D01*
X13000Y24494D01*
G37*
G36*
X13847Y24470D02*
X9900Y27041D01*
X9971Y26903D01*
X13847Y24470D01*
G37*
G36*
X13847Y24470D02*
X9791Y27150D01*
X9900Y27041D01*
X13847Y24470D01*
G37*
G36*
X14000Y24494D02*
X9791Y27150D01*
X13847Y24470D01*
X14000Y24494D01*
G37*
G36*
X14847Y24470D02*
X9791Y27150D01*
X14000Y24494D01*
X14847Y24470D01*
G37*
G36*
X14153Y24470D02*
X14847Y24470D01*
X14000Y24494D01*
X14153Y24470D01*
G37*
G36*
X14847Y24470D02*
X14153Y24470D01*
X14290Y24400D01*
X14847Y24470D01*
G37*
G36*
X14847Y24470D02*
X14290Y24400D01*
X14710Y24400D01*
X14847Y24470D01*
G37*
G36*
X14710Y24400D02*
X14290Y24400D01*
X14600Y24290D01*
X14710Y24400D01*
G37*
G36*
X14290Y24400D02*
X14400Y24290D01*
X14600Y24290D01*
X14290Y24400D01*
G37*
G36*
X14400Y24290D02*
X14530Y24153D01*
X14600Y24290D01*
X14400Y24290D01*
G37*
G36*
X14400Y24290D02*
X14470Y24153D01*
X14530Y24153D01*
X14400Y24290D01*
G37*
G36*
X14530Y24153D02*
X14470Y24153D01*
X14506Y24000D01*
X14530Y24153D01*
G37*
G36*
X14470Y24153D02*
X14494Y24000D01*
X14506Y24000D01*
X14470Y24153D01*
G37*
G36*
X14506Y24000D02*
X14494Y24000D01*
X14530Y23847D01*
X14506Y24000D01*
G37*
G36*
X14494Y24000D02*
X14470Y23847D01*
X14530Y23847D01*
X14494Y24000D01*
G37*
G36*
X14530Y23847D02*
X14470Y23847D01*
X14600Y23710D01*
X14530Y23847D01*
G37*
G36*
X14470Y23847D02*
X14400Y23710D01*
X14600Y23710D01*
X14470Y23847D01*
G37*
G36*
X14600Y23710D02*
X14400Y23710D01*
X14710Y23600D01*
X14600Y23710D01*
G37*
G36*
X14400Y23710D02*
X14290Y23600D01*
X14710Y23600D01*
X14400Y23710D01*
G37*
G36*
X14710Y23600D02*
X14290Y23600D01*
X14847Y23530D01*
X14710Y23600D01*
G37*
G36*
X14290Y23600D02*
X14153Y23530D01*
X14847Y23530D01*
X14290Y23600D01*
G37*
G36*
X14179Y20244D02*
X14847Y23530D01*
X14153Y23530D01*
X14179Y20244D01*
G37*
G36*
X14179Y20244D02*
X14153Y23530D01*
X14000Y23506D01*
X14179Y20244D01*
G37*
G36*
X14179Y20244D02*
X14000Y23506D01*
X13659Y22200D01*
X14179Y20244D01*
G37*
G36*
X13654Y22241D02*
X13659Y22200D01*
X14000Y23506D01*
X13654Y22241D01*
G37*
G36*
X13638Y22279D02*
X13654Y22241D01*
X14000Y23506D01*
X13638Y22279D01*
G37*
G36*
X13612Y22312D02*
X13638Y22279D01*
X14000Y23506D01*
X13612Y22312D01*
G37*
G36*
X13612Y22312D02*
X14000Y23506D01*
X13847Y23530D01*
X13612Y22312D01*
G37*
G36*
X13612Y22312D02*
X13847Y23530D01*
X12912Y23012D01*
X13612Y22312D01*
G37*
G36*
X13847Y23530D02*
X13710Y23600D01*
X12912Y23012D01*
X13847Y23530D01*
G37*
G36*
X12912Y23012D02*
X13710Y23600D01*
X13290Y23600D01*
X12912Y23012D01*
G37*
G36*
X13400Y23710D02*
X13290Y23600D01*
X13710Y23600D01*
X13400Y23710D01*
G37*
G36*
X13600Y23710D02*
X13400Y23710D01*
X13710Y23600D01*
X13600Y23710D01*
G37*
G36*
X13470Y23847D02*
X13400Y23710D01*
X13600Y23710D01*
X13470Y23847D01*
G37*
G36*
X13530Y23847D02*
X13470Y23847D01*
X13600Y23710D01*
X13530Y23847D01*
G37*
G36*
X13494Y24000D02*
X13470Y23847D01*
X13530Y23847D01*
X13494Y24000D01*
G37*
G36*
X13506Y24000D02*
X13494Y24000D01*
X13530Y23847D01*
X13506Y24000D01*
G37*
G36*
X13470Y24153D02*
X13494Y24000D01*
X13506Y24000D01*
X13470Y24153D01*
G37*
G36*
X13530Y24153D02*
X13470Y24153D01*
X13506Y24000D01*
X13530Y24153D01*
G37*
G36*
X13400Y24290D02*
X13470Y24153D01*
X13530Y24153D01*
X13400Y24290D01*
G37*
G36*
X13400Y24290D02*
X13530Y24153D01*
X13600Y24290D01*
X13400Y24290D01*
G37*
G36*
X13290Y24400D02*
X13400Y24290D01*
X13600Y24290D01*
X13290Y24400D01*
G37*
G36*
X13710Y24400D02*
X13290Y24400D01*
X13600Y24290D01*
X13710Y24400D01*
G37*
G36*
X13847Y24470D02*
X13290Y24400D01*
X13710Y24400D01*
X13847Y24470D01*
G37*
G36*
X13290Y24400D02*
X13847Y24470D01*
X13153Y24470D01*
X13290Y24400D01*
G37*
G36*
X13000Y24494D02*
X13153Y24470D01*
X13847Y24470D01*
X13000Y24494D01*
G37*
G36*
X13153Y23530D02*
X12912Y23012D01*
X13290Y23600D01*
X13153Y23530D01*
G37*
G36*
X12912Y23012D02*
X13153Y23530D01*
X13000Y23506D01*
X12912Y23012D01*
G37*
G36*
X12879Y23038D02*
X12912Y23012D01*
X13000Y23506D01*
X12879Y23038D01*
G37*
G36*
X12841Y23054D02*
X12879Y23038D01*
X13000Y23506D01*
X12841Y23054D01*
G37*
G36*
X12847Y23530D02*
X12841Y23054D01*
X13000Y23506D01*
X12847Y23530D01*
G37*
G36*
X12800Y23059D02*
X12841Y23054D01*
X12847Y23530D01*
X12800Y23059D01*
G37*
G36*
X12847Y23530D02*
X12710Y23600D01*
X12800Y23059D01*
X12847Y23530D01*
G37*
G36*
X12800Y23059D02*
X12710Y23600D01*
X12290Y23600D01*
X12800Y23059D01*
G37*
G36*
X12400Y23710D02*
X12290Y23600D01*
X12710Y23600D01*
X12400Y23710D01*
G37*
G36*
X12600Y23710D02*
X12400Y23710D01*
X12710Y23600D01*
X12600Y23710D01*
G37*
G36*
X12470Y23847D02*
X12400Y23710D01*
X12600Y23710D01*
X12470Y23847D01*
G37*
G36*
X12530Y23847D02*
X12470Y23847D01*
X12600Y23710D01*
X12530Y23847D01*
G37*
G36*
X12494Y24000D02*
X12470Y23847D01*
X12530Y23847D01*
X12494Y24000D01*
G37*
G36*
X12506Y24000D02*
X12494Y24000D01*
X12530Y23847D01*
X12506Y24000D01*
G37*
G36*
X12470Y24153D02*
X12494Y24000D01*
X12506Y24000D01*
X12470Y24153D01*
G37*
G36*
X12530Y24153D02*
X12470Y24153D01*
X12506Y24000D01*
X12530Y24153D01*
G37*
G36*
X12400Y24290D02*
X12470Y24153D01*
X12530Y24153D01*
X12400Y24290D01*
G37*
G36*
X12400Y24290D02*
X12530Y24153D01*
X12600Y24290D01*
X12400Y24290D01*
G37*
G36*
X12290Y24400D02*
X12400Y24290D01*
X12600Y24290D01*
X12290Y24400D01*
G37*
G36*
X12710Y24400D02*
X12290Y24400D01*
X12600Y24290D01*
X12710Y24400D01*
G37*
G36*
X12710Y24400D02*
X12847Y24470D01*
X12290Y24400D01*
X12710Y24400D01*
G37*
G36*
X12847Y24470D02*
X12153Y24470D01*
X12290Y24400D01*
X12847Y24470D01*
G37*
G36*
X12290Y23600D02*
X12153Y23530D01*
X12800Y23059D01*
X12290Y23600D01*
G37*
G36*
X12153Y23530D02*
X12000Y23506D01*
X12800Y23059D01*
X12153Y23530D01*
G37*
G36*
X12000Y23506D02*
X11847Y23530D01*
X12800Y23059D01*
X12000Y23506D01*
G37*
G36*
X14179Y20244D02*
X13659Y22200D01*
X13659Y20800D01*
X14179Y20244D01*
G37*
G36*
X14100Y20256D02*
X14179Y20244D01*
X13659Y20800D01*
X14100Y20256D01*
G37*
G36*
X13659Y20800D02*
X13654Y20759D01*
X14100Y20256D01*
X13659Y20800D01*
G37*
G36*
X13654Y20759D02*
X14021Y20244D01*
X14100Y20256D01*
X13654Y20759D01*
G37*
G36*
X13654Y20759D02*
X13638Y20721D01*
X14021Y20244D01*
X13654Y20759D01*
G37*
G36*
X14021Y20244D02*
X13638Y20721D01*
X13612Y20688D01*
X14021Y20244D01*
G37*
G36*
X14021Y20244D02*
X13612Y20688D01*
X13949Y20208D01*
X14021Y20244D01*
G37*
G36*
X13949Y20208D02*
X13612Y20688D01*
X13600Y20159D01*
X13949Y20208D01*
G37*
G36*
X13559Y20154D02*
X13600Y20159D01*
X13612Y20688D01*
X13559Y20154D01*
G37*
G36*
X13521Y20138D02*
X13559Y20154D01*
X13612Y20688D01*
X13521Y20138D01*
G37*
G36*
X13488Y20112D02*
X13521Y20138D01*
X13612Y20688D01*
X13488Y20112D01*
G37*
G36*
X13488Y20112D02*
X13612Y20688D01*
X13188Y19812D01*
X13488Y20112D01*
G37*
G36*
X13162Y19779D02*
X13188Y19812D01*
X13612Y20688D01*
X13162Y19779D01*
G37*
G36*
X12359Y19434D02*
X13162Y19779D01*
X13612Y20688D01*
X12359Y19434D01*
G37*
G36*
X13146Y19741D02*
X13162Y19779D01*
X12359Y19434D01*
X13146Y19741D01*
G37*
G36*
X13141Y19700D02*
X13146Y19741D01*
X12359Y19434D01*
X13141Y19700D01*
G37*
G36*
X12879Y17444D02*
X13141Y19700D01*
X12359Y19434D01*
X12879Y17444D01*
G37*
G36*
X12879Y17444D02*
X12359Y19434D01*
X12800Y17456D01*
X12879Y17444D01*
G37*
G36*
X12359Y19434D02*
X12721Y17444D01*
X12800Y17456D01*
X12359Y19434D01*
G37*
G36*
X12649Y17408D02*
X12721Y17444D01*
X12359Y19434D01*
X12649Y17408D01*
G37*
G36*
X12592Y17351D02*
X12649Y17408D01*
X12359Y19434D01*
X12592Y17351D01*
G37*
G36*
X12359Y19434D02*
X12556Y17279D01*
X12592Y17351D01*
X12359Y19434D01*
G37*
G36*
X12544Y17200D02*
X12556Y17279D01*
X12359Y19434D01*
X12544Y17200D01*
G37*
G36*
X12544Y17200D02*
X12359Y19434D01*
X12359Y15961D01*
X12544Y17200D01*
G37*
G36*
X12359Y15961D02*
X12556Y17121D01*
X12544Y17200D01*
X12359Y15961D01*
G37*
G36*
X12556Y17121D02*
X12359Y15961D01*
X12641Y16800D01*
X12556Y17121D01*
G37*
G36*
X12646Y16759D02*
X12641Y16800D01*
X12359Y15961D01*
X12646Y16759D01*
G37*
G36*
X12359Y15961D02*
X12662Y16721D01*
X12646Y16759D01*
X12359Y15961D01*
G37*
G36*
X12662Y16721D02*
X12359Y15961D01*
X12688Y16688D01*
X12662Y16721D01*
G37*
G36*
X12359Y15961D02*
X12487Y15896D01*
X12688Y16688D01*
X12359Y15961D01*
G37*
G36*
X12688Y16688D02*
X12487Y15896D01*
X13288Y16088D01*
X12688Y16688D01*
G37*
G36*
X13288Y16088D02*
X12487Y15896D01*
X12596Y15787D01*
X13288Y16088D01*
G37*
G36*
X12596Y15787D02*
X12665Y15651D01*
X13288Y16088D01*
X12596Y15787D01*
G37*
G36*
X13321Y16062D02*
X13288Y16088D01*
X12665Y15651D01*
X13321Y16062D01*
G37*
G36*
X13359Y16046D02*
X13321Y16062D01*
X12665Y15651D01*
X13359Y16046D01*
G37*
G36*
X13359Y16046D02*
X12665Y15651D01*
X12689Y15500D01*
X13359Y16046D01*
G37*
G36*
X12689Y15500D02*
X13400Y16041D01*
X13359Y16046D01*
X12689Y15500D01*
G37*
G36*
X13400Y16041D02*
X12689Y15500D01*
X13906Y15194D01*
X13400Y16041D01*
G37*
G36*
X12689Y15500D02*
X12665Y15349D01*
X13906Y15194D01*
X12689Y15500D01*
G37*
G36*
X12665Y15349D02*
X12596Y15213D01*
X13906Y15194D01*
X12665Y15349D01*
G37*
G36*
X13906Y15194D02*
X12596Y15213D01*
X13906Y14406D01*
X13906Y15194D01*
G37*
G36*
X12596Y15213D02*
X12487Y15104D01*
X13906Y14406D01*
X12596Y15213D01*
G37*
G36*
X12487Y15104D02*
X12351Y15035D01*
X13906Y14406D01*
X12487Y15104D01*
G37*
G36*
X13906Y14406D02*
X12351Y15035D01*
X11766Y14159D01*
X13906Y14406D01*
G37*
G36*
X12351Y15035D02*
X12200Y15011D01*
X11766Y14159D01*
X12351Y15035D01*
G37*
G36*
X12200Y15011D02*
X12049Y15035D01*
X11766Y14159D01*
X12200Y15011D01*
G37*
G36*
X12049Y15035D02*
X11359Y14566D01*
X11766Y14159D01*
X12049Y15035D01*
G37*
G36*
X12049Y15035D02*
X11913Y15104D01*
X11359Y14566D01*
X12049Y15035D01*
G37*
G36*
X11359Y14566D02*
X11913Y15104D01*
X11487Y15104D01*
X11359Y14566D01*
G37*
G36*
X11596Y15213D02*
X11487Y15104D01*
X11913Y15104D01*
X11596Y15213D01*
G37*
G36*
X11804Y15213D02*
X11596Y15213D01*
X11913Y15104D01*
X11804Y15213D01*
G37*
G36*
X11804Y15213D02*
X11735Y15349D01*
X11596Y15213D01*
X11804Y15213D01*
G37*
G36*
X11735Y15349D02*
X11665Y15349D01*
X11596Y15213D01*
X11735Y15349D01*
G37*
G36*
X11735Y15349D02*
X11711Y15500D01*
X11665Y15349D01*
X11735Y15349D01*
G37*
G36*
X11711Y15500D02*
X11689Y15500D01*
X11665Y15349D01*
X11711Y15500D01*
G37*
G36*
X11689Y15500D02*
X11711Y15500D01*
X11735Y15651D01*
X11689Y15500D01*
G37*
G36*
X11665Y15651D02*
X11689Y15500D01*
X11735Y15651D01*
X11665Y15651D01*
G37*
G36*
X11735Y15651D02*
X11804Y15787D01*
X11665Y15651D01*
X11735Y15651D01*
G37*
G36*
X11665Y15651D02*
X11804Y15787D01*
X11596Y15787D01*
X11665Y15651D01*
G37*
G36*
X11804Y15787D02*
X11487Y15896D01*
X11596Y15787D01*
X11804Y15787D01*
G37*
G36*
X11721Y16956D02*
X11487Y15896D01*
X11804Y15787D01*
X11721Y16956D01*
G37*
G36*
X11913Y15896D02*
X11721Y16956D01*
X11804Y15787D01*
X11913Y15896D01*
G37*
G36*
X11913Y15896D02*
X11800Y16944D01*
X11721Y16956D01*
X11913Y15896D01*
G37*
G36*
X11800Y16944D02*
X11913Y15896D01*
X12041Y15961D01*
X11800Y16944D01*
G37*
G36*
X12041Y15961D02*
X11879Y16956D01*
X11800Y16944D01*
X12041Y15961D01*
G37*
G36*
X11879Y16956D02*
X12041Y15961D01*
X11951Y16992D01*
X11879Y16956D01*
G37*
G36*
X11951Y16992D02*
X12041Y15961D01*
X12008Y17049D01*
X11951Y16992D01*
G37*
G36*
X12008Y17049D02*
X12041Y15961D01*
X12041Y17112D01*
X12008Y17049D01*
G37*
G36*
X12039Y17112D02*
X12008Y17049D01*
X12041Y17112D01*
X12039Y17112D01*
G37*
G36*
X11351Y15965D02*
X11487Y15896D01*
X11721Y16956D01*
X11351Y15965D01*
G37*
G36*
X11649Y16992D02*
X11351Y15965D01*
X11721Y16956D01*
X11649Y16992D01*
G37*
G36*
X11649Y16992D02*
X11200Y15989D01*
X11351Y15965D01*
X11649Y16992D01*
G37*
G36*
X11601Y17041D02*
X11200Y15989D01*
X11649Y16992D01*
X11601Y17041D01*
G37*
G36*
X11049Y15965D02*
X11200Y15989D01*
X11601Y17041D01*
X11049Y15965D01*
G37*
G36*
X11049Y15965D02*
X11601Y17041D01*
X10351Y15965D01*
X11049Y15965D01*
G37*
G36*
X11601Y17041D02*
X9466Y17041D01*
X10351Y15965D01*
X11601Y17041D01*
G37*
G36*
X9466Y17041D02*
X10200Y15989D01*
X10351Y15965D01*
X9466Y17041D01*
G37*
G36*
X10200Y15989D02*
X9466Y17041D01*
X10049Y15965D01*
X10200Y15989D01*
G37*
G36*
X9466Y17041D02*
X9359Y16934D01*
X10049Y15965D01*
X9466Y17041D01*
G37*
G36*
X10049Y15965D02*
X9359Y16934D01*
X9913Y15896D01*
X10049Y15965D01*
G37*
G36*
X9359Y16934D02*
X9487Y15896D01*
X9913Y15896D01*
X9359Y16934D01*
G37*
G36*
X9913Y15896D02*
X9487Y15896D01*
X9804Y15787D01*
X9913Y15896D01*
G37*
G36*
X9487Y15896D02*
X9596Y15787D01*
X9804Y15787D01*
X9487Y15896D01*
G37*
G36*
X9596Y15787D02*
X9665Y15651D01*
X9804Y15787D01*
X9596Y15787D01*
G37*
G36*
X9665Y15651D02*
X9735Y15651D01*
X9804Y15787D01*
X9665Y15651D01*
G37*
G36*
X9665Y15651D02*
X9689Y15500D01*
X9735Y15651D01*
X9665Y15651D01*
G37*
G36*
X9689Y15500D02*
X9711Y15500D01*
X9735Y15651D01*
X9689Y15500D01*
G37*
G36*
X9711Y15500D02*
X9689Y15500D01*
X9665Y15349D01*
X9711Y15500D01*
G37*
G36*
X9735Y15349D02*
X9711Y15500D01*
X9665Y15349D01*
X9735Y15349D01*
G37*
G36*
X9735Y15349D02*
X9665Y15349D01*
X9596Y15213D01*
X9735Y15349D01*
G37*
G36*
X9804Y15213D02*
X9735Y15349D01*
X9596Y15213D01*
X9804Y15213D01*
G37*
G36*
X9804Y15213D02*
X9596Y15213D01*
X9913Y15104D01*
X9804Y15213D01*
G37*
G36*
X9596Y15213D02*
X9487Y15104D01*
X9913Y15104D01*
X9596Y15213D01*
G37*
G36*
X9913Y15104D02*
X9487Y15104D01*
X10041Y15039D01*
X9913Y15104D01*
G37*
G36*
X9487Y15104D02*
X9351Y15035D01*
X10041Y15039D01*
X9487Y15104D01*
G37*
G36*
X9351Y15035D02*
X10041Y14000D01*
X10041Y15039D01*
X9351Y15035D01*
G37*
G36*
X9351Y15035D02*
X9200Y15011D01*
X10041Y14000D01*
X9351Y15035D01*
G37*
G36*
X9153Y13470D02*
X10041Y14000D01*
X9200Y15011D01*
X9153Y13470D01*
G37*
G36*
X9000Y13494D02*
X9153Y13470D01*
X9200Y15011D01*
X9000Y13494D01*
G37*
G36*
X9000Y13494D02*
X9200Y15011D01*
X9049Y15035D01*
X9000Y13494D01*
G37*
G36*
X9000Y13494D02*
X9049Y15035D01*
X8847Y13470D01*
X9000Y13494D01*
G37*
G36*
X8847Y13470D02*
X9049Y15035D01*
X8351Y15035D01*
X8847Y13470D01*
G37*
G36*
X8487Y15104D02*
X8351Y15035D01*
X9049Y15035D01*
X8487Y15104D01*
G37*
G36*
X8913Y15104D02*
X8487Y15104D01*
X9049Y15035D01*
X8913Y15104D01*
G37*
G36*
X8596Y15213D02*
X8487Y15104D01*
X8913Y15104D01*
X8596Y15213D01*
G37*
G36*
X8804Y15213D02*
X8596Y15213D01*
X8913Y15104D01*
X8804Y15213D01*
G37*
G36*
X8804Y15213D02*
X8735Y15349D01*
X8596Y15213D01*
X8804Y15213D01*
G37*
G36*
X8735Y15349D02*
X8665Y15349D01*
X8596Y15213D01*
X8735Y15349D01*
G37*
G36*
X8735Y15349D02*
X8711Y15500D01*
X8665Y15349D01*
X8735Y15349D01*
G37*
G36*
X8711Y15500D02*
X8689Y15500D01*
X8665Y15349D01*
X8711Y15500D01*
G37*
G36*
X8689Y15500D02*
X8711Y15500D01*
X8735Y15651D01*
X8689Y15500D01*
G37*
G36*
X8665Y15651D02*
X8689Y15500D01*
X8735Y15651D01*
X8665Y15651D01*
G37*
G36*
X8665Y15651D02*
X8735Y15651D01*
X8804Y15787D01*
X8665Y15651D01*
G37*
G36*
X8596Y15787D02*
X8665Y15651D01*
X8804Y15787D01*
X8596Y15787D01*
G37*
G36*
X8487Y15896D02*
X8596Y15787D01*
X8804Y15787D01*
X8487Y15896D01*
G37*
G36*
X8913Y15896D02*
X8487Y15896D01*
X8804Y15787D01*
X8913Y15896D01*
G37*
G36*
X8487Y15896D02*
X8913Y15896D01*
X9041Y15961D01*
X8487Y15896D01*
G37*
G36*
X9041Y15961D02*
X8359Y15961D01*
X8487Y15896D01*
X9041Y15961D01*
G37*
G36*
X9041Y17000D02*
X8359Y15961D01*
X9041Y15961D01*
X9041Y17000D01*
G37*
G36*
X9041Y17000D02*
X9046Y17041D01*
X8359Y15961D01*
X9041Y17000D01*
G37*
G36*
X9046Y17041D02*
X8359Y19534D01*
X8359Y15961D01*
X9046Y17041D01*
G37*
G36*
X9046Y17041D02*
X9062Y17079D01*
X8359Y19534D01*
X9046Y17041D01*
G37*
G36*
X8359Y19534D02*
X9062Y17079D01*
X9088Y17112D01*
X8359Y19534D01*
G37*
G36*
X8359Y19534D02*
X9088Y17112D01*
X9288Y17312D01*
X8359Y19534D01*
G37*
G36*
X8359Y19534D02*
X9288Y17312D01*
X9321Y17338D01*
X8359Y19534D01*
G37*
G36*
X8359Y19534D02*
X9321Y17338D01*
X9359Y17354D01*
X8359Y19534D01*
G37*
G36*
X8359Y19534D02*
X9359Y17354D01*
X9400Y17359D01*
X8359Y19534D01*
G37*
G36*
X9066Y20241D02*
X8359Y19534D01*
X9400Y17359D01*
X9066Y20241D01*
G37*
G36*
X9066Y20241D02*
X9400Y17359D01*
X12041Y19500D01*
X9066Y20241D01*
G37*
G36*
X12041Y19500D02*
X9400Y17359D01*
X11649Y17408D01*
X12041Y19500D01*
G37*
G36*
X9400Y17359D02*
X11601Y17359D01*
X11649Y17408D01*
X9400Y17359D01*
G37*
G36*
X11649Y17408D02*
X11721Y17444D01*
X12041Y19500D01*
X11649Y17408D01*
G37*
G36*
X11721Y17444D02*
X11800Y17456D01*
X12041Y19500D01*
X11721Y17444D01*
G37*
G36*
X11879Y17444D02*
X12041Y19500D01*
X11800Y17456D01*
X11879Y17444D01*
G37*
G36*
X11879Y17444D02*
X11951Y17408D01*
X12041Y19500D01*
X11879Y17444D01*
G37*
G36*
X11951Y17408D02*
X12008Y17351D01*
X12041Y19500D01*
X11951Y17408D01*
G37*
G36*
X12008Y17351D02*
X12041Y17288D01*
X12041Y19500D01*
X12008Y17351D01*
G37*
G36*
X12008Y17351D02*
X12039Y17288D01*
X12041Y17288D01*
X12008Y17351D01*
G37*
G36*
X9066Y20241D02*
X12041Y19500D01*
X12046Y19541D01*
X9066Y20241D01*
G37*
G36*
X9066Y20241D02*
X12046Y19541D01*
X12062Y19579D01*
X9066Y20241D01*
G37*
G36*
X9066Y20241D02*
X12062Y19579D01*
X12088Y19612D01*
X9066Y20241D01*
G37*
G36*
X9066Y20241D02*
X12088Y19612D01*
X12600Y20241D01*
X9066Y20241D01*
G37*
G36*
X12600Y20241D02*
X12088Y19612D01*
X12641Y20246D01*
X12600Y20241D01*
G37*
G36*
X12088Y19612D02*
X12679Y20262D01*
X12641Y20246D01*
X12088Y19612D01*
G37*
G36*
X12088Y19612D02*
X12712Y20288D01*
X12679Y20262D01*
X12088Y19612D01*
G37*
G36*
X12088Y19612D02*
X13341Y20866D01*
X12712Y20288D01*
X12088Y19612D01*
G37*
G36*
X13341Y20866D02*
X13212Y20788D01*
X12712Y20288D01*
X13341Y20866D01*
G37*
G36*
X13341Y20866D02*
X13238Y20821D01*
X13212Y20788D01*
X13341Y20866D01*
G37*
G36*
X13341Y20866D02*
X13254Y20859D01*
X13238Y20821D01*
X13341Y20866D01*
G37*
G36*
X13259Y20900D02*
X13254Y20859D01*
X13341Y20866D01*
X13259Y20900D01*
G37*
G36*
X13259Y22100D02*
X13259Y20900D01*
X13341Y20866D01*
X13259Y22100D01*
G37*
G36*
X13341Y22134D02*
X13259Y22100D01*
X13341Y20866D01*
X13341Y22134D01*
G37*
G36*
X13258Y22111D02*
X13259Y22100D01*
X13341Y22134D01*
X13258Y22111D01*
G37*
G36*
X13257Y22122D02*
X13258Y22111D01*
X13341Y22134D01*
X13257Y22122D01*
G37*
G36*
X13341Y22134D02*
X13255Y22132D01*
X13257Y22122D01*
X13341Y22134D01*
G37*
G36*
X13341Y22134D02*
X13254Y22141D01*
X13255Y22132D01*
X13341Y22134D01*
G37*
G36*
X13341Y22134D02*
X13249Y22152D01*
X13254Y22141D01*
X13341Y22134D01*
G37*
G36*
X13341Y22134D02*
X13246Y22162D01*
X13249Y22152D01*
X13341Y22134D01*
G37*
G36*
X13238Y22179D02*
X13246Y22162D01*
X13341Y22134D01*
X13238Y22179D01*
G37*
G36*
X13225Y22198D02*
X13238Y22179D01*
X13341Y22134D01*
X13225Y22198D01*
G37*
G36*
X13212Y22212D02*
X13225Y22198D01*
X13341Y22134D01*
X13212Y22212D01*
G37*
G36*
X13341Y22134D02*
X13195Y22227D01*
X13212Y22212D01*
X13341Y22134D01*
G37*
G36*
X13212Y22212D02*
X13195Y22227D01*
X13203Y22219D01*
X13212Y22212D01*
G37*
G36*
X13195Y22227D02*
X13341Y22134D01*
X12734Y22741D01*
X13195Y22227D01*
G37*
G36*
X12734Y22741D02*
X12795Y22527D01*
X13195Y22227D01*
X12734Y22741D01*
G37*
G36*
X12795Y22527D02*
X12734Y22741D01*
X12779Y22538D01*
X12795Y22527D01*
G37*
G36*
X12779Y22538D02*
X12734Y22741D01*
X12759Y22548D01*
X12779Y22538D01*
G37*
G36*
X12759Y22548D02*
X12734Y22741D01*
X12741Y22554D01*
X12759Y22548D01*
G37*
G36*
X12734Y22741D02*
X12719Y22558D01*
X12741Y22554D01*
X12734Y22741D01*
G37*
G36*
X12741Y22554D02*
X12719Y22558D01*
X12730Y22555D01*
X12741Y22554D01*
G37*
G36*
X12734Y22741D02*
X12700Y22559D01*
X12719Y22558D01*
X12734Y22741D01*
G37*
G36*
X12700Y22559D02*
X12709Y22558D01*
X12719Y22558D01*
X12700Y22559D01*
G37*
G36*
X4600Y22741D02*
X12700Y22559D01*
X12734Y22741D01*
X4600Y22741D01*
G37*
G36*
X4600Y22741D02*
X4166Y22559D01*
X12700Y22559D01*
X4600Y22741D01*
G37*
G36*
X4559Y22746D02*
X4166Y22559D01*
X4600Y22741D01*
X4559Y22746D01*
G37*
G36*
X4521Y22762D02*
X4166Y22559D01*
X4559Y22746D01*
X4521Y22762D01*
G37*
G36*
X4488Y22788D02*
X4166Y22559D01*
X4521Y22762D01*
X4488Y22788D01*
G37*
G36*
X4488Y22788D02*
X4059Y22666D01*
X4166Y22559D01*
X4488Y22788D01*
G37*
G36*
X4188Y23088D02*
X4059Y22666D01*
X4488Y22788D01*
X4188Y23088D01*
G37*
G36*
X4162Y23121D02*
X4059Y22666D01*
X4188Y23088D01*
X4162Y23121D01*
G37*
G36*
X4146Y23159D02*
X4059Y22666D01*
X4162Y23121D01*
X4146Y23159D01*
G37*
G36*
X4141Y23200D02*
X4059Y22666D01*
X4146Y23159D01*
X4141Y23200D01*
G37*
G36*
X4059Y24634D02*
X4059Y22666D01*
X4141Y23200D01*
X4059Y24634D01*
G37*
G36*
X4141Y24500D02*
X4059Y24634D01*
X4141Y23200D01*
X4141Y24500D01*
G37*
G36*
X4059Y24634D02*
X4141Y24500D01*
X4146Y24541D01*
X4059Y24634D01*
G37*
G36*
X4059Y24634D02*
X4146Y24541D01*
X4162Y24579D01*
X4059Y24634D01*
G37*
G36*
X4188Y24612D02*
X4059Y24634D01*
X4162Y24579D01*
X4188Y24612D01*
G37*
G36*
X4166Y24741D02*
X4059Y24634D01*
X4188Y24612D01*
X4166Y24741D01*
G37*
G36*
X4166Y24741D02*
X4188Y24612D01*
X4315Y24740D01*
X4166Y24741D01*
G37*
G36*
X4314Y24741D02*
X4166Y24741D01*
X4315Y24740D01*
X4314Y24741D01*
G37*
G36*
X12759Y22548D02*
X12741Y22554D01*
X12750Y22550D01*
X12759Y22548D01*
G37*
G36*
X12779Y22538D02*
X12759Y22548D01*
X12769Y22542D01*
X12779Y22538D01*
G37*
G36*
X12795Y22527D02*
X12779Y22538D01*
X12787Y22532D01*
X12795Y22527D01*
G37*
G36*
X13212Y22212D02*
X13218Y22205D01*
X13225Y22198D01*
X13212Y22212D01*
G37*
G36*
X13225Y22198D02*
X13231Y22188D01*
X13238Y22179D01*
X13225Y22198D01*
G37*
G36*
X13238Y22179D02*
X13241Y22171D01*
X13246Y22162D01*
X13238Y22179D01*
G37*
G36*
X8153Y13470D02*
X8847Y13470D01*
X8351Y15035D01*
X8153Y13470D01*
G37*
G36*
X8153Y13470D02*
X8351Y15035D01*
X8200Y15011D01*
X8153Y13470D01*
G37*
G36*
X8000Y13494D02*
X8153Y13470D01*
X8200Y15011D01*
X8000Y13494D01*
G37*
G36*
X8000Y13494D02*
X8200Y15011D01*
X8049Y15035D01*
X8000Y13494D01*
G37*
G36*
X8000Y13494D02*
X8049Y15035D01*
X7847Y13470D01*
X8000Y13494D01*
G37*
G36*
X7847Y13470D02*
X8049Y15035D01*
X7351Y15035D01*
X7847Y13470D01*
G37*
G36*
X7487Y15104D02*
X7351Y15035D01*
X8049Y15035D01*
X7487Y15104D01*
G37*
G36*
X7913Y15104D02*
X7487Y15104D01*
X8049Y15035D01*
X7913Y15104D01*
G37*
G36*
X7596Y15213D02*
X7487Y15104D01*
X7913Y15104D01*
X7596Y15213D01*
G37*
G36*
X7804Y15213D02*
X7596Y15213D01*
X7913Y15104D01*
X7804Y15213D01*
G37*
G36*
X7804Y15213D02*
X7735Y15349D01*
X7596Y15213D01*
X7804Y15213D01*
G37*
G36*
X7735Y15349D02*
X7665Y15349D01*
X7596Y15213D01*
X7735Y15349D01*
G37*
G36*
X7735Y15349D02*
X7711Y15500D01*
X7665Y15349D01*
X7735Y15349D01*
G37*
G36*
X7711Y15500D02*
X7689Y15500D01*
X7665Y15349D01*
X7711Y15500D01*
G37*
G36*
X7689Y15500D02*
X7711Y15500D01*
X7735Y15651D01*
X7689Y15500D01*
G37*
G36*
X7665Y15651D02*
X7689Y15500D01*
X7735Y15651D01*
X7665Y15651D01*
G37*
G36*
X7665Y15651D02*
X7735Y15651D01*
X7804Y15787D01*
X7665Y15651D01*
G37*
G36*
X7596Y15787D02*
X7665Y15651D01*
X7804Y15787D01*
X7596Y15787D01*
G37*
G36*
X7487Y15896D02*
X7596Y15787D01*
X7804Y15787D01*
X7487Y15896D01*
G37*
G36*
X7913Y15896D02*
X7487Y15896D01*
X7804Y15787D01*
X7913Y15896D01*
G37*
G36*
X7487Y15896D02*
X7913Y15896D01*
X8041Y15961D01*
X7487Y15896D01*
G37*
G36*
X8041Y15961D02*
X7359Y15961D01*
X7487Y15896D01*
X8041Y15961D01*
G37*
G36*
X7359Y19434D02*
X7359Y15961D01*
X8041Y15961D01*
X7359Y19434D01*
G37*
G36*
X7359Y19434D02*
X8041Y15961D01*
X8041Y19600D01*
X7359Y19434D01*
G37*
G36*
X7359Y19434D02*
X8041Y19600D01*
X8046Y19641D01*
X7359Y19434D01*
G37*
G36*
X7359Y19434D02*
X8046Y19641D01*
X8062Y19679D01*
X7359Y19434D01*
G37*
G36*
X7359Y19434D02*
X8062Y19679D01*
X8088Y19712D01*
X7359Y19434D01*
G37*
G36*
X8566Y20641D02*
X7359Y19434D01*
X8088Y19712D01*
X8566Y20641D01*
G37*
G36*
X8566Y20641D02*
X8088Y19712D01*
X8888Y20512D01*
X8566Y20641D01*
G37*
G36*
X8566Y20641D02*
X8888Y20512D01*
X8921Y20538D01*
X8566Y20641D01*
G37*
G36*
X8566Y20641D02*
X8921Y20538D01*
X8959Y20554D01*
X8566Y20641D01*
G37*
G36*
X8566Y20641D02*
X8959Y20554D01*
X9000Y20559D01*
X8566Y20641D01*
G37*
G36*
X8566Y20641D02*
X9000Y20559D01*
X12600Y20641D01*
X8566Y20641D01*
G37*
G36*
X9000Y20559D02*
X12534Y20559D01*
X12600Y20641D01*
X9000Y20559D01*
G37*
G36*
X12617Y20642D02*
X12600Y20641D01*
X12534Y20559D01*
X12617Y20642D01*
G37*
G36*
X12616Y20643D02*
X12600Y20641D01*
X12617Y20642D01*
X12616Y20643D01*
G37*
G36*
X7153Y13470D02*
X7847Y13470D01*
X7351Y15035D01*
X7153Y13470D01*
G37*
G36*
X7153Y13470D02*
X7351Y15035D01*
X7200Y15011D01*
X7153Y13470D01*
G37*
G36*
X7000Y13494D02*
X7153Y13470D01*
X7200Y15011D01*
X7000Y13494D01*
G37*
G36*
X7000Y13494D02*
X7200Y15011D01*
X7049Y15035D01*
X7000Y13494D01*
G37*
G36*
X7000Y13494D02*
X7049Y15035D01*
X6847Y13470D01*
X7000Y13494D01*
G37*
G36*
X7847Y13470D02*
X7153Y13470D01*
X7290Y13400D01*
X7847Y13470D01*
G37*
G36*
X7290Y13400D02*
X7710Y13400D01*
X7847Y13470D01*
X7290Y13400D01*
G37*
G36*
X7710Y13400D02*
X7290Y13400D01*
X7600Y13290D01*
X7710Y13400D01*
G37*
G36*
X7290Y13400D02*
X7400Y13290D01*
X7600Y13290D01*
X7290Y13400D01*
G37*
G36*
X7400Y13290D02*
X7470Y13153D01*
X7600Y13290D01*
X7400Y13290D01*
G37*
G36*
X7470Y13153D02*
X7530Y13153D01*
X7600Y13290D01*
X7470Y13153D01*
G37*
G36*
X7530Y13153D02*
X7470Y13153D01*
X7506Y13000D01*
X7530Y13153D01*
G37*
G36*
X7470Y13153D02*
X7494Y13000D01*
X7506Y13000D01*
X7470Y13153D01*
G37*
G36*
X7506Y13000D02*
X7494Y13000D01*
X7530Y12847D01*
X7506Y13000D01*
G37*
G36*
X7494Y13000D02*
X7470Y12847D01*
X7530Y12847D01*
X7494Y13000D01*
G37*
G36*
X7530Y12847D02*
X7470Y12847D01*
X7600Y12710D01*
X7530Y12847D01*
G37*
G36*
X7470Y12847D02*
X7400Y12710D01*
X7600Y12710D01*
X7470Y12847D01*
G37*
G36*
X7600Y12710D02*
X7400Y12710D01*
X7710Y12600D01*
X7600Y12710D01*
G37*
G36*
X7400Y12710D02*
X7290Y12600D01*
X7710Y12600D01*
X7400Y12710D01*
G37*
G36*
X7710Y12600D02*
X7290Y12600D01*
X7847Y12530D01*
X7710Y12600D01*
G37*
G36*
X7290Y12600D02*
X7153Y12530D01*
X7847Y12530D01*
X7290Y12600D01*
G37*
G36*
X7253Y11270D02*
X7847Y12530D01*
X7153Y12530D01*
X7253Y11270D01*
G37*
G36*
X7253Y11270D02*
X7153Y12530D01*
X7000Y12506D01*
X7253Y11270D01*
G37*
G36*
X7000Y12506D02*
X7100Y11294D01*
X7253Y11270D01*
X7000Y12506D01*
G37*
G36*
X7100Y11294D02*
X7000Y12506D01*
X6947Y11270D01*
X7100Y11294D01*
G37*
G36*
X6947Y11270D02*
X7000Y12506D01*
X6847Y12530D01*
X6947Y11270D01*
G37*
G36*
X6947Y11270D02*
X6847Y12530D01*
X6253Y11270D01*
X6947Y11270D01*
G37*
G36*
X6253Y11270D02*
X6390Y11200D01*
X6947Y11270D01*
X6253Y11270D01*
G37*
G36*
X6390Y11200D02*
X6810Y11200D01*
X6947Y11270D01*
X6390Y11200D01*
G37*
G36*
X6810Y11200D02*
X6390Y11200D01*
X6700Y11090D01*
X6810Y11200D01*
G37*
G36*
X6390Y11200D02*
X6500Y11090D01*
X6700Y11090D01*
X6390Y11200D01*
G37*
G36*
X6500Y11090D02*
X6570Y10953D01*
X6700Y11090D01*
X6500Y11090D01*
G37*
G36*
X6570Y10953D02*
X6630Y10953D01*
X6700Y11090D01*
X6570Y10953D01*
G37*
G36*
X6630Y10953D02*
X6570Y10953D01*
X6606Y10800D01*
X6630Y10953D01*
G37*
G36*
X6570Y10953D02*
X6594Y10800D01*
X6606Y10800D01*
X6570Y10953D01*
G37*
G36*
X6606Y10800D02*
X6594Y10800D01*
X6630Y10647D01*
X6606Y10800D01*
G37*
G36*
X6594Y10800D02*
X6570Y10647D01*
X6630Y10647D01*
X6594Y10800D01*
G37*
G36*
X6630Y10647D02*
X6570Y10647D01*
X6700Y10510D01*
X6630Y10647D01*
G37*
G36*
X6570Y10647D02*
X6500Y10510D01*
X6700Y10510D01*
X6570Y10647D01*
G37*
G36*
X6700Y10510D02*
X6500Y10510D01*
X6810Y10400D01*
X6700Y10510D01*
G37*
G36*
X6500Y10510D02*
X6390Y10400D01*
X6810Y10400D01*
X6500Y10510D01*
G37*
G36*
X6810Y10400D02*
X6390Y10400D01*
X6947Y10330D01*
X6810Y10400D01*
G37*
G36*
X6390Y10400D02*
X6253Y10330D01*
X6947Y10330D01*
X6390Y10400D01*
G37*
G36*
X6947Y10330D02*
X6253Y10330D01*
X7100Y10306D01*
X6947Y10330D01*
G37*
G36*
X6253Y10330D02*
X6100Y10306D01*
X7100Y10306D01*
X6253Y10330D01*
G37*
G36*
X10755Y8507D02*
X7100Y10306D01*
X6100Y10306D01*
X10755Y8507D01*
G37*
G36*
X10755Y8507D02*
X8100Y10306D01*
X7100Y10306D01*
X10755Y8507D01*
G37*
G36*
X7253Y10330D02*
X7100Y10306D01*
X8100Y10306D01*
X7253Y10330D01*
G37*
G36*
X7947Y10330D02*
X7253Y10330D01*
X8100Y10306D01*
X7947Y10330D01*
G37*
G36*
X7390Y10400D02*
X7253Y10330D01*
X7947Y10330D01*
X7390Y10400D01*
G37*
G36*
X7810Y10400D02*
X7390Y10400D01*
X7947Y10330D01*
X7810Y10400D01*
G37*
G36*
X7500Y10510D02*
X7390Y10400D01*
X7810Y10400D01*
X7500Y10510D01*
G37*
G36*
X7700Y10510D02*
X7500Y10510D01*
X7810Y10400D01*
X7700Y10510D01*
G37*
G36*
X7570Y10647D02*
X7500Y10510D01*
X7700Y10510D01*
X7570Y10647D01*
G37*
G36*
X7630Y10647D02*
X7570Y10647D01*
X7700Y10510D01*
X7630Y10647D01*
G37*
G36*
X7594Y10800D02*
X7570Y10647D01*
X7630Y10647D01*
X7594Y10800D01*
G37*
G36*
X7606Y10800D02*
X7594Y10800D01*
X7630Y10647D01*
X7606Y10800D01*
G37*
G36*
X7570Y10953D02*
X7594Y10800D01*
X7606Y10800D01*
X7570Y10953D01*
G37*
G36*
X7630Y10953D02*
X7570Y10953D01*
X7606Y10800D01*
X7630Y10953D01*
G37*
G36*
X7570Y10953D02*
X7630Y10953D01*
X7700Y11090D01*
X7570Y10953D01*
G37*
G36*
X7500Y11090D02*
X7570Y10953D01*
X7700Y11090D01*
X7500Y11090D01*
G37*
G36*
X7390Y11200D02*
X7500Y11090D01*
X7700Y11090D01*
X7390Y11200D01*
G37*
G36*
X7810Y11200D02*
X7390Y11200D01*
X7700Y11090D01*
X7810Y11200D01*
G37*
G36*
X7390Y11200D02*
X7810Y11200D01*
X7947Y11270D01*
X7390Y11200D01*
G37*
G36*
X7253Y11270D02*
X7390Y11200D01*
X7947Y11270D01*
X7253Y11270D01*
G37*
G36*
X7947Y11270D02*
X7847Y12530D01*
X7253Y11270D01*
X7947Y11270D01*
G37*
G36*
X7947Y11270D02*
X8000Y12506D01*
X7847Y12530D01*
X7947Y11270D01*
G37*
G36*
X8100Y11294D02*
X8000Y12506D01*
X7947Y11270D01*
X8100Y11294D01*
G37*
G36*
X8000Y12506D02*
X8100Y11294D01*
X8253Y11270D01*
X8000Y12506D01*
G37*
G36*
X8253Y11270D02*
X8153Y12530D01*
X8000Y12506D01*
X8253Y11270D01*
G37*
G36*
X8253Y11270D02*
X8847Y12530D01*
X8153Y12530D01*
X8253Y11270D01*
G37*
G36*
X8290Y12600D02*
X8153Y12530D01*
X8847Y12530D01*
X8290Y12600D01*
G37*
G36*
X8710Y12600D02*
X8290Y12600D01*
X8847Y12530D01*
X8710Y12600D01*
G37*
G36*
X8400Y12710D02*
X8290Y12600D01*
X8710Y12600D01*
X8400Y12710D01*
G37*
G36*
X8600Y12710D02*
X8400Y12710D01*
X8710Y12600D01*
X8600Y12710D01*
G37*
G36*
X8470Y12847D02*
X8400Y12710D01*
X8600Y12710D01*
X8470Y12847D01*
G37*
G36*
X8530Y12847D02*
X8470Y12847D01*
X8600Y12710D01*
X8530Y12847D01*
G37*
G36*
X8494Y13000D02*
X8470Y12847D01*
X8530Y12847D01*
X8494Y13000D01*
G37*
G36*
X8506Y13000D02*
X8494Y13000D01*
X8530Y12847D01*
X8506Y13000D01*
G37*
G36*
X8470Y13153D02*
X8494Y13000D01*
X8506Y13000D01*
X8470Y13153D01*
G37*
G36*
X8530Y13153D02*
X8470Y13153D01*
X8506Y13000D01*
X8530Y13153D01*
G37*
G36*
X8470Y13153D02*
X8530Y13153D01*
X8600Y13290D01*
X8470Y13153D01*
G37*
G36*
X8400Y13290D02*
X8470Y13153D01*
X8600Y13290D01*
X8400Y13290D01*
G37*
G36*
X8290Y13400D02*
X8400Y13290D01*
X8600Y13290D01*
X8290Y13400D01*
G37*
G36*
X8710Y13400D02*
X8290Y13400D01*
X8600Y13290D01*
X8710Y13400D01*
G37*
G36*
X8290Y13400D02*
X8710Y13400D01*
X8847Y13470D01*
X8290Y13400D01*
G37*
G36*
X8847Y13470D02*
X8153Y13470D01*
X8290Y13400D01*
X8847Y13470D01*
G37*
G36*
X8947Y11270D02*
X8847Y12530D01*
X8253Y11270D01*
X8947Y11270D01*
G37*
G36*
X8253Y11270D02*
X8390Y11200D01*
X8947Y11270D01*
X8253Y11270D01*
G37*
G36*
X8390Y11200D02*
X8810Y11200D01*
X8947Y11270D01*
X8390Y11200D01*
G37*
G36*
X8810Y11200D02*
X8390Y11200D01*
X8700Y11090D01*
X8810Y11200D01*
G37*
G36*
X8390Y11200D02*
X8500Y11090D01*
X8700Y11090D01*
X8390Y11200D01*
G37*
G36*
X8500Y11090D02*
X8570Y10953D01*
X8700Y11090D01*
X8500Y11090D01*
G37*
G36*
X8570Y10953D02*
X8630Y10953D01*
X8700Y11090D01*
X8570Y10953D01*
G37*
G36*
X8630Y10953D02*
X8570Y10953D01*
X8606Y10800D01*
X8630Y10953D01*
G37*
G36*
X8570Y10953D02*
X8594Y10800D01*
X8606Y10800D01*
X8570Y10953D01*
G37*
G36*
X8606Y10800D02*
X8594Y10800D01*
X8630Y10647D01*
X8606Y10800D01*
G37*
G36*
X8594Y10800D02*
X8570Y10647D01*
X8630Y10647D01*
X8594Y10800D01*
G37*
G36*
X8630Y10647D02*
X8570Y10647D01*
X8700Y10510D01*
X8630Y10647D01*
G37*
G36*
X8570Y10647D02*
X8500Y10510D01*
X8700Y10510D01*
X8570Y10647D01*
G37*
G36*
X8700Y10510D02*
X8500Y10510D01*
X8810Y10400D01*
X8700Y10510D01*
G37*
G36*
X8500Y10510D02*
X8390Y10400D01*
X8810Y10400D01*
X8500Y10510D01*
G37*
G36*
X8810Y10400D02*
X8390Y10400D01*
X8947Y10330D01*
X8810Y10400D01*
G37*
G36*
X8390Y10400D02*
X8253Y10330D01*
X8947Y10330D01*
X8390Y10400D01*
G37*
G36*
X10755Y8507D02*
X8947Y10330D01*
X8253Y10330D01*
X10755Y8507D01*
G37*
G36*
X8100Y10306D02*
X10755Y8507D01*
X8253Y10330D01*
X8100Y10306D01*
G37*
G36*
X9100Y10306D02*
X8947Y10330D01*
X10755Y8507D01*
X9100Y10306D01*
G37*
G36*
X10896Y8784D02*
X9100Y10306D01*
X10755Y8507D01*
X10896Y8784D01*
G37*
G36*
X10896Y8784D02*
X10895Y9915D01*
X9100Y10306D01*
X10896Y8784D01*
G37*
G36*
X9100Y10306D02*
X10895Y9915D01*
X9253Y10330D01*
X9100Y10306D01*
G37*
G36*
X10895Y9915D02*
X9390Y10400D01*
X9253Y10330D01*
X10895Y9915D01*
G37*
G36*
X10754Y10193D02*
X9390Y10400D01*
X10895Y9915D01*
X10754Y10193D01*
G37*
G36*
X10754Y10193D02*
X9500Y10510D01*
X9390Y10400D01*
X10754Y10193D01*
G37*
G36*
X10705Y10500D02*
X9500Y10510D01*
X10754Y10193D01*
X10705Y10500D01*
G37*
G36*
X9570Y10647D02*
X9500Y10510D01*
X10705Y10500D01*
X9570Y10647D01*
G37*
G36*
X9594Y10800D02*
X9570Y10647D01*
X10705Y10500D01*
X9594Y10800D01*
G37*
G36*
X9594Y10800D02*
X10705Y10500D01*
X10754Y10807D01*
X9594Y10800D01*
G37*
G36*
X10754Y10807D02*
X9570Y10953D01*
X9594Y10800D01*
X10754Y10807D01*
G37*
G36*
X9570Y10953D02*
X10754Y10807D01*
X10895Y11085D01*
X9570Y10953D01*
G37*
G36*
X10895Y11085D02*
X9500Y11090D01*
X9570Y10953D01*
X10895Y11085D01*
G37*
G36*
X10000Y12506D02*
X9500Y11090D01*
X10895Y11085D01*
X10000Y12506D01*
G37*
G36*
X10153Y12530D02*
X10000Y12506D01*
X10895Y11085D01*
X10153Y12530D01*
G37*
G36*
X10895Y11085D02*
X11115Y11305D01*
X10153Y12530D01*
X10895Y11085D01*
G37*
G36*
X11115Y11305D02*
X10847Y12530D01*
X10153Y12530D01*
X11115Y11305D01*
G37*
G36*
X10290Y12600D02*
X10153Y12530D01*
X10847Y12530D01*
X10290Y12600D01*
G37*
G36*
X10710Y12600D02*
X10290Y12600D01*
X10847Y12530D01*
X10710Y12600D01*
G37*
G36*
X10400Y12710D02*
X10290Y12600D01*
X10710Y12600D01*
X10400Y12710D01*
G37*
G36*
X10600Y12710D02*
X10400Y12710D01*
X10710Y12600D01*
X10600Y12710D01*
G37*
G36*
X10470Y12847D02*
X10400Y12710D01*
X10600Y12710D01*
X10470Y12847D01*
G37*
G36*
X10530Y12847D02*
X10470Y12847D01*
X10600Y12710D01*
X10530Y12847D01*
G37*
G36*
X10494Y13000D02*
X10470Y12847D01*
X10530Y12847D01*
X10494Y13000D01*
G37*
G36*
X10506Y13000D02*
X10494Y13000D01*
X10530Y12847D01*
X10506Y13000D01*
G37*
G36*
X10470Y13153D02*
X10494Y13000D01*
X10506Y13000D01*
X10470Y13153D01*
G37*
G36*
X10530Y13153D02*
X10470Y13153D01*
X10506Y13000D01*
X10530Y13153D01*
G37*
G36*
X10470Y13153D02*
X10530Y13153D01*
X10600Y13290D01*
X10470Y13153D01*
G37*
G36*
X10470Y13153D02*
X10600Y13290D01*
X10400Y13290D01*
X10470Y13153D01*
G37*
G36*
X10521Y13462D02*
X10400Y13290D01*
X10600Y13290D01*
X10521Y13462D01*
G37*
G36*
X10559Y13446D02*
X10521Y13462D01*
X10600Y13290D01*
X10559Y13446D01*
G37*
G36*
X10600Y13441D02*
X10559Y13446D01*
X10600Y13290D01*
X10600Y13441D01*
G37*
G36*
X10600Y13441D02*
X10600Y13290D01*
X10710Y13400D01*
X10600Y13441D01*
G37*
G36*
X10600Y13441D02*
X10710Y13400D01*
X10787Y13441D01*
X10600Y13441D01*
G37*
G36*
X10787Y13441D02*
X10710Y13400D01*
X10788Y13439D01*
X10787Y13441D01*
G37*
G36*
X10521Y13462D02*
X10488Y13488D01*
X10400Y13290D01*
X10521Y13462D01*
G37*
G36*
X10488Y13488D02*
X10290Y13400D01*
X10400Y13290D01*
X10488Y13488D01*
G37*
G36*
X10153Y13470D02*
X10290Y13400D01*
X10488Y13488D01*
X10153Y13470D01*
G37*
G36*
X10088Y13888D02*
X10153Y13470D01*
X10488Y13488D01*
X10088Y13888D01*
G37*
G36*
X10088Y13888D02*
X10000Y13494D01*
X10153Y13470D01*
X10088Y13888D01*
G37*
G36*
X10088Y13888D02*
X9847Y13470D01*
X10000Y13494D01*
X10088Y13888D01*
G37*
G36*
X10088Y13888D02*
X10062Y13921D01*
X9847Y13470D01*
X10088Y13888D01*
G37*
G36*
X10062Y13921D02*
X10046Y13959D01*
X9847Y13470D01*
X10062Y13921D01*
G37*
G36*
X10046Y13959D02*
X10041Y14000D01*
X9847Y13470D01*
X10046Y13959D01*
G37*
G36*
X10041Y14000D02*
X9710Y13400D01*
X9847Y13470D01*
X10041Y14000D01*
G37*
G36*
X10041Y14000D02*
X9290Y13400D01*
X9710Y13400D01*
X10041Y14000D01*
G37*
G36*
X9710Y13400D02*
X9290Y13400D01*
X9600Y13290D01*
X9710Y13400D01*
G37*
G36*
X9290Y13400D02*
X9400Y13290D01*
X9600Y13290D01*
X9290Y13400D01*
G37*
G36*
X9400Y13290D02*
X9470Y13153D01*
X9600Y13290D01*
X9400Y13290D01*
G37*
G36*
X9470Y13153D02*
X9530Y13153D01*
X9600Y13290D01*
X9470Y13153D01*
G37*
G36*
X9530Y13153D02*
X9470Y13153D01*
X9506Y13000D01*
X9530Y13153D01*
G37*
G36*
X9470Y13153D02*
X9494Y13000D01*
X9506Y13000D01*
X9470Y13153D01*
G37*
G36*
X9506Y13000D02*
X9494Y13000D01*
X9530Y12847D01*
X9506Y13000D01*
G37*
G36*
X9494Y13000D02*
X9470Y12847D01*
X9530Y12847D01*
X9494Y13000D01*
G37*
G36*
X9530Y12847D02*
X9470Y12847D01*
X9600Y12710D01*
X9530Y12847D01*
G37*
G36*
X9470Y12847D02*
X9400Y12710D01*
X9600Y12710D01*
X9470Y12847D01*
G37*
G36*
X9600Y12710D02*
X9400Y12710D01*
X9710Y12600D01*
X9600Y12710D01*
G37*
G36*
X9400Y12710D02*
X9290Y12600D01*
X9710Y12600D01*
X9400Y12710D01*
G37*
G36*
X9710Y12600D02*
X9290Y12600D01*
X9847Y12530D01*
X9710Y12600D01*
G37*
G36*
X9290Y12600D02*
X9153Y12530D01*
X9847Y12530D01*
X9290Y12600D01*
G37*
G36*
X9253Y11270D02*
X9847Y12530D01*
X9153Y12530D01*
X9253Y11270D01*
G37*
G36*
X9100Y11294D02*
X9253Y11270D01*
X9153Y12530D01*
X9100Y11294D01*
G37*
G36*
X9153Y12530D02*
X9000Y12506D01*
X9100Y11294D01*
X9153Y12530D01*
G37*
G36*
X9100Y11294D02*
X9000Y12506D01*
X8947Y11270D01*
X9100Y11294D01*
G37*
G36*
X8947Y11270D02*
X9000Y12506D01*
X8847Y12530D01*
X8947Y11270D01*
G37*
G36*
X9847Y12530D02*
X9253Y11270D01*
X9390Y11200D01*
X9847Y12530D01*
G37*
G36*
X9390Y11200D02*
X10000Y12506D01*
X9847Y12530D01*
X9390Y11200D01*
G37*
G36*
X9390Y11200D02*
X9500Y11090D01*
X10000Y12506D01*
X9390Y11200D01*
G37*
G36*
X9290Y13400D02*
X10041Y14000D01*
X9153Y13470D01*
X9290Y13400D01*
G37*
G36*
X11000Y12506D02*
X10847Y12530D01*
X11115Y11305D01*
X11000Y12506D01*
G37*
G36*
X11000Y12506D02*
X11115Y11305D01*
X11393Y11446D01*
X11000Y12506D01*
G37*
G36*
X11153Y12530D02*
X11000Y12506D01*
X11393Y11446D01*
X11153Y12530D01*
G37*
G36*
X11700Y11495D02*
X11153Y12530D01*
X11393Y11446D01*
X11700Y11495D01*
G37*
G36*
X11153Y12530D02*
X11700Y11495D01*
X11290Y12600D01*
X11153Y12530D01*
G37*
G36*
X11700Y11495D02*
X11710Y12600D01*
X11290Y12600D01*
X11700Y11495D01*
G37*
G36*
X11400Y12710D02*
X11290Y12600D01*
X11710Y12600D01*
X11400Y12710D01*
G37*
G36*
X11600Y12710D02*
X11400Y12710D01*
X11710Y12600D01*
X11600Y12710D01*
G37*
G36*
X11470Y12847D02*
X11400Y12710D01*
X11600Y12710D01*
X11470Y12847D01*
G37*
G36*
X11530Y12847D02*
X11470Y12847D01*
X11600Y12710D01*
X11530Y12847D01*
G37*
G36*
X11494Y13000D02*
X11470Y12847D01*
X11530Y12847D01*
X11494Y13000D01*
G37*
G36*
X11506Y13000D02*
X11494Y13000D01*
X11530Y12847D01*
X11506Y13000D01*
G37*
G36*
X11470Y13153D02*
X11494Y13000D01*
X11506Y13000D01*
X11470Y13153D01*
G37*
G36*
X11530Y13153D02*
X11470Y13153D01*
X11506Y13000D01*
X11530Y13153D01*
G37*
G36*
X11470Y13153D02*
X11530Y13153D01*
X11600Y13290D01*
X11470Y13153D01*
G37*
G36*
X11400Y13290D02*
X11470Y13153D01*
X11600Y13290D01*
X11400Y13290D01*
G37*
G36*
X11600Y13290D02*
X11710Y13400D01*
X11400Y13290D01*
X11600Y13290D01*
G37*
G36*
X11710Y13400D02*
X11290Y13400D01*
X11400Y13290D01*
X11710Y13400D01*
G37*
G36*
X11710Y13400D02*
X11213Y13441D01*
X11290Y13400D01*
X11710Y13400D01*
G37*
G36*
X11213Y13441D02*
X11212Y13439D01*
X11290Y13400D01*
X11213Y13441D01*
G37*
G36*
X11213Y13441D02*
X11710Y13400D01*
X11787Y13441D01*
X11213Y13441D01*
G37*
G36*
X11787Y13441D02*
X11710Y13400D01*
X11788Y13439D01*
X11787Y13441D01*
G37*
G36*
X11847Y12530D02*
X11710Y12600D01*
X11700Y11495D01*
X11847Y12530D01*
G37*
G36*
X12000Y12506D02*
X11847Y12530D01*
X11700Y11495D01*
X12000Y12506D01*
G37*
G36*
X12000Y12506D02*
X11700Y11495D01*
X12007Y11446D01*
X12000Y12506D01*
G37*
G36*
X12153Y12530D02*
X12000Y12506D01*
X12007Y11446D01*
X12153Y12530D01*
G37*
G36*
X12007Y11446D02*
X12285Y11305D01*
X12153Y12530D01*
X12007Y11446D01*
G37*
G36*
X12285Y11305D02*
X12847Y12530D01*
X12153Y12530D01*
X12285Y11305D01*
G37*
G36*
X12290Y12600D02*
X12153Y12530D01*
X12847Y12530D01*
X12290Y12600D01*
G37*
G36*
X12710Y12600D02*
X12290Y12600D01*
X12847Y12530D01*
X12710Y12600D01*
G37*
G36*
X12400Y12710D02*
X12290Y12600D01*
X12710Y12600D01*
X12400Y12710D01*
G37*
G36*
X12600Y12710D02*
X12400Y12710D01*
X12710Y12600D01*
X12600Y12710D01*
G37*
G36*
X12470Y12847D02*
X12400Y12710D01*
X12600Y12710D01*
X12470Y12847D01*
G37*
G36*
X12530Y12847D02*
X12470Y12847D01*
X12600Y12710D01*
X12530Y12847D01*
G37*
G36*
X12494Y13000D02*
X12470Y12847D01*
X12530Y12847D01*
X12494Y13000D01*
G37*
G36*
X12506Y13000D02*
X12494Y13000D01*
X12530Y12847D01*
X12506Y13000D01*
G37*
G36*
X12470Y13153D02*
X12494Y13000D01*
X12506Y13000D01*
X12470Y13153D01*
G37*
G36*
X12530Y13153D02*
X12470Y13153D01*
X12506Y13000D01*
X12530Y13153D01*
G37*
G36*
X12470Y13153D02*
X12530Y13153D01*
X12600Y13290D01*
X12470Y13153D01*
G37*
G36*
X12400Y13290D02*
X12470Y13153D01*
X12600Y13290D01*
X12400Y13290D01*
G37*
G36*
X12600Y13290D02*
X12710Y13400D01*
X12400Y13290D01*
X12600Y13290D01*
G37*
G36*
X12710Y13400D02*
X12290Y13400D01*
X12400Y13290D01*
X12710Y13400D01*
G37*
G36*
X12710Y13400D02*
X12213Y13441D01*
X12290Y13400D01*
X12710Y13400D01*
G37*
G36*
X12213Y13441D02*
X12212Y13439D01*
X12290Y13400D01*
X12213Y13441D01*
G37*
G36*
X12213Y13441D02*
X12710Y13400D01*
X12787Y13441D01*
X12213Y13441D01*
G37*
G36*
X12787Y13441D02*
X12710Y13400D01*
X12788Y13439D01*
X12787Y13441D01*
G37*
G36*
X13000Y12506D02*
X12847Y12530D01*
X12285Y11305D01*
X13000Y12506D01*
G37*
G36*
X12285Y11305D02*
X12505Y11085D01*
X13000Y12506D01*
X12285Y11305D01*
G37*
G36*
X13153Y12530D02*
X13000Y12506D01*
X12505Y11085D01*
X13153Y12530D01*
G37*
G36*
X12505Y11085D02*
X13847Y12530D01*
X13153Y12530D01*
X12505Y11085D01*
G37*
G36*
X13290Y12600D02*
X13153Y12530D01*
X13847Y12530D01*
X13290Y12600D01*
G37*
G36*
X13710Y12600D02*
X13290Y12600D01*
X13847Y12530D01*
X13710Y12600D01*
G37*
G36*
X13400Y12710D02*
X13290Y12600D01*
X13710Y12600D01*
X13400Y12710D01*
G37*
G36*
X13600Y12710D02*
X13400Y12710D01*
X13710Y12600D01*
X13600Y12710D01*
G37*
G36*
X13470Y12847D02*
X13400Y12710D01*
X13600Y12710D01*
X13470Y12847D01*
G37*
G36*
X13530Y12847D02*
X13470Y12847D01*
X13600Y12710D01*
X13530Y12847D01*
G37*
G36*
X13494Y13000D02*
X13470Y12847D01*
X13530Y12847D01*
X13494Y13000D01*
G37*
G36*
X13506Y13000D02*
X13494Y13000D01*
X13530Y12847D01*
X13506Y13000D01*
G37*
G36*
X13470Y13153D02*
X13494Y13000D01*
X13506Y13000D01*
X13470Y13153D01*
G37*
G36*
X13530Y13153D02*
X13470Y13153D01*
X13506Y13000D01*
X13530Y13153D01*
G37*
G36*
X13470Y13153D02*
X13530Y13153D01*
X13600Y13290D01*
X13470Y13153D01*
G37*
G36*
X13400Y13290D02*
X13470Y13153D01*
X13600Y13290D01*
X13400Y13290D01*
G37*
G36*
X13600Y13290D02*
X13710Y13400D01*
X13400Y13290D01*
X13600Y13290D01*
G37*
G36*
X13710Y13400D02*
X13290Y13400D01*
X13400Y13290D01*
X13710Y13400D01*
G37*
G36*
X13710Y13400D02*
X13213Y13441D01*
X13290Y13400D01*
X13710Y13400D01*
G37*
G36*
X13213Y13441D02*
X13212Y13439D01*
X13290Y13400D01*
X13213Y13441D01*
G37*
G36*
X13213Y13441D02*
X13710Y13400D01*
X13787Y13441D01*
X13213Y13441D01*
G37*
G36*
X13787Y13441D02*
X13710Y13400D01*
X13788Y13439D01*
X13787Y13441D01*
G37*
G36*
X12646Y10807D02*
X13847Y12530D01*
X12505Y11085D01*
X12646Y10807D01*
G37*
G36*
X12646Y10807D02*
X14000Y12506D01*
X13847Y12530D01*
X12646Y10807D01*
G37*
G36*
X12695Y10500D02*
X14000Y12506D01*
X12646Y10807D01*
X12695Y10500D01*
G37*
G36*
X12695Y10500D02*
X14153Y12530D01*
X14000Y12506D01*
X12695Y10500D01*
G37*
G36*
X12695Y10500D02*
X14847Y12530D01*
X14153Y12530D01*
X12695Y10500D01*
G37*
G36*
X14290Y12600D02*
X14153Y12530D01*
X14847Y12530D01*
X14290Y12600D01*
G37*
G36*
X14710Y12600D02*
X14290Y12600D01*
X14847Y12530D01*
X14710Y12600D01*
G37*
G36*
X14400Y12710D02*
X14290Y12600D01*
X14710Y12600D01*
X14400Y12710D01*
G37*
G36*
X14600Y12710D02*
X14400Y12710D01*
X14710Y12600D01*
X14600Y12710D01*
G37*
G36*
X14470Y12847D02*
X14400Y12710D01*
X14600Y12710D01*
X14470Y12847D01*
G37*
G36*
X14530Y12847D02*
X14470Y12847D01*
X14600Y12710D01*
X14530Y12847D01*
G37*
G36*
X14494Y13000D02*
X14470Y12847D01*
X14530Y12847D01*
X14494Y13000D01*
G37*
G36*
X14506Y13000D02*
X14494Y13000D01*
X14530Y12847D01*
X14506Y13000D01*
G37*
G36*
X14470Y13153D02*
X14494Y13000D01*
X14506Y13000D01*
X14470Y13153D01*
G37*
G36*
X14530Y13153D02*
X14470Y13153D01*
X14506Y13000D01*
X14530Y13153D01*
G37*
G36*
X14470Y13153D02*
X14530Y13153D01*
X14600Y13290D01*
X14470Y13153D01*
G37*
G36*
X14400Y13290D02*
X14470Y13153D01*
X14600Y13290D01*
X14400Y13290D01*
G37*
G36*
X14600Y13290D02*
X14710Y13400D01*
X14400Y13290D01*
X14600Y13290D01*
G37*
G36*
X14710Y13400D02*
X14290Y13400D01*
X14400Y13290D01*
X14710Y13400D01*
G37*
G36*
X14710Y13400D02*
X14213Y13441D01*
X14290Y13400D01*
X14710Y13400D01*
G37*
G36*
X14213Y13441D02*
X14212Y13439D01*
X14290Y13400D01*
X14213Y13441D01*
G37*
G36*
X14213Y13441D02*
X14710Y13400D01*
X14787Y13441D01*
X14213Y13441D01*
G37*
G36*
X14787Y13441D02*
X14710Y13400D01*
X14788Y13439D01*
X14787Y13441D01*
G37*
G36*
X15000Y12506D02*
X14847Y12530D01*
X12695Y10500D01*
X15000Y12506D01*
G37*
G36*
X15000Y12506D02*
X12695Y10500D01*
X13120Y9320D01*
X15000Y12506D01*
G37*
G36*
X12695Y10500D02*
X12646Y10193D01*
X13120Y9320D01*
X12695Y10500D01*
G37*
G36*
X12646Y10193D02*
X12512Y9929D01*
X13120Y9320D01*
X12646Y10193D01*
G37*
G36*
X15000Y12506D02*
X13120Y9320D01*
X13147Y9285D01*
X15000Y12506D01*
G37*
G36*
X13164Y9244D02*
X15000Y12506D01*
X13147Y9285D01*
X13164Y9244D01*
G37*
G36*
X15000Y12506D02*
X13164Y9244D01*
X15153Y12530D01*
X15000Y12506D01*
G37*
G36*
X13164Y9244D02*
X15847Y12530D01*
X15153Y12530D01*
X13164Y9244D01*
G37*
G36*
X15290Y12600D02*
X15153Y12530D01*
X15847Y12530D01*
X15290Y12600D01*
G37*
G36*
X15710Y12600D02*
X15290Y12600D01*
X15847Y12530D01*
X15710Y12600D01*
G37*
G36*
X15400Y12710D02*
X15290Y12600D01*
X15710Y12600D01*
X15400Y12710D01*
G37*
G36*
X15600Y12710D02*
X15400Y12710D01*
X15710Y12600D01*
X15600Y12710D01*
G37*
G36*
X15470Y12847D02*
X15400Y12710D01*
X15600Y12710D01*
X15470Y12847D01*
G37*
G36*
X15530Y12847D02*
X15470Y12847D01*
X15600Y12710D01*
X15530Y12847D01*
G37*
G36*
X15494Y13000D02*
X15470Y12847D01*
X15530Y12847D01*
X15494Y13000D01*
G37*
G36*
X15506Y13000D02*
X15494Y13000D01*
X15530Y12847D01*
X15506Y13000D01*
G37*
G36*
X15470Y13153D02*
X15494Y13000D01*
X15506Y13000D01*
X15470Y13153D01*
G37*
G36*
X15530Y13153D02*
X15470Y13153D01*
X15506Y13000D01*
X15530Y13153D01*
G37*
G36*
X15470Y13153D02*
X15530Y13153D01*
X15600Y13290D01*
X15470Y13153D01*
G37*
G36*
X15400Y13290D02*
X15470Y13153D01*
X15600Y13290D01*
X15400Y13290D01*
G37*
G36*
X15600Y13290D02*
X15710Y13400D01*
X15400Y13290D01*
X15600Y13290D01*
G37*
G36*
X15710Y13400D02*
X15290Y13400D01*
X15400Y13290D01*
X15710Y13400D01*
G37*
G36*
X15710Y13400D02*
X15213Y13441D01*
X15290Y13400D01*
X15710Y13400D01*
G37*
G36*
X15213Y13441D02*
X15212Y13439D01*
X15290Y13400D01*
X15213Y13441D01*
G37*
G36*
X15213Y13441D02*
X15710Y13400D01*
X15787Y13441D01*
X15213Y13441D01*
G37*
G36*
X15787Y13441D02*
X15710Y13400D01*
X15788Y13439D01*
X15787Y13441D01*
G37*
G36*
X16000Y12506D02*
X15847Y12530D01*
X13164Y9244D01*
X16000Y12506D01*
G37*
G36*
X16500Y6970D02*
X16000Y12506D01*
X13164Y9244D01*
X16500Y6970D01*
G37*
G36*
X16500Y6970D02*
X13164Y9244D01*
X13170Y9200D01*
X16500Y6970D01*
G37*
G36*
X16500Y6970D02*
X13170Y9200D01*
X13270Y6970D01*
X16500Y6970D01*
G37*
G36*
X13170Y9200D02*
X13170Y7070D01*
X13270Y6970D01*
X13170Y9200D01*
G37*
G36*
X16000Y12506D02*
X16500Y6970D01*
X17000Y12506D01*
X16000Y12506D01*
G37*
G36*
X16500Y6970D02*
X16544Y6964D01*
X17000Y12506D01*
X16500Y6970D01*
G37*
G36*
X17000Y12506D02*
X16544Y6964D01*
X18000Y12506D01*
X17000Y12506D01*
G37*
G36*
X18000Y12506D02*
X16544Y6964D01*
X16585Y6947D01*
X18000Y12506D01*
G37*
G36*
X16620Y6920D02*
X18000Y12506D01*
X16585Y6947D01*
X16620Y6920D01*
G37*
G36*
X18000Y12506D02*
X16620Y6920D01*
X19000Y12506D01*
X18000Y12506D01*
G37*
G36*
X19000Y12506D02*
X16620Y6920D01*
X16820Y6720D01*
X19000Y12506D01*
G37*
G36*
X19153Y12530D02*
X19000Y12506D01*
X16820Y6720D01*
X19153Y12530D01*
G37*
G36*
X19153Y12530D02*
X16820Y6720D01*
X19290Y12600D01*
X19153Y12530D01*
G37*
G36*
X19290Y12600D02*
X16820Y6720D01*
X20741Y13234D01*
X19290Y12600D01*
G37*
G36*
X16847Y6685D02*
X20741Y13234D01*
X16820Y6720D01*
X16847Y6685D01*
G37*
G36*
X16847Y6685D02*
X20406Y3894D01*
X20741Y13234D01*
X16847Y6685D01*
G37*
G36*
X20741Y3894D02*
X20741Y13234D01*
X20406Y3894D01*
X20741Y3894D01*
G37*
G36*
X20406Y3894D02*
X16847Y6685D01*
X16864Y6644D01*
X20406Y3894D01*
G37*
G36*
X20406Y3894D02*
X16864Y6644D01*
X16870Y6600D01*
X20406Y3894D01*
G37*
G36*
X16870Y6600D02*
X16920Y6320D01*
X20406Y3894D01*
X16870Y6600D01*
G37*
G36*
X16920Y6320D02*
X16920Y5680D01*
X20406Y3894D01*
X16920Y6320D01*
G37*
G36*
X20406Y3894D02*
X16920Y5680D01*
X18200Y1970D01*
X20406Y3894D01*
G37*
G36*
X16870Y2170D02*
X18200Y1970D01*
X16920Y5680D01*
X16870Y2170D01*
G37*
G36*
X16920Y5680D02*
X16870Y5680D01*
X16870Y2170D01*
X16920Y5680D01*
G37*
G36*
X18200Y1970D02*
X16870Y2170D01*
X17070Y1970D01*
X18200Y1970D01*
G37*
G36*
X18200Y1970D02*
X18244Y1964D01*
X20406Y3894D01*
X18200Y1970D01*
G37*
G36*
X18244Y1964D02*
X18285Y1947D01*
X20406Y3894D01*
X18244Y1964D01*
G37*
G36*
X20406Y3894D02*
X18285Y1947D01*
X20406Y2906D01*
X20406Y3894D01*
G37*
G36*
X20406Y2906D02*
X18285Y1947D01*
X18320Y1920D01*
X20406Y2906D01*
G37*
G36*
X20406Y2906D02*
X18320Y1920D01*
X18520Y1720D01*
X20406Y2906D01*
G37*
G36*
X18520Y1720D02*
X18547Y1685D01*
X20406Y2906D01*
X18520Y1720D01*
G37*
G36*
X18547Y1685D02*
X18564Y1644D01*
X20406Y2906D01*
X18547Y1685D01*
G37*
G36*
X20406Y2906D02*
X18564Y1644D01*
X18800Y1091D01*
X20406Y2906D01*
G37*
G36*
X18800Y1091D02*
X18564Y1644D01*
X18570Y1600D01*
X18800Y1091D01*
G37*
G36*
X18570Y1600D02*
X18691Y1200D01*
X18800Y1091D01*
X18570Y1600D01*
G37*
G36*
X18570Y1600D02*
X18570Y1262D01*
X18691Y1200D01*
X18570Y1600D01*
G37*
G36*
X18800Y1091D02*
X18871Y953D01*
X20406Y2906D01*
X18800Y1091D01*
G37*
G36*
X18871Y953D02*
X18895Y800D01*
X20406Y2906D01*
X18871Y953D01*
G37*
G36*
X21394Y2906D02*
X20406Y2906D01*
X18895Y800D01*
X21394Y2906D01*
G37*
G36*
X21394Y2906D02*
X18895Y800D01*
X18871Y647D01*
X21394Y2906D01*
G37*
G36*
X18871Y647D02*
X24455Y245D01*
X21394Y2906D01*
X18871Y647D01*
G37*
G36*
X24455Y245D02*
X22747Y2930D01*
X21394Y2906D01*
X24455Y245D01*
G37*
G36*
X22610Y3000D02*
X21394Y2906D01*
X22747Y2930D01*
X22610Y3000D01*
G37*
G36*
X22500Y3110D02*
X21394Y2906D01*
X22610Y3000D01*
X22500Y3110D01*
G37*
G36*
X22430Y3247D02*
X21394Y2906D01*
X22500Y3110D01*
X22430Y3247D01*
G37*
G36*
X22406Y3400D02*
X21394Y2906D01*
X22430Y3247D01*
X22406Y3400D01*
G37*
G36*
X22406Y3400D02*
X21394Y3894D01*
X21394Y2906D01*
X22406Y3400D01*
G37*
G36*
X22430Y3553D02*
X21394Y3894D01*
X22406Y3400D01*
X22430Y3553D01*
G37*
G36*
X22500Y3690D02*
X21394Y3894D01*
X22430Y3553D01*
X22500Y3690D01*
G37*
G36*
X22610Y3800D02*
X21394Y3894D01*
X22500Y3690D01*
X22610Y3800D01*
G37*
G36*
X22747Y3870D02*
X21394Y3894D01*
X22610Y3800D01*
X22747Y3870D01*
G37*
G36*
X22747Y3870D02*
X22993Y7255D01*
X21394Y3894D01*
X22747Y3870D01*
G37*
G36*
X21394Y3894D02*
X22993Y7255D01*
X22716Y7396D01*
X21394Y3894D01*
G37*
G36*
X21059Y3894D02*
X21394Y3894D01*
X22716Y7396D01*
X21059Y3894D01*
G37*
G36*
X22716Y7396D02*
X22496Y7616D01*
X21059Y3894D01*
X22716Y7396D01*
G37*
G36*
X22496Y7616D02*
X22355Y7893D01*
X21059Y3894D01*
X22496Y7616D01*
G37*
G36*
X22306Y8200D02*
X21059Y3894D01*
X22355Y7893D01*
X22306Y8200D01*
G37*
G36*
X21059Y3894D02*
X22306Y8200D01*
X21059Y13300D01*
X21059Y3894D01*
G37*
G36*
X22306Y8200D02*
X22306Y10500D01*
X21059Y13300D01*
X22306Y8200D01*
G37*
G36*
X22355Y10807D02*
X21059Y13300D01*
X22306Y10500D01*
X22355Y10807D01*
G37*
G36*
X22496Y11084D02*
X21059Y13300D01*
X22355Y10807D01*
X22496Y11084D01*
G37*
G36*
X22716Y11304D02*
X21059Y13300D01*
X22496Y11084D01*
X22716Y11304D01*
G37*
G36*
X22400Y13841D02*
X21059Y13300D01*
X22716Y11304D01*
X22400Y13841D01*
G37*
G36*
X22400Y13841D02*
X22716Y11304D01*
X22993Y11445D01*
X22400Y13841D01*
G37*
G36*
X22441Y13846D02*
X22400Y13841D01*
X22993Y11445D01*
X22441Y13846D01*
G37*
G36*
X22993Y11445D02*
X22479Y13862D01*
X22441Y13846D01*
X22993Y11445D01*
G37*
G36*
X23300Y11494D02*
X22479Y13862D01*
X22993Y11445D01*
X23300Y11494D01*
G37*
G36*
X22512Y13888D02*
X22479Y13862D01*
X23300Y11494D01*
X22512Y13888D01*
G37*
G36*
X23300Y11494D02*
X23253Y14230D01*
X22512Y13888D01*
X23300Y11494D01*
G37*
G36*
X23253Y14230D02*
X23100Y14206D01*
X22512Y13888D01*
X23253Y14230D01*
G37*
G36*
X22947Y14230D02*
X22512Y13888D01*
X23100Y14206D01*
X22947Y14230D01*
G37*
G36*
X22947Y14230D02*
X22886Y14261D01*
X22512Y13888D01*
X22947Y14230D01*
G37*
G36*
X23607Y11445D02*
X23253Y14230D01*
X23300Y11494D01*
X23607Y11445D01*
G37*
G36*
X23390Y14300D02*
X23253Y14230D01*
X23607Y11445D01*
X23390Y14300D01*
G37*
G36*
X23390Y14300D02*
X23607Y11445D01*
X23884Y11304D01*
X23390Y14300D01*
G37*
G36*
X23884Y11304D02*
X23500Y14410D01*
X23390Y14300D01*
X23884Y11304D01*
G37*
G36*
X23884Y11304D02*
X23570Y14547D01*
X23500Y14410D01*
X23884Y11304D01*
G37*
G36*
X23884Y11304D02*
X23594Y14700D01*
X23570Y14547D01*
X23884Y11304D01*
G37*
G36*
X23594Y14700D02*
X23884Y11304D01*
X24104Y11084D01*
X23594Y14700D01*
G37*
G36*
X23594Y14700D02*
X24104Y11084D01*
X24245Y10807D01*
X23594Y14700D01*
G37*
G36*
X23594Y14700D02*
X24245Y10807D01*
X24455Y27156D01*
X23594Y14700D01*
G37*
G36*
X24294Y10500D02*
X24455Y27156D01*
X24245Y10807D01*
X24294Y10500D01*
G37*
G36*
X24294Y8200D02*
X24455Y27156D01*
X24294Y10500D01*
X24294Y8200D01*
G37*
G36*
X24245Y10193D02*
X24294Y8200D01*
X24294Y10500D01*
X24245Y10193D01*
G37*
G36*
X24245Y10193D02*
X24245Y8507D01*
X24294Y8200D01*
X24245Y10193D01*
G37*
G36*
X24245Y10193D02*
X24104Y8784D01*
X24245Y8507D01*
X24245Y10193D01*
G37*
G36*
X24245Y10193D02*
X24104Y9916D01*
X24104Y8784D01*
X24245Y10193D01*
G37*
G36*
X24104Y9916D02*
X23884Y9004D01*
X24104Y8784D01*
X24104Y9916D01*
G37*
G36*
X24104Y9916D02*
X23884Y9696D01*
X23884Y9004D01*
X24104Y9916D01*
G37*
G36*
X23607Y9555D02*
X23884Y9004D01*
X23884Y9696D01*
X23607Y9555D01*
G37*
G36*
X23607Y9555D02*
X23607Y9145D01*
X23884Y9004D01*
X23607Y9555D01*
G37*
G36*
X23300Y9506D02*
X23607Y9145D01*
X23607Y9555D01*
X23300Y9506D01*
G37*
G36*
X23300Y9506D02*
X23300Y9194D01*
X23607Y9145D01*
X23300Y9506D01*
G37*
G36*
X22993Y9145D02*
X23300Y9194D01*
X23300Y9506D01*
X22993Y9145D01*
G37*
G36*
X22993Y9555D02*
X22993Y9145D01*
X23300Y9506D01*
X22993Y9555D01*
G37*
G36*
X22716Y9004D02*
X22993Y9145D01*
X22993Y9555D01*
X22716Y9004D01*
G37*
G36*
X22716Y9696D02*
X22716Y9004D01*
X22993Y9555D01*
X22716Y9696D01*
G37*
G36*
X22496Y8784D02*
X22716Y9004D01*
X22716Y9696D01*
X22496Y8784D01*
G37*
G36*
X22496Y9916D02*
X22496Y8784D01*
X22716Y9696D01*
X22496Y9916D01*
G37*
G36*
X22496Y9916D02*
X22355Y10193D01*
X22496Y8784D01*
X22496Y9916D01*
G37*
G36*
X22355Y10193D02*
X22355Y8507D01*
X22496Y8784D01*
X22355Y10193D01*
G37*
G36*
X22355Y8507D02*
X22355Y10193D01*
X22306Y8200D01*
X22355Y8507D01*
G37*
G36*
X22355Y10193D02*
X22306Y10500D01*
X22306Y8200D01*
X22355Y10193D01*
G37*
G36*
X24294Y8200D02*
X24455Y245D01*
X24455Y27156D01*
X24294Y8200D01*
G37*
G36*
X24294Y8200D02*
X24245Y7893D01*
X24455Y245D01*
X24294Y8200D01*
G37*
G36*
X24455Y245D02*
X24245Y7893D01*
X23394Y3400D01*
X24455Y245D01*
G37*
G36*
X23394Y3400D02*
X24245Y7893D01*
X24104Y7616D01*
X23394Y3400D01*
G37*
G36*
X23394Y3400D02*
X24104Y7616D01*
X23884Y7396D01*
X23394Y3400D01*
G37*
G36*
X23394Y3400D02*
X23884Y7396D01*
X23370Y3553D01*
X23394Y3400D01*
G37*
G36*
X23884Y7396D02*
X23300Y3690D01*
X23370Y3553D01*
X23884Y7396D01*
G37*
G36*
X23884Y7396D02*
X23607Y7255D01*
X23300Y3690D01*
X23884Y7396D01*
G37*
G36*
X23300Y3690D02*
X23607Y7255D01*
X23190Y3800D01*
X23300Y3690D01*
G37*
G36*
X23607Y7255D02*
X23053Y3870D01*
X23190Y3800D01*
X23607Y7255D01*
G37*
G36*
X23300Y7206D02*
X23053Y3870D01*
X23607Y7255D01*
X23300Y7206D01*
G37*
G36*
X22900Y3894D02*
X23053Y3870D01*
X23300Y7206D01*
X22900Y3894D01*
G37*
G36*
X22993Y7255D02*
X22900Y3894D01*
X23300Y7206D01*
X22993Y7255D01*
G37*
G36*
X22993Y7255D02*
X22747Y3870D01*
X22900Y3894D01*
X22993Y7255D01*
G37*
G36*
X23394Y3400D02*
X23370Y3247D01*
X24455Y245D01*
X23394Y3400D01*
G37*
G36*
X23370Y3247D02*
X23300Y3110D01*
X24455Y245D01*
X23370Y3247D01*
G37*
G36*
X23300Y3110D02*
X23190Y3000D01*
X24455Y245D01*
X23300Y3110D01*
G37*
G36*
X23190Y3000D02*
X23053Y2930D01*
X24455Y245D01*
X23190Y3000D01*
G37*
G36*
X23053Y2930D02*
X22900Y2906D01*
X24455Y245D01*
X23053Y2930D01*
G37*
G36*
X22900Y2906D02*
X22747Y2930D01*
X24455Y245D01*
X22900Y2906D01*
G37*
G36*
X23570Y14853D02*
X23594Y14700D01*
X24455Y27156D01*
X23570Y14853D01*
G37*
G36*
X23500Y14990D02*
X23570Y14853D01*
X24455Y27156D01*
X23500Y14990D01*
G37*
G36*
X23390Y15100D02*
X23500Y14990D01*
X24455Y27156D01*
X23390Y15100D01*
G37*
G36*
X23253Y15170D02*
X23390Y15100D01*
X24455Y27156D01*
X23253Y15170D01*
G37*
G36*
X23100Y15194D02*
X23253Y15170D01*
X24455Y27156D01*
X23100Y15194D01*
G37*
G36*
X20694Y26100D02*
X23100Y15194D01*
X24455Y27156D01*
X20694Y26100D01*
G37*
G36*
X20670Y26253D02*
X20694Y26100D01*
X24455Y27156D01*
X20670Y26253D01*
G37*
G36*
X20600Y26390D02*
X20670Y26253D01*
X24455Y27156D01*
X20600Y26390D01*
G37*
G36*
X20490Y26500D02*
X20600Y26390D01*
X24455Y27156D01*
X20490Y26500D01*
G37*
G36*
X20353Y26570D02*
X20490Y26500D01*
X24455Y27156D01*
X20353Y26570D01*
G37*
G36*
X20200Y26594D02*
X20353Y26570D01*
X24455Y27156D01*
X20200Y26594D01*
G37*
G36*
X24455Y27156D02*
X19200Y26594D01*
X20200Y26594D01*
X24455Y27156D01*
G37*
G36*
X19200Y26594D02*
X19353Y26570D01*
X20200Y26594D01*
X19200Y26594D01*
G37*
G36*
X20200Y26594D02*
X19353Y26570D01*
X20047Y26570D01*
X20200Y26594D01*
G37*
G36*
X19353Y26570D02*
X19490Y26500D01*
X20047Y26570D01*
X19353Y26570D01*
G37*
G36*
X20047Y26570D02*
X19490Y26500D01*
X19910Y26500D01*
X20047Y26570D01*
G37*
G36*
X19910Y26500D02*
X19490Y26500D01*
X19800Y26390D01*
X19910Y26500D01*
G37*
G36*
X19490Y26500D02*
X19600Y26390D01*
X19800Y26390D01*
X19490Y26500D01*
G37*
G36*
X19600Y26390D02*
X19730Y26253D01*
X19800Y26390D01*
X19600Y26390D01*
G37*
G36*
X19600Y26390D02*
X19670Y26253D01*
X19730Y26253D01*
X19600Y26390D01*
G37*
G36*
X19730Y26253D02*
X19670Y26253D01*
X19706Y26100D01*
X19730Y26253D01*
G37*
G36*
X19670Y26253D02*
X19694Y26100D01*
X19706Y26100D01*
X19670Y26253D01*
G37*
G36*
X19706Y26100D02*
X19694Y26100D01*
X19730Y25947D01*
X19706Y26100D01*
G37*
G36*
X19694Y26100D02*
X19670Y25947D01*
X19730Y25947D01*
X19694Y26100D01*
G37*
G36*
X19730Y25947D02*
X19670Y25947D01*
X19800Y25810D01*
X19730Y25947D01*
G37*
G36*
X19670Y25947D02*
X19600Y25810D01*
X19800Y25810D01*
X19670Y25947D01*
G37*
G36*
X19800Y25810D02*
X19600Y25810D01*
X19910Y25700D01*
X19800Y25810D01*
G37*
G36*
X19600Y25810D02*
X19490Y25700D01*
X19910Y25700D01*
X19600Y25810D01*
G37*
G36*
X19910Y25700D02*
X19490Y25700D01*
X20047Y25630D01*
X19910Y25700D01*
G37*
G36*
X19490Y25700D02*
X19353Y25630D01*
X20047Y25630D01*
X19490Y25700D01*
G37*
G36*
X19290Y24400D02*
X20047Y25630D01*
X19353Y25630D01*
X19290Y24400D01*
G37*
G36*
X19290Y24400D02*
X19353Y25630D01*
X19153Y24470D01*
X19290Y24400D01*
G37*
G36*
X19353Y25630D02*
X19200Y25606D01*
X19153Y24470D01*
X19353Y25630D01*
G37*
G36*
X19000Y24494D02*
X19153Y24470D01*
X19200Y25606D01*
X19000Y24494D01*
G37*
G36*
X19000Y24494D02*
X19200Y25606D01*
X19047Y25630D01*
X19000Y24494D01*
G37*
G36*
X19000Y24494D02*
X19047Y25630D01*
X18847Y24470D01*
X19000Y24494D01*
G37*
G36*
X18847Y24470D02*
X19047Y25630D01*
X18353Y25630D01*
X18847Y24470D01*
G37*
G36*
X18490Y25700D02*
X18353Y25630D01*
X19047Y25630D01*
X18490Y25700D01*
G37*
G36*
X18910Y25700D02*
X18490Y25700D01*
X19047Y25630D01*
X18910Y25700D01*
G37*
G36*
X18600Y25810D02*
X18490Y25700D01*
X18910Y25700D01*
X18600Y25810D01*
G37*
G36*
X18800Y25810D02*
X18600Y25810D01*
X18910Y25700D01*
X18800Y25810D01*
G37*
G36*
X18670Y25947D02*
X18600Y25810D01*
X18800Y25810D01*
X18670Y25947D01*
G37*
G36*
X18730Y25947D02*
X18670Y25947D01*
X18800Y25810D01*
X18730Y25947D01*
G37*
G36*
X18694Y26100D02*
X18670Y25947D01*
X18730Y25947D01*
X18694Y26100D01*
G37*
G36*
X18706Y26100D02*
X18694Y26100D01*
X18730Y25947D01*
X18706Y26100D01*
G37*
G36*
X18670Y26253D02*
X18694Y26100D01*
X18706Y26100D01*
X18670Y26253D01*
G37*
G36*
X18730Y26253D02*
X18670Y26253D01*
X18706Y26100D01*
X18730Y26253D01*
G37*
G36*
X18600Y26390D02*
X18670Y26253D01*
X18730Y26253D01*
X18600Y26390D01*
G37*
G36*
X18600Y26390D02*
X18730Y26253D01*
X18800Y26390D01*
X18600Y26390D01*
G37*
G36*
X18490Y26500D02*
X18600Y26390D01*
X18800Y26390D01*
X18490Y26500D01*
G37*
G36*
X18910Y26500D02*
X18490Y26500D01*
X18800Y26390D01*
X18910Y26500D01*
G37*
G36*
X19047Y26570D02*
X18490Y26500D01*
X18910Y26500D01*
X19047Y26570D01*
G37*
G36*
X18353Y26570D02*
X18490Y26500D01*
X19047Y26570D01*
X18353Y26570D01*
G37*
G36*
X19200Y26594D02*
X18353Y26570D01*
X19047Y26570D01*
X19200Y26594D01*
G37*
G36*
X18200Y26594D02*
X18353Y26570D01*
X19200Y26594D01*
X18200Y26594D01*
G37*
G36*
X19200Y26594D02*
X24455Y27156D01*
X18200Y26594D01*
X19200Y26594D01*
G37*
G36*
X18200Y26594D02*
X24455Y27156D01*
X17200Y26594D01*
X18200Y26594D01*
G37*
G36*
X24455Y27156D02*
X9663Y27216D01*
X17200Y26594D01*
X24455Y27156D01*
G37*
G36*
X9663Y27216D02*
X17047Y26570D01*
X17200Y26594D01*
X9663Y27216D01*
G37*
G36*
X9663Y27216D02*
X16910Y26500D01*
X17047Y26570D01*
X9663Y27216D01*
G37*
G36*
X9663Y27216D02*
X16800Y26390D01*
X16910Y26500D01*
X9663Y27216D01*
G37*
G36*
X9663Y27216D02*
X16730Y26253D01*
X16800Y26390D01*
X9663Y27216D01*
G37*
G36*
X16730Y26253D02*
X9663Y27216D01*
X16706Y26100D01*
X16730Y26253D01*
G37*
G36*
X9663Y27216D02*
X9791Y27150D01*
X16706Y26100D01*
X9663Y27216D01*
G37*
G36*
X16000Y24494D02*
X16706Y26100D01*
X9791Y27150D01*
X16000Y24494D01*
G37*
G36*
X16000Y24494D02*
X9791Y27150D01*
X15000Y24494D01*
X16000Y24494D01*
G37*
G36*
X15000Y24494D02*
X9791Y27150D01*
X14847Y24470D01*
X15000Y24494D01*
G37*
G36*
X15153Y24470D02*
X16000Y24494D01*
X15000Y24494D01*
X15153Y24470D01*
G37*
G36*
X16000Y24494D02*
X15153Y24470D01*
X15847Y24470D01*
X16000Y24494D01*
G37*
G36*
X15153Y24470D02*
X15290Y24400D01*
X15847Y24470D01*
X15153Y24470D01*
G37*
G36*
X15847Y24470D02*
X15290Y24400D01*
X15710Y24400D01*
X15847Y24470D01*
G37*
G36*
X15710Y24400D02*
X15290Y24400D01*
X15600Y24290D01*
X15710Y24400D01*
G37*
G36*
X15290Y24400D02*
X15400Y24290D01*
X15600Y24290D01*
X15290Y24400D01*
G37*
G36*
X15400Y24290D02*
X15530Y24153D01*
X15600Y24290D01*
X15400Y24290D01*
G37*
G36*
X15400Y24290D02*
X15470Y24153D01*
X15530Y24153D01*
X15400Y24290D01*
G37*
G36*
X15530Y24153D02*
X15470Y24153D01*
X15506Y24000D01*
X15530Y24153D01*
G37*
G36*
X15470Y24153D02*
X15494Y24000D01*
X15506Y24000D01*
X15470Y24153D01*
G37*
G36*
X15506Y24000D02*
X15494Y24000D01*
X15530Y23847D01*
X15506Y24000D01*
G37*
G36*
X15494Y24000D02*
X15470Y23847D01*
X15530Y23847D01*
X15494Y24000D01*
G37*
G36*
X15530Y23847D02*
X15470Y23847D01*
X15600Y23710D01*
X15530Y23847D01*
G37*
G36*
X15470Y23847D02*
X15400Y23710D01*
X15600Y23710D01*
X15470Y23847D01*
G37*
G36*
X15600Y23710D02*
X15400Y23710D01*
X15710Y23600D01*
X15600Y23710D01*
G37*
G36*
X15400Y23710D02*
X15290Y23600D01*
X15710Y23600D01*
X15400Y23710D01*
G37*
G36*
X15710Y23600D02*
X15290Y23600D01*
X15847Y23530D01*
X15710Y23600D01*
G37*
G36*
X15290Y23600D02*
X15153Y23530D01*
X15847Y23530D01*
X15290Y23600D01*
G37*
G36*
X14251Y20208D02*
X15847Y23530D01*
X15153Y23530D01*
X14251Y20208D01*
G37*
G36*
X15153Y23530D02*
X15000Y23506D01*
X14251Y20208D01*
X15153Y23530D01*
G37*
G36*
X14179Y20244D02*
X14251Y20208D01*
X15000Y23506D01*
X14179Y20244D01*
G37*
G36*
X15000Y23506D02*
X14847Y23530D01*
X14179Y20244D01*
X15000Y23506D01*
G37*
G36*
X16000Y23506D02*
X15847Y23530D01*
X14251Y20208D01*
X16000Y23506D01*
G37*
G36*
X16000Y23506D02*
X14251Y20208D01*
X14308Y20151D01*
X16000Y23506D01*
G37*
G36*
X14344Y20079D02*
X16000Y23506D01*
X14308Y20151D01*
X14344Y20079D01*
G37*
G36*
X16000Y23506D02*
X14344Y20079D01*
X16153Y23530D01*
X16000Y23506D01*
G37*
G36*
X14344Y20079D02*
X16847Y23530D01*
X16153Y23530D01*
X14344Y20079D01*
G37*
G36*
X16290Y23600D02*
X16153Y23530D01*
X16847Y23530D01*
X16290Y23600D01*
G37*
G36*
X16710Y23600D02*
X16290Y23600D01*
X16847Y23530D01*
X16710Y23600D01*
G37*
G36*
X16400Y23710D02*
X16290Y23600D01*
X16710Y23600D01*
X16400Y23710D01*
G37*
G36*
X16600Y23710D02*
X16400Y23710D01*
X16710Y23600D01*
X16600Y23710D01*
G37*
G36*
X16470Y23847D02*
X16400Y23710D01*
X16600Y23710D01*
X16470Y23847D01*
G37*
G36*
X16530Y23847D02*
X16470Y23847D01*
X16600Y23710D01*
X16530Y23847D01*
G37*
G36*
X16494Y24000D02*
X16470Y23847D01*
X16530Y23847D01*
X16494Y24000D01*
G37*
G36*
X16506Y24000D02*
X16494Y24000D01*
X16530Y23847D01*
X16506Y24000D01*
G37*
G36*
X16470Y24153D02*
X16494Y24000D01*
X16506Y24000D01*
X16470Y24153D01*
G37*
G36*
X16530Y24153D02*
X16470Y24153D01*
X16506Y24000D01*
X16530Y24153D01*
G37*
G36*
X16400Y24290D02*
X16470Y24153D01*
X16530Y24153D01*
X16400Y24290D01*
G37*
G36*
X16400Y24290D02*
X16530Y24153D01*
X16600Y24290D01*
X16400Y24290D01*
G37*
G36*
X16400Y24290D02*
X16600Y24290D01*
X16290Y24400D01*
X16400Y24290D01*
G37*
G36*
X16600Y24290D02*
X16730Y25947D01*
X16290Y24400D01*
X16600Y24290D01*
G37*
G36*
X16706Y26100D02*
X16290Y24400D01*
X16730Y25947D01*
X16706Y26100D01*
G37*
G36*
X16706Y26100D02*
X16153Y24470D01*
X16290Y24400D01*
X16706Y26100D01*
G37*
G36*
X16000Y24494D02*
X16153Y24470D01*
X16706Y26100D01*
X16000Y24494D01*
G37*
G36*
X16800Y25810D02*
X16730Y25947D01*
X16600Y24290D01*
X16800Y25810D01*
G37*
G36*
X16800Y25810D02*
X16600Y24290D01*
X16710Y24400D01*
X16800Y25810D01*
G37*
G36*
X16910Y25700D02*
X16800Y25810D01*
X16710Y24400D01*
X16910Y25700D01*
G37*
G36*
X16910Y25700D02*
X16710Y24400D01*
X16847Y24470D01*
X16910Y25700D01*
G37*
G36*
X17047Y25630D02*
X16910Y25700D01*
X16847Y24470D01*
X17047Y25630D01*
G37*
G36*
X17047Y25630D02*
X16847Y24470D01*
X17000Y24494D01*
X17047Y25630D01*
G37*
G36*
X17047Y25630D02*
X17000Y24494D01*
X17200Y25606D01*
X17047Y25630D01*
G37*
G36*
X17000Y24494D02*
X17153Y24470D01*
X17200Y25606D01*
X17000Y24494D01*
G37*
G36*
X17153Y24470D02*
X17353Y25630D01*
X17200Y25606D01*
X17153Y24470D01*
G37*
G36*
X17153Y24470D02*
X17847Y24470D01*
X17353Y25630D01*
X17153Y24470D01*
G37*
G36*
X17847Y24470D02*
X18047Y25630D01*
X17353Y25630D01*
X17847Y24470D01*
G37*
G36*
X17490Y25700D02*
X17353Y25630D01*
X18047Y25630D01*
X17490Y25700D01*
G37*
G36*
X17910Y25700D02*
X17490Y25700D01*
X18047Y25630D01*
X17910Y25700D01*
G37*
G36*
X17600Y25810D02*
X17490Y25700D01*
X17910Y25700D01*
X17600Y25810D01*
G37*
G36*
X17800Y25810D02*
X17600Y25810D01*
X17910Y25700D01*
X17800Y25810D01*
G37*
G36*
X17670Y25947D02*
X17600Y25810D01*
X17800Y25810D01*
X17670Y25947D01*
G37*
G36*
X17730Y25947D02*
X17670Y25947D01*
X17800Y25810D01*
X17730Y25947D01*
G37*
G36*
X17694Y26100D02*
X17670Y25947D01*
X17730Y25947D01*
X17694Y26100D01*
G37*
G36*
X17706Y26100D02*
X17694Y26100D01*
X17730Y25947D01*
X17706Y26100D01*
G37*
G36*
X17670Y26253D02*
X17694Y26100D01*
X17706Y26100D01*
X17670Y26253D01*
G37*
G36*
X17730Y26253D02*
X17670Y26253D01*
X17706Y26100D01*
X17730Y26253D01*
G37*
G36*
X17600Y26390D02*
X17670Y26253D01*
X17730Y26253D01*
X17600Y26390D01*
G37*
G36*
X17600Y26390D02*
X17730Y26253D01*
X17800Y26390D01*
X17600Y26390D01*
G37*
G36*
X17490Y26500D02*
X17600Y26390D01*
X17800Y26390D01*
X17490Y26500D01*
G37*
G36*
X17910Y26500D02*
X17490Y26500D01*
X17800Y26390D01*
X17910Y26500D01*
G37*
G36*
X18047Y26570D02*
X17490Y26500D01*
X17910Y26500D01*
X18047Y26570D01*
G37*
G36*
X17353Y26570D02*
X17490Y26500D01*
X18047Y26570D01*
X17353Y26570D01*
G37*
G36*
X18200Y26594D02*
X17353Y26570D01*
X18047Y26570D01*
X18200Y26594D01*
G37*
G36*
X17200Y26594D02*
X17353Y26570D01*
X18200Y26594D01*
X17200Y26594D01*
G37*
G36*
X18000Y24494D02*
X18047Y25630D01*
X17847Y24470D01*
X18000Y24494D01*
G37*
G36*
X18000Y24494D02*
X18200Y25606D01*
X18047Y25630D01*
X18000Y24494D01*
G37*
G36*
X18000Y24494D02*
X18153Y24470D01*
X18200Y25606D01*
X18000Y24494D01*
G37*
G36*
X18153Y24470D02*
X18353Y25630D01*
X18200Y25606D01*
X18153Y24470D01*
G37*
G36*
X18153Y24470D02*
X18847Y24470D01*
X18353Y25630D01*
X18153Y24470D01*
G37*
G36*
X18847Y24470D02*
X18153Y24470D01*
X18290Y24400D01*
X18847Y24470D01*
G37*
G36*
X18290Y24400D02*
X18710Y24400D01*
X18847Y24470D01*
X18290Y24400D01*
G37*
G36*
X18710Y24400D02*
X18290Y24400D01*
X18600Y24290D01*
X18710Y24400D01*
G37*
G36*
X18290Y24400D02*
X18400Y24290D01*
X18600Y24290D01*
X18290Y24400D01*
G37*
G36*
X18400Y24290D02*
X18470Y24153D01*
X18600Y24290D01*
X18400Y24290D01*
G37*
G36*
X18470Y24153D02*
X18530Y24153D01*
X18600Y24290D01*
X18470Y24153D01*
G37*
G36*
X18530Y24153D02*
X18470Y24153D01*
X18506Y24000D01*
X18530Y24153D01*
G37*
G36*
X18470Y24153D02*
X18494Y24000D01*
X18506Y24000D01*
X18470Y24153D01*
G37*
G36*
X18506Y24000D02*
X18494Y24000D01*
X18530Y23847D01*
X18506Y24000D01*
G37*
G36*
X18494Y24000D02*
X18470Y23847D01*
X18530Y23847D01*
X18494Y24000D01*
G37*
G36*
X18530Y23847D02*
X18470Y23847D01*
X18600Y23710D01*
X18530Y23847D01*
G37*
G36*
X18470Y23847D02*
X18400Y23710D01*
X18600Y23710D01*
X18470Y23847D01*
G37*
G36*
X18600Y23710D02*
X18400Y23710D01*
X18710Y23600D01*
X18600Y23710D01*
G37*
G36*
X18400Y23710D02*
X18290Y23600D01*
X18710Y23600D01*
X18400Y23710D01*
G37*
G36*
X18710Y23600D02*
X18290Y23600D01*
X18847Y23530D01*
X18710Y23600D01*
G37*
G36*
X18290Y23600D02*
X18153Y23530D01*
X18847Y23530D01*
X18290Y23600D01*
G37*
G36*
X18847Y23530D02*
X18153Y23530D01*
X19000Y23506D01*
X18847Y23530D01*
G37*
G36*
X18153Y23530D02*
X18000Y23506D01*
X19000Y23506D01*
X18153Y23530D01*
G37*
G36*
X19000Y23506D02*
X18000Y23506D01*
X18794Y15194D01*
X19000Y23506D01*
G37*
G36*
X18000Y23506D02*
X17370Y17953D01*
X18794Y15194D01*
X18000Y23506D01*
G37*
G36*
X17394Y17800D02*
X18794Y15194D01*
X17370Y17953D01*
X17394Y17800D01*
G37*
G36*
X18794Y15194D02*
X17394Y17800D01*
X17370Y17647D01*
X18794Y15194D01*
G37*
G36*
X18794Y15194D02*
X17370Y17647D01*
X17300Y17510D01*
X18794Y15194D01*
G37*
G36*
X17300Y17510D02*
X18006Y15194D01*
X18794Y15194D01*
X17300Y17510D01*
G37*
G36*
X17300Y17510D02*
X17190Y17400D01*
X18006Y15194D01*
X17300Y17510D01*
G37*
G36*
X17190Y17400D02*
X17053Y17330D01*
X18006Y15194D01*
X17190Y17400D01*
G37*
G36*
X18006Y15194D02*
X17053Y17330D01*
X17053Y15270D01*
X18006Y15194D01*
G37*
G36*
X16900Y17306D02*
X17053Y15270D01*
X17053Y17330D01*
X16900Y17306D01*
G37*
G36*
X16900Y17306D02*
X16900Y15294D01*
X17053Y15270D01*
X16900Y17306D01*
G37*
G36*
X16747Y15270D02*
X16900Y15294D01*
X16900Y17306D01*
X16747Y15270D01*
G37*
G36*
X16747Y17330D02*
X16747Y15270D01*
X16900Y17306D01*
X16747Y17330D01*
G37*
G36*
X16747Y15270D02*
X16747Y17330D01*
X15412Y16088D01*
X16747Y15270D01*
G37*
G36*
X15412Y16088D02*
X16747Y17330D01*
X16686Y17361D01*
X15412Y16088D01*
G37*
G36*
X16747Y15270D02*
X15412Y16088D01*
X16610Y15200D01*
X16747Y15270D01*
G37*
G36*
X15532Y15119D02*
X16610Y15200D01*
X15412Y16088D01*
X15532Y15119D01*
G37*
G36*
X15532Y15119D02*
X15412Y16088D01*
X15379Y16062D01*
X15532Y15119D01*
G37*
G36*
X15422Y15175D02*
X15532Y15119D01*
X15379Y16062D01*
X15422Y15175D01*
G37*
G36*
X15379Y16062D02*
X15341Y16046D01*
X15422Y15175D01*
X15379Y16062D01*
G37*
G36*
X15341Y16046D02*
X15300Y15194D01*
X15422Y15175D01*
X15341Y16046D01*
G37*
G36*
X15300Y16041D02*
X15300Y15194D01*
X15341Y16046D01*
X15300Y16041D01*
G37*
G36*
X15300Y16041D02*
X15178Y15175D01*
X15300Y15194D01*
X15300Y16041D01*
G37*
G36*
X15178Y15175D02*
X15300Y16041D01*
X14694Y15194D01*
X15178Y15175D01*
G37*
G36*
X15300Y16041D02*
X13400Y16041D01*
X14694Y15194D01*
X15300Y16041D01*
G37*
G36*
X13400Y16041D02*
X13906Y15194D01*
X14694Y15194D01*
X13400Y16041D01*
G37*
G36*
X14694Y15194D02*
X15068Y15119D01*
X15178Y15175D01*
X14694Y15194D01*
G37*
G36*
X14694Y15194D02*
X14981Y15032D01*
X15068Y15119D01*
X14694Y15194D01*
G37*
G36*
X14694Y15194D02*
X14925Y14922D01*
X14981Y15032D01*
X14694Y15194D01*
G37*
G36*
X14925Y14922D02*
X14694Y15194D01*
X14906Y14800D01*
X14925Y14922D01*
G37*
G36*
X14906Y14800D02*
X14694Y15194D01*
X14694Y14406D01*
X14906Y14800D01*
G37*
G36*
X14906Y14800D02*
X14694Y14406D01*
X14925Y14678D01*
X14906Y14800D01*
G37*
G36*
X14925Y14678D02*
X14694Y14406D01*
X14981Y14568D01*
X14925Y14678D01*
G37*
G36*
X14981Y14568D02*
X14694Y14406D01*
X15068Y14481D01*
X14981Y14568D01*
G37*
G36*
X15068Y14481D02*
X14694Y14406D01*
X15178Y14425D01*
X15068Y14481D01*
G37*
G36*
X15178Y14425D02*
X14694Y14406D01*
X15300Y14406D01*
X15178Y14425D01*
G37*
G36*
X16747Y14330D02*
X15300Y14406D01*
X14694Y14406D01*
X16747Y14330D01*
G37*
G36*
X16747Y14330D02*
X14694Y14406D01*
X13906Y14406D01*
X16747Y14330D01*
G37*
G36*
X16900Y14306D02*
X16747Y14330D01*
X13906Y14406D01*
X16900Y14306D01*
G37*
G36*
X16900Y14306D02*
X13906Y14406D01*
X11766Y14159D01*
X16900Y14306D01*
G37*
G36*
X21100Y14206D02*
X16900Y14306D01*
X11766Y14159D01*
X21100Y14206D01*
G37*
G36*
X21100Y14206D02*
X11766Y14159D01*
X22334Y14159D01*
X21100Y14206D01*
G37*
G36*
X21253Y14230D02*
X21100Y14206D01*
X22334Y14159D01*
X21253Y14230D01*
G37*
G36*
X21390Y14300D02*
X21253Y14230D01*
X22334Y14159D01*
X21390Y14300D01*
G37*
G36*
X21500Y14410D02*
X21390Y14300D01*
X22334Y14159D01*
X21500Y14410D01*
G37*
G36*
X21570Y14547D02*
X21500Y14410D01*
X22334Y14159D01*
X21570Y14547D01*
G37*
G36*
X21594Y14700D02*
X21570Y14547D01*
X22334Y14159D01*
X21594Y14700D01*
G37*
G36*
X21594Y14700D02*
X22334Y14159D01*
X22606Y14700D01*
X21594Y14700D01*
G37*
G36*
X22606Y14700D02*
X22334Y14159D01*
X22630Y14547D01*
X22606Y14700D01*
G37*
G36*
X22630Y14547D02*
X22334Y14159D01*
X22661Y14486D01*
X22630Y14547D01*
G37*
G36*
X21594Y14700D02*
X22606Y14700D01*
X22630Y14853D01*
X21594Y14700D01*
G37*
G36*
X21570Y14853D02*
X21594Y14700D01*
X22630Y14853D01*
X21570Y14853D01*
G37*
G36*
X21570Y14853D02*
X22630Y14853D01*
X22700Y14990D01*
X21570Y14853D01*
G37*
G36*
X21500Y14990D02*
X21570Y14853D01*
X22700Y14990D01*
X21500Y14990D01*
G37*
G36*
X21500Y14990D02*
X22700Y14990D01*
X22810Y15100D01*
X21500Y14990D01*
G37*
G36*
X21390Y15100D02*
X21500Y14990D01*
X22810Y15100D01*
X21390Y15100D01*
G37*
G36*
X21390Y15100D02*
X22810Y15100D01*
X22947Y15170D01*
X21390Y15100D01*
G37*
G36*
X21253Y15170D02*
X21390Y15100D01*
X22947Y15170D01*
X21253Y15170D01*
G37*
G36*
X20694Y26100D02*
X21253Y15170D01*
X22947Y15170D01*
X20694Y26100D01*
G37*
G36*
X22947Y15170D02*
X23100Y15194D01*
X20694Y26100D01*
X22947Y15170D01*
G37*
G36*
X21253Y15170D02*
X20694Y26100D01*
X20670Y25947D01*
X21253Y15170D01*
G37*
G36*
X21253Y15170D02*
X20670Y25947D01*
X20600Y25810D01*
X21253Y15170D01*
G37*
G36*
X19470Y23847D02*
X21253Y15170D01*
X20600Y25810D01*
X19470Y23847D01*
G37*
G36*
X19470Y23847D02*
X20600Y25810D01*
X20490Y25700D01*
X19470Y23847D01*
G37*
G36*
X19470Y23847D02*
X20490Y25700D01*
X20353Y25630D01*
X19470Y23847D01*
G37*
G36*
X19494Y24000D02*
X19470Y23847D01*
X20353Y25630D01*
X19494Y24000D01*
G37*
G36*
X19494Y24000D02*
X20353Y25630D01*
X19470Y24153D01*
X19494Y24000D01*
G37*
G36*
X20200Y25606D02*
X19470Y24153D01*
X20353Y25630D01*
X20200Y25606D01*
G37*
G36*
X19400Y24290D02*
X19470Y24153D01*
X20200Y25606D01*
X19400Y24290D01*
G37*
G36*
X19400Y24290D02*
X20200Y25606D01*
X20047Y25630D01*
X19400Y24290D01*
G37*
G36*
X20047Y25630D02*
X19290Y24400D01*
X19400Y24290D01*
X20047Y25630D01*
G37*
G36*
X19470Y23847D02*
X21100Y15194D01*
X21253Y15170D01*
X19470Y23847D01*
G37*
G36*
X20947Y15170D02*
X21100Y15194D01*
X19470Y23847D01*
X20947Y15170D01*
G37*
G36*
X19470Y23847D02*
X19522Y15175D01*
X20947Y15170D01*
X19470Y23847D01*
G37*
G36*
X19522Y15175D02*
X19632Y15119D01*
X20947Y15170D01*
X19522Y15175D01*
G37*
G36*
X19632Y15119D02*
X20810Y15100D01*
X20947Y15170D01*
X19632Y15119D01*
G37*
G36*
X19632Y15119D02*
X19719Y15032D01*
X20810Y15100D01*
X19632Y15119D01*
G37*
G36*
X19719Y15032D02*
X20700Y14990D01*
X20810Y15100D01*
X19719Y15032D01*
G37*
G36*
X19719Y15032D02*
X19775Y14922D01*
X20700Y14990D01*
X19719Y15032D01*
G37*
G36*
X19775Y14922D02*
X20630Y14853D01*
X20700Y14990D01*
X19775Y14922D01*
G37*
G36*
X19775Y14922D02*
X19794Y14800D01*
X20630Y14853D01*
X19775Y14922D01*
G37*
G36*
X19794Y14800D02*
X20606Y14700D01*
X20630Y14853D01*
X19794Y14800D01*
G37*
G36*
X19794Y14800D02*
X19775Y14678D01*
X20606Y14700D01*
X19794Y14800D01*
G37*
G36*
X20606Y14700D02*
X19775Y14678D01*
X20630Y14547D01*
X20606Y14700D01*
G37*
G36*
X19775Y14678D02*
X19719Y14568D01*
X20630Y14547D01*
X19775Y14678D01*
G37*
G36*
X20630Y14547D02*
X19719Y14568D01*
X20700Y14410D01*
X20630Y14547D01*
G37*
G36*
X20700Y14410D02*
X19719Y14568D01*
X19632Y14481D01*
X20700Y14410D01*
G37*
G36*
X20700Y14410D02*
X19632Y14481D01*
X20810Y14300D01*
X20700Y14410D01*
G37*
G36*
X20810Y14300D02*
X19632Y14481D01*
X19522Y14425D01*
X20810Y14300D01*
G37*
G36*
X20947Y14230D02*
X20810Y14300D01*
X19522Y14425D01*
X20947Y14230D01*
G37*
G36*
X20947Y14230D02*
X19522Y14425D01*
X19400Y14406D01*
X20947Y14230D01*
G37*
G36*
X20947Y14230D02*
X19400Y14406D01*
X18794Y14406D01*
X20947Y14230D01*
G37*
G36*
X19278Y14425D02*
X18794Y14406D01*
X19400Y14406D01*
X19278Y14425D01*
G37*
G36*
X19168Y14481D02*
X18794Y14406D01*
X19278Y14425D01*
X19168Y14481D01*
G37*
G36*
X19081Y14568D02*
X18794Y14406D01*
X19168Y14481D01*
X19081Y14568D01*
G37*
G36*
X19025Y14678D02*
X18794Y14406D01*
X19081Y14568D01*
X19025Y14678D01*
G37*
G36*
X19006Y14800D02*
X18794Y14406D01*
X19025Y14678D01*
X19006Y14800D01*
G37*
G36*
X19006Y14800D02*
X18794Y15194D01*
X18794Y14406D01*
X19006Y14800D01*
G37*
G36*
X19025Y14922D02*
X18794Y15194D01*
X19006Y14800D01*
X19025Y14922D01*
G37*
G36*
X18794Y15194D02*
X19025Y14922D01*
X19081Y15032D01*
X18794Y15194D01*
G37*
G36*
X18794Y15194D02*
X19081Y15032D01*
X19168Y15119D01*
X18794Y15194D01*
G37*
G36*
X18794Y15194D02*
X19168Y15119D01*
X19278Y15175D01*
X18794Y15194D01*
G37*
G36*
X18794Y15194D02*
X19278Y15175D01*
X19400Y15194D01*
X18794Y15194D01*
G37*
G36*
X19000Y23506D02*
X18794Y15194D01*
X19400Y15194D01*
X19000Y23506D01*
G37*
G36*
X19153Y23530D02*
X19000Y23506D01*
X19400Y15194D01*
X19153Y23530D01*
G37*
G36*
X19153Y23530D02*
X19400Y15194D01*
X19522Y15175D01*
X19153Y23530D01*
G37*
G36*
X19522Y15175D02*
X19290Y23600D01*
X19153Y23530D01*
X19522Y15175D01*
G37*
G36*
X19522Y15175D02*
X19400Y23710D01*
X19290Y23600D01*
X19522Y15175D01*
G37*
G36*
X19470Y23847D02*
X19400Y23710D01*
X19522Y15175D01*
X19470Y23847D01*
G37*
G36*
X18006Y14406D02*
X20947Y14230D01*
X18794Y14406D01*
X18006Y14406D01*
G37*
G36*
X16900Y14306D02*
X20947Y14230D01*
X18006Y14406D01*
X16900Y14306D01*
G37*
G36*
X16900Y14306D02*
X18006Y14406D01*
X17053Y14330D01*
X16900Y14306D01*
G37*
G36*
X18006Y14406D02*
X17190Y14400D01*
X17053Y14330D01*
X18006Y14406D01*
G37*
G36*
X17300Y14510D02*
X17190Y14400D01*
X18006Y14406D01*
X17300Y14510D01*
G37*
G36*
X17370Y14647D02*
X17300Y14510D01*
X18006Y14406D01*
X17370Y14647D01*
G37*
G36*
X17394Y14800D02*
X17370Y14647D01*
X18006Y14406D01*
X17394Y14800D01*
G37*
G36*
X17394Y14800D02*
X18006Y14406D01*
X18006Y15194D01*
X17394Y14800D01*
G37*
G36*
X17370Y14953D02*
X17394Y14800D01*
X18006Y15194D01*
X17370Y14953D01*
G37*
G36*
X17300Y15090D02*
X17370Y14953D01*
X18006Y15194D01*
X17300Y15090D01*
G37*
G36*
X17190Y15200D02*
X17300Y15090D01*
X18006Y15194D01*
X17190Y15200D01*
G37*
G36*
X17190Y15200D02*
X18006Y15194D01*
X17053Y15270D01*
X17190Y15200D01*
G37*
G36*
X21100Y14206D02*
X20947Y14230D01*
X16900Y14306D01*
X21100Y14206D01*
G37*
G36*
X16747Y14330D02*
X15422Y14425D01*
X15300Y14406D01*
X16747Y14330D01*
G37*
G36*
X16610Y14400D02*
X15422Y14425D01*
X16747Y14330D01*
X16610Y14400D01*
G37*
G36*
X15532Y14481D02*
X15422Y14425D01*
X16610Y14400D01*
X15532Y14481D01*
G37*
G36*
X16500Y14510D02*
X15532Y14481D01*
X16610Y14400D01*
X16500Y14510D01*
G37*
G36*
X15619Y14568D02*
X15532Y14481D01*
X16500Y14510D01*
X15619Y14568D01*
G37*
G36*
X16500Y14510D02*
X16433Y14641D01*
X15619Y14568D01*
X16500Y14510D01*
G37*
G36*
X16433Y14641D02*
X15656Y14641D01*
X15619Y14568D01*
X16433Y14641D01*
G37*
G36*
X16610Y15200D02*
X15532Y15119D01*
X15619Y15032D01*
X16610Y15200D01*
G37*
G36*
X15619Y15032D02*
X16500Y15090D01*
X16610Y15200D01*
X15619Y15032D01*
G37*
G36*
X15619Y15032D02*
X15656Y14959D01*
X16500Y15090D01*
X15619Y15032D01*
G37*
G36*
X15656Y14959D02*
X16433Y14959D01*
X16500Y15090D01*
X15656Y14959D01*
G37*
G36*
X17300Y18090D02*
X17370Y17953D01*
X18000Y23506D01*
X17300Y18090D01*
G37*
G36*
X17190Y18200D02*
X17300Y18090D01*
X18000Y23506D01*
X17190Y18200D01*
G37*
G36*
X17053Y18270D02*
X17190Y18200D01*
X18000Y23506D01*
X17053Y18270D01*
G37*
G36*
X18000Y23506D02*
X17847Y23530D01*
X17053Y18270D01*
X18000Y23506D01*
G37*
G36*
X17053Y18270D02*
X17847Y23530D01*
X17153Y23530D01*
X17053Y18270D01*
G37*
G36*
X17290Y23600D02*
X17153Y23530D01*
X17847Y23530D01*
X17290Y23600D01*
G37*
G36*
X17710Y23600D02*
X17290Y23600D01*
X17847Y23530D01*
X17710Y23600D01*
G37*
G36*
X17400Y23710D02*
X17290Y23600D01*
X17710Y23600D01*
X17400Y23710D01*
G37*
G36*
X17600Y23710D02*
X17400Y23710D01*
X17710Y23600D01*
X17600Y23710D01*
G37*
G36*
X17470Y23847D02*
X17400Y23710D01*
X17600Y23710D01*
X17470Y23847D01*
G37*
G36*
X17530Y23847D02*
X17470Y23847D01*
X17600Y23710D01*
X17530Y23847D01*
G37*
G36*
X17494Y24000D02*
X17470Y23847D01*
X17530Y23847D01*
X17494Y24000D01*
G37*
G36*
X17506Y24000D02*
X17494Y24000D01*
X17530Y23847D01*
X17506Y24000D01*
G37*
G36*
X17470Y24153D02*
X17494Y24000D01*
X17506Y24000D01*
X17470Y24153D01*
G37*
G36*
X17530Y24153D02*
X17470Y24153D01*
X17506Y24000D01*
X17530Y24153D01*
G37*
G36*
X17470Y24153D02*
X17530Y24153D01*
X17600Y24290D01*
X17470Y24153D01*
G37*
G36*
X17400Y24290D02*
X17470Y24153D01*
X17600Y24290D01*
X17400Y24290D01*
G37*
G36*
X17290Y24400D02*
X17400Y24290D01*
X17600Y24290D01*
X17290Y24400D01*
G37*
G36*
X17710Y24400D02*
X17290Y24400D01*
X17600Y24290D01*
X17710Y24400D01*
G37*
G36*
X17290Y24400D02*
X17710Y24400D01*
X17847Y24470D01*
X17290Y24400D01*
G37*
G36*
X17847Y24470D02*
X17153Y24470D01*
X17290Y24400D01*
X17847Y24470D01*
G37*
G36*
X17153Y23530D02*
X17000Y23506D01*
X17053Y18270D01*
X17153Y23530D01*
G37*
G36*
X17000Y23506D02*
X16900Y18294D01*
X17053Y18270D01*
X17000Y23506D01*
G37*
G36*
X17000Y23506D02*
X14344Y20079D01*
X16900Y18294D01*
X17000Y23506D01*
G37*
G36*
X16747Y18270D02*
X16900Y18294D01*
X14344Y20079D01*
X16747Y18270D01*
G37*
G36*
X14344Y20079D02*
X14356Y20000D01*
X16747Y18270D01*
X14344Y20079D01*
G37*
G36*
X14344Y19921D02*
X16747Y18270D01*
X14356Y20000D01*
X14344Y19921D01*
G37*
G36*
X16747Y18270D02*
X14344Y19921D01*
X16610Y18200D01*
X16747Y18270D01*
G37*
G36*
X16610Y18200D02*
X14344Y19921D01*
X14308Y19849D01*
X16610Y18200D01*
G37*
G36*
X16500Y18090D02*
X16610Y18200D01*
X14308Y19849D01*
X16500Y18090D01*
G37*
G36*
X14308Y19849D02*
X14251Y19792D01*
X16500Y18090D01*
X14308Y19849D01*
G37*
G36*
X16500Y18090D02*
X14251Y19792D01*
X16430Y17953D01*
X16500Y18090D01*
G37*
G36*
X14251Y19792D02*
X13844Y19321D01*
X16430Y17953D01*
X14251Y19792D01*
G37*
G36*
X16430Y17953D02*
X13844Y19321D01*
X16406Y17800D01*
X16430Y17953D01*
G37*
G36*
X16406Y17800D02*
X13844Y19321D01*
X15234Y16359D01*
X16406Y17800D01*
G37*
G36*
X15234Y16359D02*
X13844Y19321D01*
X13808Y19249D01*
X15234Y16359D01*
G37*
G36*
X13808Y16951D02*
X15234Y16359D01*
X13808Y19249D01*
X13808Y16951D01*
G37*
G36*
X13759Y19201D02*
X13808Y16951D01*
X13808Y19249D01*
X13759Y19201D01*
G37*
G36*
X13759Y19201D02*
X13759Y16999D01*
X13808Y16951D01*
X13759Y19201D01*
G37*
G36*
X13844Y16879D02*
X15234Y16359D01*
X13808Y16951D01*
X13844Y16879D01*
G37*
G36*
X13856Y16800D02*
X15234Y16359D01*
X13844Y16879D01*
X13856Y16800D01*
G37*
G36*
X13856Y16800D02*
X13844Y16721D01*
X15234Y16359D01*
X13856Y16800D01*
G37*
G36*
X13844Y16721D02*
X13808Y16649D01*
X15234Y16359D01*
X13844Y16721D01*
G37*
G36*
X13808Y16649D02*
X13751Y16592D01*
X15234Y16359D01*
X13808Y16649D01*
G37*
G36*
X15234Y16359D02*
X13751Y16592D01*
X13466Y16359D01*
X15234Y16359D01*
G37*
G36*
X13466Y16359D02*
X13751Y16592D01*
X13679Y16556D01*
X13466Y16359D01*
G37*
G36*
X13679Y16556D02*
X13600Y16544D01*
X13466Y16359D01*
X13679Y16556D01*
G37*
G36*
X13521Y16556D02*
X13466Y16359D01*
X13600Y16544D01*
X13521Y16556D01*
G37*
G36*
X13449Y16592D02*
X13466Y16359D01*
X13521Y16556D01*
X13449Y16592D01*
G37*
G36*
X13449Y16592D02*
X13392Y16649D01*
X13466Y16359D01*
X13449Y16592D01*
G37*
G36*
X12959Y16866D02*
X13466Y16359D01*
X13392Y16649D01*
X12959Y16866D01*
G37*
G36*
X13356Y16721D02*
X12959Y16866D01*
X13392Y16649D01*
X13356Y16721D01*
G37*
G36*
X13221Y16856D02*
X12959Y16866D01*
X13356Y16721D01*
X13221Y16856D01*
G37*
G36*
X13300Y16844D02*
X13221Y16856D01*
X13356Y16721D01*
X13300Y16844D01*
G37*
G36*
X13344Y16800D02*
X13300Y16844D01*
X13356Y16721D01*
X13344Y16800D01*
G37*
G36*
X13300Y16844D02*
X13344Y16800D01*
X13352Y16852D01*
X13300Y16844D01*
G37*
G36*
X13149Y16892D02*
X12959Y16866D01*
X13221Y16856D01*
X13149Y16892D01*
G37*
G36*
X13092Y16949D02*
X12959Y16866D01*
X13149Y16892D01*
X13092Y16949D01*
G37*
G36*
X12959Y17001D02*
X12959Y16866D01*
X13092Y16949D01*
X12959Y17001D01*
G37*
G36*
X13056Y17021D02*
X12959Y17001D01*
X13092Y16949D01*
X13056Y17021D01*
G37*
G36*
X13008Y17049D02*
X12959Y17001D01*
X13056Y17021D01*
X13008Y17049D01*
G37*
G36*
X13044Y17100D02*
X13008Y17049D01*
X13056Y17021D01*
X13044Y17100D01*
G37*
G36*
X13008Y17049D02*
X13044Y17100D01*
X13044Y17121D01*
X13008Y17049D01*
G37*
G36*
X13056Y17179D02*
X13044Y17121D01*
X13044Y17100D01*
X13056Y17179D01*
G37*
G36*
X13044Y17121D02*
X13056Y17179D01*
X13056Y17200D01*
X13044Y17121D01*
G37*
G36*
X13092Y17251D02*
X13056Y17200D01*
X13056Y17179D01*
X13092Y17251D01*
G37*
G36*
X13044Y17279D02*
X13056Y17200D01*
X13092Y17251D01*
X13044Y17279D01*
G37*
G36*
X13044Y17279D02*
X13092Y17251D01*
X13141Y17299D01*
X13044Y17279D01*
G37*
G36*
X13008Y17351D02*
X13044Y17279D01*
X13141Y17299D01*
X13008Y17351D01*
G37*
G36*
X12951Y17408D02*
X13008Y17351D01*
X13141Y17299D01*
X12951Y17408D01*
G37*
G36*
X13141Y17299D02*
X13141Y19700D01*
X12951Y17408D01*
X13141Y17299D01*
G37*
G36*
X13141Y19700D02*
X12879Y17444D01*
X12951Y17408D01*
X13141Y19700D01*
G37*
G36*
X16406Y17800D02*
X15234Y16359D01*
X16430Y17647D01*
X16406Y17800D01*
G37*
G36*
X16430Y17647D02*
X15234Y16359D01*
X16461Y17586D01*
X16430Y17647D01*
G37*
G36*
X13844Y19321D02*
X14251Y19792D01*
X14179Y19756D01*
X13844Y19321D01*
G37*
G36*
X13856Y19400D02*
X13844Y19321D01*
X14179Y19756D01*
X13856Y19400D01*
G37*
G36*
X14179Y19756D02*
X14100Y19744D01*
X13856Y19400D01*
X14179Y19756D01*
G37*
G36*
X13844Y19479D02*
X13856Y19400D01*
X14100Y19744D01*
X13844Y19479D01*
G37*
G36*
X14100Y19744D02*
X14021Y19756D01*
X13844Y19479D01*
X14100Y19744D01*
G37*
G36*
X14021Y19756D02*
X13808Y19551D01*
X13844Y19479D01*
X14021Y19756D01*
G37*
G36*
X13949Y19792D02*
X13808Y19551D01*
X14021Y19756D01*
X13949Y19792D01*
G37*
G36*
X13751Y19608D02*
X13808Y19551D01*
X13949Y19792D01*
X13751Y19608D01*
G37*
G36*
X13901Y19841D02*
X13751Y19608D01*
X13949Y19792D01*
X13901Y19841D01*
G37*
G36*
X13901Y19841D02*
X13666Y19841D01*
X13751Y19608D01*
X13901Y19841D01*
G37*
G36*
X13666Y19841D02*
X13679Y19644D01*
X13751Y19608D01*
X13666Y19841D01*
G37*
G36*
X13666Y19841D02*
X13600Y19656D01*
X13679Y19644D01*
X13666Y19841D01*
G37*
G36*
X13521Y19644D02*
X13600Y19656D01*
X13666Y19841D01*
X13521Y19644D01*
G37*
G36*
X13459Y19634D02*
X13521Y19644D01*
X13666Y19841D01*
X13459Y19634D01*
G37*
G36*
X13521Y19644D02*
X13459Y19634D01*
X13459Y19612D01*
X13521Y19644D01*
G37*
G36*
X17000Y23506D02*
X16847Y23530D01*
X14344Y20079D01*
X17000Y23506D01*
G37*
G36*
X21054Y13341D02*
X21059Y13300D01*
X22400Y13841D01*
X21054Y13341D01*
G37*
G36*
X21038Y13379D02*
X21054Y13341D01*
X22400Y13841D01*
X21038Y13379D01*
G37*
G36*
X21012Y13412D02*
X21038Y13379D01*
X22400Y13841D01*
X21012Y13412D01*
G37*
G36*
X20712Y13712D02*
X21012Y13412D01*
X22400Y13841D01*
X20712Y13712D01*
G37*
G36*
X20679Y13738D02*
X20712Y13712D01*
X22400Y13841D01*
X20679Y13738D01*
G37*
G36*
X20641Y13754D02*
X20679Y13738D01*
X22400Y13841D01*
X20641Y13754D01*
G37*
G36*
X20600Y13759D02*
X20641Y13754D01*
X22400Y13841D01*
X20600Y13759D01*
G37*
G36*
X11700Y13841D02*
X20600Y13759D01*
X22400Y13841D01*
X11700Y13841D01*
G37*
G36*
X11700Y13841D02*
X10666Y13759D01*
X20600Y13759D01*
X11700Y13841D01*
G37*
G36*
X11659Y13846D02*
X10666Y13759D01*
X11700Y13841D01*
X11659Y13846D01*
G37*
G36*
X11621Y13862D02*
X10666Y13759D01*
X11659Y13846D01*
X11621Y13862D01*
G37*
G36*
X11588Y13888D02*
X10666Y13759D01*
X11621Y13862D01*
X11588Y13888D01*
G37*
G36*
X11088Y14388D02*
X10666Y13759D01*
X11588Y13888D01*
X11088Y14388D01*
G37*
G36*
X10359Y14066D02*
X10666Y13759D01*
X11088Y14388D01*
X10359Y14066D01*
G37*
G36*
X11062Y14421D02*
X10359Y14066D01*
X11088Y14388D01*
X11062Y14421D01*
G37*
G36*
X11046Y14459D02*
X10359Y14066D01*
X11062Y14421D01*
X11046Y14459D01*
G37*
G36*
X11041Y14500D02*
X10359Y14066D01*
X11046Y14459D01*
X11041Y14500D01*
G37*
G36*
X10359Y15039D02*
X10359Y14066D01*
X11041Y14500D01*
X10359Y15039D01*
G37*
G36*
X10487Y15104D02*
X10359Y15039D01*
X11041Y14500D01*
X10487Y15104D01*
G37*
G36*
X11041Y14500D02*
X10913Y15104D01*
X10487Y15104D01*
X11041Y14500D01*
G37*
G36*
X10596Y15213D02*
X10487Y15104D01*
X10913Y15104D01*
X10596Y15213D01*
G37*
G36*
X10804Y15213D02*
X10596Y15213D01*
X10913Y15104D01*
X10804Y15213D01*
G37*
G36*
X10804Y15213D02*
X10735Y15349D01*
X10596Y15213D01*
X10804Y15213D01*
G37*
G36*
X10735Y15349D02*
X10665Y15349D01*
X10596Y15213D01*
X10735Y15349D01*
G37*
G36*
X10735Y15349D02*
X10711Y15500D01*
X10665Y15349D01*
X10735Y15349D01*
G37*
G36*
X10711Y15500D02*
X10689Y15500D01*
X10665Y15349D01*
X10711Y15500D01*
G37*
G36*
X10689Y15500D02*
X10711Y15500D01*
X10735Y15651D01*
X10689Y15500D01*
G37*
G36*
X10665Y15651D02*
X10689Y15500D01*
X10735Y15651D01*
X10665Y15651D01*
G37*
G36*
X10665Y15651D02*
X10735Y15651D01*
X10804Y15787D01*
X10665Y15651D01*
G37*
G36*
X10596Y15787D02*
X10665Y15651D01*
X10804Y15787D01*
X10596Y15787D01*
G37*
G36*
X10487Y15896D02*
X10596Y15787D01*
X10804Y15787D01*
X10487Y15896D01*
G37*
G36*
X10913Y15896D02*
X10487Y15896D01*
X10804Y15787D01*
X10913Y15896D01*
G37*
G36*
X10913Y15896D02*
X10351Y15965D01*
X10487Y15896D01*
X10913Y15896D01*
G37*
G36*
X10351Y15965D02*
X10913Y15896D01*
X11049Y15965D01*
X10351Y15965D01*
G37*
G36*
X11041Y15039D02*
X10913Y15104D01*
X11041Y14500D01*
X11041Y15039D01*
G37*
G36*
X18871Y647D02*
X18800Y509D01*
X24455Y245D01*
X18871Y647D01*
G37*
G36*
X18800Y509D02*
X18691Y400D01*
X24455Y245D01*
X18800Y509D01*
G37*
G36*
X18691Y400D02*
X18553Y329D01*
X24455Y245D01*
X18691Y400D01*
G37*
G36*
X18553Y329D02*
X18400Y305D01*
X24455Y245D01*
X18553Y329D01*
G37*
G36*
X24455Y245D02*
X18400Y305D01*
X13684Y245D01*
X24455Y245D01*
G37*
G36*
X18400Y305D02*
X17400Y306D01*
X13684Y245D01*
X18400Y305D01*
G37*
G36*
X16400Y305D02*
X13684Y245D01*
X17400Y306D01*
X16400Y305D01*
G37*
G36*
X16553Y329D02*
X16400Y305D01*
X17400Y306D01*
X16553Y329D01*
G37*
G36*
X17247Y330D02*
X16553Y329D01*
X17400Y306D01*
X17247Y330D01*
G37*
G36*
X16691Y400D02*
X16553Y329D01*
X17247Y330D01*
X16691Y400D01*
G37*
G36*
X17110Y400D02*
X16691Y400D01*
X17247Y330D01*
X17110Y400D01*
G37*
G36*
X16800Y509D02*
X16691Y400D01*
X17110Y400D01*
X16800Y509D01*
G37*
G36*
X17000Y510D02*
X16800Y509D01*
X17110Y400D01*
X17000Y510D01*
G37*
G36*
X16871Y647D02*
X16800Y509D01*
X17000Y510D01*
X16871Y647D01*
G37*
G36*
X16930Y647D02*
X16871Y647D01*
X17000Y510D01*
X16930Y647D01*
G37*
G36*
X16895Y800D02*
X16871Y647D01*
X16930Y647D01*
X16895Y800D01*
G37*
G36*
X16906Y800D02*
X16895Y800D01*
X16930Y647D01*
X16906Y800D01*
G37*
G36*
X16895Y800D02*
X16906Y800D01*
X16930Y953D01*
X16895Y800D01*
G37*
G36*
X16871Y953D02*
X16895Y800D01*
X16930Y953D01*
X16871Y953D01*
G37*
G36*
X16871Y953D02*
X16930Y953D01*
X17000Y1090D01*
X16871Y953D01*
G37*
G36*
X16871Y953D02*
X17000Y1090D01*
X16800Y1091D01*
X16871Y953D01*
G37*
G36*
X17000Y1090D02*
X16691Y1200D01*
X16800Y1091D01*
X17000Y1090D01*
G37*
G36*
X16915Y1653D02*
X16691Y1200D01*
X17000Y1090D01*
X16915Y1653D01*
G37*
G36*
X16956Y1636D02*
X16915Y1653D01*
X17000Y1090D01*
X16956Y1636D01*
G37*
G36*
X17110Y1200D02*
X16956Y1636D01*
X17000Y1090D01*
X17110Y1200D01*
G37*
G36*
X17110Y1200D02*
X17000Y1630D01*
X16956Y1636D01*
X17110Y1200D01*
G37*
G36*
X17000Y1630D02*
X17110Y1200D01*
X17247Y1270D01*
X17000Y1630D01*
G37*
G36*
X17000Y1630D02*
X17247Y1270D01*
X17400Y1294D01*
X17000Y1630D01*
G37*
G36*
X18130Y1630D02*
X17000Y1630D01*
X17400Y1294D01*
X18130Y1630D01*
G37*
G36*
X17400Y1294D02*
X17553Y1270D01*
X18130Y1630D01*
X17400Y1294D01*
G37*
G36*
X17553Y1270D02*
X17690Y1200D01*
X18130Y1630D01*
X17553Y1270D01*
G37*
G36*
X18130Y1630D02*
X17690Y1200D01*
X18109Y1200D01*
X18130Y1630D01*
G37*
G36*
X17690Y1200D02*
X18000Y1091D01*
X18109Y1200D01*
X17690Y1200D01*
G37*
G36*
X17690Y1200D02*
X17800Y1090D01*
X18000Y1091D01*
X17690Y1200D01*
G37*
G36*
X17929Y953D02*
X18000Y1091D01*
X17800Y1090D01*
X17929Y953D01*
G37*
G36*
X17800Y1090D02*
X17870Y953D01*
X17929Y953D01*
X17800Y1090D01*
G37*
G36*
X17929Y953D02*
X17870Y953D01*
X17905Y800D01*
X17929Y953D01*
G37*
G36*
X17870Y953D02*
X17894Y800D01*
X17905Y800D01*
X17870Y953D01*
G37*
G36*
X17905Y800D02*
X17894Y800D01*
X17870Y647D01*
X17905Y800D01*
G37*
G36*
X17929Y647D02*
X17905Y800D01*
X17870Y647D01*
X17929Y647D01*
G37*
G36*
X17870Y647D02*
X17800Y510D01*
X17929Y647D01*
X17870Y647D01*
G37*
G36*
X17929Y647D02*
X17800Y510D01*
X18000Y509D01*
X17929Y647D01*
G37*
G36*
X17800Y510D02*
X17690Y400D01*
X18000Y509D01*
X17800Y510D01*
G37*
G36*
X18000Y509D02*
X17690Y400D01*
X18109Y400D01*
X18000Y509D01*
G37*
G36*
X17690Y400D02*
X17553Y330D01*
X18109Y400D01*
X17690Y400D01*
G37*
G36*
X18109Y400D02*
X17553Y330D01*
X18247Y329D01*
X18109Y400D01*
G37*
G36*
X17553Y330D02*
X17400Y306D01*
X18247Y329D01*
X17553Y330D01*
G37*
G36*
X18247Y329D02*
X17400Y306D01*
X18400Y305D01*
X18247Y329D01*
G37*
G36*
X18130Y1630D02*
X18109Y1200D01*
X18230Y1530D01*
X18130Y1630D01*
G37*
G36*
X18109Y1200D02*
X18230Y1262D01*
X18230Y1530D01*
X18109Y1200D01*
G37*
G36*
X16570Y1262D02*
X16691Y1200D01*
X16915Y1653D01*
X16570Y1262D01*
G37*
G36*
X16880Y1680D02*
X16570Y1262D01*
X16915Y1653D01*
X16880Y1680D01*
G37*
G36*
X16880Y1680D02*
X16580Y1980D01*
X16570Y1262D01*
X16880Y1680D01*
G37*
G36*
X16580Y1980D02*
X16570Y1993D01*
X16570Y1262D01*
X16580Y1980D01*
G37*
G36*
X16400Y305D02*
X16247Y329D01*
X13684Y245D01*
X16400Y305D01*
G37*
G36*
X13684Y245D02*
X16247Y329D01*
X14900Y530D01*
X13684Y245D01*
G37*
G36*
X14907Y530D02*
X14900Y530D01*
X16247Y329D01*
X14907Y530D01*
G37*
G36*
X14907Y530D02*
X16247Y329D01*
X16109Y400D01*
X14907Y530D01*
G37*
G36*
X14907Y530D02*
X16109Y400D01*
X14944Y536D01*
X14907Y530D01*
G37*
G36*
X14944Y536D02*
X16109Y400D01*
X14951Y538D01*
X14944Y536D01*
G37*
G36*
X14951Y538D02*
X16109Y400D01*
X14985Y553D01*
X14951Y538D01*
G37*
G36*
X16109Y400D02*
X14991Y557D01*
X14985Y553D01*
X16109Y400D01*
G37*
G36*
X14991Y557D02*
X14988Y555D01*
X14985Y553D01*
X14991Y557D01*
G37*
G36*
X16109Y400D02*
X16000Y509D01*
X14991Y557D01*
X16109Y400D01*
G37*
G36*
X16000Y509D02*
X15020Y580D01*
X14991Y557D01*
X16000Y509D01*
G37*
G36*
X15020Y580D02*
X15005Y568D01*
X14991Y557D01*
X15020Y580D01*
G37*
G36*
X16000Y509D02*
X15025Y585D01*
X15020Y580D01*
X16000Y509D01*
G37*
G36*
X15025Y585D02*
X15022Y583D01*
X15020Y580D01*
X15025Y585D01*
G37*
G36*
X15929Y647D02*
X15025Y585D01*
X16000Y509D01*
X15929Y647D01*
G37*
G36*
X15905Y800D02*
X15025Y585D01*
X15929Y647D01*
X15905Y800D01*
G37*
G36*
X15025Y585D02*
X15905Y800D01*
X15929Y953D01*
X15025Y585D01*
G37*
G36*
X15025Y585D02*
X15929Y953D01*
X16000Y1091D01*
X15025Y585D01*
G37*
G36*
X16075Y1730D02*
X15025Y585D01*
X16000Y1091D01*
X16075Y1730D01*
G37*
G36*
X16075Y1730D02*
X16000Y1091D01*
X16109Y1200D01*
X16075Y1730D01*
G37*
G36*
X16075Y1730D02*
X16109Y1200D01*
X16230Y1262D01*
X16075Y1730D01*
G37*
G36*
X16075Y1730D02*
X16230Y1262D01*
X16230Y1730D01*
X16075Y1730D01*
G37*
G36*
X14951Y538D02*
X14985Y553D01*
X14968Y546D01*
X14951Y538D01*
G37*
G36*
X14944Y536D02*
X14951Y538D01*
X14947Y537D01*
X14944Y536D01*
G37*
G36*
X14907Y530D02*
X14944Y536D01*
X14926Y533D01*
X14907Y530D01*
G37*
G36*
X14904Y530D02*
X14900Y530D01*
X14907Y530D01*
X14904Y530D01*
G37*
G36*
X13791Y300D02*
X13684Y245D01*
X14900Y530D01*
X13791Y300D01*
G37*
G36*
X14900Y530D02*
X13900Y409D01*
X13791Y300D01*
X14900Y530D01*
G37*
G36*
X14900Y530D02*
X13962Y530D01*
X13900Y409D01*
X14900Y530D01*
G37*
G36*
X16870Y6600D02*
X16870Y6320D01*
X16920Y6320D01*
X16870Y6600D01*
G37*
G36*
X19290Y12600D02*
X20741Y13234D01*
X19400Y12710D01*
X19290Y12600D01*
G37*
G36*
X20741Y13234D02*
X19470Y12847D01*
X19400Y12710D01*
X20741Y13234D01*
G37*
G36*
X20741Y13234D02*
X19494Y13000D01*
X19470Y12847D01*
X20741Y13234D01*
G37*
G36*
X20741Y13234D02*
X20534Y13441D01*
X19494Y13000D01*
X20741Y13234D01*
G37*
G36*
X20534Y13441D02*
X19470Y13153D01*
X19494Y13000D01*
X20534Y13441D01*
G37*
G36*
X19400Y13290D02*
X19470Y13153D01*
X20534Y13441D01*
X19400Y13290D01*
G37*
G36*
X19290Y13400D02*
X19400Y13290D01*
X20534Y13441D01*
X19290Y13400D01*
G37*
G36*
X19213Y13441D02*
X19290Y13400D01*
X20534Y13441D01*
X19213Y13441D01*
G37*
G36*
X19213Y13441D02*
X19212Y13439D01*
X19290Y13400D01*
X19213Y13441D01*
G37*
G36*
X18153Y12530D02*
X18000Y12506D01*
X19000Y12506D01*
X18153Y12530D01*
G37*
G36*
X18847Y12530D02*
X18153Y12530D01*
X19000Y12506D01*
X18847Y12530D01*
G37*
G36*
X18290Y12600D02*
X18153Y12530D01*
X18847Y12530D01*
X18290Y12600D01*
G37*
G36*
X18710Y12600D02*
X18290Y12600D01*
X18847Y12530D01*
X18710Y12600D01*
G37*
G36*
X18400Y12710D02*
X18290Y12600D01*
X18710Y12600D01*
X18400Y12710D01*
G37*
G36*
X18600Y12710D02*
X18400Y12710D01*
X18710Y12600D01*
X18600Y12710D01*
G37*
G36*
X18470Y12847D02*
X18400Y12710D01*
X18600Y12710D01*
X18470Y12847D01*
G37*
G36*
X18530Y12847D02*
X18470Y12847D01*
X18600Y12710D01*
X18530Y12847D01*
G37*
G36*
X18494Y13000D02*
X18470Y12847D01*
X18530Y12847D01*
X18494Y13000D01*
G37*
G36*
X18506Y13000D02*
X18494Y13000D01*
X18530Y12847D01*
X18506Y13000D01*
G37*
G36*
X18470Y13153D02*
X18494Y13000D01*
X18506Y13000D01*
X18470Y13153D01*
G37*
G36*
X18530Y13153D02*
X18470Y13153D01*
X18506Y13000D01*
X18530Y13153D01*
G37*
G36*
X18470Y13153D02*
X18530Y13153D01*
X18600Y13290D01*
X18470Y13153D01*
G37*
G36*
X18400Y13290D02*
X18470Y13153D01*
X18600Y13290D01*
X18400Y13290D01*
G37*
G36*
X18600Y13290D02*
X18710Y13400D01*
X18400Y13290D01*
X18600Y13290D01*
G37*
G36*
X18710Y13400D02*
X18290Y13400D01*
X18400Y13290D01*
X18710Y13400D01*
G37*
G36*
X18710Y13400D02*
X18213Y13441D01*
X18290Y13400D01*
X18710Y13400D01*
G37*
G36*
X18213Y13441D02*
X18212Y13439D01*
X18290Y13400D01*
X18213Y13441D01*
G37*
G36*
X18213Y13441D02*
X18710Y13400D01*
X18787Y13441D01*
X18213Y13441D01*
G37*
G36*
X18787Y13441D02*
X18710Y13400D01*
X18788Y13439D01*
X18787Y13441D01*
G37*
G36*
X17153Y12530D02*
X17000Y12506D01*
X18000Y12506D01*
X17153Y12530D01*
G37*
G36*
X17847Y12530D02*
X17153Y12530D01*
X18000Y12506D01*
X17847Y12530D01*
G37*
G36*
X17290Y12600D02*
X17153Y12530D01*
X17847Y12530D01*
X17290Y12600D01*
G37*
G36*
X17710Y12600D02*
X17290Y12600D01*
X17847Y12530D01*
X17710Y12600D01*
G37*
G36*
X17400Y12710D02*
X17290Y12600D01*
X17710Y12600D01*
X17400Y12710D01*
G37*
G36*
X17600Y12710D02*
X17400Y12710D01*
X17710Y12600D01*
X17600Y12710D01*
G37*
G36*
X17470Y12847D02*
X17400Y12710D01*
X17600Y12710D01*
X17470Y12847D01*
G37*
G36*
X17530Y12847D02*
X17470Y12847D01*
X17600Y12710D01*
X17530Y12847D01*
G37*
G36*
X17494Y13000D02*
X17470Y12847D01*
X17530Y12847D01*
X17494Y13000D01*
G37*
G36*
X17506Y13000D02*
X17494Y13000D01*
X17530Y12847D01*
X17506Y13000D01*
G37*
G36*
X17470Y13153D02*
X17494Y13000D01*
X17506Y13000D01*
X17470Y13153D01*
G37*
G36*
X17530Y13153D02*
X17470Y13153D01*
X17506Y13000D01*
X17530Y13153D01*
G37*
G36*
X17470Y13153D02*
X17530Y13153D01*
X17600Y13290D01*
X17470Y13153D01*
G37*
G36*
X17400Y13290D02*
X17470Y13153D01*
X17600Y13290D01*
X17400Y13290D01*
G37*
G36*
X17600Y13290D02*
X17710Y13400D01*
X17400Y13290D01*
X17600Y13290D01*
G37*
G36*
X17710Y13400D02*
X17290Y13400D01*
X17400Y13290D01*
X17710Y13400D01*
G37*
G36*
X17710Y13400D02*
X17213Y13441D01*
X17290Y13400D01*
X17710Y13400D01*
G37*
G36*
X17213Y13441D02*
X17212Y13439D01*
X17290Y13400D01*
X17213Y13441D01*
G37*
G36*
X17213Y13441D02*
X17710Y13400D01*
X17787Y13441D01*
X17213Y13441D01*
G37*
G36*
X17787Y13441D02*
X17710Y13400D01*
X17788Y13439D01*
X17787Y13441D01*
G37*
G36*
X16153Y12530D02*
X16000Y12506D01*
X17000Y12506D01*
X16153Y12530D01*
G37*
G36*
X16847Y12530D02*
X16153Y12530D01*
X17000Y12506D01*
X16847Y12530D01*
G37*
G36*
X16290Y12600D02*
X16153Y12530D01*
X16847Y12530D01*
X16290Y12600D01*
G37*
G36*
X16710Y12600D02*
X16290Y12600D01*
X16847Y12530D01*
X16710Y12600D01*
G37*
G36*
X16400Y12710D02*
X16290Y12600D01*
X16710Y12600D01*
X16400Y12710D01*
G37*
G36*
X16600Y12710D02*
X16400Y12710D01*
X16710Y12600D01*
X16600Y12710D01*
G37*
G36*
X16470Y12847D02*
X16400Y12710D01*
X16600Y12710D01*
X16470Y12847D01*
G37*
G36*
X16530Y12847D02*
X16470Y12847D01*
X16600Y12710D01*
X16530Y12847D01*
G37*
G36*
X16494Y13000D02*
X16470Y12847D01*
X16530Y12847D01*
X16494Y13000D01*
G37*
G36*
X16506Y13000D02*
X16494Y13000D01*
X16530Y12847D01*
X16506Y13000D01*
G37*
G36*
X16470Y13153D02*
X16494Y13000D01*
X16506Y13000D01*
X16470Y13153D01*
G37*
G36*
X16530Y13153D02*
X16470Y13153D01*
X16506Y13000D01*
X16530Y13153D01*
G37*
G36*
X16470Y13153D02*
X16530Y13153D01*
X16600Y13290D01*
X16470Y13153D01*
G37*
G36*
X16400Y13290D02*
X16470Y13153D01*
X16600Y13290D01*
X16400Y13290D01*
G37*
G36*
X16600Y13290D02*
X16710Y13400D01*
X16400Y13290D01*
X16600Y13290D01*
G37*
G36*
X16710Y13400D02*
X16290Y13400D01*
X16400Y13290D01*
X16710Y13400D01*
G37*
G36*
X16710Y13400D02*
X16213Y13441D01*
X16290Y13400D01*
X16710Y13400D01*
G37*
G36*
X16213Y13441D02*
X16212Y13439D01*
X16290Y13400D01*
X16213Y13441D01*
G37*
G36*
X16213Y13441D02*
X16710Y13400D01*
X16787Y13441D01*
X16213Y13441D01*
G37*
G36*
X16787Y13441D02*
X16710Y13400D01*
X16788Y13439D01*
X16787Y13441D01*
G37*
G36*
X10895Y9915D02*
X10896Y8784D01*
X11115Y9695D01*
X10895Y9915D01*
G37*
G36*
X11115Y9695D02*
X10896Y8784D01*
X11116Y9004D01*
X11115Y9695D01*
G37*
G36*
X11115Y9695D02*
X11116Y9004D01*
X11393Y9554D01*
X11115Y9695D01*
G37*
G36*
X11393Y9554D02*
X11116Y9004D01*
X11393Y9145D01*
X11393Y9554D01*
G37*
G36*
X11393Y9554D02*
X11393Y9145D01*
X11700Y9505D01*
X11393Y9554D01*
G37*
G36*
X11393Y9145D02*
X11700Y9194D01*
X11700Y9505D01*
X11393Y9145D01*
G37*
G36*
X11700Y9505D02*
X11700Y9194D01*
X12007Y9145D01*
X11700Y9505D01*
G37*
G36*
X11700Y9505D02*
X12007Y9145D01*
X12007Y9554D01*
X11700Y9505D01*
G37*
G36*
X12271Y9688D02*
X12007Y9554D01*
X12007Y9145D01*
X12271Y9688D01*
G37*
G36*
X12284Y9004D02*
X12271Y9688D01*
X12007Y9145D01*
X12284Y9004D01*
G37*
G36*
X12271Y9688D02*
X12284Y9004D01*
X12830Y9130D01*
X12271Y9688D01*
G37*
G36*
X12284Y9004D02*
X12504Y8784D01*
X12830Y9130D01*
X12284Y9004D01*
G37*
G36*
X12504Y8784D02*
X12645Y8507D01*
X12830Y9130D01*
X12504Y8784D01*
G37*
G36*
X12645Y8507D02*
X12694Y8200D01*
X12830Y9130D01*
X12645Y8507D01*
G37*
G36*
X12694Y8200D02*
X12830Y7000D01*
X12830Y9130D01*
X12694Y8200D01*
G37*
G36*
X12645Y7893D02*
X12830Y7000D01*
X12694Y8200D01*
X12645Y7893D01*
G37*
G36*
X12504Y7616D02*
X12830Y7000D01*
X12645Y7893D01*
X12504Y7616D01*
G37*
G36*
X12504Y7616D02*
X12284Y7396D01*
X12830Y7000D01*
X12504Y7616D01*
G37*
G36*
X12284Y7396D02*
X12007Y7255D01*
X12830Y7000D01*
X12284Y7396D01*
G37*
G36*
X12830Y7000D02*
X12007Y7255D01*
X12836Y6956D01*
X12830Y7000D01*
G37*
G36*
X12836Y6956D02*
X12007Y7255D01*
X12500Y6318D01*
X12836Y6956D01*
G37*
G36*
X12007Y7255D02*
X12159Y6264D01*
X12500Y6318D01*
X12007Y7255D01*
G37*
G36*
X12007Y7255D02*
X11700Y7206D01*
X12159Y6264D01*
X12007Y7255D01*
G37*
G36*
X11700Y7206D02*
X11851Y6107D01*
X12159Y6264D01*
X11700Y7206D01*
G37*
G36*
X11700Y7206D02*
X11393Y7255D01*
X11851Y6107D01*
X11700Y7206D01*
G37*
G36*
X11851Y6107D02*
X11393Y7255D01*
X11607Y5862D01*
X11851Y6107D01*
G37*
G36*
X11116Y7396D02*
X11607Y5862D01*
X11393Y7255D01*
X11116Y7396D01*
G37*
G36*
X11607Y5862D02*
X11116Y7396D01*
X11450Y5555D01*
X11607Y5862D01*
G37*
G36*
X11450Y5555D02*
X11116Y7396D01*
X11396Y5213D01*
X11450Y5555D01*
G37*
G36*
X11116Y7396D02*
X10896Y7616D01*
X11396Y5213D01*
X11116Y7396D01*
G37*
G36*
X12836Y6956D02*
X12500Y6318D01*
X12853Y6915D01*
X12836Y6956D01*
G37*
G36*
X12853Y6915D02*
X12500Y6318D01*
X12880Y6880D01*
X12853Y6915D01*
G37*
G36*
X12500Y6318D02*
X12841Y6264D01*
X12880Y6880D01*
X12500Y6318D01*
G37*
G36*
X12880Y6880D02*
X12841Y6264D01*
X13080Y6680D01*
X12880Y6880D01*
G37*
G36*
X13080Y6680D02*
X12841Y6264D01*
X13115Y6653D01*
X13080Y6680D01*
G37*
G36*
X13115Y6653D02*
X12841Y6264D01*
X13156Y6636D01*
X13115Y6653D01*
G37*
G36*
X13156Y6636D02*
X12841Y6264D01*
X13149Y6107D01*
X13156Y6636D01*
G37*
G36*
X13200Y6630D02*
X13156Y6636D01*
X13149Y6107D01*
X13200Y6630D01*
G37*
G36*
X13149Y6107D02*
X13315Y6147D01*
X13200Y6630D01*
X13149Y6107D01*
G37*
G36*
X13200Y6630D02*
X13315Y6147D01*
X13356Y6164D01*
X13200Y6630D01*
G37*
G36*
X13200Y6630D02*
X13356Y6164D01*
X13400Y6170D01*
X13200Y6630D01*
G37*
G36*
X13200Y6630D02*
X13400Y6170D01*
X16180Y6320D01*
X13200Y6630D01*
G37*
G36*
X13400Y6170D02*
X16180Y6170D01*
X16180Y6320D01*
X13400Y6170D01*
G37*
G36*
X16180Y6320D02*
X16430Y6630D01*
X13200Y6630D01*
X16180Y6320D01*
G37*
G36*
X16430Y6630D02*
X16180Y6320D01*
X16530Y6530D01*
X16430Y6630D01*
G37*
G36*
X16180Y6320D02*
X16530Y6320D01*
X16530Y6530D01*
X16180Y6320D01*
G37*
G36*
X13315Y6147D02*
X13149Y6107D01*
X13280Y6120D01*
X13315Y6147D01*
G37*
G36*
X13280Y6120D02*
X13149Y6107D01*
X13208Y6048D01*
X13280Y6120D01*
G37*
G36*
X9359Y16934D02*
X9359Y15961D01*
X9487Y15896D01*
X9359Y16934D01*
G37*
G36*
X11487Y15104D02*
X11359Y15039D01*
X11359Y14566D01*
X11487Y15104D01*
G37*
G36*
X12641Y16800D02*
X12592Y17049D01*
X12556Y17121D01*
X12641Y16800D01*
G37*
G36*
X12641Y17001D02*
X12592Y17049D01*
X12641Y16800D01*
X12641Y17001D01*
G37*
G36*
X13949Y20208D02*
X13600Y20159D01*
X13901Y20159D01*
X13949Y20208D01*
G37*
G36*
X9994Y25750D02*
X11000Y24494D01*
X11153Y24470D01*
X9994Y25750D01*
G37*
G36*
X9994Y25750D02*
X9970Y25597D01*
X11000Y24494D01*
X9994Y25750D01*
G37*
G36*
X10847Y24470D02*
X11000Y24494D01*
X9970Y25597D01*
X10847Y24470D01*
G37*
G36*
X9970Y25597D02*
X10153Y24470D01*
X10847Y24470D01*
X9970Y25597D01*
G37*
G36*
X10153Y24470D02*
X10290Y24400D01*
X10847Y24470D01*
X10153Y24470D01*
G37*
G36*
X10290Y24400D02*
X10710Y24400D01*
X10847Y24470D01*
X10290Y24400D01*
G37*
G36*
X10710Y24400D02*
X10290Y24400D01*
X10600Y24290D01*
X10710Y24400D01*
G37*
G36*
X10290Y24400D02*
X10400Y24290D01*
X10600Y24290D01*
X10290Y24400D01*
G37*
G36*
X10400Y24290D02*
X10470Y24153D01*
X10600Y24290D01*
X10400Y24290D01*
G37*
G36*
X10470Y24153D02*
X10530Y24153D01*
X10600Y24290D01*
X10470Y24153D01*
G37*
G36*
X10530Y24153D02*
X10470Y24153D01*
X10506Y24000D01*
X10530Y24153D01*
G37*
G36*
X10470Y24153D02*
X10494Y24000D01*
X10506Y24000D01*
X10470Y24153D01*
G37*
G36*
X10506Y24000D02*
X10494Y24000D01*
X10530Y23847D01*
X10506Y24000D01*
G37*
G36*
X10494Y24000D02*
X10470Y23847D01*
X10530Y23847D01*
X10494Y24000D01*
G37*
G36*
X10530Y23847D02*
X10470Y23847D01*
X10600Y23710D01*
X10530Y23847D01*
G37*
G36*
X10470Y23847D02*
X10400Y23710D01*
X10600Y23710D01*
X10470Y23847D01*
G37*
G36*
X10600Y23710D02*
X10400Y23710D01*
X10710Y23600D01*
X10600Y23710D01*
G37*
G36*
X10400Y23710D02*
X10290Y23600D01*
X10710Y23600D01*
X10400Y23710D01*
G37*
G36*
X10710Y23600D02*
X10290Y23600D01*
X10847Y23530D01*
X10710Y23600D01*
G37*
G36*
X10290Y23600D02*
X10153Y23530D01*
X10847Y23530D01*
X10290Y23600D01*
G37*
G36*
X10847Y23530D02*
X10153Y23530D01*
X11000Y23506D01*
X10847Y23530D01*
G37*
G36*
X10153Y23530D02*
X10000Y23506D01*
X11000Y23506D01*
X10153Y23530D01*
G37*
G36*
X10153Y24470D02*
X9970Y25597D01*
X9900Y25460D01*
X10153Y24470D01*
G37*
G36*
X10153Y24470D02*
X9900Y25460D01*
X9790Y25350D01*
X10153Y24470D01*
G37*
G36*
X10000Y24494D02*
X10153Y24470D01*
X9790Y25350D01*
X10000Y24494D01*
G37*
G36*
X9790Y25350D02*
X9653Y25280D01*
X10000Y24494D01*
X9790Y25350D01*
G37*
G36*
X10000Y24494D02*
X9653Y25280D01*
X9847Y24470D01*
X10000Y24494D01*
G37*
G36*
X9653Y25280D02*
X9500Y25256D01*
X9847Y24470D01*
X9653Y25280D01*
G37*
G36*
X9500Y25256D02*
X9710Y24400D01*
X9847Y24470D01*
X9500Y25256D01*
G37*
G36*
X9500Y25256D02*
X9290Y24400D01*
X9710Y24400D01*
X9500Y25256D01*
G37*
G36*
X9290Y24400D02*
X9600Y24290D01*
X9710Y24400D01*
X9290Y24400D01*
G37*
G36*
X9600Y24290D02*
X9290Y24400D01*
X9400Y24290D01*
X9600Y24290D01*
G37*
G36*
X9470Y24153D02*
X9600Y24290D01*
X9400Y24290D01*
X9470Y24153D01*
G37*
G36*
X9600Y24290D02*
X9470Y24153D01*
X9530Y24153D01*
X9600Y24290D01*
G37*
G36*
X9530Y24153D02*
X9470Y24153D01*
X9506Y24000D01*
X9530Y24153D01*
G37*
G36*
X9470Y24153D02*
X9494Y24000D01*
X9506Y24000D01*
X9470Y24153D01*
G37*
G36*
X9506Y24000D02*
X9494Y24000D01*
X9530Y23847D01*
X9506Y24000D01*
G37*
G36*
X9494Y24000D02*
X9470Y23847D01*
X9530Y23847D01*
X9494Y24000D01*
G37*
G36*
X9530Y23847D02*
X9470Y23847D01*
X9600Y23710D01*
X9530Y23847D01*
G37*
G36*
X9470Y23847D02*
X9400Y23710D01*
X9600Y23710D01*
X9470Y23847D01*
G37*
G36*
X9600Y23710D02*
X9400Y23710D01*
X9710Y23600D01*
X9600Y23710D01*
G37*
G36*
X9400Y23710D02*
X9290Y23600D01*
X9710Y23600D01*
X9400Y23710D01*
G37*
G36*
X9710Y23600D02*
X9290Y23600D01*
X9847Y23530D01*
X9710Y23600D01*
G37*
G36*
X9290Y23600D02*
X9153Y23530D01*
X9847Y23530D01*
X9290Y23600D01*
G37*
G36*
X9847Y23530D02*
X9153Y23530D01*
X10000Y23506D01*
X9847Y23530D01*
G37*
G36*
X9153Y23530D02*
X9000Y23506D01*
X10000Y23506D01*
X9153Y23530D01*
G37*
G36*
X9153Y24470D02*
X9290Y24400D01*
X9500Y25256D01*
X9153Y24470D01*
G37*
G36*
X9347Y25280D02*
X9153Y24470D01*
X9500Y25256D01*
X9347Y25280D01*
G37*
G36*
X9347Y25280D02*
X9000Y24494D01*
X9153Y24470D01*
X9347Y25280D01*
G37*
G36*
X9210Y25350D02*
X9000Y24494D01*
X9347Y25280D01*
X9210Y25350D01*
G37*
G36*
X9210Y25350D02*
X8847Y24470D01*
X9000Y24494D01*
X9210Y25350D01*
G37*
G36*
X9100Y25460D02*
X8847Y24470D01*
X9210Y25350D01*
X9100Y25460D01*
G37*
G36*
X1385Y25365D02*
X615Y25365D01*
X1351Y21965D01*
X1385Y25365D01*
G37*
G36*
X615Y25365D02*
X1200Y21989D01*
X1351Y21965D01*
X615Y25365D01*
G37*
G36*
X615Y25365D02*
X1049Y21965D01*
X1200Y21989D01*
X615Y25365D01*
G37*
G36*
X615Y25365D02*
X913Y21896D01*
X1049Y21965D01*
X615Y25365D01*
G37*
G36*
X615Y25365D02*
X804Y21787D01*
X913Y21896D01*
X615Y25365D01*
G37*
G36*
X615Y25365D02*
X735Y21651D01*
X804Y21787D01*
X615Y25365D01*
G37*
G36*
X615Y25365D02*
X711Y21500D01*
X735Y21651D01*
X615Y25365D01*
G37*
G36*
X2200Y21011D02*
X2049Y21035D01*
X2049Y15965D01*
X2200Y21011D01*
G37*
G36*
X2200Y21011D02*
X2049Y15965D01*
X2200Y15989D01*
X2200Y21011D01*
G37*
G36*
X2351Y21035D02*
X2200Y21011D01*
X2200Y15989D01*
X2351Y21035D01*
G37*
G36*
X2351Y15965D02*
X2351Y21035D01*
X2200Y15989D01*
X2351Y15965D01*
G37*
G36*
X1351Y15965D02*
X1351Y21035D01*
X1200Y15989D01*
X1351Y15965D01*
G37*
G36*
X1351Y21035D02*
X1200Y21011D01*
X1200Y15989D01*
X1351Y21035D01*
G37*
G36*
X1049Y15965D02*
X1200Y15989D01*
X1200Y21011D01*
X1049Y15965D01*
G37*
G36*
X1049Y21035D02*
X1049Y15965D01*
X1200Y21011D01*
X1049Y21035D01*
G37*
G36*
X913Y15896D02*
X1049Y15965D01*
X1049Y21035D01*
X913Y15896D01*
G37*
G36*
X913Y21104D02*
X913Y15896D01*
X1049Y21035D01*
X913Y21104D01*
G37*
G36*
X804Y15787D02*
X913Y15896D01*
X913Y21104D01*
X804Y15787D01*
G37*
G36*
X804Y21213D02*
X804Y15787D01*
X913Y21104D01*
X804Y21213D01*
G37*
G36*
X804Y21213D02*
X735Y21349D01*
X804Y15787D01*
X804Y21213D01*
G37*
G36*
X735Y21349D02*
X735Y15651D01*
X804Y15787D01*
X735Y21349D01*
G37*
G36*
X711Y15500D02*
X735Y15651D01*
X735Y21349D01*
X711Y15500D01*
G37*
G36*
X711Y21500D02*
X711Y15500D01*
X735Y21349D01*
X711Y21500D01*
G37*
G36*
X2162Y14379D02*
X1487Y15104D01*
X1351Y15035D01*
X2162Y14379D01*
G37*
G36*
X2162Y14379D02*
X1351Y15035D01*
X2146Y14341D01*
X2162Y14379D01*
G37*
G36*
X2146Y14341D02*
X1351Y15035D01*
X2141Y14300D01*
X2146Y14341D01*
G37*
G36*
X1351Y15035D02*
X1200Y15011D01*
X2141Y14300D01*
X1351Y15035D01*
G37*
G36*
X1200Y15011D02*
X1049Y15035D01*
X2141Y14300D01*
X1200Y15011D01*
G37*
G36*
X2141Y14300D02*
X1049Y15035D01*
X597Y7720D01*
X2141Y14300D01*
G37*
G36*
X1049Y15035D02*
X913Y15104D01*
X597Y7720D01*
X1049Y15035D01*
G37*
G36*
X913Y15104D02*
X804Y15213D01*
X597Y7720D01*
X913Y15104D01*
G37*
G36*
X597Y7720D02*
X804Y15213D01*
X460Y7650D01*
X597Y7720D01*
G37*
G36*
X804Y15213D02*
X735Y15349D01*
X460Y7650D01*
X804Y15213D01*
G37*
G36*
X460Y7650D02*
X735Y15349D01*
X711Y15500D01*
X460Y7650D01*
G37*
G36*
X460Y7650D02*
X711Y15500D01*
X350Y7540D01*
X460Y7650D01*
G37*
G36*
X350Y7540D02*
X711Y15500D01*
X280Y7403D01*
X350Y7540D01*
G37*
G36*
X711Y15500D02*
X256Y7250D01*
X280Y7403D01*
X711Y15500D01*
G37*
G36*
X750Y7744D02*
X2141Y14300D01*
X597Y7720D01*
X750Y7744D01*
G37*
G36*
X2141Y14300D02*
X750Y7744D01*
X903Y7720D01*
X2141Y14300D01*
G37*
G36*
X903Y7720D02*
X1040Y7650D01*
X2141Y14300D01*
X903Y7720D01*
G37*
G36*
X1040Y7650D02*
X1150Y7540D01*
X2141Y14300D01*
X1040Y7650D01*
G37*
G36*
X1150Y7540D02*
X2141Y6666D01*
X2141Y14300D01*
X1150Y7540D01*
G37*
G36*
X2141Y6666D02*
X1150Y7540D01*
X1220Y7403D01*
X2141Y6666D01*
G37*
G36*
X1244Y7250D02*
X2141Y6666D01*
X1220Y7403D01*
X1244Y7250D01*
G37*
G36*
X1244Y7250D02*
X1220Y7097D01*
X2141Y6666D01*
X1244Y7250D01*
G37*
G36*
X1220Y7097D02*
X1884Y6409D01*
X2141Y6666D01*
X1220Y7097D01*
G37*
G36*
X1220Y7097D02*
X1150Y6960D01*
X1884Y6409D01*
X1220Y7097D01*
G37*
G36*
X1884Y6409D02*
X1150Y6960D01*
X1150Y6540D01*
X1884Y6409D01*
G37*
G36*
X1150Y6960D02*
X1040Y6650D01*
X1150Y6540D01*
X1150Y6960D01*
G37*
G36*
X1150Y6960D02*
X1040Y6850D01*
X1040Y6650D01*
X1150Y6960D01*
G37*
G36*
X903Y6780D02*
X1040Y6650D01*
X1040Y6850D01*
X903Y6780D01*
G37*
G36*
X903Y6780D02*
X903Y6720D01*
X1040Y6650D01*
X903Y6780D01*
G37*
G36*
X903Y6780D02*
X750Y6744D01*
X903Y6720D01*
X903Y6780D01*
G37*
G36*
X903Y6780D02*
X750Y6756D01*
X750Y6744D01*
X903Y6780D01*
G37*
G36*
X750Y6756D02*
X597Y6780D01*
X750Y6744D01*
X750Y6756D01*
G37*
G36*
X597Y6780D02*
X597Y6720D01*
X750Y6744D01*
X597Y6780D01*
G37*
G36*
X597Y6780D02*
X460Y6850D01*
X597Y6720D01*
X597Y6780D01*
G37*
G36*
X460Y6850D02*
X460Y6650D01*
X597Y6720D01*
X460Y6850D01*
G37*
G36*
X460Y6850D02*
X350Y6960D01*
X460Y6650D01*
X460Y6850D01*
G37*
G36*
X350Y6960D02*
X350Y6540D01*
X460Y6650D01*
X350Y6960D01*
G37*
G36*
X350Y6960D02*
X280Y7097D01*
X350Y6540D01*
X350Y6960D01*
G37*
G36*
X280Y7097D02*
X280Y6403D01*
X350Y6540D01*
X280Y7097D01*
G37*
G36*
X256Y6250D02*
X280Y6403D01*
X280Y7097D01*
X256Y6250D01*
G37*
G36*
X256Y7250D02*
X256Y6250D01*
X280Y7097D01*
X256Y7250D01*
G37*
G36*
X1217Y6409D02*
X1884Y6409D01*
X1150Y6540D01*
X1217Y6409D01*
G37*
G36*
X2800Y14959D02*
X2804Y15213D01*
X2759Y14954D01*
X2800Y14959D01*
G37*
G36*
X2804Y15213D02*
X2800Y14959D01*
X2913Y15104D01*
X2804Y15213D01*
G37*
G36*
X2913Y15104D02*
X2800Y14959D01*
X3049Y15035D01*
X2913Y15104D01*
G37*
G36*
X3049Y15035D02*
X2800Y14959D01*
X3200Y15011D01*
X3049Y15035D01*
G37*
G36*
X3200Y15011D02*
X2800Y14959D01*
X4434Y14959D01*
X3200Y15011D01*
G37*
G36*
X4200Y15011D02*
X3200Y15011D01*
X4434Y14959D01*
X4200Y15011D01*
G37*
G36*
X4351Y15035D02*
X4200Y15011D01*
X4434Y14959D01*
X4351Y15035D01*
G37*
G36*
X4351Y15035D02*
X4434Y14959D01*
X4487Y15104D01*
X4351Y15035D01*
G37*
G36*
X4487Y15104D02*
X4434Y14959D01*
X4596Y15213D01*
X4487Y15104D01*
G37*
G36*
X4434Y14959D02*
X4765Y15290D01*
X4596Y15213D01*
X4434Y14959D01*
G37*
G36*
X4665Y15349D02*
X4596Y15213D01*
X4765Y15290D01*
X4665Y15349D01*
G37*
G36*
X4735Y15349D02*
X4665Y15349D01*
X4765Y15290D01*
X4735Y15349D01*
G37*
G36*
X4735Y15349D02*
X4711Y15500D01*
X4665Y15349D01*
X4735Y15349D01*
G37*
G36*
X4711Y15500D02*
X4689Y15500D01*
X4665Y15349D01*
X4711Y15500D01*
G37*
G36*
X4689Y15500D02*
X4711Y15500D01*
X4735Y15651D01*
X4689Y15500D01*
G37*
G36*
X4665Y15651D02*
X4689Y15500D01*
X4735Y15651D01*
X4665Y15651D01*
G37*
G36*
X4665Y15651D02*
X4735Y15651D01*
X4804Y15787D01*
X4665Y15651D01*
G37*
G36*
X4596Y15787D02*
X4665Y15651D01*
X4804Y15787D01*
X4596Y15787D01*
G37*
G36*
X4487Y15896D02*
X4596Y15787D01*
X4804Y15787D01*
X4487Y15896D01*
G37*
G36*
X4913Y15896D02*
X4487Y15896D01*
X4804Y15787D01*
X4913Y15896D01*
G37*
G36*
X4487Y15896D02*
X4913Y15896D01*
X5049Y15965D01*
X4487Y15896D01*
G37*
G36*
X4351Y15965D02*
X4487Y15896D01*
X5049Y15965D01*
X4351Y15965D01*
G37*
G36*
X3351Y15035D02*
X3200Y15011D01*
X4200Y15011D01*
X3351Y15035D01*
G37*
G36*
X4049Y15035D02*
X3351Y15035D01*
X4200Y15011D01*
X4049Y15035D01*
G37*
G36*
X3487Y15104D02*
X3351Y15035D01*
X4049Y15035D01*
X3487Y15104D01*
G37*
G36*
X3913Y15104D02*
X3487Y15104D01*
X4049Y15035D01*
X3913Y15104D01*
G37*
G36*
X3596Y15213D02*
X3487Y15104D01*
X3913Y15104D01*
X3596Y15213D01*
G37*
G36*
X3804Y15213D02*
X3596Y15213D01*
X3913Y15104D01*
X3804Y15213D01*
G37*
G36*
X3804Y15213D02*
X3735Y15349D01*
X3596Y15213D01*
X3804Y15213D01*
G37*
G36*
X3735Y15349D02*
X3665Y15349D01*
X3596Y15213D01*
X3735Y15349D01*
G37*
G36*
X3735Y15349D02*
X3711Y15500D01*
X3665Y15349D01*
X3735Y15349D01*
G37*
G36*
X3711Y15500D02*
X3689Y15500D01*
X3665Y15349D01*
X3711Y15500D01*
G37*
G36*
X3689Y15500D02*
X3711Y15500D01*
X3735Y15651D01*
X3689Y15500D01*
G37*
G36*
X3665Y15651D02*
X3689Y15500D01*
X3735Y15651D01*
X3665Y15651D01*
G37*
G36*
X3665Y15651D02*
X3735Y15651D01*
X3804Y15787D01*
X3665Y15651D01*
G37*
G36*
X3596Y15787D02*
X3665Y15651D01*
X3804Y15787D01*
X3596Y15787D01*
G37*
G36*
X3487Y15896D02*
X3596Y15787D01*
X3804Y15787D01*
X3487Y15896D01*
G37*
G36*
X3913Y15896D02*
X3487Y15896D01*
X3804Y15787D01*
X3913Y15896D01*
G37*
G36*
X3487Y15896D02*
X3913Y15896D01*
X4049Y15965D01*
X3487Y15896D01*
G37*
G36*
X3351Y15965D02*
X3487Y15896D01*
X4049Y15965D01*
X3351Y15965D01*
G37*
G36*
X3351Y21035D02*
X3351Y15965D01*
X4049Y15965D01*
X3351Y21035D01*
G37*
G36*
X3351Y15965D02*
X3351Y21035D01*
X3200Y15989D01*
X3351Y15965D01*
G37*
G36*
X3351Y21035D02*
X3200Y21011D01*
X3200Y15989D01*
X3351Y21035D01*
G37*
G36*
X3200Y21011D02*
X3049Y15965D01*
X3200Y15989D01*
X3200Y21011D01*
G37*
G36*
X3200Y21011D02*
X3049Y21035D01*
X3049Y15965D01*
X3200Y21011D01*
G37*
G36*
X4351Y21035D02*
X4200Y21011D01*
X7041Y19500D01*
X4351Y21035D01*
G37*
G36*
X7041Y19500D02*
X5049Y21035D01*
X4351Y21035D01*
X7041Y19500D01*
G37*
G36*
X4487Y21104D02*
X4351Y21035D01*
X5049Y21035D01*
X4487Y21104D01*
G37*
G36*
X4913Y21104D02*
X4487Y21104D01*
X5049Y21035D01*
X4913Y21104D01*
G37*
G36*
X4596Y21213D02*
X4487Y21104D01*
X4913Y21104D01*
X4596Y21213D01*
G37*
G36*
X4804Y21213D02*
X4596Y21213D01*
X4913Y21104D01*
X4804Y21213D01*
G37*
G36*
X4804Y21213D02*
X4735Y21349D01*
X4596Y21213D01*
X4804Y21213D01*
G37*
G36*
X4735Y21349D02*
X4665Y21349D01*
X4596Y21213D01*
X4735Y21349D01*
G37*
G36*
X4735Y21349D02*
X4711Y21500D01*
X4665Y21349D01*
X4735Y21349D01*
G37*
G36*
X4711Y21500D02*
X4689Y21500D01*
X4665Y21349D01*
X4711Y21500D01*
G37*
G36*
X4689Y21500D02*
X4711Y21500D01*
X4735Y21651D01*
X4689Y21500D01*
G37*
G36*
X4665Y21651D02*
X4689Y21500D01*
X4735Y21651D01*
X4665Y21651D01*
G37*
G36*
X4665Y21651D02*
X4735Y21651D01*
X4804Y21787D01*
X4665Y21651D01*
G37*
G36*
X4596Y21787D02*
X4665Y21651D01*
X4804Y21787D01*
X4596Y21787D01*
G37*
G36*
X4487Y21896D02*
X4596Y21787D01*
X4804Y21787D01*
X4487Y21896D01*
G37*
G36*
X4913Y21896D02*
X4487Y21896D01*
X4804Y21787D01*
X4913Y21896D01*
G37*
G36*
X4998Y21941D02*
X4487Y21896D01*
X4913Y21896D01*
X4998Y21941D01*
G37*
G36*
X4998Y21941D02*
X4913Y21896D01*
X4999Y21939D01*
X4998Y21941D01*
G37*
G36*
X4487Y21896D02*
X4998Y21941D01*
X4402Y21941D01*
X4487Y21896D01*
G37*
G36*
X4402Y21941D02*
X4401Y21939D01*
X4487Y21896D01*
X4402Y21941D01*
G37*
G36*
X5200Y21011D02*
X5049Y21035D01*
X7041Y19500D01*
X5200Y21011D01*
G37*
G36*
X5351Y21035D02*
X5200Y21011D01*
X7041Y19500D01*
X5351Y21035D01*
G37*
G36*
X7041Y19500D02*
X7046Y19541D01*
X5351Y21035D01*
X7041Y19500D01*
G37*
G36*
X5351Y21035D02*
X7046Y19541D01*
X6049Y21035D01*
X5351Y21035D01*
G37*
G36*
X7046Y19541D02*
X6200Y21011D01*
X6049Y21035D01*
X7046Y19541D01*
G37*
G36*
X7062Y19579D02*
X6200Y21011D01*
X7046Y19541D01*
X7062Y19579D01*
G37*
G36*
X7088Y19612D02*
X6200Y21011D01*
X7062Y19579D01*
X7088Y19612D01*
G37*
G36*
X6200Y21011D02*
X7088Y19612D01*
X6351Y21035D01*
X6200Y21011D01*
G37*
G36*
X7049Y21035D02*
X6351Y21035D01*
X7088Y19612D01*
X7049Y21035D01*
G37*
G36*
X7200Y21011D02*
X7049Y21035D01*
X7088Y19612D01*
X7200Y21011D01*
G37*
G36*
X7088Y19612D02*
X7351Y21035D01*
X7200Y21011D01*
X7088Y19612D01*
G37*
G36*
X7088Y19612D02*
X8049Y21035D01*
X7351Y21035D01*
X7088Y19612D01*
G37*
G36*
X7487Y21104D02*
X7351Y21035D01*
X8049Y21035D01*
X7487Y21104D01*
G37*
G36*
X7913Y21104D02*
X7487Y21104D01*
X8049Y21035D01*
X7913Y21104D01*
G37*
G36*
X7596Y21213D02*
X7487Y21104D01*
X7913Y21104D01*
X7596Y21213D01*
G37*
G36*
X7804Y21213D02*
X7596Y21213D01*
X7913Y21104D01*
X7804Y21213D01*
G37*
G36*
X7804Y21213D02*
X7735Y21349D01*
X7596Y21213D01*
X7804Y21213D01*
G37*
G36*
X7735Y21349D02*
X7665Y21349D01*
X7596Y21213D01*
X7735Y21349D01*
G37*
G36*
X7735Y21349D02*
X7711Y21500D01*
X7665Y21349D01*
X7735Y21349D01*
G37*
G36*
X7711Y21500D02*
X7689Y21500D01*
X7665Y21349D01*
X7711Y21500D01*
G37*
G36*
X7689Y21500D02*
X7711Y21500D01*
X7735Y21651D01*
X7689Y21500D01*
G37*
G36*
X7665Y21651D02*
X7689Y21500D01*
X7735Y21651D01*
X7665Y21651D01*
G37*
G36*
X7665Y21651D02*
X7735Y21651D01*
X7804Y21787D01*
X7665Y21651D01*
G37*
G36*
X7596Y21787D02*
X7665Y21651D01*
X7804Y21787D01*
X7596Y21787D01*
G37*
G36*
X7487Y21896D02*
X7596Y21787D01*
X7804Y21787D01*
X7487Y21896D01*
G37*
G36*
X7913Y21896D02*
X7487Y21896D01*
X7804Y21787D01*
X7913Y21896D01*
G37*
G36*
X7998Y21941D02*
X7487Y21896D01*
X7913Y21896D01*
X7998Y21941D01*
G37*
G36*
X7998Y21941D02*
X7913Y21896D01*
X7999Y21939D01*
X7998Y21941D01*
G37*
G36*
X7487Y21896D02*
X7998Y21941D01*
X7402Y21941D01*
X7487Y21896D01*
G37*
G36*
X7402Y21941D02*
X7401Y21939D01*
X7487Y21896D01*
X7402Y21941D01*
G37*
G36*
X7088Y19612D02*
X8388Y20912D01*
X8049Y21035D01*
X7088Y19612D01*
G37*
G36*
X8388Y20912D02*
X8200Y21011D01*
X8049Y21035D01*
X8388Y20912D01*
G37*
G36*
X8351Y21035D02*
X8200Y21011D01*
X8388Y20912D01*
X8351Y21035D01*
G37*
G36*
X8351Y21035D02*
X8388Y20912D01*
X8421Y20938D01*
X8351Y21035D01*
G37*
G36*
X8351Y21035D02*
X8421Y20938D01*
X8459Y20954D01*
X8351Y21035D01*
G37*
G36*
X8487Y21104D02*
X8351Y21035D01*
X8459Y20954D01*
X8487Y21104D01*
G37*
G36*
X8487Y21104D02*
X8459Y20954D01*
X8500Y20959D01*
X8487Y21104D01*
G37*
G36*
X8500Y20959D02*
X8596Y21213D01*
X8487Y21104D01*
X8500Y20959D01*
G37*
G36*
X8500Y20959D02*
X8804Y21213D01*
X8596Y21213D01*
X8500Y20959D01*
G37*
G36*
X8804Y21213D02*
X8735Y21349D01*
X8596Y21213D01*
X8804Y21213D01*
G37*
G36*
X8735Y21349D02*
X8665Y21349D01*
X8596Y21213D01*
X8735Y21349D01*
G37*
G36*
X8735Y21349D02*
X8711Y21500D01*
X8665Y21349D01*
X8735Y21349D01*
G37*
G36*
X8711Y21500D02*
X8689Y21500D01*
X8665Y21349D01*
X8711Y21500D01*
G37*
G36*
X8689Y21500D02*
X8711Y21500D01*
X8735Y21651D01*
X8689Y21500D01*
G37*
G36*
X8665Y21651D02*
X8689Y21500D01*
X8735Y21651D01*
X8665Y21651D01*
G37*
G36*
X8665Y21651D02*
X8735Y21651D01*
X8804Y21787D01*
X8665Y21651D01*
G37*
G36*
X8596Y21787D02*
X8665Y21651D01*
X8804Y21787D01*
X8596Y21787D01*
G37*
G36*
X8487Y21896D02*
X8596Y21787D01*
X8804Y21787D01*
X8487Y21896D01*
G37*
G36*
X8913Y21896D02*
X8487Y21896D01*
X8804Y21787D01*
X8913Y21896D01*
G37*
G36*
X8998Y21941D02*
X8487Y21896D01*
X8913Y21896D01*
X8998Y21941D01*
G37*
G36*
X8998Y21941D02*
X8913Y21896D01*
X8999Y21939D01*
X8998Y21941D01*
G37*
G36*
X8487Y21896D02*
X8998Y21941D01*
X8402Y21941D01*
X8487Y21896D01*
G37*
G36*
X8402Y21941D02*
X8401Y21939D01*
X8487Y21896D01*
X8402Y21941D01*
G37*
G36*
X8913Y21104D02*
X8804Y21213D01*
X8500Y20959D01*
X8913Y21104D01*
G37*
G36*
X9049Y21035D02*
X8913Y21104D01*
X8500Y20959D01*
X9049Y21035D01*
G37*
G36*
X9049Y21035D02*
X8500Y20959D01*
X9200Y21011D01*
X9049Y21035D01*
G37*
G36*
X10200Y21011D02*
X9200Y21011D01*
X8500Y20959D01*
X10200Y21011D01*
G37*
G36*
X12534Y20959D02*
X10200Y21011D01*
X8500Y20959D01*
X12534Y20959D01*
G37*
G36*
X11200Y21011D02*
X10200Y21011D01*
X12534Y20959D01*
X11200Y21011D01*
G37*
G36*
X12200Y21011D02*
X11200Y21011D01*
X12534Y20959D01*
X12200Y21011D01*
G37*
G36*
X12351Y21035D02*
X12200Y21011D01*
X12534Y20959D01*
X12351Y21035D01*
G37*
G36*
X12487Y21104D02*
X12351Y21035D01*
X12534Y20959D01*
X12487Y21104D01*
G37*
G36*
X12487Y21104D02*
X12534Y20959D01*
X12641Y21066D01*
X12487Y21104D01*
G37*
G36*
X12596Y21213D02*
X12487Y21104D01*
X12641Y21066D01*
X12596Y21213D01*
G37*
G36*
X12596Y21213D02*
X12641Y21066D01*
X12641Y21298D01*
X12596Y21213D01*
G37*
G36*
X12639Y21299D02*
X12596Y21213D01*
X12641Y21298D01*
X12639Y21299D01*
G37*
G36*
X11351Y21035D02*
X11200Y21011D01*
X12200Y21011D01*
X11351Y21035D01*
G37*
G36*
X12049Y21035D02*
X11351Y21035D01*
X12200Y21011D01*
X12049Y21035D01*
G37*
G36*
X11487Y21104D02*
X11351Y21035D01*
X12049Y21035D01*
X11487Y21104D01*
G37*
G36*
X11913Y21104D02*
X11487Y21104D01*
X12049Y21035D01*
X11913Y21104D01*
G37*
G36*
X11596Y21213D02*
X11487Y21104D01*
X11913Y21104D01*
X11596Y21213D01*
G37*
G36*
X11804Y21213D02*
X11596Y21213D01*
X11913Y21104D01*
X11804Y21213D01*
G37*
G36*
X11804Y21213D02*
X11735Y21349D01*
X11596Y21213D01*
X11804Y21213D01*
G37*
G36*
X11735Y21349D02*
X11665Y21349D01*
X11596Y21213D01*
X11735Y21349D01*
G37*
G36*
X11735Y21349D02*
X11711Y21500D01*
X11665Y21349D01*
X11735Y21349D01*
G37*
G36*
X11711Y21500D02*
X11689Y21500D01*
X11665Y21349D01*
X11711Y21500D01*
G37*
G36*
X11689Y21500D02*
X11711Y21500D01*
X11735Y21651D01*
X11689Y21500D01*
G37*
G36*
X11665Y21651D02*
X11689Y21500D01*
X11735Y21651D01*
X11665Y21651D01*
G37*
G36*
X11665Y21651D02*
X11735Y21651D01*
X11804Y21787D01*
X11665Y21651D01*
G37*
G36*
X11596Y21787D02*
X11665Y21651D01*
X11804Y21787D01*
X11596Y21787D01*
G37*
G36*
X11487Y21896D02*
X11596Y21787D01*
X11804Y21787D01*
X11487Y21896D01*
G37*
G36*
X11913Y21896D02*
X11487Y21896D01*
X11804Y21787D01*
X11913Y21896D01*
G37*
G36*
X11998Y21941D02*
X11487Y21896D01*
X11913Y21896D01*
X11998Y21941D01*
G37*
G36*
X11998Y21941D02*
X11913Y21896D01*
X11999Y21939D01*
X11998Y21941D01*
G37*
G36*
X11487Y21896D02*
X11998Y21941D01*
X11402Y21941D01*
X11487Y21896D01*
G37*
G36*
X11402Y21941D02*
X11401Y21939D01*
X11487Y21896D01*
X11402Y21941D01*
G37*
G36*
X10351Y21035D02*
X10200Y21011D01*
X11200Y21011D01*
X10351Y21035D01*
G37*
G36*
X11049Y21035D02*
X10351Y21035D01*
X11200Y21011D01*
X11049Y21035D01*
G37*
G36*
X10487Y21104D02*
X10351Y21035D01*
X11049Y21035D01*
X10487Y21104D01*
G37*
G36*
X10913Y21104D02*
X10487Y21104D01*
X11049Y21035D01*
X10913Y21104D01*
G37*
G36*
X10596Y21213D02*
X10487Y21104D01*
X10913Y21104D01*
X10596Y21213D01*
G37*
G36*
X10804Y21213D02*
X10596Y21213D01*
X10913Y21104D01*
X10804Y21213D01*
G37*
G36*
X10804Y21213D02*
X10735Y21349D01*
X10596Y21213D01*
X10804Y21213D01*
G37*
G36*
X10735Y21349D02*
X10665Y21349D01*
X10596Y21213D01*
X10735Y21349D01*
G37*
G36*
X10735Y21349D02*
X10711Y21500D01*
X10665Y21349D01*
X10735Y21349D01*
G37*
G36*
X10711Y21500D02*
X10689Y21500D01*
X10665Y21349D01*
X10711Y21500D01*
G37*
G36*
X10689Y21500D02*
X10711Y21500D01*
X10735Y21651D01*
X10689Y21500D01*
G37*
G36*
X10665Y21651D02*
X10689Y21500D01*
X10735Y21651D01*
X10665Y21651D01*
G37*
G36*
X10665Y21651D02*
X10735Y21651D01*
X10804Y21787D01*
X10665Y21651D01*
G37*
G36*
X10596Y21787D02*
X10665Y21651D01*
X10804Y21787D01*
X10596Y21787D01*
G37*
G36*
X10487Y21896D02*
X10596Y21787D01*
X10804Y21787D01*
X10487Y21896D01*
G37*
G36*
X10913Y21896D02*
X10487Y21896D01*
X10804Y21787D01*
X10913Y21896D01*
G37*
G36*
X10998Y21941D02*
X10487Y21896D01*
X10913Y21896D01*
X10998Y21941D01*
G37*
G36*
X10998Y21941D02*
X10913Y21896D01*
X10999Y21939D01*
X10998Y21941D01*
G37*
G36*
X10487Y21896D02*
X10998Y21941D01*
X10402Y21941D01*
X10487Y21896D01*
G37*
G36*
X10402Y21941D02*
X10401Y21939D01*
X10487Y21896D01*
X10402Y21941D01*
G37*
G36*
X9351Y21035D02*
X9200Y21011D01*
X10200Y21011D01*
X9351Y21035D01*
G37*
G36*
X10049Y21035D02*
X9351Y21035D01*
X10200Y21011D01*
X10049Y21035D01*
G37*
G36*
X9487Y21104D02*
X9351Y21035D01*
X10049Y21035D01*
X9487Y21104D01*
G37*
G36*
X9913Y21104D02*
X9487Y21104D01*
X10049Y21035D01*
X9913Y21104D01*
G37*
G36*
X9596Y21213D02*
X9487Y21104D01*
X9913Y21104D01*
X9596Y21213D01*
G37*
G36*
X9804Y21213D02*
X9596Y21213D01*
X9913Y21104D01*
X9804Y21213D01*
G37*
G36*
X9804Y21213D02*
X9735Y21349D01*
X9596Y21213D01*
X9804Y21213D01*
G37*
G36*
X9735Y21349D02*
X9665Y21349D01*
X9596Y21213D01*
X9735Y21349D01*
G37*
G36*
X9735Y21349D02*
X9711Y21500D01*
X9665Y21349D01*
X9735Y21349D01*
G37*
G36*
X9711Y21500D02*
X9689Y21500D01*
X9665Y21349D01*
X9711Y21500D01*
G37*
G36*
X9689Y21500D02*
X9711Y21500D01*
X9735Y21651D01*
X9689Y21500D01*
G37*
G36*
X9665Y21651D02*
X9689Y21500D01*
X9735Y21651D01*
X9665Y21651D01*
G37*
G36*
X9665Y21651D02*
X9735Y21651D01*
X9804Y21787D01*
X9665Y21651D01*
G37*
G36*
X9596Y21787D02*
X9665Y21651D01*
X9804Y21787D01*
X9596Y21787D01*
G37*
G36*
X9487Y21896D02*
X9596Y21787D01*
X9804Y21787D01*
X9487Y21896D01*
G37*
G36*
X9913Y21896D02*
X9487Y21896D01*
X9804Y21787D01*
X9913Y21896D01*
G37*
G36*
X9998Y21941D02*
X9487Y21896D01*
X9913Y21896D01*
X9998Y21941D01*
G37*
G36*
X9998Y21941D02*
X9913Y21896D01*
X9999Y21939D01*
X9998Y21941D01*
G37*
G36*
X9487Y21896D02*
X9998Y21941D01*
X9402Y21941D01*
X9487Y21896D01*
G37*
G36*
X9402Y21941D02*
X9401Y21939D01*
X9487Y21896D01*
X9402Y21941D01*
G37*
G36*
X6487Y21104D02*
X6351Y21035D01*
X7049Y21035D01*
X6487Y21104D01*
G37*
G36*
X6913Y21104D02*
X6487Y21104D01*
X7049Y21035D01*
X6913Y21104D01*
G37*
G36*
X6596Y21213D02*
X6487Y21104D01*
X6913Y21104D01*
X6596Y21213D01*
G37*
G36*
X6804Y21213D02*
X6596Y21213D01*
X6913Y21104D01*
X6804Y21213D01*
G37*
G36*
X6804Y21213D02*
X6735Y21349D01*
X6596Y21213D01*
X6804Y21213D01*
G37*
G36*
X6735Y21349D02*
X6665Y21349D01*
X6596Y21213D01*
X6735Y21349D01*
G37*
G36*
X6735Y21349D02*
X6711Y21500D01*
X6665Y21349D01*
X6735Y21349D01*
G37*
G36*
X6711Y21500D02*
X6689Y21500D01*
X6665Y21349D01*
X6711Y21500D01*
G37*
G36*
X6689Y21500D02*
X6711Y21500D01*
X6735Y21651D01*
X6689Y21500D01*
G37*
G36*
X6665Y21651D02*
X6689Y21500D01*
X6735Y21651D01*
X6665Y21651D01*
G37*
G36*
X6665Y21651D02*
X6735Y21651D01*
X6804Y21787D01*
X6665Y21651D01*
G37*
G36*
X6596Y21787D02*
X6665Y21651D01*
X6804Y21787D01*
X6596Y21787D01*
G37*
G36*
X6487Y21896D02*
X6596Y21787D01*
X6804Y21787D01*
X6487Y21896D01*
G37*
G36*
X6913Y21896D02*
X6487Y21896D01*
X6804Y21787D01*
X6913Y21896D01*
G37*
G36*
X6998Y21941D02*
X6487Y21896D01*
X6913Y21896D01*
X6998Y21941D01*
G37*
G36*
X6998Y21941D02*
X6913Y21896D01*
X6999Y21939D01*
X6998Y21941D01*
G37*
G36*
X6487Y21896D02*
X6998Y21941D01*
X6402Y21941D01*
X6487Y21896D01*
G37*
G36*
X6402Y21941D02*
X6401Y21939D01*
X6487Y21896D01*
X6402Y21941D01*
G37*
G36*
X5487Y21104D02*
X5351Y21035D01*
X6049Y21035D01*
X5487Y21104D01*
G37*
G36*
X5913Y21104D02*
X5487Y21104D01*
X6049Y21035D01*
X5913Y21104D01*
G37*
G36*
X5596Y21213D02*
X5487Y21104D01*
X5913Y21104D01*
X5596Y21213D01*
G37*
G36*
X5804Y21213D02*
X5596Y21213D01*
X5913Y21104D01*
X5804Y21213D01*
G37*
G36*
X5804Y21213D02*
X5735Y21349D01*
X5596Y21213D01*
X5804Y21213D01*
G37*
G36*
X5735Y21349D02*
X5665Y21349D01*
X5596Y21213D01*
X5735Y21349D01*
G37*
G36*
X5735Y21349D02*
X5711Y21500D01*
X5665Y21349D01*
X5735Y21349D01*
G37*
G36*
X5711Y21500D02*
X5689Y21500D01*
X5665Y21349D01*
X5711Y21500D01*
G37*
G36*
X5689Y21500D02*
X5711Y21500D01*
X5735Y21651D01*
X5689Y21500D01*
G37*
G36*
X5665Y21651D02*
X5689Y21500D01*
X5735Y21651D01*
X5665Y21651D01*
G37*
G36*
X5665Y21651D02*
X5735Y21651D01*
X5804Y21787D01*
X5665Y21651D01*
G37*
G36*
X5596Y21787D02*
X5665Y21651D01*
X5804Y21787D01*
X5596Y21787D01*
G37*
G36*
X5487Y21896D02*
X5596Y21787D01*
X5804Y21787D01*
X5487Y21896D01*
G37*
G36*
X5913Y21896D02*
X5487Y21896D01*
X5804Y21787D01*
X5913Y21896D01*
G37*
G36*
X5998Y21941D02*
X5487Y21896D01*
X5913Y21896D01*
X5998Y21941D01*
G37*
G36*
X5998Y21941D02*
X5913Y21896D01*
X5999Y21939D01*
X5998Y21941D01*
G37*
G36*
X5487Y21896D02*
X5998Y21941D01*
X5402Y21941D01*
X5487Y21896D01*
G37*
G36*
X5402Y21941D02*
X5401Y21939D01*
X5487Y21896D01*
X5402Y21941D01*
G37*
G36*
X5351Y15965D02*
X5487Y15896D01*
X6049Y15965D01*
X5351Y15965D01*
G37*
G36*
X5487Y15896D02*
X5913Y15896D01*
X6049Y15965D01*
X5487Y15896D01*
G37*
G36*
X5913Y15896D02*
X5487Y15896D01*
X5804Y15787D01*
X5913Y15896D01*
G37*
G36*
X5487Y15896D02*
X5596Y15787D01*
X5804Y15787D01*
X5487Y15896D01*
G37*
G36*
X5596Y15787D02*
X5665Y15651D01*
X5804Y15787D01*
X5596Y15787D01*
G37*
G36*
X5665Y15651D02*
X5735Y15651D01*
X5804Y15787D01*
X5665Y15651D01*
G37*
G36*
X5665Y15651D02*
X5689Y15500D01*
X5735Y15651D01*
X5665Y15651D01*
G37*
G36*
X5689Y15500D02*
X5711Y15500D01*
X5735Y15651D01*
X5689Y15500D01*
G37*
G36*
X5711Y15500D02*
X5689Y15500D01*
X5665Y15349D01*
X5711Y15500D01*
G37*
G36*
X5735Y15349D02*
X5711Y15500D01*
X5665Y15349D01*
X5735Y15349D01*
G37*
G36*
X5735Y15349D02*
X5665Y15349D01*
X5596Y15213D01*
X5735Y15349D01*
G37*
G36*
X5804Y15213D02*
X5735Y15349D01*
X5596Y15213D01*
X5804Y15213D01*
G37*
G36*
X5804Y15213D02*
X5596Y15213D01*
X5913Y15104D01*
X5804Y15213D01*
G37*
G36*
X5596Y15213D02*
X5487Y15104D01*
X5913Y15104D01*
X5596Y15213D01*
G37*
G36*
X5913Y15104D02*
X5487Y15104D01*
X6049Y15035D01*
X5913Y15104D01*
G37*
G36*
X5487Y15104D02*
X5351Y15035D01*
X6049Y15035D01*
X5487Y15104D01*
G37*
G36*
X6153Y13470D02*
X6351Y15035D01*
X6200Y15011D01*
X6153Y13470D01*
G37*
G36*
X6000Y13494D02*
X6153Y13470D01*
X6200Y15011D01*
X6000Y13494D01*
G37*
G36*
X6200Y15011D02*
X5847Y13470D01*
X6000Y13494D01*
X6200Y15011D01*
G37*
G36*
X6200Y15011D02*
X6049Y15035D01*
X5847Y13470D01*
X6200Y15011D01*
G37*
G36*
X5049Y15035D02*
X4612Y14688D01*
X5200Y15011D01*
X5049Y15035D01*
G37*
G36*
X5049Y15035D02*
X4990Y15065D01*
X4612Y14688D01*
X5049Y15035D01*
G37*
G36*
X5100Y10306D02*
X4947Y10330D01*
X2459Y6600D01*
X5100Y10306D01*
G37*
G36*
X1220Y4097D02*
X2029Y6112D01*
X1991Y6096D01*
X1220Y4097D01*
G37*
G36*
X1220Y4097D02*
X1991Y6096D01*
X1244Y4250D01*
X1220Y4097D01*
G37*
G36*
X1991Y6096D02*
X1950Y6091D01*
X1244Y4250D01*
X1991Y6096D01*
G37*
G36*
X1220Y4403D02*
X1244Y4250D01*
X1950Y6091D01*
X1220Y4403D01*
G37*
G36*
X1950Y6091D02*
X1217Y6091D01*
X1150Y5960D01*
X1950Y6091D01*
G37*
G36*
X615Y27135D02*
X245Y27254D01*
X615Y26365D01*
X615Y27135D01*
G37*
G36*
X245Y27254D02*
X615Y27135D01*
X1385Y27135D01*
X245Y27254D01*
G37*
%LNSTD*%
%LPD*%
G54D11*
X14300Y14800D03*
G54D14*
X15300Y14800D03*
G54D11*
X18400Y14800D03*
G54D14*
X19400Y14800D03*
G54D20*
X4000Y26750D03*
G54D23*
X5000Y26750D03*
X6000Y26750D03*
G54D20*
X4000Y25750D03*
G54D23*
X5000Y25750D03*
X6000Y25750D03*
G54D25*
X22900Y3400D03*
G54D28*
X20900Y3400D03*
G54D20*
X1000Y25750D03*
G54D23*
X2000Y25750D03*
X3000Y25750D03*
G54D25*
X9500Y25750D03*
X7500Y25750D03*
X21100Y14700D03*
X23100Y14700D03*
G54D20*
X1000Y26750D03*
G54D23*
X2000Y26750D03*
X3000Y26750D03*
G54D25*
X9500Y26750D03*
X7500Y26750D03*
X750Y7250D03*
X750Y6250D03*
X750Y5250D03*
X750Y4250D03*
G54D31*
X1200Y15500D03*
X2200Y15500D03*
X3200Y15500D03*
X4200Y15500D03*
X5200Y15500D03*
X6200Y15500D03*
X7200Y15500D03*
X8200Y15500D03*
X9200Y15500D03*
X10200Y15500D03*
X11200Y15500D03*
X12200Y15500D03*
X12200Y21500D03*
X11200Y21500D03*
X10200Y21500D03*
X9200Y21500D03*
X8200Y21500D03*
X7200Y21500D03*
X6200Y21500D03*
X5200Y21500D03*
X4200Y21500D03*
X3200Y21500D03*
X2200Y21500D03*
X1200Y21500D03*
G54D25*
X17200Y26100D03*
X18200Y26100D03*
X19200Y26100D03*
X20200Y26100D03*
G54D35*
X11700Y10500D03*
X11700Y8200D03*
X23300Y8200D03*
X23300Y10500D03*
G54D25*
X19000Y24000D03*
X18000Y24000D03*
X17000Y24000D03*
X16000Y24000D03*
X15000Y24000D03*
X14000Y24000D03*
X13000Y24000D03*
X12000Y24000D03*
X11000Y24000D03*
X10000Y24000D03*
X9000Y24000D03*
X8000Y24000D03*
X7000Y24000D03*
X6000Y24000D03*
X5000Y24000D03*
G54D28*
X5000Y13000D03*
G54D25*
X6000Y13000D03*
X7000Y13000D03*
X8000Y13000D03*
X9000Y13000D03*
X10000Y13000D03*
X11000Y13000D03*
X12000Y13000D03*
X13000Y13000D03*
X14000Y13000D03*
X15000Y13000D03*
X16000Y13000D03*
X17000Y13000D03*
X18000Y13000D03*
X19000Y13000D03*
G54D37*
X12500Y5213D03*
X12500Y2851D03*
X14370Y4032D03*
G54D41*
X16400Y6000D03*
X16700Y6000D03*
G54D25*
X16400Y800D03*
G54D17*
X16400Y800D02*
X16400Y6000D01*
G54D25*
X17400Y800D03*
X18400Y800D03*
G54D17*
X18400Y800D02*
X18400Y1600D01*
X18200Y1800D01*
X17000Y1800D01*
X16700Y2100D01*
X16700Y6000D01*
X16400Y6000D02*
X13400Y6000D01*
X12500Y5100D01*
X16700Y6000D02*
X16700Y6600D01*
X16500Y6800D01*
X13200Y6800D01*
X13000Y7000D01*
X13000Y9200D01*
X11700Y10500D01*
G54D25*
X11500Y700D03*
X13500Y700D03*
G54D17*
X13500Y700D02*
X14900Y700D01*
X16000Y1900D01*
X16400Y1900D01*
G54D25*
X8100Y10800D03*
X9100Y10800D03*
X7100Y10800D03*
X6100Y10800D03*
X5100Y10800D03*
X4100Y10800D03*
X16900Y14800D03*
X16900Y17800D03*
G54D18*
X5000Y26750D02*
X5500Y26200D01*
X5500Y25400D01*
X5000Y24900D01*
X4100Y24900D01*
X3900Y24700D01*
X3900Y22600D01*
X4100Y22400D01*
X12700Y22400D01*
X13100Y22100D01*
X13100Y20900D01*
X12600Y20400D01*
X9000Y20400D01*
X8200Y19600D01*
X8200Y15500D01*
X5000Y25750D02*
X4300Y25100D01*
X3900Y25100D01*
X3600Y24800D01*
X3600Y22300D01*
X3800Y22100D01*
X12600Y22100D01*
X12800Y21900D01*
X12800Y21000D01*
X12600Y20800D01*
X8500Y20800D01*
X7200Y19500D01*
X7200Y15500D01*
X7500Y25750D02*
X6500Y24700D01*
X4500Y24700D01*
X4300Y24500D01*
X4300Y23200D01*
X4600Y22900D01*
X12800Y22900D01*
X13500Y22200D01*
X13500Y20800D01*
X12200Y19500D01*
X12200Y15500D01*
X11200Y15500D02*
X11200Y14500D01*
X11700Y14000D01*
X22400Y14000D01*
X23100Y14700D01*
X5200Y15500D02*
X4500Y14800D01*
X2800Y14800D01*
X2300Y14300D01*
X2300Y6600D01*
X1950Y6250D01*
X750Y6250D01*
X14100Y20000D02*
X13600Y20000D01*
G54D45*
X14100Y20000D03*
G54D18*
X13600Y20000D02*
X13300Y19700D01*
X13300Y17100D01*
G54D45*
X13300Y17100D03*
G54D18*
X13600Y19400D02*
X13600Y16800D01*
G54D45*
X13600Y19400D03*
G54D18*
X13600Y16800D02*
X13600Y16800D01*
G54D45*
X13600Y16800D03*
G54D18*
X10200Y15500D02*
X10200Y14000D01*
X10600Y13600D01*
X20600Y13600D01*
X20900Y13300D01*
X20900Y3400D01*
X16900Y14800D02*
X15300Y14800D01*
X16900Y17800D02*
X15300Y16200D01*
X13400Y16200D01*
X12800Y16800D01*
X12800Y17200D01*
G54D45*
X12800Y17200D03*
G54D18*
X11800Y17200D02*
X9400Y17200D01*
G54D45*
X11800Y17200D03*
G54D18*
X9400Y17200D02*
X9200Y17000D01*
X9200Y15500D01*
%LNERASE*%
%LPC*%
G54D12*
X14300Y14800D03*
G54D15*
X15300Y14800D03*
X18400Y14800D03*
X19400Y14800D03*
G54D21*
X4000Y26750D03*
X5000Y26750D03*
X6000Y26750D03*
X4000Y25750D03*
X5000Y25750D03*
X6000Y25750D03*
G54D26*
X22900Y3400D03*
X20900Y3400D03*
G54D21*
X1000Y25750D03*
X2000Y25750D03*
X3000Y25750D03*
G54D26*
X9500Y25750D03*
X7500Y25750D03*
X21100Y14700D03*
X23100Y14700D03*
G54D21*
X1000Y26750D03*
X2000Y26750D03*
X3000Y26750D03*
G54D26*
X9500Y26750D03*
X7500Y26750D03*
X750Y7250D03*
X750Y6250D03*
X750Y5250D03*
X750Y4250D03*
X1200Y15500D03*
X2200Y15500D03*
X3200Y15500D03*
X4200Y15500D03*
X5200Y15500D03*
X6200Y15500D03*
X7200Y15500D03*
X8200Y15500D03*
X9200Y15500D03*
X10200Y15500D03*
X11200Y15500D03*
X12200Y15500D03*
X12200Y21500D03*
X11200Y21500D03*
X10200Y21500D03*
X9200Y21500D03*
X8200Y21500D03*
X7200Y21500D03*
X6200Y21500D03*
X5200Y21500D03*
X4200Y21500D03*
X3200Y21500D03*
X2200Y21500D03*
X1200Y21500D03*
X17200Y26100D03*
X18200Y26100D03*
X19200Y26100D03*
X20200Y26100D03*
X11700Y10500D03*
X11700Y8200D03*
X23300Y8200D03*
X23300Y10500D03*
X19000Y24000D03*
X18000Y24000D03*
X17000Y24000D03*
X16000Y24000D03*
X15000Y24000D03*
X14000Y24000D03*
X13000Y24000D03*
X12000Y24000D03*
X11000Y24000D03*
X10000Y24000D03*
X9000Y24000D03*
X8000Y24000D03*
X7000Y24000D03*
X6000Y24000D03*
X5000Y24000D03*
X5000Y13000D03*
X6000Y13000D03*
X7000Y13000D03*
X8000Y13000D03*
X9000Y13000D03*
X10000Y13000D03*
X11000Y13000D03*
X12000Y13000D03*
X13000Y13000D03*
X14000Y13000D03*
X15000Y13000D03*
X16000Y13000D03*
X17000Y13000D03*
X18000Y13000D03*
X19000Y13000D03*
G54D38*
X12500Y5213D03*
G54D40*
X12500Y2851D03*
X14370Y4032D03*
G54D26*
X16400Y800D03*
X17400Y800D03*
X18400Y800D03*
X11500Y700D03*
X13500Y700D03*
X8100Y10800D03*
X9100Y10800D03*
X7100Y10800D03*
X6100Y10800D03*
X5100Y10800D03*
X4100Y10800D03*
X16900Y14800D03*
X16900Y17800D03*
%LNSTD*%
%LPD*%
G54D17*
X18575Y26100D02*
X18695Y26100D01*
X18200Y26475D02*
X18200Y26595D01*
X17825Y26100D02*
X17705Y26100D01*
X18200Y25725D02*
X18200Y25605D01*
X18675Y14800D02*
X18795Y14800D01*
X18400Y15075D02*
X18400Y15195D01*
X18125Y14800D02*
X18005Y14800D01*
X18400Y14525D02*
X18400Y14405D01*
X3830Y21500D02*
X3710Y21500D01*
X4200Y21130D02*
X4200Y21010D01*
X4570Y21500D02*
X4690Y21500D01*
X3266Y25750D02*
X3386Y25750D01*
X3000Y26016D02*
X3000Y26136D01*
X2734Y25750D02*
X2614Y25750D01*
X3000Y25484D02*
X3000Y25364D01*
X3266Y26750D02*
X3386Y26750D01*
X3000Y27016D02*
X3000Y27136D01*
X2734Y26750D02*
X2614Y26750D01*
X3000Y26484D02*
X3000Y26364D01*
X6266Y26750D02*
X6386Y26750D01*
X6000Y27016D02*
X6000Y27136D01*
X5734Y26750D02*
X5614Y26750D01*
X6000Y26484D02*
X6000Y26364D01*
X6266Y25750D02*
X6386Y25750D01*
X6000Y26016D02*
X6000Y26136D01*
X6000Y25484D02*
X6000Y25364D01*
X8475Y10800D02*
X8595Y10800D01*
X8100Y11175D02*
X8100Y11295D01*
X7725Y10800D02*
X7605Y10800D01*
X8100Y10425D02*
X8100Y10305D01*
X5000Y13375D02*
X5000Y13495D01*
X5375Y13000D02*
X5495Y13000D01*
X5000Y12625D02*
X5000Y12505D01*
X4625Y13000D02*
X4505Y13000D01*
X1125Y5250D02*
X1245Y5250D01*
X750Y5625D02*
X750Y5745D01*
X375Y5250D02*
X255Y5250D01*
X750Y4875D02*
X750Y4755D01*
X24175Y10500D02*
X24295Y10500D01*
X23300Y11375D02*
X23300Y11495D01*
X22425Y10500D02*
X22305Y10500D01*
X23300Y9625D02*
X23300Y9505D01*
M02*
