G04 -- Generated By PCBWeb Designer*
%FSLAX24Y24*%
%MOIN*%
%OFA0B0*%
%SFA1.0B1.0*%
%AMROTRECT*21,1,$1,$2,0,0,$3*%
%AMROTOBLONG*1,1,$7,$1,$2*1,1,$7,$3,$4*21,1,$5,$6,0,0,$8*%
%ADD10C,0.025*%
%ADD11R,0.055X0.055*%
%ADD12C,0.033*%
%ADD13R,0.065X0.065*%
%ADD14C,0.055*%
%ADD15C,0.033*%
%ADD16C,0.065*%
%ADD17C,0.01*%
%ADD18C,0.008*%
%ADD19C,0.024*%
%ADD20C,0.075*%
%ADD21C,0.04*%
%ADD22C,0.085*%
%ADD23R,0.075X0.075*%
%ADD24R,0.085X0.085*%
%ADD25C,0.026*%
%ADD26C,0.1969*%
%ADD27C,0.1378*%
%ADD28C,0.2069*%
%ADD29C,0.126*%
%ADD30C,0.074*%
%ADD31C,0.084*%
%ADD32C,0.0048*%
%ADD33C,0.0208*%
%ADD34C,0.005*%
%ADD35C,0.021*%
%ADD36R,0.4X0.5*%
%ADD37R,0.41X0.51*%
%ADD38C,0.001*%
%ADD39C,0.1221*%
%ADD40C,0.1321*%
%ADD41R,0.0197X0.0394*%
%ADD42R,0.0297X0.0494*%
%ADD43R,0.0591X0.0591*%
%ADD44R,0.0691X0.0691*%
%ADD45R,0.05X0.05*%
%ADD46R,0.06X0.06*%
%ADD47R,0.05X0.06*%
%ADD48R,0.06X0.07*%
%ADD49C,0.0*%
%ADD50C,0.0275*%
%ADD51C,0.018*%
G01*
%LNBASEFILL*%
%LPD*%
G36*
X245Y23255D02*
X17250Y23229D01*
X20755Y23255D01*
X245Y23255D01*
G37*
G36*
X17250Y23229D02*
X17475Y23194D01*
X20755Y23255D01*
X17250Y23229D01*
G37*
G36*
X17475Y23194D02*
X17679Y23090D01*
X20755Y23255D01*
X17475Y23194D01*
G37*
G36*
X17679Y23090D02*
X17840Y22929D01*
X20755Y23255D01*
X17679Y23090D01*
G37*
G36*
X17840Y22929D02*
X17944Y22725D01*
X20755Y23255D01*
X17840Y22929D01*
G37*
G36*
X20755Y23255D02*
X17944Y22725D01*
X19153Y21470D01*
X20755Y23255D01*
G37*
G36*
X19153Y21470D02*
X17944Y22725D01*
X17979Y22500D01*
X19153Y21470D01*
G37*
G36*
X17979Y22500D02*
X19000Y21494D01*
X19153Y21470D01*
X17979Y22500D01*
G37*
G36*
X17979Y22500D02*
X18847Y21470D01*
X19000Y21494D01*
X17979Y22500D01*
G37*
G36*
X18847Y21470D02*
X17979Y22500D01*
X17944Y22275D01*
X18847Y21470D01*
G37*
G36*
X18847Y21470D02*
X17944Y22275D01*
X18710Y21400D01*
X18847Y21470D01*
G37*
G36*
X17944Y22275D02*
X17840Y22071D01*
X18710Y21400D01*
X17944Y22275D01*
G37*
G36*
X17840Y22071D02*
X18600Y21290D01*
X18710Y21400D01*
X17840Y22071D01*
G37*
G36*
X17840Y22071D02*
X17679Y21910D01*
X18600Y21290D01*
X17840Y22071D01*
G37*
G36*
X18600Y21290D02*
X17679Y21910D01*
X17494Y21494D01*
X18600Y21290D01*
G37*
G36*
X17475Y21806D02*
X17494Y21494D01*
X17679Y21910D01*
X17475Y21806D01*
G37*
G36*
X17475Y21806D02*
X17250Y21771D01*
X17494Y21494D01*
X17475Y21806D01*
G37*
G36*
X17250Y21771D02*
X17025Y21806D01*
X17494Y21494D01*
X17250Y21771D01*
G37*
G36*
X17494Y21494D02*
X17025Y21806D01*
X16506Y21494D01*
X17494Y21494D01*
G37*
G36*
X16821Y21910D02*
X16506Y21494D01*
X17025Y21806D01*
X16821Y21910D01*
G37*
G36*
X16660Y22071D02*
X16506Y21494D01*
X16821Y21910D01*
X16660Y22071D01*
G37*
G36*
X16660Y22071D02*
X15619Y22131D01*
X16506Y21494D01*
X16660Y22071D01*
G37*
G36*
X15619Y22131D02*
X15400Y21290D01*
X16506Y21494D01*
X15619Y22131D01*
G37*
G36*
X15400Y21290D02*
X15470Y21153D01*
X16506Y21494D01*
X15400Y21290D01*
G37*
G36*
X16506Y21494D02*
X15470Y21153D01*
X16000Y20409D01*
X16506Y21494D01*
G37*
G36*
X15470Y21153D02*
X15494Y21000D01*
X16000Y20409D01*
X15470Y21153D01*
G37*
G36*
X15959Y20404D02*
X16000Y20409D01*
X15494Y21000D01*
X15959Y20404D01*
G37*
G36*
X15470Y20847D02*
X15959Y20404D01*
X15494Y21000D01*
X15470Y20847D01*
G37*
G36*
X15921Y20388D02*
X15959Y20404D01*
X15470Y20847D01*
X15921Y20388D01*
G37*
G36*
X15921Y20388D02*
X15470Y20847D01*
X15400Y20710D01*
X15921Y20388D01*
G37*
G36*
X15888Y20362D02*
X15921Y20388D01*
X15400Y20710D01*
X15888Y20362D01*
G37*
G36*
X15400Y20710D02*
X15290Y20600D01*
X15888Y20362D01*
X15400Y20710D01*
G37*
G36*
X15290Y20600D02*
X15153Y20530D01*
X15888Y20362D01*
X15290Y20600D01*
G37*
G36*
X15888Y20362D02*
X15153Y20530D01*
X14744Y20000D01*
X15888Y20362D01*
G37*
G36*
X14744Y20000D02*
X15153Y20530D01*
X15000Y20506D01*
X14744Y20000D01*
G37*
G36*
X15000Y20506D02*
X14720Y20153D01*
X14744Y20000D01*
X15000Y20506D01*
G37*
G36*
X15000Y20506D02*
X14847Y20530D01*
X14720Y20153D01*
X15000Y20506D01*
G37*
G36*
X14847Y20530D02*
X14650Y20290D01*
X14720Y20153D01*
X14847Y20530D01*
G37*
G36*
X14847Y20530D02*
X14710Y20600D01*
X14650Y20290D01*
X14847Y20530D01*
G37*
G36*
X14710Y20600D02*
X14540Y20400D01*
X14650Y20290D01*
X14710Y20600D01*
G37*
G36*
X14600Y20710D02*
X14540Y20400D01*
X14710Y20600D01*
X14600Y20710D01*
G37*
G36*
X14409Y20467D02*
X14540Y20400D01*
X14600Y20710D01*
X14409Y20467D01*
G37*
G36*
X14530Y20847D02*
X14409Y20467D01*
X14600Y20710D01*
X14530Y20847D01*
G37*
G36*
X14530Y20847D02*
X14506Y21000D01*
X14409Y20467D01*
X14530Y20847D01*
G37*
G36*
X14409Y20467D02*
X14506Y21000D01*
X14409Y21801D01*
X14409Y20467D01*
G37*
G36*
X14530Y21153D02*
X14409Y21801D01*
X14506Y21000D01*
X14530Y21153D01*
G37*
G36*
X14600Y21290D02*
X14409Y21801D01*
X14530Y21153D01*
X14600Y21290D01*
G37*
G36*
X14710Y21400D02*
X14409Y21801D01*
X14600Y21290D01*
X14710Y21400D01*
G37*
G36*
X14458Y21849D02*
X14409Y21801D01*
X14710Y21400D01*
X14458Y21849D01*
G37*
G36*
X14847Y21470D02*
X14458Y21849D01*
X14710Y21400D01*
X14847Y21470D01*
G37*
G36*
X14847Y21470D02*
X14494Y21921D01*
X14458Y21849D01*
X14847Y21470D01*
G37*
G36*
X14847Y21470D02*
X14881Y22131D01*
X14494Y21921D01*
X14847Y21470D01*
G37*
G36*
X14494Y21921D02*
X14881Y22131D01*
X14506Y22000D01*
X14494Y21921D01*
G37*
G36*
X14494Y22079D02*
X14506Y22000D01*
X14881Y22131D01*
X14494Y22079D01*
G37*
G36*
X14500Y22341D02*
X14494Y22079D01*
X14881Y22131D01*
X14500Y22341D01*
G37*
G36*
X14500Y22341D02*
X14881Y22131D01*
X14881Y22341D01*
X14500Y22341D01*
G37*
G36*
X14458Y22151D02*
X14494Y22079D01*
X14500Y22341D01*
X14458Y22151D01*
G37*
G36*
X14401Y22208D02*
X14458Y22151D01*
X14500Y22341D01*
X14401Y22208D01*
G37*
G36*
X14459Y22346D02*
X14401Y22208D01*
X14500Y22341D01*
X14459Y22346D01*
G37*
G36*
X14459Y22346D02*
X14421Y22362D01*
X14401Y22208D01*
X14459Y22346D01*
G37*
G36*
X14421Y22362D02*
X14329Y22244D01*
X14401Y22208D01*
X14421Y22362D01*
G37*
G36*
X14388Y22388D02*
X14329Y22244D01*
X14421Y22362D01*
X14388Y22388D01*
G37*
G36*
X14388Y22388D02*
X14250Y22256D01*
X14329Y22244D01*
X14388Y22388D01*
G37*
G36*
X14250Y22256D02*
X14388Y22388D01*
X14171Y22244D01*
X14250Y22256D01*
G37*
G36*
X14388Y22388D02*
X14059Y22716D01*
X14171Y22244D01*
X14388Y22388D01*
G37*
G36*
X14171Y22244D02*
X14059Y22716D01*
X13900Y22290D01*
X14171Y22244D01*
G37*
G36*
X13790Y22400D02*
X13900Y22290D01*
X14059Y22716D01*
X13790Y22400D01*
G37*
G36*
X13653Y22470D02*
X13790Y22400D01*
X14059Y22716D01*
X13653Y22470D01*
G37*
G36*
X13500Y22494D02*
X13653Y22470D01*
X14059Y22716D01*
X13500Y22494D01*
G37*
G36*
X13347Y22470D02*
X13500Y22494D01*
X14059Y22716D01*
X13347Y22470D01*
G37*
G36*
X13347Y22470D02*
X14059Y22716D01*
X12191Y22716D01*
X13347Y22470D01*
G37*
G36*
X13347Y22470D02*
X12191Y22716D01*
X12653Y22470D01*
X13347Y22470D01*
G37*
G36*
X12500Y22494D02*
X12653Y22470D01*
X12191Y22716D01*
X12500Y22494D01*
G37*
G36*
X12191Y22716D02*
X12347Y22470D01*
X12500Y22494D01*
X12191Y22716D01*
G37*
G36*
X12191Y22716D02*
X12210Y22400D01*
X12347Y22470D01*
X12191Y22716D01*
G37*
G36*
X12191Y22716D02*
X12100Y22290D01*
X12210Y22400D01*
X12191Y22716D01*
G37*
G36*
X12191Y22716D02*
X11659Y22184D01*
X12100Y22290D01*
X12191Y22716D01*
G37*
G36*
X11659Y22184D02*
X12030Y22153D01*
X12100Y22290D01*
X11659Y22184D01*
G37*
G36*
X11659Y22184D02*
X12006Y22000D01*
X12030Y22153D01*
X11659Y22184D01*
G37*
G36*
X12006Y22000D02*
X11659Y22184D01*
X12030Y21847D01*
X12006Y22000D01*
G37*
G36*
X12030Y21847D02*
X11659Y22184D01*
X11659Y20961D01*
X12030Y21847D01*
G37*
G36*
X12030Y21847D02*
X11659Y20961D01*
X12100Y21710D01*
X12030Y21847D01*
G37*
G36*
X12100Y21710D02*
X11659Y20961D01*
X11787Y20896D01*
X12100Y21710D01*
G37*
G36*
X12100Y21710D02*
X11787Y20896D01*
X11896Y20787D01*
X12100Y21710D01*
G37*
G36*
X11965Y20651D02*
X12100Y21710D01*
X11896Y20787D01*
X11965Y20651D01*
G37*
G36*
X12104Y20787D02*
X12100Y21710D01*
X11965Y20651D01*
X12104Y20787D01*
G37*
G36*
X12104Y20787D02*
X11965Y20651D01*
X12035Y20651D01*
X12104Y20787D01*
G37*
G36*
X11965Y20651D02*
X11989Y20500D01*
X12035Y20651D01*
X11965Y20651D01*
G37*
G36*
X11989Y20500D02*
X12011Y20500D01*
X12035Y20651D01*
X11989Y20500D01*
G37*
G36*
X12011Y20500D02*
X11989Y20500D01*
X11965Y20349D01*
X12011Y20500D01*
G37*
G36*
X12035Y20349D02*
X12011Y20500D01*
X11965Y20349D01*
X12035Y20349D01*
G37*
G36*
X12035Y20349D02*
X11965Y20349D01*
X11896Y20213D01*
X12035Y20349D01*
G37*
G36*
X12104Y20213D02*
X12035Y20349D01*
X11896Y20213D01*
X12104Y20213D01*
G37*
G36*
X12104Y20213D02*
X11896Y20213D01*
X12213Y20104D01*
X12104Y20213D01*
G37*
G36*
X11896Y20213D02*
X11787Y20104D01*
X12213Y20104D01*
X11896Y20213D01*
G37*
G36*
X12213Y20104D02*
X11787Y20104D01*
X12349Y20035D01*
X12213Y20104D01*
G37*
G36*
X11787Y20104D02*
X11651Y20035D01*
X12349Y20035D01*
X11787Y20104D01*
G37*
G36*
X10684Y17409D02*
X12349Y20035D01*
X11651Y20035D01*
X10684Y17409D01*
G37*
G36*
X11651Y20035D02*
X11500Y20011D01*
X10684Y17409D01*
X11651Y20035D01*
G37*
G36*
X11500Y20011D02*
X11349Y20035D01*
X10684Y17409D01*
X11500Y20011D01*
G37*
G36*
X10684Y17409D02*
X11349Y20035D01*
X10651Y20035D01*
X10684Y17409D01*
G37*
G36*
X10787Y20104D02*
X10651Y20035D01*
X11349Y20035D01*
X10787Y20104D01*
G37*
G36*
X11213Y20104D02*
X10787Y20104D01*
X11349Y20035D01*
X11213Y20104D01*
G37*
G36*
X10896Y20213D02*
X10787Y20104D01*
X11213Y20104D01*
X10896Y20213D01*
G37*
G36*
X11104Y20213D02*
X10896Y20213D01*
X11213Y20104D01*
X11104Y20213D01*
G37*
G36*
X11104Y20213D02*
X11035Y20349D01*
X10896Y20213D01*
X11104Y20213D01*
G37*
G36*
X11035Y20349D02*
X10965Y20349D01*
X10896Y20213D01*
X11035Y20349D01*
G37*
G36*
X11035Y20349D02*
X11011Y20500D01*
X10965Y20349D01*
X11035Y20349D01*
G37*
G36*
X11011Y20500D02*
X10989Y20500D01*
X10965Y20349D01*
X11011Y20500D01*
G37*
G36*
X10989Y20500D02*
X11011Y20500D01*
X11035Y20651D01*
X10989Y20500D01*
G37*
G36*
X10965Y20651D02*
X10989Y20500D01*
X11035Y20651D01*
X10965Y20651D01*
G37*
G36*
X10965Y20651D02*
X11035Y20651D01*
X11104Y20787D01*
X10965Y20651D01*
G37*
G36*
X11104Y20787D02*
X10896Y20787D01*
X10965Y20651D01*
X11104Y20787D01*
G37*
G36*
X10787Y20896D02*
X10896Y20787D01*
X11104Y20787D01*
X10787Y20896D01*
G37*
G36*
X10787Y20896D02*
X11104Y20787D01*
X11213Y20896D01*
X10787Y20896D01*
G37*
G36*
X10787Y20896D02*
X11213Y20896D01*
X11341Y20961D01*
X10787Y20896D01*
G37*
G36*
X10787Y20896D02*
X11341Y20961D01*
X10651Y20965D01*
X10787Y20896D01*
G37*
G36*
X11341Y22250D02*
X10651Y20965D01*
X11341Y20961D01*
X11341Y22250D01*
G37*
G36*
X11341Y22250D02*
X10244Y21454D01*
X10651Y20965D01*
X11341Y22250D01*
G37*
G36*
X10651Y20965D02*
X10244Y21454D01*
X10256Y21375D01*
X10651Y20965D01*
G37*
G36*
X10256Y21375D02*
X10500Y20989D01*
X10651Y20965D01*
X10256Y21375D01*
G37*
G36*
X10256Y21375D02*
X10244Y21296D01*
X10500Y20989D01*
X10256Y21375D01*
G37*
G36*
X10500Y20989D02*
X10244Y21296D01*
X10208Y21224D01*
X10500Y20989D01*
G37*
G36*
X10500Y20989D02*
X10208Y21224D01*
X10349Y20965D01*
X10500Y20989D01*
G37*
G36*
X10208Y21224D02*
X10151Y21167D01*
X10349Y20965D01*
X10208Y21224D01*
G37*
G36*
X10151Y21167D02*
X10213Y20896D01*
X10349Y20965D01*
X10151Y21167D01*
G37*
G36*
X10151Y21167D02*
X10079Y21131D01*
X10213Y20896D01*
X10151Y21167D01*
G37*
G36*
X10079Y21131D02*
X10000Y21119D01*
X10213Y20896D01*
X10079Y21131D01*
G37*
G36*
X10000Y21119D02*
X10104Y20787D01*
X10213Y20896D01*
X10000Y21119D01*
G37*
G36*
X10000Y21119D02*
X9896Y20787D01*
X10104Y20787D01*
X10000Y21119D01*
G37*
G36*
X9965Y20651D02*
X10104Y20787D01*
X9896Y20787D01*
X9965Y20651D01*
G37*
G36*
X10104Y20787D02*
X9965Y20651D01*
X10035Y20651D01*
X10104Y20787D01*
G37*
G36*
X9965Y20651D02*
X9989Y20500D01*
X10035Y20651D01*
X9965Y20651D01*
G37*
G36*
X9989Y20500D02*
X10011Y20500D01*
X10035Y20651D01*
X9989Y20500D01*
G37*
G36*
X10011Y20500D02*
X9989Y20500D01*
X9965Y20349D01*
X10011Y20500D01*
G37*
G36*
X10035Y20349D02*
X10011Y20500D01*
X9965Y20349D01*
X10035Y20349D01*
G37*
G36*
X10035Y20349D02*
X9965Y20349D01*
X9896Y20213D01*
X10035Y20349D01*
G37*
G36*
X10104Y20213D02*
X10035Y20349D01*
X9896Y20213D01*
X10104Y20213D01*
G37*
G36*
X10104Y20213D02*
X9896Y20213D01*
X10213Y20104D01*
X10104Y20213D01*
G37*
G36*
X9896Y20213D02*
X9787Y20104D01*
X10213Y20104D01*
X9896Y20213D01*
G37*
G36*
X10213Y20104D02*
X9787Y20104D01*
X10349Y20035D01*
X10213Y20104D01*
G37*
G36*
X9787Y20104D02*
X9651Y20035D01*
X10349Y20035D01*
X9787Y20104D01*
G37*
G36*
X10684Y17409D02*
X10349Y20035D01*
X9651Y20035D01*
X10684Y17409D01*
G37*
G36*
X9250Y17409D02*
X10684Y17409D01*
X9651Y20035D01*
X9250Y17409D01*
G37*
G36*
X9651Y20035D02*
X9500Y20011D01*
X9250Y17409D01*
X9651Y20035D01*
G37*
G36*
X9250Y17409D02*
X9500Y20011D01*
X9349Y20035D01*
X9250Y17409D01*
G37*
G36*
X9250Y17409D02*
X9349Y20035D01*
X9209Y17404D01*
X9250Y17409D01*
G37*
G36*
X9209Y17404D02*
X9349Y20035D01*
X8651Y20035D01*
X9209Y17404D01*
G37*
G36*
X8787Y20104D02*
X8651Y20035D01*
X9349Y20035D01*
X8787Y20104D01*
G37*
G36*
X9213Y20104D02*
X8787Y20104D01*
X9349Y20035D01*
X9213Y20104D01*
G37*
G36*
X8896Y20213D02*
X8787Y20104D01*
X9213Y20104D01*
X8896Y20213D01*
G37*
G36*
X9104Y20213D02*
X8896Y20213D01*
X9213Y20104D01*
X9104Y20213D01*
G37*
G36*
X9104Y20213D02*
X9035Y20349D01*
X8896Y20213D01*
X9104Y20213D01*
G37*
G36*
X9035Y20349D02*
X8965Y20349D01*
X8896Y20213D01*
X9035Y20349D01*
G37*
G36*
X9035Y20349D02*
X9011Y20500D01*
X8965Y20349D01*
X9035Y20349D01*
G37*
G36*
X9011Y20500D02*
X8989Y20500D01*
X8965Y20349D01*
X9011Y20500D01*
G37*
G36*
X8989Y20500D02*
X9011Y20500D01*
X9035Y20651D01*
X8989Y20500D01*
G37*
G36*
X8965Y20651D02*
X8989Y20500D01*
X9035Y20651D01*
X8965Y20651D01*
G37*
G36*
X8965Y20651D02*
X9035Y20651D01*
X9104Y20787D01*
X8965Y20651D01*
G37*
G36*
X8896Y20787D02*
X8965Y20651D01*
X9104Y20787D01*
X8896Y20787D01*
G37*
G36*
X8787Y20896D02*
X8896Y20787D01*
X9104Y20787D01*
X8787Y20896D01*
G37*
G36*
X9104Y20787D02*
X9213Y20896D01*
X8787Y20896D01*
X9104Y20787D01*
G37*
G36*
X8787Y20896D02*
X9213Y20896D01*
X9349Y20965D01*
X8787Y20896D01*
G37*
G36*
X8787Y20896D02*
X9349Y20965D01*
X8651Y20965D01*
X8787Y20896D01*
G37*
G36*
X9756Y21454D02*
X8651Y20965D01*
X9349Y20965D01*
X9756Y21454D01*
G37*
G36*
X9756Y21454D02*
X9349Y20965D01*
X9744Y21375D01*
X9756Y21454D01*
G37*
G36*
X9744Y21375D02*
X9349Y20965D01*
X9500Y20989D01*
X9744Y21375D01*
G37*
G36*
X9744Y21375D02*
X9500Y20989D01*
X9756Y21296D01*
X9744Y21375D01*
G37*
G36*
X9792Y21224D02*
X9756Y21296D01*
X9500Y20989D01*
X9792Y21224D01*
G37*
G36*
X9792Y21224D02*
X9500Y20989D01*
X9651Y20965D01*
X9792Y21224D01*
G37*
G36*
X9792Y21224D02*
X9651Y20965D01*
X9849Y21167D01*
X9792Y21224D01*
G37*
G36*
X9651Y20965D02*
X9787Y20896D01*
X9849Y21167D01*
X9651Y20965D01*
G37*
G36*
X9849Y21167D02*
X9787Y20896D01*
X9921Y21131D01*
X9849Y21167D01*
G37*
G36*
X9921Y21131D02*
X9787Y20896D01*
X10000Y21119D01*
X9921Y21131D01*
G37*
G36*
X9787Y20896D02*
X9896Y20787D01*
X10000Y21119D01*
X9787Y20896D01*
G37*
G36*
X9756Y21454D02*
X7994Y22000D01*
X8651Y20965D01*
X9756Y21454D01*
G37*
G36*
X8651Y20965D02*
X7994Y22000D01*
X7970Y21847D01*
X8651Y20965D01*
G37*
G36*
X8651Y20965D02*
X7970Y21847D01*
X8500Y20989D01*
X8651Y20965D01*
G37*
G36*
X7970Y21847D02*
X7900Y21710D01*
X8500Y20989D01*
X7970Y21847D01*
G37*
G36*
X7900Y21710D02*
X8349Y20965D01*
X8500Y20989D01*
X7900Y21710D01*
G37*
G36*
X8349Y20965D02*
X7900Y21710D01*
X7790Y21600D01*
X8349Y20965D01*
G37*
G36*
X8349Y20965D02*
X7790Y21600D01*
X8213Y20896D01*
X8349Y20965D01*
G37*
G36*
X8213Y20896D02*
X7790Y21600D01*
X7787Y20896D01*
X8213Y20896D01*
G37*
G36*
X7653Y21530D02*
X7787Y20896D01*
X7790Y21600D01*
X7653Y21530D01*
G37*
G36*
X7653Y21530D02*
X7651Y20965D01*
X7787Y20896D01*
X7653Y21530D01*
G37*
G36*
X7500Y21506D02*
X7651Y20965D01*
X7653Y21530D01*
X7500Y21506D01*
G37*
G36*
X7500Y21506D02*
X7500Y20989D01*
X7651Y20965D01*
X7500Y21506D01*
G37*
G36*
X7349Y20965D02*
X7500Y20989D01*
X7500Y21506D01*
X7349Y20965D01*
G37*
G36*
X7347Y21530D02*
X7349Y20965D01*
X7500Y21506D01*
X7347Y21530D01*
G37*
G36*
X7347Y21530D02*
X7213Y20896D01*
X7349Y20965D01*
X7347Y21530D01*
G37*
G36*
X7347Y21530D02*
X7210Y21600D01*
X7213Y20896D01*
X7347Y21530D01*
G37*
G36*
X7210Y21600D02*
X6790Y21600D01*
X7213Y20896D01*
X7210Y21600D01*
G37*
G36*
X6790Y21600D02*
X6787Y20896D01*
X7213Y20896D01*
X6790Y21600D01*
G37*
G36*
X7213Y20896D02*
X6787Y20896D01*
X7104Y20787D01*
X7213Y20896D01*
G37*
G36*
X6787Y20896D02*
X6896Y20787D01*
X7104Y20787D01*
X6787Y20896D01*
G37*
G36*
X6896Y20787D02*
X6965Y20651D01*
X7104Y20787D01*
X6896Y20787D01*
G37*
G36*
X6965Y20651D02*
X7035Y20651D01*
X7104Y20787D01*
X6965Y20651D01*
G37*
G36*
X6965Y20651D02*
X6989Y20500D01*
X7035Y20651D01*
X6965Y20651D01*
G37*
G36*
X6989Y20500D02*
X7011Y20500D01*
X7035Y20651D01*
X6989Y20500D01*
G37*
G36*
X7011Y20500D02*
X6989Y20500D01*
X6965Y20349D01*
X7011Y20500D01*
G37*
G36*
X7035Y20349D02*
X7011Y20500D01*
X6965Y20349D01*
X7035Y20349D01*
G37*
G36*
X7035Y20349D02*
X6965Y20349D01*
X6896Y20213D01*
X7035Y20349D01*
G37*
G36*
X7104Y20213D02*
X7035Y20349D01*
X6896Y20213D01*
X7104Y20213D01*
G37*
G36*
X7104Y20213D02*
X6896Y20213D01*
X7213Y20104D01*
X7104Y20213D01*
G37*
G36*
X6896Y20213D02*
X6787Y20104D01*
X7213Y20104D01*
X6896Y20213D01*
G37*
G36*
X7213Y20104D02*
X6787Y20104D01*
X7349Y20035D01*
X7213Y20104D01*
G37*
G36*
X6787Y20104D02*
X6651Y20035D01*
X7349Y20035D01*
X6787Y20104D01*
G37*
G36*
X8388Y16612D02*
X7349Y20035D01*
X6651Y20035D01*
X8388Y16612D01*
G37*
G36*
X6500Y20011D02*
X8388Y16612D01*
X6651Y20035D01*
X6500Y20011D01*
G37*
G36*
X8388Y16612D02*
X6500Y20011D01*
X8362Y16579D01*
X8388Y16612D01*
G37*
G36*
X8362Y16579D02*
X6500Y20011D01*
X6349Y20035D01*
X8362Y16579D01*
G37*
G36*
X8346Y16541D02*
X8362Y16579D01*
X6349Y20035D01*
X8346Y16541D01*
G37*
G36*
X8346Y16541D02*
X6349Y20035D01*
X5651Y20035D01*
X8346Y16541D01*
G37*
G36*
X5787Y20104D02*
X5651Y20035D01*
X6349Y20035D01*
X5787Y20104D01*
G37*
G36*
X6213Y20104D02*
X5787Y20104D01*
X6349Y20035D01*
X6213Y20104D01*
G37*
G36*
X5896Y20213D02*
X5787Y20104D01*
X6213Y20104D01*
X5896Y20213D01*
G37*
G36*
X6104Y20213D02*
X5896Y20213D01*
X6213Y20104D01*
X6104Y20213D01*
G37*
G36*
X6104Y20213D02*
X6035Y20349D01*
X5896Y20213D01*
X6104Y20213D01*
G37*
G36*
X6035Y20349D02*
X5965Y20349D01*
X5896Y20213D01*
X6035Y20349D01*
G37*
G36*
X6035Y20349D02*
X6011Y20500D01*
X5965Y20349D01*
X6035Y20349D01*
G37*
G36*
X6011Y20500D02*
X5989Y20500D01*
X5965Y20349D01*
X6011Y20500D01*
G37*
G36*
X5989Y20500D02*
X6011Y20500D01*
X6035Y20651D01*
X5989Y20500D01*
G37*
G36*
X5965Y20651D02*
X5989Y20500D01*
X6035Y20651D01*
X5965Y20651D01*
G37*
G36*
X5965Y20651D02*
X6035Y20651D01*
X6104Y20787D01*
X5965Y20651D01*
G37*
G36*
X5896Y20787D02*
X5965Y20651D01*
X6104Y20787D01*
X5896Y20787D01*
G37*
G36*
X5787Y20896D02*
X5896Y20787D01*
X6104Y20787D01*
X5787Y20896D01*
G37*
G36*
X6213Y20896D02*
X5787Y20896D01*
X6104Y20787D01*
X6213Y20896D01*
G37*
G36*
X5790Y21600D02*
X5787Y20896D01*
X6213Y20896D01*
X5790Y21600D01*
G37*
G36*
X6210Y21600D02*
X5790Y21600D01*
X6213Y20896D01*
X6210Y21600D01*
G37*
G36*
X6341Y21533D02*
X6210Y21600D01*
X6213Y20896D01*
X6341Y21533D01*
G37*
G36*
X6213Y20896D02*
X6341Y20961D01*
X6341Y21533D01*
X6213Y20896D01*
G37*
G36*
X5900Y21710D02*
X5790Y21600D01*
X6210Y21600D01*
X5900Y21710D01*
G37*
G36*
X6100Y21710D02*
X5900Y21710D01*
X6210Y21600D01*
X6100Y21710D01*
G37*
G36*
X5970Y21847D02*
X5900Y21710D01*
X6100Y21710D01*
X5970Y21847D01*
G37*
G36*
X6030Y21847D02*
X5970Y21847D01*
X6100Y21710D01*
X6030Y21847D01*
G37*
G36*
X5994Y22000D02*
X5970Y21847D01*
X6030Y21847D01*
X5994Y22000D01*
G37*
G36*
X6006Y22000D02*
X5994Y22000D01*
X6030Y21847D01*
X6006Y22000D01*
G37*
G36*
X5970Y22153D02*
X5994Y22000D01*
X6006Y22000D01*
X5970Y22153D01*
G37*
G36*
X6030Y22153D02*
X5970Y22153D01*
X6006Y22000D01*
X6030Y22153D01*
G37*
G36*
X5970Y22153D02*
X6030Y22153D01*
X6100Y22290D01*
X5970Y22153D01*
G37*
G36*
X5900Y22290D02*
X5970Y22153D01*
X6100Y22290D01*
X5900Y22290D01*
G37*
G36*
X6100Y22290D02*
X6210Y22400D01*
X5900Y22290D01*
X6100Y22290D01*
G37*
G36*
X6210Y22400D02*
X5790Y22400D01*
X5900Y22290D01*
X6210Y22400D01*
G37*
G36*
X6210Y22400D02*
X6347Y22470D01*
X5790Y22400D01*
X6210Y22400D01*
G37*
G36*
X5790Y22400D02*
X6347Y22470D01*
X5653Y22470D01*
X5790Y22400D01*
G37*
G36*
X6347Y22470D02*
X5500Y22494D01*
X5653Y22470D01*
X6347Y22470D01*
G37*
G36*
X5500Y22494D02*
X6347Y22470D01*
X6500Y22494D01*
X5500Y22494D01*
G37*
G36*
X6500Y22494D02*
X245Y23255D01*
X5500Y22494D01*
X6500Y22494D01*
G37*
G36*
X5500Y22494D02*
X245Y23255D01*
X4500Y22494D01*
X5500Y22494D01*
G37*
G36*
X4347Y22470D02*
X4500Y22494D01*
X245Y23255D01*
X4347Y22470D01*
G37*
G36*
X4347Y22470D02*
X245Y23255D01*
X2079Y22494D01*
X4347Y22470D01*
G37*
G36*
X245Y23255D02*
X2000Y22506D01*
X2079Y22494D01*
X245Y23255D01*
G37*
G36*
X245Y23255D02*
X1921Y22494D01*
X2000Y22506D01*
X245Y23255D01*
G37*
G36*
X245Y23255D02*
X1849Y22458D01*
X1921Y22494D01*
X245Y23255D01*
G37*
G36*
X245Y23255D02*
X1792Y22401D01*
X1849Y22458D01*
X245Y23255D01*
G37*
G36*
X245Y23255D02*
X1756Y22329D01*
X1792Y22401D01*
X245Y23255D01*
G37*
G36*
X245Y23255D02*
X1744Y22250D01*
X1756Y22329D01*
X245Y23255D01*
G37*
G36*
X1744Y22250D02*
X245Y23255D01*
X1756Y22171D01*
X1744Y22250D01*
G37*
G36*
X1756Y22171D02*
X245Y23255D01*
X1213Y20896D01*
X1756Y22171D01*
G37*
G36*
X245Y23255D02*
X1104Y20787D01*
X1213Y20896D01*
X245Y23255D01*
G37*
G36*
X245Y23255D02*
X1035Y20651D01*
X1104Y20787D01*
X245Y23255D01*
G37*
G36*
X1035Y20651D02*
X245Y23255D01*
X388Y19612D01*
X1035Y20651D01*
G37*
G36*
X245Y23255D02*
X362Y19579D01*
X388Y19612D01*
X245Y23255D01*
G37*
G36*
X245Y23255D02*
X346Y19541D01*
X362Y19579D01*
X245Y23255D01*
G37*
G36*
X245Y23255D02*
X341Y19500D01*
X346Y19541D01*
X245Y23255D01*
G37*
G36*
X341Y11750D02*
X341Y19500D01*
X245Y23255D01*
X341Y11750D01*
G37*
G36*
X245Y23255D02*
X245Y245D01*
X341Y11750D01*
X245Y23255D01*
G37*
G36*
X245Y245D02*
X506Y6250D01*
X341Y11750D01*
X245Y245D01*
G37*
G36*
X506Y7250D02*
X341Y11750D01*
X506Y6250D01*
X506Y7250D01*
G37*
G36*
X506Y7250D02*
X506Y6250D01*
X530Y7097D01*
X506Y7250D01*
G37*
G36*
X506Y6250D02*
X530Y6403D01*
X530Y7097D01*
X506Y6250D01*
G37*
G36*
X530Y7097D02*
X530Y6403D01*
X600Y6540D01*
X530Y7097D01*
G37*
G36*
X600Y6960D02*
X530Y7097D01*
X600Y6540D01*
X600Y6960D01*
G37*
G36*
X600Y6960D02*
X600Y6540D01*
X710Y6650D01*
X600Y6960D01*
G37*
G36*
X710Y6850D02*
X600Y6960D01*
X710Y6650D01*
X710Y6850D01*
G37*
G36*
X710Y6850D02*
X710Y6650D01*
X847Y6720D01*
X710Y6850D01*
G37*
G36*
X847Y6780D02*
X710Y6850D01*
X847Y6720D01*
X847Y6780D01*
G37*
G36*
X847Y6780D02*
X847Y6720D01*
X1000Y6744D01*
X847Y6780D01*
G37*
G36*
X1000Y6756D02*
X847Y6780D01*
X1000Y6744D01*
X1000Y6756D01*
G37*
G36*
X1153Y6780D02*
X1000Y6756D01*
X1000Y6744D01*
X1153Y6780D01*
G37*
G36*
X1153Y6780D02*
X1000Y6744D01*
X1153Y6720D01*
X1153Y6780D01*
G37*
G36*
X1153Y6780D02*
X1153Y6720D01*
X1290Y6650D01*
X1153Y6780D01*
G37*
G36*
X1153Y6780D02*
X1290Y6650D01*
X1290Y6850D01*
X1153Y6780D01*
G37*
G36*
X1400Y6960D02*
X1290Y6850D01*
X1290Y6650D01*
X1400Y6960D01*
G37*
G36*
X1400Y6960D02*
X1290Y6650D01*
X1400Y6540D01*
X1400Y6960D01*
G37*
G36*
X1400Y6960D02*
X1400Y6540D01*
X2006Y6750D01*
X1400Y6960D01*
G37*
G36*
X2006Y6750D02*
X1400Y6540D01*
X2030Y6597D01*
X2006Y6750D01*
G37*
G36*
X2030Y6597D02*
X1400Y6540D01*
X1470Y6403D01*
X2030Y6597D01*
G37*
G36*
X2030Y6597D02*
X1470Y6403D01*
X2100Y6460D01*
X2030Y6597D01*
G37*
G36*
X1470Y6403D02*
X1494Y6250D01*
X2100Y6460D01*
X1470Y6403D01*
G37*
G36*
X1494Y6250D02*
X2100Y6040D01*
X2100Y6460D01*
X1494Y6250D01*
G37*
G36*
X2100Y6460D02*
X2100Y6040D01*
X2210Y6150D01*
X2100Y6460D01*
G37*
G36*
X2210Y6350D02*
X2100Y6460D01*
X2210Y6150D01*
X2210Y6350D01*
G37*
G36*
X2210Y6350D02*
X2210Y6150D01*
X2347Y6220D01*
X2210Y6350D01*
G37*
G36*
X2347Y6280D02*
X2210Y6350D01*
X2347Y6220D01*
X2347Y6280D01*
G37*
G36*
X2347Y6280D02*
X2347Y6220D01*
X2500Y6244D01*
X2347Y6280D01*
G37*
G36*
X2500Y6256D02*
X2347Y6280D01*
X2500Y6244D01*
X2500Y6256D01*
G37*
G36*
X2653Y6280D02*
X2500Y6256D01*
X2500Y6244D01*
X2653Y6280D01*
G37*
G36*
X2653Y6280D02*
X2500Y6244D01*
X2653Y6220D01*
X2653Y6280D01*
G37*
G36*
X2653Y6280D02*
X2653Y6220D01*
X2714Y6189D01*
X2653Y6280D01*
G37*
G36*
X2653Y6280D02*
X2714Y6189D01*
X2790Y6350D01*
X2653Y6280D01*
G37*
G36*
X2714Y6189D02*
X2900Y6460D01*
X2790Y6350D01*
X2714Y6189D01*
G37*
G36*
X2714Y6189D02*
X8138Y11612D01*
X2900Y6460D01*
X2714Y6189D01*
G37*
G36*
X2970Y6597D02*
X2900Y6460D01*
X8138Y11612D01*
X2970Y6597D01*
G37*
G36*
X8138Y11612D02*
X2994Y6750D01*
X2970Y6597D01*
X8138Y11612D01*
G37*
G36*
X2970Y6903D02*
X2994Y6750D01*
X8138Y11612D01*
X2970Y6903D01*
G37*
G36*
X2939Y6964D02*
X2970Y6903D01*
X8138Y11612D01*
X2939Y6964D01*
G37*
G36*
X2939Y6964D02*
X8138Y11612D01*
X7816Y11841D01*
X2939Y6964D01*
G37*
G36*
X7816Y11841D02*
X8138Y11612D01*
X8171Y11638D01*
X7816Y11841D01*
G37*
G36*
X7816Y11841D02*
X8171Y11638D01*
X8209Y11654D01*
X7816Y11841D01*
G37*
G36*
X7816Y11841D02*
X8209Y11654D01*
X8250Y11659D01*
X7816Y11841D01*
G37*
G36*
X7816Y11841D02*
X8250Y11659D01*
X14625Y11841D01*
X7816Y11841D01*
G37*
G36*
X14625Y11841D02*
X8250Y11659D01*
X15059Y11659D01*
X14625Y11841D01*
G37*
G36*
X14666Y11846D02*
X14625Y11841D01*
X15059Y11659D01*
X14666Y11846D01*
G37*
G36*
X14704Y11862D02*
X14666Y11846D01*
X15059Y11659D01*
X14704Y11862D01*
G37*
G36*
X14737Y11888D02*
X14704Y11862D01*
X15059Y11659D01*
X14737Y11888D01*
G37*
G36*
X15763Y12362D02*
X14737Y11888D01*
X15059Y11659D01*
X15763Y12362D01*
G37*
G36*
X15763Y12362D02*
X15691Y12841D01*
X14737Y11888D01*
X15763Y12362D01*
G37*
G36*
X15691Y12841D02*
X15763Y12362D01*
X15796Y12388D01*
X15691Y12841D01*
G37*
G36*
X15691Y12841D02*
X15796Y12388D01*
X15834Y12404D01*
X15691Y12841D01*
G37*
G36*
X15691Y12841D02*
X15834Y12404D01*
X15875Y12409D01*
X15691Y12841D01*
G37*
G36*
X15691Y12841D02*
X15875Y12409D01*
X16131Y12631D01*
X15691Y12841D01*
G37*
G36*
X15875Y12409D02*
X16131Y12619D01*
X16131Y12631D01*
X15875Y12409D01*
G37*
G36*
X16131Y12631D02*
X16131Y12619D01*
X16869Y12619D01*
X16131Y12631D01*
G37*
G36*
X16131Y12631D02*
X16869Y12619D01*
X16869Y12631D01*
X16131Y12631D01*
G37*
G36*
X16869Y12631D02*
X16869Y12619D01*
X17341Y14434D01*
X16869Y12631D01*
G37*
G36*
X16869Y11881D02*
X17341Y14434D01*
X16869Y12619D01*
X16869Y11881D01*
G37*
G36*
X16869Y11881D02*
X16869Y11869D01*
X17341Y14434D01*
X16869Y11881D01*
G37*
G36*
X17341Y14434D02*
X16869Y11869D01*
X16869Y11131D01*
X17341Y14434D01*
G37*
G36*
X17341Y9500D02*
X17341Y14434D01*
X16869Y11131D01*
X17341Y9500D01*
G37*
G36*
X16869Y11131D02*
X16654Y10709D01*
X17341Y9500D01*
X16869Y11131D01*
G37*
G36*
X16903Y9470D02*
X17341Y9500D01*
X16654Y10709D01*
X16903Y9470D01*
G37*
G36*
X16903Y9470D02*
X16654Y10709D01*
X16638Y10671D01*
X16903Y9470D01*
G37*
G36*
X16903Y9470D02*
X16638Y10671D01*
X16612Y10638D01*
X16903Y9470D01*
G37*
G36*
X16612Y10638D02*
X16750Y9494D01*
X16903Y9470D01*
X16612Y10638D01*
G37*
G36*
X16612Y10638D02*
X16362Y10388D01*
X16750Y9494D01*
X16612Y10638D01*
G37*
G36*
X16362Y10388D02*
X16329Y10362D01*
X16750Y9494D01*
X16362Y10388D01*
G37*
G36*
X16750Y9494D02*
X16329Y10362D01*
X16597Y9470D01*
X16750Y9494D01*
G37*
G36*
X16597Y9470D02*
X16329Y10362D01*
X16291Y10346D01*
X16597Y9470D01*
G37*
G36*
X16291Y10346D02*
X16250Y10341D01*
X16597Y9470D01*
X16291Y10346D01*
G37*
G36*
X16250Y10341D02*
X16460Y9400D01*
X16597Y9470D01*
X16250Y10341D01*
G37*
G36*
X16250Y10341D02*
X16040Y9400D01*
X16460Y9400D01*
X16250Y10341D01*
G37*
G36*
X16040Y9400D02*
X16350Y9290D01*
X16460Y9400D01*
X16040Y9400D01*
G37*
G36*
X16350Y9290D02*
X16040Y9400D01*
X16150Y9290D01*
X16350Y9290D01*
G37*
G36*
X16220Y9153D02*
X16350Y9290D01*
X16150Y9290D01*
X16220Y9153D01*
G37*
G36*
X16350Y9290D02*
X16220Y9153D01*
X16280Y9153D01*
X16350Y9290D01*
G37*
G36*
X16280Y9153D02*
X16220Y9153D01*
X16256Y9000D01*
X16280Y9153D01*
G37*
G36*
X16220Y9153D02*
X16244Y9000D01*
X16256Y9000D01*
X16220Y9153D01*
G37*
G36*
X16256Y9000D02*
X16244Y9000D01*
X16280Y8847D01*
X16256Y9000D01*
G37*
G36*
X16244Y9000D02*
X16220Y8847D01*
X16280Y8847D01*
X16244Y9000D01*
G37*
G36*
X16280Y8847D02*
X16220Y8847D01*
X16350Y8710D01*
X16280Y8847D01*
G37*
G36*
X16220Y8847D02*
X16150Y8710D01*
X16350Y8710D01*
X16220Y8847D01*
G37*
G36*
X16350Y8710D02*
X16150Y8710D01*
X16460Y8600D01*
X16350Y8710D01*
G37*
G36*
X16150Y8710D02*
X16040Y8600D01*
X16460Y8600D01*
X16150Y8710D01*
G37*
G36*
X16153Y7470D02*
X16460Y8600D01*
X16040Y8600D01*
X16153Y7470D01*
G37*
G36*
X15903Y8530D02*
X16153Y7470D01*
X16040Y8600D01*
X15903Y8530D01*
G37*
G36*
X16000Y7494D02*
X16153Y7470D01*
X15903Y8530D01*
X16000Y7494D01*
G37*
G36*
X15903Y8530D02*
X15750Y8506D01*
X16000Y7494D01*
X15903Y8530D01*
G37*
G36*
X15750Y8506D02*
X15847Y7470D01*
X16000Y7494D01*
X15750Y8506D01*
G37*
G36*
X15847Y7470D02*
X15750Y8506D01*
X15597Y8530D01*
X15847Y7470D01*
G37*
G36*
X15847Y7470D02*
X15597Y8530D01*
X15710Y7400D01*
X15847Y7470D01*
G37*
G36*
X15710Y7400D02*
X15597Y8530D01*
X14903Y8530D01*
X15710Y7400D01*
G37*
G36*
X15040Y8600D02*
X14903Y8530D01*
X15597Y8530D01*
X15040Y8600D01*
G37*
G36*
X15460Y8600D02*
X15040Y8600D01*
X15597Y8530D01*
X15460Y8600D01*
G37*
G36*
X15150Y8710D02*
X15040Y8600D01*
X15460Y8600D01*
X15150Y8710D01*
G37*
G36*
X15350Y8710D02*
X15150Y8710D01*
X15460Y8600D01*
X15350Y8710D01*
G37*
G36*
X15220Y8847D02*
X15150Y8710D01*
X15350Y8710D01*
X15220Y8847D01*
G37*
G36*
X15280Y8847D02*
X15220Y8847D01*
X15350Y8710D01*
X15280Y8847D01*
G37*
G36*
X15244Y9000D02*
X15220Y8847D01*
X15280Y8847D01*
X15244Y9000D01*
G37*
G36*
X15256Y9000D02*
X15244Y9000D01*
X15280Y8847D01*
X15256Y9000D01*
G37*
G36*
X15220Y9153D02*
X15244Y9000D01*
X15256Y9000D01*
X15220Y9153D01*
G37*
G36*
X15280Y9153D02*
X15220Y9153D01*
X15256Y9000D01*
X15280Y9153D01*
G37*
G36*
X15220Y9153D02*
X15280Y9153D01*
X15350Y9290D01*
X15220Y9153D01*
G37*
G36*
X15150Y9290D02*
X15220Y9153D01*
X15350Y9290D01*
X15150Y9290D01*
G37*
G36*
X15350Y9290D02*
X15460Y9400D01*
X15150Y9290D01*
X15350Y9290D01*
G37*
G36*
X15460Y9400D02*
X15040Y9400D01*
X15150Y9290D01*
X15460Y9400D01*
G37*
G36*
X15460Y9400D02*
X14903Y9470D01*
X15040Y9400D01*
X15460Y9400D01*
G37*
G36*
X14903Y9470D02*
X15460Y9400D01*
X15597Y9470D01*
X14903Y9470D01*
G37*
G36*
X15597Y9470D02*
X16250Y10341D01*
X14903Y9470D01*
X15597Y9470D01*
G37*
G36*
X14750Y9494D02*
X14903Y9470D01*
X16250Y10341D01*
X14750Y9494D01*
G37*
G36*
X14750Y9494D02*
X16250Y10341D01*
X13441Y10341D01*
X14750Y9494D01*
G37*
G36*
X13441Y10341D02*
X14597Y9470D01*
X14750Y9494D01*
X13441Y10341D01*
G37*
G36*
X13441Y10341D02*
X14460Y9400D01*
X14597Y9470D01*
X13441Y10341D01*
G37*
G36*
X13679Y9340D02*
X14460Y9400D01*
X13441Y10341D01*
X13679Y9340D01*
G37*
G36*
X13441Y10341D02*
X13475Y9444D01*
X13679Y9340D01*
X13441Y10341D01*
G37*
G36*
X13441Y10341D02*
X13250Y9479D01*
X13475Y9444D01*
X13441Y10341D01*
G37*
G36*
X13025Y9444D02*
X13250Y9479D01*
X13441Y10341D01*
X13025Y9444D01*
G37*
G36*
X13025Y9444D02*
X13441Y10341D01*
X12409Y9309D01*
X13025Y9444D01*
G37*
G36*
X12409Y9309D02*
X12821Y9340D01*
X13025Y9444D01*
X12409Y9309D01*
G37*
G36*
X12409Y9309D02*
X12660Y9179D01*
X12821Y9340D01*
X12409Y9309D01*
G37*
G36*
X12409Y9309D02*
X12556Y8975D01*
X12660Y9179D01*
X12409Y9309D01*
G37*
G36*
X12409Y9309D02*
X12521Y8750D01*
X12556Y8975D01*
X12409Y9309D01*
G37*
G36*
X12409Y9309D02*
X12409Y8500D01*
X12521Y8750D01*
X12409Y9309D01*
G37*
G36*
X12521Y8750D02*
X12409Y8500D01*
X12556Y8525D01*
X12521Y8750D01*
G37*
G36*
X12556Y8525D02*
X12409Y8500D01*
X12404Y8459D01*
X12556Y8525D01*
G37*
G36*
X12556Y8525D02*
X12404Y8459D01*
X12388Y8421D01*
X12556Y8525D01*
G37*
G36*
X12388Y8421D02*
X12660Y8321D01*
X12556Y8525D01*
X12388Y8421D01*
G37*
G36*
X12388Y8421D02*
X12362Y8388D01*
X12660Y8321D01*
X12388Y8421D01*
G37*
G36*
X11970Y7903D02*
X12660Y8321D01*
X12362Y8388D01*
X11970Y7903D01*
G37*
G36*
X12362Y8388D02*
X11939Y7964D01*
X11970Y7903D01*
X12362Y8388D01*
G37*
G36*
X12660Y8321D02*
X11970Y7903D01*
X12821Y8160D01*
X12660Y8321D01*
G37*
G36*
X11994Y7750D02*
X12821Y8160D01*
X11970Y7903D01*
X11994Y7750D01*
G37*
G36*
X12821Y8160D02*
X11994Y7750D01*
X12710Y7400D01*
X12821Y8160D01*
G37*
G36*
X12710Y7400D02*
X11994Y7750D01*
X12600Y7290D01*
X12710Y7400D01*
G37*
G36*
X11994Y7750D02*
X11970Y7597D01*
X12600Y7290D01*
X11994Y7750D01*
G37*
G36*
X11970Y7597D02*
X12530Y7153D01*
X12600Y7290D01*
X11970Y7597D01*
G37*
G36*
X11970Y7597D02*
X11900Y7460D01*
X12530Y7153D01*
X11970Y7597D01*
G37*
G36*
X11900Y7040D02*
X12530Y7153D01*
X11900Y7460D01*
X11900Y7040D01*
G37*
G36*
X11900Y7460D02*
X11790Y7150D01*
X11900Y7040D01*
X11900Y7460D01*
G37*
G36*
X11900Y7460D02*
X11790Y7350D01*
X11790Y7150D01*
X11900Y7460D01*
G37*
G36*
X11653Y7280D02*
X11790Y7150D01*
X11790Y7350D01*
X11653Y7280D01*
G37*
G36*
X11653Y7280D02*
X11653Y7220D01*
X11790Y7150D01*
X11653Y7280D01*
G37*
G36*
X11653Y7280D02*
X11500Y7244D01*
X11653Y7220D01*
X11653Y7280D01*
G37*
G36*
X11653Y7280D02*
X11500Y7256D01*
X11500Y7244D01*
X11653Y7280D01*
G37*
G36*
X11500Y7256D02*
X11347Y7280D01*
X11500Y7244D01*
X11500Y7256D01*
G37*
G36*
X11347Y7280D02*
X11347Y7220D01*
X11500Y7244D01*
X11347Y7280D01*
G37*
G36*
X11347Y7280D02*
X11210Y7350D01*
X11347Y7220D01*
X11347Y7280D01*
G37*
G36*
X11210Y7350D02*
X11210Y7150D01*
X11347Y7220D01*
X11210Y7350D01*
G37*
G36*
X11210Y7350D02*
X11100Y7460D01*
X11210Y7150D01*
X11210Y7350D01*
G37*
G36*
X11100Y7460D02*
X11100Y7040D01*
X11210Y7150D01*
X11100Y7460D01*
G37*
G36*
X11100Y7460D02*
X11030Y7597D01*
X11100Y7040D01*
X11100Y7460D01*
G37*
G36*
X11030Y7597D02*
X11030Y6903D01*
X11100Y7040D01*
X11030Y7597D01*
G37*
G36*
X11006Y6750D02*
X11030Y6903D01*
X11030Y7597D01*
X11006Y6750D01*
G37*
G36*
X11030Y7597D02*
X11006Y7750D01*
X11006Y6750D01*
X11030Y7597D01*
G37*
G36*
X2970Y5903D02*
X11006Y6750D01*
X11006Y7750D01*
X2970Y5903D01*
G37*
G36*
X8316Y11341D02*
X2970Y5903D01*
X11006Y7750D01*
X8316Y11341D01*
G37*
G36*
X8316Y11341D02*
X11006Y7750D01*
X11006Y8750D01*
X8316Y11341D01*
G37*
G36*
X11030Y8597D02*
X11006Y8750D01*
X11006Y7750D01*
X11030Y8597D01*
G37*
G36*
X11006Y7750D02*
X11030Y7903D01*
X11030Y8597D01*
X11006Y7750D01*
G37*
G36*
X11030Y8597D02*
X11030Y7903D01*
X11100Y8040D01*
X11030Y8597D01*
G37*
G36*
X11100Y8460D02*
X11030Y8597D01*
X11100Y8040D01*
X11100Y8460D01*
G37*
G36*
X11100Y8460D02*
X11100Y8040D01*
X11210Y8150D01*
X11100Y8460D01*
G37*
G36*
X11210Y8350D02*
X11100Y8460D01*
X11210Y8150D01*
X11210Y8350D01*
G37*
G36*
X11210Y8350D02*
X11210Y8150D01*
X11347Y8220D01*
X11210Y8350D01*
G37*
G36*
X11347Y8280D02*
X11210Y8350D01*
X11347Y8220D01*
X11347Y8280D01*
G37*
G36*
X11347Y8280D02*
X11347Y8220D01*
X11500Y8244D01*
X11347Y8280D01*
G37*
G36*
X11500Y8256D02*
X11347Y8280D01*
X11500Y8244D01*
X11500Y8256D01*
G37*
G36*
X11653Y8280D02*
X11500Y8256D01*
X11500Y8244D01*
X11653Y8280D01*
G37*
G36*
X11653Y8280D02*
X11500Y8244D01*
X11653Y8220D01*
X11653Y8280D01*
G37*
G36*
X11653Y8280D02*
X11653Y8220D01*
X11714Y8189D01*
X11653Y8280D01*
G37*
G36*
X11653Y8280D02*
X11714Y8189D01*
X11790Y8350D01*
X11653Y8280D01*
G37*
G36*
X11714Y8189D02*
X11900Y8460D01*
X11790Y8350D01*
X11714Y8189D01*
G37*
G36*
X11900Y8460D02*
X11714Y8189D01*
X12091Y8566D01*
X11900Y8460D01*
G37*
G36*
X11970Y8597D02*
X11900Y8460D01*
X12091Y8566D01*
X11970Y8597D01*
G37*
G36*
X11994Y8750D02*
X11970Y8597D01*
X12091Y8566D01*
X11994Y8750D01*
G37*
G36*
X11994Y8750D02*
X12091Y8566D01*
X11970Y8903D01*
X11994Y8750D01*
G37*
G36*
X11970Y8903D02*
X12091Y8566D01*
X12091Y9375D01*
X11970Y8903D01*
G37*
G36*
X11900Y9040D02*
X11970Y8903D01*
X12091Y9375D01*
X11900Y9040D01*
G37*
G36*
X12091Y9375D02*
X11790Y9150D01*
X11900Y9040D01*
X12091Y9375D01*
G37*
G36*
X12091Y9375D02*
X11790Y9350D01*
X11790Y9150D01*
X12091Y9375D01*
G37*
G36*
X11653Y9280D02*
X11790Y9150D01*
X11790Y9350D01*
X11653Y9280D01*
G37*
G36*
X11653Y9280D02*
X11653Y9220D01*
X11790Y9150D01*
X11653Y9280D01*
G37*
G36*
X11653Y9280D02*
X11500Y9244D01*
X11653Y9220D01*
X11653Y9280D01*
G37*
G36*
X11653Y9280D02*
X11500Y9256D01*
X11500Y9244D01*
X11653Y9280D01*
G37*
G36*
X11500Y9256D02*
X11347Y9280D01*
X11500Y9244D01*
X11500Y9256D01*
G37*
G36*
X11347Y9280D02*
X11347Y9220D01*
X11500Y9244D01*
X11347Y9280D01*
G37*
G36*
X11347Y9280D02*
X11210Y9350D01*
X11347Y9220D01*
X11347Y9280D01*
G37*
G36*
X11210Y9350D02*
X11210Y9150D01*
X11347Y9220D01*
X11210Y9350D01*
G37*
G36*
X11210Y9350D02*
X11100Y9460D01*
X11210Y9150D01*
X11210Y9350D01*
G37*
G36*
X11100Y9460D02*
X11100Y9040D01*
X11210Y9150D01*
X11100Y9460D01*
G37*
G36*
X11100Y9460D02*
X11030Y9597D01*
X11100Y9040D01*
X11100Y9460D01*
G37*
G36*
X11030Y9597D02*
X11030Y8903D01*
X11100Y9040D01*
X11030Y9597D01*
G37*
G36*
X8316Y11341D02*
X11030Y8903D01*
X11030Y9597D01*
X8316Y11341D01*
G37*
G36*
X11006Y9750D02*
X8316Y11341D01*
X11030Y9597D01*
X11006Y9750D01*
G37*
G36*
X8316Y11341D02*
X11006Y9750D01*
X11030Y9903D01*
X8316Y11341D01*
G37*
G36*
X8316Y11341D02*
X11030Y9903D01*
X11030Y10597D01*
X8316Y11341D01*
G37*
G36*
X11030Y10597D02*
X11030Y9903D01*
X11100Y10040D01*
X11030Y10597D01*
G37*
G36*
X11100Y10460D02*
X11030Y10597D01*
X11100Y10040D01*
X11100Y10460D01*
G37*
G36*
X11100Y10460D02*
X11100Y10040D01*
X11210Y10150D01*
X11100Y10460D01*
G37*
G36*
X11210Y10350D02*
X11100Y10460D01*
X11210Y10150D01*
X11210Y10350D01*
G37*
G36*
X11210Y10350D02*
X11210Y10150D01*
X11347Y10220D01*
X11210Y10350D01*
G37*
G36*
X11347Y10280D02*
X11210Y10350D01*
X11347Y10220D01*
X11347Y10280D01*
G37*
G36*
X11347Y10280D02*
X11347Y10220D01*
X11500Y10244D01*
X11347Y10280D01*
G37*
G36*
X11500Y10256D02*
X11347Y10280D01*
X11500Y10244D01*
X11500Y10256D01*
G37*
G36*
X11653Y10280D02*
X11500Y10256D01*
X11500Y10244D01*
X11653Y10280D01*
G37*
G36*
X11653Y10280D02*
X11500Y10244D01*
X11653Y10220D01*
X11653Y10280D01*
G37*
G36*
X11653Y10280D02*
X11653Y10220D01*
X11790Y10150D01*
X11653Y10280D01*
G37*
G36*
X11653Y10280D02*
X11790Y10150D01*
X11790Y10350D01*
X11653Y10280D01*
G37*
G36*
X11900Y10460D02*
X11790Y10350D01*
X11790Y10150D01*
X11900Y10460D01*
G37*
G36*
X11900Y10460D02*
X11790Y10150D01*
X11900Y10040D01*
X11900Y10460D01*
G37*
G36*
X11970Y10597D02*
X11900Y10460D01*
X11900Y10040D01*
X11970Y10597D01*
G37*
G36*
X11970Y10597D02*
X11900Y10040D01*
X11970Y9903D01*
X11970Y10597D01*
G37*
G36*
X13263Y10612D02*
X11970Y10597D01*
X11970Y9903D01*
X13263Y10612D01*
G37*
G36*
X11970Y9903D02*
X12138Y9487D01*
X13263Y10612D01*
X11970Y9903D01*
G37*
G36*
X11994Y9750D02*
X12138Y9487D01*
X11970Y9903D01*
X11994Y9750D01*
G37*
G36*
X11994Y9750D02*
X11970Y9597D01*
X12138Y9487D01*
X11994Y9750D01*
G37*
G36*
X11970Y9597D02*
X12112Y9454D01*
X12138Y9487D01*
X11970Y9597D01*
G37*
G36*
X12112Y9454D02*
X11970Y9597D01*
X11900Y9460D01*
X12112Y9454D01*
G37*
G36*
X12112Y9454D02*
X11900Y9460D01*
X12096Y9416D01*
X12112Y9454D01*
G37*
G36*
X11900Y9460D02*
X12091Y9375D01*
X12096Y9416D01*
X11900Y9460D01*
G37*
G36*
X11900Y9460D02*
X11790Y9350D01*
X12091Y9375D01*
X11900Y9460D01*
G37*
G36*
X11994Y10750D02*
X11970Y10597D01*
X13263Y10612D01*
X11994Y10750D01*
G37*
G36*
X11970Y10903D02*
X11994Y10750D01*
X13263Y10612D01*
X11970Y10903D01*
G37*
G36*
X13296Y10638D02*
X11970Y10903D01*
X13263Y10612D01*
X13296Y10638D01*
G37*
G36*
X11900Y11040D02*
X11970Y10903D01*
X13296Y10638D01*
X11900Y11040D01*
G37*
G36*
X13296Y10638D02*
X13334Y10654D01*
X11900Y11040D01*
X13296Y10638D01*
G37*
G36*
X13334Y10654D02*
X11790Y11150D01*
X11900Y11040D01*
X13334Y10654D01*
G37*
G36*
X13375Y10659D02*
X11790Y11150D01*
X13334Y10654D01*
X13375Y10659D01*
G37*
G36*
X11790Y11150D02*
X13375Y10659D01*
X11653Y11220D01*
X11790Y11150D01*
G37*
G36*
X15125Y11341D02*
X11653Y11220D01*
X13375Y10659D01*
X15125Y11341D01*
G37*
G36*
X16184Y10659D02*
X15125Y11341D01*
X13375Y10659D01*
X16184Y10659D01*
G37*
G36*
X16184Y10659D02*
X15166Y11346D01*
X15125Y11341D01*
X16184Y10659D01*
G37*
G36*
X16184Y10659D02*
X15204Y11362D01*
X15166Y11346D01*
X16184Y10659D01*
G37*
G36*
X16131Y11131D02*
X15204Y11362D01*
X16184Y10659D01*
X16131Y11131D01*
G37*
G36*
X16131Y11131D02*
X16184Y10659D01*
X16341Y10816D01*
X16131Y11131D01*
G37*
G36*
X16131Y11131D02*
X16341Y10816D01*
X16341Y11131D01*
X16131Y11131D01*
G37*
G36*
X15237Y11388D02*
X15204Y11362D01*
X16131Y11131D01*
X15237Y11388D01*
G37*
G36*
X15237Y11388D02*
X16131Y11131D01*
X16131Y11869D01*
X15237Y11388D01*
G37*
G36*
X15941Y12091D02*
X15237Y11388D01*
X16131Y11869D01*
X15941Y12091D01*
G37*
G36*
X16131Y11881D02*
X15941Y12091D01*
X16131Y11869D01*
X16131Y11881D01*
G37*
G36*
X16131Y11881D02*
X16131Y11869D01*
X16869Y11869D01*
X16131Y11881D01*
G37*
G36*
X16131Y11881D02*
X16869Y11869D01*
X16869Y11881D01*
X16131Y11881D01*
G37*
G36*
X15941Y12091D02*
X16131Y11881D01*
X16131Y12091D01*
X15941Y12091D01*
G37*
G36*
X11500Y11244D02*
X11653Y11220D01*
X15125Y11341D01*
X11500Y11244D01*
G37*
G36*
X8316Y11341D02*
X11500Y11244D01*
X15125Y11341D01*
X8316Y11341D01*
G37*
G36*
X8316Y11341D02*
X11347Y11220D01*
X11500Y11244D01*
X8316Y11341D01*
G37*
G36*
X8316Y11341D02*
X11210Y11150D01*
X11347Y11220D01*
X8316Y11341D01*
G37*
G36*
X8316Y11341D02*
X11100Y11040D01*
X11210Y11150D01*
X8316Y11341D01*
G37*
G36*
X8316Y11341D02*
X11030Y10903D01*
X11100Y11040D01*
X8316Y11341D01*
G37*
G36*
X8316Y11341D02*
X11006Y10750D01*
X11030Y10903D01*
X8316Y11341D01*
G37*
G36*
X11030Y10597D02*
X11006Y10750D01*
X8316Y11341D01*
X11030Y10597D01*
G37*
G36*
X8316Y11341D02*
X11006Y8750D01*
X11030Y8903D01*
X8316Y11341D01*
G37*
G36*
X2970Y5903D02*
X8316Y11341D01*
X2939Y5964D01*
X2970Y5903D01*
G37*
G36*
X11006Y6750D02*
X2970Y5903D01*
X2994Y5750D01*
X11006Y6750D01*
G37*
G36*
X11006Y6750D02*
X2994Y5750D01*
X11006Y5750D01*
X11006Y6750D01*
G37*
G36*
X11006Y5750D02*
X2994Y5750D01*
X11006Y4750D01*
X11006Y5750D01*
G37*
G36*
X2994Y5750D02*
X2994Y4750D01*
X11006Y4750D01*
X2994Y5750D01*
G37*
G36*
X11006Y4750D02*
X2994Y4750D01*
X11006Y3750D01*
X11006Y4750D01*
G37*
G36*
X2994Y4750D02*
X2994Y3750D01*
X11006Y3750D01*
X2994Y4750D01*
G37*
G36*
X11006Y3750D02*
X2994Y3750D01*
X11030Y3597D01*
X11006Y3750D01*
G37*
G36*
X2994Y3750D02*
X2970Y3597D01*
X11030Y3597D01*
X2994Y3750D01*
G37*
G36*
X11030Y3597D02*
X2970Y3597D01*
X11100Y3460D01*
X11030Y3597D01*
G37*
G36*
X2970Y3597D02*
X2900Y3460D01*
X11100Y3460D01*
X2970Y3597D01*
G37*
G36*
X11100Y3460D02*
X2900Y3460D01*
X11210Y3350D01*
X11100Y3460D01*
G37*
G36*
X2900Y3460D02*
X2790Y3350D01*
X11210Y3350D01*
X2900Y3460D01*
G37*
G36*
X12951Y1710D02*
X11210Y3350D01*
X2790Y3350D01*
X12951Y1710D01*
G37*
G36*
X2653Y3280D02*
X12951Y1710D01*
X2790Y3350D01*
X2653Y3280D01*
G37*
G36*
X2500Y3256D02*
X12951Y1710D01*
X2653Y3280D01*
X2500Y3256D01*
G37*
G36*
X13107Y1403D02*
X12951Y1710D01*
X2500Y3256D01*
X13107Y1403D01*
G37*
G36*
X13107Y1403D02*
X2500Y3256D01*
X245Y245D01*
X13107Y1403D01*
G37*
G36*
X2347Y3280D02*
X245Y245D01*
X2500Y3256D01*
X2347Y3280D01*
G37*
G36*
X2210Y3350D02*
X245Y245D01*
X2347Y3280D01*
X2210Y3350D01*
G37*
G36*
X2210Y3350D02*
X1000Y3756D01*
X245Y245D01*
X2210Y3350D01*
G37*
G36*
X847Y3780D02*
X245Y245D01*
X1000Y3756D01*
X847Y3780D01*
G37*
G36*
X710Y3850D02*
X245Y245D01*
X847Y3780D01*
X710Y3850D01*
G37*
G36*
X600Y3960D02*
X245Y245D01*
X710Y3850D01*
X600Y3960D01*
G37*
G36*
X530Y4097D02*
X245Y245D01*
X600Y3960D01*
X530Y4097D01*
G37*
G36*
X506Y4250D02*
X245Y245D01*
X530Y4097D01*
X506Y4250D01*
G37*
G36*
X506Y4250D02*
X506Y5250D01*
X245Y245D01*
X506Y4250D01*
G37*
G36*
X506Y6250D02*
X245Y245D01*
X506Y5250D01*
X506Y6250D01*
G37*
G36*
X506Y6250D02*
X506Y5250D01*
X530Y6097D01*
X506Y6250D01*
G37*
G36*
X506Y5250D02*
X530Y5403D01*
X530Y6097D01*
X506Y5250D01*
G37*
G36*
X530Y6097D02*
X530Y5403D01*
X600Y5540D01*
X530Y6097D01*
G37*
G36*
X600Y5960D02*
X530Y6097D01*
X600Y5540D01*
X600Y5960D01*
G37*
G36*
X600Y5960D02*
X600Y5540D01*
X710Y5650D01*
X600Y5960D01*
G37*
G36*
X710Y5850D02*
X600Y5960D01*
X710Y5650D01*
X710Y5850D01*
G37*
G36*
X710Y5850D02*
X710Y5650D01*
X847Y5720D01*
X710Y5850D01*
G37*
G36*
X847Y5780D02*
X710Y5850D01*
X847Y5720D01*
X847Y5780D01*
G37*
G36*
X847Y5780D02*
X847Y5720D01*
X1000Y5744D01*
X847Y5780D01*
G37*
G36*
X1000Y5756D02*
X847Y5780D01*
X1000Y5744D01*
X1000Y5756D01*
G37*
G36*
X1153Y5780D02*
X1000Y5756D01*
X1000Y5744D01*
X1153Y5780D01*
G37*
G36*
X1153Y5780D02*
X1000Y5744D01*
X1153Y5720D01*
X1153Y5780D01*
G37*
G36*
X1153Y5780D02*
X1153Y5720D01*
X1290Y5650D01*
X1153Y5780D01*
G37*
G36*
X1153Y5780D02*
X1290Y5650D01*
X1290Y5850D01*
X1153Y5780D01*
G37*
G36*
X1400Y5960D02*
X1290Y5850D01*
X1290Y5650D01*
X1400Y5960D01*
G37*
G36*
X1400Y5960D02*
X1290Y5650D01*
X1400Y5540D01*
X1400Y5960D01*
G37*
G36*
X1400Y5960D02*
X1400Y5540D01*
X2006Y5750D01*
X1400Y5960D01*
G37*
G36*
X2006Y5750D02*
X1400Y5540D01*
X2030Y5597D01*
X2006Y5750D01*
G37*
G36*
X2030Y5597D02*
X1400Y5540D01*
X1470Y5403D01*
X2030Y5597D01*
G37*
G36*
X2030Y5597D02*
X1470Y5403D01*
X2100Y5460D01*
X2030Y5597D01*
G37*
G36*
X1470Y5403D02*
X1494Y5250D01*
X2100Y5460D01*
X1470Y5403D01*
G37*
G36*
X1494Y5250D02*
X2100Y5040D01*
X2100Y5460D01*
X1494Y5250D01*
G37*
G36*
X2100Y5460D02*
X2100Y5040D01*
X2210Y5150D01*
X2100Y5460D01*
G37*
G36*
X2210Y5350D02*
X2100Y5460D01*
X2210Y5150D01*
X2210Y5350D01*
G37*
G36*
X2210Y5350D02*
X2210Y5150D01*
X2347Y5220D01*
X2210Y5350D01*
G37*
G36*
X2347Y5280D02*
X2210Y5350D01*
X2347Y5220D01*
X2347Y5280D01*
G37*
G36*
X2347Y5280D02*
X2347Y5220D01*
X2500Y5244D01*
X2347Y5280D01*
G37*
G36*
X2500Y5256D02*
X2347Y5280D01*
X2500Y5244D01*
X2500Y5256D01*
G37*
G36*
X2653Y5280D02*
X2500Y5256D01*
X2500Y5244D01*
X2653Y5280D01*
G37*
G36*
X2653Y5280D02*
X2500Y5244D01*
X2653Y5220D01*
X2653Y5280D01*
G37*
G36*
X2653Y5280D02*
X2653Y5220D01*
X2790Y5150D01*
X2653Y5280D01*
G37*
G36*
X2653Y5280D02*
X2790Y5150D01*
X2790Y5350D01*
X2653Y5280D01*
G37*
G36*
X2900Y5460D02*
X2790Y5350D01*
X2790Y5150D01*
X2900Y5460D01*
G37*
G36*
X2900Y5460D02*
X2790Y5150D01*
X2900Y5040D01*
X2900Y5460D01*
G37*
G36*
X2970Y5597D02*
X2900Y5460D01*
X2900Y5040D01*
X2970Y5597D01*
G37*
G36*
X2970Y5597D02*
X2900Y5040D01*
X2970Y4903D01*
X2970Y5597D01*
G37*
G36*
X2970Y5597D02*
X2970Y4903D01*
X2994Y4750D01*
X2970Y5597D01*
G37*
G36*
X2970Y5597D02*
X2994Y4750D01*
X2994Y5750D01*
X2970Y5597D01*
G37*
G36*
X2100Y5040D02*
X1494Y5250D01*
X1470Y5097D01*
X2100Y5040D01*
G37*
G36*
X2100Y5040D02*
X1470Y5097D01*
X2030Y4903D01*
X2100Y5040D01*
G37*
G36*
X1470Y5097D02*
X1400Y4960D01*
X2030Y4903D01*
X1470Y5097D01*
G37*
G36*
X1400Y4960D02*
X2006Y4750D01*
X2030Y4903D01*
X1400Y4960D01*
G37*
G36*
X1400Y4960D02*
X1400Y4540D01*
X2006Y4750D01*
X1400Y4960D01*
G37*
G36*
X2006Y4750D02*
X1400Y4540D01*
X2030Y4597D01*
X2006Y4750D01*
G37*
G36*
X2030Y4597D02*
X1400Y4540D01*
X1470Y4403D01*
X2030Y4597D01*
G37*
G36*
X2030Y4597D02*
X1470Y4403D01*
X2100Y4460D01*
X2030Y4597D01*
G37*
G36*
X1470Y4403D02*
X1494Y4250D01*
X2100Y4460D01*
X1470Y4403D01*
G37*
G36*
X1494Y4250D02*
X2100Y4040D01*
X2100Y4460D01*
X1494Y4250D01*
G37*
G36*
X2100Y4460D02*
X2100Y4040D01*
X2210Y4150D01*
X2100Y4460D01*
G37*
G36*
X2210Y4350D02*
X2100Y4460D01*
X2210Y4150D01*
X2210Y4350D01*
G37*
G36*
X2210Y4350D02*
X2210Y4150D01*
X2347Y4220D01*
X2210Y4350D01*
G37*
G36*
X2347Y4280D02*
X2210Y4350D01*
X2347Y4220D01*
X2347Y4280D01*
G37*
G36*
X2347Y4280D02*
X2347Y4220D01*
X2500Y4244D01*
X2347Y4280D01*
G37*
G36*
X2500Y4256D02*
X2347Y4280D01*
X2500Y4244D01*
X2500Y4256D01*
G37*
G36*
X2653Y4280D02*
X2500Y4256D01*
X2500Y4244D01*
X2653Y4280D01*
G37*
G36*
X2653Y4280D02*
X2500Y4244D01*
X2653Y4220D01*
X2653Y4280D01*
G37*
G36*
X2653Y4280D02*
X2653Y4220D01*
X2790Y4150D01*
X2653Y4280D01*
G37*
G36*
X2653Y4280D02*
X2790Y4150D01*
X2790Y4350D01*
X2653Y4280D01*
G37*
G36*
X2900Y4460D02*
X2790Y4350D01*
X2790Y4150D01*
X2900Y4460D01*
G37*
G36*
X2900Y4460D02*
X2790Y4150D01*
X2900Y4040D01*
X2900Y4460D01*
G37*
G36*
X2970Y4597D02*
X2900Y4460D01*
X2900Y4040D01*
X2970Y4597D01*
G37*
G36*
X2970Y4597D02*
X2900Y4040D01*
X2970Y3903D01*
X2970Y4597D01*
G37*
G36*
X2970Y4597D02*
X2970Y3903D01*
X2994Y3750D01*
X2970Y4597D01*
G37*
G36*
X2970Y4597D02*
X2994Y3750D01*
X2994Y4750D01*
X2970Y4597D01*
G37*
G36*
X2100Y4040D02*
X1494Y4250D01*
X1470Y4097D01*
X2100Y4040D01*
G37*
G36*
X2100Y4040D02*
X1470Y4097D01*
X2030Y3903D01*
X2100Y4040D01*
G37*
G36*
X1470Y4097D02*
X1400Y3960D01*
X2030Y3903D01*
X1470Y4097D01*
G37*
G36*
X1400Y3960D02*
X2006Y3750D01*
X2030Y3903D01*
X1400Y3960D01*
G37*
G36*
X1400Y3960D02*
X1290Y3850D01*
X2006Y3750D01*
X1400Y3960D01*
G37*
G36*
X2006Y3750D02*
X1290Y3850D01*
X2030Y3597D01*
X2006Y3750D01*
G37*
G36*
X2030Y3597D02*
X1290Y3850D01*
X1153Y3780D01*
X2030Y3597D01*
G37*
G36*
X2030Y3597D02*
X1153Y3780D01*
X1000Y3756D01*
X2030Y3597D01*
G37*
G36*
X2100Y3460D02*
X2030Y3597D01*
X1000Y3756D01*
X2100Y3460D01*
G37*
G36*
X2210Y3350D02*
X2100Y3460D01*
X1000Y3756D01*
X2210Y3350D01*
G37*
G36*
X1400Y4960D02*
X1290Y4650D01*
X1400Y4540D01*
X1400Y4960D01*
G37*
G36*
X1400Y4960D02*
X1290Y4850D01*
X1290Y4650D01*
X1400Y4960D01*
G37*
G36*
X1153Y4780D02*
X1290Y4650D01*
X1290Y4850D01*
X1153Y4780D01*
G37*
G36*
X1153Y4780D02*
X1153Y4720D01*
X1290Y4650D01*
X1153Y4780D01*
G37*
G36*
X1153Y4780D02*
X1000Y4744D01*
X1153Y4720D01*
X1153Y4780D01*
G37*
G36*
X1153Y4780D02*
X1000Y4756D01*
X1000Y4744D01*
X1153Y4780D01*
G37*
G36*
X1000Y4756D02*
X847Y4780D01*
X1000Y4744D01*
X1000Y4756D01*
G37*
G36*
X847Y4780D02*
X847Y4720D01*
X1000Y4744D01*
X847Y4780D01*
G37*
G36*
X847Y4780D02*
X710Y4850D01*
X847Y4720D01*
X847Y4780D01*
G37*
G36*
X710Y4850D02*
X710Y4650D01*
X847Y4720D01*
X710Y4850D01*
G37*
G36*
X710Y4850D02*
X600Y4960D01*
X710Y4650D01*
X710Y4850D01*
G37*
G36*
X600Y4960D02*
X600Y4540D01*
X710Y4650D01*
X600Y4960D01*
G37*
G36*
X600Y4960D02*
X530Y5097D01*
X600Y4540D01*
X600Y4960D01*
G37*
G36*
X530Y5097D02*
X530Y4403D01*
X600Y4540D01*
X530Y5097D01*
G37*
G36*
X506Y4250D02*
X530Y4403D01*
X530Y5097D01*
X506Y4250D01*
G37*
G36*
X506Y5250D02*
X506Y4250D01*
X530Y5097D01*
X506Y5250D01*
G37*
G36*
X1400Y5960D02*
X2006Y5750D01*
X2030Y5903D01*
X1400Y5960D01*
G37*
G36*
X1470Y6097D02*
X1400Y5960D01*
X2030Y5903D01*
X1470Y6097D01*
G37*
G36*
X2100Y6040D02*
X1470Y6097D01*
X2030Y5903D01*
X2100Y6040D01*
G37*
G36*
X2100Y6040D02*
X1494Y6250D01*
X1470Y6097D01*
X2100Y6040D01*
G37*
G36*
X13107Y1403D02*
X245Y245D01*
X13352Y1159D01*
X13107Y1403D01*
G37*
G36*
X13352Y1159D02*
X245Y245D01*
X13659Y1002D01*
X13352Y1159D01*
G37*
G36*
X13659Y1002D02*
X245Y245D01*
X14000Y948D01*
X13659Y1002D01*
G37*
G36*
X20755Y245D02*
X14000Y948D01*
X245Y245D01*
X20755Y245D01*
G37*
G36*
X20755Y245D02*
X17750Y756D01*
X14000Y948D01*
X20755Y245D01*
G37*
G36*
X17750Y756D02*
X17597Y780D01*
X14000Y948D01*
X17750Y756D01*
G37*
G36*
X17597Y780D02*
X14341Y1002D01*
X14000Y948D01*
X17597Y780D01*
G37*
G36*
X17597Y780D02*
X17460Y850D01*
X14341Y1002D01*
X17597Y780D01*
G37*
G36*
X17460Y850D02*
X14648Y1159D01*
X14341Y1002D01*
X17460Y850D01*
G37*
G36*
X17460Y850D02*
X17350Y960D01*
X14648Y1159D01*
X17460Y850D01*
G37*
G36*
X17350Y960D02*
X14893Y1403D01*
X14648Y1159D01*
X17350Y960D01*
G37*
G36*
X17350Y960D02*
X17280Y1097D01*
X14893Y1403D01*
X17350Y960D01*
G37*
G36*
X17280Y1097D02*
X15870Y2129D01*
X14893Y1403D01*
X17280Y1097D01*
G37*
G36*
X15870Y2129D02*
X15049Y1710D01*
X14893Y1403D01*
X15870Y2129D01*
G37*
G36*
X15870Y2129D02*
X15529Y2183D01*
X15049Y1710D01*
X15870Y2129D01*
G37*
G36*
X15049Y1710D02*
X15529Y2183D01*
X15103Y2051D01*
X15049Y1710D01*
G37*
G36*
X15222Y2340D02*
X15103Y2051D01*
X15529Y2183D01*
X15222Y2340D01*
G37*
G36*
X15049Y2392D02*
X15103Y2051D01*
X15222Y2340D01*
X15049Y2392D01*
G37*
G36*
X14978Y2584D02*
X15049Y2392D01*
X15222Y2340D01*
X14978Y2584D01*
G37*
G36*
X14978Y2584D02*
X14893Y2700D01*
X15049Y2392D01*
X14978Y2584D01*
G37*
G36*
X14821Y2891D02*
X14893Y2700D01*
X14978Y2584D01*
X14821Y2891D01*
G37*
G36*
X14821Y2891D02*
X14648Y2944D01*
X14893Y2700D01*
X14821Y2891D01*
G37*
G36*
X14767Y3232D02*
X14648Y2944D01*
X14821Y2891D01*
X14767Y3232D01*
G37*
G36*
X14341Y3100D02*
X14648Y2944D01*
X14767Y3232D01*
X14341Y3100D01*
G37*
G36*
X14341Y3364D02*
X14341Y3100D01*
X14767Y3232D01*
X14341Y3364D01*
G37*
G36*
X14648Y3521D02*
X14341Y3364D01*
X14767Y3232D01*
X14648Y3521D01*
G37*
G36*
X14648Y3521D02*
X14767Y3232D01*
X14821Y3573D01*
X14648Y3521D01*
G37*
G36*
X14648Y3521D02*
X14821Y3573D01*
X14893Y3765D01*
X14648Y3521D01*
G37*
G36*
X14978Y3881D02*
X14893Y3765D01*
X14821Y3573D01*
X14978Y3881D01*
G37*
G36*
X14893Y3765D02*
X14978Y3881D01*
X15049Y4073D01*
X14893Y3765D01*
G37*
G36*
X14978Y3881D02*
X15222Y4125D01*
X15049Y4073D01*
X14978Y3881D01*
G37*
G36*
X15103Y4413D02*
X15049Y4073D01*
X15222Y4125D01*
X15103Y4413D01*
G37*
G36*
X15103Y4413D02*
X15222Y4125D01*
X15529Y4282D01*
X15103Y4413D01*
G37*
G36*
X15529Y4282D02*
X15049Y4754D01*
X15103Y4413D01*
X15529Y4282D01*
G37*
G36*
X15529Y4282D02*
X15870Y4336D01*
X15049Y4754D01*
X15529Y4282D01*
G37*
G36*
X15870Y4336D02*
X14893Y5062D01*
X15049Y4754D01*
X15870Y4336D01*
G37*
G36*
X14893Y5062D02*
X15870Y4336D01*
X16000Y6506D01*
X14893Y5062D01*
G37*
G36*
X15870Y4336D02*
X17030Y5153D01*
X16000Y6506D01*
X15870Y4336D01*
G37*
G36*
X16153Y6530D02*
X16000Y6506D01*
X17030Y5153D01*
X16153Y6530D01*
G37*
G36*
X16153Y6530D02*
X17030Y5153D01*
X17100Y5290D01*
X16153Y6530D01*
G37*
G36*
X16290Y6600D02*
X16153Y6530D01*
X17100Y5290D01*
X16290Y6600D01*
G37*
G36*
X17210Y5400D02*
X16290Y6600D01*
X17100Y5290D01*
X17210Y5400D01*
G37*
G36*
X16400Y6710D02*
X16290Y6600D01*
X17210Y5400D01*
X16400Y6710D01*
G37*
G36*
X16400Y6710D02*
X17210Y5400D01*
X17347Y5470D01*
X16400Y6710D01*
G37*
G36*
X16470Y6847D02*
X16400Y6710D01*
X17347Y5470D01*
X16470Y6847D01*
G37*
G36*
X16470Y6847D02*
X17347Y5470D01*
X17500Y5494D01*
X16470Y6847D01*
G37*
G36*
X17500Y7506D02*
X16470Y6847D01*
X17500Y5494D01*
X17500Y7506D01*
G37*
G36*
X18596Y6709D02*
X17500Y7506D01*
X17500Y5494D01*
X18596Y6709D01*
G37*
G36*
X17653Y5470D02*
X18596Y6709D01*
X17500Y5494D01*
X17653Y5470D01*
G37*
G36*
X18612Y6671D02*
X18596Y6709D01*
X17653Y5470D01*
X18612Y6671D01*
G37*
G36*
X18638Y6638D02*
X18612Y6671D01*
X17653Y5470D01*
X18638Y6638D01*
G37*
G36*
X18638Y6638D02*
X17653Y5470D01*
X17790Y5400D01*
X18638Y6638D01*
G37*
G36*
X17790Y5400D02*
X17900Y5290D01*
X18638Y6638D01*
X17790Y5400D01*
G37*
G36*
X17900Y5290D02*
X19530Y5653D01*
X18638Y6638D01*
X17900Y5290D01*
G37*
G36*
X19561Y5714D02*
X18638Y6638D01*
X19530Y5653D01*
X19561Y5714D01*
G37*
G36*
X19530Y5653D02*
X17900Y5290D01*
X19506Y5500D01*
X19530Y5653D01*
G37*
G36*
X17900Y5290D02*
X17970Y5153D01*
X19506Y5500D01*
X17900Y5290D01*
G37*
G36*
X19506Y5500D02*
X17970Y5153D01*
X19530Y5347D01*
X19506Y5500D01*
G37*
G36*
X19530Y5347D02*
X17970Y5153D01*
X17994Y5000D01*
X19530Y5347D01*
G37*
G36*
X19530Y5347D02*
X17994Y5000D01*
X19600Y5210D01*
X19530Y5347D01*
G37*
G36*
X19600Y5210D02*
X17994Y5000D01*
X17970Y4847D01*
X19600Y5210D01*
G37*
G36*
X17970Y4847D02*
X19460Y3650D01*
X19600Y5210D01*
X17970Y4847D01*
G37*
G36*
X19710Y5100D02*
X19600Y5210D01*
X19460Y3650D01*
X19710Y5100D01*
G37*
G36*
X19710Y5100D02*
X19460Y3650D01*
X19597Y3720D01*
X19710Y5100D01*
G37*
G36*
X19847Y5030D02*
X19710Y5100D01*
X19597Y3720D01*
X19847Y5030D01*
G37*
G36*
X19847Y5030D02*
X19597Y3720D01*
X19750Y3744D01*
X19847Y5030D01*
G37*
G36*
X19847Y5030D02*
X19750Y3744D01*
X20000Y5006D01*
X19847Y5030D01*
G37*
G36*
X19750Y3744D02*
X19903Y3720D01*
X20000Y5006D01*
X19750Y3744D01*
G37*
G36*
X20153Y5030D02*
X20000Y5006D01*
X19903Y3720D01*
X20153Y5030D01*
G37*
G36*
X20153Y5030D02*
X19903Y3720D01*
X20040Y3650D01*
X20153Y5030D01*
G37*
G36*
X20153Y5030D02*
X20040Y3650D01*
X20290Y5100D01*
X20153Y5030D01*
G37*
G36*
X20150Y3540D02*
X20290Y5100D01*
X20040Y3650D01*
X20150Y3540D01*
G37*
G36*
X20400Y5210D02*
X20290Y5100D01*
X20150Y3540D01*
X20400Y5210D01*
G37*
G36*
X20400Y5210D02*
X20150Y3540D01*
X20220Y3403D01*
X20400Y5210D01*
G37*
G36*
X20244Y3250D02*
X20400Y5210D01*
X20220Y3403D01*
X20244Y3250D01*
G37*
G36*
X20244Y3250D02*
X20470Y5347D01*
X20400Y5210D01*
X20244Y3250D01*
G37*
G36*
X20755Y245D02*
X20470Y5347D01*
X20244Y3250D01*
X20755Y245D01*
G37*
G36*
X20244Y3250D02*
X20220Y3097D01*
X20755Y245D01*
X20244Y3250D01*
G37*
G36*
X20755Y245D02*
X20220Y3097D01*
X20220Y1403D01*
X20755Y245D01*
G37*
G36*
X20220Y3097D02*
X20150Y1540D01*
X20220Y1403D01*
X20220Y3097D01*
G37*
G36*
X20220Y3097D02*
X20150Y2960D01*
X20150Y1540D01*
X20220Y3097D01*
G37*
G36*
X20040Y2850D02*
X20150Y1540D01*
X20150Y2960D01*
X20040Y2850D01*
G37*
G36*
X20040Y2850D02*
X20040Y1650D01*
X20150Y1540D01*
X20040Y2850D01*
G37*
G36*
X19903Y2780D02*
X20040Y1650D01*
X20040Y2850D01*
X19903Y2780D01*
G37*
G36*
X19903Y2780D02*
X19903Y1720D01*
X20040Y1650D01*
X19903Y2780D01*
G37*
G36*
X19750Y2756D02*
X19903Y1720D01*
X19903Y2780D01*
X19750Y2756D01*
G37*
G36*
X19750Y2756D02*
X19750Y1744D01*
X19903Y1720D01*
X19750Y2756D01*
G37*
G36*
X19597Y1720D02*
X19750Y1744D01*
X19750Y2756D01*
X19597Y1720D01*
G37*
G36*
X19597Y2780D02*
X19597Y1720D01*
X19750Y2756D01*
X19597Y2780D01*
G37*
G36*
X19460Y1650D02*
X19597Y1720D01*
X19597Y2780D01*
X19460Y1650D01*
G37*
G36*
X19460Y2850D02*
X19460Y1650D01*
X19597Y2780D01*
X19460Y2850D01*
G37*
G36*
X19350Y1540D02*
X19460Y1650D01*
X19460Y2850D01*
X19350Y1540D01*
G37*
G36*
X19460Y2850D02*
X18150Y1540D01*
X19350Y1540D01*
X19460Y2850D01*
G37*
G36*
X19350Y1540D02*
X18150Y1540D01*
X18220Y1403D01*
X19350Y1540D01*
G37*
G36*
X18220Y1403D02*
X19280Y1403D01*
X19350Y1540D01*
X18220Y1403D01*
G37*
G36*
X18220Y1403D02*
X18244Y1250D01*
X19280Y1403D01*
X18220Y1403D01*
G37*
G36*
X18244Y1250D02*
X19256Y1250D01*
X19280Y1403D01*
X18244Y1250D01*
G37*
G36*
X19256Y1250D02*
X18244Y1250D01*
X18220Y1097D01*
X19256Y1250D01*
G37*
G36*
X19280Y1097D02*
X19256Y1250D01*
X18220Y1097D01*
X19280Y1097D01*
G37*
G36*
X19280Y1097D02*
X18220Y1097D01*
X19350Y960D01*
X19280Y1097D01*
G37*
G36*
X18220Y1097D02*
X18150Y960D01*
X19350Y960D01*
X18220Y1097D01*
G37*
G36*
X19350Y960D02*
X18150Y960D01*
X19460Y850D01*
X19350Y960D01*
G37*
G36*
X18150Y960D02*
X18040Y850D01*
X19460Y850D01*
X18150Y960D01*
G37*
G36*
X19460Y850D02*
X18040Y850D01*
X19597Y780D01*
X19460Y850D01*
G37*
G36*
X18040Y850D02*
X17903Y780D01*
X19597Y780D01*
X18040Y850D01*
G37*
G36*
X20755Y245D02*
X19597Y780D01*
X17903Y780D01*
X20755Y245D01*
G37*
G36*
X20755Y245D02*
X17903Y780D01*
X17750Y756D01*
X20755Y245D01*
G37*
G36*
X19750Y756D02*
X19597Y780D01*
X20755Y245D01*
X19750Y756D01*
G37*
G36*
X19903Y780D02*
X19750Y756D01*
X20755Y245D01*
X19903Y780D01*
G37*
G36*
X20040Y850D02*
X19903Y780D01*
X20755Y245D01*
X20040Y850D01*
G37*
G36*
X20150Y960D02*
X20040Y850D01*
X20755Y245D01*
X20150Y960D01*
G37*
G36*
X20220Y1097D02*
X20150Y960D01*
X20755Y245D01*
X20220Y1097D01*
G37*
G36*
X20244Y1250D02*
X20220Y1097D01*
X20755Y245D01*
X20244Y1250D01*
G37*
G36*
X20244Y1250D02*
X20755Y245D01*
X20220Y1403D01*
X20244Y1250D01*
G37*
G36*
X18150Y1540D02*
X19460Y2850D01*
X18150Y2960D01*
X18150Y1540D01*
G37*
G36*
X19350Y2960D02*
X18150Y2960D01*
X19460Y2850D01*
X19350Y2960D01*
G37*
G36*
X18220Y3097D02*
X18150Y2960D01*
X19350Y2960D01*
X18220Y3097D01*
G37*
G36*
X19280Y3097D02*
X18220Y3097D01*
X19350Y2960D01*
X19280Y3097D01*
G37*
G36*
X19280Y3097D02*
X19256Y3250D01*
X18220Y3097D01*
X19280Y3097D01*
G37*
G36*
X19256Y3250D02*
X18244Y3250D01*
X18220Y3097D01*
X19256Y3250D01*
G37*
G36*
X18244Y3250D02*
X19256Y3250D01*
X19280Y3403D01*
X18244Y3250D01*
G37*
G36*
X18220Y3403D02*
X18244Y3250D01*
X19280Y3403D01*
X18220Y3403D01*
G37*
G36*
X18220Y3403D02*
X19280Y3403D01*
X19350Y3540D01*
X18220Y3403D01*
G37*
G36*
X18150Y3540D02*
X18220Y3403D01*
X19350Y3540D01*
X18150Y3540D01*
G37*
G36*
X18150Y3540D02*
X19350Y3540D01*
X19460Y3650D01*
X18150Y3540D01*
G37*
G36*
X18040Y3650D02*
X18150Y3540D01*
X19460Y3650D01*
X18040Y3650D01*
G37*
G36*
X17900Y4710D02*
X18040Y3650D01*
X19460Y3650D01*
X17900Y4710D01*
G37*
G36*
X19460Y3650D02*
X17970Y4847D01*
X17900Y4710D01*
X19460Y3650D01*
G37*
G36*
X18040Y3650D02*
X17900Y4710D01*
X17790Y4600D01*
X18040Y3650D01*
G37*
G36*
X17903Y3720D02*
X18040Y3650D01*
X17790Y4600D01*
X17903Y3720D01*
G37*
G36*
X17790Y4600D02*
X17653Y4530D01*
X17903Y3720D01*
X17790Y4600D01*
G37*
G36*
X17903Y3720D02*
X17653Y4530D01*
X17750Y3744D01*
X17903Y3720D01*
G37*
G36*
X17653Y4530D02*
X17500Y4506D01*
X17750Y3744D01*
X17653Y4530D01*
G37*
G36*
X17500Y4506D02*
X17597Y3720D01*
X17750Y3744D01*
X17500Y4506D01*
G37*
G36*
X17500Y4506D02*
X17347Y4530D01*
X17597Y3720D01*
X17500Y4506D01*
G37*
G36*
X17597Y3720D02*
X17347Y4530D01*
X17460Y3650D01*
X17597Y3720D01*
G37*
G36*
X17460Y3650D02*
X17347Y4530D01*
X17210Y4600D01*
X17460Y3650D01*
G37*
G36*
X17460Y3650D02*
X17210Y4600D01*
X17350Y3540D01*
X17460Y3650D01*
G37*
G36*
X17210Y4600D02*
X16763Y3881D01*
X17350Y3540D01*
X17210Y4600D01*
G37*
G36*
X17350Y3540D02*
X16763Y3881D01*
X16919Y3573D01*
X17350Y3540D01*
G37*
G36*
X17350Y3540D02*
X16919Y3573D01*
X17280Y3403D01*
X17350Y3540D01*
G37*
G36*
X16973Y3232D02*
X17280Y3403D01*
X16919Y3573D01*
X16973Y3232D01*
G37*
G36*
X17280Y3403D02*
X16973Y3232D01*
X17256Y3250D01*
X17280Y3403D01*
G37*
G36*
X17256Y3250D02*
X16973Y3232D01*
X17280Y3097D01*
X17256Y3250D01*
G37*
G36*
X16973Y3232D02*
X16919Y2891D01*
X17280Y3097D01*
X16973Y3232D01*
G37*
G36*
X17280Y3097D02*
X16919Y2891D01*
X17350Y2960D01*
X17280Y3097D01*
G37*
G36*
X17350Y2960D02*
X16919Y2891D01*
X17460Y2850D01*
X17350Y2960D01*
G37*
G36*
X16919Y2891D02*
X16763Y2584D01*
X17460Y2850D01*
X16919Y2891D01*
G37*
G36*
X17460Y2850D02*
X16763Y2584D01*
X17597Y2780D01*
X17460Y2850D01*
G37*
G36*
X17597Y2780D02*
X16763Y2584D01*
X17597Y1720D01*
X17597Y2780D01*
G37*
G36*
X16763Y2584D02*
X17460Y1650D01*
X17597Y1720D01*
X16763Y2584D01*
G37*
G36*
X17460Y1650D02*
X16763Y2584D01*
X16519Y2340D01*
X17460Y1650D01*
G37*
G36*
X17460Y1650D02*
X16519Y2340D01*
X17350Y1540D01*
X17460Y1650D01*
G37*
G36*
X17350Y1540D02*
X16519Y2340D01*
X17280Y1403D01*
X17350Y1540D01*
G37*
G36*
X17280Y1403D02*
X16519Y2340D01*
X16211Y2183D01*
X17280Y1403D01*
G37*
G36*
X17280Y1403D02*
X16211Y2183D01*
X17256Y1250D01*
X17280Y1403D01*
G37*
G36*
X15870Y2129D02*
X17256Y1250D01*
X16211Y2183D01*
X15870Y2129D01*
G37*
G36*
X17280Y1097D02*
X17256Y1250D01*
X15870Y2129D01*
X17280Y1097D01*
G37*
G36*
X17597Y2780D02*
X17597Y1720D01*
X17750Y2756D01*
X17597Y2780D01*
G37*
G36*
X17597Y1720D02*
X17750Y1744D01*
X17750Y2756D01*
X17597Y1720D01*
G37*
G36*
X17750Y2756D02*
X17750Y1744D01*
X17903Y1720D01*
X17750Y2756D01*
G37*
G36*
X17750Y2756D02*
X17903Y1720D01*
X17903Y2780D01*
X17750Y2756D01*
G37*
G36*
X17903Y2780D02*
X17903Y1720D01*
X18040Y1650D01*
X17903Y2780D01*
G37*
G36*
X17903Y2780D02*
X18040Y1650D01*
X18040Y2850D01*
X17903Y2780D01*
G37*
G36*
X18040Y2850D02*
X18040Y1650D01*
X18150Y1540D01*
X18040Y2850D01*
G37*
G36*
X18040Y2850D02*
X18150Y1540D01*
X18150Y2960D01*
X18040Y2850D01*
G37*
G36*
X16519Y4125D02*
X16763Y3881D01*
X17210Y4600D01*
X16519Y4125D01*
G37*
G36*
X17100Y4710D02*
X16519Y4125D01*
X17210Y4600D01*
X17100Y4710D01*
G37*
G36*
X17030Y4847D02*
X16519Y4125D01*
X17100Y4710D01*
X17030Y4847D01*
G37*
G36*
X17030Y4847D02*
X16211Y4282D01*
X16519Y4125D01*
X17030Y4847D01*
G37*
G36*
X17006Y5000D02*
X16211Y4282D01*
X17030Y4847D01*
X17006Y5000D01*
G37*
G36*
X17006Y5000D02*
X15870Y4336D01*
X16211Y4282D01*
X17006Y5000D01*
G37*
G36*
X17030Y5153D02*
X15870Y4336D01*
X17006Y5000D01*
X17030Y5153D01*
G37*
G36*
X20494Y5500D02*
X20470Y5347D01*
X20755Y245D01*
X20494Y5500D01*
G37*
G36*
X20494Y6500D02*
X20494Y5500D01*
X20755Y245D01*
X20494Y6500D01*
G37*
G36*
X20494Y7500D02*
X20494Y6500D01*
X20755Y245D01*
X20494Y7500D01*
G37*
G36*
X20494Y8500D02*
X20494Y7500D01*
X20755Y245D01*
X20494Y8500D01*
G37*
G36*
X20494Y9006D02*
X20494Y8500D01*
X20755Y245D01*
X20494Y9006D01*
G37*
G36*
X20494Y9994D02*
X20494Y9006D01*
X20755Y245D01*
X20494Y9994D01*
G37*
G36*
X20494Y10500D02*
X20494Y9994D01*
X20755Y245D01*
X20494Y10500D01*
G37*
G36*
X20755Y245D02*
X20494Y12000D01*
X20494Y10500D01*
X20755Y245D01*
G37*
G36*
X20494Y12000D02*
X20470Y10653D01*
X20494Y10500D01*
X20494Y12000D01*
G37*
G36*
X20494Y12000D02*
X20470Y11847D01*
X20470Y10653D01*
X20494Y12000D01*
G37*
G36*
X20470Y11847D02*
X20400Y10790D01*
X20470Y10653D01*
X20470Y11847D01*
G37*
G36*
X20470Y11847D02*
X20400Y11710D01*
X20400Y10790D01*
X20470Y11847D01*
G37*
G36*
X20290Y11600D02*
X20400Y10790D01*
X20400Y11710D01*
X20290Y11600D01*
G37*
G36*
X20290Y11600D02*
X20290Y10900D01*
X20400Y10790D01*
X20290Y11600D01*
G37*
G36*
X20153Y11530D02*
X20290Y10900D01*
X20290Y11600D01*
X20153Y11530D01*
G37*
G36*
X20153Y11530D02*
X20153Y10970D01*
X20290Y10900D01*
X20153Y11530D01*
G37*
G36*
X20000Y11506D02*
X20153Y10970D01*
X20153Y11530D01*
X20000Y11506D01*
G37*
G36*
X20000Y11506D02*
X20000Y10994D01*
X20153Y10970D01*
X20000Y11506D01*
G37*
G36*
X19847Y10970D02*
X20000Y10994D01*
X20000Y11506D01*
X19847Y10970D01*
G37*
G36*
X19847Y11530D02*
X19847Y10970D01*
X20000Y11506D01*
X19847Y11530D01*
G37*
G36*
X19710Y10900D02*
X19847Y10970D01*
X19847Y11530D01*
X19710Y10900D01*
G37*
G36*
X19847Y11530D02*
X19710Y11600D01*
X19710Y10900D01*
X19847Y11530D01*
G37*
G36*
X19710Y10900D02*
X19710Y11600D01*
X19290Y11600D01*
X19710Y10900D01*
G37*
G36*
X19400Y11710D02*
X19290Y11600D01*
X19710Y11600D01*
X19400Y11710D01*
G37*
G36*
X19600Y11710D02*
X19400Y11710D01*
X19710Y11600D01*
X19600Y11710D01*
G37*
G36*
X19470Y11847D02*
X19400Y11710D01*
X19600Y11710D01*
X19470Y11847D01*
G37*
G36*
X19530Y11847D02*
X19470Y11847D01*
X19600Y11710D01*
X19530Y11847D01*
G37*
G36*
X19494Y12000D02*
X19470Y11847D01*
X19530Y11847D01*
X19494Y12000D01*
G37*
G36*
X19506Y12000D02*
X19494Y12000D01*
X19530Y11847D01*
X19506Y12000D01*
G37*
G36*
X19470Y12153D02*
X19494Y12000D01*
X19506Y12000D01*
X19470Y12153D01*
G37*
G36*
X19530Y12153D02*
X19470Y12153D01*
X19506Y12000D01*
X19530Y12153D01*
G37*
G36*
X19470Y12153D02*
X19530Y12153D01*
X19600Y12290D01*
X19470Y12153D01*
G37*
G36*
X19600Y12290D02*
X19400Y12290D01*
X19470Y12153D01*
X19600Y12290D01*
G37*
G36*
X19600Y12290D02*
X19400Y12710D01*
X19400Y12290D01*
X19600Y12290D01*
G37*
G36*
X19400Y12710D02*
X19290Y12400D01*
X19400Y12290D01*
X19400Y12710D01*
G37*
G36*
X19400Y12710D02*
X19290Y12600D01*
X19290Y12400D01*
X19400Y12710D01*
G37*
G36*
X19153Y12530D02*
X19290Y12400D01*
X19290Y12600D01*
X19153Y12530D01*
G37*
G36*
X19153Y12530D02*
X19153Y12470D01*
X19290Y12400D01*
X19153Y12530D01*
G37*
G36*
X19153Y12530D02*
X19000Y12494D01*
X19153Y12470D01*
X19153Y12530D01*
G37*
G36*
X19153Y12530D02*
X19000Y12506D01*
X19000Y12494D01*
X19153Y12530D01*
G37*
G36*
X19000Y12506D02*
X18847Y12530D01*
X19000Y12494D01*
X19000Y12506D01*
G37*
G36*
X18847Y12530D02*
X18847Y12470D01*
X19000Y12494D01*
X18847Y12530D01*
G37*
G36*
X18847Y12530D02*
X18710Y12600D01*
X18847Y12470D01*
X18847Y12530D01*
G37*
G36*
X18710Y12600D02*
X18710Y12400D01*
X18847Y12470D01*
X18710Y12600D01*
G37*
G36*
X18710Y12600D02*
X18600Y12710D01*
X18710Y12400D01*
X18710Y12600D01*
G37*
G36*
X18600Y12710D02*
X18600Y12290D01*
X18710Y12400D01*
X18600Y12710D01*
G37*
G36*
X18530Y12847D02*
X18600Y12290D01*
X18600Y12710D01*
X18530Y12847D01*
G37*
G36*
X18530Y12847D02*
X18530Y12153D01*
X18600Y12290D01*
X18530Y12847D01*
G37*
G36*
X18530Y12153D02*
X18530Y12847D01*
X18506Y13000D01*
X18530Y12153D01*
G37*
G36*
X18506Y12000D02*
X18530Y12153D01*
X18506Y13000D01*
X18506Y12000D01*
G37*
G36*
X18409Y15250D02*
X18506Y12000D01*
X18506Y13000D01*
X18409Y15250D01*
G37*
G36*
X18506Y13506D02*
X18409Y15250D01*
X18506Y13000D01*
X18506Y13506D01*
G37*
G36*
X18530Y13153D02*
X18506Y13506D01*
X18506Y13000D01*
X18530Y13153D01*
G37*
G36*
X18506Y13506D02*
X18530Y13153D01*
X18600Y13290D01*
X18506Y13506D01*
G37*
G36*
X18506Y13506D02*
X18600Y13290D01*
X18710Y13400D01*
X18506Y13506D01*
G37*
G36*
X18506Y13506D02*
X18710Y13400D01*
X18847Y13470D01*
X18506Y13506D01*
G37*
G36*
X18506Y13506D02*
X18847Y13470D01*
X19000Y13494D01*
X18506Y13506D01*
G37*
G36*
X18506Y13506D02*
X19000Y13494D01*
X19494Y13506D01*
X18506Y13506D01*
G37*
G36*
X19000Y13494D02*
X19153Y13470D01*
X19494Y13506D01*
X19000Y13494D01*
G37*
G36*
X19153Y13470D02*
X19290Y13400D01*
X19494Y13506D01*
X19153Y13470D01*
G37*
G36*
X19290Y13400D02*
X19400Y13290D01*
X19494Y13506D01*
X19290Y13400D01*
G37*
G36*
X19506Y13506D02*
X19494Y13506D01*
X19400Y13290D01*
X19506Y13506D01*
G37*
G36*
X19600Y13290D02*
X19506Y13506D01*
X19400Y13290D01*
X19600Y13290D01*
G37*
G36*
X19470Y13153D02*
X19600Y13290D01*
X19400Y13290D01*
X19470Y13153D01*
G37*
G36*
X19600Y13290D02*
X19470Y13153D01*
X19530Y13153D01*
X19600Y13290D01*
G37*
G36*
X19530Y13153D02*
X19470Y13153D01*
X19506Y13000D01*
X19530Y13153D01*
G37*
G36*
X19470Y13153D02*
X19494Y13000D01*
X19506Y13000D01*
X19470Y13153D01*
G37*
G36*
X19506Y13000D02*
X19494Y13000D01*
X19530Y12847D01*
X19506Y13000D01*
G37*
G36*
X19494Y13000D02*
X19470Y12847D01*
X19530Y12847D01*
X19494Y13000D01*
G37*
G36*
X19530Y12847D02*
X19470Y12847D01*
X19600Y12710D01*
X19530Y12847D01*
G37*
G36*
X19470Y12847D02*
X19400Y12710D01*
X19600Y12710D01*
X19470Y12847D01*
G37*
G36*
X19600Y12710D02*
X19400Y12710D01*
X19710Y12600D01*
X19600Y12710D01*
G37*
G36*
X19400Y12710D02*
X19600Y12290D01*
X19710Y12600D01*
X19400Y12710D01*
G37*
G36*
X19600Y12290D02*
X19710Y12400D01*
X19710Y12600D01*
X19600Y12290D01*
G37*
G36*
X19710Y12600D02*
X19710Y12400D01*
X19847Y12470D01*
X19710Y12600D01*
G37*
G36*
X19847Y12530D02*
X19710Y12600D01*
X19847Y12470D01*
X19847Y12530D01*
G37*
G36*
X19847Y12530D02*
X19847Y12470D01*
X20000Y12494D01*
X19847Y12530D01*
G37*
G36*
X20000Y12506D02*
X19847Y12530D01*
X20000Y12494D01*
X20000Y12506D01*
G37*
G36*
X20153Y12530D02*
X20000Y12506D01*
X20000Y12494D01*
X20153Y12530D01*
G37*
G36*
X20153Y12530D02*
X20000Y12494D01*
X20153Y12470D01*
X20153Y12530D01*
G37*
G36*
X20153Y12530D02*
X20153Y12470D01*
X20290Y12400D01*
X20153Y12530D01*
G37*
G36*
X20153Y12530D02*
X20290Y12400D01*
X20290Y12600D01*
X20153Y12530D01*
G37*
G36*
X20400Y12710D02*
X20290Y12600D01*
X20290Y12400D01*
X20400Y12710D01*
G37*
G36*
X20400Y12710D02*
X20290Y12400D01*
X20400Y12290D01*
X20400Y12710D01*
G37*
G36*
X20470Y12847D02*
X20400Y12710D01*
X20400Y12290D01*
X20470Y12847D01*
G37*
G36*
X20470Y12847D02*
X20400Y12290D01*
X20470Y12153D01*
X20470Y12847D01*
G37*
G36*
X20470Y12847D02*
X20470Y12153D01*
X20494Y12000D01*
X20470Y12847D01*
G37*
G36*
X20470Y12847D02*
X20494Y12000D01*
X20494Y13000D01*
X20470Y12847D01*
G37*
G36*
X20755Y245D02*
X20494Y13000D01*
X20494Y12000D01*
X20755Y245D01*
G37*
G36*
X20494Y13506D02*
X20494Y13000D01*
X20755Y245D01*
X20494Y13506D01*
G37*
G36*
X20494Y14494D02*
X20494Y13506D01*
X20755Y245D01*
X20494Y14494D01*
G37*
G36*
X20494Y14494D02*
X20755Y245D01*
X20494Y16000D01*
X20494Y14494D01*
G37*
G36*
X20755Y245D02*
X20494Y17000D01*
X20494Y16000D01*
X20755Y245D01*
G37*
G36*
X20470Y16847D02*
X20494Y16000D01*
X20494Y17000D01*
X20470Y16847D01*
G37*
G36*
X20470Y16847D02*
X20470Y16153D01*
X20494Y16000D01*
X20470Y16847D01*
G37*
G36*
X20470Y16847D02*
X20400Y16290D01*
X20470Y16153D01*
X20470Y16847D01*
G37*
G36*
X20470Y16847D02*
X20400Y16710D01*
X20400Y16290D01*
X20470Y16847D01*
G37*
G36*
X20400Y16710D02*
X20290Y16400D01*
X20400Y16290D01*
X20400Y16710D01*
G37*
G36*
X20400Y16710D02*
X20290Y16600D01*
X20290Y16400D01*
X20400Y16710D01*
G37*
G36*
X20153Y16530D02*
X20290Y16400D01*
X20290Y16600D01*
X20153Y16530D01*
G37*
G36*
X20153Y16530D02*
X20153Y16470D01*
X20290Y16400D01*
X20153Y16530D01*
G37*
G36*
X20153Y16530D02*
X20000Y16494D01*
X20153Y16470D01*
X20153Y16530D01*
G37*
G36*
X20153Y16530D02*
X20000Y16506D01*
X20000Y16494D01*
X20153Y16530D01*
G37*
G36*
X20000Y16506D02*
X19847Y16530D01*
X20000Y16494D01*
X20000Y16506D01*
G37*
G36*
X19847Y16530D02*
X19847Y16470D01*
X20000Y16494D01*
X19847Y16530D01*
G37*
G36*
X19847Y16530D02*
X19710Y16600D01*
X19847Y16470D01*
X19847Y16530D01*
G37*
G36*
X19710Y16600D02*
X19710Y16400D01*
X19847Y16470D01*
X19710Y16600D01*
G37*
G36*
X19600Y16290D02*
X19710Y16400D01*
X19710Y16600D01*
X19600Y16290D01*
G37*
G36*
X19400Y16710D02*
X19600Y16290D01*
X19710Y16600D01*
X19400Y16710D01*
G37*
G36*
X19600Y16710D02*
X19400Y16710D01*
X19710Y16600D01*
X19600Y16710D01*
G37*
G36*
X19470Y16847D02*
X19400Y16710D01*
X19600Y16710D01*
X19470Y16847D01*
G37*
G36*
X19530Y16847D02*
X19470Y16847D01*
X19600Y16710D01*
X19530Y16847D01*
G37*
G36*
X19494Y17000D02*
X19470Y16847D01*
X19530Y16847D01*
X19494Y17000D01*
G37*
G36*
X19506Y17000D02*
X19494Y17000D01*
X19530Y16847D01*
X19506Y17000D01*
G37*
G36*
X19470Y17153D02*
X19494Y17000D01*
X19506Y17000D01*
X19470Y17153D01*
G37*
G36*
X19530Y17153D02*
X19470Y17153D01*
X19506Y17000D01*
X19530Y17153D01*
G37*
G36*
X19600Y17290D02*
X19470Y17153D01*
X19530Y17153D01*
X19600Y17290D01*
G37*
G36*
X19470Y17153D02*
X19600Y17290D01*
X19400Y17290D01*
X19470Y17153D01*
G37*
G36*
X19600Y17290D02*
X19506Y17506D01*
X19400Y17290D01*
X19600Y17290D01*
G37*
G36*
X19506Y17506D02*
X19494Y17506D01*
X19400Y17290D01*
X19506Y17506D01*
G37*
G36*
X19290Y17400D02*
X19400Y17290D01*
X19494Y17506D01*
X19290Y17400D01*
G37*
G36*
X19153Y17470D02*
X19290Y17400D01*
X19494Y17506D01*
X19153Y17470D01*
G37*
G36*
X19000Y17494D02*
X19153Y17470D01*
X19494Y17506D01*
X19000Y17494D01*
G37*
G36*
X18506Y17506D02*
X19000Y17494D01*
X19494Y17506D01*
X18506Y17506D01*
G37*
G36*
X18506Y17506D02*
X18847Y17470D01*
X19000Y17494D01*
X18506Y17506D01*
G37*
G36*
X18506Y17506D02*
X18710Y17400D01*
X18847Y17470D01*
X18506Y17506D01*
G37*
G36*
X18506Y17506D02*
X18600Y17290D01*
X18710Y17400D01*
X18506Y17506D01*
G37*
G36*
X18506Y17506D02*
X18530Y17153D01*
X18600Y17290D01*
X18506Y17506D01*
G37*
G36*
X18506Y17506D02*
X17541Y16154D01*
X18530Y17153D01*
X18506Y17506D01*
G37*
G36*
X17541Y16154D02*
X18506Y17000D01*
X18530Y17153D01*
X17541Y16154D01*
G37*
G36*
X18506Y17000D02*
X17541Y16154D01*
X17579Y16138D01*
X18506Y17000D01*
G37*
G36*
X18530Y16847D02*
X18506Y17000D01*
X17579Y16138D01*
X18530Y16847D01*
G37*
G36*
X18530Y16847D02*
X17579Y16138D01*
X17612Y16112D01*
X18530Y16847D01*
G37*
G36*
X17612Y16112D02*
X18600Y16710D01*
X18530Y16847D01*
X17612Y16112D01*
G37*
G36*
X18600Y16290D02*
X18600Y16710D01*
X17612Y16112D01*
X18600Y16290D01*
G37*
G36*
X18600Y16290D02*
X17612Y16112D01*
X18530Y16153D01*
X18600Y16290D01*
G37*
G36*
X17612Y16112D02*
X18506Y16000D01*
X18530Y16153D01*
X17612Y16112D01*
G37*
G36*
X18506Y16000D02*
X17612Y16112D01*
X18530Y15847D01*
X18506Y16000D01*
G37*
G36*
X18530Y15847D02*
X17612Y16112D01*
X18362Y15362D01*
X18530Y15847D01*
G37*
G36*
X18530Y15847D02*
X18362Y15362D01*
X18600Y15710D01*
X18530Y15847D01*
G37*
G36*
X18600Y15710D02*
X18362Y15362D01*
X18710Y15600D01*
X18600Y15710D01*
G37*
G36*
X18362Y15362D02*
X18388Y15329D01*
X18710Y15600D01*
X18362Y15362D01*
G37*
G36*
X18710Y15600D02*
X18388Y15329D01*
X18404Y15291D01*
X18710Y15600D01*
G37*
G36*
X18847Y15530D02*
X18710Y15600D01*
X18404Y15291D01*
X18847Y15530D01*
G37*
G36*
X18847Y15530D02*
X18404Y15291D01*
X18409Y15250D01*
X18847Y15530D01*
G37*
G36*
X19000Y15506D02*
X18847Y15530D01*
X18409Y15250D01*
X19000Y15506D01*
G37*
G36*
X18409Y15250D02*
X18506Y14494D01*
X19000Y15506D01*
X18409Y15250D01*
G37*
G36*
X19000Y15506D02*
X18506Y14494D01*
X19494Y14494D01*
X19000Y15506D01*
G37*
G36*
X19153Y15530D02*
X19000Y15506D01*
X19494Y14494D01*
X19153Y15530D01*
G37*
G36*
X19494Y14494D02*
X19290Y15600D01*
X19153Y15530D01*
X19494Y14494D01*
G37*
G36*
X19506Y14494D02*
X19290Y15600D01*
X19494Y14494D01*
X19506Y14494D01*
G37*
G36*
X19494Y14494D02*
X19506Y13506D01*
X19506Y14494D01*
X19494Y14494D01*
G37*
G36*
X19494Y14494D02*
X19494Y13506D01*
X19506Y13506D01*
X19494Y14494D01*
G37*
G36*
X19290Y15600D02*
X19506Y14494D01*
X19710Y15600D01*
X19290Y15600D01*
G37*
G36*
X19847Y15530D02*
X19710Y15600D01*
X19506Y14494D01*
X19847Y15530D01*
G37*
G36*
X20000Y15506D02*
X19847Y15530D01*
X19506Y14494D01*
X20000Y15506D01*
G37*
G36*
X20000Y15506D02*
X19506Y14494D01*
X20494Y14494D01*
X20000Y15506D01*
G37*
G36*
X20153Y15530D02*
X20000Y15506D01*
X20494Y14494D01*
X20153Y15530D01*
G37*
G36*
X20290Y15600D02*
X20153Y15530D01*
X20494Y14494D01*
X20290Y15600D01*
G37*
G36*
X20400Y15710D02*
X20290Y15600D01*
X20494Y14494D01*
X20400Y15710D01*
G37*
G36*
X20470Y15847D02*
X20400Y15710D01*
X20494Y14494D01*
X20470Y15847D01*
G37*
G36*
X20494Y16000D02*
X20470Y15847D01*
X20494Y14494D01*
X20494Y16000D01*
G37*
G36*
X19400Y15710D02*
X19290Y15600D01*
X19710Y15600D01*
X19400Y15710D01*
G37*
G36*
X19600Y15710D02*
X19400Y15710D01*
X19710Y15600D01*
X19600Y15710D01*
G37*
G36*
X19470Y15847D02*
X19400Y15710D01*
X19600Y15710D01*
X19470Y15847D01*
G37*
G36*
X19530Y15847D02*
X19470Y15847D01*
X19600Y15710D01*
X19530Y15847D01*
G37*
G36*
X19494Y16000D02*
X19470Y15847D01*
X19530Y15847D01*
X19494Y16000D01*
G37*
G36*
X19506Y16000D02*
X19494Y16000D01*
X19530Y15847D01*
X19506Y16000D01*
G37*
G36*
X19470Y16153D02*
X19494Y16000D01*
X19506Y16000D01*
X19470Y16153D01*
G37*
G36*
X19530Y16153D02*
X19470Y16153D01*
X19506Y16000D01*
X19530Y16153D01*
G37*
G36*
X19470Y16153D02*
X19530Y16153D01*
X19600Y16290D01*
X19470Y16153D01*
G37*
G36*
X19600Y16290D02*
X19400Y16290D01*
X19470Y16153D01*
X19600Y16290D01*
G37*
G36*
X19600Y16290D02*
X19400Y16710D01*
X19400Y16290D01*
X19600Y16290D01*
G37*
G36*
X19400Y16710D02*
X19290Y16400D01*
X19400Y16290D01*
X19400Y16710D01*
G37*
G36*
X19400Y16710D02*
X19290Y16600D01*
X19290Y16400D01*
X19400Y16710D01*
G37*
G36*
X19153Y16530D02*
X19290Y16400D01*
X19290Y16600D01*
X19153Y16530D01*
G37*
G36*
X19153Y16530D02*
X19153Y16470D01*
X19290Y16400D01*
X19153Y16530D01*
G37*
G36*
X19153Y16530D02*
X19000Y16494D01*
X19153Y16470D01*
X19153Y16530D01*
G37*
G36*
X19153Y16530D02*
X19000Y16506D01*
X19000Y16494D01*
X19153Y16530D01*
G37*
G36*
X19000Y16506D02*
X18847Y16530D01*
X19000Y16494D01*
X19000Y16506D01*
G37*
G36*
X18847Y16530D02*
X18847Y16470D01*
X19000Y16494D01*
X18847Y16530D01*
G37*
G36*
X18847Y16530D02*
X18710Y16600D01*
X18847Y16470D01*
X18847Y16530D01*
G37*
G36*
X18710Y16600D02*
X18710Y16400D01*
X18847Y16470D01*
X18710Y16600D01*
G37*
G36*
X18710Y16600D02*
X18600Y16710D01*
X18710Y16400D01*
X18710Y16600D01*
G37*
G36*
X18600Y16710D02*
X18600Y16290D01*
X18710Y16400D01*
X18600Y16710D01*
G37*
G36*
X18506Y14494D02*
X18409Y15250D01*
X18506Y13506D01*
X18506Y14494D01*
G37*
G36*
X18506Y17506D02*
X17500Y16159D01*
X17541Y16154D01*
X18506Y17506D01*
G37*
G36*
X18506Y17506D02*
X16644Y17144D01*
X17500Y16159D01*
X18506Y17506D01*
G37*
G36*
X16644Y17144D02*
X16644Y16356D01*
X17500Y16159D01*
X16644Y17144D01*
G37*
G36*
X16644Y16356D02*
X15856Y16356D01*
X17500Y16159D01*
X16644Y16356D01*
G37*
G36*
X15856Y16356D02*
X13500Y16159D01*
X17500Y16159D01*
X15856Y16356D01*
G37*
G36*
X15856Y16356D02*
X14403Y16530D01*
X13500Y16159D01*
X15856Y16356D01*
G37*
G36*
X14403Y16530D02*
X14250Y16506D01*
X13500Y16159D01*
X14403Y16530D01*
G37*
G36*
X14097Y16530D02*
X13500Y16159D01*
X14250Y16506D01*
X14097Y16530D01*
G37*
G36*
X13960Y16600D02*
X13500Y16159D01*
X14097Y16530D01*
X13960Y16600D01*
G37*
G36*
X13850Y16710D02*
X13500Y16159D01*
X13960Y16600D01*
X13850Y16710D01*
G37*
G36*
X13780Y16847D02*
X13500Y16159D01*
X13850Y16710D01*
X13780Y16847D01*
G37*
G36*
X13780Y16847D02*
X13459Y16154D01*
X13500Y16159D01*
X13780Y16847D01*
G37*
G36*
X13780Y16847D02*
X13756Y17000D01*
X13459Y16154D01*
X13780Y16847D01*
G37*
G36*
X13459Y16154D02*
X13756Y17000D01*
X13421Y16138D01*
X13459Y16154D01*
G37*
G36*
X13756Y17000D02*
X12750Y17744D01*
X13421Y16138D01*
X13756Y17000D01*
G37*
G36*
X12750Y17744D02*
X13388Y16112D01*
X13421Y16138D01*
X12750Y17744D01*
G37*
G36*
X12671Y17756D02*
X13388Y16112D01*
X12750Y17744D01*
X12671Y17756D01*
G37*
G36*
X13388Y16112D02*
X12671Y17756D01*
X13138Y15862D01*
X13388Y16112D01*
G37*
G36*
X13138Y15862D02*
X12671Y17756D01*
X13112Y15829D01*
X13138Y15862D01*
G37*
G36*
X10862Y17138D02*
X13112Y15829D01*
X12671Y17756D01*
X10862Y17138D01*
G37*
G36*
X12599Y17792D02*
X10862Y17138D01*
X12671Y17756D01*
X12599Y17792D01*
G37*
G36*
X12542Y17849D02*
X10862Y17138D01*
X12599Y17792D01*
X12542Y17849D01*
G37*
G36*
X12506Y17921D02*
X10862Y17138D01*
X12542Y17849D01*
X12506Y17921D01*
G37*
G36*
X12494Y18000D02*
X10862Y17138D01*
X12506Y17921D01*
X12494Y18000D01*
G37*
G36*
X10862Y17138D02*
X12494Y18000D01*
X12506Y18079D01*
X10862Y17138D01*
G37*
G36*
X10862Y17138D02*
X12506Y18079D01*
X12542Y18151D01*
X10862Y17138D01*
G37*
G36*
X10862Y17138D02*
X12542Y18151D01*
X12599Y18208D01*
X10862Y17138D01*
G37*
G36*
X13612Y19888D02*
X10862Y17138D01*
X12599Y18208D01*
X13612Y19888D01*
G37*
G36*
X12599Y18208D02*
X12671Y18244D01*
X13612Y19888D01*
X12599Y18208D01*
G37*
G36*
X12671Y18244D02*
X12750Y18256D01*
X13612Y19888D01*
X12671Y18244D01*
G37*
G36*
X12750Y18256D02*
X12829Y18244D01*
X13612Y19888D01*
X12750Y18256D01*
G37*
G36*
X13612Y19888D02*
X12829Y18244D01*
X13850Y19710D01*
X13612Y19888D01*
G37*
G36*
X13850Y19710D02*
X12829Y18244D01*
X12901Y18208D01*
X13850Y19710D01*
G37*
G36*
X12949Y18159D02*
X13850Y19710D01*
X12901Y18208D01*
X12949Y18159D01*
G37*
G36*
X12949Y18159D02*
X13960Y19600D01*
X13850Y19710D01*
X12949Y18159D01*
G37*
G36*
X13960Y19600D02*
X12949Y18159D01*
X13684Y18159D01*
X13960Y19600D01*
G37*
G36*
X13960Y19600D02*
X13684Y18159D01*
X14097Y19530D01*
X13960Y19600D01*
G37*
G36*
X14097Y19530D02*
X13684Y18159D01*
X14250Y19506D01*
X14097Y19530D01*
G37*
G36*
X14250Y19506D02*
X13684Y18159D01*
X14403Y19530D01*
X14250Y19506D01*
G37*
G36*
X13684Y18159D02*
X14540Y19600D01*
X14403Y19530D01*
X13684Y18159D01*
G37*
G36*
X15888Y20362D02*
X14540Y19600D01*
X13684Y18159D01*
X15888Y20362D01*
G37*
G36*
X14540Y19600D02*
X15888Y20362D01*
X14650Y19710D01*
X14540Y19600D01*
G37*
G36*
X14650Y19710D02*
X15888Y20362D01*
X14720Y19847D01*
X14650Y19710D01*
G37*
G36*
X14720Y19847D02*
X15888Y20362D01*
X14744Y20000D01*
X14720Y19847D01*
G37*
G36*
X13780Y19847D02*
X13612Y19888D01*
X13850Y19710D01*
X13780Y19847D01*
G37*
G36*
X13638Y19921D02*
X13612Y19888D01*
X13780Y19847D01*
X13638Y19921D01*
G37*
G36*
X13654Y19959D02*
X13638Y19921D01*
X13780Y19847D01*
X13654Y19959D01*
G37*
G36*
X13756Y20000D02*
X13654Y19959D01*
X13780Y19847D01*
X13756Y20000D01*
G37*
G36*
X13659Y20000D02*
X13654Y19959D01*
X13756Y20000D01*
X13659Y20000D01*
G37*
G36*
X13659Y20000D02*
X13756Y20000D01*
X13780Y20153D01*
X13659Y20000D01*
G37*
G36*
X13850Y20290D02*
X13659Y20000D01*
X13780Y20153D01*
X13850Y20290D01*
G37*
G36*
X13850Y20290D02*
X13659Y21533D01*
X13659Y20000D01*
X13850Y20290D01*
G37*
G36*
X13960Y20400D02*
X13659Y21533D01*
X13850Y20290D01*
X13960Y20400D01*
G37*
G36*
X14091Y20467D02*
X13659Y21533D01*
X13960Y20400D01*
X14091Y20467D01*
G37*
G36*
X13659Y21533D02*
X14091Y20467D01*
X13790Y21600D01*
X13659Y21533D01*
G37*
G36*
X13790Y21600D02*
X14091Y20467D01*
X14091Y21801D01*
X13790Y21600D01*
G37*
G36*
X13900Y21710D02*
X13790Y21600D01*
X14091Y21801D01*
X13900Y21710D01*
G37*
G36*
X13970Y21847D02*
X13900Y21710D01*
X14091Y21801D01*
X13970Y21847D01*
G37*
G36*
X14042Y21849D02*
X13970Y21847D01*
X14091Y21801D01*
X14042Y21849D01*
G37*
G36*
X14006Y21921D02*
X13970Y21847D01*
X14042Y21849D01*
X14006Y21921D01*
G37*
G36*
X13993Y21993D02*
X13970Y21847D01*
X14006Y21921D01*
X13993Y21993D01*
G37*
G36*
X13995Y21993D02*
X13993Y21993D01*
X14006Y21921D01*
X13995Y21993D01*
G37*
G36*
X13112Y15829D02*
X10862Y17138D01*
X13096Y15791D01*
X13112Y15829D01*
G37*
G36*
X12349Y14965D02*
X13096Y15791D01*
X10862Y17138D01*
X12349Y14965D01*
G37*
G36*
X12349Y14965D02*
X10862Y17138D01*
X10829Y17112D01*
X12349Y14965D01*
G37*
G36*
X10829Y17112D02*
X11651Y14965D01*
X12349Y14965D01*
X10829Y17112D01*
G37*
G36*
X11651Y14965D02*
X11787Y14896D01*
X12349Y14965D01*
X11651Y14965D01*
G37*
G36*
X11787Y14896D02*
X12213Y14896D01*
X12349Y14965D01*
X11787Y14896D01*
G37*
G36*
X12213Y14896D02*
X11787Y14896D01*
X12104Y14787D01*
X12213Y14896D01*
G37*
G36*
X11787Y14896D02*
X11896Y14787D01*
X12104Y14787D01*
X11787Y14896D01*
G37*
G36*
X11896Y14787D02*
X11965Y14651D01*
X12104Y14787D01*
X11896Y14787D01*
G37*
G36*
X11965Y14651D02*
X12035Y14651D01*
X12104Y14787D01*
X11965Y14651D01*
G37*
G36*
X11965Y14651D02*
X11989Y14500D01*
X12035Y14651D01*
X11965Y14651D01*
G37*
G36*
X11989Y14500D02*
X12011Y14500D01*
X12035Y14651D01*
X11989Y14500D01*
G37*
G36*
X12011Y14500D02*
X11989Y14500D01*
X11965Y14349D01*
X12011Y14500D01*
G37*
G36*
X12035Y14349D02*
X12011Y14500D01*
X11965Y14349D01*
X12035Y14349D01*
G37*
G36*
X12035Y14349D02*
X11965Y14349D01*
X11935Y14290D01*
X12035Y14349D01*
G37*
G36*
X12104Y14213D02*
X12035Y14349D01*
X11935Y14290D01*
X12104Y14213D01*
G37*
G36*
X12104Y14213D02*
X11935Y14290D01*
X12213Y14104D01*
X12104Y14213D01*
G37*
G36*
X11935Y14290D02*
X12316Y13909D01*
X12213Y14104D01*
X11935Y14290D01*
G37*
G36*
X12213Y14104D02*
X12316Y13909D01*
X12349Y14035D01*
X12213Y14104D01*
G37*
G36*
X12349Y14035D02*
X12316Y13909D01*
X12500Y14011D01*
X12349Y14035D01*
G37*
G36*
X12500Y14011D02*
X12316Y13909D01*
X12684Y13909D01*
X12500Y14011D01*
G37*
G36*
X12651Y14035D02*
X12500Y14011D01*
X12684Y13909D01*
X12651Y14035D01*
G37*
G36*
X12651Y14035D02*
X12684Y13909D01*
X12787Y14104D01*
X12651Y14035D01*
G37*
G36*
X13341Y14566D02*
X12787Y14104D01*
X12684Y13909D01*
X13341Y14566D01*
G37*
G36*
X13341Y14566D02*
X13112Y14388D01*
X12787Y14104D01*
X13341Y14566D01*
G37*
G36*
X12787Y14104D02*
X13112Y14388D01*
X13079Y14362D01*
X12787Y14104D01*
G37*
G36*
X13079Y14362D02*
X12896Y14213D01*
X12787Y14104D01*
X13079Y14362D01*
G37*
G36*
X12896Y14213D02*
X13079Y14362D01*
X13041Y14346D01*
X12896Y14213D01*
G37*
G36*
X12896Y14213D02*
X13041Y14346D01*
X13000Y14341D01*
X12896Y14213D01*
G37*
G36*
X13000Y14341D02*
X12961Y14341D01*
X12896Y14213D01*
X13000Y14341D01*
G37*
G36*
X13340Y14615D02*
X13112Y14388D01*
X13341Y14566D01*
X13340Y14615D01*
G37*
G36*
X13341Y14614D02*
X13340Y14615D01*
X13341Y14566D01*
X13341Y14614D01*
G37*
G36*
X10829Y17112D02*
X10791Y17096D01*
X11651Y14965D01*
X10829Y17112D01*
G37*
G36*
X10791Y17096D02*
X11500Y14989D01*
X11651Y14965D01*
X10791Y17096D01*
G37*
G36*
X11500Y14989D02*
X10791Y17096D01*
X11349Y14965D01*
X11500Y14989D01*
G37*
G36*
X11349Y14965D02*
X10791Y17096D01*
X10651Y14965D01*
X11349Y14965D01*
G37*
G36*
X10651Y14965D02*
X10791Y17096D01*
X10750Y17091D01*
X10651Y14965D01*
G37*
G36*
X10500Y14989D02*
X10651Y14965D01*
X10750Y17091D01*
X10500Y14989D01*
G37*
G36*
X10750Y17091D02*
X10349Y14965D01*
X10500Y14989D01*
X10750Y17091D01*
G37*
G36*
X9316Y17091D02*
X10349Y14965D01*
X10750Y17091D01*
X9316Y17091D01*
G37*
G36*
X9316Y17091D02*
X9651Y14965D01*
X10349Y14965D01*
X9316Y17091D01*
G37*
G36*
X9651Y14965D02*
X9787Y14896D01*
X10349Y14965D01*
X9651Y14965D01*
G37*
G36*
X9787Y14896D02*
X10213Y14896D01*
X10349Y14965D01*
X9787Y14896D01*
G37*
G36*
X10213Y14896D02*
X9787Y14896D01*
X10104Y14787D01*
X10213Y14896D01*
G37*
G36*
X9787Y14896D02*
X9896Y14787D01*
X10104Y14787D01*
X9787Y14896D01*
G37*
G36*
X9896Y14787D02*
X9965Y14651D01*
X10104Y14787D01*
X9896Y14787D01*
G37*
G36*
X9965Y14651D02*
X10035Y14651D01*
X10104Y14787D01*
X9965Y14651D01*
G37*
G36*
X9965Y14651D02*
X9989Y14500D01*
X10035Y14651D01*
X9965Y14651D01*
G37*
G36*
X9989Y14500D02*
X10011Y14500D01*
X10035Y14651D01*
X9989Y14500D01*
G37*
G36*
X10011Y14500D02*
X9989Y14500D01*
X9965Y14349D01*
X10011Y14500D01*
G37*
G36*
X10035Y14349D02*
X10011Y14500D01*
X9965Y14349D01*
X10035Y14349D01*
G37*
G36*
X10035Y14349D02*
X9965Y14349D01*
X9935Y14290D01*
X10035Y14349D01*
G37*
G36*
X10104Y14213D02*
X10035Y14349D01*
X9935Y14290D01*
X10104Y14213D01*
G37*
G36*
X10104Y14213D02*
X9935Y14290D01*
X10213Y14104D01*
X10104Y14213D01*
G37*
G36*
X9935Y14290D02*
X10816Y13409D01*
X10213Y14104D01*
X9935Y14290D01*
G37*
G36*
X10816Y13409D02*
X10349Y14035D01*
X10213Y14104D01*
X10816Y13409D01*
G37*
G36*
X10816Y13409D02*
X10500Y14011D01*
X10349Y14035D01*
X10816Y13409D01*
G37*
G36*
X10651Y14035D02*
X10500Y14011D01*
X10816Y13409D01*
X10651Y14035D01*
G37*
G36*
X10710Y14065D02*
X10651Y14035D01*
X10816Y13409D01*
X10710Y14065D01*
G37*
G36*
X10816Y13409D02*
X11365Y13410D01*
X10710Y14065D01*
X10816Y13409D01*
G37*
G36*
X11365Y13410D02*
X10816Y13409D01*
X11364Y13409D01*
X11365Y13410D01*
G37*
G36*
X9316Y17091D02*
X9500Y14989D01*
X9651Y14965D01*
X9316Y17091D01*
G37*
G36*
X9316Y17091D02*
X8659Y16434D01*
X9500Y14989D01*
X9316Y17091D01*
G37*
G36*
X8659Y16434D02*
X9349Y14965D01*
X9500Y14989D01*
X8659Y16434D01*
G37*
G36*
X9349Y14965D02*
X8659Y16434D01*
X8659Y14961D01*
X9349Y14965D01*
G37*
G36*
X9213Y14896D02*
X9349Y14965D01*
X8659Y14961D01*
X9213Y14896D01*
G37*
G36*
X8659Y14961D02*
X8787Y14896D01*
X9213Y14896D01*
X8659Y14961D01*
G37*
G36*
X9213Y14896D02*
X8787Y14896D01*
X9104Y14787D01*
X9213Y14896D01*
G37*
G36*
X8787Y14896D02*
X8896Y14787D01*
X9104Y14787D01*
X8787Y14896D01*
G37*
G36*
X8896Y14787D02*
X8965Y14651D01*
X9104Y14787D01*
X8896Y14787D01*
G37*
G36*
X8965Y14651D02*
X9035Y14651D01*
X9104Y14787D01*
X8965Y14651D01*
G37*
G36*
X8965Y14651D02*
X8989Y14500D01*
X9035Y14651D01*
X8965Y14651D01*
G37*
G36*
X8989Y14500D02*
X9011Y14500D01*
X9035Y14651D01*
X8989Y14500D01*
G37*
G36*
X9011Y14500D02*
X8989Y14500D01*
X8965Y14349D01*
X9011Y14500D01*
G37*
G36*
X9035Y14349D02*
X9011Y14500D01*
X8965Y14349D01*
X9035Y14349D01*
G37*
G36*
X9035Y14349D02*
X8965Y14349D01*
X8896Y14213D01*
X9035Y14349D01*
G37*
G36*
X9104Y14213D02*
X9035Y14349D01*
X8896Y14213D01*
X9104Y14213D01*
G37*
G36*
X9104Y14213D02*
X8896Y14213D01*
X9213Y14104D01*
X9104Y14213D01*
G37*
G36*
X8896Y14213D02*
X8787Y14104D01*
X9213Y14104D01*
X8896Y14213D01*
G37*
G36*
X9213Y14104D02*
X8787Y14104D01*
X9349Y14035D01*
X9213Y14104D01*
G37*
G36*
X8787Y14104D02*
X8651Y14035D01*
X9349Y14035D01*
X8787Y14104D01*
G37*
G36*
X10614Y13159D02*
X9349Y14035D01*
X8651Y14035D01*
X10614Y13159D01*
G37*
G36*
X10614Y13159D02*
X8651Y14035D01*
X8500Y14011D01*
X10614Y13159D01*
G37*
G36*
X10614Y13159D02*
X8500Y14011D01*
X6750Y13159D01*
X10614Y13159D01*
G37*
G36*
X8500Y14011D02*
X8349Y14035D01*
X6750Y13159D01*
X8500Y14011D01*
G37*
G36*
X6750Y13159D02*
X8349Y14035D01*
X7651Y14035D01*
X6750Y13159D01*
G37*
G36*
X7787Y14104D02*
X7651Y14035D01*
X8349Y14035D01*
X7787Y14104D01*
G37*
G36*
X8213Y14104D02*
X7787Y14104D01*
X8349Y14035D01*
X8213Y14104D01*
G37*
G36*
X7896Y14213D02*
X7787Y14104D01*
X8213Y14104D01*
X7896Y14213D01*
G37*
G36*
X8104Y14213D02*
X7896Y14213D01*
X8213Y14104D01*
X8104Y14213D01*
G37*
G36*
X8104Y14213D02*
X8035Y14349D01*
X7896Y14213D01*
X8104Y14213D01*
G37*
G36*
X8035Y14349D02*
X7965Y14349D01*
X7896Y14213D01*
X8035Y14349D01*
G37*
G36*
X8035Y14349D02*
X8011Y14500D01*
X7965Y14349D01*
X8035Y14349D01*
G37*
G36*
X8011Y14500D02*
X7989Y14500D01*
X7965Y14349D01*
X8011Y14500D01*
G37*
G36*
X7989Y14500D02*
X8011Y14500D01*
X8035Y14651D01*
X7989Y14500D01*
G37*
G36*
X7965Y14651D02*
X7989Y14500D01*
X8035Y14651D01*
X7965Y14651D01*
G37*
G36*
X7965Y14651D02*
X8035Y14651D01*
X8104Y14787D01*
X7965Y14651D01*
G37*
G36*
X7896Y14787D02*
X7965Y14651D01*
X8104Y14787D01*
X7896Y14787D01*
G37*
G36*
X7787Y14896D02*
X7896Y14787D01*
X8104Y14787D01*
X7787Y14896D01*
G37*
G36*
X8213Y14896D02*
X7787Y14896D01*
X8104Y14787D01*
X8213Y14896D01*
G37*
G36*
X7787Y14896D02*
X8213Y14896D01*
X8341Y14961D01*
X7787Y14896D01*
G37*
G36*
X8341Y14961D02*
X7651Y14965D01*
X7787Y14896D01*
X8341Y14961D01*
G37*
G36*
X8341Y16500D02*
X7651Y14965D01*
X8341Y14961D01*
X8341Y16500D01*
G37*
G36*
X7500Y14989D02*
X7651Y14965D01*
X8341Y16500D01*
X7500Y14989D01*
G37*
G36*
X7349Y14965D02*
X7500Y14989D01*
X8341Y16500D01*
X7349Y14965D01*
G37*
G36*
X8341Y16500D02*
X6651Y14965D01*
X7349Y14965D01*
X8341Y16500D01*
G37*
G36*
X6651Y14965D02*
X6787Y14896D01*
X7349Y14965D01*
X6651Y14965D01*
G37*
G36*
X6787Y14896D02*
X7213Y14896D01*
X7349Y14965D01*
X6787Y14896D01*
G37*
G36*
X7213Y14896D02*
X6787Y14896D01*
X7104Y14787D01*
X7213Y14896D01*
G37*
G36*
X6787Y14896D02*
X6896Y14787D01*
X7104Y14787D01*
X6787Y14896D01*
G37*
G36*
X6896Y14787D02*
X6965Y14651D01*
X7104Y14787D01*
X6896Y14787D01*
G37*
G36*
X6965Y14651D02*
X7035Y14651D01*
X7104Y14787D01*
X6965Y14651D01*
G37*
G36*
X6965Y14651D02*
X6989Y14500D01*
X7035Y14651D01*
X6965Y14651D01*
G37*
G36*
X6989Y14500D02*
X7011Y14500D01*
X7035Y14651D01*
X6989Y14500D01*
G37*
G36*
X7011Y14500D02*
X6989Y14500D01*
X6965Y14349D01*
X7011Y14500D01*
G37*
G36*
X7035Y14349D02*
X7011Y14500D01*
X6965Y14349D01*
X7035Y14349D01*
G37*
G36*
X7035Y14349D02*
X6965Y14349D01*
X6896Y14213D01*
X7035Y14349D01*
G37*
G36*
X7104Y14213D02*
X7035Y14349D01*
X6896Y14213D01*
X7104Y14213D01*
G37*
G36*
X7104Y14213D02*
X6896Y14213D01*
X7213Y14104D01*
X7104Y14213D01*
G37*
G36*
X6896Y14213D02*
X6787Y14104D01*
X7213Y14104D01*
X6896Y14213D01*
G37*
G36*
X6750Y13159D02*
X7213Y14104D01*
X6787Y14104D01*
X6750Y13159D01*
G37*
G36*
X6651Y14035D02*
X6750Y13159D01*
X6787Y14104D01*
X6651Y14035D01*
G37*
G36*
X6750Y13159D02*
X6651Y14035D01*
X6709Y13154D01*
X6750Y13159D01*
G37*
G36*
X6651Y14035D02*
X6500Y14011D01*
X6709Y13154D01*
X6651Y14035D01*
G37*
G36*
X6500Y14011D02*
X6671Y13138D01*
X6709Y13154D01*
X6500Y14011D01*
G37*
G36*
X6671Y13138D02*
X6500Y14011D01*
X6349Y14035D01*
X6671Y13138D01*
G37*
G36*
X6671Y13138D02*
X6349Y14035D01*
X6638Y13112D01*
X6671Y13138D01*
G37*
G36*
X6638Y13112D02*
X6349Y14035D01*
X5651Y14035D01*
X6638Y13112D01*
G37*
G36*
X5787Y14104D02*
X5651Y14035D01*
X6349Y14035D01*
X5787Y14104D01*
G37*
G36*
X6213Y14104D02*
X5787Y14104D01*
X6349Y14035D01*
X6213Y14104D01*
G37*
G36*
X5896Y14213D02*
X5787Y14104D01*
X6213Y14104D01*
X5896Y14213D01*
G37*
G36*
X6104Y14213D02*
X5896Y14213D01*
X6213Y14104D01*
X6104Y14213D01*
G37*
G36*
X6104Y14213D02*
X6035Y14349D01*
X5896Y14213D01*
X6104Y14213D01*
G37*
G36*
X6035Y14349D02*
X5965Y14349D01*
X5896Y14213D01*
X6035Y14349D01*
G37*
G36*
X6035Y14349D02*
X6011Y14500D01*
X5965Y14349D01*
X6035Y14349D01*
G37*
G36*
X6011Y14500D02*
X5989Y14500D01*
X5965Y14349D01*
X6011Y14500D01*
G37*
G36*
X5989Y14500D02*
X6011Y14500D01*
X6035Y14651D01*
X5989Y14500D01*
G37*
G36*
X5965Y14651D02*
X5989Y14500D01*
X6035Y14651D01*
X5965Y14651D01*
G37*
G36*
X5965Y14651D02*
X6035Y14651D01*
X6104Y14787D01*
X5965Y14651D01*
G37*
G36*
X5896Y14787D02*
X5965Y14651D01*
X6104Y14787D01*
X5896Y14787D01*
G37*
G36*
X5787Y14896D02*
X5896Y14787D01*
X6104Y14787D01*
X5787Y14896D01*
G37*
G36*
X6213Y14896D02*
X5787Y14896D01*
X6104Y14787D01*
X6213Y14896D01*
G37*
G36*
X5787Y14896D02*
X6213Y14896D01*
X6349Y14965D01*
X5787Y14896D01*
G37*
G36*
X5651Y14965D02*
X5787Y14896D01*
X6349Y14965D01*
X5651Y14965D01*
G37*
G36*
X5651Y14965D02*
X6349Y14965D01*
X6500Y14989D01*
X5651Y14965D01*
G37*
G36*
X5500Y14989D02*
X5651Y14965D01*
X6500Y14989D01*
X5500Y14989D01*
G37*
G36*
X6500Y14989D02*
X3500Y20011D01*
X5500Y14989D01*
X6500Y14989D01*
G37*
G36*
X4500Y14989D02*
X5500Y14989D01*
X3500Y20011D01*
X4500Y14989D01*
G37*
G36*
X2500Y20011D02*
X4500Y14989D01*
X3500Y20011D01*
X2500Y20011D01*
G37*
G36*
X2651Y20035D02*
X2500Y20011D01*
X3500Y20011D01*
X2651Y20035D01*
G37*
G36*
X3349Y20035D02*
X2651Y20035D01*
X3500Y20011D01*
X3349Y20035D01*
G37*
G36*
X2787Y20104D02*
X2651Y20035D01*
X3349Y20035D01*
X2787Y20104D01*
G37*
G36*
X3213Y20104D02*
X2787Y20104D01*
X3349Y20035D01*
X3213Y20104D01*
G37*
G36*
X2896Y20213D02*
X2787Y20104D01*
X3213Y20104D01*
X2896Y20213D01*
G37*
G36*
X3104Y20213D02*
X2896Y20213D01*
X3213Y20104D01*
X3104Y20213D01*
G37*
G36*
X3104Y20213D02*
X3035Y20349D01*
X2896Y20213D01*
X3104Y20213D01*
G37*
G36*
X3035Y20349D02*
X2965Y20349D01*
X2896Y20213D01*
X3035Y20349D01*
G37*
G36*
X3035Y20349D02*
X3011Y20500D01*
X2965Y20349D01*
X3035Y20349D01*
G37*
G36*
X3011Y20500D02*
X2989Y20500D01*
X2965Y20349D01*
X3011Y20500D01*
G37*
G36*
X2989Y20500D02*
X3011Y20500D01*
X3035Y20651D01*
X2989Y20500D01*
G37*
G36*
X2965Y20651D02*
X2989Y20500D01*
X3035Y20651D01*
X2965Y20651D01*
G37*
G36*
X2965Y20651D02*
X3035Y20651D01*
X3104Y20787D01*
X2965Y20651D01*
G37*
G36*
X2896Y20787D02*
X2965Y20651D01*
X3104Y20787D01*
X2896Y20787D01*
G37*
G36*
X2787Y20896D02*
X2896Y20787D01*
X3104Y20787D01*
X2787Y20896D01*
G37*
G36*
X3213Y20896D02*
X2787Y20896D01*
X3104Y20787D01*
X3213Y20896D01*
G37*
G36*
X2787Y20896D02*
X3213Y20896D01*
X3349Y20965D01*
X2787Y20896D01*
G37*
G36*
X2651Y20965D02*
X2787Y20896D01*
X3349Y20965D01*
X2651Y20965D01*
G37*
G36*
X2256Y22250D02*
X2651Y20965D01*
X3349Y20965D01*
X2256Y22250D01*
G37*
G36*
X2256Y22250D02*
X3349Y20965D01*
X4006Y22000D01*
X2256Y22250D01*
G37*
G36*
X3500Y20989D02*
X4006Y22000D01*
X3349Y20965D01*
X3500Y20989D01*
G37*
G36*
X4006Y22000D02*
X3500Y20989D01*
X4030Y21847D01*
X4006Y22000D01*
G37*
G36*
X4100Y21710D02*
X4030Y21847D01*
X3500Y20989D01*
X4100Y21710D01*
G37*
G36*
X4100Y21710D02*
X3500Y20989D01*
X3651Y20965D01*
X4100Y21710D01*
G37*
G36*
X4100Y21710D02*
X3651Y20965D01*
X3787Y20896D01*
X4100Y21710D01*
G37*
G36*
X4100Y21710D02*
X3787Y20896D01*
X3896Y20787D01*
X4100Y21710D01*
G37*
G36*
X3965Y20651D02*
X4100Y21710D01*
X3896Y20787D01*
X3965Y20651D01*
G37*
G36*
X4104Y20787D02*
X4100Y21710D01*
X3965Y20651D01*
X4104Y20787D01*
G37*
G36*
X4104Y20787D02*
X3965Y20651D01*
X4035Y20651D01*
X4104Y20787D01*
G37*
G36*
X3965Y20651D02*
X3989Y20500D01*
X4035Y20651D01*
X3965Y20651D01*
G37*
G36*
X3989Y20500D02*
X4011Y20500D01*
X4035Y20651D01*
X3989Y20500D01*
G37*
G36*
X4011Y20500D02*
X3989Y20500D01*
X3965Y20349D01*
X4011Y20500D01*
G37*
G36*
X4035Y20349D02*
X4011Y20500D01*
X3965Y20349D01*
X4035Y20349D01*
G37*
G36*
X4035Y20349D02*
X3965Y20349D01*
X3896Y20213D01*
X4035Y20349D01*
G37*
G36*
X4104Y20213D02*
X4035Y20349D01*
X3896Y20213D01*
X4104Y20213D01*
G37*
G36*
X4104Y20213D02*
X3896Y20213D01*
X4213Y20104D01*
X4104Y20213D01*
G37*
G36*
X3896Y20213D02*
X3787Y20104D01*
X4213Y20104D01*
X3896Y20213D01*
G37*
G36*
X4213Y20104D02*
X3787Y20104D01*
X4349Y20035D01*
X4213Y20104D01*
G37*
G36*
X3787Y20104D02*
X3651Y20035D01*
X4349Y20035D01*
X3787Y20104D01*
G37*
G36*
X4349Y20035D02*
X3651Y20035D01*
X4500Y20011D01*
X4349Y20035D01*
G37*
G36*
X3651Y20035D02*
X3500Y20011D01*
X4500Y20011D01*
X3651Y20035D01*
G37*
G36*
X6500Y14989D02*
X4500Y20011D01*
X3500Y20011D01*
X6500Y14989D01*
G37*
G36*
X4500Y20011D02*
X6500Y14989D01*
X5500Y20011D01*
X4500Y20011D01*
G37*
G36*
X6500Y14989D02*
X8346Y16541D01*
X5500Y20011D01*
X6500Y14989D01*
G37*
G36*
X8346Y16541D02*
X5651Y20035D01*
X5500Y20011D01*
X8346Y16541D01*
G37*
G36*
X8346Y16541D02*
X6500Y14989D01*
X8341Y16500D01*
X8346Y16541D01*
G37*
G36*
X8341Y16500D02*
X6500Y14989D01*
X6651Y14965D01*
X8341Y16500D01*
G37*
G36*
X4651Y20035D02*
X4500Y20011D01*
X5500Y20011D01*
X4651Y20035D01*
G37*
G36*
X5349Y20035D02*
X4651Y20035D01*
X5500Y20011D01*
X5349Y20035D01*
G37*
G36*
X4787Y20104D02*
X4651Y20035D01*
X5349Y20035D01*
X4787Y20104D01*
G37*
G36*
X5213Y20104D02*
X4787Y20104D01*
X5349Y20035D01*
X5213Y20104D01*
G37*
G36*
X4896Y20213D02*
X4787Y20104D01*
X5213Y20104D01*
X4896Y20213D01*
G37*
G36*
X5104Y20213D02*
X4896Y20213D01*
X5213Y20104D01*
X5104Y20213D01*
G37*
G36*
X5104Y20213D02*
X5035Y20349D01*
X4896Y20213D01*
X5104Y20213D01*
G37*
G36*
X5035Y20349D02*
X4965Y20349D01*
X4896Y20213D01*
X5035Y20349D01*
G37*
G36*
X5035Y20349D02*
X5011Y20500D01*
X4965Y20349D01*
X5035Y20349D01*
G37*
G36*
X5011Y20500D02*
X4989Y20500D01*
X4965Y20349D01*
X5011Y20500D01*
G37*
G36*
X4989Y20500D02*
X5011Y20500D01*
X5035Y20651D01*
X4989Y20500D01*
G37*
G36*
X4965Y20651D02*
X4989Y20500D01*
X5035Y20651D01*
X4965Y20651D01*
G37*
G36*
X4965Y20651D02*
X5035Y20651D01*
X5104Y20787D01*
X4965Y20651D01*
G37*
G36*
X4896Y20787D02*
X4965Y20651D01*
X5104Y20787D01*
X4896Y20787D01*
G37*
G36*
X4787Y20896D02*
X4896Y20787D01*
X5104Y20787D01*
X4787Y20896D01*
G37*
G36*
X5104Y20787D02*
X5213Y20896D01*
X4787Y20896D01*
X5104Y20787D01*
G37*
G36*
X5213Y20896D02*
X4790Y21600D01*
X4787Y20896D01*
X5213Y20896D01*
G37*
G36*
X4653Y21530D02*
X4787Y20896D01*
X4790Y21600D01*
X4653Y21530D01*
G37*
G36*
X4653Y21530D02*
X4651Y20965D01*
X4787Y20896D01*
X4653Y21530D01*
G37*
G36*
X4500Y21506D02*
X4651Y20965D01*
X4653Y21530D01*
X4500Y21506D01*
G37*
G36*
X4500Y21506D02*
X4500Y20989D01*
X4651Y20965D01*
X4500Y21506D01*
G37*
G36*
X4349Y20965D02*
X4500Y20989D01*
X4500Y21506D01*
X4349Y20965D01*
G37*
G36*
X4347Y21530D02*
X4349Y20965D01*
X4500Y21506D01*
X4347Y21530D01*
G37*
G36*
X4347Y21530D02*
X4213Y20896D01*
X4349Y20965D01*
X4347Y21530D01*
G37*
G36*
X4210Y21600D02*
X4213Y20896D01*
X4347Y21530D01*
X4210Y21600D01*
G37*
G36*
X4210Y21600D02*
X4104Y20787D01*
X4213Y20896D01*
X4210Y21600D01*
G37*
G36*
X4100Y21710D02*
X4104Y20787D01*
X4210Y21600D01*
X4100Y21710D01*
G37*
G36*
X5210Y21600D02*
X4790Y21600D01*
X5213Y20896D01*
X5210Y21600D01*
G37*
G36*
X5347Y21530D02*
X5210Y21600D01*
X5213Y20896D01*
X5347Y21530D01*
G37*
G36*
X5347Y21530D02*
X5213Y20896D01*
X5349Y20965D01*
X5347Y21530D01*
G37*
G36*
X5347Y21530D02*
X5349Y20965D01*
X5500Y21506D01*
X5347Y21530D01*
G37*
G36*
X5349Y20965D02*
X5500Y20989D01*
X5500Y21506D01*
X5349Y20965D01*
G37*
G36*
X5500Y21506D02*
X5500Y20989D01*
X5651Y20965D01*
X5500Y21506D01*
G37*
G36*
X5500Y21506D02*
X5651Y20965D01*
X5653Y21530D01*
X5500Y21506D01*
G37*
G36*
X5653Y21530D02*
X5651Y20965D01*
X5787Y20896D01*
X5653Y21530D01*
G37*
G36*
X5653Y21530D02*
X5787Y20896D01*
X5790Y21600D01*
X5653Y21530D01*
G37*
G36*
X4900Y21710D02*
X4790Y21600D01*
X5210Y21600D01*
X4900Y21710D01*
G37*
G36*
X5100Y21710D02*
X4900Y21710D01*
X5210Y21600D01*
X5100Y21710D01*
G37*
G36*
X4970Y21847D02*
X4900Y21710D01*
X5100Y21710D01*
X4970Y21847D01*
G37*
G36*
X5030Y21847D02*
X4970Y21847D01*
X5100Y21710D01*
X5030Y21847D01*
G37*
G36*
X4994Y22000D02*
X4970Y21847D01*
X5030Y21847D01*
X4994Y22000D01*
G37*
G36*
X5006Y22000D02*
X4994Y22000D01*
X5030Y21847D01*
X5006Y22000D01*
G37*
G36*
X4970Y22153D02*
X4994Y22000D01*
X5006Y22000D01*
X4970Y22153D01*
G37*
G36*
X5030Y22153D02*
X4970Y22153D01*
X5006Y22000D01*
X5030Y22153D01*
G37*
G36*
X4970Y22153D02*
X5030Y22153D01*
X5100Y22290D01*
X4970Y22153D01*
G37*
G36*
X4900Y22290D02*
X4970Y22153D01*
X5100Y22290D01*
X4900Y22290D01*
G37*
G36*
X5100Y22290D02*
X5210Y22400D01*
X4900Y22290D01*
X5100Y22290D01*
G37*
G36*
X5210Y22400D02*
X4790Y22400D01*
X4900Y22290D01*
X5210Y22400D01*
G37*
G36*
X5210Y22400D02*
X5347Y22470D01*
X4790Y22400D01*
X5210Y22400D01*
G37*
G36*
X4790Y22400D02*
X5347Y22470D01*
X4653Y22470D01*
X4790Y22400D01*
G37*
G36*
X5347Y22470D02*
X4500Y22494D01*
X4653Y22470D01*
X5347Y22470D01*
G37*
G36*
X4500Y22494D02*
X5347Y22470D01*
X5500Y22494D01*
X4500Y22494D01*
G37*
G36*
X4030Y22153D02*
X2256Y22250D01*
X4006Y22000D01*
X4030Y22153D01*
G37*
G36*
X2244Y22329D02*
X2256Y22250D01*
X4030Y22153D01*
X2244Y22329D01*
G37*
G36*
X2244Y22329D02*
X4030Y22153D01*
X4100Y22290D01*
X2244Y22329D01*
G37*
G36*
X4100Y22290D02*
X2208Y22401D01*
X2244Y22329D01*
X4100Y22290D01*
G37*
G36*
X4100Y22290D02*
X2151Y22458D01*
X2208Y22401D01*
X4100Y22290D01*
G37*
G36*
X4100Y22290D02*
X4210Y22400D01*
X2151Y22458D01*
X4100Y22290D01*
G37*
G36*
X2151Y22458D02*
X4210Y22400D01*
X2079Y22494D01*
X2151Y22458D01*
G37*
G36*
X4347Y22470D02*
X2079Y22494D01*
X4210Y22400D01*
X4347Y22470D01*
G37*
G36*
X2651Y20965D02*
X2256Y22250D01*
X2244Y22171D01*
X2651Y20965D01*
G37*
G36*
X2651Y20965D02*
X2244Y22171D01*
X2208Y22099D01*
X2651Y20965D01*
G37*
G36*
X2500Y20989D02*
X2651Y20965D01*
X2208Y22099D01*
X2500Y20989D01*
G37*
G36*
X2208Y22099D02*
X2151Y22042D01*
X2500Y20989D01*
X2208Y22099D01*
G37*
G36*
X2151Y22042D02*
X2079Y22006D01*
X2500Y20989D01*
X2151Y22042D01*
G37*
G36*
X2500Y20989D02*
X2079Y22006D01*
X2349Y20965D01*
X2500Y20989D01*
G37*
G36*
X2079Y22006D02*
X2000Y21994D01*
X2349Y20965D01*
X2079Y22006D01*
G37*
G36*
X2000Y21994D02*
X2213Y20896D01*
X2349Y20965D01*
X2000Y21994D01*
G37*
G36*
X2000Y21994D02*
X1787Y20896D01*
X2213Y20896D01*
X2000Y21994D01*
G37*
G36*
X1787Y20896D02*
X2104Y20787D01*
X2213Y20896D01*
X1787Y20896D01*
G37*
G36*
X2104Y20787D02*
X1787Y20896D01*
X1896Y20787D01*
X2104Y20787D01*
G37*
G36*
X1965Y20651D02*
X2104Y20787D01*
X1896Y20787D01*
X1965Y20651D01*
G37*
G36*
X2104Y20787D02*
X1965Y20651D01*
X2035Y20651D01*
X2104Y20787D01*
G37*
G36*
X1965Y20651D02*
X1989Y20500D01*
X2035Y20651D01*
X1965Y20651D01*
G37*
G36*
X1989Y20500D02*
X2011Y20500D01*
X2035Y20651D01*
X1989Y20500D01*
G37*
G36*
X2011Y20500D02*
X1989Y20500D01*
X1965Y20349D01*
X2011Y20500D01*
G37*
G36*
X2035Y20349D02*
X2011Y20500D01*
X1965Y20349D01*
X2035Y20349D01*
G37*
G36*
X2035Y20349D02*
X1965Y20349D01*
X2065Y20290D01*
X2035Y20349D01*
G37*
G36*
X1965Y20349D02*
X1896Y20213D01*
X2065Y20290D01*
X1965Y20349D01*
G37*
G36*
X2065Y20290D02*
X1896Y20213D01*
X1787Y20104D01*
X2065Y20290D01*
G37*
G36*
X1138Y19362D02*
X2065Y20290D01*
X1787Y20104D01*
X1138Y19362D01*
G37*
G36*
X1651Y20035D02*
X1138Y19362D01*
X1787Y20104D01*
X1651Y20035D01*
G37*
G36*
X1500Y20011D02*
X1138Y19362D01*
X1651Y20035D01*
X1500Y20011D01*
G37*
G36*
X1349Y20035D02*
X1138Y19362D01*
X1500Y20011D01*
X1349Y20035D01*
G37*
G36*
X1290Y20065D02*
X1138Y19362D01*
X1349Y20035D01*
X1290Y20065D01*
G37*
G36*
X1138Y19362D02*
X1290Y20065D01*
X659Y19434D01*
X1138Y19362D01*
G37*
G36*
X659Y19434D02*
X1112Y19329D01*
X1138Y19362D01*
X659Y19434D01*
G37*
G36*
X659Y19434D02*
X1096Y19291D01*
X1112Y19329D01*
X659Y19434D01*
G37*
G36*
X659Y19434D02*
X1091Y19250D01*
X1096Y19291D01*
X659Y19434D01*
G37*
G36*
X1091Y19250D02*
X659Y19434D01*
X1091Y15816D01*
X1091Y19250D01*
G37*
G36*
X1091Y15816D02*
X659Y19434D01*
X659Y15386D01*
X1091Y15816D01*
G37*
G36*
X659Y15386D02*
X660Y15385D01*
X1091Y15816D01*
X659Y15386D01*
G37*
G36*
X1651Y20965D02*
X1787Y20896D01*
X2000Y21994D01*
X1651Y20965D01*
G37*
G36*
X1921Y22006D02*
X1651Y20965D01*
X2000Y21994D01*
X1921Y22006D01*
G37*
G36*
X1921Y22006D02*
X1500Y20989D01*
X1651Y20965D01*
X1921Y22006D01*
G37*
G36*
X1921Y22006D02*
X1849Y22042D01*
X1500Y20989D01*
X1921Y22006D01*
G37*
G36*
X1792Y22099D02*
X1500Y20989D01*
X1849Y22042D01*
X1792Y22099D01*
G37*
G36*
X1792Y22099D02*
X1349Y20965D01*
X1500Y20989D01*
X1792Y22099D01*
G37*
G36*
X1349Y20965D02*
X1792Y22099D01*
X1756Y22171D01*
X1349Y20965D01*
G37*
G36*
X1349Y20965D02*
X1756Y22171D01*
X1213Y20896D01*
X1349Y20965D01*
G37*
G36*
X4500Y14989D02*
X2500Y20011D01*
X3500Y14989D01*
X4500Y14989D01*
G37*
G36*
X2500Y20011D02*
X1409Y19184D01*
X3500Y14989D01*
X2500Y20011D01*
G37*
G36*
X3349Y14965D02*
X3500Y14989D01*
X1409Y19184D01*
X3349Y14965D01*
G37*
G36*
X1409Y19184D02*
X2651Y14965D01*
X3349Y14965D01*
X1409Y19184D01*
G37*
G36*
X2651Y14965D02*
X2787Y14896D01*
X3349Y14965D01*
X2651Y14965D01*
G37*
G36*
X2787Y14896D02*
X3213Y14896D01*
X3349Y14965D01*
X2787Y14896D01*
G37*
G36*
X3213Y14896D02*
X2787Y14896D01*
X3104Y14787D01*
X3213Y14896D01*
G37*
G36*
X2787Y14896D02*
X2896Y14787D01*
X3104Y14787D01*
X2787Y14896D01*
G37*
G36*
X2896Y14787D02*
X2965Y14651D01*
X3104Y14787D01*
X2896Y14787D01*
G37*
G36*
X2965Y14651D02*
X3035Y14651D01*
X3104Y14787D01*
X2965Y14651D01*
G37*
G36*
X2965Y14651D02*
X2989Y14500D01*
X3035Y14651D01*
X2965Y14651D01*
G37*
G36*
X2989Y14500D02*
X3011Y14500D01*
X3035Y14651D01*
X2989Y14500D01*
G37*
G36*
X3011Y14500D02*
X2989Y14500D01*
X2965Y14349D01*
X3011Y14500D01*
G37*
G36*
X3035Y14349D02*
X3011Y14500D01*
X2965Y14349D01*
X3035Y14349D01*
G37*
G36*
X3035Y14349D02*
X2965Y14349D01*
X2896Y14213D01*
X3035Y14349D01*
G37*
G36*
X3104Y14213D02*
X3035Y14349D01*
X2896Y14213D01*
X3104Y14213D01*
G37*
G36*
X3104Y14213D02*
X2896Y14213D01*
X3213Y14104D01*
X3104Y14213D01*
G37*
G36*
X2896Y14213D02*
X2787Y14104D01*
X3213Y14104D01*
X2896Y14213D01*
G37*
G36*
X3213Y14104D02*
X2787Y14104D01*
X3349Y14035D01*
X3213Y14104D01*
G37*
G36*
X2787Y14104D02*
X2651Y14035D01*
X3349Y14035D01*
X2787Y14104D01*
G37*
G36*
X2244Y13671D02*
X3349Y14035D01*
X2651Y14035D01*
X2244Y13671D01*
G37*
G36*
X2500Y14011D02*
X2244Y13671D01*
X2651Y14035D01*
X2500Y14011D01*
G37*
G36*
X2500Y14011D02*
X2256Y13750D01*
X2244Y13671D01*
X2500Y14011D01*
G37*
G36*
X2244Y13829D02*
X2256Y13750D01*
X2500Y14011D01*
X2244Y13829D01*
G37*
G36*
X2500Y14011D02*
X2349Y14035D01*
X2244Y13829D01*
X2500Y14011D01*
G37*
G36*
X2349Y14035D02*
X2208Y13901D01*
X2244Y13829D01*
X2349Y14035D01*
G37*
G36*
X2349Y14035D02*
X2151Y13958D01*
X2208Y13901D01*
X2349Y14035D01*
G37*
G36*
X2213Y14104D02*
X2151Y13958D01*
X2349Y14035D01*
X2213Y14104D01*
G37*
G36*
X2079Y13994D02*
X2151Y13958D01*
X2213Y14104D01*
X2079Y13994D01*
G37*
G36*
X2104Y14213D02*
X2079Y13994D01*
X2213Y14104D01*
X2104Y14213D01*
G37*
G36*
X2000Y14006D02*
X2079Y13994D01*
X2104Y14213D01*
X2000Y14006D01*
G37*
G36*
X1896Y14213D02*
X2000Y14006D01*
X2104Y14213D01*
X1896Y14213D01*
G37*
G36*
X2104Y14213D02*
X2035Y14349D01*
X1896Y14213D01*
X2104Y14213D01*
G37*
G36*
X2035Y14349D02*
X1965Y14349D01*
X1896Y14213D01*
X2035Y14349D01*
G37*
G36*
X2035Y14349D02*
X2011Y14500D01*
X1965Y14349D01*
X2035Y14349D01*
G37*
G36*
X2011Y14500D02*
X1989Y14500D01*
X1965Y14349D01*
X2011Y14500D01*
G37*
G36*
X1989Y14500D02*
X2011Y14500D01*
X2035Y14651D01*
X1989Y14500D01*
G37*
G36*
X1965Y14651D02*
X1989Y14500D01*
X2035Y14651D01*
X1965Y14651D01*
G37*
G36*
X1965Y14651D02*
X2035Y14651D01*
X2104Y14787D01*
X1965Y14651D01*
G37*
G36*
X1896Y14787D02*
X1965Y14651D01*
X2104Y14787D01*
X1896Y14787D01*
G37*
G36*
X1787Y14896D02*
X1896Y14787D01*
X2104Y14787D01*
X1787Y14896D01*
G37*
G36*
X2213Y14896D02*
X1787Y14896D01*
X2104Y14787D01*
X2213Y14896D01*
G37*
G36*
X1787Y14896D02*
X2213Y14896D01*
X2349Y14965D01*
X1787Y14896D01*
G37*
G36*
X1651Y14965D02*
X1787Y14896D01*
X2349Y14965D01*
X1651Y14965D01*
G37*
G36*
X1409Y19184D02*
X1651Y14965D01*
X2349Y14965D01*
X1409Y19184D01*
G37*
G36*
X2349Y14965D02*
X2500Y14989D01*
X1409Y19184D01*
X2349Y14965D01*
G37*
G36*
X1409Y19184D02*
X2500Y14989D01*
X2651Y14965D01*
X1409Y19184D01*
G37*
G36*
X1651Y14965D02*
X1409Y19184D01*
X1409Y15750D01*
X1651Y14965D01*
G37*
G36*
X1651Y14965D02*
X1409Y15750D01*
X1404Y15709D01*
X1651Y14965D01*
G37*
G36*
X1651Y14965D02*
X1404Y15709D01*
X1388Y15671D01*
X1651Y14965D01*
G37*
G36*
X1651Y14965D02*
X1388Y15671D01*
X1362Y15638D01*
X1651Y14965D01*
G37*
G36*
X1651Y14965D02*
X1362Y15638D01*
X1500Y14989D01*
X1651Y14965D01*
G37*
G36*
X1362Y15638D02*
X1349Y14965D01*
X1500Y14989D01*
X1362Y15638D01*
G37*
G36*
X1362Y15638D02*
X909Y15184D01*
X1349Y14965D01*
X1362Y15638D01*
G37*
G36*
X909Y15184D02*
X1213Y14896D01*
X1349Y14965D01*
X909Y15184D01*
G37*
G36*
X909Y15184D02*
X1104Y14787D01*
X1213Y14896D01*
X909Y15184D01*
G37*
G36*
X909Y15184D02*
X1035Y14651D01*
X1104Y14787D01*
X909Y15184D01*
G37*
G36*
X909Y15184D02*
X1011Y14500D01*
X1035Y14651D01*
X909Y15184D01*
G37*
G36*
X1011Y14500D02*
X909Y15184D01*
X909Y13566D01*
X1011Y14500D01*
G37*
G36*
X909Y13566D02*
X1035Y14349D01*
X1011Y14500D01*
X909Y13566D01*
G37*
G36*
X1035Y14349D02*
X909Y13566D01*
X1104Y14213D01*
X1035Y14349D01*
G37*
G36*
X1104Y14213D02*
X909Y13566D01*
X1213Y14104D01*
X1104Y14213D01*
G37*
G36*
X1213Y14104D02*
X909Y13566D01*
X1349Y14035D01*
X1213Y14104D01*
G37*
G36*
X909Y13566D02*
X1756Y13671D01*
X1349Y14035D01*
X909Y13566D01*
G37*
G36*
X1500Y14011D02*
X1349Y14035D01*
X1756Y13671D01*
X1500Y14011D01*
G37*
G36*
X1744Y13750D02*
X1500Y14011D01*
X1756Y13671D01*
X1744Y13750D01*
G37*
G36*
X1500Y14011D02*
X1744Y13750D01*
X1756Y13829D01*
X1500Y14011D01*
G37*
G36*
X1651Y14035D02*
X1500Y14011D01*
X1756Y13829D01*
X1651Y14035D01*
G37*
G36*
X1792Y13901D02*
X1651Y14035D01*
X1756Y13829D01*
X1792Y13901D01*
G37*
G36*
X1849Y13958D02*
X1651Y14035D01*
X1792Y13901D01*
X1849Y13958D01*
G37*
G36*
X1849Y13958D02*
X1787Y14104D01*
X1651Y14035D01*
X1849Y13958D01*
G37*
G36*
X1787Y14104D02*
X1849Y13958D01*
X1921Y13994D01*
X1787Y14104D01*
G37*
G36*
X1896Y14213D02*
X1787Y14104D01*
X1921Y13994D01*
X1896Y14213D01*
G37*
G36*
X1896Y14213D02*
X1921Y13994D01*
X2000Y14006D01*
X1896Y14213D01*
G37*
G36*
X1756Y13671D02*
X909Y13566D01*
X1792Y13599D01*
X1756Y13671D01*
G37*
G36*
X1792Y13599D02*
X909Y13566D01*
X1849Y13542D01*
X1792Y13599D01*
G37*
G36*
X1849Y13542D02*
X909Y13566D01*
X1921Y13506D01*
X1849Y13542D01*
G37*
G36*
X1921Y13506D02*
X909Y13566D01*
X2612Y11862D01*
X1921Y13506D01*
G37*
G36*
X1921Y13506D02*
X2612Y11862D01*
X2000Y13494D01*
X1921Y13506D01*
G37*
G36*
X2079Y13506D02*
X2000Y13494D01*
X2612Y11862D01*
X2079Y13506D01*
G37*
G36*
X2151Y13542D02*
X2079Y13506D01*
X2612Y11862D01*
X2151Y13542D01*
G37*
G36*
X2208Y13599D02*
X2151Y13542D01*
X2612Y11862D01*
X2208Y13599D01*
G37*
G36*
X2612Y11862D02*
X3500Y14011D01*
X2208Y13599D01*
X2612Y11862D01*
G37*
G36*
X3500Y14011D02*
X2244Y13671D01*
X2208Y13599D01*
X3500Y14011D01*
G37*
G36*
X3500Y14011D02*
X3349Y14035D01*
X2244Y13671D01*
X3500Y14011D01*
G37*
G36*
X2612Y11862D02*
X2638Y11829D01*
X3500Y14011D01*
X2612Y11862D01*
G37*
G36*
X3651Y14035D02*
X3500Y14011D01*
X2638Y11829D01*
X3651Y14035D01*
G37*
G36*
X2638Y11829D02*
X4349Y14035D01*
X3651Y14035D01*
X2638Y11829D01*
G37*
G36*
X3787Y14104D02*
X3651Y14035D01*
X4349Y14035D01*
X3787Y14104D01*
G37*
G36*
X4213Y14104D02*
X3787Y14104D01*
X4349Y14035D01*
X4213Y14104D01*
G37*
G36*
X3896Y14213D02*
X3787Y14104D01*
X4213Y14104D01*
X3896Y14213D01*
G37*
G36*
X4104Y14213D02*
X3896Y14213D01*
X4213Y14104D01*
X4104Y14213D01*
G37*
G36*
X4104Y14213D02*
X4035Y14349D01*
X3896Y14213D01*
X4104Y14213D01*
G37*
G36*
X4035Y14349D02*
X3965Y14349D01*
X3896Y14213D01*
X4035Y14349D01*
G37*
G36*
X4035Y14349D02*
X4011Y14500D01*
X3965Y14349D01*
X4035Y14349D01*
G37*
G36*
X4011Y14500D02*
X3989Y14500D01*
X3965Y14349D01*
X4011Y14500D01*
G37*
G36*
X3989Y14500D02*
X4011Y14500D01*
X4035Y14651D01*
X3989Y14500D01*
G37*
G36*
X3965Y14651D02*
X3989Y14500D01*
X4035Y14651D01*
X3965Y14651D01*
G37*
G36*
X3965Y14651D02*
X4035Y14651D01*
X4104Y14787D01*
X3965Y14651D01*
G37*
G36*
X3896Y14787D02*
X3965Y14651D01*
X4104Y14787D01*
X3896Y14787D01*
G37*
G36*
X3787Y14896D02*
X3896Y14787D01*
X4104Y14787D01*
X3787Y14896D01*
G37*
G36*
X4213Y14896D02*
X3787Y14896D01*
X4104Y14787D01*
X4213Y14896D01*
G37*
G36*
X3787Y14896D02*
X4213Y14896D01*
X4349Y14965D01*
X3787Y14896D01*
G37*
G36*
X3651Y14965D02*
X3787Y14896D01*
X4349Y14965D01*
X3651Y14965D01*
G37*
G36*
X3651Y14965D02*
X4349Y14965D01*
X4500Y14989D01*
X3651Y14965D01*
G37*
G36*
X3500Y14989D02*
X3651Y14965D01*
X4500Y14989D01*
X3500Y14989D01*
G37*
G36*
X2638Y11829D02*
X2654Y11791D01*
X4349Y14035D01*
X2638Y11829D01*
G37*
G36*
X2654Y11791D02*
X4500Y14011D01*
X4349Y14035D01*
X2654Y11791D01*
G37*
G36*
X6638Y13112D02*
X4500Y14011D01*
X2654Y11791D01*
X6638Y13112D01*
G37*
G36*
X2654Y11791D02*
X2900Y11040D01*
X6638Y13112D01*
X2654Y11791D01*
G37*
G36*
X2900Y11040D02*
X2970Y10903D01*
X6638Y13112D01*
X2900Y11040D01*
G37*
G36*
X2970Y10903D02*
X2994Y10750D01*
X6638Y13112D01*
X2970Y10903D01*
G37*
G36*
X2994Y9750D02*
X6638Y13112D01*
X2994Y10750D01*
X2994Y9750D01*
G37*
G36*
X2994Y10750D02*
X2970Y9903D01*
X2994Y9750D01*
X2994Y10750D01*
G37*
G36*
X2970Y10597D02*
X2970Y9903D01*
X2994Y10750D01*
X2970Y10597D01*
G37*
G36*
X2970Y10597D02*
X2900Y10040D01*
X2970Y9903D01*
X2970Y10597D01*
G37*
G36*
X2970Y10597D02*
X2900Y10460D01*
X2900Y10040D01*
X2970Y10597D01*
G37*
G36*
X2900Y10460D02*
X2790Y10150D01*
X2900Y10040D01*
X2900Y10460D01*
G37*
G36*
X2900Y10460D02*
X2790Y10350D01*
X2790Y10150D01*
X2900Y10460D01*
G37*
G36*
X2653Y10280D02*
X2790Y10150D01*
X2790Y10350D01*
X2653Y10280D01*
G37*
G36*
X2653Y10280D02*
X2653Y10220D01*
X2790Y10150D01*
X2653Y10280D01*
G37*
G36*
X2653Y10280D02*
X2500Y10244D01*
X2653Y10220D01*
X2653Y10280D01*
G37*
G36*
X2653Y10280D02*
X2500Y10256D01*
X2500Y10244D01*
X2653Y10280D01*
G37*
G36*
X2500Y10256D02*
X2347Y10280D01*
X2500Y10244D01*
X2500Y10256D01*
G37*
G36*
X2347Y10280D02*
X2347Y10220D01*
X2500Y10244D01*
X2347Y10280D01*
G37*
G36*
X2286Y10189D02*
X2347Y10220D01*
X2347Y10280D01*
X2286Y10189D01*
G37*
G36*
X2210Y10350D02*
X2286Y10189D01*
X2347Y10280D01*
X2210Y10350D01*
G37*
G36*
X2286Y10189D02*
X2210Y10350D01*
X2100Y10460D01*
X2286Y10189D01*
G37*
G36*
X659Y11816D02*
X2286Y10189D01*
X2100Y10460D01*
X659Y11816D01*
G37*
G36*
X2030Y10597D02*
X659Y11816D01*
X2100Y10460D01*
X2030Y10597D01*
G37*
G36*
X2006Y10750D02*
X659Y11816D01*
X2030Y10597D01*
X2006Y10750D01*
G37*
G36*
X659Y11816D02*
X2006Y10750D01*
X2030Y10903D01*
X659Y11816D01*
G37*
G36*
X659Y11816D02*
X2030Y10903D01*
X2100Y11040D01*
X659Y11816D01*
G37*
G36*
X2100Y11040D02*
X2341Y11684D01*
X659Y11816D01*
X2100Y11040D01*
G37*
G36*
X2341Y11684D02*
X660Y13365D01*
X659Y11816D01*
X2341Y11684D01*
G37*
G36*
X659Y13364D02*
X659Y11816D01*
X660Y13365D01*
X659Y13364D01*
G37*
G36*
X2210Y11150D02*
X2341Y11684D01*
X2100Y11040D01*
X2210Y11150D01*
G37*
G36*
X2210Y11150D02*
X2341Y11217D01*
X2341Y11684D01*
X2210Y11150D01*
G37*
G36*
X6638Y13112D02*
X2994Y9750D01*
X2970Y9597D01*
X6638Y13112D01*
G37*
G36*
X2970Y9597D02*
X2900Y9460D01*
X6638Y13112D01*
X2970Y9597D01*
G37*
G36*
X2714Y9189D02*
X6638Y13112D01*
X2900Y9460D01*
X2714Y9189D01*
G37*
G36*
X2714Y9189D02*
X2900Y9460D01*
X2790Y9350D01*
X2714Y9189D01*
G37*
G36*
X2653Y9280D02*
X2714Y9189D01*
X2790Y9350D01*
X2653Y9280D01*
G37*
G36*
X2653Y9280D02*
X2653Y9220D01*
X2714Y9189D01*
X2653Y9280D01*
G37*
G36*
X2653Y9280D02*
X2500Y9244D01*
X2653Y9220D01*
X2653Y9280D01*
G37*
G36*
X2653Y9280D02*
X2500Y9256D01*
X2500Y9244D01*
X2653Y9280D01*
G37*
G36*
X2500Y9256D02*
X2347Y9280D01*
X2500Y9244D01*
X2500Y9256D01*
G37*
G36*
X2347Y9280D02*
X2347Y9220D01*
X2500Y9244D01*
X2347Y9280D01*
G37*
G36*
X2347Y9280D02*
X2210Y9350D01*
X2347Y9220D01*
X2347Y9280D01*
G37*
G36*
X2210Y9350D02*
X2210Y9150D01*
X2347Y9220D01*
X2210Y9350D01*
G37*
G36*
X2210Y9350D02*
X2100Y9460D01*
X2210Y9150D01*
X2210Y9350D01*
G37*
G36*
X2100Y9460D02*
X2100Y9040D01*
X2210Y9150D01*
X2100Y9460D01*
G37*
G36*
X2100Y9460D02*
X2030Y9597D01*
X2100Y9040D01*
X2100Y9460D01*
G37*
G36*
X2030Y9597D02*
X2030Y8903D01*
X2100Y9040D01*
X2030Y9597D01*
G37*
G36*
X2030Y8903D02*
X2030Y9597D01*
X1290Y7650D01*
X2030Y8903D01*
G37*
G36*
X2030Y9597D02*
X1153Y7720D01*
X1290Y7650D01*
X2030Y9597D01*
G37*
G36*
X2030Y9597D02*
X1000Y7744D01*
X1153Y7720D01*
X2030Y9597D01*
G37*
G36*
X2006Y9750D02*
X1000Y7744D01*
X2030Y9597D01*
X2006Y9750D01*
G37*
G36*
X1000Y7744D02*
X2006Y9750D01*
X847Y7720D01*
X1000Y7744D01*
G37*
G36*
X2006Y9750D02*
X388Y11638D01*
X847Y7720D01*
X2006Y9750D01*
G37*
G36*
X388Y11638D02*
X710Y7650D01*
X847Y7720D01*
X388Y11638D01*
G37*
G36*
X388Y11638D02*
X600Y7540D01*
X710Y7650D01*
X388Y11638D01*
G37*
G36*
X362Y11671D02*
X600Y7540D01*
X388Y11638D01*
X362Y11671D01*
G37*
G36*
X600Y7540D02*
X362Y11671D01*
X530Y7403D01*
X600Y7540D01*
G37*
G36*
X530Y7403D02*
X362Y11671D01*
X506Y7250D01*
X530Y7403D01*
G37*
G36*
X362Y11671D02*
X346Y11709D01*
X506Y7250D01*
X362Y11671D01*
G37*
G36*
X506Y7250D02*
X346Y11709D01*
X341Y11750D01*
X506Y7250D01*
G37*
G36*
X388Y11638D02*
X2006Y9750D01*
X2030Y9903D01*
X388Y11638D01*
G37*
G36*
X2061Y9964D02*
X388Y11638D01*
X2030Y9903D01*
X2061Y9964D01*
G37*
G36*
X1290Y7650D02*
X2006Y8750D01*
X2030Y8903D01*
X1290Y7650D01*
G37*
G36*
X2006Y8750D02*
X1290Y7650D01*
X2030Y8597D01*
X2006Y8750D01*
G37*
G36*
X2030Y8597D02*
X1290Y7650D01*
X1400Y7540D01*
X2030Y8597D01*
G37*
G36*
X2030Y7903D02*
X2030Y8597D01*
X1400Y7540D01*
X2030Y7903D01*
G37*
G36*
X1400Y7540D02*
X2006Y7750D01*
X2030Y7903D01*
X1400Y7540D01*
G37*
G36*
X2006Y7750D02*
X1400Y7540D01*
X2030Y7597D01*
X2006Y7750D01*
G37*
G36*
X2030Y7597D02*
X1400Y7540D01*
X1470Y7403D01*
X2030Y7597D01*
G37*
G36*
X2030Y7597D02*
X1470Y7403D01*
X2100Y7460D01*
X2030Y7597D01*
G37*
G36*
X1470Y7403D02*
X1494Y7250D01*
X2100Y7460D01*
X1470Y7403D01*
G37*
G36*
X1494Y7250D02*
X2100Y7040D01*
X2100Y7460D01*
X1494Y7250D01*
G37*
G36*
X2100Y7460D02*
X2100Y7040D01*
X2210Y7150D01*
X2100Y7460D01*
G37*
G36*
X2210Y7350D02*
X2100Y7460D01*
X2210Y7150D01*
X2210Y7350D01*
G37*
G36*
X2210Y7350D02*
X2210Y7150D01*
X2347Y7220D01*
X2210Y7350D01*
G37*
G36*
X2347Y7280D02*
X2210Y7350D01*
X2347Y7220D01*
X2347Y7280D01*
G37*
G36*
X2347Y7280D02*
X2347Y7220D01*
X2500Y7244D01*
X2347Y7280D01*
G37*
G36*
X2500Y7256D02*
X2347Y7280D01*
X2500Y7244D01*
X2500Y7256D01*
G37*
G36*
X2653Y7280D02*
X2500Y7256D01*
X2500Y7244D01*
X2653Y7280D01*
G37*
G36*
X2653Y7280D02*
X2500Y7244D01*
X2653Y7220D01*
X2653Y7280D01*
G37*
G36*
X2653Y7280D02*
X2653Y7220D01*
X2714Y7189D01*
X2653Y7280D01*
G37*
G36*
X2653Y7280D02*
X2714Y7189D01*
X2790Y7350D01*
X2653Y7280D01*
G37*
G36*
X2714Y7189D02*
X2900Y7460D01*
X2790Y7350D01*
X2714Y7189D01*
G37*
G36*
X2714Y7189D02*
X7638Y12112D01*
X2900Y7460D01*
X2714Y7189D01*
G37*
G36*
X2970Y7597D02*
X2900Y7460D01*
X7638Y12112D01*
X2970Y7597D01*
G37*
G36*
X7638Y12112D02*
X2994Y7750D01*
X2970Y7597D01*
X7638Y12112D01*
G37*
G36*
X2970Y7903D02*
X2994Y7750D01*
X7638Y12112D01*
X2970Y7903D01*
G37*
G36*
X2970Y7903D02*
X7638Y12112D01*
X2939Y7964D01*
X2970Y7903D01*
G37*
G36*
X2939Y7964D02*
X7638Y12112D01*
X7316Y12341D01*
X2939Y7964D01*
G37*
G36*
X7316Y12341D02*
X7638Y12112D01*
X7671Y12138D01*
X7316Y12341D01*
G37*
G36*
X7316Y12341D02*
X7671Y12138D01*
X7709Y12154D01*
X7316Y12341D01*
G37*
G36*
X7316Y12341D02*
X7709Y12154D01*
X7750Y12159D01*
X7316Y12341D01*
G37*
G36*
X7316Y12341D02*
X7750Y12159D01*
X14500Y12341D01*
X7316Y12341D01*
G37*
G36*
X14500Y12341D02*
X7750Y12159D01*
X14559Y12159D01*
X14500Y12341D01*
G37*
G36*
X14541Y12346D02*
X14500Y12341D01*
X14559Y12159D01*
X14541Y12346D01*
G37*
G36*
X14541Y12346D02*
X14559Y12159D01*
X14579Y12362D01*
X14541Y12346D01*
G37*
G36*
X14612Y12388D02*
X14579Y12362D01*
X14559Y12159D01*
X14612Y12388D01*
G37*
G36*
X14559Y12159D02*
X15513Y13112D01*
X14612Y12388D01*
X14559Y12159D01*
G37*
G36*
X15513Y13112D02*
X15816Y13591D01*
X14612Y12388D01*
X15513Y13112D01*
G37*
G36*
X15513Y13112D02*
X15546Y13138D01*
X15816Y13591D01*
X15513Y13112D01*
G37*
G36*
X15546Y13138D02*
X15584Y13154D01*
X15816Y13591D01*
X15546Y13138D01*
G37*
G36*
X15584Y13154D02*
X15625Y13159D01*
X15816Y13591D01*
X15584Y13154D01*
G37*
G36*
X15816Y13591D02*
X15625Y13159D01*
X16131Y13369D01*
X15816Y13591D01*
G37*
G36*
X15625Y13159D02*
X16131Y13159D01*
X16131Y13369D01*
X15625Y13159D01*
G37*
G36*
X16131Y13381D02*
X15816Y13591D01*
X16131Y13369D01*
X16131Y13381D01*
G37*
G36*
X16131Y13381D02*
X16131Y13369D01*
X16869Y13369D01*
X16131Y13381D01*
G37*
G36*
X16131Y13381D02*
X16869Y13369D01*
X16869Y13381D01*
X16131Y13381D01*
G37*
G36*
X16869Y13369D02*
X17341Y14434D01*
X16869Y13381D01*
X16869Y13369D01*
G37*
G36*
X17341Y14434D02*
X16869Y14119D01*
X16869Y13381D01*
X17341Y14434D01*
G37*
G36*
X17341Y14434D02*
X16869Y14131D01*
X16869Y14119D01*
X17341Y14434D01*
G37*
G36*
X16131Y14131D02*
X16869Y14119D01*
X16869Y14131D01*
X16131Y14131D01*
G37*
G36*
X16131Y14131D02*
X16131Y14119D01*
X16869Y14119D01*
X16131Y14131D01*
G37*
G36*
X16131Y14131D02*
X15816Y14341D01*
X16131Y14119D01*
X16131Y14131D01*
G37*
G36*
X15816Y14341D02*
X15750Y13909D01*
X16131Y14119D01*
X15816Y14341D01*
G37*
G36*
X15750Y13909D02*
X16131Y13909D01*
X16131Y14119D01*
X15750Y13909D01*
G37*
G36*
X15709Y13904D02*
X15750Y13909D01*
X15816Y14341D01*
X15709Y13904D01*
G37*
G36*
X15671Y13888D02*
X15709Y13904D01*
X15816Y14341D01*
X15671Y13888D01*
G37*
G36*
X15638Y13862D02*
X15671Y13888D01*
X15816Y14341D01*
X15638Y13862D01*
G37*
G36*
X14362Y12888D02*
X15638Y13862D01*
X15816Y14341D01*
X14362Y12888D01*
G37*
G36*
X14434Y12659D02*
X15638Y13862D01*
X14362Y12888D01*
X14434Y12659D01*
G37*
G36*
X14362Y12888D02*
X14329Y12862D01*
X14434Y12659D01*
X14362Y12888D01*
G37*
G36*
X14329Y12862D02*
X14291Y12846D01*
X14434Y12659D01*
X14329Y12862D01*
G37*
G36*
X14291Y12846D02*
X14250Y12841D01*
X14434Y12659D01*
X14291Y12846D01*
G37*
G36*
X14250Y12841D02*
X7250Y12659D01*
X14434Y12659D01*
X14250Y12841D01*
G37*
G36*
X6816Y12841D02*
X7250Y12659D01*
X14250Y12841D01*
X6816Y12841D01*
G37*
G36*
X6816Y12841D02*
X7209Y12654D01*
X7250Y12659D01*
X6816Y12841D01*
G37*
G36*
X6816Y12841D02*
X7171Y12638D01*
X7209Y12654D01*
X6816Y12841D01*
G37*
G36*
X6816Y12841D02*
X7138Y12612D01*
X7171Y12638D01*
X6816Y12841D01*
G37*
G36*
X2939Y8964D02*
X7138Y12612D01*
X6816Y12841D01*
X2939Y8964D01*
G37*
G36*
X7138Y12612D02*
X2939Y8964D01*
X2970Y8903D01*
X7138Y12612D01*
G37*
G36*
X2994Y8750D02*
X7138Y12612D01*
X2970Y8903D01*
X2994Y8750D01*
G37*
G36*
X7138Y12612D02*
X2994Y8750D01*
X2970Y8597D01*
X7138Y12612D01*
G37*
G36*
X2970Y8597D02*
X2900Y8460D01*
X7138Y12612D01*
X2970Y8597D01*
G37*
G36*
X2714Y8189D02*
X7138Y12612D01*
X2900Y8460D01*
X2714Y8189D01*
G37*
G36*
X2714Y8189D02*
X2900Y8460D01*
X2790Y8350D01*
X2714Y8189D01*
G37*
G36*
X2653Y8280D02*
X2714Y8189D01*
X2790Y8350D01*
X2653Y8280D01*
G37*
G36*
X2653Y8280D02*
X2653Y8220D01*
X2714Y8189D01*
X2653Y8280D01*
G37*
G36*
X2653Y8280D02*
X2500Y8244D01*
X2653Y8220D01*
X2653Y8280D01*
G37*
G36*
X2653Y8280D02*
X2500Y8256D01*
X2500Y8244D01*
X2653Y8280D01*
G37*
G36*
X2500Y8256D02*
X2347Y8280D01*
X2500Y8244D01*
X2500Y8256D01*
G37*
G36*
X2347Y8280D02*
X2347Y8220D01*
X2500Y8244D01*
X2347Y8280D01*
G37*
G36*
X2347Y8280D02*
X2210Y8350D01*
X2347Y8220D01*
X2347Y8280D01*
G37*
G36*
X2210Y8350D02*
X2210Y8150D01*
X2347Y8220D01*
X2210Y8350D01*
G37*
G36*
X2210Y8350D02*
X2100Y8460D01*
X2210Y8150D01*
X2210Y8350D01*
G37*
G36*
X2100Y8460D02*
X2100Y8040D01*
X2210Y8150D01*
X2100Y8460D01*
G37*
G36*
X2100Y8460D02*
X2030Y8597D01*
X2100Y8040D01*
X2100Y8460D01*
G37*
G36*
X2030Y8597D02*
X2030Y7903D01*
X2100Y8040D01*
X2030Y8597D01*
G37*
G36*
X15816Y14341D02*
X16131Y14131D01*
X16131Y14341D01*
X15816Y14341D01*
G37*
G36*
X16869Y14869D02*
X16869Y14131D01*
X17341Y14434D01*
X16869Y14869D01*
G37*
G36*
X16684Y15091D02*
X16869Y14869D01*
X17341Y14434D01*
X16684Y15091D01*
G37*
G36*
X16684Y15091D02*
X16131Y14869D01*
X16869Y14869D01*
X16684Y15091D01*
G37*
G36*
X14316Y15091D02*
X16131Y14869D01*
X16684Y15091D01*
X14316Y15091D01*
G37*
G36*
X16131Y14869D02*
X14316Y15091D01*
X15709Y14654D01*
X16131Y14869D01*
G37*
G36*
X14316Y15091D02*
X15671Y14638D01*
X15709Y14654D01*
X14316Y15091D01*
G37*
G36*
X14316Y15091D02*
X15638Y14612D01*
X15671Y14638D01*
X14316Y15091D01*
G37*
G36*
X15638Y14612D02*
X14316Y15091D01*
X14159Y14000D01*
X15638Y14612D01*
G37*
G36*
X14159Y14000D02*
X14316Y15091D01*
X14159Y14934D01*
X14159Y14000D01*
G37*
G36*
X15638Y14612D02*
X14159Y14000D01*
X14154Y13959D01*
X15638Y14612D01*
G37*
G36*
X14184Y13159D02*
X15638Y14612D01*
X14154Y13959D01*
X14184Y13159D01*
G37*
G36*
X14154Y13959D02*
X14138Y13921D01*
X14184Y13159D01*
X14154Y13959D01*
G37*
G36*
X14138Y13921D02*
X14112Y13888D01*
X14184Y13159D01*
X14138Y13921D01*
G37*
G36*
X14112Y13888D02*
X13385Y13160D01*
X14184Y13159D01*
X14112Y13888D01*
G37*
G36*
X14184Y13159D02*
X13385Y13160D01*
X13386Y13159D01*
X14184Y13159D01*
G37*
G36*
X15709Y14654D02*
X15750Y14659D01*
X16131Y14869D01*
X15709Y14654D01*
G37*
G36*
X15750Y14659D02*
X16131Y14659D01*
X16131Y14869D01*
X15750Y14659D01*
G37*
G36*
X17341Y14434D02*
X16869Y13369D01*
X16869Y12631D01*
X17341Y14434D01*
G37*
G36*
X15816Y13591D02*
X16131Y13381D01*
X16131Y13591D01*
X15816Y13591D01*
G37*
G36*
X2100Y7040D02*
X1494Y7250D01*
X1470Y7097D01*
X2100Y7040D01*
G37*
G36*
X2100Y7040D02*
X1470Y7097D01*
X2030Y6903D01*
X2100Y7040D01*
G37*
G36*
X1470Y7097D02*
X1400Y6960D01*
X2030Y6903D01*
X1470Y7097D01*
G37*
G36*
X1400Y6960D02*
X2006Y6750D01*
X2030Y6903D01*
X1400Y6960D01*
G37*
G36*
X2900Y11040D02*
X2654Y11791D01*
X2659Y11750D01*
X2900Y11040D01*
G37*
G36*
X2659Y11750D02*
X2790Y11150D01*
X2900Y11040D01*
X2659Y11750D01*
G37*
G36*
X2659Y11750D02*
X2659Y11217D01*
X2790Y11150D01*
X2659Y11750D01*
G37*
G36*
X6638Y13112D02*
X4651Y14035D01*
X4500Y14011D01*
X6638Y13112D01*
G37*
G36*
X6638Y13112D02*
X5349Y14035D01*
X4651Y14035D01*
X6638Y13112D01*
G37*
G36*
X4787Y14104D02*
X4651Y14035D01*
X5349Y14035D01*
X4787Y14104D01*
G37*
G36*
X5213Y14104D02*
X4787Y14104D01*
X5349Y14035D01*
X5213Y14104D01*
G37*
G36*
X4896Y14213D02*
X4787Y14104D01*
X5213Y14104D01*
X4896Y14213D01*
G37*
G36*
X5104Y14213D02*
X4896Y14213D01*
X5213Y14104D01*
X5104Y14213D01*
G37*
G36*
X5104Y14213D02*
X5035Y14349D01*
X4896Y14213D01*
X5104Y14213D01*
G37*
G36*
X5035Y14349D02*
X4965Y14349D01*
X4896Y14213D01*
X5035Y14349D01*
G37*
G36*
X5035Y14349D02*
X5011Y14500D01*
X4965Y14349D01*
X5035Y14349D01*
G37*
G36*
X5011Y14500D02*
X4989Y14500D01*
X4965Y14349D01*
X5011Y14500D01*
G37*
G36*
X4989Y14500D02*
X5011Y14500D01*
X5035Y14651D01*
X4989Y14500D01*
G37*
G36*
X4965Y14651D02*
X4989Y14500D01*
X5035Y14651D01*
X4965Y14651D01*
G37*
G36*
X4965Y14651D02*
X5035Y14651D01*
X5104Y14787D01*
X4965Y14651D01*
G37*
G36*
X4896Y14787D02*
X4965Y14651D01*
X5104Y14787D01*
X4896Y14787D01*
G37*
G36*
X4787Y14896D02*
X4896Y14787D01*
X5104Y14787D01*
X4787Y14896D01*
G37*
G36*
X5213Y14896D02*
X4787Y14896D01*
X5104Y14787D01*
X5213Y14896D01*
G37*
G36*
X4787Y14896D02*
X5213Y14896D01*
X5349Y14965D01*
X4787Y14896D01*
G37*
G36*
X4651Y14965D02*
X4787Y14896D01*
X5349Y14965D01*
X4651Y14965D01*
G37*
G36*
X4651Y14965D02*
X5349Y14965D01*
X5500Y14989D01*
X4651Y14965D01*
G37*
G36*
X4500Y14989D02*
X4651Y14965D01*
X5500Y14989D01*
X4500Y14989D01*
G37*
G36*
X5500Y14011D02*
X5349Y14035D01*
X6638Y13112D01*
X5500Y14011D01*
G37*
G36*
X6638Y13112D02*
X5651Y14035D01*
X5500Y14011D01*
X6638Y13112D01*
G37*
G36*
X2500Y20011D02*
X2349Y20035D01*
X1409Y19184D01*
X2500Y20011D01*
G37*
G36*
X2349Y20035D02*
X2290Y20065D01*
X1409Y19184D01*
X2349Y20035D01*
G37*
G36*
X7349Y14035D02*
X7213Y14104D01*
X6750Y13159D01*
X7349Y14035D01*
G37*
G36*
X7500Y14011D02*
X7349Y14035D01*
X6750Y13159D01*
X7500Y14011D01*
G37*
G36*
X6750Y13159D02*
X7651Y14035D01*
X7500Y14011D01*
X6750Y13159D01*
G37*
G36*
X9500Y14011D02*
X9349Y14035D01*
X10614Y13159D01*
X9500Y14011D01*
G37*
G36*
X9651Y14035D02*
X9500Y14011D01*
X10614Y13159D01*
X9651Y14035D01*
G37*
G36*
X10614Y13159D02*
X10615Y13160D01*
X9651Y14035D01*
X10614Y13159D01*
G37*
G36*
X9651Y14035D02*
X10615Y13160D01*
X9710Y14065D01*
X9651Y14035D01*
G37*
G36*
X11349Y14965D02*
X10651Y14965D01*
X10787Y14896D01*
X11349Y14965D01*
G37*
G36*
X10787Y14896D02*
X11213Y14896D01*
X11349Y14965D01*
X10787Y14896D01*
G37*
G36*
X11213Y14896D02*
X10787Y14896D01*
X11104Y14787D01*
X11213Y14896D01*
G37*
G36*
X10787Y14896D02*
X10896Y14787D01*
X11104Y14787D01*
X10787Y14896D01*
G37*
G36*
X10896Y14787D02*
X10965Y14651D01*
X11104Y14787D01*
X10896Y14787D01*
G37*
G36*
X10965Y14651D02*
X11035Y14651D01*
X11104Y14787D01*
X10965Y14651D01*
G37*
G36*
X10965Y14651D02*
X10989Y14500D01*
X11035Y14651D01*
X10965Y14651D01*
G37*
G36*
X10989Y14500D02*
X11011Y14500D01*
X11035Y14651D01*
X10989Y14500D01*
G37*
G36*
X11011Y14500D02*
X10989Y14500D01*
X10965Y14349D01*
X11011Y14500D01*
G37*
G36*
X11035Y14349D02*
X11011Y14500D01*
X10965Y14349D01*
X11035Y14349D01*
G37*
G36*
X11035Y14349D02*
X10965Y14349D01*
X10935Y14290D01*
X11035Y14349D01*
G37*
G36*
X11104Y14213D02*
X11035Y14349D01*
X10935Y14290D01*
X11104Y14213D01*
G37*
G36*
X11104Y14213D02*
X10935Y14290D01*
X11213Y14104D01*
X11104Y14213D01*
G37*
G36*
X10935Y14290D02*
X11566Y13659D01*
X11213Y14104D01*
X10935Y14290D01*
G37*
G36*
X11566Y13659D02*
X11349Y14035D01*
X11213Y14104D01*
X11566Y13659D01*
G37*
G36*
X11500Y14011D02*
X11349Y14035D01*
X11566Y13659D01*
X11500Y14011D01*
G37*
G36*
X11500Y14011D02*
X11566Y13659D01*
X11651Y14035D01*
X11500Y14011D01*
G37*
G36*
X11566Y13659D02*
X11710Y14065D01*
X11651Y14035D01*
X11566Y13659D01*
G37*
G36*
X12115Y13660D02*
X11710Y14065D01*
X11566Y13659D01*
X12115Y13660D01*
G37*
G36*
X12115Y13660D02*
X11566Y13659D01*
X12114Y13659D01*
X12115Y13660D01*
G37*
G36*
X12500Y14989D02*
X13096Y15791D01*
X12349Y14965D01*
X12500Y14989D01*
G37*
G36*
X12500Y14989D02*
X13091Y15750D01*
X13096Y15791D01*
X12500Y14989D01*
G37*
G36*
X13091Y15750D02*
X12500Y14989D01*
X12651Y14965D01*
X13091Y15750D01*
G37*
G36*
X12651Y14965D02*
X12787Y14896D01*
X13091Y15750D01*
X12651Y14965D01*
G37*
G36*
X13091Y15750D02*
X12787Y14896D01*
X13091Y14816D01*
X13091Y15750D01*
G37*
G36*
X13091Y14816D02*
X12787Y14896D01*
X12896Y14787D01*
X13091Y14816D01*
G37*
G36*
X12896Y14787D02*
X12952Y14677D01*
X13091Y14816D01*
X12896Y14787D01*
G37*
G36*
X12829Y17756D02*
X12750Y17744D01*
X13756Y17000D01*
X12829Y17756D01*
G37*
G36*
X12829Y17756D02*
X13756Y17000D01*
X13780Y17153D01*
X12829Y17756D01*
G37*
G36*
X12901Y17792D02*
X12829Y17756D01*
X13780Y17153D01*
X12901Y17792D01*
G37*
G36*
X13780Y17153D02*
X12949Y17841D01*
X12901Y17792D01*
X13780Y17153D01*
G37*
G36*
X13850Y17290D02*
X12949Y17841D01*
X13780Y17153D01*
X13850Y17290D01*
G37*
G36*
X13750Y17841D02*
X12949Y17841D01*
X13850Y17290D01*
X13750Y17841D01*
G37*
G36*
X13750Y17841D02*
X13850Y17290D01*
X13960Y17400D01*
X13750Y17841D01*
G37*
G36*
X13791Y17846D02*
X13750Y17841D01*
X13960Y17400D01*
X13791Y17846D01*
G37*
G36*
X13960Y17400D02*
X13829Y17862D01*
X13791Y17846D01*
X13960Y17400D01*
G37*
G36*
X14097Y17470D02*
X13829Y17862D01*
X13960Y17400D01*
X14097Y17470D01*
G37*
G36*
X13862Y17888D02*
X13829Y17862D01*
X14097Y17470D01*
X13862Y17888D01*
G37*
G36*
X13862Y17888D02*
X14097Y17470D01*
X14250Y17494D01*
X13862Y17888D01*
G37*
G36*
X14403Y17470D02*
X13862Y17888D01*
X14250Y17494D01*
X14403Y17470D01*
G37*
G36*
X15931Y17982D02*
X13862Y17888D01*
X14403Y17470D01*
X15931Y17982D01*
G37*
G36*
X15931Y17982D02*
X14403Y17470D01*
X15875Y17872D01*
X15931Y17982D01*
G37*
G36*
X15875Y17872D02*
X14403Y17470D01*
X14540Y17400D01*
X15875Y17872D01*
G37*
G36*
X15856Y17750D02*
X15875Y17872D01*
X14540Y17400D01*
X15856Y17750D01*
G37*
G36*
X14540Y17400D02*
X14650Y17290D01*
X15856Y17750D01*
X14540Y17400D01*
G37*
G36*
X15856Y17750D02*
X14650Y17290D01*
X15875Y17628D01*
X15856Y17750D01*
G37*
G36*
X15875Y17628D02*
X14650Y17290D01*
X14720Y17153D01*
X15875Y17628D01*
G37*
G36*
X15875Y17628D02*
X14720Y17153D01*
X15856Y17144D01*
X15875Y17628D01*
G37*
G36*
X14720Y17153D02*
X14744Y17000D01*
X15856Y17144D01*
X14720Y17153D01*
G37*
G36*
X15856Y17144D02*
X14744Y17000D01*
X14720Y16847D01*
X15856Y17144D01*
G37*
G36*
X15856Y17144D02*
X14720Y16847D01*
X15856Y16356D01*
X15856Y17144D01*
G37*
G36*
X14720Y16847D02*
X14650Y16710D01*
X15856Y16356D01*
X14720Y16847D01*
G37*
G36*
X14650Y16710D02*
X14540Y16600D01*
X15856Y16356D01*
X14650Y16710D01*
G37*
G36*
X14540Y16600D02*
X14403Y16530D01*
X15856Y16356D01*
X14540Y16600D01*
G37*
G36*
X15875Y17628D02*
X15856Y17144D01*
X15931Y17518D01*
X15875Y17628D01*
G37*
G36*
X15931Y17518D02*
X15856Y17144D01*
X16018Y17431D01*
X15931Y17518D01*
G37*
G36*
X16018Y17431D02*
X15856Y17144D01*
X16128Y17375D01*
X16018Y17431D01*
G37*
G36*
X16128Y17375D02*
X15856Y17144D01*
X16250Y17356D01*
X16128Y17375D01*
G37*
G36*
X16250Y17356D02*
X15856Y17144D01*
X16644Y17144D01*
X16250Y17356D01*
G37*
G36*
X16372Y17375D02*
X16250Y17356D01*
X16644Y17144D01*
X16372Y17375D01*
G37*
G36*
X16482Y17431D02*
X16372Y17375D01*
X16644Y17144D01*
X16482Y17431D01*
G37*
G36*
X16569Y17518D02*
X16482Y17431D01*
X16644Y17144D01*
X16569Y17518D01*
G37*
G36*
X16625Y17628D02*
X16569Y17518D01*
X16644Y17144D01*
X16625Y17628D01*
G37*
G36*
X16644Y17144D02*
X18506Y17506D01*
X16625Y17628D01*
X16644Y17144D01*
G37*
G36*
X18506Y17506D02*
X16644Y17750D01*
X16625Y17628D01*
X18506Y17506D01*
G37*
G36*
X18506Y17506D02*
X16625Y17872D01*
X16644Y17750D01*
X18506Y17506D01*
G37*
G36*
X18506Y17506D02*
X18506Y18494D01*
X16625Y17872D01*
X18506Y17506D01*
G37*
G36*
X18506Y18494D02*
X16569Y17982D01*
X16625Y17872D01*
X18506Y18494D01*
G37*
G36*
X18506Y18494D02*
X16482Y18069D01*
X16569Y17982D01*
X18506Y18494D01*
G37*
G36*
X18250Y20091D02*
X16482Y18069D01*
X18506Y18494D01*
X18250Y20091D01*
G37*
G36*
X18600Y19710D02*
X18250Y20091D01*
X18506Y18494D01*
X18600Y19710D01*
G37*
G36*
X18600Y19710D02*
X18506Y18494D01*
X18710Y19600D01*
X18600Y19710D01*
G37*
G36*
X18710Y19600D02*
X18506Y18494D01*
X18847Y19530D01*
X18710Y19600D01*
G37*
G36*
X18847Y19530D02*
X18506Y18494D01*
X19000Y19506D01*
X18847Y19530D01*
G37*
G36*
X19000Y19506D02*
X18506Y18494D01*
X19494Y18494D01*
X19000Y19506D01*
G37*
G36*
X19153Y19530D02*
X19000Y19506D01*
X19494Y18494D01*
X19153Y19530D01*
G37*
G36*
X19494Y18494D02*
X19290Y19600D01*
X19153Y19530D01*
X19494Y18494D01*
G37*
G36*
X19506Y18494D02*
X19290Y19600D01*
X19494Y18494D01*
X19506Y18494D01*
G37*
G36*
X19494Y18494D02*
X19506Y17506D01*
X19506Y18494D01*
X19494Y18494D01*
G37*
G36*
X19494Y18494D02*
X19494Y17506D01*
X19506Y17506D01*
X19494Y18494D01*
G37*
G36*
X19290Y19600D02*
X19506Y18494D01*
X19710Y19600D01*
X19290Y19600D01*
G37*
G36*
X19847Y19530D02*
X19710Y19600D01*
X19506Y18494D01*
X19847Y19530D01*
G37*
G36*
X20000Y19506D02*
X19847Y19530D01*
X19506Y18494D01*
X20000Y19506D01*
G37*
G36*
X20000Y19506D02*
X19506Y18494D01*
X20494Y18494D01*
X20000Y19506D01*
G37*
G36*
X20153Y19530D02*
X20000Y19506D01*
X20494Y18494D01*
X20153Y19530D01*
G37*
G36*
X20290Y19600D02*
X20153Y19530D01*
X20494Y18494D01*
X20290Y19600D01*
G37*
G36*
X20400Y19710D02*
X20290Y19600D01*
X20494Y18494D01*
X20400Y19710D01*
G37*
G36*
X20470Y19847D02*
X20400Y19710D01*
X20494Y18494D01*
X20470Y19847D01*
G37*
G36*
X20494Y20000D02*
X20470Y19847D01*
X20494Y18494D01*
X20494Y20000D01*
G37*
G36*
X20755Y23255D02*
X20494Y20000D01*
X20494Y18494D01*
X20755Y23255D01*
G37*
G36*
X20494Y17506D02*
X20755Y23255D01*
X20494Y18494D01*
X20494Y17506D01*
G37*
G36*
X20494Y17000D02*
X20755Y23255D01*
X20494Y17506D01*
X20494Y17000D01*
G37*
G36*
X20470Y17153D02*
X20494Y17000D01*
X20494Y17506D01*
X20470Y17153D01*
G37*
G36*
X20400Y17290D02*
X20470Y17153D01*
X20494Y17506D01*
X20400Y17290D01*
G37*
G36*
X20290Y17400D02*
X20400Y17290D01*
X20494Y17506D01*
X20290Y17400D01*
G37*
G36*
X20153Y17470D02*
X20290Y17400D01*
X20494Y17506D01*
X20153Y17470D01*
G37*
G36*
X20000Y17494D02*
X20153Y17470D01*
X20494Y17506D01*
X20000Y17494D01*
G37*
G36*
X19506Y17506D02*
X20000Y17494D01*
X20494Y17506D01*
X19506Y17506D01*
G37*
G36*
X19506Y17506D02*
X19847Y17470D01*
X20000Y17494D01*
X19506Y17506D01*
G37*
G36*
X19506Y17506D02*
X19710Y17400D01*
X19847Y17470D01*
X19506Y17506D01*
G37*
G36*
X19710Y17400D02*
X19506Y17506D01*
X19600Y17290D01*
X19710Y17400D01*
G37*
G36*
X20755Y23255D02*
X20494Y17000D01*
X20755Y245D01*
X20755Y23255D01*
G37*
G36*
X20755Y23255D02*
X20494Y21000D01*
X20494Y20000D01*
X20755Y23255D01*
G37*
G36*
X20470Y20847D02*
X20494Y20000D01*
X20494Y21000D01*
X20470Y20847D01*
G37*
G36*
X20470Y20847D02*
X20470Y20153D01*
X20494Y20000D01*
X20470Y20847D01*
G37*
G36*
X20470Y20847D02*
X20400Y20290D01*
X20470Y20153D01*
X20470Y20847D01*
G37*
G36*
X20470Y20847D02*
X20400Y20710D01*
X20400Y20290D01*
X20470Y20847D01*
G37*
G36*
X20400Y20710D02*
X20290Y20400D01*
X20400Y20290D01*
X20400Y20710D01*
G37*
G36*
X20400Y20710D02*
X20290Y20600D01*
X20290Y20400D01*
X20400Y20710D01*
G37*
G36*
X20153Y20530D02*
X20290Y20400D01*
X20290Y20600D01*
X20153Y20530D01*
G37*
G36*
X20153Y20530D02*
X20153Y20470D01*
X20290Y20400D01*
X20153Y20530D01*
G37*
G36*
X20153Y20530D02*
X20000Y20494D01*
X20153Y20470D01*
X20153Y20530D01*
G37*
G36*
X20153Y20530D02*
X20000Y20506D01*
X20000Y20494D01*
X20153Y20530D01*
G37*
G36*
X20000Y20506D02*
X19847Y20530D01*
X20000Y20494D01*
X20000Y20506D01*
G37*
G36*
X19847Y20530D02*
X19847Y20470D01*
X20000Y20494D01*
X19847Y20530D01*
G37*
G36*
X19847Y20530D02*
X19710Y20600D01*
X19847Y20470D01*
X19847Y20530D01*
G37*
G36*
X19710Y20600D02*
X19710Y20400D01*
X19847Y20470D01*
X19710Y20600D01*
G37*
G36*
X19600Y20290D02*
X19710Y20400D01*
X19710Y20600D01*
X19600Y20290D01*
G37*
G36*
X19400Y20710D02*
X19600Y20290D01*
X19710Y20600D01*
X19400Y20710D01*
G37*
G36*
X19600Y20710D02*
X19400Y20710D01*
X19710Y20600D01*
X19600Y20710D01*
G37*
G36*
X19470Y20847D02*
X19400Y20710D01*
X19600Y20710D01*
X19470Y20847D01*
G37*
G36*
X19530Y20847D02*
X19470Y20847D01*
X19600Y20710D01*
X19530Y20847D01*
G37*
G36*
X19494Y21000D02*
X19470Y20847D01*
X19530Y20847D01*
X19494Y21000D01*
G37*
G36*
X19506Y21000D02*
X19494Y21000D01*
X19530Y20847D01*
X19506Y21000D01*
G37*
G36*
X19470Y21153D02*
X19494Y21000D01*
X19506Y21000D01*
X19470Y21153D01*
G37*
G36*
X19530Y21153D02*
X19470Y21153D01*
X19506Y21000D01*
X19530Y21153D01*
G37*
G36*
X19470Y21153D02*
X19530Y21153D01*
X19600Y21290D01*
X19470Y21153D01*
G37*
G36*
X19400Y21290D02*
X19470Y21153D01*
X19600Y21290D01*
X19400Y21290D01*
G37*
G36*
X19600Y21290D02*
X19710Y21400D01*
X19400Y21290D01*
X19600Y21290D01*
G37*
G36*
X19710Y21400D02*
X19290Y21400D01*
X19400Y21290D01*
X19710Y21400D01*
G37*
G36*
X19710Y21400D02*
X19153Y21470D01*
X19290Y21400D01*
X19710Y21400D01*
G37*
G36*
X19153Y21470D02*
X19710Y21400D01*
X19847Y21470D01*
X19153Y21470D01*
G37*
G36*
X19847Y21470D02*
X20755Y23255D01*
X19153Y21470D01*
X19847Y21470D01*
G37*
G36*
X19847Y21470D02*
X20000Y21494D01*
X20755Y23255D01*
X19847Y21470D01*
G37*
G36*
X20000Y21494D02*
X20153Y21470D01*
X20755Y23255D01*
X20000Y21494D01*
G37*
G36*
X20153Y21470D02*
X20290Y21400D01*
X20755Y23255D01*
X20153Y21470D01*
G37*
G36*
X20290Y21400D02*
X20400Y21290D01*
X20755Y23255D01*
X20290Y21400D01*
G37*
G36*
X20400Y21290D02*
X20470Y21153D01*
X20755Y23255D01*
X20400Y21290D01*
G37*
G36*
X20470Y21153D02*
X20494Y21000D01*
X20755Y23255D01*
X20470Y21153D01*
G37*
G36*
X19600Y20290D02*
X19400Y20710D01*
X19400Y20290D01*
X19600Y20290D01*
G37*
G36*
X19400Y20710D02*
X19290Y20400D01*
X19400Y20290D01*
X19400Y20710D01*
G37*
G36*
X19400Y20710D02*
X19290Y20600D01*
X19290Y20400D01*
X19400Y20710D01*
G37*
G36*
X19153Y20530D02*
X19290Y20400D01*
X19290Y20600D01*
X19153Y20530D01*
G37*
G36*
X19153Y20530D02*
X19153Y20470D01*
X19290Y20400D01*
X19153Y20530D01*
G37*
G36*
X19153Y20530D02*
X19000Y20494D01*
X19153Y20470D01*
X19153Y20530D01*
G37*
G36*
X19153Y20530D02*
X19000Y20506D01*
X19000Y20494D01*
X19153Y20530D01*
G37*
G36*
X19000Y20506D02*
X18847Y20530D01*
X19000Y20494D01*
X19000Y20506D01*
G37*
G36*
X18847Y20530D02*
X18847Y20470D01*
X19000Y20494D01*
X18847Y20530D01*
G37*
G36*
X18847Y20530D02*
X18786Y20561D01*
X18847Y20470D01*
X18847Y20530D01*
G37*
G36*
X18786Y20561D02*
X18710Y20400D01*
X18847Y20470D01*
X18786Y20561D01*
G37*
G36*
X18600Y20290D02*
X18710Y20400D01*
X18786Y20561D01*
X18600Y20290D01*
G37*
G36*
X18362Y20138D02*
X18600Y20290D01*
X18786Y20561D01*
X18362Y20138D01*
G37*
G36*
X18362Y20138D02*
X18530Y20153D01*
X18600Y20290D01*
X18362Y20138D01*
G37*
G36*
X18362Y20138D02*
X18506Y20000D01*
X18530Y20153D01*
X18362Y20138D01*
G37*
G36*
X18362Y20138D02*
X18329Y20112D01*
X18506Y20000D01*
X18362Y20138D01*
G37*
G36*
X18329Y20112D02*
X18291Y20096D01*
X18506Y20000D01*
X18329Y20112D01*
G37*
G36*
X18506Y20000D02*
X18291Y20096D01*
X18530Y19847D01*
X18506Y20000D01*
G37*
G36*
X18530Y19847D02*
X18291Y20096D01*
X18250Y20091D01*
X18530Y19847D01*
G37*
G36*
X18600Y19710D02*
X18530Y19847D01*
X18250Y20091D01*
X18600Y19710D01*
G37*
G36*
X19600Y20290D02*
X19400Y20290D01*
X19470Y20153D01*
X19600Y20290D01*
G37*
G36*
X19470Y20153D02*
X19530Y20153D01*
X19600Y20290D01*
X19470Y20153D01*
G37*
G36*
X19530Y20153D02*
X19470Y20153D01*
X19506Y20000D01*
X19530Y20153D01*
G37*
G36*
X19470Y20153D02*
X19494Y20000D01*
X19506Y20000D01*
X19470Y20153D01*
G37*
G36*
X19506Y20000D02*
X19494Y20000D01*
X19530Y19847D01*
X19506Y20000D01*
G37*
G36*
X19494Y20000D02*
X19470Y19847D01*
X19530Y19847D01*
X19494Y20000D01*
G37*
G36*
X19530Y19847D02*
X19470Y19847D01*
X19600Y19710D01*
X19530Y19847D01*
G37*
G36*
X19470Y19847D02*
X19400Y19710D01*
X19600Y19710D01*
X19470Y19847D01*
G37*
G36*
X19600Y19710D02*
X19400Y19710D01*
X19710Y19600D01*
X19600Y19710D01*
G37*
G36*
X19400Y19710D02*
X19290Y19600D01*
X19710Y19600D01*
X19400Y19710D01*
G37*
G36*
X16482Y18069D02*
X18250Y20091D01*
X16066Y20091D01*
X16482Y18069D01*
G37*
G36*
X16066Y20091D02*
X16372Y18125D01*
X16482Y18069D01*
X16066Y20091D01*
G37*
G36*
X16066Y20091D02*
X16250Y18144D01*
X16372Y18125D01*
X16066Y20091D01*
G37*
G36*
X16128Y18125D02*
X16250Y18144D01*
X16066Y20091D01*
X16128Y18125D01*
G37*
G36*
X16018Y18069D02*
X16128Y18125D01*
X16066Y20091D01*
X16018Y18069D01*
G37*
G36*
X15931Y17982D02*
X16018Y18069D01*
X16066Y20091D01*
X15931Y17982D01*
G37*
G36*
X13862Y17888D02*
X15931Y17982D01*
X16066Y20091D01*
X13862Y17888D01*
G37*
G36*
X20470Y13153D02*
X20494Y13000D01*
X20494Y13506D01*
X20470Y13153D01*
G37*
G36*
X20400Y13290D02*
X20470Y13153D01*
X20494Y13506D01*
X20400Y13290D01*
G37*
G36*
X20290Y13400D02*
X20400Y13290D01*
X20494Y13506D01*
X20290Y13400D01*
G37*
G36*
X20153Y13470D02*
X20290Y13400D01*
X20494Y13506D01*
X20153Y13470D01*
G37*
G36*
X20000Y13494D02*
X20153Y13470D01*
X20494Y13506D01*
X20000Y13494D01*
G37*
G36*
X19506Y13506D02*
X20000Y13494D01*
X20494Y13506D01*
X19506Y13506D01*
G37*
G36*
X19506Y13506D02*
X19847Y13470D01*
X20000Y13494D01*
X19506Y13506D01*
G37*
G36*
X19506Y13506D02*
X19710Y13400D01*
X19847Y13470D01*
X19506Y13506D01*
G37*
G36*
X19710Y13400D02*
X19506Y13506D01*
X19600Y13290D01*
X19710Y13400D01*
G37*
G36*
X18409Y10316D02*
X18506Y12000D01*
X18409Y15250D01*
X18409Y10316D01*
G37*
G36*
X18409Y10316D02*
X18530Y11847D01*
X18506Y12000D01*
X18409Y10316D01*
G37*
G36*
X18530Y11847D02*
X18409Y10316D01*
X18600Y11710D01*
X18530Y11847D01*
G37*
G36*
X18600Y11710D02*
X18409Y10316D01*
X18710Y11600D01*
X18600Y11710D01*
G37*
G36*
X18710Y11600D02*
X18409Y10316D01*
X18847Y11530D01*
X18710Y11600D01*
G37*
G36*
X18847Y11530D02*
X18409Y10316D01*
X19000Y11506D01*
X18847Y11530D01*
G37*
G36*
X19530Y10653D02*
X19000Y11506D01*
X18409Y10316D01*
X19530Y10653D01*
G37*
G36*
X19530Y10653D02*
X18409Y10316D01*
X19506Y10500D01*
X19530Y10653D01*
G37*
G36*
X19506Y10500D02*
X18409Y10316D01*
X19530Y10347D01*
X19506Y10500D01*
G37*
G36*
X18409Y10316D02*
X19506Y9994D01*
X19530Y10347D01*
X18409Y10316D01*
G37*
G36*
X19530Y10347D02*
X19506Y9994D01*
X19600Y10210D01*
X19530Y10347D01*
G37*
G36*
X19600Y10210D02*
X19506Y9994D01*
X19710Y10100D01*
X19600Y10210D01*
G37*
G36*
X19710Y10100D02*
X19506Y9994D01*
X19847Y10030D01*
X19710Y10100D01*
G37*
G36*
X19847Y10030D02*
X19506Y9994D01*
X20000Y10006D01*
X19847Y10030D01*
G37*
G36*
X20000Y10006D02*
X19506Y9994D01*
X20494Y9994D01*
X20000Y10006D01*
G37*
G36*
X20153Y10030D02*
X20000Y10006D01*
X20494Y9994D01*
X20153Y10030D01*
G37*
G36*
X20290Y10100D02*
X20153Y10030D01*
X20494Y9994D01*
X20290Y10100D01*
G37*
G36*
X20400Y10210D02*
X20290Y10100D01*
X20494Y9994D01*
X20400Y10210D01*
G37*
G36*
X20470Y10347D02*
X20400Y10210D01*
X20494Y9994D01*
X20470Y10347D01*
G37*
G36*
X20494Y10500D02*
X20470Y10347D01*
X20494Y9994D01*
X20494Y10500D01*
G37*
G36*
X19506Y9994D02*
X18409Y10316D01*
X19505Y9220D01*
X19506Y9994D01*
G37*
G36*
X19505Y9220D02*
X19506Y9221D01*
X19506Y9994D01*
X19505Y9220D01*
G37*
G36*
X19000Y11506D02*
X19530Y10653D01*
X19600Y10790D01*
X19000Y11506D01*
G37*
G36*
X19153Y11530D02*
X19000Y11506D01*
X19600Y10790D01*
X19153Y11530D01*
G37*
G36*
X19710Y10900D02*
X19153Y11530D01*
X19600Y10790D01*
X19710Y10900D01*
G37*
G36*
X19290Y11600D02*
X19153Y11530D01*
X19710Y10900D01*
X19290Y11600D01*
G37*
G36*
X20470Y8653D02*
X20494Y8500D01*
X20494Y9006D01*
X20470Y8653D01*
G37*
G36*
X20400Y8790D02*
X20470Y8653D01*
X20494Y9006D01*
X20400Y8790D01*
G37*
G36*
X20290Y8900D02*
X20400Y8790D01*
X20494Y9006D01*
X20290Y8900D01*
G37*
G36*
X20153Y8970D02*
X20290Y8900D01*
X20494Y9006D01*
X20153Y8970D01*
G37*
G36*
X20000Y8994D02*
X20153Y8970D01*
X20494Y9006D01*
X20000Y8994D01*
G37*
G36*
X19721Y9006D02*
X20000Y8994D01*
X20494Y9006D01*
X19721Y9006D01*
G37*
G36*
X19721Y9006D02*
X19847Y8970D01*
X20000Y8994D01*
X19721Y9006D01*
G37*
G36*
X19721Y9006D02*
X19786Y8939D01*
X19847Y8970D01*
X19721Y9006D01*
G37*
G36*
X19721Y9006D02*
X19720Y9005D01*
X19786Y8939D01*
X19721Y9006D01*
G37*
G36*
X20470Y8347D02*
X20494Y7500D01*
X20494Y8500D01*
X20470Y8347D01*
G37*
G36*
X20470Y8347D02*
X20470Y7653D01*
X20494Y7500D01*
X20470Y8347D01*
G37*
G36*
X20470Y8347D02*
X20400Y7790D01*
X20470Y7653D01*
X20470Y8347D01*
G37*
G36*
X20470Y8347D02*
X20400Y8210D01*
X20400Y7790D01*
X20470Y8347D01*
G37*
G36*
X20400Y8210D02*
X20290Y7900D01*
X20400Y7790D01*
X20400Y8210D01*
G37*
G36*
X20400Y8210D02*
X20290Y8100D01*
X20290Y7900D01*
X20400Y8210D01*
G37*
G36*
X20153Y8030D02*
X20290Y7900D01*
X20290Y8100D01*
X20153Y8030D01*
G37*
G36*
X20153Y8030D02*
X20153Y7970D01*
X20290Y7900D01*
X20153Y8030D01*
G37*
G36*
X20153Y8030D02*
X20000Y7994D01*
X20153Y7970D01*
X20153Y8030D01*
G37*
G36*
X20153Y8030D02*
X20000Y8006D01*
X20000Y7994D01*
X20153Y8030D01*
G37*
G36*
X20000Y8006D02*
X19847Y8030D01*
X20000Y7994D01*
X20000Y8006D01*
G37*
G36*
X19847Y8030D02*
X19847Y7970D01*
X20000Y7994D01*
X19847Y8030D01*
G37*
G36*
X19786Y7939D02*
X19847Y7970D01*
X19847Y8030D01*
X19786Y7939D01*
G37*
G36*
X19710Y8100D02*
X19786Y7939D01*
X19847Y8030D01*
X19710Y8100D01*
G37*
G36*
X19786Y7939D02*
X19710Y8100D01*
X19600Y8210D01*
X19786Y7939D01*
G37*
G36*
X19600Y8210D02*
X19409Y8316D01*
X19786Y7939D01*
X19600Y8210D01*
G37*
G36*
X19530Y8347D02*
X19409Y8316D01*
X19600Y8210D01*
X19530Y8347D01*
G37*
G36*
X19506Y8500D02*
X19409Y8316D01*
X19530Y8347D01*
X19506Y8500D01*
G37*
G36*
X19409Y8750D02*
X19409Y8316D01*
X19506Y8500D01*
X19409Y8750D01*
G37*
G36*
X19409Y8750D02*
X19506Y8500D01*
X19530Y8653D01*
X19409Y8750D01*
G37*
G36*
X19409Y8750D02*
X19530Y8653D01*
X19561Y8714D01*
X19409Y8750D01*
G37*
G36*
X19561Y8714D02*
X19404Y8791D01*
X19409Y8750D01*
X19561Y8714D01*
G37*
G36*
X19388Y8829D02*
X19404Y8791D01*
X19561Y8714D01*
X19388Y8829D01*
G37*
G36*
X19388Y8829D02*
X19561Y8714D01*
X19362Y8862D01*
X19388Y8829D01*
G37*
G36*
X19362Y8862D02*
X19561Y8714D01*
X18160Y10115D01*
X19362Y8862D01*
G37*
G36*
X19362Y8862D02*
X18160Y10115D01*
X18159Y10066D01*
X19362Y8862D01*
G37*
G36*
X18159Y10114D02*
X18159Y10066D01*
X18160Y10115D01*
X18159Y10114D01*
G37*
G36*
X20470Y7347D02*
X20494Y6500D01*
X20494Y7500D01*
X20470Y7347D01*
G37*
G36*
X20470Y7347D02*
X20470Y6653D01*
X20494Y6500D01*
X20470Y7347D01*
G37*
G36*
X20470Y7347D02*
X20400Y6790D01*
X20470Y6653D01*
X20470Y7347D01*
G37*
G36*
X20470Y7347D02*
X20400Y7210D01*
X20400Y6790D01*
X20470Y7347D01*
G37*
G36*
X20400Y7210D02*
X20290Y6900D01*
X20400Y6790D01*
X20400Y7210D01*
G37*
G36*
X20400Y7210D02*
X20290Y7100D01*
X20290Y6900D01*
X20400Y7210D01*
G37*
G36*
X20153Y7030D02*
X20290Y6900D01*
X20290Y7100D01*
X20153Y7030D01*
G37*
G36*
X20153Y7030D02*
X20153Y6970D01*
X20290Y6900D01*
X20153Y7030D01*
G37*
G36*
X20153Y7030D02*
X20000Y6994D01*
X20153Y6970D01*
X20153Y7030D01*
G37*
G36*
X20153Y7030D02*
X20000Y7006D01*
X20000Y6994D01*
X20153Y7030D01*
G37*
G36*
X20000Y7006D02*
X19847Y7030D01*
X20000Y6994D01*
X20000Y7006D01*
G37*
G36*
X19847Y7030D02*
X19847Y6970D01*
X20000Y6994D01*
X19847Y7030D01*
G37*
G36*
X19786Y6939D02*
X19847Y6970D01*
X19847Y7030D01*
X19786Y6939D01*
G37*
G36*
X19710Y7100D02*
X19786Y6939D01*
X19847Y7030D01*
X19710Y7100D01*
G37*
G36*
X19600Y7210D02*
X19786Y6939D01*
X19710Y7100D01*
X19600Y7210D01*
G37*
G36*
X19159Y7566D02*
X19786Y6939D01*
X19600Y7210D01*
X19159Y7566D01*
G37*
G36*
X19600Y7210D02*
X19530Y7347D01*
X19159Y7566D01*
X19600Y7210D01*
G37*
G36*
X19506Y7500D02*
X19159Y7566D01*
X19530Y7347D01*
X19506Y7500D01*
G37*
G36*
X19159Y7566D02*
X19506Y7500D01*
X19530Y7653D01*
X19159Y7566D01*
G37*
G36*
X19561Y7714D02*
X19159Y7566D01*
X19530Y7653D01*
X19561Y7714D01*
G37*
G36*
X19561Y7714D02*
X19160Y8115D01*
X19159Y7566D01*
X19561Y7714D01*
G37*
G36*
X19159Y7566D02*
X19160Y8115D01*
X19159Y8114D01*
X19159Y7566D01*
G37*
G36*
X20470Y6347D02*
X20494Y5500D01*
X20494Y6500D01*
X20470Y6347D01*
G37*
G36*
X20470Y6347D02*
X20470Y5653D01*
X20494Y5500D01*
X20470Y6347D01*
G37*
G36*
X20470Y6347D02*
X20400Y5790D01*
X20470Y5653D01*
X20470Y6347D01*
G37*
G36*
X20470Y6347D02*
X20400Y6210D01*
X20400Y5790D01*
X20470Y6347D01*
G37*
G36*
X20400Y6210D02*
X20290Y5900D01*
X20400Y5790D01*
X20400Y6210D01*
G37*
G36*
X20400Y6210D02*
X20290Y6100D01*
X20290Y5900D01*
X20400Y6210D01*
G37*
G36*
X20153Y6030D02*
X20290Y5900D01*
X20290Y6100D01*
X20153Y6030D01*
G37*
G36*
X20153Y6030D02*
X20153Y5970D01*
X20290Y5900D01*
X20153Y6030D01*
G37*
G36*
X20153Y6030D02*
X20000Y5994D01*
X20153Y5970D01*
X20153Y6030D01*
G37*
G36*
X20153Y6030D02*
X20000Y6006D01*
X20000Y5994D01*
X20153Y6030D01*
G37*
G36*
X20000Y6006D02*
X19847Y6030D01*
X20000Y5994D01*
X20000Y6006D01*
G37*
G36*
X19847Y6030D02*
X19847Y5970D01*
X20000Y5994D01*
X19847Y6030D01*
G37*
G36*
X19786Y5939D02*
X19847Y5970D01*
X19847Y6030D01*
X19786Y5939D01*
G37*
G36*
X19710Y6100D02*
X19786Y5939D01*
X19847Y6030D01*
X19710Y6100D01*
G37*
G36*
X19786Y5939D02*
X19710Y6100D01*
X19600Y6210D01*
X19786Y5939D01*
G37*
G36*
X18909Y6816D02*
X19786Y5939D01*
X19600Y6210D01*
X18909Y6816D01*
G37*
G36*
X18909Y6816D02*
X19600Y6210D01*
X19530Y6347D01*
X18909Y6816D01*
G37*
G36*
X19506Y6500D02*
X18909Y6816D01*
X19530Y6347D01*
X19506Y6500D01*
G37*
G36*
X18909Y6816D02*
X19506Y6500D01*
X19530Y6653D01*
X18909Y6816D01*
G37*
G36*
X19561Y6714D02*
X18909Y6816D01*
X19530Y6653D01*
X19561Y6714D01*
G37*
G36*
X19561Y6714D02*
X18910Y7365D01*
X18909Y6816D01*
X19561Y6714D01*
G37*
G36*
X18909Y7364D02*
X18909Y6816D01*
X18910Y7365D01*
X18909Y7364D01*
G37*
G36*
X18591Y6750D02*
X17500Y7506D01*
X18596Y6709D01*
X18591Y6750D01*
G37*
G36*
X17653Y7530D02*
X17500Y7506D01*
X18591Y6750D01*
X17653Y7530D01*
G37*
G36*
X17790Y7600D02*
X17653Y7530D01*
X18591Y6750D01*
X17790Y7600D01*
G37*
G36*
X18591Y6750D02*
X17900Y7710D01*
X17790Y7600D01*
X18591Y6750D01*
G37*
G36*
X17900Y7710D02*
X18591Y6750D01*
X17970Y7847D01*
X17900Y7710D01*
G37*
G36*
X18591Y6750D02*
X18591Y8184D01*
X17970Y7847D01*
X18591Y6750D01*
G37*
G36*
X18591Y8184D02*
X17994Y8000D01*
X17970Y7847D01*
X18591Y8184D01*
G37*
G36*
X17970Y8153D02*
X17994Y8000D01*
X18591Y8184D01*
X17970Y8153D01*
G37*
G36*
X17900Y8290D02*
X17970Y8153D01*
X18591Y8184D01*
X17900Y8290D01*
G37*
G36*
X18591Y8184D02*
X17790Y8400D01*
X17900Y8290D01*
X18591Y8184D01*
G37*
G36*
X18591Y8184D02*
X17388Y9388D01*
X17790Y8400D01*
X18591Y8184D01*
G37*
G36*
X17388Y9388D02*
X17653Y8470D01*
X17790Y8400D01*
X17388Y9388D01*
G37*
G36*
X17653Y8470D02*
X17388Y9388D01*
X17244Y9000D01*
X17653Y8470D01*
G37*
G36*
X17220Y9153D02*
X17244Y9000D01*
X17388Y9388D01*
X17220Y9153D01*
G37*
G36*
X17150Y9290D02*
X17220Y9153D01*
X17388Y9388D01*
X17150Y9290D01*
G37*
G36*
X17362Y9421D02*
X17150Y9290D01*
X17388Y9388D01*
X17362Y9421D01*
G37*
G36*
X17346Y9459D02*
X17150Y9290D01*
X17362Y9421D01*
X17346Y9459D01*
G37*
G36*
X17346Y9459D02*
X17040Y9400D01*
X17150Y9290D01*
X17346Y9459D01*
G37*
G36*
X17341Y9500D02*
X17040Y9400D01*
X17346Y9459D01*
X17341Y9500D01*
G37*
G36*
X16903Y9470D02*
X17040Y9400D01*
X17341Y9500D01*
X16903Y9470D01*
G37*
G36*
X17653Y8470D02*
X17244Y9000D01*
X17500Y8494D01*
X17653Y8470D01*
G37*
G36*
X17244Y9000D02*
X17220Y8847D01*
X17500Y8494D01*
X17244Y9000D01*
G37*
G36*
X17220Y8847D02*
X17347Y8470D01*
X17500Y8494D01*
X17220Y8847D01*
G37*
G36*
X17220Y8847D02*
X17150Y8710D01*
X17347Y8470D01*
X17220Y8847D01*
G37*
G36*
X17150Y8710D02*
X17210Y8400D01*
X17347Y8470D01*
X17150Y8710D01*
G37*
G36*
X17150Y8710D02*
X17040Y8600D01*
X17210Y8400D01*
X17150Y8710D01*
G37*
G36*
X17210Y8400D02*
X17040Y8600D01*
X17100Y8290D01*
X17210Y8400D01*
G37*
G36*
X17040Y8600D02*
X16903Y8530D01*
X17100Y8290D01*
X17040Y8600D01*
G37*
G36*
X17100Y8290D02*
X16903Y8530D01*
X17030Y8153D01*
X17100Y8290D01*
G37*
G36*
X16903Y8530D02*
X16750Y8506D01*
X17030Y8153D01*
X16903Y8530D01*
G37*
G36*
X16750Y8506D02*
X17006Y8000D01*
X17030Y8153D01*
X16750Y8506D01*
G37*
G36*
X17006Y8000D02*
X16750Y8506D01*
X16597Y8530D01*
X17006Y8000D01*
G37*
G36*
X17006Y8000D02*
X16597Y8530D01*
X16153Y7470D01*
X17006Y8000D01*
G37*
G36*
X16597Y8530D02*
X16460Y8600D01*
X16153Y7470D01*
X16597Y8530D01*
G37*
G36*
X17006Y8000D02*
X16153Y7470D01*
X16290Y7400D01*
X17006Y8000D01*
G37*
G36*
X17006Y8000D02*
X16290Y7400D01*
X17030Y7847D01*
X17006Y8000D01*
G37*
G36*
X17030Y7847D02*
X16290Y7400D01*
X16400Y7290D01*
X17030Y7847D01*
G37*
G36*
X17030Y7847D02*
X16400Y7290D01*
X17100Y7710D01*
X17030Y7847D01*
G37*
G36*
X17100Y7710D02*
X16400Y7290D01*
X16470Y7153D01*
X17100Y7710D01*
G37*
G36*
X17210Y7600D02*
X17100Y7710D01*
X16470Y7153D01*
X17210Y7600D01*
G37*
G36*
X16494Y7000D02*
X17210Y7600D01*
X16470Y7153D01*
X16494Y7000D01*
G37*
G36*
X17347Y7530D02*
X17210Y7600D01*
X16494Y7000D01*
X17347Y7530D01*
G37*
G36*
X16470Y6847D02*
X17347Y7530D01*
X16494Y7000D01*
X16470Y6847D01*
G37*
G36*
X16470Y6847D02*
X17500Y7506D01*
X17347Y7530D01*
X16470Y6847D01*
G37*
G36*
X15847Y6530D02*
X14893Y5062D01*
X16000Y6506D01*
X15847Y6530D01*
G37*
G36*
X15847Y6530D02*
X15710Y6600D01*
X14893Y5062D01*
X15847Y6530D01*
G37*
G36*
X15710Y6600D02*
X14648Y5306D01*
X14893Y5062D01*
X15710Y6600D01*
G37*
G36*
X15600Y6710D02*
X14648Y5306D01*
X15710Y6600D01*
X15600Y6710D01*
G37*
G36*
X15600Y6710D02*
X14341Y5463D01*
X14648Y5306D01*
X15600Y6710D01*
G37*
G36*
X15600Y6710D02*
X15530Y6847D01*
X14341Y5463D01*
X15600Y6710D01*
G37*
G36*
X13470Y6847D02*
X14341Y5463D01*
X15530Y6847D01*
X13470Y6847D01*
G37*
G36*
X15530Y6847D02*
X13494Y7000D01*
X13470Y6847D01*
X15530Y6847D01*
G37*
G36*
X15506Y7000D02*
X13494Y7000D01*
X15530Y6847D01*
X15506Y7000D01*
G37*
G36*
X15530Y7153D02*
X13494Y7000D01*
X15506Y7000D01*
X15530Y7153D01*
G37*
G36*
X13494Y7000D02*
X15530Y7153D01*
X13470Y7153D01*
X13494Y7000D01*
G37*
G36*
X14750Y8506D02*
X13470Y7153D01*
X15530Y7153D01*
X14750Y8506D01*
G37*
G36*
X15600Y7290D02*
X14750Y8506D01*
X15530Y7153D01*
X15600Y7290D01*
G37*
G36*
X14903Y8530D02*
X14750Y8506D01*
X15600Y7290D01*
X14903Y8530D01*
G37*
G36*
X15710Y7400D02*
X14903Y8530D01*
X15600Y7290D01*
X15710Y7400D01*
G37*
G36*
X13470Y7153D02*
X14750Y8506D01*
X13679Y8160D01*
X13470Y7153D01*
G37*
G36*
X13679Y8160D02*
X14750Y8506D01*
X14597Y8530D01*
X13679Y8160D01*
G37*
G36*
X13679Y8160D02*
X14597Y8530D01*
X13840Y8321D01*
X13679Y8160D01*
G37*
G36*
X14597Y8530D02*
X14460Y8600D01*
X13840Y8321D01*
X14597Y8530D01*
G37*
G36*
X13840Y8321D02*
X14460Y8600D01*
X13944Y8525D01*
X13840Y8321D01*
G37*
G36*
X14350Y8710D02*
X13944Y8525D01*
X14460Y8600D01*
X14350Y8710D01*
G37*
G36*
X13979Y8750D02*
X13944Y8525D01*
X14350Y8710D01*
X13979Y8750D01*
G37*
G36*
X14280Y8847D02*
X13979Y8750D01*
X14350Y8710D01*
X14280Y8847D01*
G37*
G36*
X13944Y8975D02*
X13979Y8750D01*
X14280Y8847D01*
X13944Y8975D01*
G37*
G36*
X14256Y9000D02*
X13944Y8975D01*
X14280Y8847D01*
X14256Y9000D01*
G37*
G36*
X14280Y9153D02*
X13944Y8975D01*
X14256Y9000D01*
X14280Y9153D01*
G37*
G36*
X14280Y9153D02*
X13840Y9179D01*
X13944Y8975D01*
X14280Y9153D01*
G37*
G36*
X13840Y9179D02*
X14280Y9153D01*
X14350Y9290D01*
X13840Y9179D01*
G37*
G36*
X13679Y9340D02*
X13840Y9179D01*
X14350Y9290D01*
X13679Y9340D01*
G37*
G36*
X14460Y9400D02*
X13679Y9340D01*
X14350Y9290D01*
X14460Y9400D01*
G37*
G36*
X13470Y7153D02*
X13679Y8160D01*
X13400Y7290D01*
X13470Y7153D01*
G37*
G36*
X13475Y8056D02*
X13400Y7290D01*
X13679Y8160D01*
X13475Y8056D01*
G37*
G36*
X13290Y7400D02*
X13400Y7290D01*
X13475Y8056D01*
X13290Y7400D01*
G37*
G36*
X13250Y8021D02*
X13290Y7400D01*
X13475Y8056D01*
X13250Y8021D01*
G37*
G36*
X13250Y8021D02*
X13153Y7470D01*
X13290Y7400D01*
X13250Y8021D01*
G37*
G36*
X13250Y8021D02*
X13000Y7494D01*
X13153Y7470D01*
X13250Y8021D01*
G37*
G36*
X13250Y8021D02*
X13025Y8056D01*
X13000Y7494D01*
X13250Y8021D01*
G37*
G36*
X13025Y8056D02*
X12847Y7470D01*
X13000Y7494D01*
X13025Y8056D01*
G37*
G36*
X13025Y8056D02*
X12821Y8160D01*
X12847Y7470D01*
X13025Y8056D01*
G37*
G36*
X12821Y8160D02*
X12710Y7400D01*
X12847Y7470D01*
X12821Y8160D01*
G37*
G36*
X14341Y5463D02*
X13470Y6847D01*
X14000Y5517D01*
X14341Y5463D01*
G37*
G36*
X13470Y6847D02*
X13400Y6710D01*
X14000Y5517D01*
X13470Y6847D01*
G37*
G36*
X13400Y6710D02*
X13290Y6600D01*
X14000Y5517D01*
X13400Y6710D01*
G37*
G36*
X14000Y5517D02*
X13290Y6600D01*
X13659Y5463D01*
X14000Y5517D01*
G37*
G36*
X13659Y5463D02*
X13290Y6600D01*
X13153Y6530D01*
X13659Y5463D01*
G37*
G36*
X13659Y5463D02*
X13153Y6530D01*
X13352Y5306D01*
X13659Y5463D01*
G37*
G36*
X13153Y6530D02*
X13000Y6506D01*
X13352Y5306D01*
X13153Y6530D01*
G37*
G36*
X13000Y6506D02*
X12847Y6530D01*
X13352Y5306D01*
X13000Y6506D01*
G37*
G36*
X11994Y5750D02*
X13352Y5306D01*
X12847Y6530D01*
X11994Y5750D01*
G37*
G36*
X12847Y6530D02*
X11970Y5903D01*
X11994Y5750D01*
X12847Y6530D01*
G37*
G36*
X11970Y5903D02*
X12847Y6530D01*
X11900Y6040D01*
X11970Y5903D01*
G37*
G36*
X11900Y6040D02*
X12847Y6530D01*
X12710Y6600D01*
X11900Y6040D01*
G37*
G36*
X11900Y6460D02*
X11900Y6040D01*
X12710Y6600D01*
X11900Y6460D01*
G37*
G36*
X12710Y6600D02*
X11970Y6597D01*
X11900Y6460D01*
X12710Y6600D01*
G37*
G36*
X12600Y6710D02*
X11970Y6597D01*
X12710Y6600D01*
X12600Y6710D01*
G37*
G36*
X11994Y6750D02*
X11970Y6597D01*
X12600Y6710D01*
X11994Y6750D01*
G37*
G36*
X12530Y6847D02*
X11994Y6750D01*
X12600Y6710D01*
X12530Y6847D01*
G37*
G36*
X11970Y6903D02*
X11994Y6750D01*
X12530Y6847D01*
X11970Y6903D01*
G37*
G36*
X12506Y7000D02*
X11970Y6903D01*
X12530Y6847D01*
X12506Y7000D01*
G37*
G36*
X12506Y7000D02*
X11900Y7040D01*
X11970Y6903D01*
X12506Y7000D01*
G37*
G36*
X12530Y7153D02*
X11900Y7040D01*
X12506Y7000D01*
X12530Y7153D01*
G37*
G36*
X11900Y6460D02*
X11790Y6150D01*
X11900Y6040D01*
X11900Y6460D01*
G37*
G36*
X11900Y6460D02*
X11790Y6350D01*
X11790Y6150D01*
X11900Y6460D01*
G37*
G36*
X11653Y6280D02*
X11790Y6150D01*
X11790Y6350D01*
X11653Y6280D01*
G37*
G36*
X11653Y6280D02*
X11653Y6220D01*
X11790Y6150D01*
X11653Y6280D01*
G37*
G36*
X11653Y6280D02*
X11500Y6244D01*
X11653Y6220D01*
X11653Y6280D01*
G37*
G36*
X11653Y6280D02*
X11500Y6256D01*
X11500Y6244D01*
X11653Y6280D01*
G37*
G36*
X11500Y6256D02*
X11347Y6280D01*
X11500Y6244D01*
X11500Y6256D01*
G37*
G36*
X11347Y6280D02*
X11347Y6220D01*
X11500Y6244D01*
X11347Y6280D01*
G37*
G36*
X11347Y6280D02*
X11210Y6350D01*
X11347Y6220D01*
X11347Y6280D01*
G37*
G36*
X11210Y6350D02*
X11210Y6150D01*
X11347Y6220D01*
X11210Y6350D01*
G37*
G36*
X11210Y6350D02*
X11100Y6460D01*
X11210Y6150D01*
X11210Y6350D01*
G37*
G36*
X11100Y6460D02*
X11100Y6040D01*
X11210Y6150D01*
X11100Y6460D01*
G37*
G36*
X11100Y6460D02*
X11030Y6597D01*
X11100Y6040D01*
X11100Y6460D01*
G37*
G36*
X11030Y6597D02*
X11030Y5903D01*
X11100Y6040D01*
X11030Y6597D01*
G37*
G36*
X11006Y5750D02*
X11030Y5903D01*
X11030Y6597D01*
X11006Y5750D01*
G37*
G36*
X11030Y6597D02*
X11006Y6750D01*
X11006Y5750D01*
X11030Y6597D01*
G37*
G36*
X13352Y5306D02*
X11994Y5750D01*
X13107Y5062D01*
X13352Y5306D01*
G37*
G36*
X13107Y5062D02*
X11994Y5750D01*
X11970Y5597D01*
X13107Y5062D01*
G37*
G36*
X13107Y5062D02*
X11970Y5597D01*
X12951Y4754D01*
X13107Y5062D01*
G37*
G36*
X12951Y4754D02*
X11970Y5597D01*
X11970Y4903D01*
X12951Y4754D01*
G37*
G36*
X11970Y5597D02*
X11900Y5040D01*
X11970Y4903D01*
X11970Y5597D01*
G37*
G36*
X11970Y5597D02*
X11900Y5460D01*
X11900Y5040D01*
X11970Y5597D01*
G37*
G36*
X11900Y5460D02*
X11790Y5150D01*
X11900Y5040D01*
X11900Y5460D01*
G37*
G36*
X11900Y5460D02*
X11790Y5350D01*
X11790Y5150D01*
X11900Y5460D01*
G37*
G36*
X11653Y5280D02*
X11790Y5150D01*
X11790Y5350D01*
X11653Y5280D01*
G37*
G36*
X11653Y5280D02*
X11653Y5220D01*
X11790Y5150D01*
X11653Y5280D01*
G37*
G36*
X11653Y5280D02*
X11500Y5244D01*
X11653Y5220D01*
X11653Y5280D01*
G37*
G36*
X11653Y5280D02*
X11500Y5256D01*
X11500Y5244D01*
X11653Y5280D01*
G37*
G36*
X11500Y5256D02*
X11347Y5280D01*
X11500Y5244D01*
X11500Y5256D01*
G37*
G36*
X11347Y5280D02*
X11347Y5220D01*
X11500Y5244D01*
X11347Y5280D01*
G37*
G36*
X11347Y5280D02*
X11210Y5350D01*
X11347Y5220D01*
X11347Y5280D01*
G37*
G36*
X11210Y5350D02*
X11210Y5150D01*
X11347Y5220D01*
X11210Y5350D01*
G37*
G36*
X11210Y5350D02*
X11100Y5460D01*
X11210Y5150D01*
X11210Y5350D01*
G37*
G36*
X11100Y5460D02*
X11100Y5040D01*
X11210Y5150D01*
X11100Y5460D01*
G37*
G36*
X11100Y5460D02*
X11030Y5597D01*
X11100Y5040D01*
X11100Y5460D01*
G37*
G36*
X11030Y5597D02*
X11030Y4903D01*
X11100Y5040D01*
X11030Y5597D01*
G37*
G36*
X11006Y4750D02*
X11030Y4903D01*
X11030Y5597D01*
X11006Y4750D01*
G37*
G36*
X11030Y5597D02*
X11006Y5750D01*
X11006Y4750D01*
X11030Y5597D01*
G37*
G36*
X11994Y4750D02*
X12951Y4754D01*
X11970Y4903D01*
X11994Y4750D01*
G37*
G36*
X11994Y4750D02*
X12897Y4413D01*
X12951Y4754D01*
X11994Y4750D01*
G37*
G36*
X11994Y4750D02*
X11970Y4597D01*
X12897Y4413D01*
X11994Y4750D01*
G37*
G36*
X11970Y4597D02*
X11900Y4460D01*
X12897Y4413D01*
X11970Y4597D01*
G37*
G36*
X12897Y4413D02*
X11900Y4460D01*
X11900Y4040D01*
X12897Y4413D01*
G37*
G36*
X11900Y4040D02*
X11900Y4460D01*
X11790Y4150D01*
X11900Y4040D01*
G37*
G36*
X11900Y4460D02*
X11790Y4350D01*
X11790Y4150D01*
X11900Y4460D01*
G37*
G36*
X11653Y4280D02*
X11790Y4150D01*
X11790Y4350D01*
X11653Y4280D01*
G37*
G36*
X11653Y4280D02*
X11653Y4220D01*
X11790Y4150D01*
X11653Y4280D01*
G37*
G36*
X11653Y4280D02*
X11500Y4244D01*
X11653Y4220D01*
X11653Y4280D01*
G37*
G36*
X11653Y4280D02*
X11500Y4256D01*
X11500Y4244D01*
X11653Y4280D01*
G37*
G36*
X11500Y4256D02*
X11347Y4280D01*
X11500Y4244D01*
X11500Y4256D01*
G37*
G36*
X11347Y4280D02*
X11347Y4220D01*
X11500Y4244D01*
X11347Y4280D01*
G37*
G36*
X11347Y4280D02*
X11210Y4350D01*
X11347Y4220D01*
X11347Y4280D01*
G37*
G36*
X11210Y4350D02*
X11210Y4150D01*
X11347Y4220D01*
X11210Y4350D01*
G37*
G36*
X11210Y4350D02*
X11100Y4460D01*
X11210Y4150D01*
X11210Y4350D01*
G37*
G36*
X11100Y4460D02*
X11100Y4040D01*
X11210Y4150D01*
X11100Y4460D01*
G37*
G36*
X11100Y4460D02*
X11030Y4597D01*
X11100Y4040D01*
X11100Y4460D01*
G37*
G36*
X11030Y4597D02*
X11030Y3903D01*
X11100Y4040D01*
X11030Y4597D01*
G37*
G36*
X11006Y3750D02*
X11030Y3903D01*
X11030Y4597D01*
X11006Y3750D01*
G37*
G36*
X11030Y4597D02*
X11006Y4750D01*
X11006Y3750D01*
X11030Y4597D01*
G37*
G36*
X11900Y4040D02*
X11970Y3903D01*
X12897Y4413D01*
X11900Y4040D01*
G37*
G36*
X12897Y4413D02*
X11970Y3903D01*
X12951Y4073D01*
X12897Y4413D01*
G37*
G36*
X11970Y3903D02*
X11994Y3750D01*
X12951Y4073D01*
X11970Y3903D01*
G37*
G36*
X12951Y4073D02*
X11994Y3750D01*
X13107Y3765D01*
X12951Y4073D01*
G37*
G36*
X13107Y3765D02*
X11994Y3750D01*
X11970Y3597D01*
X13107Y3765D01*
G37*
G36*
X13107Y2700D02*
X13107Y3765D01*
X11970Y3597D01*
X13107Y2700D01*
G37*
G36*
X11970Y3597D02*
X11900Y3460D01*
X13107Y2700D01*
X11970Y3597D01*
G37*
G36*
X13107Y2700D02*
X11900Y3460D01*
X12951Y2392D01*
X13107Y2700D01*
G37*
G36*
X12951Y2392D02*
X11900Y3460D01*
X11790Y3350D01*
X12951Y2392D01*
G37*
G36*
X12951Y2392D02*
X11790Y3350D01*
X11653Y3280D01*
X12951Y2392D01*
G37*
G36*
X12951Y2392D02*
X11653Y3280D01*
X12897Y2051D01*
X12951Y2392D01*
G37*
G36*
X11653Y3280D02*
X11500Y3256D01*
X12897Y2051D01*
X11653Y3280D01*
G37*
G36*
X12897Y2051D02*
X11500Y3256D01*
X12951Y1710D01*
X12897Y2051D01*
G37*
G36*
X11500Y3256D02*
X11347Y3280D01*
X12951Y1710D01*
X11500Y3256D01*
G37*
G36*
X11347Y3280D02*
X11210Y3350D01*
X12951Y1710D01*
X11347Y3280D01*
G37*
G36*
X13107Y2700D02*
X13352Y3521D01*
X13107Y3765D01*
X13107Y2700D01*
G37*
G36*
X13107Y2700D02*
X13352Y2944D01*
X13352Y3521D01*
X13107Y2700D01*
G37*
G36*
X13352Y3521D02*
X13352Y2944D01*
X13659Y3364D01*
X13352Y3521D01*
G37*
G36*
X13352Y2944D02*
X13659Y3100D01*
X13659Y3364D01*
X13352Y2944D01*
G37*
G36*
X13659Y3364D02*
X13659Y3100D01*
X14000Y3310D01*
X13659Y3364D01*
G37*
G36*
X13659Y3100D02*
X14000Y3154D01*
X14000Y3310D01*
X13659Y3100D01*
G37*
G36*
X14000Y3310D02*
X14000Y3154D01*
X14341Y3100D01*
X14000Y3310D01*
G37*
G36*
X14000Y3310D02*
X14341Y3100D01*
X14341Y3364D01*
X14000Y3310D01*
G37*
G36*
X15597Y9470D02*
X15750Y9494D01*
X16250Y10341D01*
X15597Y9470D01*
G37*
G36*
X15750Y9494D02*
X15903Y9470D01*
X16250Y10341D01*
X15750Y9494D01*
G37*
G36*
X15903Y9470D02*
X16040Y9400D01*
X16250Y10341D01*
X15903Y9470D01*
G37*
G36*
X16869Y11131D02*
X16659Y10750D01*
X16654Y10709D01*
X16869Y11131D01*
G37*
G36*
X16869Y11131D02*
X16659Y11131D01*
X16659Y10750D01*
X16869Y11131D01*
G37*
G36*
X15875Y12409D02*
X16131Y12409D01*
X16131Y12619D01*
X15875Y12409D01*
G37*
G36*
X16131Y12631D02*
X16131Y12841D01*
X15691Y12841D01*
X16131Y12631D01*
G37*
G36*
X1035Y20651D02*
X388Y19612D01*
X1011Y20500D01*
X1035Y20651D01*
G37*
G36*
X1011Y20500D02*
X388Y19612D01*
X1035Y20349D01*
X1011Y20500D01*
G37*
G36*
X1035Y20349D02*
X388Y19612D01*
X1065Y20290D01*
X1035Y20349D01*
G37*
G36*
X245Y23255D02*
X6500Y22494D01*
X12084Y23029D01*
X245Y23255D01*
G37*
G36*
X6500Y22494D02*
X7500Y22494D01*
X12084Y23029D01*
X6500Y22494D01*
G37*
G36*
X7500Y22494D02*
X12046Y23013D01*
X12084Y23029D01*
X7500Y22494D01*
G37*
G36*
X7500Y22494D02*
X7653Y22470D01*
X12046Y23013D01*
X7500Y22494D01*
G37*
G36*
X12046Y23013D02*
X7653Y22470D01*
X12013Y22987D01*
X12046Y23013D01*
G37*
G36*
X11388Y22362D02*
X12013Y22987D01*
X7653Y22470D01*
X11388Y22362D01*
G37*
G36*
X11388Y22362D02*
X7653Y22470D01*
X10000Y21631D01*
X11388Y22362D01*
G37*
G36*
X7653Y22470D02*
X9921Y21619D01*
X10000Y21631D01*
X7653Y22470D01*
G37*
G36*
X7653Y22470D02*
X7790Y22400D01*
X9921Y21619D01*
X7653Y22470D01*
G37*
G36*
X9921Y21619D02*
X7790Y22400D01*
X9849Y21583D01*
X9921Y21619D01*
G37*
G36*
X9849Y21583D02*
X7790Y22400D01*
X9792Y21526D01*
X9849Y21583D01*
G37*
G36*
X9792Y21526D02*
X7790Y22400D01*
X7900Y22290D01*
X9792Y21526D01*
G37*
G36*
X9792Y21526D02*
X7900Y22290D01*
X7970Y22153D01*
X9792Y21526D01*
G37*
G36*
X9792Y21526D02*
X7970Y22153D01*
X7994Y22000D01*
X9792Y21526D01*
G37*
G36*
X9792Y21526D02*
X7994Y22000D01*
X9756Y21454D01*
X9792Y21526D01*
G37*
G36*
X11388Y22362D02*
X10000Y21631D01*
X11362Y22329D01*
X11388Y22362D01*
G37*
G36*
X11362Y22329D02*
X10000Y21631D01*
X11346Y22291D01*
X11362Y22329D01*
G37*
G36*
X11346Y22291D02*
X10000Y21631D01*
X10079Y21619D01*
X11346Y22291D01*
G37*
G36*
X11341Y22250D02*
X11346Y22291D01*
X10079Y21619D01*
X11341Y22250D01*
G37*
G36*
X10079Y21619D02*
X10151Y21583D01*
X11341Y22250D01*
X10079Y21619D01*
G37*
G36*
X10151Y21583D02*
X10208Y21526D01*
X11341Y22250D01*
X10151Y21583D01*
G37*
G36*
X10208Y21526D02*
X10244Y21454D01*
X11341Y22250D01*
X10208Y21526D01*
G37*
G36*
X6500Y22494D02*
X7347Y22470D01*
X7500Y22494D01*
X6500Y22494D01*
G37*
G36*
X7347Y22470D02*
X6500Y22494D01*
X6653Y22470D01*
X7347Y22470D01*
G37*
G36*
X6790Y22400D02*
X7347Y22470D01*
X6653Y22470D01*
X6790Y22400D01*
G37*
G36*
X7210Y22400D02*
X7347Y22470D01*
X6790Y22400D01*
X7210Y22400D01*
G37*
G36*
X7210Y22400D02*
X6790Y22400D01*
X6900Y22290D01*
X7210Y22400D01*
G37*
G36*
X7100Y22290D02*
X7210Y22400D01*
X6900Y22290D01*
X7100Y22290D01*
G37*
G36*
X6900Y22290D02*
X6970Y22153D01*
X7100Y22290D01*
X6900Y22290D01*
G37*
G36*
X6970Y22153D02*
X7030Y22153D01*
X7100Y22290D01*
X6970Y22153D01*
G37*
G36*
X7030Y22153D02*
X6970Y22153D01*
X7006Y22000D01*
X7030Y22153D01*
G37*
G36*
X6970Y22153D02*
X6994Y22000D01*
X7006Y22000D01*
X6970Y22153D01*
G37*
G36*
X7006Y22000D02*
X6994Y22000D01*
X7030Y21847D01*
X7006Y22000D01*
G37*
G36*
X6994Y22000D02*
X6970Y21847D01*
X7030Y21847D01*
X6994Y22000D01*
G37*
G36*
X7030Y21847D02*
X6970Y21847D01*
X7100Y21710D01*
X7030Y21847D01*
G37*
G36*
X6970Y21847D02*
X6900Y21710D01*
X7100Y21710D01*
X6970Y21847D01*
G37*
G36*
X7100Y21710D02*
X6900Y21710D01*
X7210Y21600D01*
X7100Y21710D01*
G37*
G36*
X6900Y21710D02*
X6790Y21600D01*
X7210Y21600D01*
X6900Y21710D01*
G37*
G36*
X12084Y23029D02*
X12125Y23034D01*
X245Y23255D01*
X12084Y23029D01*
G37*
G36*
X245Y23255D02*
X12125Y23034D01*
X17250Y23229D01*
X245Y23255D01*
G37*
G36*
X12125Y23034D02*
X14125Y23034D01*
X17250Y23229D01*
X12125Y23034D01*
G37*
G36*
X17250Y23229D02*
X14125Y23034D01*
X17025Y23194D01*
X17250Y23229D01*
G37*
G36*
X17025Y23194D02*
X14125Y23034D01*
X14166Y23029D01*
X17025Y23194D01*
G37*
G36*
X17025Y23194D02*
X14166Y23029D01*
X15619Y22869D01*
X17025Y23194D01*
G37*
G36*
X14881Y22869D02*
X15619Y22869D01*
X14166Y23029D01*
X14881Y22869D01*
G37*
G36*
X14166Y23029D02*
X14204Y23013D01*
X14881Y22869D01*
X14166Y23029D01*
G37*
G36*
X14204Y23013D02*
X14237Y22987D01*
X14881Y22869D01*
X14204Y23013D01*
G37*
G36*
X14237Y22987D02*
X14566Y22659D01*
X14881Y22869D01*
X14237Y22987D01*
G37*
G36*
X14566Y22659D02*
X14881Y22659D01*
X14881Y22869D01*
X14566Y22659D01*
G37*
G36*
X17025Y23194D02*
X15619Y22869D01*
X16821Y23090D01*
X17025Y23194D01*
G37*
G36*
X16821Y23090D02*
X15619Y22869D01*
X16660Y22929D01*
X16821Y23090D01*
G37*
G36*
X15619Y22869D02*
X16556Y22725D01*
X16660Y22929D01*
X15619Y22869D01*
G37*
G36*
X15619Y22869D02*
X16521Y22500D01*
X16556Y22725D01*
X15619Y22869D01*
G37*
G36*
X15619Y22869D02*
X15619Y22131D01*
X16521Y22500D01*
X15619Y22869D01*
G37*
G36*
X16521Y22500D02*
X15619Y22131D01*
X16556Y22275D01*
X16521Y22500D01*
G37*
G36*
X16556Y22275D02*
X15619Y22131D01*
X16660Y22071D01*
X16556Y22275D01*
G37*
G36*
X7500Y20011D02*
X7349Y20035D01*
X8388Y16612D01*
X7500Y20011D01*
G37*
G36*
X9138Y17362D02*
X7500Y20011D01*
X8388Y16612D01*
X9138Y17362D01*
G37*
G36*
X9138Y17362D02*
X7651Y20035D01*
X7500Y20011D01*
X9138Y17362D01*
G37*
G36*
X9138Y17362D02*
X8349Y20035D01*
X7651Y20035D01*
X9138Y17362D01*
G37*
G36*
X7787Y20104D02*
X7651Y20035D01*
X8349Y20035D01*
X7787Y20104D01*
G37*
G36*
X8213Y20104D02*
X7787Y20104D01*
X8349Y20035D01*
X8213Y20104D01*
G37*
G36*
X7896Y20213D02*
X7787Y20104D01*
X8213Y20104D01*
X7896Y20213D01*
G37*
G36*
X8104Y20213D02*
X7896Y20213D01*
X8213Y20104D01*
X8104Y20213D01*
G37*
G36*
X8104Y20213D02*
X8035Y20349D01*
X7896Y20213D01*
X8104Y20213D01*
G37*
G36*
X8035Y20349D02*
X7965Y20349D01*
X7896Y20213D01*
X8035Y20349D01*
G37*
G36*
X8035Y20349D02*
X8011Y20500D01*
X7965Y20349D01*
X8035Y20349D01*
G37*
G36*
X8011Y20500D02*
X7989Y20500D01*
X7965Y20349D01*
X8011Y20500D01*
G37*
G36*
X7989Y20500D02*
X8011Y20500D01*
X8035Y20651D01*
X7989Y20500D01*
G37*
G36*
X7965Y20651D02*
X7989Y20500D01*
X8035Y20651D01*
X7965Y20651D01*
G37*
G36*
X7965Y20651D02*
X8035Y20651D01*
X8104Y20787D01*
X7965Y20651D01*
G37*
G36*
X7896Y20787D02*
X7965Y20651D01*
X8104Y20787D01*
X7896Y20787D01*
G37*
G36*
X7787Y20896D02*
X7896Y20787D01*
X8104Y20787D01*
X7787Y20896D01*
G37*
G36*
X8104Y20787D02*
X8213Y20896D01*
X7787Y20896D01*
X8104Y20787D01*
G37*
G36*
X8500Y20011D02*
X8349Y20035D01*
X9138Y17362D01*
X8500Y20011D01*
G37*
G36*
X9171Y17388D02*
X8500Y20011D01*
X9138Y17362D01*
X9171Y17388D01*
G37*
G36*
X9209Y17404D02*
X8500Y20011D01*
X9171Y17388D01*
X9209Y17404D01*
G37*
G36*
X9209Y17404D02*
X8651Y20035D01*
X8500Y20011D01*
X9209Y17404D01*
G37*
G36*
X6659Y21533D02*
X6787Y20896D01*
X6790Y21600D01*
X6659Y21533D01*
G37*
G36*
X6659Y21533D02*
X6659Y20961D01*
X6787Y20896D01*
X6659Y21533D01*
G37*
G36*
X10500Y20011D02*
X10349Y20035D01*
X10684Y17409D01*
X10500Y20011D01*
G37*
G36*
X10651Y20035D02*
X10500Y20011D01*
X10684Y17409D01*
X10651Y20035D01*
G37*
G36*
X12500Y20011D02*
X12349Y20035D01*
X10684Y17409D01*
X12500Y20011D01*
G37*
G36*
X12500Y20011D02*
X10684Y17409D01*
X12651Y20035D01*
X12500Y20011D01*
G37*
G36*
X10684Y17409D02*
X13341Y20066D01*
X12651Y20035D01*
X10684Y17409D01*
G37*
G36*
X12787Y20104D02*
X12651Y20035D01*
X13341Y20066D01*
X12787Y20104D01*
G37*
G36*
X12896Y20213D02*
X12787Y20104D01*
X13341Y20066D01*
X12896Y20213D01*
G37*
G36*
X12965Y20349D02*
X12896Y20213D01*
X13341Y20066D01*
X12965Y20349D01*
G37*
G36*
X12989Y20500D02*
X12965Y20349D01*
X13341Y20066D01*
X12989Y20500D01*
G37*
G36*
X12989Y20500D02*
X13341Y20066D01*
X12965Y20651D01*
X12989Y20500D01*
G37*
G36*
X12965Y20651D02*
X13341Y20066D01*
X13341Y21533D01*
X12965Y20651D01*
G37*
G36*
X12896Y20787D02*
X12965Y20651D01*
X13341Y21533D01*
X12896Y20787D01*
G37*
G36*
X12787Y20896D02*
X12896Y20787D01*
X13341Y21533D01*
X12787Y20896D01*
G37*
G36*
X13341Y21533D02*
X13210Y21600D01*
X12787Y20896D01*
X13341Y21533D01*
G37*
G36*
X12787Y20896D02*
X13210Y21600D01*
X12790Y21600D01*
X12787Y20896D01*
G37*
G36*
X12900Y21710D02*
X12790Y21600D01*
X13210Y21600D01*
X12900Y21710D01*
G37*
G36*
X13100Y21710D02*
X12900Y21710D01*
X13210Y21600D01*
X13100Y21710D01*
G37*
G36*
X12970Y21847D02*
X12900Y21710D01*
X13100Y21710D01*
X12970Y21847D01*
G37*
G36*
X13030Y21847D02*
X12970Y21847D01*
X13100Y21710D01*
X13030Y21847D01*
G37*
G36*
X12994Y22000D02*
X12970Y21847D01*
X13030Y21847D01*
X12994Y22000D01*
G37*
G36*
X13006Y22000D02*
X12994Y22000D01*
X13030Y21847D01*
X13006Y22000D01*
G37*
G36*
X12970Y22153D02*
X12994Y22000D01*
X13006Y22000D01*
X12970Y22153D01*
G37*
G36*
X13030Y22153D02*
X12970Y22153D01*
X13006Y22000D01*
X13030Y22153D01*
G37*
G36*
X12970Y22153D02*
X13030Y22153D01*
X13100Y22290D01*
X12970Y22153D01*
G37*
G36*
X12900Y22290D02*
X12970Y22153D01*
X13100Y22290D01*
X12900Y22290D01*
G37*
G36*
X13100Y22290D02*
X13210Y22400D01*
X12900Y22290D01*
X13100Y22290D01*
G37*
G36*
X13210Y22400D02*
X12790Y22400D01*
X12900Y22290D01*
X13210Y22400D01*
G37*
G36*
X13210Y22400D02*
X13347Y22470D01*
X12790Y22400D01*
X13210Y22400D01*
G37*
G36*
X12790Y22400D02*
X13347Y22470D01*
X12653Y22470D01*
X12790Y22400D01*
G37*
G36*
X12790Y21600D02*
X12653Y21530D01*
X12787Y20896D01*
X12790Y21600D01*
G37*
G36*
X12653Y21530D02*
X12651Y20965D01*
X12787Y20896D01*
X12653Y21530D01*
G37*
G36*
X12500Y21506D02*
X12651Y20965D01*
X12653Y21530D01*
X12500Y21506D01*
G37*
G36*
X12500Y21506D02*
X12500Y20989D01*
X12651Y20965D01*
X12500Y21506D01*
G37*
G36*
X12349Y20965D02*
X12500Y20989D01*
X12500Y21506D01*
X12349Y20965D01*
G37*
G36*
X12347Y21530D02*
X12349Y20965D01*
X12500Y21506D01*
X12347Y21530D01*
G37*
G36*
X12347Y21530D02*
X12213Y20896D01*
X12349Y20965D01*
X12347Y21530D01*
G37*
G36*
X12210Y21600D02*
X12213Y20896D01*
X12347Y21530D01*
X12210Y21600D01*
G37*
G36*
X12210Y21600D02*
X12104Y20787D01*
X12213Y20896D01*
X12210Y21600D01*
G37*
G36*
X12100Y21710D02*
X12104Y20787D01*
X12210Y21600D01*
X12100Y21710D01*
G37*
G36*
X14171Y22244D02*
X13900Y22290D01*
X14099Y22208D01*
X14171Y22244D01*
G37*
G36*
X13970Y22153D02*
X14099Y22208D01*
X13900Y22290D01*
X13970Y22153D01*
G37*
G36*
X14099Y22208D02*
X13970Y22153D01*
X14042Y22151D01*
X14099Y22208D01*
G37*
G36*
X13970Y22153D02*
X14006Y22079D01*
X14042Y22151D01*
X13970Y22153D01*
G37*
G36*
X13970Y22153D02*
X13993Y22007D01*
X14006Y22079D01*
X13970Y22153D01*
G37*
G36*
X13993Y22007D02*
X13995Y22007D01*
X14006Y22079D01*
X13993Y22007D01*
G37*
G36*
X14847Y21470D02*
X15000Y21494D01*
X14881Y22131D01*
X14847Y21470D01*
G37*
G36*
X14881Y22131D02*
X15000Y21494D01*
X15153Y21470D01*
X14881Y22131D01*
G37*
G36*
X15619Y22131D02*
X14881Y22131D01*
X15153Y21470D01*
X15619Y22131D01*
G37*
G36*
X15153Y21470D02*
X15290Y21400D01*
X15619Y22131D01*
X15153Y21470D01*
G37*
G36*
X15290Y21400D02*
X15400Y21290D01*
X15619Y22131D01*
X15290Y21400D01*
G37*
G36*
X16000Y20409D02*
X16506Y20506D01*
X16506Y21494D01*
X16000Y20409D01*
G37*
G36*
X17494Y20506D02*
X16506Y20506D01*
X16000Y20409D01*
X17494Y20506D01*
G37*
G36*
X18184Y20409D02*
X17494Y20506D01*
X16000Y20409D01*
X18184Y20409D01*
G37*
G36*
X18506Y21000D02*
X17494Y20506D01*
X18184Y20409D01*
X18506Y21000D01*
G37*
G36*
X18506Y21000D02*
X18184Y20409D01*
X18530Y20847D01*
X18506Y21000D01*
G37*
G36*
X18530Y20847D02*
X18184Y20409D01*
X18561Y20786D01*
X18530Y20847D01*
G37*
G36*
X18506Y21000D02*
X17494Y21494D01*
X17494Y20506D01*
X18506Y21000D01*
G37*
G36*
X17494Y21494D02*
X18506Y21000D01*
X18530Y21153D01*
X17494Y21494D01*
G37*
G36*
X18600Y21290D02*
X17494Y21494D01*
X18530Y21153D01*
X18600Y21290D01*
G37*
%LNSTD*%
%LPD*%
G54D11*
X16250Y16750D03*
G54D14*
X16250Y17750D03*
G54D20*
X15000Y21000D03*
G54D23*
X17000Y21000D03*
G54D20*
X4500Y22000D03*
X5500Y22000D03*
X6500Y22000D03*
X7500Y22000D03*
G54D26*
X14000Y4413D03*
X14000Y2051D03*
X15870Y3232D03*
G54D20*
X14250Y17000D03*
X14250Y20000D03*
G54D30*
X1500Y20500D03*
X2500Y20500D03*
X3500Y20500D03*
X4500Y20500D03*
X5500Y20500D03*
X6500Y20500D03*
X7500Y20500D03*
X8500Y20500D03*
X9500Y20500D03*
X10500Y20500D03*
X11500Y20500D03*
X12500Y20500D03*
X12500Y14500D03*
X11500Y14500D03*
X10500Y14500D03*
X9500Y14500D03*
X8500Y14500D03*
X7500Y14500D03*
X6500Y14500D03*
X5500Y14500D03*
X4500Y14500D03*
X3500Y14500D03*
X2500Y14500D03*
X1500Y14500D03*
G54D20*
X16750Y9000D03*
X15750Y9000D03*
X14750Y9000D03*
X1000Y7250D03*
X1000Y6250D03*
X1000Y5250D03*
X1000Y4250D03*
X20000Y10500D03*
G54D23*
X20000Y9500D03*
G54D20*
X20000Y8500D03*
X20000Y7500D03*
X20000Y6500D03*
X20000Y5500D03*
X20000Y16000D03*
X20000Y17000D03*
G54D23*
X20000Y18000D03*
G54D20*
X19000Y16000D03*
X19000Y17000D03*
G54D23*
X19000Y18000D03*
G54D20*
X20000Y12000D03*
X20000Y13000D03*
G54D23*
X20000Y14000D03*
G54D20*
X19000Y12000D03*
X19000Y13000D03*
G54D23*
X19000Y14000D03*
G54D20*
X17750Y1250D03*
X19750Y1250D03*
X17750Y3250D03*
X19750Y3250D03*
X17500Y8000D03*
X17500Y5000D03*
X16000Y7000D03*
X13000Y7000D03*
X20000Y20000D03*
X20000Y21000D03*
X19000Y20000D03*
X19000Y21000D03*
X12500Y22000D03*
X13500Y22000D03*
X2500Y10750D03*
X2500Y9750D03*
X2500Y8750D03*
X2500Y7750D03*
X2500Y6750D03*
X2500Y5750D03*
X2500Y4750D03*
X2500Y3750D03*
X11500Y3750D03*
X11500Y4750D03*
X11500Y5750D03*
X11500Y6750D03*
X11500Y7750D03*
X11500Y8750D03*
X11500Y9750D03*
X11500Y10750D03*
G54D17*
X19625Y8500D02*
X19505Y8500D01*
X20375Y8500D02*
X20495Y8500D01*
X19625Y7500D02*
X19505Y7500D01*
X20375Y7500D02*
X20495Y7500D01*
X19625Y6500D02*
X19505Y6500D01*
X20375Y6500D02*
X20495Y6500D01*
X19625Y5500D02*
X19505Y5500D01*
X20375Y5500D02*
X20495Y5500D01*
X18500Y14375D02*
X18500Y14495D01*
X19875Y14000D02*
X19755Y14000D01*
X18500Y13625D02*
X18500Y13505D01*
X18875Y14000D02*
X18995Y14000D01*
X19500Y14375D02*
X19500Y14495D01*
X19125Y14000D02*
X19005Y14000D01*
X19500Y13625D02*
X19500Y13505D01*
X19875Y14000D02*
X19995Y14000D01*
X19500Y18375D02*
X19500Y18495D01*
X19125Y18000D02*
X19005Y18000D01*
X19500Y17625D02*
X19500Y17505D01*
X19875Y18000D02*
X19995Y18000D01*
X18500Y18375D02*
X18500Y18495D01*
X19875Y18000D02*
X19755Y18000D01*
X18500Y17625D02*
X18500Y17505D01*
X18875Y18000D02*
X18995Y18000D01*
G54D38*
X19347Y20529D02*
X19209Y20600D01*
X19100Y20709D01*
X19029Y20847D01*
X19005Y21000D01*
X19029Y21153D01*
X19100Y21291D01*
X19209Y21400D01*
X19347Y21471D01*
X19500Y21495D01*
X19653Y21471D01*
X19791Y21400D01*
X19900Y21291D01*
X19971Y21153D01*
X19995Y21000D01*
X19971Y20847D01*
X19900Y20709D01*
X19791Y20600D01*
X19653Y20529D01*
X19500Y20505D01*
X19347Y20529D01*
X19347Y19529D02*
X19209Y19600D01*
X19100Y19709D01*
X19029Y19847D01*
X19005Y20000D01*
X19029Y20153D01*
X19100Y20291D01*
X19209Y20400D01*
X19347Y20471D01*
X19500Y20495D01*
X19653Y20471D01*
X19791Y20400D01*
X19900Y20291D01*
X19971Y20153D01*
X19995Y20000D01*
X19971Y19847D01*
X19900Y19709D01*
X19791Y19600D01*
X19653Y19529D01*
X19500Y19505D01*
X19347Y19529D01*
X18347Y19529D02*
X18209Y19600D01*
X18100Y19709D01*
X18029Y19847D01*
X18005Y20000D01*
X18029Y20153D01*
X18100Y20291D01*
X18209Y20400D01*
X18347Y20471D01*
X18500Y20495D01*
X18653Y20471D01*
X18791Y20400D01*
X18900Y20291D01*
X18971Y20153D01*
X18995Y20000D01*
X18971Y19847D01*
X18900Y19709D01*
X18791Y19600D01*
X18653Y19529D01*
X18500Y19505D01*
X18347Y19529D01*
X19005Y17505D02*
X19005Y18495D01*
X19995Y18495D01*
X19995Y17505D01*
X19005Y17505D01*
X18005Y17505D02*
X18005Y18495D01*
X18995Y18495D01*
X18995Y17505D01*
X18005Y17505D01*
X19347Y16529D02*
X19209Y16600D01*
X19100Y16709D01*
X19029Y16847D01*
X19005Y17000D01*
X19029Y17153D01*
X19100Y17291D01*
X19209Y17400D01*
X19347Y17471D01*
X19500Y17495D01*
X19653Y17471D01*
X19791Y17400D01*
X19900Y17291D01*
X19971Y17153D01*
X19995Y17000D01*
X19971Y16847D01*
X19900Y16709D01*
X19791Y16600D01*
X19653Y16529D01*
X19500Y16505D01*
X19347Y16529D01*
X18347Y16529D02*
X18209Y16600D01*
X18100Y16709D01*
X18029Y16847D01*
X18005Y17000D01*
X18029Y17153D01*
X18100Y17291D01*
X18209Y17400D01*
X18347Y17471D01*
X18500Y17495D01*
X18653Y17471D01*
X18791Y17400D01*
X18900Y17291D01*
X18971Y17153D01*
X18995Y17000D01*
X18971Y16847D01*
X18900Y16709D01*
X18791Y16600D01*
X18653Y16529D01*
X18500Y16505D01*
X18347Y16529D01*
X19347Y15529D02*
X19209Y15600D01*
X19100Y15709D01*
X19029Y15847D01*
X19005Y16000D01*
X19029Y16153D01*
X19100Y16291D01*
X19209Y16400D01*
X19347Y16471D01*
X19500Y16495D01*
X19653Y16471D01*
X19791Y16400D01*
X19900Y16291D01*
X19971Y16153D01*
X19995Y16000D01*
X19971Y15847D01*
X19900Y15709D01*
X19791Y15600D01*
X19653Y15529D01*
X19500Y15505D01*
X19347Y15529D01*
X18347Y15529D02*
X18209Y15600D01*
X18100Y15709D01*
X18029Y15847D01*
X18005Y16000D01*
X18029Y16153D01*
X18100Y16291D01*
X18209Y16400D01*
X18347Y16471D01*
X18500Y16495D01*
X18653Y16471D01*
X18791Y16400D01*
X18900Y16291D01*
X18971Y16153D01*
X18995Y16000D01*
X18971Y15847D01*
X18900Y15709D01*
X18791Y15600D01*
X18653Y15529D01*
X18500Y15505D01*
X18347Y15529D01*
X19005Y13505D02*
X19005Y14495D01*
X19995Y14495D01*
X19995Y13505D01*
X19005Y13505D01*
X18005Y13505D02*
X18005Y14495D01*
X18995Y14495D01*
X18995Y13505D01*
X18005Y13505D01*
X18347Y12529D02*
X18209Y12600D01*
X18100Y12709D01*
X18029Y12847D01*
X18005Y13000D01*
X18029Y13153D01*
X18100Y13291D01*
X18209Y13400D01*
X18347Y13471D01*
X18500Y13495D01*
X18653Y13471D01*
X18791Y13400D01*
X18900Y13291D01*
X18971Y13153D01*
X18995Y13000D01*
X18971Y12847D01*
X18900Y12709D01*
X18791Y12600D01*
X18653Y12529D01*
X18500Y12505D01*
X18347Y12529D01*
X25097Y11529D02*
X24959Y11600D01*
X24850Y11709D01*
X24779Y11847D01*
X24755Y12000D01*
X24779Y12153D01*
X24850Y12291D01*
X24959Y12400D01*
X25097Y12471D01*
X25250Y12495D01*
X25403Y12471D01*
X25541Y12400D01*
X25650Y12291D01*
X25721Y12153D01*
X25745Y12000D01*
X25721Y11847D01*
X25650Y11709D01*
X25541Y11600D01*
X25403Y11529D01*
X25250Y11505D01*
X25097Y11529D01*
G54D39*
X13250Y8750D03*
X17250Y22500D03*
G54D45*
X16500Y14500D03*
X16500Y13750D03*
X16500Y13000D03*
X16500Y12250D03*
X16500Y11500D03*
X15250Y22500D03*
G54D50*
X2000Y13750D03*
X2000Y22250D03*
X10000Y21375D03*
G54D18*
X6500Y22000D02*
X6500Y20500D01*
X14250Y22000D02*
X14250Y20000D01*
G54D50*
X14250Y22000D03*
G54D18*
X12750Y18000D02*
X13750Y18000D01*
G54D50*
X12750Y18000D03*
G54D18*
X13750Y18000D02*
X16000Y20250D01*
X18250Y20250D01*
X19000Y21000D01*
X13500Y22000D02*
X13500Y20000D01*
X10750Y17250D01*
X9250Y17250D01*
X8500Y16500D01*
X8500Y14500D01*
X20000Y5500D02*
X18750Y6750D01*
X18750Y8250D01*
X17500Y9500D01*
X17500Y14500D01*
X16750Y15250D01*
X14250Y15250D01*
X14000Y15000D01*
X14000Y14000D01*
X13250Y13250D01*
X10750Y13250D01*
X9500Y14500D01*
X20000Y6500D02*
X19000Y7500D01*
X19000Y8500D01*
X17750Y9750D01*
X17750Y14750D01*
X17000Y15500D01*
X14000Y15500D01*
X13750Y15250D01*
X13750Y14250D01*
X13000Y13500D01*
X11500Y13500D01*
X10500Y14500D01*
X20000Y7500D02*
X19250Y8250D01*
X19250Y8750D01*
X18000Y10000D01*
X18000Y15000D01*
X17250Y15750D01*
X13750Y15750D01*
X13500Y15500D01*
X13500Y14500D01*
X12750Y13750D01*
X12250Y13750D01*
X11500Y14500D01*
X20000Y8500D02*
X18250Y10250D01*
X18250Y15250D01*
X17500Y16000D01*
X13500Y16000D01*
X13250Y15750D01*
X13250Y14750D01*
X13000Y14500D01*
X12500Y14500D01*
X1500Y20500D02*
X500Y19500D01*
X500Y11750D01*
X2500Y9750D01*
X2500Y20500D02*
X1250Y19250D01*
X1250Y15750D01*
X750Y15250D01*
X750Y13500D01*
X2500Y11750D01*
X2500Y10750D01*
X2500Y8750D02*
X6750Y13000D01*
X14250Y13000D01*
X15750Y14500D01*
X16500Y14500D01*
X16500Y14500D01*
X2500Y7750D02*
X7250Y12500D01*
X14500Y12500D01*
X15750Y13750D01*
X16500Y13750D01*
X16500Y13750D01*
X2500Y6750D02*
X7750Y12000D01*
X14625Y12000D01*
X15625Y13000D01*
X16500Y13000D01*
X16500Y13000D01*
X2500Y5750D02*
X8250Y11500D01*
X15125Y11500D01*
X15875Y12250D01*
X16500Y12250D01*
X16500Y12250D01*
X11500Y7750D02*
X12250Y8500D01*
X12250Y9375D01*
X13375Y10500D01*
X16250Y10500D01*
X16500Y10750D01*
X16500Y11500D01*
X16500Y11500D01*
X11500Y20500D02*
X11500Y22250D01*
X12125Y22875D01*
X14125Y22875D01*
X14500Y22500D01*
X15250Y22500D01*
X15250Y22500D01*
%LNERASE*%
%LPC*%
G54D12*
X16250Y16750D03*
G54D15*
X16250Y17750D03*
G54D21*
X15000Y21000D03*
X17000Y21000D03*
X4500Y22000D03*
X5500Y22000D03*
X6500Y22000D03*
X7500Y22000D03*
G54D27*
X14000Y4413D03*
G54D29*
X14000Y2051D03*
X15870Y3232D03*
G54D21*
X14250Y17000D03*
X14250Y20000D03*
X1500Y20500D03*
X2500Y20500D03*
X3500Y20500D03*
X4500Y20500D03*
X5500Y20500D03*
X6500Y20500D03*
X7500Y20500D03*
X8500Y20500D03*
X9500Y20500D03*
X10500Y20500D03*
X11500Y20500D03*
X12500Y20500D03*
X12500Y14500D03*
X11500Y14500D03*
X10500Y14500D03*
X9500Y14500D03*
X8500Y14500D03*
X7500Y14500D03*
X6500Y14500D03*
X5500Y14500D03*
X4500Y14500D03*
X3500Y14500D03*
X2500Y14500D03*
X1500Y14500D03*
X16750Y9000D03*
X15750Y9000D03*
X14750Y9000D03*
X1000Y7250D03*
X1000Y6250D03*
X1000Y5250D03*
X1000Y4250D03*
X20000Y10500D03*
X20000Y9500D03*
X20000Y8500D03*
X20000Y7500D03*
X20000Y6500D03*
X20000Y5500D03*
X20000Y16000D03*
X20000Y17000D03*
X20000Y18000D03*
X19000Y16000D03*
X19000Y17000D03*
X19000Y18000D03*
X20000Y12000D03*
X20000Y13000D03*
X20000Y14000D03*
X19000Y12000D03*
X19000Y13000D03*
X19000Y14000D03*
X17750Y1250D03*
X19750Y1250D03*
X17750Y3250D03*
X19750Y3250D03*
X17500Y8000D03*
X17500Y5000D03*
X16000Y7000D03*
X13000Y7000D03*
X20000Y20000D03*
X20000Y21000D03*
X19000Y20000D03*
X19000Y21000D03*
X12500Y22000D03*
X13500Y22000D03*
X2500Y10750D03*
X2500Y9750D03*
X2500Y8750D03*
X2500Y7750D03*
X2500Y6750D03*
X2500Y5750D03*
X2500Y4750D03*
X2500Y3750D03*
X11500Y3750D03*
X11500Y4750D03*
X11500Y5750D03*
X11500Y6750D03*
X11500Y7750D03*
X11500Y8750D03*
X11500Y9750D03*
X11500Y10750D03*
G54D39*
X13250Y8750D03*
X17250Y22500D03*
%LNSTD*%
%LPD*%
G54D17*
X19000Y14375D02*
X19000Y14495D01*
X18625Y14000D02*
X18505Y14000D01*
X19000Y13625D02*
X19000Y13505D01*
X19375Y14000D02*
X19495Y14000D01*
X20000Y14375D02*
X20000Y14495D01*
X19625Y14000D02*
X19505Y14000D01*
X20000Y13625D02*
X20000Y13505D01*
X20375Y14000D02*
X20495Y14000D01*
X20000Y18375D02*
X20000Y18495D01*
X19625Y18000D02*
X19505Y18000D01*
X20000Y17625D02*
X20000Y17505D01*
X20375Y18000D02*
X20495Y18000D01*
X19000Y18375D02*
X19000Y18495D01*
X18625Y18000D02*
X18505Y18000D01*
X19000Y17625D02*
X19000Y17505D01*
X19375Y18000D02*
X19495Y18000D01*
X10000Y21375D02*
X10182Y21557D01*
X10000Y21375D02*
X9818Y21557D01*
X10000Y21375D02*
X9818Y21193D01*
X10000Y21375D02*
X10182Y21193D01*
X10000Y21375D02*
X10182Y21557D01*
X10000Y21375D02*
X9818Y21557D01*
X10000Y21375D02*
X9818Y21193D01*
X10000Y21375D02*
X10182Y21193D01*
X2000Y22250D02*
X2182Y22432D01*
X2000Y22250D02*
X1818Y22432D01*
X2000Y22250D02*
X1818Y22068D01*
X2000Y22250D02*
X2182Y22068D01*
X2000Y22250D02*
X2182Y22432D01*
X2000Y22250D02*
X1818Y22432D01*
X2000Y22250D02*
X1818Y22068D01*
X2000Y22250D02*
X2182Y22068D01*
X2000Y13750D02*
X2182Y13932D01*
X2000Y13750D02*
X1818Y13932D01*
X2000Y13750D02*
X1818Y13568D01*
X2000Y13750D02*
X2182Y13568D01*
X2000Y13750D02*
X2182Y13932D01*
X2000Y13750D02*
X1818Y13932D01*
X2000Y13750D02*
X1818Y13568D01*
X2000Y13750D02*
X2182Y13568D01*
X2000Y13750D02*
X2182Y13932D01*
X2000Y13750D02*
X1818Y13932D01*
X2000Y13750D02*
X1818Y13568D01*
X2000Y13750D02*
X2182Y13568D01*
X2000Y13750D02*
X2182Y13932D01*
X2000Y13750D02*
X1818Y13932D01*
X2000Y13750D02*
X1818Y13568D01*
X2000Y13750D02*
X2182Y13568D01*
X1500Y14130D02*
X1500Y14010D01*
X1130Y14500D02*
X1010Y14500D01*
X1500Y14870D02*
X1500Y14990D01*
X1870Y14500D02*
X1990Y14500D01*
X5875Y22000D02*
X5995Y22000D01*
X5500Y22375D02*
X5500Y22495D01*
X5125Y22000D02*
X5005Y22000D01*
X5500Y21625D02*
X5500Y21505D01*
X1375Y5250D02*
X1495Y5250D01*
X1000Y5625D02*
X1000Y5745D01*
X625Y5250D02*
X505Y5250D01*
X1000Y4875D02*
X1000Y4755D01*
X2125Y3750D02*
X2005Y3750D01*
X2500Y4125D02*
X2500Y4245D01*
X2875Y3750D02*
X2995Y3750D01*
X2500Y3375D02*
X2500Y3255D01*
X20000Y9125D02*
X20000Y9005D01*
X19625Y9500D02*
X19505Y9500D01*
X20000Y9875D02*
X20000Y9995D01*
X20375Y9500D02*
X20495Y9500D01*
X14375Y9000D02*
X14255Y9000D01*
X14750Y9375D02*
X14750Y9495D01*
X15125Y9000D02*
X15245Y9000D01*
X14750Y8625D02*
X14750Y8505D01*
X18125Y1250D02*
X18245Y1250D01*
X17750Y1625D02*
X17750Y1745D01*
X17375Y1250D02*
X17255Y1250D01*
X17750Y875D02*
X17750Y755D01*
X15625Y7000D02*
X15505Y7000D01*
X16000Y6625D02*
X16000Y6505D01*
X16375Y7000D02*
X16495Y7000D01*
X16000Y7375D02*
X16000Y7495D01*
M02*
