G04 -- Generated By PCBWeb Designer*
%FSLAX24Y24*%
%MOIN*%
%OFA0B0*%
%SFA1.0B1.0*%
%AMROTRECT*21,1,$1,$2,0,0,$3*%
%AMROTOBLONG*1,1,$7,$1,$2*1,1,$7,$3,$4*21,1,$5,$6,0,0,$8*%
%ADD10C,0.025*%
%ADD11R,0.055X0.055*%
%ADD12C,0.033*%
%ADD13R,0.065X0.065*%
%ADD14C,0.055*%
%ADD15C,0.033*%
%ADD16C,0.065*%
%ADD17C,0.01*%
%ADD18C,0.008*%
%ADD19C,0.024*%
%ADD20C,0.075*%
%ADD21C,0.04*%
%ADD22C,0.085*%
%ADD23R,0.075X0.075*%
%ADD24R,0.085X0.085*%
%ADD25C,0.026*%
%ADD26C,0.1969*%
%ADD27C,0.1378*%
%ADD28C,0.2069*%
%ADD29C,0.126*%
%ADD30C,0.074*%
%ADD31C,0.084*%
%ADD32C,0.0048*%
%ADD33C,0.0208*%
%ADD34C,0.005*%
%ADD35C,0.021*%
%ADD36R,0.4X0.5*%
%ADD37R,0.41X0.51*%
%ADD38C,0.001*%
%ADD39C,0.1221*%
%ADD40C,0.1321*%
%ADD41R,0.0197X0.0394*%
%ADD42R,0.0297X0.0494*%
%ADD43R,0.0591X0.0591*%
%ADD44R,0.0691X0.0691*%
%ADD45R,0.05X0.05*%
%ADD46R,0.06X0.06*%
%ADD47R,0.05X0.06*%
%ADD48R,0.06X0.07*%
%ADD49C,0.0*%
%ADD50C,0.0275*%
%ADD51C,0.018*%
G01*
%LNBASEFILL*%
%LPD*%
G36*
X840Y7717D02*
X613Y8012D01*
X535Y7934D01*
X840Y7717D01*
G37*
G36*
X840Y7717D02*
X535Y7934D01*
X709Y7650D01*
X840Y7717D01*
G37*
G36*
X535Y7934D02*
X600Y7541D01*
X709Y7650D01*
X535Y7934D01*
G37*
G36*
X535Y7934D02*
X535Y7414D01*
X600Y7541D01*
X535Y7934D01*
G37*
G36*
X639Y8045D02*
X613Y8012D01*
X840Y7717D01*
X639Y8045D01*
G37*
G36*
X655Y8084D02*
X639Y8045D01*
X840Y7717D01*
X655Y8084D01*
G37*
G36*
X840Y8250D02*
X655Y8084D01*
X840Y7717D01*
X840Y8250D01*
G37*
G36*
X840Y8250D02*
X660Y8125D01*
X655Y8084D01*
X840Y8250D01*
G37*
G36*
X845Y8291D02*
X660Y8125D01*
X840Y8250D01*
X845Y8291D01*
G37*
G36*
X861Y8330D02*
X660Y8125D01*
X845Y8291D01*
X861Y8330D01*
G37*
G36*
X887Y8363D02*
X660Y8125D01*
X861Y8330D01*
X887Y8363D01*
G37*
G36*
X660Y11864D02*
X660Y8125D01*
X887Y8363D01*
X660Y11864D01*
G37*
G36*
X660Y11864D02*
X887Y8363D01*
X1090Y11434D01*
X660Y11864D01*
G37*
G36*
X887Y8363D02*
X1090Y8566D01*
X1090Y11434D01*
X887Y8363D01*
G37*
G36*
X18285Y15489D02*
X18285Y15316D01*
X18637Y15137D01*
X18285Y15489D01*
G37*
G36*
X18285Y15316D02*
X18566Y15035D01*
X18637Y15137D01*
X18285Y15316D01*
G37*
G36*
X18637Y15137D02*
X18566Y15035D01*
X18670Y15111D01*
X18637Y15137D01*
G37*
G36*
X18670Y15111D02*
X18566Y15035D01*
X18709Y15095D01*
X18670Y15111D01*
G37*
G36*
X18709Y15095D02*
X18566Y15035D01*
X18750Y15090D01*
X18709Y15095D01*
G37*
G36*
X18750Y15090D02*
X18566Y15035D01*
X20250Y15035D01*
X18750Y15090D01*
G37*
G36*
X18750Y15090D02*
X20250Y15035D01*
X20250Y15090D01*
X18750Y15090D01*
G37*
G36*
X20250Y15090D02*
X20250Y15035D01*
X20291Y15030D01*
X20250Y15090D01*
G37*
G36*
X20250Y15090D02*
X20291Y15030D01*
X20291Y15095D01*
X20250Y15090D01*
G37*
G36*
X20330Y15111D02*
X20291Y15095D01*
X20291Y15030D01*
X20330Y15111D01*
G37*
G36*
X20330Y15111D02*
X20291Y15030D01*
X20330Y15014D01*
X20330Y15111D01*
G37*
G36*
X20330Y15111D02*
X20330Y15014D01*
X20363Y14988D01*
X20330Y15111D01*
G37*
G36*
X20330Y15111D02*
X20363Y14988D01*
X20363Y15137D01*
X20330Y15111D01*
G37*
G36*
X20363Y15137D02*
X20363Y14988D01*
X20738Y14613D01*
X20363Y15137D01*
G37*
G36*
X20363Y15137D02*
X20738Y14613D01*
X20738Y15512D01*
X20363Y15137D01*
G37*
G36*
X20755Y15534D02*
X20738Y15512D01*
X20738Y14613D01*
X20755Y15534D01*
G37*
G36*
X20755Y15534D02*
X20738Y14613D01*
X20755Y14591D01*
X20755Y15534D01*
G37*
G36*
X4130Y23255D02*
X245Y23255D01*
X1414Y22664D01*
X4130Y23255D01*
G37*
G36*
X245Y23255D02*
X586Y22664D01*
X1414Y22664D01*
X245Y23255D01*
G37*
G36*
X586Y22664D02*
X245Y23255D01*
X586Y21836D01*
X586Y22664D01*
G37*
G36*
X586Y21836D02*
X245Y23255D01*
X345Y17791D01*
X586Y21836D01*
G37*
G36*
X245Y23255D02*
X340Y17750D01*
X345Y17791D01*
X245Y23255D01*
G37*
G36*
X340Y17750D02*
X245Y23255D01*
X245Y8091D01*
X340Y17750D01*
G37*
G36*
X340Y17750D02*
X245Y8091D01*
X262Y8113D01*
X340Y17750D01*
G37*
G36*
X262Y8113D02*
X340Y8191D01*
X340Y17750D01*
X262Y8113D01*
G37*
G36*
X361Y17830D02*
X586Y21836D01*
X345Y17791D01*
X361Y17830D01*
G37*
G36*
X1011Y20500D02*
X586Y21836D01*
X361Y17830D01*
X1011Y20500D01*
G37*
G36*
X1035Y20349D02*
X1011Y20500D01*
X361Y17830D01*
X1035Y20349D01*
G37*
G36*
X1035Y20349D02*
X361Y17830D01*
X387Y17863D01*
X1035Y20349D01*
G37*
G36*
X1035Y20349D02*
X387Y17863D01*
X1104Y20213D01*
X1035Y20349D01*
G37*
G36*
X1104Y20213D02*
X387Y17863D01*
X1213Y20104D01*
X1104Y20213D01*
G37*
G36*
X1213Y20104D02*
X387Y17863D01*
X1349Y20035D01*
X1213Y20104D01*
G37*
G36*
X1887Y19363D02*
X1349Y20035D01*
X387Y17863D01*
X1887Y19363D01*
G37*
G36*
X1500Y20011D02*
X1349Y20035D01*
X1887Y19363D01*
X1500Y20011D01*
G37*
G36*
X1651Y20035D02*
X1500Y20011D01*
X1887Y19363D01*
X1651Y20035D01*
G37*
G36*
X1920Y19389D02*
X1651Y20035D01*
X1887Y19363D01*
X1920Y19389D01*
G37*
G36*
X1959Y19405D02*
X1651Y20035D01*
X1920Y19389D01*
X1959Y19405D01*
G37*
G36*
X1787Y20104D02*
X1651Y20035D01*
X1959Y19405D01*
X1787Y20104D01*
G37*
G36*
X1787Y20104D02*
X1959Y19405D01*
X2000Y19410D01*
X1787Y20104D01*
G37*
G36*
X2213Y20104D02*
X1787Y20104D01*
X2000Y19410D01*
X2213Y20104D01*
G37*
G36*
X2349Y20035D02*
X2213Y20104D01*
X2000Y19410D01*
X2349Y20035D01*
G37*
G36*
X2349Y20035D02*
X2000Y19410D01*
X2500Y20011D01*
X2349Y20035D01*
G37*
G36*
X2000Y19410D02*
X2651Y20035D01*
X2500Y20011D01*
X2000Y19410D01*
G37*
G36*
X2000Y19410D02*
X3349Y20035D01*
X2651Y20035D01*
X2000Y19410D01*
G37*
G36*
X2787Y20104D02*
X2651Y20035D01*
X3349Y20035D01*
X2787Y20104D01*
G37*
G36*
X3213Y20104D02*
X2787Y20104D01*
X3349Y20035D01*
X3213Y20104D01*
G37*
G36*
X2896Y20213D02*
X2787Y20104D01*
X3213Y20104D01*
X2896Y20213D01*
G37*
G36*
X3104Y20213D02*
X2896Y20213D01*
X3213Y20104D01*
X3104Y20213D01*
G37*
G36*
X3104Y20213D02*
X3035Y20349D01*
X2896Y20213D01*
X3104Y20213D01*
G37*
G36*
X3035Y20349D02*
X2965Y20349D01*
X2896Y20213D01*
X3035Y20349D01*
G37*
G36*
X3035Y20349D02*
X3011Y20500D01*
X2965Y20349D01*
X3035Y20349D01*
G37*
G36*
X3011Y20500D02*
X2989Y20500D01*
X2965Y20349D01*
X3011Y20500D01*
G37*
G36*
X2989Y20500D02*
X3011Y20500D01*
X3035Y20651D01*
X2989Y20500D01*
G37*
G36*
X2965Y20651D02*
X2989Y20500D01*
X3035Y20651D01*
X2965Y20651D01*
G37*
G36*
X2965Y20651D02*
X3035Y20651D01*
X3104Y20787D01*
X2965Y20651D01*
G37*
G36*
X2896Y20787D02*
X2965Y20651D01*
X3104Y20787D01*
X2896Y20787D01*
G37*
G36*
X2787Y20896D02*
X2896Y20787D01*
X3104Y20787D01*
X2787Y20896D01*
G37*
G36*
X3213Y20896D02*
X2787Y20896D01*
X3104Y20787D01*
X3213Y20896D01*
G37*
G36*
X2787Y20896D02*
X3213Y20896D01*
X3349Y20965D01*
X2787Y20896D01*
G37*
G36*
X2651Y20965D02*
X2787Y20896D01*
X3349Y20965D01*
X2651Y20965D01*
G37*
G36*
X2256Y22250D02*
X2651Y20965D01*
X3349Y20965D01*
X2256Y22250D01*
G37*
G36*
X2256Y22250D02*
X3349Y20965D01*
X4030Y22153D01*
X2256Y22250D01*
G37*
G36*
X3500Y20989D02*
X4030Y22153D01*
X3349Y20965D01*
X3500Y20989D01*
G37*
G36*
X4006Y22000D02*
X4030Y22153D01*
X3500Y20989D01*
X4006Y22000D01*
G37*
G36*
X4006Y22000D02*
X3500Y20989D01*
X4030Y21847D01*
X4006Y22000D01*
G37*
G36*
X4100Y21710D02*
X4030Y21847D01*
X3500Y20989D01*
X4100Y21710D01*
G37*
G36*
X4100Y21710D02*
X3500Y20989D01*
X3651Y20965D01*
X4100Y21710D01*
G37*
G36*
X4100Y21710D02*
X3651Y20965D01*
X3787Y20896D01*
X4100Y21710D01*
G37*
G36*
X4100Y21710D02*
X3787Y20896D01*
X3896Y20787D01*
X4100Y21710D01*
G37*
G36*
X3965Y20651D02*
X4100Y21710D01*
X3896Y20787D01*
X3965Y20651D01*
G37*
G36*
X4104Y20787D02*
X4100Y21710D01*
X3965Y20651D01*
X4104Y20787D01*
G37*
G36*
X4104Y20787D02*
X3965Y20651D01*
X4035Y20651D01*
X4104Y20787D01*
G37*
G36*
X3965Y20651D02*
X3989Y20500D01*
X4035Y20651D01*
X3965Y20651D01*
G37*
G36*
X3989Y20500D02*
X4011Y20500D01*
X4035Y20651D01*
X3989Y20500D01*
G37*
G36*
X4011Y20500D02*
X3989Y20500D01*
X3965Y20349D01*
X4011Y20500D01*
G37*
G36*
X4035Y20349D02*
X4011Y20500D01*
X3965Y20349D01*
X4035Y20349D01*
G37*
G36*
X4035Y20349D02*
X3965Y20349D01*
X3896Y20213D01*
X4035Y20349D01*
G37*
G36*
X4104Y20213D02*
X4035Y20349D01*
X3896Y20213D01*
X4104Y20213D01*
G37*
G36*
X4104Y20213D02*
X3896Y20213D01*
X4213Y20104D01*
X4104Y20213D01*
G37*
G36*
X3896Y20213D02*
X3787Y20104D01*
X4213Y20104D01*
X3896Y20213D01*
G37*
G36*
X4184Y19410D02*
X4213Y20104D01*
X3787Y20104D01*
X4184Y19410D01*
G37*
G36*
X3651Y20035D02*
X4184Y19410D01*
X3787Y20104D01*
X3651Y20035D01*
G37*
G36*
X3651Y20035D02*
X3500Y20011D01*
X4184Y19410D01*
X3651Y20035D01*
G37*
G36*
X4184Y19410D02*
X3500Y20011D01*
X3349Y20035D01*
X4184Y19410D01*
G37*
G36*
X2000Y19410D02*
X4184Y19410D01*
X3349Y20035D01*
X2000Y19410D01*
G37*
G36*
X4349Y20035D02*
X4213Y20104D01*
X4184Y19410D01*
X4349Y20035D01*
G37*
G36*
X4500Y20011D02*
X4349Y20035D01*
X4184Y19410D01*
X4500Y20011D01*
G37*
G36*
X4651Y20035D02*
X4500Y20011D01*
X4184Y19410D01*
X4651Y20035D01*
G37*
G36*
X4184Y19410D02*
X4787Y20104D01*
X4651Y20035D01*
X4184Y19410D01*
G37*
G36*
X4787Y20104D02*
X4184Y19410D01*
X5064Y20290D01*
X4787Y20104D01*
G37*
G36*
X4787Y20104D02*
X5064Y20290D01*
X4896Y20213D01*
X4787Y20104D01*
G37*
G36*
X5064Y20290D02*
X4965Y20349D01*
X4896Y20213D01*
X5064Y20290D01*
G37*
G36*
X5034Y20349D02*
X4965Y20349D01*
X5064Y20290D01*
X5034Y20349D01*
G37*
G36*
X5034Y20349D02*
X5010Y20500D01*
X4965Y20349D01*
X5034Y20349D01*
G37*
G36*
X5010Y20500D02*
X4989Y20500D01*
X4965Y20349D01*
X5010Y20500D01*
G37*
G36*
X4965Y20651D02*
X4989Y20500D01*
X5010Y20500D01*
X4965Y20651D01*
G37*
G36*
X5034Y20651D02*
X4965Y20651D01*
X5010Y20500D01*
X5034Y20651D01*
G37*
G36*
X4896Y20787D02*
X4965Y20651D01*
X5034Y20651D01*
X4896Y20787D01*
G37*
G36*
X4896Y20787D02*
X5034Y20651D01*
X5104Y20788D01*
X4896Y20787D01*
G37*
G36*
X4787Y20896D02*
X4896Y20787D01*
X5104Y20788D01*
X4787Y20896D01*
G37*
G36*
X4787Y20896D02*
X5104Y20788D01*
X5212Y20896D01*
X4787Y20896D01*
G37*
G36*
X5209Y21600D02*
X4787Y20896D01*
X5212Y20896D01*
X5209Y21600D01*
G37*
G36*
X5209Y21600D02*
X5212Y20896D01*
X5347Y21529D01*
X5209Y21600D01*
G37*
G36*
X5347Y21529D02*
X5212Y20896D01*
X5349Y20966D01*
X5347Y21529D01*
G37*
G36*
X5347Y21529D02*
X5349Y20966D01*
X5500Y21505D01*
X5347Y21529D01*
G37*
G36*
X5349Y20966D02*
X5500Y20990D01*
X5500Y21505D01*
X5349Y20966D01*
G37*
G36*
X5500Y21505D02*
X5500Y20990D01*
X5651Y20966D01*
X5500Y21505D01*
G37*
G36*
X5500Y21505D02*
X5651Y20966D01*
X5653Y21529D01*
X5500Y21505D01*
G37*
G36*
X6137Y21363D02*
X5653Y21529D01*
X5651Y20966D01*
X6137Y21363D01*
G37*
G36*
X6137Y21363D02*
X5651Y20966D01*
X5710Y20936D01*
X6137Y21363D01*
G37*
G36*
X5791Y21600D02*
X5653Y21529D01*
X6137Y21363D01*
X5791Y21600D01*
G37*
G36*
X5900Y21709D02*
X5791Y21600D01*
X6137Y21363D01*
X5900Y21709D01*
G37*
G36*
X6100Y21709D02*
X5900Y21709D01*
X6137Y21363D01*
X6100Y21709D01*
G37*
G36*
X6137Y21363D02*
X6209Y21600D01*
X6100Y21709D01*
X6137Y21363D01*
G37*
G36*
X6170Y21389D02*
X6209Y21600D01*
X6137Y21363D01*
X6170Y21389D01*
G37*
G36*
X6209Y21600D02*
X6170Y21389D01*
X6209Y21405D01*
X6209Y21600D01*
G37*
G36*
X6209Y21600D02*
X6209Y21405D01*
X6250Y21410D01*
X6209Y21600D01*
G37*
G36*
X6209Y21600D02*
X6250Y21410D01*
X6347Y21529D01*
X6209Y21600D01*
G37*
G36*
X6347Y21529D02*
X6250Y21410D01*
X6500Y21505D01*
X6347Y21529D01*
G37*
G36*
X6500Y21505D02*
X6250Y21410D01*
X6684Y21410D01*
X6500Y21505D01*
G37*
G36*
X6653Y21529D02*
X6500Y21505D01*
X6684Y21410D01*
X6653Y21529D01*
G37*
G36*
X6653Y21529D02*
X6684Y21410D01*
X6791Y21600D01*
X6653Y21529D01*
G37*
G36*
X6791Y21600D02*
X6684Y21410D01*
X7060Y21786D01*
X6791Y21600D01*
G37*
G36*
X7060Y21786D02*
X6900Y21709D01*
X6791Y21600D01*
X7060Y21786D01*
G37*
G36*
X6971Y21847D02*
X6900Y21709D01*
X7060Y21786D01*
X6971Y21847D01*
G37*
G36*
X7029Y21847D02*
X6971Y21847D01*
X7060Y21786D01*
X7029Y21847D01*
G37*
G36*
X7029Y21847D02*
X7005Y22000D01*
X6971Y21847D01*
X7029Y21847D01*
G37*
G36*
X7005Y22000D02*
X6995Y22000D01*
X6971Y21847D01*
X7005Y22000D01*
G37*
G36*
X6995Y22000D02*
X7005Y22000D01*
X7029Y22153D01*
X6995Y22000D01*
G37*
G36*
X6971Y22153D02*
X6995Y22000D01*
X7029Y22153D01*
X6971Y22153D01*
G37*
G36*
X6971Y22153D02*
X7029Y22153D01*
X7100Y22291D01*
X6971Y22153D01*
G37*
G36*
X6900Y22291D02*
X6971Y22153D01*
X7100Y22291D01*
X6900Y22291D01*
G37*
G36*
X6900Y22291D02*
X7100Y22291D01*
X7130Y22580D01*
X6900Y22291D01*
G37*
G36*
X7130Y22580D02*
X7100Y22291D01*
X7209Y22400D01*
X7130Y22580D01*
G37*
G36*
X7130Y22580D02*
X7209Y22400D01*
X7340Y22467D01*
X7130Y22580D01*
G37*
G36*
X7130Y22580D02*
X7340Y22467D01*
X7340Y22580D01*
X7130Y22580D01*
G37*
G36*
X7130Y22580D02*
X6870Y22580D01*
X6900Y22291D01*
X7130Y22580D01*
G37*
G36*
X6870Y22580D02*
X6791Y22400D01*
X6900Y22291D01*
X6870Y22580D01*
G37*
G36*
X6870Y22580D02*
X6660Y22467D01*
X6791Y22400D01*
X6870Y22580D01*
G37*
G36*
X6870Y22580D02*
X6660Y22580D01*
X6660Y22467D01*
X6870Y22580D01*
G37*
G36*
X7130Y23255D02*
X6870Y22580D01*
X7130Y22580D01*
X7130Y23255D01*
G37*
G36*
X6870Y22580D02*
X7130Y23255D01*
X6870Y23255D01*
X6870Y22580D01*
G37*
G36*
X5971Y21847D02*
X5900Y21709D01*
X6100Y21709D01*
X5971Y21847D01*
G37*
G36*
X6029Y21847D02*
X5971Y21847D01*
X6100Y21709D01*
X6029Y21847D01*
G37*
G36*
X6029Y21847D02*
X6005Y22000D01*
X5971Y21847D01*
X6029Y21847D01*
G37*
G36*
X6005Y22000D02*
X5995Y22000D01*
X5971Y21847D01*
X6005Y22000D01*
G37*
G36*
X5995Y22000D02*
X6005Y22000D01*
X6029Y22153D01*
X5995Y22000D01*
G37*
G36*
X5971Y22153D02*
X5995Y22000D01*
X6029Y22153D01*
X5971Y22153D01*
G37*
G36*
X5971Y22153D02*
X6029Y22153D01*
X6100Y22291D01*
X5971Y22153D01*
G37*
G36*
X5900Y22291D02*
X5971Y22153D01*
X6100Y22291D01*
X5900Y22291D01*
G37*
G36*
X5900Y22291D02*
X6100Y22291D01*
X6130Y22580D01*
X5900Y22291D01*
G37*
G36*
X6130Y22580D02*
X6100Y22291D01*
X6209Y22400D01*
X6130Y22580D01*
G37*
G36*
X6130Y22580D02*
X6209Y22400D01*
X6340Y22467D01*
X6130Y22580D01*
G37*
G36*
X6130Y22580D02*
X6340Y22467D01*
X6340Y22580D01*
X6130Y22580D01*
G37*
G36*
X6130Y22580D02*
X5870Y22580D01*
X5900Y22291D01*
X6130Y22580D01*
G37*
G36*
X5870Y22580D02*
X5791Y22400D01*
X5900Y22291D01*
X5870Y22580D01*
G37*
G36*
X5870Y22580D02*
X5660Y22467D01*
X5791Y22400D01*
X5870Y22580D01*
G37*
G36*
X5870Y22580D02*
X5660Y22580D01*
X5660Y22467D01*
X5870Y22580D01*
G37*
G36*
X6130Y23255D02*
X5870Y22580D01*
X6130Y22580D01*
X6130Y23255D01*
G37*
G36*
X5870Y22580D02*
X6130Y23255D01*
X5870Y23255D01*
X5870Y22580D01*
G37*
G36*
X5209Y21600D02*
X4790Y21600D01*
X4787Y20896D01*
X5209Y21600D01*
G37*
G36*
X4790Y21600D02*
X4653Y21530D01*
X4787Y20896D01*
X4790Y21600D01*
G37*
G36*
X4653Y21530D02*
X4651Y20965D01*
X4787Y20896D01*
X4653Y21530D01*
G37*
G36*
X4500Y21506D02*
X4651Y20965D01*
X4653Y21530D01*
X4500Y21506D01*
G37*
G36*
X4500Y21506D02*
X4500Y20989D01*
X4651Y20965D01*
X4500Y21506D01*
G37*
G36*
X4349Y20965D02*
X4500Y20989D01*
X4500Y21506D01*
X4349Y20965D01*
G37*
G36*
X4347Y21530D02*
X4349Y20965D01*
X4500Y21506D01*
X4347Y21530D01*
G37*
G36*
X4347Y21530D02*
X4213Y20896D01*
X4349Y20965D01*
X4347Y21530D01*
G37*
G36*
X4210Y21600D02*
X4213Y20896D01*
X4347Y21530D01*
X4210Y21600D01*
G37*
G36*
X4210Y21600D02*
X4104Y20787D01*
X4213Y20896D01*
X4210Y21600D01*
G37*
G36*
X4100Y21710D02*
X4104Y20787D01*
X4210Y21600D01*
X4100Y21710D01*
G37*
G36*
X5100Y21709D02*
X4790Y21600D01*
X5209Y21600D01*
X5100Y21709D01*
G37*
G36*
X4900Y21710D02*
X4790Y21600D01*
X5100Y21709D01*
X4900Y21710D01*
G37*
G36*
X5029Y21847D02*
X4900Y21710D01*
X5100Y21709D01*
X5029Y21847D01*
G37*
G36*
X4970Y21847D02*
X4900Y21710D01*
X5029Y21847D01*
X4970Y21847D01*
G37*
G36*
X5029Y21847D02*
X5005Y22000D01*
X4970Y21847D01*
X5029Y21847D01*
G37*
G36*
X5005Y22000D02*
X4994Y22000D01*
X4970Y21847D01*
X5005Y22000D01*
G37*
G36*
X4970Y22153D02*
X4994Y22000D01*
X5005Y22000D01*
X4970Y22153D01*
G37*
G36*
X5029Y22153D02*
X4970Y22153D01*
X5005Y22000D01*
X5029Y22153D01*
G37*
G36*
X4900Y22290D02*
X4970Y22153D01*
X5029Y22153D01*
X4900Y22290D01*
G37*
G36*
X4900Y22290D02*
X5029Y22153D01*
X5100Y22291D01*
X4900Y22290D01*
G37*
G36*
X4870Y22580D02*
X4900Y22290D01*
X5100Y22291D01*
X4870Y22580D01*
G37*
G36*
X4870Y22580D02*
X5100Y22291D01*
X5130Y22580D01*
X4870Y22580D01*
G37*
G36*
X5130Y22580D02*
X5100Y22291D01*
X5209Y22400D01*
X5130Y22580D01*
G37*
G36*
X5130Y22580D02*
X5209Y22400D01*
X5340Y22467D01*
X5130Y22580D01*
G37*
G36*
X5130Y22580D02*
X5340Y22467D01*
X5340Y22580D01*
X5130Y22580D01*
G37*
G36*
X5130Y23255D02*
X4870Y22580D01*
X5130Y22580D01*
X5130Y23255D01*
G37*
G36*
X5130Y23255D02*
X4870Y23255D01*
X4870Y22580D01*
X5130Y23255D01*
G37*
G36*
X4870Y22580D02*
X4790Y22400D01*
X4900Y22290D01*
X4870Y22580D01*
G37*
G36*
X4653Y22470D02*
X4790Y22400D01*
X4870Y22580D01*
X4653Y22470D01*
G37*
G36*
X4500Y22494D02*
X4653Y22470D01*
X4870Y22580D01*
X4500Y22494D01*
G37*
G36*
X4870Y22580D02*
X4130Y22580D01*
X4500Y22494D01*
X4870Y22580D01*
G37*
G36*
X4130Y22580D02*
X4347Y22470D01*
X4500Y22494D01*
X4130Y22580D01*
G37*
G36*
X4130Y22580D02*
X4210Y22400D01*
X4347Y22470D01*
X4130Y22580D01*
G37*
G36*
X4130Y22580D02*
X4100Y22290D01*
X4210Y22400D01*
X4130Y22580D01*
G37*
G36*
X4030Y22153D02*
X4100Y22290D01*
X4130Y22580D01*
X4030Y22153D01*
G37*
G36*
X2244Y22329D02*
X4030Y22153D01*
X4130Y22580D01*
X2244Y22329D01*
G37*
G36*
X4130Y22580D02*
X2208Y22401D01*
X2244Y22329D01*
X4130Y22580D01*
G37*
G36*
X4130Y23255D02*
X2208Y22401D01*
X4130Y22580D01*
X4130Y23255D01*
G37*
G36*
X2151Y22458D02*
X2208Y22401D01*
X4130Y23255D01*
X2151Y22458D01*
G37*
G36*
X2079Y22494D02*
X2151Y22458D01*
X4130Y23255D01*
X2079Y22494D01*
G37*
G36*
X2000Y22506D02*
X2079Y22494D01*
X4130Y23255D01*
X2000Y22506D01*
G37*
G36*
X4130Y23255D02*
X1414Y22664D01*
X2000Y22506D01*
X4130Y23255D01*
G37*
G36*
X1414Y22664D02*
X1921Y22494D01*
X2000Y22506D01*
X1414Y22664D01*
G37*
G36*
X1414Y22664D02*
X1849Y22458D01*
X1921Y22494D01*
X1414Y22664D01*
G37*
G36*
X1414Y22664D02*
X1801Y22409D01*
X1849Y22458D01*
X1414Y22664D01*
G37*
G36*
X1414Y22664D02*
X1414Y22409D01*
X1801Y22409D01*
X1414Y22664D01*
G37*
G36*
X4030Y22153D02*
X2244Y22329D01*
X2256Y22250D01*
X4030Y22153D01*
G37*
G36*
X2651Y20965D02*
X2256Y22250D01*
X2244Y22171D01*
X2651Y20965D01*
G37*
G36*
X2651Y20965D02*
X2244Y22171D01*
X2208Y22099D01*
X2651Y20965D01*
G37*
G36*
X2500Y20989D02*
X2651Y20965D01*
X2208Y22099D01*
X2500Y20989D01*
G37*
G36*
X2208Y22099D02*
X2151Y22042D01*
X2500Y20989D01*
X2208Y22099D01*
G37*
G36*
X2151Y22042D02*
X2079Y22006D01*
X2500Y20989D01*
X2151Y22042D01*
G37*
G36*
X2500Y20989D02*
X2079Y22006D01*
X2349Y20965D01*
X2500Y20989D01*
G37*
G36*
X2079Y22006D02*
X2000Y21994D01*
X2349Y20965D01*
X2079Y22006D01*
G37*
G36*
X2000Y21994D02*
X2213Y20896D01*
X2349Y20965D01*
X2000Y21994D01*
G37*
G36*
X2000Y21994D02*
X1787Y20896D01*
X2213Y20896D01*
X2000Y21994D01*
G37*
G36*
X1787Y20896D02*
X2104Y20787D01*
X2213Y20896D01*
X1787Y20896D01*
G37*
G36*
X2104Y20787D02*
X1787Y20896D01*
X1896Y20787D01*
X2104Y20787D01*
G37*
G36*
X1896Y20787D02*
X1965Y20651D01*
X2104Y20787D01*
X1896Y20787D01*
G37*
G36*
X1965Y20651D02*
X2035Y20651D01*
X2104Y20787D01*
X1965Y20651D01*
G37*
G36*
X1965Y20651D02*
X1989Y20500D01*
X2035Y20651D01*
X1965Y20651D01*
G37*
G36*
X1989Y20500D02*
X2011Y20500D01*
X2035Y20651D01*
X1989Y20500D01*
G37*
G36*
X2011Y20500D02*
X1989Y20500D01*
X1965Y20349D01*
X2011Y20500D01*
G37*
G36*
X2035Y20349D02*
X2011Y20500D01*
X1965Y20349D01*
X2035Y20349D01*
G37*
G36*
X2035Y20349D02*
X1965Y20349D01*
X1896Y20213D01*
X2035Y20349D01*
G37*
G36*
X2104Y20213D02*
X2035Y20349D01*
X1896Y20213D01*
X2104Y20213D01*
G37*
G36*
X2104Y20213D02*
X1896Y20213D01*
X2213Y20104D01*
X2104Y20213D01*
G37*
G36*
X1896Y20213D02*
X1787Y20104D01*
X2213Y20104D01*
X1896Y20213D01*
G37*
G36*
X1651Y20965D02*
X1787Y20896D01*
X2000Y21994D01*
X1651Y20965D01*
G37*
G36*
X1921Y22006D02*
X1651Y20965D01*
X2000Y21994D01*
X1921Y22006D01*
G37*
G36*
X1651Y20965D02*
X1921Y22006D01*
X1414Y21836D01*
X1651Y20965D01*
G37*
G36*
X1921Y22006D02*
X1849Y22042D01*
X1414Y21836D01*
X1921Y22006D01*
G37*
G36*
X1849Y22042D02*
X1801Y22091D01*
X1414Y21836D01*
X1849Y22042D01*
G37*
G36*
X1414Y21836D02*
X1801Y22091D01*
X1414Y22091D01*
X1414Y21836D01*
G37*
G36*
X1651Y20965D02*
X1414Y21836D01*
X1500Y20989D01*
X1651Y20965D01*
G37*
G36*
X1414Y21836D02*
X1349Y20965D01*
X1500Y20989D01*
X1414Y21836D01*
G37*
G36*
X1414Y21836D02*
X1213Y20896D01*
X1349Y20965D01*
X1414Y21836D01*
G37*
G36*
X1414Y21836D02*
X586Y21836D01*
X1213Y20896D01*
X1414Y21836D01*
G37*
G36*
X586Y21836D02*
X1104Y20787D01*
X1213Y20896D01*
X586Y21836D01*
G37*
G36*
X586Y21836D02*
X1035Y20651D01*
X1104Y20787D01*
X586Y21836D01*
G37*
G36*
X586Y21836D02*
X1011Y20500D01*
X1035Y20651D01*
X586Y21836D01*
G37*
G36*
X506Y5250D02*
X262Y6762D01*
X245Y6784D01*
X506Y5250D01*
G37*
G36*
X245Y6784D02*
X506Y4250D01*
X506Y5250D01*
X245Y6784D01*
G37*
G36*
X506Y5250D02*
X506Y4250D01*
X530Y5097D01*
X506Y5250D01*
G37*
G36*
X506Y4250D02*
X530Y4403D01*
X530Y5097D01*
X506Y4250D01*
G37*
G36*
X530Y5097D02*
X530Y4403D01*
X600Y4540D01*
X530Y5097D01*
G37*
G36*
X600Y4960D02*
X530Y5097D01*
X600Y4540D01*
X600Y4960D01*
G37*
G36*
X600Y4960D02*
X600Y4540D01*
X710Y4650D01*
X600Y4960D01*
G37*
G36*
X710Y4850D02*
X600Y4960D01*
X710Y4650D01*
X710Y4850D01*
G37*
G36*
X710Y4850D02*
X710Y4650D01*
X847Y4720D01*
X710Y4850D01*
G37*
G36*
X847Y4780D02*
X710Y4850D01*
X847Y4720D01*
X847Y4780D01*
G37*
G36*
X847Y4780D02*
X847Y4720D01*
X1000Y4744D01*
X847Y4780D01*
G37*
G36*
X1000Y4756D02*
X847Y4780D01*
X1000Y4744D01*
X1000Y4756D01*
G37*
G36*
X1153Y4780D02*
X1000Y4756D01*
X1000Y4744D01*
X1153Y4780D01*
G37*
G36*
X1153Y4780D02*
X1000Y4744D01*
X1153Y4720D01*
X1153Y4780D01*
G37*
G36*
X1153Y4780D02*
X1153Y4720D01*
X1290Y4650D01*
X1153Y4780D01*
G37*
G36*
X1153Y4780D02*
X1290Y4650D01*
X1290Y4850D01*
X1153Y4780D01*
G37*
G36*
X1400Y4960D02*
X1290Y4850D01*
X1290Y4650D01*
X1400Y4960D01*
G37*
G36*
X1400Y4960D02*
X1290Y4650D01*
X1400Y4540D01*
X1400Y4960D01*
G37*
G36*
X1400Y4960D02*
X1400Y4540D01*
X2006Y4750D01*
X1400Y4960D01*
G37*
G36*
X2006Y4750D02*
X1400Y4540D01*
X2030Y4597D01*
X2006Y4750D01*
G37*
G36*
X2030Y4597D02*
X1400Y4540D01*
X1470Y4403D01*
X2030Y4597D01*
G37*
G36*
X2030Y4597D02*
X1470Y4403D01*
X2100Y4460D01*
X2030Y4597D01*
G37*
G36*
X1470Y4403D02*
X1494Y4250D01*
X2100Y4460D01*
X1470Y4403D01*
G37*
G36*
X1494Y4250D02*
X2100Y4040D01*
X2100Y4460D01*
X1494Y4250D01*
G37*
G36*
X2100Y4460D02*
X2100Y4040D01*
X2210Y4150D01*
X2100Y4460D01*
G37*
G36*
X2210Y4350D02*
X2100Y4460D01*
X2210Y4150D01*
X2210Y4350D01*
G37*
G36*
X2210Y4350D02*
X2210Y4150D01*
X2347Y4220D01*
X2210Y4350D01*
G37*
G36*
X2347Y4280D02*
X2210Y4350D01*
X2347Y4220D01*
X2347Y4280D01*
G37*
G36*
X2347Y4280D02*
X2347Y4220D01*
X2500Y4244D01*
X2347Y4280D01*
G37*
G36*
X2500Y4256D02*
X2347Y4280D01*
X2500Y4244D01*
X2500Y4256D01*
G37*
G36*
X2653Y4280D02*
X2500Y4256D01*
X2500Y4244D01*
X2653Y4280D01*
G37*
G36*
X2653Y4280D02*
X2500Y4244D01*
X2653Y4220D01*
X2653Y4280D01*
G37*
G36*
X2653Y4280D02*
X2653Y4220D01*
X2790Y4150D01*
X2653Y4280D01*
G37*
G36*
X2653Y4280D02*
X2790Y4150D01*
X2790Y4350D01*
X2653Y4280D01*
G37*
G36*
X2900Y4460D02*
X2790Y4350D01*
X2790Y4150D01*
X2900Y4460D01*
G37*
G36*
X2900Y4460D02*
X2790Y4150D01*
X2900Y4040D01*
X2900Y4460D01*
G37*
G36*
X2970Y4597D02*
X2900Y4460D01*
X2900Y4040D01*
X2970Y4597D01*
G37*
G36*
X2970Y4597D02*
X2900Y4040D01*
X2970Y3903D01*
X2970Y4597D01*
G37*
G36*
X2970Y4597D02*
X2970Y3903D01*
X2994Y3750D01*
X2970Y4597D01*
G37*
G36*
X2970Y4597D02*
X2994Y3750D01*
X2994Y4750D01*
X2970Y4597D01*
G37*
G36*
X2994Y4750D02*
X2994Y3750D01*
X11006Y3750D01*
X2994Y4750D01*
G37*
G36*
X11006Y3750D02*
X2994Y3750D01*
X11030Y3597D01*
X11006Y3750D01*
G37*
G36*
X2994Y3750D02*
X2970Y3597D01*
X11030Y3597D01*
X2994Y3750D01*
G37*
G36*
X11030Y3597D02*
X2970Y3597D01*
X11100Y3460D01*
X11030Y3597D01*
G37*
G36*
X2970Y3597D02*
X2900Y3460D01*
X11100Y3460D01*
X2970Y3597D01*
G37*
G36*
X11100Y3460D02*
X2900Y3460D01*
X11210Y3350D01*
X11100Y3460D01*
G37*
G36*
X2900Y3460D02*
X2790Y3350D01*
X11210Y3350D01*
X2900Y3460D01*
G37*
G36*
X12951Y1710D02*
X11210Y3350D01*
X2790Y3350D01*
X12951Y1710D01*
G37*
G36*
X2653Y3280D02*
X12951Y1710D01*
X2790Y3350D01*
X2653Y3280D01*
G37*
G36*
X2500Y3256D02*
X12951Y1710D01*
X2653Y3280D01*
X2500Y3256D01*
G37*
G36*
X13107Y1403D02*
X12951Y1710D01*
X2500Y3256D01*
X13107Y1403D01*
G37*
G36*
X13107Y1403D02*
X2500Y3256D01*
X245Y245D01*
X13107Y1403D01*
G37*
G36*
X2347Y3280D02*
X245Y245D01*
X2500Y3256D01*
X2347Y3280D01*
G37*
G36*
X2210Y3350D02*
X245Y245D01*
X2347Y3280D01*
X2210Y3350D01*
G37*
G36*
X2210Y3350D02*
X1000Y3756D01*
X245Y245D01*
X2210Y3350D01*
G37*
G36*
X847Y3780D02*
X245Y245D01*
X1000Y3756D01*
X847Y3780D01*
G37*
G36*
X710Y3850D02*
X245Y245D01*
X847Y3780D01*
X710Y3850D01*
G37*
G36*
X600Y3960D02*
X245Y245D01*
X710Y3850D01*
X600Y3960D01*
G37*
G36*
X530Y4097D02*
X245Y245D01*
X600Y3960D01*
X530Y4097D01*
G37*
G36*
X506Y4250D02*
X245Y245D01*
X530Y4097D01*
X506Y4250D01*
G37*
G36*
X506Y4250D02*
X245Y6784D01*
X245Y245D01*
X506Y4250D01*
G37*
G36*
X2210Y3350D02*
X2100Y3460D01*
X1000Y3756D01*
X2210Y3350D01*
G37*
G36*
X2100Y3460D02*
X2030Y3597D01*
X1000Y3756D01*
X2100Y3460D01*
G37*
G36*
X2030Y3597D02*
X1153Y3780D01*
X1000Y3756D01*
X2030Y3597D01*
G37*
G36*
X2030Y3597D02*
X1290Y3850D01*
X1153Y3780D01*
X2030Y3597D01*
G37*
G36*
X2006Y3750D02*
X1290Y3850D01*
X2030Y3597D01*
X2006Y3750D01*
G37*
G36*
X1400Y3960D02*
X1290Y3850D01*
X2006Y3750D01*
X1400Y3960D01*
G37*
G36*
X1400Y3960D02*
X2006Y3750D01*
X2030Y3903D01*
X1400Y3960D01*
G37*
G36*
X1470Y4097D02*
X1400Y3960D01*
X2030Y3903D01*
X1470Y4097D01*
G37*
G36*
X2100Y4040D02*
X1470Y4097D01*
X2030Y3903D01*
X2100Y4040D01*
G37*
G36*
X2100Y4040D02*
X1494Y4250D01*
X1470Y4097D01*
X2100Y4040D01*
G37*
G36*
X13107Y1403D02*
X245Y245D01*
X13352Y1159D01*
X13107Y1403D01*
G37*
G36*
X13352Y1159D02*
X245Y245D01*
X13659Y1002D01*
X13352Y1159D01*
G37*
G36*
X13659Y1002D02*
X245Y245D01*
X14000Y948D01*
X13659Y1002D01*
G37*
G36*
X20755Y245D02*
X14000Y948D01*
X245Y245D01*
X20755Y245D01*
G37*
G36*
X20755Y245D02*
X17750Y756D01*
X14000Y948D01*
X20755Y245D01*
G37*
G36*
X17750Y756D02*
X17597Y780D01*
X14000Y948D01*
X17750Y756D01*
G37*
G36*
X17597Y780D02*
X14341Y1002D01*
X14000Y948D01*
X17597Y780D01*
G37*
G36*
X17597Y780D02*
X17460Y850D01*
X14341Y1002D01*
X17597Y780D01*
G37*
G36*
X17460Y850D02*
X14648Y1159D01*
X14341Y1002D01*
X17460Y850D01*
G37*
G36*
X17460Y850D02*
X17350Y960D01*
X14648Y1159D01*
X17460Y850D01*
G37*
G36*
X17350Y960D02*
X14893Y1403D01*
X14648Y1159D01*
X17350Y960D01*
G37*
G36*
X17350Y960D02*
X17280Y1097D01*
X14893Y1403D01*
X17350Y960D01*
G37*
G36*
X17280Y1097D02*
X15870Y2129D01*
X14893Y1403D01*
X17280Y1097D01*
G37*
G36*
X15870Y2129D02*
X15049Y1710D01*
X14893Y1403D01*
X15870Y2129D01*
G37*
G36*
X15870Y2129D02*
X15529Y2183D01*
X15049Y1710D01*
X15870Y2129D01*
G37*
G36*
X15049Y1710D02*
X15529Y2183D01*
X15103Y2051D01*
X15049Y1710D01*
G37*
G36*
X15222Y2340D02*
X15103Y2051D01*
X15529Y2183D01*
X15222Y2340D01*
G37*
G36*
X15049Y2392D02*
X15103Y2051D01*
X15222Y2340D01*
X15049Y2392D01*
G37*
G36*
X14978Y2584D02*
X15049Y2392D01*
X15222Y2340D01*
X14978Y2584D01*
G37*
G36*
X14978Y2584D02*
X14893Y2700D01*
X15049Y2392D01*
X14978Y2584D01*
G37*
G36*
X14821Y2891D02*
X14893Y2700D01*
X14978Y2584D01*
X14821Y2891D01*
G37*
G36*
X14821Y2891D02*
X14648Y2944D01*
X14893Y2700D01*
X14821Y2891D01*
G37*
G36*
X14767Y3232D02*
X14648Y2944D01*
X14821Y2891D01*
X14767Y3232D01*
G37*
G36*
X14341Y3100D02*
X14648Y2944D01*
X14767Y3232D01*
X14341Y3100D01*
G37*
G36*
X14341Y3364D02*
X14341Y3100D01*
X14767Y3232D01*
X14341Y3364D01*
G37*
G36*
X14648Y3521D02*
X14341Y3364D01*
X14767Y3232D01*
X14648Y3521D01*
G37*
G36*
X14648Y3521D02*
X14767Y3232D01*
X14821Y3573D01*
X14648Y3521D01*
G37*
G36*
X14648Y3521D02*
X14821Y3573D01*
X14893Y3765D01*
X14648Y3521D01*
G37*
G36*
X14978Y3881D02*
X14893Y3765D01*
X14821Y3573D01*
X14978Y3881D01*
G37*
G36*
X14893Y3765D02*
X14978Y3881D01*
X15049Y4073D01*
X14893Y3765D01*
G37*
G36*
X14978Y3881D02*
X15222Y4125D01*
X15049Y4073D01*
X14978Y3881D01*
G37*
G36*
X15103Y4413D02*
X15049Y4073D01*
X15222Y4125D01*
X15103Y4413D01*
G37*
G36*
X15103Y4413D02*
X15222Y4125D01*
X15529Y4282D01*
X15103Y4413D01*
G37*
G36*
X15529Y4282D02*
X15049Y4754D01*
X15103Y4413D01*
X15529Y4282D01*
G37*
G36*
X15529Y4282D02*
X16041Y4750D01*
X15049Y4754D01*
X15529Y4282D01*
G37*
G36*
X16041Y4750D02*
X15092Y5291D01*
X15049Y4754D01*
X16041Y4750D01*
G37*
G36*
X14893Y5062D02*
X15049Y4754D01*
X15092Y5291D01*
X14893Y5062D01*
G37*
G36*
X14886Y5068D02*
X14893Y5062D01*
X15092Y5291D01*
X14886Y5068D01*
G37*
G36*
X16041Y5291D02*
X15092Y5291D01*
X16041Y4750D01*
X16041Y5291D01*
G37*
G36*
X16041Y4750D02*
X15529Y4282D01*
X15870Y4336D01*
X16041Y4750D01*
G37*
G36*
X16041Y4750D02*
X15870Y4336D01*
X16048Y4696D01*
X16041Y4750D01*
G37*
G36*
X16048Y4696D02*
X15870Y4336D01*
X16069Y4646D01*
X16048Y4696D01*
G37*
G36*
X16069Y4646D02*
X15870Y4336D01*
X16102Y4602D01*
X16069Y4646D01*
G37*
G36*
X16102Y4602D02*
X15870Y4336D01*
X16211Y4282D01*
X16102Y4602D01*
G37*
G36*
X16102Y4602D02*
X16211Y4282D01*
X16519Y4125D01*
X16102Y4602D01*
G37*
G36*
X16102Y4602D02*
X16519Y4125D01*
X16763Y3881D01*
X16102Y4602D01*
G37*
G36*
X16102Y4602D02*
X16763Y3881D01*
X17287Y3417D01*
X16102Y4602D01*
G37*
G36*
X16919Y3573D02*
X17287Y3417D01*
X16763Y3881D01*
X16919Y3573D01*
G37*
G36*
X17287Y3417D02*
X16919Y3573D01*
X17280Y3403D01*
X17287Y3417D01*
G37*
G36*
X17280Y3403D02*
X16919Y3573D01*
X16973Y3232D01*
X17280Y3403D01*
G37*
G36*
X17280Y3403D02*
X16973Y3232D01*
X17256Y3250D01*
X17280Y3403D01*
G37*
G36*
X17256Y3250D02*
X16973Y3232D01*
X17280Y3097D01*
X17256Y3250D01*
G37*
G36*
X16973Y3232D02*
X16919Y2891D01*
X17280Y3097D01*
X16973Y3232D01*
G37*
G36*
X17280Y3097D02*
X16919Y2891D01*
X17350Y2960D01*
X17280Y3097D01*
G37*
G36*
X17350Y2960D02*
X16919Y2891D01*
X17460Y2850D01*
X17350Y2960D01*
G37*
G36*
X16919Y2891D02*
X16763Y2584D01*
X17460Y2850D01*
X16919Y2891D01*
G37*
G36*
X17460Y2850D02*
X16763Y2584D01*
X17597Y2780D01*
X17460Y2850D01*
G37*
G36*
X17597Y2780D02*
X16763Y2584D01*
X17597Y1720D01*
X17597Y2780D01*
G37*
G36*
X16763Y2584D02*
X17460Y1650D01*
X17597Y1720D01*
X16763Y2584D01*
G37*
G36*
X17460Y1650D02*
X16763Y2584D01*
X16519Y2340D01*
X17460Y1650D01*
G37*
G36*
X17460Y1650D02*
X16519Y2340D01*
X17350Y1540D01*
X17460Y1650D01*
G37*
G36*
X17350Y1540D02*
X16519Y2340D01*
X17280Y1403D01*
X17350Y1540D01*
G37*
G36*
X17280Y1403D02*
X16519Y2340D01*
X16211Y2183D01*
X17280Y1403D01*
G37*
G36*
X17280Y1403D02*
X16211Y2183D01*
X17256Y1250D01*
X17280Y1403D01*
G37*
G36*
X15870Y2129D02*
X17256Y1250D01*
X16211Y2183D01*
X15870Y2129D01*
G37*
G36*
X17280Y1097D02*
X17256Y1250D01*
X15870Y2129D01*
X17280Y1097D01*
G37*
G36*
X17597Y2780D02*
X17597Y1720D01*
X17750Y2756D01*
X17597Y2780D01*
G37*
G36*
X17597Y1720D02*
X17750Y1744D01*
X17750Y2756D01*
X17597Y1720D01*
G37*
G36*
X17750Y2756D02*
X17750Y1744D01*
X17903Y1720D01*
X17750Y2756D01*
G37*
G36*
X17750Y2756D02*
X17903Y1720D01*
X17903Y2780D01*
X17750Y2756D01*
G37*
G36*
X17903Y2780D02*
X17903Y1720D01*
X18040Y1650D01*
X17903Y2780D01*
G37*
G36*
X17903Y2780D02*
X18040Y1650D01*
X18040Y2850D01*
X17903Y2780D01*
G37*
G36*
X18040Y2850D02*
X18040Y1650D01*
X18150Y1540D01*
X18040Y2850D01*
G37*
G36*
X18040Y2850D02*
X18150Y1540D01*
X18150Y2960D01*
X18040Y2850D01*
G37*
G36*
X18150Y1540D02*
X19460Y2850D01*
X18150Y2960D01*
X18150Y1540D01*
G37*
G36*
X19350Y2960D02*
X18150Y2960D01*
X19460Y2850D01*
X19350Y2960D01*
G37*
G36*
X18220Y3097D02*
X18150Y2960D01*
X19350Y2960D01*
X18220Y3097D01*
G37*
G36*
X19280Y3097D02*
X18220Y3097D01*
X19350Y2960D01*
X19280Y3097D01*
G37*
G36*
X19280Y3097D02*
X19256Y3250D01*
X18220Y3097D01*
X19280Y3097D01*
G37*
G36*
X19256Y3250D02*
X18244Y3250D01*
X18220Y3097D01*
X19256Y3250D01*
G37*
G36*
X18244Y3250D02*
X19256Y3250D01*
X19280Y3403D01*
X18244Y3250D01*
G37*
G36*
X18220Y3403D02*
X18244Y3250D01*
X19280Y3403D01*
X18220Y3403D01*
G37*
G36*
X18220Y3403D02*
X19280Y3403D01*
X19350Y3540D01*
X18220Y3403D01*
G37*
G36*
X18150Y3540D02*
X18220Y3403D01*
X19350Y3540D01*
X18150Y3540D01*
G37*
G36*
X18150Y3540D02*
X19350Y3540D01*
X19460Y3650D01*
X18150Y3540D01*
G37*
G36*
X18040Y3650D02*
X18150Y3540D01*
X19460Y3650D01*
X18040Y3650D01*
G37*
G36*
X17900Y4710D02*
X18040Y3650D01*
X19460Y3650D01*
X17900Y4710D01*
G37*
G36*
X19460Y3650D02*
X17970Y4847D01*
X17900Y4710D01*
X19460Y3650D01*
G37*
G36*
X17970Y4847D02*
X19460Y3650D01*
X19600Y5210D01*
X17970Y4847D01*
G37*
G36*
X19710Y5100D02*
X19600Y5210D01*
X19460Y3650D01*
X19710Y5100D01*
G37*
G36*
X19710Y5100D02*
X19460Y3650D01*
X19597Y3720D01*
X19710Y5100D01*
G37*
G36*
X19847Y5030D02*
X19710Y5100D01*
X19597Y3720D01*
X19847Y5030D01*
G37*
G36*
X19847Y5030D02*
X19597Y3720D01*
X19750Y3744D01*
X19847Y5030D01*
G37*
G36*
X19847Y5030D02*
X19750Y3744D01*
X20000Y5006D01*
X19847Y5030D01*
G37*
G36*
X19750Y3744D02*
X19903Y3720D01*
X20000Y5006D01*
X19750Y3744D01*
G37*
G36*
X20153Y5030D02*
X20000Y5006D01*
X19903Y3720D01*
X20153Y5030D01*
G37*
G36*
X20153Y5030D02*
X19903Y3720D01*
X20040Y3650D01*
X20153Y5030D01*
G37*
G36*
X20153Y5030D02*
X20040Y3650D01*
X20290Y5100D01*
X20153Y5030D01*
G37*
G36*
X20150Y3540D02*
X20290Y5100D01*
X20040Y3650D01*
X20150Y3540D01*
G37*
G36*
X20400Y5210D02*
X20290Y5100D01*
X20150Y3540D01*
X20400Y5210D01*
G37*
G36*
X20400Y5210D02*
X20150Y3540D01*
X20220Y3403D01*
X20400Y5210D01*
G37*
G36*
X20244Y3250D02*
X20400Y5210D01*
X20220Y3403D01*
X20244Y3250D01*
G37*
G36*
X20244Y3250D02*
X20470Y5347D01*
X20400Y5210D01*
X20244Y3250D01*
G37*
G36*
X20755Y245D02*
X20470Y5347D01*
X20244Y3250D01*
X20755Y245D01*
G37*
G36*
X20244Y3250D02*
X20220Y3097D01*
X20755Y245D01*
X20244Y3250D01*
G37*
G36*
X20755Y245D02*
X20220Y3097D01*
X20220Y1403D01*
X20755Y245D01*
G37*
G36*
X20220Y3097D02*
X20150Y1540D01*
X20220Y1403D01*
X20220Y3097D01*
G37*
G36*
X20220Y3097D02*
X20150Y2960D01*
X20150Y1540D01*
X20220Y3097D01*
G37*
G36*
X20040Y2850D02*
X20150Y1540D01*
X20150Y2960D01*
X20040Y2850D01*
G37*
G36*
X20040Y2850D02*
X20040Y1650D01*
X20150Y1540D01*
X20040Y2850D01*
G37*
G36*
X19903Y2780D02*
X20040Y1650D01*
X20040Y2850D01*
X19903Y2780D01*
G37*
G36*
X19903Y2780D02*
X19903Y1720D01*
X20040Y1650D01*
X19903Y2780D01*
G37*
G36*
X19750Y2756D02*
X19903Y1720D01*
X19903Y2780D01*
X19750Y2756D01*
G37*
G36*
X19750Y2756D02*
X19750Y1744D01*
X19903Y1720D01*
X19750Y2756D01*
G37*
G36*
X19597Y1720D02*
X19750Y1744D01*
X19750Y2756D01*
X19597Y1720D01*
G37*
G36*
X19597Y2780D02*
X19597Y1720D01*
X19750Y2756D01*
X19597Y2780D01*
G37*
G36*
X19460Y1650D02*
X19597Y1720D01*
X19597Y2780D01*
X19460Y1650D01*
G37*
G36*
X19460Y2850D02*
X19460Y1650D01*
X19597Y2780D01*
X19460Y2850D01*
G37*
G36*
X19350Y1540D02*
X19460Y1650D01*
X19460Y2850D01*
X19350Y1540D01*
G37*
G36*
X19460Y2850D02*
X18150Y1540D01*
X19350Y1540D01*
X19460Y2850D01*
G37*
G36*
X19350Y1540D02*
X18150Y1540D01*
X18220Y1403D01*
X19350Y1540D01*
G37*
G36*
X18220Y1403D02*
X19280Y1403D01*
X19350Y1540D01*
X18220Y1403D01*
G37*
G36*
X18220Y1403D02*
X18244Y1250D01*
X19280Y1403D01*
X18220Y1403D01*
G37*
G36*
X18244Y1250D02*
X19256Y1250D01*
X19280Y1403D01*
X18244Y1250D01*
G37*
G36*
X19256Y1250D02*
X18244Y1250D01*
X18220Y1097D01*
X19256Y1250D01*
G37*
G36*
X19280Y1097D02*
X19256Y1250D01*
X18220Y1097D01*
X19280Y1097D01*
G37*
G36*
X19280Y1097D02*
X18220Y1097D01*
X19350Y960D01*
X19280Y1097D01*
G37*
G36*
X18220Y1097D02*
X18150Y960D01*
X19350Y960D01*
X18220Y1097D01*
G37*
G36*
X19350Y960D02*
X18150Y960D01*
X19460Y850D01*
X19350Y960D01*
G37*
G36*
X18150Y960D02*
X18040Y850D01*
X19460Y850D01*
X18150Y960D01*
G37*
G36*
X19460Y850D02*
X18040Y850D01*
X19597Y780D01*
X19460Y850D01*
G37*
G36*
X18040Y850D02*
X17903Y780D01*
X19597Y780D01*
X18040Y850D01*
G37*
G36*
X20755Y245D02*
X19597Y780D01*
X17903Y780D01*
X20755Y245D01*
G37*
G36*
X20755Y245D02*
X17903Y780D01*
X17750Y756D01*
X20755Y245D01*
G37*
G36*
X19750Y756D02*
X19597Y780D01*
X20755Y245D01*
X19750Y756D01*
G37*
G36*
X19903Y780D02*
X19750Y756D01*
X20755Y245D01*
X19903Y780D01*
G37*
G36*
X20040Y850D02*
X19903Y780D01*
X20755Y245D01*
X20040Y850D01*
G37*
G36*
X20150Y960D02*
X20040Y850D01*
X20755Y245D01*
X20150Y960D01*
G37*
G36*
X20220Y1097D02*
X20150Y960D01*
X20755Y245D01*
X20220Y1097D01*
G37*
G36*
X20244Y1250D02*
X20220Y1097D01*
X20755Y245D01*
X20244Y1250D01*
G37*
G36*
X20244Y1250D02*
X20755Y245D01*
X20220Y1403D01*
X20244Y1250D01*
G37*
G36*
X20494Y5500D02*
X20470Y5347D01*
X20755Y245D01*
X20494Y5500D01*
G37*
G36*
X20494Y5500D02*
X20755Y245D01*
X20755Y13159D01*
X20494Y5500D01*
G37*
G36*
X20494Y5500D02*
X20755Y13159D01*
X20494Y6500D01*
X20494Y5500D01*
G37*
G36*
X20494Y7500D02*
X20494Y6500D01*
X20755Y13159D01*
X20494Y7500D01*
G37*
G36*
X20755Y13159D02*
X20738Y13137D01*
X20494Y7500D01*
X20755Y13159D01*
G37*
G36*
X20738Y13137D02*
X20494Y8500D01*
X20494Y7500D01*
X20738Y13137D01*
G37*
G36*
X20470Y8347D02*
X20494Y7500D01*
X20494Y8500D01*
X20470Y8347D01*
G37*
G36*
X20470Y8347D02*
X20470Y7653D01*
X20494Y7500D01*
X20470Y8347D01*
G37*
G36*
X20470Y8347D02*
X20400Y7790D01*
X20470Y7653D01*
X20470Y8347D01*
G37*
G36*
X20470Y8347D02*
X20400Y8210D01*
X20400Y7790D01*
X20470Y8347D01*
G37*
G36*
X20400Y8210D02*
X20290Y7900D01*
X20400Y7790D01*
X20400Y8210D01*
G37*
G36*
X20400Y8210D02*
X20290Y8100D01*
X20290Y7900D01*
X20400Y8210D01*
G37*
G36*
X20153Y8030D02*
X20290Y7900D01*
X20290Y8100D01*
X20153Y8030D01*
G37*
G36*
X20153Y8030D02*
X20153Y7970D01*
X20290Y7900D01*
X20153Y8030D01*
G37*
G36*
X20153Y8030D02*
X20000Y7994D01*
X20153Y7970D01*
X20153Y8030D01*
G37*
G36*
X20153Y8030D02*
X20000Y8006D01*
X20000Y7994D01*
X20153Y8030D01*
G37*
G36*
X20000Y8006D02*
X19847Y8030D01*
X20000Y7994D01*
X20000Y8006D01*
G37*
G36*
X19847Y8030D02*
X19847Y7970D01*
X20000Y7994D01*
X19847Y8030D01*
G37*
G36*
X19847Y8030D02*
X19710Y8100D01*
X19847Y7970D01*
X19847Y8030D01*
G37*
G36*
X19710Y8100D02*
X19710Y7900D01*
X19847Y7970D01*
X19710Y8100D01*
G37*
G36*
X19710Y8100D02*
X19600Y8210D01*
X19710Y7900D01*
X19710Y8100D01*
G37*
G36*
X19600Y8210D02*
X19600Y7790D01*
X19710Y7900D01*
X19600Y8210D01*
G37*
G36*
X19600Y7790D02*
X19600Y8210D01*
X19530Y8347D01*
X19600Y7790D01*
G37*
G36*
X19530Y8347D02*
X19530Y7653D01*
X19600Y7790D01*
X19530Y8347D01*
G37*
G36*
X19530Y8347D02*
X17994Y8000D01*
X19530Y7653D01*
X19530Y8347D01*
G37*
G36*
X17994Y8000D02*
X17970Y7847D01*
X19530Y7653D01*
X17994Y8000D01*
G37*
G36*
X17970Y7847D02*
X19506Y7500D01*
X19530Y7653D01*
X17970Y7847D01*
G37*
G36*
X17970Y7847D02*
X17900Y7710D01*
X19506Y7500D01*
X17970Y7847D01*
G37*
G36*
X19506Y7500D02*
X17900Y7710D01*
X19530Y7347D01*
X19506Y7500D01*
G37*
G36*
X19530Y7347D02*
X17900Y7710D01*
X17790Y7600D01*
X19530Y7347D01*
G37*
G36*
X17790Y7600D02*
X17709Y6500D01*
X19530Y7347D01*
X17790Y7600D01*
G37*
G36*
X19530Y7347D02*
X17709Y6500D01*
X17702Y6446D01*
X19530Y7347D01*
G37*
G36*
X17702Y6446D02*
X17900Y5290D01*
X19530Y7347D01*
X17702Y6446D01*
G37*
G36*
X19530Y6653D02*
X19530Y7347D01*
X17900Y5290D01*
X19530Y6653D01*
G37*
G36*
X17900Y5290D02*
X19506Y6500D01*
X19530Y6653D01*
X17900Y5290D01*
G37*
G36*
X19506Y6500D02*
X17900Y5290D01*
X19530Y6347D01*
X19506Y6500D01*
G37*
G36*
X19530Y6347D02*
X17900Y5290D01*
X17970Y5153D01*
X19530Y6347D01*
G37*
G36*
X19530Y5653D02*
X19530Y6347D01*
X17970Y5153D01*
X19530Y5653D01*
G37*
G36*
X17970Y5153D02*
X19506Y5500D01*
X19530Y5653D01*
X17970Y5153D01*
G37*
G36*
X19506Y5500D02*
X17970Y5153D01*
X19530Y5347D01*
X19506Y5500D01*
G37*
G36*
X19530Y5347D02*
X17970Y5153D01*
X17994Y5000D01*
X19530Y5347D01*
G37*
G36*
X19530Y5347D02*
X17994Y5000D01*
X19600Y5210D01*
X19530Y5347D01*
G37*
G36*
X19600Y5210D02*
X17994Y5000D01*
X17970Y4847D01*
X19600Y5210D01*
G37*
G36*
X19530Y6347D02*
X19530Y5653D01*
X19600Y5790D01*
X19530Y6347D01*
G37*
G36*
X19600Y6210D02*
X19530Y6347D01*
X19600Y5790D01*
X19600Y6210D01*
G37*
G36*
X19600Y6210D02*
X19600Y5790D01*
X19710Y5900D01*
X19600Y6210D01*
G37*
G36*
X19710Y6100D02*
X19600Y6210D01*
X19710Y5900D01*
X19710Y6100D01*
G37*
G36*
X19710Y6100D02*
X19710Y5900D01*
X19847Y5970D01*
X19710Y6100D01*
G37*
G36*
X19847Y6030D02*
X19710Y6100D01*
X19847Y5970D01*
X19847Y6030D01*
G37*
G36*
X19847Y6030D02*
X19847Y5970D01*
X20000Y5994D01*
X19847Y6030D01*
G37*
G36*
X20000Y6006D02*
X19847Y6030D01*
X20000Y5994D01*
X20000Y6006D01*
G37*
G36*
X20153Y6030D02*
X20000Y6006D01*
X20000Y5994D01*
X20153Y6030D01*
G37*
G36*
X20153Y6030D02*
X20000Y5994D01*
X20153Y5970D01*
X20153Y6030D01*
G37*
G36*
X20153Y6030D02*
X20153Y5970D01*
X20290Y5900D01*
X20153Y6030D01*
G37*
G36*
X20153Y6030D02*
X20290Y5900D01*
X20290Y6100D01*
X20153Y6030D01*
G37*
G36*
X20400Y6210D02*
X20290Y6100D01*
X20290Y5900D01*
X20400Y6210D01*
G37*
G36*
X20400Y6210D02*
X20290Y5900D01*
X20400Y5790D01*
X20400Y6210D01*
G37*
G36*
X20470Y6347D02*
X20400Y6210D01*
X20400Y5790D01*
X20470Y6347D01*
G37*
G36*
X20470Y6347D02*
X20400Y5790D01*
X20470Y5653D01*
X20470Y6347D01*
G37*
G36*
X20470Y6347D02*
X20470Y5653D01*
X20494Y5500D01*
X20470Y6347D01*
G37*
G36*
X20470Y6347D02*
X20494Y5500D01*
X20494Y6500D01*
X20470Y6347D01*
G37*
G36*
X19530Y7347D02*
X19530Y6653D01*
X19600Y6790D01*
X19530Y7347D01*
G37*
G36*
X19600Y7210D02*
X19530Y7347D01*
X19600Y6790D01*
X19600Y7210D01*
G37*
G36*
X19600Y7210D02*
X19600Y6790D01*
X19710Y6900D01*
X19600Y7210D01*
G37*
G36*
X19710Y7100D02*
X19600Y7210D01*
X19710Y6900D01*
X19710Y7100D01*
G37*
G36*
X19710Y7100D02*
X19710Y6900D01*
X19847Y6970D01*
X19710Y7100D01*
G37*
G36*
X19847Y7030D02*
X19710Y7100D01*
X19847Y6970D01*
X19847Y7030D01*
G37*
G36*
X19847Y7030D02*
X19847Y6970D01*
X20000Y6994D01*
X19847Y7030D01*
G37*
G36*
X20000Y7006D02*
X19847Y7030D01*
X20000Y6994D01*
X20000Y7006D01*
G37*
G36*
X20153Y7030D02*
X20000Y7006D01*
X20000Y6994D01*
X20153Y7030D01*
G37*
G36*
X20153Y7030D02*
X20000Y6994D01*
X20153Y6970D01*
X20153Y7030D01*
G37*
G36*
X20153Y7030D02*
X20153Y6970D01*
X20290Y6900D01*
X20153Y7030D01*
G37*
G36*
X20153Y7030D02*
X20290Y6900D01*
X20290Y7100D01*
X20153Y7030D01*
G37*
G36*
X20400Y7210D02*
X20290Y7100D01*
X20290Y6900D01*
X20400Y7210D01*
G37*
G36*
X20400Y7210D02*
X20290Y6900D01*
X20400Y6790D01*
X20400Y7210D01*
G37*
G36*
X20470Y7347D02*
X20400Y7210D01*
X20400Y6790D01*
X20470Y7347D01*
G37*
G36*
X20470Y7347D02*
X20400Y6790D01*
X20470Y6653D01*
X20470Y7347D01*
G37*
G36*
X20470Y7347D02*
X20470Y6653D01*
X20494Y6500D01*
X20470Y7347D01*
G37*
G36*
X20470Y7347D02*
X20494Y6500D01*
X20494Y7500D01*
X20470Y7347D01*
G37*
G36*
X17900Y5290D02*
X17702Y6446D01*
X17681Y6396D01*
X17900Y5290D01*
G37*
G36*
X17790Y5400D02*
X17900Y5290D01*
X17681Y6396D01*
X17790Y5400D01*
G37*
G36*
X17681Y6396D02*
X17648Y6352D01*
X17790Y5400D01*
X17681Y6396D01*
G37*
G36*
X17790Y5400D02*
X17648Y6352D01*
X17653Y5470D01*
X17790Y5400D01*
G37*
G36*
X17648Y6352D02*
X17500Y5494D01*
X17653Y5470D01*
X17648Y6352D01*
G37*
G36*
X17347Y5470D02*
X17500Y5494D01*
X17648Y6352D01*
X17347Y5470D01*
G37*
G36*
X17210Y5400D02*
X17347Y5470D01*
X17648Y6352D01*
X17210Y5400D01*
G37*
G36*
X17648Y6352D02*
X16648Y5352D01*
X17210Y5400D01*
X17648Y6352D01*
G37*
G36*
X16648Y5352D02*
X17100Y5290D01*
X17210Y5400D01*
X16648Y5352D01*
G37*
G36*
X16648Y5352D02*
X17030Y5153D01*
X17100Y5290D01*
X16648Y5352D01*
G37*
G36*
X16648Y5352D02*
X16604Y5319D01*
X17030Y5153D01*
X16648Y5352D01*
G37*
G36*
X17030Y5153D02*
X16604Y5319D01*
X17006Y5000D01*
X17030Y5153D01*
G37*
G36*
X17006Y5000D02*
X16604Y5319D01*
X16554Y5298D01*
X17006Y5000D01*
G37*
G36*
X17006Y5000D02*
X16554Y5298D01*
X16500Y5291D01*
X17006Y5000D01*
G37*
G36*
X17006Y5000D02*
X16500Y5291D01*
X16459Y4837D01*
X17006Y5000D01*
G37*
G36*
X16500Y5291D02*
X16459Y5291D01*
X16459Y4837D01*
X16500Y5291D01*
G37*
G36*
X17006Y5000D02*
X16459Y4837D01*
X17030Y4847D01*
X17006Y5000D01*
G37*
G36*
X17030Y4847D02*
X16459Y4837D01*
X17100Y4710D01*
X17030Y4847D01*
G37*
G36*
X17100Y4710D02*
X16459Y4837D01*
X17210Y4600D01*
X17100Y4710D01*
G37*
G36*
X17210Y4600D02*
X16459Y4837D01*
X17583Y3713D01*
X17210Y4600D01*
G37*
G36*
X17583Y3713D02*
X17347Y4530D01*
X17210Y4600D01*
X17583Y3713D01*
G37*
G36*
X17500Y4506D02*
X17347Y4530D01*
X17583Y3713D01*
X17500Y4506D01*
G37*
G36*
X17500Y4506D02*
X17583Y3713D01*
X17597Y3720D01*
X17500Y4506D01*
G37*
G36*
X17500Y4506D02*
X17597Y3720D01*
X17750Y3744D01*
X17500Y4506D01*
G37*
G36*
X17653Y4530D02*
X17500Y4506D01*
X17750Y3744D01*
X17653Y4530D01*
G37*
G36*
X17903Y3720D02*
X17653Y4530D01*
X17750Y3744D01*
X17903Y3720D01*
G37*
G36*
X17790Y4600D02*
X17653Y4530D01*
X17903Y3720D01*
X17790Y4600D01*
G37*
G36*
X17903Y3720D02*
X18040Y3650D01*
X17790Y4600D01*
X17903Y3720D01*
G37*
G36*
X18040Y3650D02*
X17900Y4710D01*
X17790Y4600D01*
X18040Y3650D01*
G37*
G36*
X17709Y6500D02*
X17790Y7600D01*
X17709Y7559D01*
X17709Y6500D01*
G37*
G36*
X17970Y8153D02*
X17994Y8000D01*
X19530Y8347D01*
X17970Y8153D01*
G37*
G36*
X19506Y8500D02*
X17970Y8153D01*
X19530Y8347D01*
X19506Y8500D01*
G37*
G36*
X19506Y8500D02*
X17900Y8290D01*
X17970Y8153D01*
X19506Y8500D01*
G37*
G36*
X17900Y8290D02*
X19506Y8500D01*
X19530Y8653D01*
X17900Y8290D01*
G37*
G36*
X19506Y9006D02*
X17900Y8290D01*
X19530Y8653D01*
X19506Y9006D01*
G37*
G36*
X19506Y9006D02*
X19530Y8653D01*
X19600Y8790D01*
X19506Y9006D01*
G37*
G36*
X19506Y9006D02*
X19600Y8790D01*
X19710Y8900D01*
X19506Y9006D01*
G37*
G36*
X19506Y9006D02*
X19710Y8900D01*
X19847Y8970D01*
X19506Y9006D01*
G37*
G36*
X19506Y9006D02*
X19847Y8970D01*
X20000Y8994D01*
X19506Y9006D01*
G37*
G36*
X19506Y9006D02*
X20000Y8994D01*
X20494Y9006D01*
X19506Y9006D01*
G37*
G36*
X20000Y8994D02*
X20153Y8970D01*
X20494Y9006D01*
X20000Y8994D01*
G37*
G36*
X20153Y8970D02*
X20290Y8900D01*
X20494Y9006D01*
X20153Y8970D01*
G37*
G36*
X20290Y8900D02*
X20400Y8790D01*
X20494Y9006D01*
X20290Y8900D01*
G37*
G36*
X20400Y8790D02*
X20470Y8653D01*
X20494Y9006D01*
X20400Y8790D01*
G37*
G36*
X20470Y8653D02*
X20494Y8500D01*
X20494Y9006D01*
X20470Y8653D01*
G37*
G36*
X20738Y13137D02*
X20494Y9006D01*
X20494Y8500D01*
X20738Y13137D01*
G37*
G36*
X20738Y13137D02*
X20494Y9994D01*
X20494Y9006D01*
X20738Y13137D01*
G37*
G36*
X20738Y13137D02*
X20494Y10500D01*
X20494Y9994D01*
X20738Y13137D01*
G37*
G36*
X20494Y10500D02*
X20470Y10347D01*
X20494Y9994D01*
X20494Y10500D01*
G37*
G36*
X20470Y10347D02*
X20400Y10210D01*
X20494Y9994D01*
X20470Y10347D01*
G37*
G36*
X20400Y10210D02*
X20290Y10100D01*
X20494Y9994D01*
X20400Y10210D01*
G37*
G36*
X20290Y10100D02*
X20153Y10030D01*
X20494Y9994D01*
X20290Y10100D01*
G37*
G36*
X20153Y10030D02*
X20000Y10006D01*
X20494Y9994D01*
X20153Y10030D01*
G37*
G36*
X20000Y10006D02*
X19506Y9994D01*
X20494Y9994D01*
X20000Y10006D01*
G37*
G36*
X19847Y10030D02*
X19506Y9994D01*
X20000Y10006D01*
X19847Y10030D01*
G37*
G36*
X19710Y10100D02*
X19506Y9994D01*
X19847Y10030D01*
X19710Y10100D01*
G37*
G36*
X19600Y10210D02*
X19506Y9994D01*
X19710Y10100D01*
X19600Y10210D01*
G37*
G36*
X19530Y10347D02*
X19506Y9994D01*
X19600Y10210D01*
X19530Y10347D01*
G37*
G36*
X19530Y10347D02*
X18388Y10421D01*
X19506Y9994D01*
X19530Y10347D01*
G37*
G36*
X19506Y9994D02*
X18388Y10421D01*
X18362Y10388D01*
X19506Y9994D01*
G37*
G36*
X18362Y10388D02*
X18112Y10138D01*
X19506Y9994D01*
X18362Y10388D01*
G37*
G36*
X19506Y9994D02*
X18112Y10138D01*
X19506Y9006D01*
X19506Y9994D01*
G37*
G36*
X19506Y9006D02*
X18112Y10138D01*
X18079Y10112D01*
X19506Y9006D01*
G37*
G36*
X19506Y9006D02*
X18079Y10112D01*
X18041Y10096D01*
X19506Y9006D01*
G37*
G36*
X17681Y8854D02*
X19506Y9006D01*
X18041Y10096D01*
X17681Y8854D01*
G37*
G36*
X17648Y8898D02*
X17681Y8854D01*
X18041Y10096D01*
X17648Y8898D01*
G37*
G36*
X18000Y10091D02*
X17648Y8898D01*
X18041Y10096D01*
X18000Y10091D01*
G37*
G36*
X17398Y9148D02*
X17648Y8898D01*
X18000Y10091D01*
X17398Y9148D01*
G37*
G36*
X17354Y9181D02*
X17398Y9148D01*
X18000Y10091D01*
X17354Y9181D01*
G37*
G36*
X17304Y9202D02*
X17354Y9181D01*
X18000Y10091D01*
X17304Y9202D01*
G37*
G36*
X17304Y9202D02*
X18000Y10091D01*
X17150Y9290D01*
X17304Y9202D01*
G37*
G36*
X17040Y9400D02*
X17150Y9290D01*
X18000Y10091D01*
X17040Y9400D01*
G37*
G36*
X16903Y9470D02*
X17040Y9400D01*
X18000Y10091D01*
X16903Y9470D01*
G37*
G36*
X16750Y9494D02*
X16903Y9470D01*
X18000Y10091D01*
X16750Y9494D01*
G37*
G36*
X16597Y9470D02*
X16750Y9494D01*
X18000Y10091D01*
X16597Y9470D01*
G37*
G36*
X18000Y10091D02*
X15903Y9470D01*
X16597Y9470D01*
X18000Y10091D01*
G37*
G36*
X16040Y9400D02*
X16597Y9470D01*
X15903Y9470D01*
X16040Y9400D01*
G37*
G36*
X16460Y9400D02*
X16597Y9470D01*
X16040Y9400D01*
X16460Y9400D01*
G37*
G36*
X16460Y9400D02*
X16040Y9400D01*
X16150Y9290D01*
X16460Y9400D01*
G37*
G36*
X16350Y9290D02*
X16460Y9400D01*
X16150Y9290D01*
X16350Y9290D01*
G37*
G36*
X16150Y9290D02*
X16220Y9153D01*
X16350Y9290D01*
X16150Y9290D01*
G37*
G36*
X16220Y9153D02*
X16280Y9153D01*
X16350Y9290D01*
X16220Y9153D01*
G37*
G36*
X16280Y9153D02*
X16220Y9153D01*
X16256Y9000D01*
X16280Y9153D01*
G37*
G36*
X16220Y9153D02*
X16244Y9000D01*
X16256Y9000D01*
X16220Y9153D01*
G37*
G36*
X16256Y9000D02*
X16244Y9000D01*
X16280Y8847D01*
X16256Y9000D01*
G37*
G36*
X16244Y9000D02*
X16220Y8847D01*
X16280Y8847D01*
X16244Y9000D01*
G37*
G36*
X16280Y8847D02*
X16220Y8847D01*
X16350Y8710D01*
X16280Y8847D01*
G37*
G36*
X16220Y8847D02*
X16150Y8710D01*
X16350Y8710D01*
X16220Y8847D01*
G37*
G36*
X16217Y8316D02*
X16350Y8710D01*
X16150Y8710D01*
X16217Y8316D01*
G37*
G36*
X16217Y8316D02*
X16150Y8710D01*
X16040Y8600D01*
X16217Y8316D01*
G37*
G36*
X16040Y8600D02*
X15903Y8530D01*
X16217Y8316D01*
X16040Y8600D01*
G37*
G36*
X15903Y8530D02*
X15750Y8506D01*
X16217Y8316D01*
X15903Y8530D01*
G37*
G36*
X15750Y8506D02*
X15533Y8316D01*
X16217Y8316D01*
X15750Y8506D01*
G37*
G36*
X15597Y8530D02*
X15533Y8316D01*
X15750Y8506D01*
X15597Y8530D01*
G37*
G36*
X15597Y8530D02*
X15460Y8600D01*
X15533Y8316D01*
X15597Y8530D01*
G37*
G36*
X15460Y8600D02*
X15040Y8600D01*
X15533Y8316D01*
X15460Y8600D01*
G37*
G36*
X15040Y8600D02*
X15066Y8159D01*
X15533Y8316D01*
X15040Y8600D01*
G37*
G36*
X15066Y8159D02*
X15533Y8159D01*
X15533Y8316D01*
X15066Y8159D01*
G37*
G36*
X15066Y8159D02*
X15040Y8600D01*
X14909Y8316D01*
X15066Y8159D01*
G37*
G36*
X15040Y8600D02*
X14909Y8533D01*
X14909Y8316D01*
X15040Y8600D01*
G37*
G36*
X15150Y8710D02*
X15040Y8600D01*
X15460Y8600D01*
X15150Y8710D01*
G37*
G36*
X15350Y8710D02*
X15150Y8710D01*
X15460Y8600D01*
X15350Y8710D01*
G37*
G36*
X15220Y8847D02*
X15150Y8710D01*
X15350Y8710D01*
X15220Y8847D01*
G37*
G36*
X15280Y8847D02*
X15220Y8847D01*
X15350Y8710D01*
X15280Y8847D01*
G37*
G36*
X15244Y9000D02*
X15220Y8847D01*
X15280Y8847D01*
X15244Y9000D01*
G37*
G36*
X15256Y9000D02*
X15244Y9000D01*
X15280Y8847D01*
X15256Y9000D01*
G37*
G36*
X15220Y9153D02*
X15244Y9000D01*
X15256Y9000D01*
X15220Y9153D01*
G37*
G36*
X15280Y9153D02*
X15220Y9153D01*
X15256Y9000D01*
X15280Y9153D01*
G37*
G36*
X15220Y9153D02*
X15280Y9153D01*
X15350Y9290D01*
X15220Y9153D01*
G37*
G36*
X15150Y9290D02*
X15220Y9153D01*
X15350Y9290D01*
X15150Y9290D01*
G37*
G36*
X15350Y9290D02*
X15460Y9400D01*
X15150Y9290D01*
X15350Y9290D01*
G37*
G36*
X15460Y9400D02*
X15040Y9400D01*
X15150Y9290D01*
X15460Y9400D01*
G37*
G36*
X15460Y9400D02*
X15597Y9470D01*
X15040Y9400D01*
X15460Y9400D01*
G37*
G36*
X15040Y9400D02*
X15597Y9470D01*
X14903Y9470D01*
X15040Y9400D01*
G37*
G36*
X15597Y9470D02*
X14750Y9494D01*
X14903Y9470D01*
X15597Y9470D01*
G37*
G36*
X14750Y9494D02*
X15597Y9470D01*
X15750Y9494D01*
X14750Y9494D01*
G37*
G36*
X15750Y9494D02*
X13000Y10091D01*
X14750Y9494D01*
X15750Y9494D01*
G37*
G36*
X13000Y10091D02*
X14597Y9470D01*
X14750Y9494D01*
X13000Y10091D01*
G37*
G36*
X13000Y10091D02*
X14460Y9400D01*
X14597Y9470D01*
X13000Y10091D01*
G37*
G36*
X14460Y9400D02*
X13000Y10091D01*
X13475Y9444D01*
X14460Y9400D01*
G37*
G36*
X13000Y10091D02*
X13250Y9479D01*
X13475Y9444D01*
X13000Y10091D01*
G37*
G36*
X13000Y10091D02*
X13025Y9444D01*
X13250Y9479D01*
X13000Y10091D01*
G37*
G36*
X13000Y10091D02*
X12959Y10096D01*
X13025Y9444D01*
X13000Y10091D01*
G37*
G36*
X12959Y10096D02*
X12921Y10112D01*
X13025Y9444D01*
X12959Y10096D01*
G37*
G36*
X12821Y9340D02*
X13025Y9444D01*
X12921Y10112D01*
X12821Y9340D01*
G37*
G36*
X12888Y10138D02*
X12821Y9340D01*
X12921Y10112D01*
X12888Y10138D01*
G37*
G36*
X11994Y9750D02*
X12821Y9340D01*
X12888Y10138D01*
X11994Y9750D01*
G37*
G36*
X12888Y10138D02*
X11970Y9903D01*
X11994Y9750D01*
X12888Y10138D01*
G37*
G36*
X11970Y9903D02*
X12888Y10138D01*
X11900Y10040D01*
X11970Y9903D01*
G37*
G36*
X11900Y10040D02*
X12888Y10138D01*
X11900Y10460D01*
X11900Y10040D01*
G37*
G36*
X12888Y10138D02*
X11970Y10597D01*
X11900Y10460D01*
X12888Y10138D01*
G37*
G36*
X11994Y10750D02*
X11970Y10597D01*
X12888Y10138D01*
X11994Y10750D01*
G37*
G36*
X11970Y10903D02*
X11994Y10750D01*
X12888Y10138D01*
X11970Y10903D01*
G37*
G36*
X11900Y11040D02*
X11970Y10903D01*
X12888Y10138D01*
X11900Y11040D01*
G37*
G36*
X10934Y12091D02*
X11900Y11040D01*
X12888Y10138D01*
X10934Y12091D01*
G37*
G36*
X10934Y12091D02*
X11790Y11150D01*
X11900Y11040D01*
X10934Y12091D01*
G37*
G36*
X10934Y12091D02*
X11653Y11220D01*
X11790Y11150D01*
X10934Y12091D01*
G37*
G36*
X10934Y12091D02*
X11500Y11244D01*
X11653Y11220D01*
X10934Y12091D01*
G37*
G36*
X10934Y12091D02*
X11347Y11220D01*
X11500Y11244D01*
X10934Y12091D01*
G37*
G36*
X10934Y12091D02*
X11210Y11150D01*
X11347Y11220D01*
X10934Y12091D01*
G37*
G36*
X10934Y12091D02*
X11100Y11040D01*
X11210Y11150D01*
X10934Y12091D01*
G37*
G36*
X10934Y12091D02*
X11030Y10903D01*
X11100Y11040D01*
X10934Y12091D01*
G37*
G36*
X10934Y12091D02*
X7750Y12091D01*
X11030Y10903D01*
X10934Y12091D01*
G37*
G36*
X7750Y12091D02*
X11006Y10750D01*
X11030Y10903D01*
X7750Y12091D01*
G37*
G36*
X11030Y10597D02*
X11006Y10750D01*
X7750Y12091D01*
X11030Y10597D01*
G37*
G36*
X7750Y12091D02*
X11030Y9903D01*
X11030Y10597D01*
X7750Y12091D01*
G37*
G36*
X11030Y10597D02*
X11030Y9903D01*
X11100Y10040D01*
X11030Y10597D01*
G37*
G36*
X11100Y10460D02*
X11030Y10597D01*
X11100Y10040D01*
X11100Y10460D01*
G37*
G36*
X11100Y10460D02*
X11100Y10040D01*
X11210Y10150D01*
X11100Y10460D01*
G37*
G36*
X11210Y10350D02*
X11100Y10460D01*
X11210Y10150D01*
X11210Y10350D01*
G37*
G36*
X11210Y10350D02*
X11210Y10150D01*
X11347Y10220D01*
X11210Y10350D01*
G37*
G36*
X11347Y10280D02*
X11210Y10350D01*
X11347Y10220D01*
X11347Y10280D01*
G37*
G36*
X11347Y10280D02*
X11347Y10220D01*
X11500Y10244D01*
X11347Y10280D01*
G37*
G36*
X11500Y10256D02*
X11347Y10280D01*
X11500Y10244D01*
X11500Y10256D01*
G37*
G36*
X11653Y10280D02*
X11500Y10256D01*
X11500Y10244D01*
X11653Y10280D01*
G37*
G36*
X11653Y10280D02*
X11500Y10244D01*
X11653Y10220D01*
X11653Y10280D01*
G37*
G36*
X11653Y10280D02*
X11653Y10220D01*
X11790Y10150D01*
X11653Y10280D01*
G37*
G36*
X11653Y10280D02*
X11790Y10150D01*
X11790Y10350D01*
X11653Y10280D01*
G37*
G36*
X11900Y10460D02*
X11790Y10350D01*
X11790Y10150D01*
X11900Y10460D01*
G37*
G36*
X11900Y10460D02*
X11790Y10150D01*
X11900Y10040D01*
X11900Y10460D01*
G37*
G36*
X7750Y12091D02*
X11006Y9750D01*
X11030Y9903D01*
X7750Y12091D01*
G37*
G36*
X7750Y12091D02*
X11006Y8750D01*
X11006Y9750D01*
X7750Y12091D01*
G37*
G36*
X11030Y9597D02*
X11006Y9750D01*
X11006Y8750D01*
X11030Y9597D01*
G37*
G36*
X11006Y8750D02*
X11030Y8903D01*
X11030Y9597D01*
X11006Y8750D01*
G37*
G36*
X11030Y9597D02*
X11030Y8903D01*
X11100Y9040D01*
X11030Y9597D01*
G37*
G36*
X11100Y9460D02*
X11030Y9597D01*
X11100Y9040D01*
X11100Y9460D01*
G37*
G36*
X11100Y9460D02*
X11100Y9040D01*
X11210Y9150D01*
X11100Y9460D01*
G37*
G36*
X11210Y9350D02*
X11100Y9460D01*
X11210Y9150D01*
X11210Y9350D01*
G37*
G36*
X11210Y9350D02*
X11210Y9150D01*
X11347Y9220D01*
X11210Y9350D01*
G37*
G36*
X11347Y9280D02*
X11210Y9350D01*
X11347Y9220D01*
X11347Y9280D01*
G37*
G36*
X11347Y9280D02*
X11347Y9220D01*
X11500Y9244D01*
X11347Y9280D01*
G37*
G36*
X11500Y9256D02*
X11347Y9280D01*
X11500Y9244D01*
X11500Y9256D01*
G37*
G36*
X11653Y9280D02*
X11500Y9256D01*
X11500Y9244D01*
X11653Y9280D01*
G37*
G36*
X11653Y9280D02*
X11500Y9244D01*
X11653Y9220D01*
X11653Y9280D01*
G37*
G36*
X11653Y9280D02*
X11653Y9220D01*
X11790Y9150D01*
X11653Y9280D01*
G37*
G36*
X11653Y9280D02*
X11790Y9150D01*
X11790Y9350D01*
X11653Y9280D01*
G37*
G36*
X11900Y9460D02*
X11790Y9350D01*
X11790Y9150D01*
X11900Y9460D01*
G37*
G36*
X11900Y9460D02*
X11790Y9150D01*
X11900Y9040D01*
X11900Y9460D01*
G37*
G36*
X11900Y9040D02*
X12521Y8750D01*
X11900Y9460D01*
X11900Y9040D01*
G37*
G36*
X12521Y8750D02*
X11970Y9597D01*
X11900Y9460D01*
X12521Y8750D01*
G37*
G36*
X12556Y8975D02*
X11970Y9597D01*
X12521Y8750D01*
X12556Y8975D01*
G37*
G36*
X12660Y9179D02*
X11970Y9597D01*
X12556Y8975D01*
X12660Y9179D01*
G37*
G36*
X12821Y9340D02*
X11970Y9597D01*
X12660Y9179D01*
X12821Y9340D01*
G37*
G36*
X11994Y9750D02*
X11970Y9597D01*
X12821Y9340D01*
X11994Y9750D01*
G37*
G36*
X11970Y8903D02*
X12521Y8750D01*
X11900Y9040D01*
X11970Y8903D01*
G37*
G36*
X11994Y8750D02*
X12521Y8750D01*
X11970Y8903D01*
X11994Y8750D01*
G37*
G36*
X12521Y8750D02*
X11994Y8750D01*
X11970Y8597D01*
X12521Y8750D01*
G37*
G36*
X12556Y8525D02*
X12521Y8750D01*
X11970Y8597D01*
X12556Y8525D01*
G37*
G36*
X11970Y8597D02*
X11900Y8460D01*
X12556Y8525D01*
X11970Y8597D01*
G37*
G36*
X11900Y8040D02*
X12556Y8525D01*
X11900Y8460D01*
X11900Y8040D01*
G37*
G36*
X11900Y8040D02*
X11900Y8460D01*
X11790Y8150D01*
X11900Y8040D01*
G37*
G36*
X11900Y8460D02*
X11790Y8350D01*
X11790Y8150D01*
X11900Y8460D01*
G37*
G36*
X11653Y8280D02*
X11790Y8150D01*
X11790Y8350D01*
X11653Y8280D01*
G37*
G36*
X11653Y8280D02*
X11653Y8220D01*
X11790Y8150D01*
X11653Y8280D01*
G37*
G36*
X11653Y8280D02*
X11500Y8244D01*
X11653Y8220D01*
X11653Y8280D01*
G37*
G36*
X11653Y8280D02*
X11500Y8256D01*
X11500Y8244D01*
X11653Y8280D01*
G37*
G36*
X11500Y8256D02*
X11347Y8280D01*
X11500Y8244D01*
X11500Y8256D01*
G37*
G36*
X11347Y8280D02*
X11347Y8220D01*
X11500Y8244D01*
X11347Y8280D01*
G37*
G36*
X11347Y8280D02*
X11210Y8350D01*
X11347Y8220D01*
X11347Y8280D01*
G37*
G36*
X11210Y8350D02*
X11210Y8150D01*
X11347Y8220D01*
X11210Y8350D01*
G37*
G36*
X11210Y8350D02*
X11100Y8460D01*
X11210Y8150D01*
X11210Y8350D01*
G37*
G36*
X11100Y8460D02*
X11100Y8040D01*
X11210Y8150D01*
X11100Y8460D01*
G37*
G36*
X11100Y8460D02*
X11030Y8597D01*
X11100Y8040D01*
X11100Y8460D01*
G37*
G36*
X11030Y8597D02*
X11030Y7903D01*
X11100Y8040D01*
X11030Y8597D01*
G37*
G36*
X11006Y7750D02*
X11030Y7903D01*
X11030Y8597D01*
X11006Y7750D01*
G37*
G36*
X11030Y8597D02*
X11006Y8750D01*
X11006Y7750D01*
X11030Y8597D01*
G37*
G36*
X7750Y12091D02*
X11006Y7750D01*
X11006Y8750D01*
X7750Y12091D01*
G37*
G36*
X2994Y7750D02*
X11006Y7750D01*
X7750Y12091D01*
X2994Y7750D01*
G37*
G36*
X7750Y12091D02*
X2994Y8750D01*
X2994Y7750D01*
X7750Y12091D01*
G37*
G36*
X2970Y8597D02*
X2994Y7750D01*
X2994Y8750D01*
X2970Y8597D01*
G37*
G36*
X2970Y8597D02*
X2970Y7903D01*
X2994Y7750D01*
X2970Y8597D01*
G37*
G36*
X2970Y8597D02*
X2900Y8040D01*
X2970Y7903D01*
X2970Y8597D01*
G37*
G36*
X2970Y8597D02*
X2900Y8460D01*
X2900Y8040D01*
X2970Y8597D01*
G37*
G36*
X2900Y8460D02*
X2790Y8150D01*
X2900Y8040D01*
X2900Y8460D01*
G37*
G36*
X2900Y8460D02*
X2790Y8350D01*
X2790Y8150D01*
X2900Y8460D01*
G37*
G36*
X2653Y8280D02*
X2790Y8150D01*
X2790Y8350D01*
X2653Y8280D01*
G37*
G36*
X2653Y8280D02*
X2653Y8220D01*
X2790Y8150D01*
X2653Y8280D01*
G37*
G36*
X2653Y8280D02*
X2500Y8244D01*
X2653Y8220D01*
X2653Y8280D01*
G37*
G36*
X2653Y8280D02*
X2500Y8256D01*
X2500Y8244D01*
X2653Y8280D01*
G37*
G36*
X2500Y8256D02*
X2347Y8280D01*
X2500Y8244D01*
X2500Y8256D01*
G37*
G36*
X2347Y8280D02*
X2347Y8220D01*
X2500Y8244D01*
X2347Y8280D01*
G37*
G36*
X2347Y8280D02*
X2210Y8350D01*
X2347Y8220D01*
X2347Y8280D01*
G37*
G36*
X2210Y8350D02*
X2210Y8150D01*
X2347Y8220D01*
X2210Y8350D01*
G37*
G36*
X2210Y8150D02*
X2210Y8350D01*
X2100Y8460D01*
X2210Y8150D01*
G37*
G36*
X2100Y8460D02*
X2100Y8040D01*
X2210Y8150D01*
X2100Y8460D01*
G37*
G36*
X1389Y8420D02*
X2100Y8040D01*
X2100Y8460D01*
X1389Y8420D01*
G37*
G36*
X1389Y8420D02*
X2100Y8460D01*
X1405Y8459D01*
X1389Y8420D01*
G37*
G36*
X2100Y8460D02*
X2030Y8597D01*
X1405Y8459D01*
X2100Y8460D01*
G37*
G36*
X2030Y8597D02*
X1410Y8500D01*
X1405Y8459D01*
X2030Y8597D01*
G37*
G36*
X2006Y8750D02*
X1410Y8500D01*
X2030Y8597D01*
X2006Y8750D01*
G37*
G36*
X1410Y8500D02*
X2006Y8750D01*
X2030Y8903D01*
X1410Y8500D01*
G37*
G36*
X2030Y8903D02*
X2030Y9597D01*
X1410Y8500D01*
X2030Y8903D01*
G37*
G36*
X2006Y9750D02*
X1410Y8500D01*
X2030Y9597D01*
X2006Y9750D01*
G37*
G36*
X1410Y8500D02*
X2006Y9750D01*
X2030Y9903D01*
X1410Y8500D01*
G37*
G36*
X2030Y9903D02*
X2030Y10597D01*
X1410Y8500D01*
X2030Y9903D01*
G37*
G36*
X2030Y10597D02*
X1410Y11500D01*
X1410Y8500D01*
X2030Y10597D01*
G37*
G36*
X2006Y10750D02*
X1410Y11500D01*
X2030Y10597D01*
X2006Y10750D01*
G37*
G36*
X1410Y11500D02*
X2006Y10750D01*
X2030Y10903D01*
X1410Y11500D01*
G37*
G36*
X1410Y11500D02*
X2030Y10903D01*
X2100Y11040D01*
X1410Y11500D01*
G37*
G36*
X1410Y11500D02*
X2100Y11040D01*
X2210Y11150D01*
X1410Y11500D01*
G37*
G36*
X1405Y11541D02*
X1410Y11500D01*
X2210Y11150D01*
X1405Y11541D01*
G37*
G36*
X2210Y11150D02*
X2347Y11220D01*
X1405Y11541D01*
X2210Y11150D01*
G37*
G36*
X2347Y11220D02*
X1389Y11580D01*
X1405Y11541D01*
X2347Y11220D01*
G37*
G36*
X2347Y11220D02*
X1363Y11613D01*
X1389Y11580D01*
X2347Y11220D01*
G37*
G36*
X1468Y12933D02*
X1363Y11613D01*
X2347Y11220D01*
X1468Y12933D01*
G37*
G36*
X2500Y11244D02*
X1468Y12933D01*
X2347Y11220D01*
X2500Y11244D01*
G37*
G36*
X2653Y11220D02*
X1468Y12933D01*
X2500Y11244D01*
X2653Y11220D01*
G37*
G36*
X2653Y11220D02*
X1468Y13090D01*
X1468Y12933D01*
X2653Y11220D01*
G37*
G36*
X4250Y13090D02*
X1468Y13090D01*
X2653Y11220D01*
X4250Y13090D01*
G37*
G36*
X2653Y11220D02*
X2790Y11150D01*
X4250Y13090D01*
X2653Y11220D01*
G37*
G36*
X2790Y11150D02*
X2900Y11040D01*
X4250Y13090D01*
X2790Y11150D01*
G37*
G36*
X2900Y11040D02*
X2970Y10903D01*
X4250Y13090D01*
X2900Y11040D01*
G37*
G36*
X4291Y13095D02*
X4250Y13090D01*
X2970Y10903D01*
X4291Y13095D01*
G37*
G36*
X2970Y10903D02*
X2994Y10750D01*
X4291Y13095D01*
X2970Y10903D01*
G37*
G36*
X2994Y10750D02*
X4330Y13111D01*
X4291Y13095D01*
X2994Y10750D01*
G37*
G36*
X7638Y12138D02*
X4330Y13111D01*
X2994Y10750D01*
X7638Y12138D01*
G37*
G36*
X7671Y12112D02*
X7638Y12138D01*
X2994Y10750D01*
X7671Y12112D01*
G37*
G36*
X7709Y12096D02*
X7671Y12112D01*
X2994Y10750D01*
X7709Y12096D01*
G37*
G36*
X2994Y9750D02*
X7709Y12096D01*
X2994Y10750D01*
X2994Y9750D01*
G37*
G36*
X2970Y10597D02*
X2994Y9750D01*
X2994Y10750D01*
X2970Y10597D01*
G37*
G36*
X2970Y10597D02*
X2970Y9903D01*
X2994Y9750D01*
X2970Y10597D01*
G37*
G36*
X2970Y10597D02*
X2900Y10040D01*
X2970Y9903D01*
X2970Y10597D01*
G37*
G36*
X2970Y10597D02*
X2900Y10460D01*
X2900Y10040D01*
X2970Y10597D01*
G37*
G36*
X2900Y10460D02*
X2790Y10150D01*
X2900Y10040D01*
X2900Y10460D01*
G37*
G36*
X2900Y10460D02*
X2790Y10350D01*
X2790Y10150D01*
X2900Y10460D01*
G37*
G36*
X2653Y10280D02*
X2790Y10150D01*
X2790Y10350D01*
X2653Y10280D01*
G37*
G36*
X2653Y10280D02*
X2653Y10220D01*
X2790Y10150D01*
X2653Y10280D01*
G37*
G36*
X2653Y10280D02*
X2500Y10244D01*
X2653Y10220D01*
X2653Y10280D01*
G37*
G36*
X2653Y10280D02*
X2500Y10256D01*
X2500Y10244D01*
X2653Y10280D01*
G37*
G36*
X2500Y10256D02*
X2347Y10280D01*
X2500Y10244D01*
X2500Y10256D01*
G37*
G36*
X2347Y10280D02*
X2347Y10220D01*
X2500Y10244D01*
X2347Y10280D01*
G37*
G36*
X2347Y10280D02*
X2210Y10350D01*
X2347Y10220D01*
X2347Y10280D01*
G37*
G36*
X2210Y10350D02*
X2210Y10150D01*
X2347Y10220D01*
X2210Y10350D01*
G37*
G36*
X2210Y10350D02*
X2100Y10460D01*
X2210Y10150D01*
X2210Y10350D01*
G37*
G36*
X2100Y10460D02*
X2100Y10040D01*
X2210Y10150D01*
X2100Y10460D01*
G37*
G36*
X2100Y10460D02*
X2030Y10597D01*
X2100Y10040D01*
X2100Y10460D01*
G37*
G36*
X2030Y10597D02*
X2030Y9903D01*
X2100Y10040D01*
X2030Y10597D01*
G37*
G36*
X2994Y9750D02*
X7750Y12091D01*
X7709Y12096D01*
X2994Y9750D01*
G37*
G36*
X7750Y12091D02*
X2994Y9750D01*
X2994Y8750D01*
X7750Y12091D01*
G37*
G36*
X2970Y9597D02*
X2994Y8750D01*
X2994Y9750D01*
X2970Y9597D01*
G37*
G36*
X2970Y9597D02*
X2970Y8903D01*
X2994Y8750D01*
X2970Y9597D01*
G37*
G36*
X2970Y9597D02*
X2900Y9040D01*
X2970Y8903D01*
X2970Y9597D01*
G37*
G36*
X2970Y9597D02*
X2900Y9460D01*
X2900Y9040D01*
X2970Y9597D01*
G37*
G36*
X2900Y9460D02*
X2790Y9150D01*
X2900Y9040D01*
X2900Y9460D01*
G37*
G36*
X2900Y9460D02*
X2790Y9350D01*
X2790Y9150D01*
X2900Y9460D01*
G37*
G36*
X2653Y9280D02*
X2790Y9150D01*
X2790Y9350D01*
X2653Y9280D01*
G37*
G36*
X2653Y9280D02*
X2653Y9220D01*
X2790Y9150D01*
X2653Y9280D01*
G37*
G36*
X2653Y9280D02*
X2500Y9244D01*
X2653Y9220D01*
X2653Y9280D01*
G37*
G36*
X2653Y9280D02*
X2500Y9256D01*
X2500Y9244D01*
X2653Y9280D01*
G37*
G36*
X2500Y9256D02*
X2347Y9280D01*
X2500Y9244D01*
X2500Y9256D01*
G37*
G36*
X2347Y9280D02*
X2347Y9220D01*
X2500Y9244D01*
X2347Y9280D01*
G37*
G36*
X2347Y9280D02*
X2210Y9350D01*
X2347Y9220D01*
X2347Y9280D01*
G37*
G36*
X2210Y9350D02*
X2210Y9150D01*
X2347Y9220D01*
X2210Y9350D01*
G37*
G36*
X2210Y9350D02*
X2100Y9460D01*
X2210Y9150D01*
X2210Y9350D01*
G37*
G36*
X2100Y9460D02*
X2100Y9040D01*
X2210Y9150D01*
X2100Y9460D01*
G37*
G36*
X2100Y9460D02*
X2030Y9597D01*
X2100Y9040D01*
X2100Y9460D01*
G37*
G36*
X2030Y9597D02*
X2030Y8903D01*
X2100Y9040D01*
X2030Y9597D01*
G37*
G36*
X4363Y13137D02*
X4330Y13111D01*
X7638Y12138D01*
X4363Y13137D01*
G37*
G36*
X4613Y13387D02*
X4363Y13137D01*
X7638Y12138D01*
X4613Y13387D01*
G37*
G36*
X4639Y13420D02*
X4613Y13387D01*
X7638Y12138D01*
X4639Y13420D01*
G37*
G36*
X5500Y14011D02*
X4639Y13420D01*
X7638Y12138D01*
X5500Y14011D01*
G37*
G36*
X5651Y14035D02*
X5500Y14011D01*
X7638Y12138D01*
X5651Y14035D01*
G37*
G36*
X5651Y14035D02*
X7638Y12138D01*
X5710Y14065D01*
X5651Y14035D01*
G37*
G36*
X5500Y14011D02*
X4655Y13459D01*
X4639Y13420D01*
X5500Y14011D01*
G37*
G36*
X5500Y14011D02*
X5349Y14035D01*
X4655Y13459D01*
X5500Y14011D01*
G37*
G36*
X4660Y13500D02*
X4655Y13459D01*
X5349Y14035D01*
X4660Y13500D01*
G37*
G36*
X5349Y14035D02*
X5213Y14104D01*
X4660Y13500D01*
X5349Y14035D01*
G37*
G36*
X4660Y13500D02*
X5213Y14104D01*
X4788Y14104D01*
X4660Y13500D01*
G37*
G36*
X4896Y14212D02*
X4788Y14104D01*
X5213Y14104D01*
X4896Y14212D01*
G37*
G36*
X5104Y14213D02*
X4896Y14212D01*
X5213Y14104D01*
X5104Y14213D01*
G37*
G36*
X4966Y14349D02*
X4896Y14212D01*
X5104Y14213D01*
X4966Y14349D01*
G37*
G36*
X5035Y14349D02*
X4966Y14349D01*
X5104Y14213D01*
X5035Y14349D01*
G37*
G36*
X4990Y14500D02*
X4966Y14349D01*
X5035Y14349D01*
X4990Y14500D01*
G37*
G36*
X5011Y14500D02*
X4990Y14500D01*
X5035Y14349D01*
X5011Y14500D01*
G37*
G36*
X4990Y14500D02*
X5011Y14500D01*
X5035Y14651D01*
X4990Y14500D01*
G37*
G36*
X4966Y14651D02*
X4990Y14500D01*
X5035Y14651D01*
X4966Y14651D01*
G37*
G36*
X4966Y14651D02*
X5035Y14651D01*
X5104Y14787D01*
X4966Y14651D01*
G37*
G36*
X4896Y14788D02*
X4966Y14651D01*
X5104Y14787D01*
X4896Y14788D01*
G37*
G36*
X4896Y14788D02*
X5104Y14787D01*
X5213Y14896D01*
X4896Y14788D01*
G37*
G36*
X4788Y14896D02*
X4896Y14788D01*
X5213Y14896D01*
X4788Y14896D01*
G37*
G36*
X4788Y14896D02*
X5213Y14896D01*
X5349Y14965D01*
X4788Y14896D01*
G37*
G36*
X5349Y14965D02*
X4651Y14966D01*
X4788Y14896D01*
X5349Y14965D01*
G37*
G36*
X5349Y14965D02*
X4750Y18590D01*
X4651Y14966D01*
X5349Y14965D01*
G37*
G36*
X4500Y14990D02*
X4651Y14966D01*
X4750Y18590D01*
X4500Y14990D01*
G37*
G36*
X4750Y18590D02*
X4349Y14966D01*
X4500Y14990D01*
X4750Y18590D01*
G37*
G36*
X4349Y14966D02*
X4750Y18590D01*
X2816Y18590D01*
X4349Y14966D01*
G37*
G36*
X4349Y14966D02*
X2816Y18590D01*
X3651Y14965D01*
X4349Y14966D01*
G37*
G36*
X2816Y18590D02*
X3500Y14989D01*
X3651Y14965D01*
X2816Y18590D01*
G37*
G36*
X2816Y18590D02*
X1410Y17184D01*
X3500Y14989D01*
X2816Y18590D01*
G37*
G36*
X3349Y14965D02*
X3500Y14989D01*
X1410Y17184D01*
X3349Y14965D01*
G37*
G36*
X1410Y17184D02*
X2651Y14965D01*
X3349Y14965D01*
X1410Y17184D01*
G37*
G36*
X2651Y14965D02*
X2787Y14896D01*
X3349Y14965D01*
X2651Y14965D01*
G37*
G36*
X2787Y14896D02*
X3213Y14896D01*
X3349Y14965D01*
X2787Y14896D01*
G37*
G36*
X3213Y14896D02*
X2787Y14896D01*
X3104Y14787D01*
X3213Y14896D01*
G37*
G36*
X2787Y14896D02*
X2896Y14787D01*
X3104Y14787D01*
X2787Y14896D01*
G37*
G36*
X2896Y14787D02*
X2965Y14651D01*
X3104Y14787D01*
X2896Y14787D01*
G37*
G36*
X2965Y14651D02*
X3035Y14651D01*
X3104Y14787D01*
X2965Y14651D01*
G37*
G36*
X2965Y14651D02*
X2989Y14500D01*
X3035Y14651D01*
X2965Y14651D01*
G37*
G36*
X2989Y14500D02*
X3011Y14500D01*
X3035Y14651D01*
X2989Y14500D01*
G37*
G36*
X3011Y14500D02*
X2989Y14500D01*
X2965Y14349D01*
X3011Y14500D01*
G37*
G36*
X3035Y14349D02*
X3011Y14500D01*
X2965Y14349D01*
X3035Y14349D01*
G37*
G36*
X3035Y14349D02*
X2965Y14349D01*
X2896Y14213D01*
X3035Y14349D01*
G37*
G36*
X3104Y14213D02*
X3035Y14349D01*
X2896Y14213D01*
X3104Y14213D01*
G37*
G36*
X3104Y14213D02*
X2896Y14213D01*
X3213Y14104D01*
X3104Y14213D01*
G37*
G36*
X2896Y14213D02*
X2787Y14104D01*
X3213Y14104D01*
X2896Y14213D01*
G37*
G36*
X3213Y14104D02*
X2787Y14104D01*
X3349Y14035D01*
X3213Y14104D01*
G37*
G36*
X2787Y14104D02*
X2651Y14035D01*
X3349Y14035D01*
X2787Y14104D01*
G37*
G36*
X2245Y13670D02*
X3349Y14035D01*
X2651Y14035D01*
X2245Y13670D01*
G37*
G36*
X2500Y14011D02*
X2245Y13670D01*
X2651Y14035D01*
X2500Y14011D01*
G37*
G36*
X2500Y14011D02*
X2258Y13750D01*
X2245Y13670D01*
X2500Y14011D01*
G37*
G36*
X2245Y13830D02*
X2258Y13750D01*
X2500Y14011D01*
X2245Y13830D01*
G37*
G36*
X2500Y14011D02*
X2349Y14035D01*
X2245Y13830D01*
X2500Y14011D01*
G37*
G36*
X2349Y14035D02*
X2208Y13901D01*
X2245Y13830D01*
X2349Y14035D01*
G37*
G36*
X2349Y14035D02*
X2151Y13958D01*
X2208Y13901D01*
X2349Y14035D01*
G37*
G36*
X2213Y14104D02*
X2151Y13958D01*
X2349Y14035D01*
X2213Y14104D01*
G37*
G36*
X2080Y13995D02*
X2151Y13958D01*
X2213Y14104D01*
X2080Y13995D01*
G37*
G36*
X2104Y14213D02*
X2080Y13995D01*
X2213Y14104D01*
X2104Y14213D01*
G37*
G36*
X2000Y14008D02*
X2080Y13995D01*
X2104Y14213D01*
X2000Y14008D01*
G37*
G36*
X1896Y14213D02*
X2000Y14008D01*
X2104Y14213D01*
X1896Y14213D01*
G37*
G36*
X2104Y14213D02*
X2035Y14349D01*
X1896Y14213D01*
X2104Y14213D01*
G37*
G36*
X2035Y14349D02*
X1965Y14349D01*
X1896Y14213D01*
X2035Y14349D01*
G37*
G36*
X2035Y14349D02*
X2011Y14500D01*
X1965Y14349D01*
X2035Y14349D01*
G37*
G36*
X2011Y14500D02*
X1989Y14500D01*
X1965Y14349D01*
X2011Y14500D01*
G37*
G36*
X1989Y14500D02*
X2011Y14500D01*
X2035Y14651D01*
X1989Y14500D01*
G37*
G36*
X1965Y14651D02*
X1989Y14500D01*
X2035Y14651D01*
X1965Y14651D01*
G37*
G36*
X1965Y14651D02*
X2035Y14651D01*
X2104Y14787D01*
X1965Y14651D01*
G37*
G36*
X1896Y14787D02*
X1965Y14651D01*
X2104Y14787D01*
X1896Y14787D01*
G37*
G36*
X1787Y14896D02*
X1896Y14787D01*
X2104Y14787D01*
X1787Y14896D01*
G37*
G36*
X2213Y14896D02*
X1787Y14896D01*
X2104Y14787D01*
X2213Y14896D01*
G37*
G36*
X1787Y14896D02*
X2213Y14896D01*
X2349Y14965D01*
X1787Y14896D01*
G37*
G36*
X1651Y14965D02*
X1787Y14896D01*
X2349Y14965D01*
X1651Y14965D01*
G37*
G36*
X1410Y17184D02*
X1651Y14965D01*
X2349Y14965D01*
X1410Y17184D01*
G37*
G36*
X2349Y14965D02*
X2500Y14989D01*
X1410Y17184D01*
X2349Y14965D01*
G37*
G36*
X1410Y17184D02*
X2500Y14989D01*
X2651Y14965D01*
X1410Y17184D01*
G37*
G36*
X1651Y14965D02*
X1410Y17184D01*
X1410Y15750D01*
X1651Y14965D01*
G37*
G36*
X1651Y14965D02*
X1410Y15750D01*
X1405Y15709D01*
X1651Y14965D01*
G37*
G36*
X1651Y14965D02*
X1405Y15709D01*
X1389Y15670D01*
X1651Y14965D01*
G37*
G36*
X1651Y14965D02*
X1389Y15670D01*
X1363Y15637D01*
X1651Y14965D01*
G37*
G36*
X1651Y14965D02*
X1363Y15637D01*
X1500Y14989D01*
X1651Y14965D01*
G37*
G36*
X1363Y15637D02*
X1349Y14965D01*
X1500Y14989D01*
X1363Y15637D01*
G37*
G36*
X1363Y15637D02*
X910Y15184D01*
X1349Y14965D01*
X1363Y15637D01*
G37*
G36*
X910Y15184D02*
X1213Y14896D01*
X1349Y14965D01*
X910Y15184D01*
G37*
G36*
X910Y15184D02*
X1104Y14787D01*
X1213Y14896D01*
X910Y15184D01*
G37*
G36*
X910Y15184D02*
X1035Y14651D01*
X1104Y14787D01*
X910Y15184D01*
G37*
G36*
X910Y15184D02*
X1011Y14500D01*
X1035Y14651D01*
X910Y15184D01*
G37*
G36*
X910Y15184D02*
X910Y13636D01*
X1011Y14500D01*
X910Y15184D01*
G37*
G36*
X1011Y14500D02*
X910Y13636D01*
X1035Y14349D01*
X1011Y14500D01*
G37*
G36*
X1035Y14349D02*
X910Y13636D01*
X1104Y14213D01*
X1035Y14349D01*
G37*
G36*
X1104Y14213D02*
X910Y13636D01*
X1137Y13863D01*
X1104Y14213D01*
G37*
G36*
X1213Y14104D02*
X1104Y14213D01*
X1137Y13863D01*
X1213Y14104D01*
G37*
G36*
X1170Y13889D02*
X1213Y14104D01*
X1137Y13863D01*
X1170Y13889D01*
G37*
G36*
X1213Y14104D02*
X1170Y13889D01*
X1209Y13905D01*
X1213Y14104D01*
G37*
G36*
X1213Y14104D02*
X1209Y13905D01*
X1250Y13910D01*
X1213Y14104D01*
G37*
G36*
X1213Y14104D02*
X1250Y13910D01*
X1349Y14035D01*
X1213Y14104D01*
G37*
G36*
X1349Y14035D02*
X1250Y13910D01*
X1500Y14011D01*
X1349Y14035D01*
G37*
G36*
X1500Y14011D02*
X1250Y13910D01*
X1800Y13910D01*
X1500Y14011D01*
G37*
G36*
X1651Y14035D02*
X1500Y14011D01*
X1800Y13910D01*
X1651Y14035D01*
G37*
G36*
X1787Y14104D02*
X1651Y14035D01*
X1800Y13910D01*
X1787Y14104D01*
G37*
G36*
X1787Y14104D02*
X1800Y13910D01*
X1849Y13958D01*
X1787Y14104D01*
G37*
G36*
X1787Y14104D02*
X1849Y13958D01*
X1920Y13995D01*
X1787Y14104D01*
G37*
G36*
X1896Y14213D02*
X1787Y14104D01*
X1920Y13995D01*
X1896Y14213D01*
G37*
G36*
X1896Y14213D02*
X1920Y13995D01*
X2000Y14008D01*
X1896Y14213D01*
G37*
G36*
X3500Y14011D02*
X3349Y14035D01*
X2245Y13670D01*
X3500Y14011D01*
G37*
G36*
X3500Y14011D02*
X2245Y13670D01*
X2208Y13599D01*
X3500Y14011D01*
G37*
G36*
X2208Y13599D02*
X4184Y13410D01*
X3500Y14011D01*
X2208Y13599D01*
G37*
G36*
X3651Y14035D02*
X3500Y14011D01*
X4184Y13410D01*
X3651Y14035D01*
G37*
G36*
X4184Y13410D02*
X3787Y14104D01*
X3651Y14035D01*
X4184Y13410D01*
G37*
G36*
X4184Y13410D02*
X4340Y13566D01*
X3787Y14104D01*
X4184Y13410D01*
G37*
G36*
X4340Y13566D02*
X4212Y14104D01*
X3787Y14104D01*
X4340Y13566D01*
G37*
G36*
X4104Y14212D02*
X3787Y14104D01*
X4212Y14104D01*
X4104Y14212D01*
G37*
G36*
X3896Y14213D02*
X3787Y14104D01*
X4104Y14212D01*
X3896Y14213D01*
G37*
G36*
X4034Y14349D02*
X3896Y14213D01*
X4104Y14212D01*
X4034Y14349D01*
G37*
G36*
X3965Y14349D02*
X3896Y14213D01*
X4034Y14349D01*
X3965Y14349D01*
G37*
G36*
X4034Y14349D02*
X4010Y14500D01*
X3965Y14349D01*
X4034Y14349D01*
G37*
G36*
X4010Y14500D02*
X3989Y14500D01*
X3965Y14349D01*
X4010Y14500D01*
G37*
G36*
X3965Y14651D02*
X3989Y14500D01*
X4010Y14500D01*
X3965Y14651D01*
G37*
G36*
X4034Y14651D02*
X3965Y14651D01*
X4010Y14500D01*
X4034Y14651D01*
G37*
G36*
X3896Y14787D02*
X3965Y14651D01*
X4034Y14651D01*
X3896Y14787D01*
G37*
G36*
X3896Y14787D02*
X4034Y14651D01*
X4104Y14788D01*
X3896Y14787D01*
G37*
G36*
X3787Y14896D02*
X3896Y14787D01*
X4104Y14788D01*
X3787Y14896D01*
G37*
G36*
X3787Y14896D02*
X4104Y14788D01*
X4212Y14896D01*
X3787Y14896D01*
G37*
G36*
X3651Y14965D02*
X3787Y14896D01*
X4212Y14896D01*
X3651Y14965D01*
G37*
G36*
X3651Y14965D02*
X4212Y14896D01*
X4349Y14966D01*
X3651Y14965D01*
G37*
G36*
X4340Y14038D02*
X4212Y14104D01*
X4340Y13566D01*
X4340Y14038D01*
G37*
G36*
X2208Y13599D02*
X2151Y13542D01*
X4184Y13410D01*
X2208Y13599D01*
G37*
G36*
X2151Y13542D02*
X2080Y13505D01*
X4184Y13410D01*
X2151Y13542D01*
G37*
G36*
X2080Y13505D02*
X2000Y13492D01*
X4184Y13410D01*
X2080Y13505D01*
G37*
G36*
X2000Y13492D02*
X1468Y13410D01*
X4184Y13410D01*
X2000Y13492D01*
G37*
G36*
X1920Y13505D02*
X1468Y13410D01*
X2000Y13492D01*
X1920Y13505D01*
G37*
G36*
X1849Y13542D02*
X1468Y13410D01*
X1920Y13505D01*
X1849Y13542D01*
G37*
G36*
X1849Y13542D02*
X1800Y13590D01*
X1468Y13410D01*
X1849Y13542D01*
G37*
G36*
X1800Y13590D02*
X1468Y13567D01*
X1468Y13410D01*
X1800Y13590D01*
G37*
G36*
X1316Y13590D02*
X1468Y13567D01*
X1800Y13590D01*
X1316Y13590D01*
G37*
G36*
X1316Y13590D02*
X1293Y13567D01*
X1468Y13567D01*
X1316Y13590D01*
G37*
G36*
X4791Y18595D02*
X4750Y18590D01*
X5349Y14965D01*
X4791Y18595D01*
G37*
G36*
X5500Y14989D02*
X4791Y18595D01*
X5349Y14965D01*
X5500Y14989D01*
G37*
G36*
X4791Y18595D02*
X5500Y14989D01*
X5651Y14965D01*
X4791Y18595D01*
G37*
G36*
X4830Y18611D02*
X4791Y18595D01*
X5651Y14965D01*
X4830Y18611D01*
G37*
G36*
X4830Y18611D02*
X5651Y14965D01*
X6349Y14965D01*
X4830Y18611D01*
G37*
G36*
X5651Y14965D02*
X5787Y14896D01*
X6349Y14965D01*
X5651Y14965D01*
G37*
G36*
X5787Y14896D02*
X6213Y14896D01*
X6349Y14965D01*
X5787Y14896D01*
G37*
G36*
X6213Y14896D02*
X5787Y14896D01*
X6104Y14787D01*
X6213Y14896D01*
G37*
G36*
X5787Y14896D02*
X5896Y14787D01*
X6104Y14787D01*
X5787Y14896D01*
G37*
G36*
X5896Y14787D02*
X5965Y14651D01*
X6104Y14787D01*
X5896Y14787D01*
G37*
G36*
X5965Y14651D02*
X6035Y14651D01*
X6104Y14787D01*
X5965Y14651D01*
G37*
G36*
X5965Y14651D02*
X5989Y14500D01*
X6035Y14651D01*
X5965Y14651D01*
G37*
G36*
X5989Y14500D02*
X6011Y14500D01*
X6035Y14651D01*
X5989Y14500D01*
G37*
G36*
X6011Y14500D02*
X5989Y14500D01*
X5965Y14349D01*
X6011Y14500D01*
G37*
G36*
X6035Y14349D02*
X6011Y14500D01*
X5965Y14349D01*
X6035Y14349D01*
G37*
G36*
X6035Y14349D02*
X5965Y14349D01*
X5935Y14290D01*
X6035Y14349D01*
G37*
G36*
X6104Y14213D02*
X6035Y14349D01*
X5935Y14290D01*
X6104Y14213D01*
G37*
G36*
X6104Y14213D02*
X5935Y14290D01*
X6213Y14104D01*
X6104Y14213D01*
G37*
G36*
X5935Y14290D02*
X7816Y12409D01*
X6213Y14104D01*
X5935Y14290D01*
G37*
G36*
X7816Y12409D02*
X6349Y14035D01*
X6213Y14104D01*
X7816Y12409D01*
G37*
G36*
X7816Y12409D02*
X6500Y14011D01*
X6349Y14035D01*
X7816Y12409D01*
G37*
G36*
X6500Y14011D02*
X7816Y12409D01*
X6651Y14035D01*
X6500Y14011D01*
G37*
G36*
X7349Y14034D02*
X6651Y14035D01*
X7816Y12409D01*
X7349Y14034D01*
G37*
G36*
X7500Y14010D02*
X7349Y14034D01*
X7816Y12409D01*
X7500Y14010D01*
G37*
G36*
X7651Y14034D02*
X7500Y14010D01*
X7816Y12409D01*
X7651Y14034D01*
G37*
G36*
X7816Y12409D02*
X8349Y14035D01*
X7651Y14034D01*
X7816Y12409D01*
G37*
G36*
X7788Y14104D02*
X7651Y14034D01*
X8349Y14035D01*
X7788Y14104D01*
G37*
G36*
X8213Y14104D02*
X7788Y14104D01*
X8349Y14035D01*
X8213Y14104D01*
G37*
G36*
X7896Y14212D02*
X7788Y14104D01*
X8213Y14104D01*
X7896Y14212D01*
G37*
G36*
X8104Y14213D02*
X7896Y14212D01*
X8213Y14104D01*
X8104Y14213D01*
G37*
G36*
X7966Y14349D02*
X7896Y14212D01*
X8104Y14213D01*
X7966Y14349D01*
G37*
G36*
X8035Y14349D02*
X7966Y14349D01*
X8104Y14213D01*
X8035Y14349D01*
G37*
G36*
X7990Y14500D02*
X7966Y14349D01*
X8035Y14349D01*
X7990Y14500D01*
G37*
G36*
X8011Y14500D02*
X7990Y14500D01*
X8035Y14349D01*
X8011Y14500D01*
G37*
G36*
X7990Y14500D02*
X8011Y14500D01*
X8035Y14651D01*
X7990Y14500D01*
G37*
G36*
X7966Y14651D02*
X7990Y14500D01*
X8035Y14651D01*
X7966Y14651D01*
G37*
G36*
X7936Y14710D02*
X7966Y14651D01*
X8035Y14651D01*
X7936Y14710D01*
G37*
G36*
X8104Y14787D02*
X7936Y14710D01*
X8035Y14651D01*
X8104Y14787D01*
G37*
G36*
X7936Y14710D02*
X8104Y14787D01*
X8213Y14896D01*
X7936Y14710D01*
G37*
G36*
X8441Y15215D02*
X7936Y14710D01*
X8213Y14896D01*
X8441Y15215D01*
G37*
G36*
X8213Y14896D02*
X8349Y14965D01*
X8441Y15215D01*
X8213Y14896D01*
G37*
G36*
X8441Y15215D02*
X8349Y14965D01*
X8500Y14989D01*
X8441Y15215D01*
G37*
G36*
X8441Y15215D02*
X8500Y14989D01*
X8651Y14965D01*
X8441Y15215D01*
G37*
G36*
X8787Y14896D02*
X8441Y15215D01*
X8651Y14965D01*
X8787Y14896D01*
G37*
G36*
X8787Y14896D02*
X9213Y14896D01*
X8441Y15215D01*
X8787Y14896D01*
G37*
G36*
X8441Y15215D02*
X9213Y14896D01*
X9349Y14965D01*
X8441Y15215D01*
G37*
G36*
X8441Y15215D02*
X9349Y14965D01*
X9500Y14989D01*
X8441Y15215D01*
G37*
G36*
X8441Y15215D02*
X9500Y14989D01*
X10500Y14989D01*
X8441Y15215D01*
G37*
G36*
X9500Y14989D02*
X10349Y14965D01*
X10500Y14989D01*
X9500Y14989D01*
G37*
G36*
X10349Y14965D02*
X9500Y14989D01*
X9651Y14965D01*
X10349Y14965D01*
G37*
G36*
X9787Y14896D02*
X10349Y14965D01*
X9651Y14965D01*
X9787Y14896D01*
G37*
G36*
X10213Y14896D02*
X10349Y14965D01*
X9787Y14896D01*
X10213Y14896D01*
G37*
G36*
X10213Y14896D02*
X9787Y14896D01*
X10104Y14787D01*
X10213Y14896D01*
G37*
G36*
X9787Y14896D02*
X9896Y14787D01*
X10104Y14787D01*
X9787Y14896D01*
G37*
G36*
X9896Y14787D02*
X9965Y14651D01*
X10104Y14787D01*
X9896Y14787D01*
G37*
G36*
X9965Y14651D02*
X10035Y14651D01*
X10104Y14787D01*
X9965Y14651D01*
G37*
G36*
X9965Y14651D02*
X9989Y14500D01*
X10035Y14651D01*
X9965Y14651D01*
G37*
G36*
X9989Y14500D02*
X10011Y14500D01*
X10035Y14651D01*
X9989Y14500D01*
G37*
G36*
X10011Y14500D02*
X9989Y14500D01*
X9965Y14349D01*
X10011Y14500D01*
G37*
G36*
X10035Y14349D02*
X10011Y14500D01*
X9965Y14349D01*
X10035Y14349D01*
G37*
G36*
X10035Y14349D02*
X9965Y14349D01*
X9896Y14213D01*
X10035Y14349D01*
G37*
G36*
X10104Y14213D02*
X10035Y14349D01*
X9896Y14213D01*
X10104Y14213D01*
G37*
G36*
X10104Y14213D02*
X9896Y14213D01*
X10213Y14104D01*
X10104Y14213D01*
G37*
G36*
X9896Y14213D02*
X9787Y14104D01*
X10213Y14104D01*
X9896Y14213D01*
G37*
G36*
X10213Y14104D02*
X9787Y14104D01*
X10349Y14035D01*
X10213Y14104D01*
G37*
G36*
X9787Y14104D02*
X9651Y14035D01*
X10349Y14035D01*
X9787Y14104D01*
G37*
G36*
X11000Y12409D02*
X10349Y14035D01*
X9651Y14035D01*
X11000Y12409D01*
G37*
G36*
X11000Y12409D02*
X9651Y14035D01*
X9500Y14011D01*
X11000Y12409D01*
G37*
G36*
X11000Y12409D02*
X9500Y14011D01*
X7816Y12409D01*
X11000Y12409D01*
G37*
G36*
X9500Y14011D02*
X9349Y14035D01*
X7816Y12409D01*
X9500Y14011D01*
G37*
G36*
X7816Y12409D02*
X9349Y14035D01*
X8651Y14035D01*
X7816Y12409D01*
G37*
G36*
X8787Y14104D02*
X8651Y14035D01*
X9349Y14035D01*
X8787Y14104D01*
G37*
G36*
X9213Y14104D02*
X8787Y14104D01*
X9349Y14035D01*
X9213Y14104D01*
G37*
G36*
X8896Y14213D02*
X8787Y14104D01*
X9213Y14104D01*
X8896Y14213D01*
G37*
G36*
X9104Y14213D02*
X8896Y14213D01*
X9213Y14104D01*
X9104Y14213D01*
G37*
G36*
X9104Y14213D02*
X9035Y14349D01*
X8896Y14213D01*
X9104Y14213D01*
G37*
G36*
X9035Y14349D02*
X8965Y14349D01*
X8896Y14213D01*
X9035Y14349D01*
G37*
G36*
X9035Y14349D02*
X9011Y14500D01*
X8965Y14349D01*
X9035Y14349D01*
G37*
G36*
X9011Y14500D02*
X8989Y14500D01*
X8965Y14349D01*
X9011Y14500D01*
G37*
G36*
X8989Y14500D02*
X9011Y14500D01*
X9035Y14651D01*
X8989Y14500D01*
G37*
G36*
X8965Y14651D02*
X8989Y14500D01*
X9035Y14651D01*
X8965Y14651D01*
G37*
G36*
X8965Y14651D02*
X9035Y14651D01*
X9104Y14787D01*
X8965Y14651D01*
G37*
G36*
X8896Y14787D02*
X8965Y14651D01*
X9104Y14787D01*
X8896Y14787D01*
G37*
G36*
X8787Y14896D02*
X8896Y14787D01*
X9104Y14787D01*
X8787Y14896D01*
G37*
G36*
X9213Y14896D02*
X8787Y14896D01*
X9104Y14787D01*
X9213Y14896D01*
G37*
G36*
X7816Y12409D02*
X8651Y14035D01*
X8500Y14011D01*
X7816Y12409D01*
G37*
G36*
X8500Y14011D02*
X8349Y14035D01*
X7816Y12409D01*
X8500Y14011D01*
G37*
G36*
X10500Y14011D02*
X10349Y14035D01*
X11000Y12409D01*
X10500Y14011D01*
G37*
G36*
X10651Y14035D02*
X10500Y14011D01*
X11000Y12409D01*
X10651Y14035D01*
G37*
G36*
X11000Y12409D02*
X11349Y14035D01*
X10651Y14035D01*
X11000Y12409D01*
G37*
G36*
X10787Y14104D02*
X10651Y14035D01*
X11349Y14035D01*
X10787Y14104D01*
G37*
G36*
X11213Y14104D02*
X10787Y14104D01*
X11349Y14035D01*
X11213Y14104D01*
G37*
G36*
X10896Y14213D02*
X10787Y14104D01*
X11213Y14104D01*
X10896Y14213D01*
G37*
G36*
X11104Y14213D02*
X10896Y14213D01*
X11213Y14104D01*
X11104Y14213D01*
G37*
G36*
X11104Y14213D02*
X11035Y14349D01*
X10896Y14213D01*
X11104Y14213D01*
G37*
G36*
X11035Y14349D02*
X10965Y14349D01*
X10896Y14213D01*
X11035Y14349D01*
G37*
G36*
X11035Y14349D02*
X11011Y14500D01*
X10965Y14349D01*
X11035Y14349D01*
G37*
G36*
X11011Y14500D02*
X10989Y14500D01*
X10965Y14349D01*
X11011Y14500D01*
G37*
G36*
X10989Y14500D02*
X11011Y14500D01*
X11035Y14651D01*
X10989Y14500D01*
G37*
G36*
X10965Y14651D02*
X10989Y14500D01*
X11035Y14651D01*
X10965Y14651D01*
G37*
G36*
X10965Y14651D02*
X11035Y14651D01*
X11104Y14787D01*
X10965Y14651D01*
G37*
G36*
X10896Y14787D02*
X10965Y14651D01*
X11104Y14787D01*
X10896Y14787D01*
G37*
G36*
X10787Y14896D02*
X10896Y14787D01*
X11104Y14787D01*
X10787Y14896D01*
G37*
G36*
X11213Y14896D02*
X10787Y14896D01*
X11104Y14787D01*
X11213Y14896D01*
G37*
G36*
X11213Y14896D02*
X11349Y14965D01*
X10787Y14896D01*
X11213Y14896D01*
G37*
G36*
X10787Y14896D02*
X11349Y14965D01*
X10651Y14965D01*
X10787Y14896D01*
G37*
G36*
X11349Y14965D02*
X10500Y14989D01*
X10651Y14965D01*
X11349Y14965D01*
G37*
G36*
X10500Y14989D02*
X11349Y14965D01*
X11500Y14989D01*
X10500Y14989D01*
G37*
G36*
X12750Y15215D02*
X10500Y14989D01*
X11500Y14989D01*
X12750Y15215D01*
G37*
G36*
X12750Y15215D02*
X11500Y14989D01*
X12349Y14965D01*
X12750Y15215D01*
G37*
G36*
X12349Y14965D02*
X11500Y14989D01*
X11651Y14965D01*
X12349Y14965D01*
G37*
G36*
X11787Y14896D02*
X12349Y14965D01*
X11651Y14965D01*
X11787Y14896D01*
G37*
G36*
X12213Y14896D02*
X12349Y14965D01*
X11787Y14896D01*
X12213Y14896D01*
G37*
G36*
X12213Y14896D02*
X11787Y14896D01*
X12104Y14787D01*
X12213Y14896D01*
G37*
G36*
X11787Y14896D02*
X11896Y14787D01*
X12104Y14787D01*
X11787Y14896D01*
G37*
G36*
X11896Y14787D02*
X11965Y14651D01*
X12104Y14787D01*
X11896Y14787D01*
G37*
G36*
X11965Y14651D02*
X12035Y14651D01*
X12104Y14787D01*
X11965Y14651D01*
G37*
G36*
X11965Y14651D02*
X11989Y14500D01*
X12035Y14651D01*
X11965Y14651D01*
G37*
G36*
X11989Y14500D02*
X12011Y14500D01*
X12035Y14651D01*
X11989Y14500D01*
G37*
G36*
X12011Y14500D02*
X11989Y14500D01*
X11965Y14349D01*
X12011Y14500D01*
G37*
G36*
X12035Y14349D02*
X12011Y14500D01*
X11965Y14349D01*
X12035Y14349D01*
G37*
G36*
X12035Y14349D02*
X11965Y14349D01*
X11896Y14213D01*
X12035Y14349D01*
G37*
G36*
X12104Y14213D02*
X12035Y14349D01*
X11896Y14213D01*
X12104Y14213D01*
G37*
G36*
X12104Y14213D02*
X11896Y14213D01*
X12213Y14104D01*
X12104Y14213D01*
G37*
G36*
X11896Y14213D02*
X11787Y14104D01*
X12213Y14104D01*
X11896Y14213D01*
G37*
G36*
X12213Y14104D02*
X11787Y14104D01*
X12349Y14035D01*
X12213Y14104D01*
G37*
G36*
X11787Y14104D02*
X11651Y14035D01*
X12349Y14035D01*
X11787Y14104D01*
G37*
G36*
X11112Y12362D02*
X12349Y14035D01*
X11651Y14035D01*
X11112Y12362D01*
G37*
G36*
X11112Y12362D02*
X11651Y14035D01*
X11500Y14011D01*
X11112Y12362D01*
G37*
G36*
X11079Y12388D02*
X11112Y12362D01*
X11500Y14011D01*
X11079Y12388D01*
G37*
G36*
X11041Y12404D02*
X11079Y12388D01*
X11500Y14011D01*
X11041Y12404D01*
G37*
G36*
X11041Y12404D02*
X11500Y14011D01*
X11349Y14035D01*
X11041Y12404D01*
G37*
G36*
X11349Y14035D02*
X11000Y12409D01*
X11041Y12404D01*
X11349Y14035D01*
G37*
G36*
X12500Y14011D02*
X12349Y14035D01*
X11112Y12362D01*
X12500Y14011D01*
G37*
G36*
X11112Y12362D02*
X12651Y14035D01*
X12500Y14011D01*
X11112Y12362D01*
G37*
G36*
X13066Y10409D02*
X12651Y14035D01*
X11112Y12362D01*
X13066Y10409D01*
G37*
G36*
X12787Y14104D02*
X12651Y14035D01*
X13066Y10409D01*
X12787Y14104D01*
G37*
G36*
X12896Y14213D02*
X12787Y14104D01*
X13066Y10409D01*
X12896Y14213D01*
G37*
G36*
X18091Y12250D02*
X12896Y14213D01*
X13066Y10409D01*
X18091Y12250D01*
G37*
G36*
X17934Y10409D02*
X18091Y12250D01*
X13066Y10409D01*
X17934Y10409D01*
G37*
G36*
X17934Y10409D02*
X18091Y10566D01*
X18091Y12250D01*
X17934Y10409D01*
G37*
G36*
X18091Y12250D02*
X12965Y14349D01*
X12896Y14213D01*
X18091Y12250D01*
G37*
G36*
X18091Y12250D02*
X12989Y14500D01*
X12965Y14349D01*
X18091Y12250D01*
G37*
G36*
X13566Y15965D02*
X12989Y14500D01*
X18091Y12250D01*
X13566Y15965D01*
G37*
G36*
X18091Y12250D02*
X17986Y15170D01*
X13566Y15965D01*
X18091Y12250D01*
G37*
G36*
X13566Y15965D02*
X17986Y15170D01*
X17970Y15209D01*
X13566Y15965D01*
G37*
G36*
X17970Y15209D02*
X17965Y15250D01*
X13566Y15965D01*
X17970Y15209D01*
G37*
G36*
X17965Y15250D02*
X17809Y15965D01*
X13566Y15965D01*
X17965Y15250D01*
G37*
G36*
X17965Y15809D02*
X17809Y15965D01*
X17965Y15250D01*
X17965Y15809D01*
G37*
G36*
X18096Y12291D02*
X17986Y15170D01*
X18091Y12250D01*
X18096Y12291D01*
G37*
G36*
X18112Y12329D02*
X17986Y15170D01*
X18096Y12291D01*
X18112Y12329D01*
G37*
G36*
X17986Y15170D02*
X18112Y12329D01*
X18012Y15137D01*
X17986Y15170D01*
G37*
G36*
X18506Y13506D02*
X18012Y15137D01*
X18112Y12329D01*
X18506Y13506D01*
G37*
G36*
X18506Y13506D02*
X18112Y12329D01*
X18138Y12362D01*
X18506Y13506D01*
G37*
G36*
X18506Y13506D02*
X18138Y12362D01*
X18506Y13000D01*
X18506Y13506D01*
G37*
G36*
X18506Y13000D02*
X18138Y12362D01*
X18530Y12847D01*
X18506Y13000D01*
G37*
G36*
X18530Y12847D02*
X18138Y12362D01*
X18561Y12786D01*
X18530Y12847D01*
G37*
G36*
X18506Y13506D02*
X18506Y13000D01*
X18530Y13153D01*
X18506Y13506D01*
G37*
G36*
X18506Y13506D02*
X18530Y13153D01*
X18600Y13290D01*
X18506Y13506D01*
G37*
G36*
X18506Y13506D02*
X18600Y13290D01*
X18710Y13400D01*
X18506Y13506D01*
G37*
G36*
X18506Y13506D02*
X18710Y13400D01*
X18847Y13470D01*
X18506Y13506D01*
G37*
G36*
X18506Y13506D02*
X18847Y13470D01*
X19000Y13494D01*
X18506Y13506D01*
G37*
G36*
X18506Y13506D02*
X19000Y13494D01*
X19494Y13506D01*
X18506Y13506D01*
G37*
G36*
X19000Y13494D02*
X19153Y13470D01*
X19494Y13506D01*
X19000Y13494D01*
G37*
G36*
X19153Y13470D02*
X19290Y13400D01*
X19494Y13506D01*
X19153Y13470D01*
G37*
G36*
X19494Y13506D02*
X19290Y13400D01*
X19400Y13290D01*
X19494Y13506D01*
G37*
G36*
X19505Y13505D02*
X19494Y13506D01*
X19400Y13290D01*
X19505Y13505D01*
G37*
G36*
X19505Y13505D02*
X19400Y13290D01*
X19600Y13291D01*
X19505Y13505D01*
G37*
G36*
X19400Y13290D02*
X19529Y13153D01*
X19600Y13291D01*
X19400Y13290D01*
G37*
G36*
X19529Y13153D02*
X19400Y13290D01*
X19470Y13153D01*
X19529Y13153D01*
G37*
G36*
X19529Y13153D02*
X19470Y13153D01*
X19505Y13000D01*
X19529Y13153D01*
G37*
G36*
X19470Y13153D02*
X19494Y13000D01*
X19505Y13000D01*
X19470Y13153D01*
G37*
G36*
X19505Y13000D02*
X19494Y13000D01*
X19470Y12847D01*
X19505Y13000D01*
G37*
G36*
X19529Y12847D02*
X19505Y13000D01*
X19470Y12847D01*
X19529Y12847D01*
G37*
G36*
X19470Y12847D02*
X19400Y12710D01*
X19529Y12847D01*
X19470Y12847D01*
G37*
G36*
X19529Y12847D02*
X19400Y12710D01*
X19600Y12709D01*
X19529Y12847D01*
G37*
G36*
X19400Y12710D02*
X19290Y12600D01*
X19600Y12709D01*
X19400Y12710D01*
G37*
G36*
X19600Y12709D02*
X19290Y12600D01*
X19290Y12400D01*
X19600Y12709D01*
G37*
G36*
X19153Y12530D02*
X19290Y12400D01*
X19290Y12600D01*
X19153Y12530D01*
G37*
G36*
X19153Y12530D02*
X19153Y12470D01*
X19290Y12400D01*
X19153Y12530D01*
G37*
G36*
X19153Y12530D02*
X19000Y12494D01*
X19153Y12470D01*
X19153Y12530D01*
G37*
G36*
X19153Y12530D02*
X19000Y12506D01*
X19000Y12494D01*
X19153Y12530D01*
G37*
G36*
X19000Y12506D02*
X18847Y12530D01*
X19000Y12494D01*
X19000Y12506D01*
G37*
G36*
X18847Y12530D02*
X18847Y12470D01*
X19000Y12494D01*
X18847Y12530D01*
G37*
G36*
X18847Y12530D02*
X18786Y12561D01*
X18847Y12470D01*
X18847Y12530D01*
G37*
G36*
X18786Y12561D02*
X18710Y12400D01*
X18847Y12470D01*
X18786Y12561D01*
G37*
G36*
X18600Y12290D02*
X18710Y12400D01*
X18786Y12561D01*
X18600Y12290D01*
G37*
G36*
X18409Y12184D02*
X18600Y12290D01*
X18786Y12561D01*
X18409Y12184D01*
G37*
G36*
X18409Y12184D02*
X18530Y12153D01*
X18600Y12290D01*
X18409Y12184D01*
G37*
G36*
X18409Y12184D02*
X18506Y12000D01*
X18530Y12153D01*
X18409Y12184D01*
G37*
G36*
X18506Y12000D02*
X18409Y12184D01*
X18530Y11847D01*
X18506Y12000D01*
G37*
G36*
X18530Y11847D02*
X18409Y12184D01*
X18409Y10500D01*
X18530Y11847D01*
G37*
G36*
X18530Y11847D02*
X18409Y10500D01*
X18600Y11710D01*
X18530Y11847D01*
G37*
G36*
X18600Y11710D02*
X18409Y10500D01*
X18710Y11600D01*
X18600Y11710D01*
G37*
G36*
X18710Y11600D02*
X18409Y10500D01*
X18847Y11530D01*
X18710Y11600D01*
G37*
G36*
X18847Y11530D02*
X18409Y10500D01*
X19000Y11506D01*
X18847Y11530D01*
G37*
G36*
X19530Y10653D02*
X19000Y11506D01*
X18409Y10500D01*
X19530Y10653D01*
G37*
G36*
X19530Y10653D02*
X18409Y10500D01*
X19506Y10500D01*
X19530Y10653D01*
G37*
G36*
X18409Y10500D02*
X18404Y10459D01*
X19506Y10500D01*
X18409Y10500D01*
G37*
G36*
X19506Y10500D02*
X18404Y10459D01*
X19530Y10347D01*
X19506Y10500D01*
G37*
G36*
X18404Y10459D02*
X18388Y10421D01*
X19530Y10347D01*
X18404Y10459D01*
G37*
G36*
X19000Y11506D02*
X19530Y10653D01*
X19600Y10790D01*
X19000Y11506D01*
G37*
G36*
X19153Y11530D02*
X19000Y11506D01*
X19600Y10790D01*
X19153Y11530D01*
G37*
G36*
X19710Y10900D02*
X19153Y11530D01*
X19600Y10790D01*
X19710Y10900D01*
G37*
G36*
X19290Y11600D02*
X19153Y11530D01*
X19710Y10900D01*
X19290Y11600D01*
G37*
G36*
X19710Y10900D02*
X19710Y11600D01*
X19290Y11600D01*
X19710Y10900D01*
G37*
G36*
X19400Y11710D02*
X19290Y11600D01*
X19710Y11600D01*
X19400Y11710D01*
G37*
G36*
X19600Y11710D02*
X19400Y11710D01*
X19710Y11600D01*
X19600Y11710D01*
G37*
G36*
X19470Y11847D02*
X19400Y11710D01*
X19600Y11710D01*
X19470Y11847D01*
G37*
G36*
X19530Y11847D02*
X19470Y11847D01*
X19600Y11710D01*
X19530Y11847D01*
G37*
G36*
X19494Y12000D02*
X19470Y11847D01*
X19530Y11847D01*
X19494Y12000D01*
G37*
G36*
X19506Y12000D02*
X19494Y12000D01*
X19530Y11847D01*
X19506Y12000D01*
G37*
G36*
X19470Y12153D02*
X19494Y12000D01*
X19506Y12000D01*
X19470Y12153D01*
G37*
G36*
X19530Y12153D02*
X19470Y12153D01*
X19506Y12000D01*
X19530Y12153D01*
G37*
G36*
X19470Y12153D02*
X19530Y12153D01*
X19600Y12290D01*
X19470Y12153D01*
G37*
G36*
X19400Y12290D02*
X19470Y12153D01*
X19600Y12290D01*
X19400Y12290D01*
G37*
G36*
X19709Y12600D02*
X19400Y12290D01*
X19600Y12290D01*
X19709Y12600D01*
G37*
G36*
X19709Y12600D02*
X19600Y12290D01*
X19710Y12400D01*
X19709Y12600D01*
G37*
G36*
X19709Y12600D02*
X19710Y12400D01*
X19847Y12529D01*
X19709Y12600D01*
G37*
G36*
X19847Y12529D02*
X19710Y12400D01*
X19847Y12470D01*
X19847Y12529D01*
G37*
G36*
X19847Y12529D02*
X19847Y12470D01*
X20000Y12505D01*
X19847Y12529D01*
G37*
G36*
X19847Y12470D02*
X20000Y12494D01*
X20000Y12505D01*
X19847Y12470D01*
G37*
G36*
X20000Y12505D02*
X20000Y12494D01*
X20153Y12470D01*
X20000Y12505D01*
G37*
G36*
X20000Y12505D02*
X20153Y12470D01*
X20153Y12529D01*
X20000Y12505D01*
G37*
G36*
X20153Y12529D02*
X20153Y12470D01*
X20290Y12400D01*
X20153Y12529D01*
G37*
G36*
X20153Y12529D02*
X20290Y12400D01*
X20291Y12600D01*
X20153Y12529D01*
G37*
G36*
X20291Y12600D02*
X20290Y12400D01*
X20400Y12290D01*
X20291Y12600D01*
G37*
G36*
X20291Y12600D02*
X20400Y12290D01*
X20400Y12709D01*
X20291Y12600D01*
G37*
G36*
X20400Y12709D02*
X20400Y12290D01*
X20470Y12153D01*
X20400Y12709D01*
G37*
G36*
X20400Y12709D02*
X20470Y12153D01*
X20471Y12847D01*
X20400Y12709D01*
G37*
G36*
X20471Y12847D02*
X20470Y12153D01*
X20488Y12887D01*
X20471Y12847D01*
G37*
G36*
X20470Y12153D02*
X20738Y13137D01*
X20488Y12887D01*
X20470Y12153D01*
G37*
G36*
X20738Y13137D02*
X20470Y12153D01*
X20494Y12000D01*
X20738Y13137D01*
G37*
G36*
X20738Y13137D02*
X20494Y12000D01*
X20494Y10500D01*
X20738Y13137D01*
G37*
G36*
X20494Y12000D02*
X20470Y10653D01*
X20494Y10500D01*
X20494Y12000D01*
G37*
G36*
X20494Y12000D02*
X20470Y11847D01*
X20470Y10653D01*
X20494Y12000D01*
G37*
G36*
X20470Y11847D02*
X20400Y10790D01*
X20470Y10653D01*
X20470Y11847D01*
G37*
G36*
X20470Y11847D02*
X20400Y11710D01*
X20400Y10790D01*
X20470Y11847D01*
G37*
G36*
X20290Y11600D02*
X20400Y10790D01*
X20400Y11710D01*
X20290Y11600D01*
G37*
G36*
X20290Y11600D02*
X20290Y10900D01*
X20400Y10790D01*
X20290Y11600D01*
G37*
G36*
X20153Y11530D02*
X20290Y10900D01*
X20290Y11600D01*
X20153Y11530D01*
G37*
G36*
X20153Y11530D02*
X20153Y10970D01*
X20290Y10900D01*
X20153Y11530D01*
G37*
G36*
X20000Y11506D02*
X20153Y10970D01*
X20153Y11530D01*
X20000Y11506D01*
G37*
G36*
X20000Y11506D02*
X20000Y10994D01*
X20153Y10970D01*
X20000Y11506D01*
G37*
G36*
X19847Y10970D02*
X20000Y10994D01*
X20000Y11506D01*
X19847Y10970D01*
G37*
G36*
X19847Y11530D02*
X19847Y10970D01*
X20000Y11506D01*
X19847Y11530D01*
G37*
G36*
X19710Y10900D02*
X19847Y10970D01*
X19847Y11530D01*
X19710Y10900D01*
G37*
G36*
X19847Y11530D02*
X19710Y11600D01*
X19710Y10900D01*
X19847Y11530D01*
G37*
G36*
X20488Y12887D02*
X20476Y12877D01*
X20471Y12847D01*
X20488Y12887D01*
G37*
G36*
X19400Y12290D02*
X19709Y12600D01*
X19290Y12400D01*
X19400Y12290D01*
G37*
G36*
X19709Y12600D02*
X19600Y12709D01*
X19290Y12400D01*
X19709Y12600D01*
G37*
G36*
X19505Y13505D02*
X19600Y13291D01*
X19709Y13400D01*
X19505Y13505D01*
G37*
G36*
X19505Y13505D02*
X19709Y13400D01*
X19847Y13471D01*
X19505Y13505D01*
G37*
G36*
X19505Y13505D02*
X19847Y13471D01*
X20000Y13495D01*
X19505Y13505D01*
G37*
G36*
X19505Y13505D02*
X20000Y13495D01*
X20465Y13505D01*
X19505Y13505D01*
G37*
G36*
X20000Y13495D02*
X20153Y13471D01*
X20465Y13505D01*
X20000Y13495D01*
G37*
G36*
X20153Y13471D02*
X20291Y13400D01*
X20465Y13505D01*
X20153Y13471D01*
G37*
G36*
X20465Y13505D02*
X20291Y13400D01*
X20465Y13316D01*
X20465Y13505D01*
G37*
G36*
X20291Y13400D02*
X20400Y13291D01*
X20465Y13316D01*
X20291Y13400D01*
G37*
G36*
X20400Y13291D02*
X20414Y13265D01*
X20465Y13316D01*
X20400Y13291D01*
G37*
G36*
X19494Y14494D02*
X19494Y13506D01*
X19505Y13505D01*
X19494Y14494D01*
G37*
G36*
X19494Y14494D02*
X19505Y13505D01*
X19505Y14495D01*
X19494Y14494D01*
G37*
G36*
X19494Y14494D02*
X19505Y14495D01*
X20184Y14715D01*
X19494Y14494D01*
G37*
G36*
X20184Y14715D02*
X19505Y14495D01*
X20404Y14495D01*
X20184Y14715D01*
G37*
G36*
X20184Y14715D02*
X18500Y14715D01*
X19494Y14494D01*
X20184Y14715D01*
G37*
G36*
X18500Y14715D02*
X18506Y14494D01*
X19494Y14494D01*
X18500Y14715D01*
G37*
G36*
X18500Y14715D02*
X18459Y14720D01*
X18506Y14494D01*
X18500Y14715D01*
G37*
G36*
X18506Y14494D02*
X18459Y14720D01*
X18420Y14736D01*
X18506Y14494D01*
G37*
G36*
X18420Y14736D02*
X18506Y13506D01*
X18506Y14494D01*
X18420Y14736D01*
G37*
G36*
X18420Y14736D02*
X18387Y14762D01*
X18506Y13506D01*
X18420Y14736D01*
G37*
G36*
X18387Y14762D02*
X18012Y15137D01*
X18506Y13506D01*
X18387Y14762D01*
G37*
G36*
X12965Y14651D02*
X12989Y14500D01*
X13566Y15965D01*
X12965Y14651D01*
G37*
G36*
X13566Y15965D02*
X12863Y15262D01*
X12965Y14651D01*
X13566Y15965D01*
G37*
G36*
X12863Y15262D02*
X12896Y14787D01*
X12965Y14651D01*
X12863Y15262D01*
G37*
G36*
X12896Y14787D02*
X12863Y15262D01*
X12787Y14896D01*
X12896Y14787D01*
G37*
G36*
X12787Y14896D02*
X12863Y15262D01*
X12830Y15236D01*
X12787Y14896D01*
G37*
G36*
X12830Y15236D02*
X12791Y15220D01*
X12787Y14896D01*
X12830Y15236D01*
G37*
G36*
X12750Y15215D02*
X12787Y14896D01*
X12791Y15220D01*
X12750Y15215D01*
G37*
G36*
X12750Y15215D02*
X12651Y14965D01*
X12787Y14896D01*
X12750Y15215D01*
G37*
G36*
X12500Y14989D02*
X12651Y14965D01*
X12750Y15215D01*
X12500Y14989D01*
G37*
G36*
X12349Y14965D02*
X12500Y14989D01*
X12750Y15215D01*
X12349Y14965D01*
G37*
G36*
X12750Y15215D02*
X8441Y15215D01*
X10500Y14989D01*
X12750Y15215D01*
G37*
G36*
X7212Y14104D02*
X6651Y14035D01*
X7349Y14034D01*
X7212Y14104D01*
G37*
G36*
X6787Y14104D02*
X6651Y14035D01*
X7212Y14104D01*
X6787Y14104D01*
G37*
G36*
X7104Y14212D02*
X6787Y14104D01*
X7212Y14104D01*
X7104Y14212D01*
G37*
G36*
X6896Y14213D02*
X6787Y14104D01*
X7104Y14212D01*
X6896Y14213D01*
G37*
G36*
X7034Y14349D02*
X6896Y14213D01*
X7104Y14212D01*
X7034Y14349D01*
G37*
G36*
X6965Y14349D02*
X6896Y14213D01*
X7034Y14349D01*
X6965Y14349D01*
G37*
G36*
X7034Y14349D02*
X7010Y14500D01*
X6965Y14349D01*
X7034Y14349D01*
G37*
G36*
X7010Y14500D02*
X6989Y14500D01*
X6965Y14349D01*
X7010Y14500D01*
G37*
G36*
X6965Y14651D02*
X6989Y14500D01*
X7010Y14500D01*
X6965Y14651D01*
G37*
G36*
X7034Y14651D02*
X6965Y14651D01*
X7010Y14500D01*
X7034Y14651D01*
G37*
G36*
X6935Y14710D02*
X6965Y14651D01*
X7034Y14651D01*
X6935Y14710D01*
G37*
G36*
X7104Y14788D02*
X6935Y14710D01*
X7034Y14651D01*
X7104Y14788D01*
G37*
G36*
X6935Y14710D02*
X7104Y14788D01*
X7212Y14896D01*
X6935Y14710D01*
G37*
G36*
X9316Y17091D02*
X6935Y14710D01*
X7212Y14896D01*
X9316Y17091D01*
G37*
G36*
X7212Y14896D02*
X7349Y14966D01*
X9316Y17091D01*
X7212Y14896D01*
G37*
G36*
X9316Y17091D02*
X7349Y14966D01*
X8262Y15488D01*
X9316Y17091D01*
G37*
G36*
X8262Y15488D02*
X7349Y14966D01*
X7500Y14990D01*
X8262Y15488D01*
G37*
G36*
X8262Y15488D02*
X7500Y14990D01*
X7651Y14966D01*
X8262Y15488D01*
G37*
G36*
X7651Y14966D02*
X7710Y14936D01*
X8262Y15488D01*
X7651Y14966D01*
G37*
G36*
X8262Y15488D02*
X8295Y15514D01*
X9316Y17091D01*
X8262Y15488D01*
G37*
G36*
X8295Y15514D02*
X8334Y15530D01*
X9316Y17091D01*
X8295Y15514D01*
G37*
G36*
X8334Y15530D02*
X8375Y15535D01*
X9316Y17091D01*
X8334Y15530D01*
G37*
G36*
X9316Y17091D02*
X8375Y15535D01*
X12684Y15535D01*
X9316Y17091D01*
G37*
G36*
X12000Y17091D02*
X9316Y17091D01*
X12684Y15535D01*
X12000Y17091D01*
G37*
G36*
X12041Y17096D02*
X12000Y17091D01*
X12684Y15535D01*
X12041Y17096D01*
G37*
G36*
X12684Y15535D02*
X12079Y17112D01*
X12041Y17096D01*
X12684Y15535D01*
G37*
G36*
X13387Y16238D02*
X12079Y17112D01*
X12684Y15535D01*
X13387Y16238D01*
G37*
G36*
X12112Y17138D02*
X12079Y17112D01*
X13387Y16238D01*
X12112Y17138D01*
G37*
G36*
X13420Y16264D02*
X12112Y17138D01*
X13387Y16238D01*
X13420Y16264D01*
G37*
G36*
X13420Y16264D02*
X12750Y17744D01*
X12112Y17138D01*
X13420Y16264D01*
G37*
G36*
X12750Y17744D02*
X12723Y17748D01*
X12112Y17138D01*
X12750Y17744D01*
G37*
G36*
X12829Y17756D02*
X12750Y17744D01*
X13420Y16264D01*
X12829Y17756D01*
G37*
G36*
X13756Y17000D02*
X12829Y17756D01*
X13420Y16264D01*
X13756Y17000D01*
G37*
G36*
X13459Y16280D02*
X13756Y17000D01*
X13420Y16264D01*
X13459Y16280D01*
G37*
G36*
X13780Y16847D02*
X13756Y17000D01*
X13459Y16280D01*
X13780Y16847D01*
G37*
G36*
X13780Y16847D02*
X13459Y16280D01*
X13500Y16285D01*
X13780Y16847D01*
G37*
G36*
X13780Y16847D02*
X13500Y16285D01*
X13850Y16710D01*
X13780Y16847D01*
G37*
G36*
X13850Y16710D02*
X13500Y16285D01*
X13960Y16600D01*
X13850Y16710D01*
G37*
G36*
X13960Y16600D02*
X13500Y16285D01*
X14097Y16530D01*
X13960Y16600D01*
G37*
G36*
X14097Y16530D02*
X13500Y16285D01*
X14250Y16506D01*
X14097Y16530D01*
G37*
G36*
X14250Y16506D02*
X13500Y16285D01*
X15856Y16356D01*
X14250Y16506D01*
G37*
G36*
X15856Y16356D02*
X13500Y16285D01*
X17875Y16285D01*
X15856Y16356D01*
G37*
G36*
X16644Y16356D02*
X15856Y16356D01*
X17875Y16285D01*
X16644Y16356D01*
G37*
G36*
X17875Y16285D02*
X17387Y17387D01*
X16644Y16356D01*
X17875Y16285D01*
G37*
G36*
X17387Y17387D02*
X16644Y17144D01*
X16644Y16356D01*
X17387Y17387D01*
G37*
G36*
X17361Y17420D02*
X16644Y17144D01*
X17387Y17387D01*
X17361Y17420D01*
G37*
G36*
X17345Y17459D02*
X16644Y17144D01*
X17361Y17420D01*
X17345Y17459D01*
G37*
G36*
X16644Y17144D02*
X17345Y17459D01*
X16625Y17628D01*
X16644Y17144D01*
G37*
G36*
X17340Y17500D02*
X16625Y17628D01*
X17345Y17459D01*
X17340Y17500D01*
G37*
G36*
X16644Y17750D02*
X16625Y17628D01*
X17340Y17500D01*
X16644Y17750D01*
G37*
G36*
X16644Y17750D02*
X17340Y17500D01*
X17340Y18184D01*
X16644Y17750D01*
G37*
G36*
X16625Y17872D02*
X16644Y17750D01*
X17340Y18184D01*
X16625Y17872D01*
G37*
G36*
X17184Y18340D02*
X16625Y17872D01*
X17340Y18184D01*
X17184Y18340D01*
G37*
G36*
X16569Y17982D02*
X16625Y17872D01*
X17184Y18340D01*
X16569Y17982D01*
G37*
G36*
X16482Y18069D02*
X16569Y17982D01*
X17184Y18340D01*
X16482Y18069D01*
G37*
G36*
X16372Y18125D02*
X16482Y18069D01*
X17184Y18340D01*
X16372Y18125D01*
G37*
G36*
X16250Y18144D02*
X16372Y18125D01*
X17184Y18340D01*
X16250Y18144D01*
G37*
G36*
X16250Y18144D02*
X17184Y18340D01*
X12829Y18244D01*
X16250Y18144D01*
G37*
G36*
X12750Y18256D02*
X12829Y18244D01*
X17184Y18340D01*
X12750Y18256D01*
G37*
G36*
X9500Y18340D02*
X12750Y18256D01*
X17184Y18340D01*
X9500Y18340D01*
G37*
G36*
X9500Y18340D02*
X12671Y18244D01*
X12750Y18256D01*
X9500Y18340D01*
G37*
G36*
X9500Y18340D02*
X12599Y18208D01*
X12671Y18244D01*
X9500Y18340D01*
G37*
G36*
X9500Y18340D02*
X12542Y18151D01*
X12599Y18208D01*
X9500Y18340D01*
G37*
G36*
X9500Y18340D02*
X12506Y18079D01*
X12542Y18151D01*
X9500Y18340D01*
G37*
G36*
X9500Y18340D02*
X11934Y17409D01*
X12506Y18079D01*
X9500Y18340D01*
G37*
G36*
X11934Y17409D02*
X12494Y18000D01*
X12506Y18079D01*
X11934Y17409D01*
G37*
G36*
X12494Y18000D02*
X11934Y17409D01*
X12498Y17973D01*
X12494Y18000D01*
G37*
G36*
X9500Y18340D02*
X9250Y17409D01*
X11934Y17409D01*
X9500Y18340D01*
G37*
G36*
X9459Y18345D02*
X9250Y17409D01*
X9500Y18340D01*
X9459Y18345D01*
G37*
G36*
X9420Y18361D02*
X9250Y17409D01*
X9459Y18345D01*
X9420Y18361D01*
G37*
G36*
X9420Y18361D02*
X9209Y17404D01*
X9250Y17409D01*
X9420Y18361D01*
G37*
G36*
X9420Y18361D02*
X9387Y18387D01*
X9209Y17404D01*
X9420Y18361D01*
G37*
G36*
X9209Y17404D02*
X9387Y18387D01*
X9171Y17388D01*
X9209Y17404D01*
G37*
G36*
X7710Y20064D02*
X9171Y17388D01*
X9387Y18387D01*
X7710Y20064D01*
G37*
G36*
X7710Y20064D02*
X7651Y20034D01*
X9171Y17388D01*
X7710Y20064D01*
G37*
G36*
X7651Y20034D02*
X9138Y17362D01*
X9171Y17388D01*
X7651Y20034D01*
G37*
G36*
X9138Y17362D02*
X7651Y20034D01*
X7500Y20010D01*
X9138Y17362D01*
G37*
G36*
X7500Y20010D02*
X7349Y20034D01*
X9138Y17362D01*
X7500Y20010D01*
G37*
G36*
X9138Y17362D02*
X7349Y20034D01*
X6651Y20034D01*
X9138Y17362D01*
G37*
G36*
X6788Y20104D02*
X6651Y20034D01*
X7349Y20034D01*
X6788Y20104D01*
G37*
G36*
X7212Y20104D02*
X6788Y20104D01*
X7349Y20034D01*
X7212Y20104D01*
G37*
G36*
X6896Y20212D02*
X6788Y20104D01*
X7212Y20104D01*
X6896Y20212D01*
G37*
G36*
X7104Y20212D02*
X6896Y20212D01*
X7212Y20104D01*
X7104Y20212D01*
G37*
G36*
X7104Y20212D02*
X7034Y20349D01*
X6896Y20212D01*
X7104Y20212D01*
G37*
G36*
X7034Y20349D02*
X6966Y20349D01*
X6896Y20212D01*
X7034Y20349D01*
G37*
G36*
X7034Y20349D02*
X7010Y20500D01*
X6966Y20349D01*
X7034Y20349D01*
G37*
G36*
X7010Y20500D02*
X6990Y20500D01*
X6966Y20349D01*
X7010Y20500D01*
G37*
G36*
X6990Y20500D02*
X7010Y20500D01*
X7034Y20651D01*
X6990Y20500D01*
G37*
G36*
X6966Y20651D02*
X6990Y20500D01*
X7034Y20651D01*
X6966Y20651D01*
G37*
G36*
X6966Y20651D02*
X7034Y20651D01*
X7104Y20788D01*
X6966Y20651D01*
G37*
G36*
X7104Y20788D02*
X6896Y20788D01*
X6966Y20651D01*
X7104Y20788D01*
G37*
G36*
X6863Y21137D02*
X6896Y20788D01*
X7104Y20788D01*
X6863Y21137D01*
G37*
G36*
X6863Y21137D02*
X7104Y20788D01*
X7212Y20896D01*
X6863Y21137D01*
G37*
G36*
X7212Y20896D02*
X7349Y20966D01*
X6863Y21137D01*
X7212Y20896D01*
G37*
G36*
X7349Y20966D02*
X7347Y21529D01*
X6863Y21137D01*
X7349Y20966D01*
G37*
G36*
X6863Y21137D02*
X7347Y21529D01*
X7286Y21560D01*
X6863Y21137D01*
G37*
G36*
X7347Y21529D02*
X7349Y20966D01*
X7500Y21505D01*
X7347Y21529D01*
G37*
G36*
X7349Y20966D02*
X7500Y20990D01*
X7500Y21505D01*
X7349Y20966D01*
G37*
G36*
X7500Y21505D02*
X7500Y20990D01*
X7651Y20966D01*
X7500Y21505D01*
G37*
G36*
X7500Y21505D02*
X7651Y20966D01*
X7653Y21529D01*
X7500Y21505D01*
G37*
G36*
X7653Y21529D02*
X7651Y20966D01*
X7788Y20896D01*
X7653Y21529D01*
G37*
G36*
X7653Y21529D02*
X7788Y20896D01*
X7791Y21600D01*
X7653Y21529D01*
G37*
G36*
X8212Y20896D02*
X7791Y21600D01*
X7788Y20896D01*
X8212Y20896D01*
G37*
G36*
X8212Y20896D02*
X7788Y20896D01*
X7896Y20788D01*
X8212Y20896D01*
G37*
G36*
X7896Y20788D02*
X8104Y20788D01*
X8212Y20896D01*
X7896Y20788D01*
G37*
G36*
X7896Y20788D02*
X7966Y20651D01*
X8104Y20788D01*
X7896Y20788D01*
G37*
G36*
X7966Y20651D02*
X8034Y20651D01*
X8104Y20788D01*
X7966Y20651D01*
G37*
G36*
X7966Y20651D02*
X7990Y20500D01*
X8034Y20651D01*
X7966Y20651D01*
G37*
G36*
X7990Y20500D02*
X8010Y20500D01*
X8034Y20651D01*
X7990Y20500D01*
G37*
G36*
X8010Y20500D02*
X7990Y20500D01*
X7966Y20349D01*
X8010Y20500D01*
G37*
G36*
X8034Y20349D02*
X8010Y20500D01*
X7966Y20349D01*
X8034Y20349D01*
G37*
G36*
X8034Y20349D02*
X7966Y20349D01*
X7936Y20290D01*
X8034Y20349D01*
G37*
G36*
X8104Y20212D02*
X8034Y20349D01*
X7936Y20290D01*
X8104Y20212D01*
G37*
G36*
X8104Y20212D02*
X7936Y20290D01*
X8212Y20104D01*
X8104Y20212D01*
G37*
G36*
X7936Y20290D02*
X9566Y18660D01*
X8212Y20104D01*
X7936Y20290D01*
G37*
G36*
X9566Y18660D02*
X8349Y20034D01*
X8212Y20104D01*
X9566Y18660D01*
G37*
G36*
X8349Y20034D02*
X9566Y18660D01*
X8500Y20010D01*
X8349Y20034D01*
G37*
G36*
X9566Y18660D02*
X8651Y20034D01*
X8500Y20010D01*
X9566Y18660D01*
G37*
G36*
X8651Y20034D02*
X9566Y18660D01*
X8710Y20064D01*
X8651Y20034D01*
G37*
G36*
X9887Y18887D02*
X8710Y20064D01*
X9566Y18660D01*
X9887Y18887D01*
G37*
G36*
X9887Y18887D02*
X9566Y18660D01*
X9920Y18861D01*
X9887Y18887D01*
G37*
G36*
X9920Y18861D02*
X9566Y18660D01*
X9959Y18845D01*
X9920Y18861D01*
G37*
G36*
X9959Y18845D02*
X9566Y18660D01*
X10000Y18840D01*
X9959Y18845D01*
G37*
G36*
X13500Y18840D02*
X10000Y18840D01*
X9566Y18660D01*
X13500Y18840D01*
G37*
G36*
X15864Y18660D02*
X13500Y18840D01*
X9566Y18660D01*
X15864Y18660D01*
G37*
G36*
X13541Y18845D02*
X13500Y18840D01*
X15864Y18660D01*
X13541Y18845D01*
G37*
G36*
X13580Y18861D02*
X13541Y18845D01*
X15864Y18660D01*
X13580Y18861D01*
G37*
G36*
X13613Y18887D02*
X13580Y18861D01*
X15864Y18660D01*
X13613Y18887D01*
G37*
G36*
X15864Y18660D02*
X15434Y19090D01*
X13613Y18887D01*
X15864Y18660D01*
G37*
G36*
X15434Y19090D02*
X13816Y19090D01*
X13613Y18887D01*
X15434Y19090D01*
G37*
G36*
X8349Y20966D02*
X7791Y21600D01*
X8212Y20896D01*
X8349Y20966D01*
G37*
G36*
X8349Y20966D02*
X7900Y21709D01*
X7791Y21600D01*
X8349Y20966D01*
G37*
G36*
X7900Y21709D02*
X8349Y20966D01*
X8500Y20990D01*
X7900Y21709D01*
G37*
G36*
X7971Y21847D02*
X7900Y21709D01*
X8500Y20990D01*
X7971Y21847D01*
G37*
G36*
X8500Y20990D02*
X9283Y21809D01*
X7971Y21847D01*
X8500Y20990D01*
G37*
G36*
X9283Y21809D02*
X7995Y22000D01*
X7971Y21847D01*
X9283Y21809D01*
G37*
G36*
X9283Y22441D02*
X7995Y22000D01*
X9283Y21809D01*
X9283Y22441D01*
G37*
G36*
X7971Y22153D02*
X7995Y22000D01*
X9283Y22441D01*
X7971Y22153D01*
G37*
G36*
X7870Y22580D02*
X7971Y22153D01*
X9283Y22441D01*
X7870Y22580D01*
G37*
G36*
X9283Y22441D02*
X7870Y23255D01*
X7870Y22580D01*
X9283Y22441D01*
G37*
G36*
X7870Y23255D02*
X9283Y22441D01*
X9638Y22737D01*
X7870Y23255D01*
G37*
G36*
X9638Y22737D02*
X9283Y22441D01*
X9612Y22704D01*
X9638Y22737D01*
G37*
G36*
X9612Y22704D02*
X9283Y22441D01*
X9596Y22666D01*
X9612Y22704D01*
G37*
G36*
X9283Y22441D02*
X9591Y22625D01*
X9596Y22666D01*
X9283Y22441D01*
G37*
G36*
X9283Y22441D02*
X9591Y22441D01*
X9591Y22625D01*
X9283Y22441D01*
G37*
G36*
X7870Y23255D02*
X9638Y22737D01*
X9763Y22862D01*
X7870Y23255D01*
G37*
G36*
X7870Y23255D02*
X9763Y22862D01*
X9796Y22888D01*
X7870Y23255D01*
G37*
G36*
X7870Y23255D02*
X9796Y22888D01*
X9834Y22904D01*
X7870Y23255D01*
G37*
G36*
X7870Y23255D02*
X9834Y22904D01*
X9875Y22909D01*
X7870Y23255D01*
G37*
G36*
X7870Y23255D02*
X9875Y22909D01*
X14125Y22909D01*
X7870Y23255D01*
G37*
G36*
X17250Y23229D02*
X7870Y23255D01*
X14125Y22909D01*
X17250Y23229D01*
G37*
G36*
X17250Y23229D02*
X14125Y22909D01*
X17025Y23194D01*
X17250Y23229D01*
G37*
G36*
X17025Y23194D02*
X14125Y22909D01*
X16821Y23090D01*
X17025Y23194D01*
G37*
G36*
X14166Y22904D02*
X16821Y23090D01*
X14125Y22909D01*
X14166Y22904D01*
G37*
G36*
X16660Y22929D02*
X16821Y23090D01*
X14166Y22904D01*
X16660Y22929D01*
G37*
G36*
X16660Y22929D02*
X14166Y22904D01*
X14204Y22888D01*
X16660Y22929D01*
G37*
G36*
X16660Y22929D02*
X14204Y22888D01*
X14237Y22862D01*
X16660Y22929D01*
G37*
G36*
X16660Y22929D02*
X14237Y22862D01*
X14362Y22737D01*
X16660Y22929D01*
G37*
G36*
X16660Y22929D02*
X14362Y22737D01*
X14377Y22719D01*
X16660Y22929D01*
G37*
G36*
X16660Y22929D02*
X14377Y22719D01*
X14388Y22705D01*
X16660Y22929D01*
G37*
G36*
X14388Y22705D02*
X16556Y22725D01*
X16660Y22929D01*
X14388Y22705D01*
G37*
G36*
X14388Y22705D02*
X14404Y22666D01*
X16556Y22725D01*
X14388Y22705D01*
G37*
G36*
X14404Y22666D02*
X14409Y22625D01*
X16556Y22725D01*
X14404Y22666D01*
G37*
G36*
X16521Y22500D02*
X16556Y22725D01*
X14409Y22625D01*
X16521Y22500D01*
G37*
G36*
X16521Y22500D02*
X14409Y22625D01*
X14750Y21909D01*
X16521Y22500D01*
G37*
G36*
X14750Y21909D02*
X14409Y22625D01*
X14458Y22151D01*
X14750Y21909D01*
G37*
G36*
X14409Y22625D02*
X14409Y22199D01*
X14458Y22151D01*
X14409Y22625D01*
G37*
G36*
X14458Y22151D02*
X14494Y22079D01*
X14750Y21909D01*
X14458Y22151D01*
G37*
G36*
X14750Y21909D02*
X14494Y22079D01*
X14709Y21904D01*
X14750Y21909D01*
G37*
G36*
X14494Y22079D02*
X14506Y22000D01*
X14709Y21904D01*
X14494Y22079D01*
G37*
G36*
X14506Y22000D02*
X14671Y21888D01*
X14709Y21904D01*
X14506Y22000D01*
G37*
G36*
X14506Y22000D02*
X14638Y21862D01*
X14671Y21888D01*
X14506Y22000D01*
G37*
G36*
X14506Y22000D02*
X14494Y21921D01*
X14638Y21862D01*
X14506Y22000D01*
G37*
G36*
X14494Y21921D02*
X14458Y21849D01*
X14638Y21862D01*
X14494Y21921D01*
G37*
G36*
X14638Y21862D02*
X14458Y21849D01*
X14401Y21792D01*
X14638Y21862D01*
G37*
G36*
X14184Y21409D02*
X14638Y21862D01*
X14401Y21792D01*
X14184Y21409D01*
G37*
G36*
X14329Y21756D02*
X14184Y21409D01*
X14401Y21792D01*
X14329Y21756D01*
G37*
G36*
X14184Y21409D02*
X14329Y21756D01*
X14250Y21744D01*
X14184Y21409D01*
G37*
G36*
X14250Y21744D02*
X14171Y21756D01*
X14184Y21409D01*
X14250Y21744D01*
G37*
G36*
X14171Y21756D02*
X13900Y21710D01*
X14184Y21409D01*
X14171Y21756D01*
G37*
G36*
X13900Y21710D02*
X13790Y21600D01*
X14184Y21409D01*
X13900Y21710D01*
G37*
G36*
X13790Y21600D02*
X13653Y21530D01*
X14184Y21409D01*
X13790Y21600D01*
G37*
G36*
X13653Y21530D02*
X13500Y21506D01*
X14184Y21409D01*
X13653Y21530D01*
G37*
G36*
X13500Y21506D02*
X12500Y21506D01*
X14184Y21409D01*
X13500Y21506D01*
G37*
G36*
X12500Y21506D02*
X11250Y21409D01*
X14184Y21409D01*
X12500Y21506D01*
G37*
G36*
X12347Y21530D02*
X11250Y21409D01*
X12500Y21506D01*
X12347Y21530D01*
G37*
G36*
X12210Y21600D02*
X11250Y21409D01*
X12347Y21530D01*
X12210Y21600D01*
G37*
G36*
X12100Y21710D02*
X11250Y21409D01*
X12210Y21600D01*
X12100Y21710D01*
G37*
G36*
X12030Y21847D02*
X11250Y21409D01*
X12100Y21710D01*
X12030Y21847D01*
G37*
G36*
X12006Y22000D02*
X11250Y21409D01*
X12030Y21847D01*
X12006Y22000D01*
G37*
G36*
X11250Y21409D02*
X12006Y22000D01*
X12030Y22153D01*
X11250Y21409D01*
G37*
G36*
X10217Y22441D02*
X11250Y21409D01*
X12030Y22153D01*
X10217Y22441D01*
G37*
G36*
X12030Y22153D02*
X12100Y22290D01*
X10217Y22441D01*
X12030Y22153D01*
G37*
G36*
X12210Y22400D02*
X10217Y22441D01*
X12100Y22290D01*
X12210Y22400D01*
G37*
G36*
X12347Y22470D02*
X10217Y22441D01*
X12210Y22400D01*
X12347Y22470D01*
G37*
G36*
X12347Y22470D02*
X9941Y22591D01*
X10217Y22441D01*
X12347Y22470D01*
G37*
G36*
X10217Y22441D02*
X9941Y22591D01*
X9909Y22441D01*
X10217Y22441D01*
G37*
G36*
X9941Y22591D02*
X9909Y22559D01*
X9909Y22441D01*
X9941Y22591D01*
G37*
G36*
X9941Y22591D02*
X12347Y22470D01*
X12500Y22494D01*
X9941Y22591D01*
G37*
G36*
X9941Y22591D02*
X12500Y22494D01*
X14059Y22591D01*
X9941Y22591D01*
G37*
G36*
X14059Y22591D02*
X12500Y22494D01*
X13500Y22494D01*
X14059Y22591D01*
G37*
G36*
X12500Y22494D02*
X13347Y22470D01*
X13500Y22494D01*
X12500Y22494D01*
G37*
G36*
X13347Y22470D02*
X12500Y22494D01*
X12653Y22470D01*
X13347Y22470D01*
G37*
G36*
X12790Y22400D02*
X13347Y22470D01*
X12653Y22470D01*
X12790Y22400D01*
G37*
G36*
X13210Y22400D02*
X13347Y22470D01*
X12790Y22400D01*
X13210Y22400D01*
G37*
G36*
X13210Y22400D02*
X12790Y22400D01*
X12900Y22290D01*
X13210Y22400D01*
G37*
G36*
X13100Y22290D02*
X13210Y22400D01*
X12900Y22290D01*
X13100Y22290D01*
G37*
G36*
X12900Y22290D02*
X12970Y22153D01*
X13100Y22290D01*
X12900Y22290D01*
G37*
G36*
X12970Y22153D02*
X13030Y22153D01*
X13100Y22290D01*
X12970Y22153D01*
G37*
G36*
X13030Y22153D02*
X12970Y22153D01*
X13006Y22000D01*
X13030Y22153D01*
G37*
G36*
X12970Y22153D02*
X12994Y22000D01*
X13006Y22000D01*
X12970Y22153D01*
G37*
G36*
X13006Y22000D02*
X12994Y22000D01*
X13030Y21847D01*
X13006Y22000D01*
G37*
G36*
X12994Y22000D02*
X12970Y21847D01*
X13030Y21847D01*
X12994Y22000D01*
G37*
G36*
X13030Y21847D02*
X12970Y21847D01*
X13100Y21710D01*
X13030Y21847D01*
G37*
G36*
X12970Y21847D02*
X12900Y21710D01*
X13100Y21710D01*
X12970Y21847D01*
G37*
G36*
X13100Y21710D02*
X12900Y21710D01*
X13210Y21600D01*
X13100Y21710D01*
G37*
G36*
X12900Y21710D02*
X12790Y21600D01*
X13210Y21600D01*
X12900Y21710D01*
G37*
G36*
X13210Y21600D02*
X12790Y21600D01*
X13347Y21530D01*
X13210Y21600D01*
G37*
G36*
X12790Y21600D02*
X12653Y21530D01*
X13347Y21530D01*
X12790Y21600D01*
G37*
G36*
X13347Y21530D02*
X12653Y21530D01*
X13500Y21506D01*
X13347Y21530D01*
G37*
G36*
X12653Y21530D02*
X12500Y21506D01*
X13500Y21506D01*
X12653Y21530D01*
G37*
G36*
X13500Y22494D02*
X13653Y22470D01*
X14059Y22591D01*
X13500Y22494D01*
G37*
G36*
X13653Y22470D02*
X13790Y22400D01*
X14059Y22591D01*
X13653Y22470D01*
G37*
G36*
X14059Y22591D02*
X13790Y22400D01*
X14091Y22559D01*
X14059Y22591D01*
G37*
G36*
X14091Y22559D02*
X13790Y22400D01*
X13900Y22290D01*
X14091Y22559D01*
G37*
G36*
X13900Y22290D02*
X14091Y22199D01*
X14091Y22559D01*
X13900Y22290D01*
G37*
G36*
X13970Y22153D02*
X14091Y22199D01*
X13900Y22290D01*
X13970Y22153D01*
G37*
G36*
X14091Y22199D02*
X13970Y22153D01*
X14042Y22151D01*
X14091Y22199D01*
G37*
G36*
X13970Y22153D02*
X14006Y22079D01*
X14042Y22151D01*
X13970Y22153D01*
G37*
G36*
X13970Y22153D02*
X13993Y22007D01*
X14006Y22079D01*
X13970Y22153D01*
G37*
G36*
X13993Y22007D02*
X13995Y22007D01*
X14006Y22079D01*
X13993Y22007D01*
G37*
G36*
X10217Y22441D02*
X11209Y21404D01*
X11250Y21409D01*
X10217Y22441D01*
G37*
G36*
X10217Y22441D02*
X11171Y21388D01*
X11209Y21404D01*
X10217Y22441D01*
G37*
G36*
X10217Y21809D02*
X11171Y21388D01*
X10217Y22441D01*
X10217Y21809D01*
G37*
G36*
X11138Y21362D02*
X11171Y21388D01*
X10217Y21809D01*
X11138Y21362D01*
G37*
G36*
X11138Y21362D02*
X10217Y21809D01*
X10244Y21454D01*
X11138Y21362D01*
G37*
G36*
X10217Y21809D02*
X10208Y21526D01*
X10244Y21454D01*
X10217Y21809D01*
G37*
G36*
X10217Y21809D02*
X10159Y21574D01*
X10208Y21526D01*
X10217Y21809D01*
G37*
G36*
X10217Y21809D02*
X10159Y21809D01*
X10159Y21574D01*
X10217Y21809D01*
G37*
G36*
X10244Y21454D02*
X10256Y21375D01*
X11138Y21362D01*
X10244Y21454D01*
G37*
G36*
X11138Y21362D02*
X10256Y21375D01*
X10651Y20965D01*
X11138Y21362D01*
G37*
G36*
X10256Y21375D02*
X10500Y20989D01*
X10651Y20965D01*
X10256Y21375D01*
G37*
G36*
X10256Y21375D02*
X10244Y21296D01*
X10500Y20989D01*
X10256Y21375D01*
G37*
G36*
X10500Y20989D02*
X10244Y21296D01*
X10208Y21224D01*
X10500Y20989D01*
G37*
G36*
X10500Y20989D02*
X10208Y21224D01*
X10349Y20965D01*
X10500Y20989D01*
G37*
G36*
X10208Y21224D02*
X10151Y21167D01*
X10349Y20965D01*
X10208Y21224D01*
G37*
G36*
X10151Y21167D02*
X10213Y20896D01*
X10349Y20965D01*
X10151Y21167D01*
G37*
G36*
X10151Y21167D02*
X10079Y21131D01*
X10213Y20896D01*
X10151Y21167D01*
G37*
G36*
X10079Y21131D02*
X10000Y21119D01*
X10213Y20896D01*
X10079Y21131D01*
G37*
G36*
X10000Y21119D02*
X10104Y20787D01*
X10213Y20896D01*
X10000Y21119D01*
G37*
G36*
X10000Y21119D02*
X9896Y20787D01*
X10104Y20787D01*
X10000Y21119D01*
G37*
G36*
X9965Y20651D02*
X10104Y20787D01*
X9896Y20787D01*
X9965Y20651D01*
G37*
G36*
X10104Y20787D02*
X9965Y20651D01*
X10035Y20651D01*
X10104Y20787D01*
G37*
G36*
X9965Y20651D02*
X9989Y20500D01*
X10035Y20651D01*
X9965Y20651D01*
G37*
G36*
X9989Y20500D02*
X10011Y20500D01*
X10035Y20651D01*
X9989Y20500D01*
G37*
G36*
X10011Y20500D02*
X9989Y20500D01*
X9965Y20349D01*
X10011Y20500D01*
G37*
G36*
X10035Y20349D02*
X10011Y20500D01*
X9965Y20349D01*
X10035Y20349D01*
G37*
G36*
X10035Y20349D02*
X9965Y20349D01*
X9896Y20213D01*
X10035Y20349D01*
G37*
G36*
X10104Y20213D02*
X10035Y20349D01*
X9896Y20213D01*
X10104Y20213D01*
G37*
G36*
X10104Y20213D02*
X9896Y20213D01*
X10213Y20104D01*
X10104Y20213D01*
G37*
G36*
X9896Y20213D02*
X9787Y20104D01*
X10213Y20104D01*
X9896Y20213D01*
G37*
G36*
X10066Y19160D02*
X10213Y20104D01*
X9787Y20104D01*
X10066Y19160D01*
G37*
G36*
X9651Y20035D02*
X10066Y19160D01*
X9787Y20104D01*
X9651Y20035D01*
G37*
G36*
X9651Y20035D02*
X9500Y20011D01*
X10066Y19160D01*
X9651Y20035D01*
G37*
G36*
X9349Y20035D02*
X10066Y19160D01*
X9500Y20011D01*
X9349Y20035D01*
G37*
G36*
X10066Y19160D02*
X9349Y20035D01*
X9213Y20104D01*
X10066Y19160D01*
G37*
G36*
X8936Y20290D02*
X10066Y19160D01*
X9213Y20104D01*
X8936Y20290D01*
G37*
G36*
X9104Y20213D02*
X8936Y20290D01*
X9213Y20104D01*
X9104Y20213D01*
G37*
G36*
X9104Y20213D02*
X9035Y20349D01*
X8936Y20290D01*
X9104Y20213D01*
G37*
G36*
X9035Y20349D02*
X8966Y20349D01*
X8936Y20290D01*
X9035Y20349D01*
G37*
G36*
X8990Y20500D02*
X8966Y20349D01*
X9035Y20349D01*
X8990Y20500D01*
G37*
G36*
X9011Y20500D02*
X8990Y20500D01*
X9035Y20349D01*
X9011Y20500D01*
G37*
G36*
X8990Y20500D02*
X9011Y20500D01*
X9035Y20651D01*
X8990Y20500D01*
G37*
G36*
X8966Y20651D02*
X8990Y20500D01*
X9035Y20651D01*
X8966Y20651D01*
G37*
G36*
X8966Y20651D02*
X9035Y20651D01*
X9104Y20787D01*
X8966Y20651D01*
G37*
G36*
X8896Y20788D02*
X8966Y20651D01*
X9104Y20787D01*
X8896Y20788D01*
G37*
G36*
X8896Y20788D02*
X9104Y20787D01*
X9213Y20896D01*
X8896Y20788D01*
G37*
G36*
X8788Y20896D02*
X8896Y20788D01*
X9213Y20896D01*
X8788Y20896D01*
G37*
G36*
X8788Y20896D02*
X9213Y20896D01*
X9283Y21809D01*
X8788Y20896D01*
G37*
G36*
X9283Y21809D02*
X9213Y20896D01*
X9341Y20961D01*
X9283Y21809D01*
G37*
G36*
X9341Y21809D02*
X9283Y21809D01*
X9341Y20961D01*
X9341Y21809D01*
G37*
G36*
X8651Y20966D02*
X8788Y20896D01*
X9283Y21809D01*
X8651Y20966D01*
G37*
G36*
X8500Y20990D02*
X8651Y20966D01*
X9283Y21809D01*
X8500Y20990D01*
G37*
G36*
X10349Y20035D02*
X10213Y20104D01*
X10066Y19160D01*
X10349Y20035D01*
G37*
G36*
X10500Y20011D02*
X10349Y20035D01*
X10066Y19160D01*
X10500Y20011D01*
G37*
G36*
X10066Y19160D02*
X10651Y20035D01*
X10500Y20011D01*
X10066Y19160D01*
G37*
G36*
X10066Y19160D02*
X11349Y20035D01*
X10651Y20035D01*
X10066Y19160D01*
G37*
G36*
X10787Y20104D02*
X10651Y20035D01*
X11349Y20035D01*
X10787Y20104D01*
G37*
G36*
X11213Y20104D02*
X10787Y20104D01*
X11349Y20035D01*
X11213Y20104D01*
G37*
G36*
X10896Y20213D02*
X10787Y20104D01*
X11213Y20104D01*
X10896Y20213D01*
G37*
G36*
X11104Y20213D02*
X10896Y20213D01*
X11213Y20104D01*
X11104Y20213D01*
G37*
G36*
X11104Y20213D02*
X11035Y20349D01*
X10896Y20213D01*
X11104Y20213D01*
G37*
G36*
X11035Y20349D02*
X10965Y20349D01*
X10896Y20213D01*
X11035Y20349D01*
G37*
G36*
X11035Y20349D02*
X11011Y20500D01*
X10965Y20349D01*
X11035Y20349D01*
G37*
G36*
X11011Y20500D02*
X10989Y20500D01*
X10965Y20349D01*
X11011Y20500D01*
G37*
G36*
X10989Y20500D02*
X11011Y20500D01*
X11035Y20651D01*
X10989Y20500D01*
G37*
G36*
X10965Y20651D02*
X10989Y20500D01*
X11035Y20651D01*
X10965Y20651D01*
G37*
G36*
X10935Y20710D02*
X10965Y20651D01*
X11035Y20651D01*
X10935Y20710D01*
G37*
G36*
X11104Y20787D02*
X10935Y20710D01*
X11035Y20651D01*
X11104Y20787D01*
G37*
G36*
X10935Y20710D02*
X11104Y20787D01*
X11213Y20896D01*
X10935Y20710D01*
G37*
G36*
X11316Y21091D02*
X10935Y20710D01*
X11213Y20896D01*
X11316Y21091D01*
G37*
G36*
X11316Y21091D02*
X11213Y20896D01*
X11349Y20965D01*
X11316Y21091D01*
G37*
G36*
X11316Y21091D02*
X11349Y20965D01*
X11500Y20989D01*
X11316Y21091D01*
G37*
G36*
X11651Y20965D02*
X11316Y21091D01*
X11500Y20989D01*
X11651Y20965D01*
G37*
G36*
X12349Y20965D02*
X11316Y21091D01*
X11651Y20965D01*
X12349Y20965D01*
G37*
G36*
X11787Y20896D02*
X12349Y20965D01*
X11651Y20965D01*
X11787Y20896D01*
G37*
G36*
X12213Y20896D02*
X12349Y20965D01*
X11787Y20896D01*
X12213Y20896D01*
G37*
G36*
X12213Y20896D02*
X11787Y20896D01*
X12104Y20787D01*
X12213Y20896D01*
G37*
G36*
X11787Y20896D02*
X11896Y20787D01*
X12104Y20787D01*
X11787Y20896D01*
G37*
G36*
X11896Y20787D02*
X11965Y20651D01*
X12104Y20787D01*
X11896Y20787D01*
G37*
G36*
X11965Y20651D02*
X12035Y20651D01*
X12104Y20787D01*
X11965Y20651D01*
G37*
G36*
X11965Y20651D02*
X11989Y20500D01*
X12035Y20651D01*
X11965Y20651D01*
G37*
G36*
X11989Y20500D02*
X12011Y20500D01*
X12035Y20651D01*
X11989Y20500D01*
G37*
G36*
X12011Y20500D02*
X11989Y20500D01*
X11965Y20349D01*
X12011Y20500D01*
G37*
G36*
X12035Y20349D02*
X12011Y20500D01*
X11965Y20349D01*
X12035Y20349D01*
G37*
G36*
X12035Y20349D02*
X11965Y20349D01*
X11896Y20213D01*
X12035Y20349D01*
G37*
G36*
X12104Y20213D02*
X12035Y20349D01*
X11896Y20213D01*
X12104Y20213D01*
G37*
G36*
X12104Y20213D02*
X11896Y20213D01*
X12213Y20104D01*
X12104Y20213D01*
G37*
G36*
X11896Y20213D02*
X11787Y20104D01*
X12213Y20104D01*
X11896Y20213D01*
G37*
G36*
X12213Y20104D02*
X11787Y20104D01*
X12349Y20035D01*
X12213Y20104D01*
G37*
G36*
X11787Y20104D02*
X11651Y20035D01*
X12349Y20035D01*
X11787Y20104D01*
G37*
G36*
X13434Y19160D02*
X12349Y20035D01*
X11651Y20035D01*
X13434Y19160D01*
G37*
G36*
X13434Y19160D02*
X11651Y20035D01*
X11500Y20011D01*
X13434Y19160D01*
G37*
G36*
X13434Y19160D02*
X11500Y20011D01*
X10066Y19160D01*
X13434Y19160D01*
G37*
G36*
X11500Y20011D02*
X11349Y20035D01*
X10066Y19160D01*
X11500Y20011D01*
G37*
G36*
X12500Y20011D02*
X12349Y20035D01*
X13434Y19160D01*
X12500Y20011D01*
G37*
G36*
X12651Y20035D02*
X12500Y20011D01*
X13434Y19160D01*
X12651Y20035D01*
G37*
G36*
X12787Y20104D02*
X12651Y20035D01*
X13434Y19160D01*
X12787Y20104D01*
G37*
G36*
X13637Y19363D02*
X12787Y20104D01*
X13434Y19160D01*
X13637Y19363D01*
G37*
G36*
X12896Y20213D02*
X12787Y20104D01*
X13637Y19363D01*
X12896Y20213D01*
G37*
G36*
X13637Y19363D02*
X13250Y20341D01*
X12896Y20213D01*
X13637Y19363D01*
G37*
G36*
X12961Y20341D02*
X12896Y20213D01*
X13250Y20341D01*
X12961Y20341D01*
G37*
G36*
X13637Y19363D02*
X13670Y19389D01*
X13250Y20341D01*
X13637Y19363D01*
G37*
G36*
X13250Y20341D02*
X13670Y19389D01*
X13780Y19847D01*
X13250Y20341D01*
G37*
G36*
X13709Y19405D02*
X13780Y19847D01*
X13670Y19389D01*
X13709Y19405D01*
G37*
G36*
X13709Y19405D02*
X13850Y19710D01*
X13780Y19847D01*
X13709Y19405D01*
G37*
G36*
X13850Y19710D02*
X13709Y19405D01*
X13750Y19410D01*
X13850Y19710D01*
G37*
G36*
X13850Y19710D02*
X13750Y19410D01*
X13960Y19600D01*
X13850Y19710D01*
G37*
G36*
X13960Y19600D02*
X13750Y19410D01*
X14097Y19530D01*
X13960Y19600D01*
G37*
G36*
X14097Y19530D02*
X13750Y19410D01*
X14250Y19506D01*
X14097Y19530D01*
G37*
G36*
X14250Y19506D02*
X13750Y19410D01*
X15500Y19410D01*
X14250Y19506D01*
G37*
G36*
X14403Y19530D02*
X14250Y19506D01*
X15500Y19410D01*
X14403Y19530D01*
G37*
G36*
X14540Y19600D02*
X14403Y19530D01*
X15500Y19410D01*
X14540Y19600D01*
G37*
G36*
X14650Y19710D02*
X14540Y19600D01*
X15500Y19410D01*
X14650Y19710D01*
G37*
G36*
X15000Y19841D02*
X14650Y19710D01*
X15500Y19410D01*
X15000Y19841D01*
G37*
G36*
X15000Y19841D02*
X15500Y19410D01*
X16000Y19841D01*
X15000Y19841D01*
G37*
G36*
X15500Y19410D02*
X15541Y19405D01*
X16000Y19841D01*
X15500Y19410D01*
G37*
G36*
X15541Y19405D02*
X15580Y19389D01*
X16000Y19841D01*
X15541Y19405D01*
G37*
G36*
X15580Y19389D02*
X15613Y19363D01*
X16000Y19841D01*
X15580Y19389D01*
G37*
G36*
X16041Y19846D02*
X16000Y19841D01*
X15613Y19363D01*
X16041Y19846D01*
G37*
G36*
X16066Y18910D02*
X16041Y19846D01*
X15613Y19363D01*
X16066Y18910D01*
G37*
G36*
X16041Y19846D02*
X16066Y18910D01*
X16079Y19862D01*
X16041Y19846D01*
G37*
G36*
X16112Y19888D02*
X16079Y19862D01*
X16066Y18910D01*
X16112Y19888D01*
G37*
G36*
X16066Y18910D02*
X16316Y20091D01*
X16112Y19888D01*
X16066Y18910D01*
G37*
G36*
X17750Y18910D02*
X16316Y20091D01*
X16066Y18910D01*
X17750Y18910D01*
G37*
G36*
X17750Y20091D02*
X16316Y20091D01*
X17750Y18910D01*
X17750Y20091D01*
G37*
G36*
X17750Y20091D02*
X17750Y18910D01*
X17791Y20096D01*
X17750Y20091D01*
G37*
G36*
X17791Y20096D02*
X17750Y18910D01*
X17791Y18905D01*
X17791Y20096D01*
G37*
G36*
X18530Y19847D02*
X17791Y20096D01*
X17791Y18905D01*
X18530Y19847D01*
G37*
G36*
X18530Y19847D02*
X17791Y18905D01*
X17830Y18889D01*
X18530Y19847D01*
G37*
G36*
X18530Y19847D02*
X17830Y18889D01*
X17863Y18863D01*
X18530Y19847D01*
G37*
G36*
X18530Y19847D02*
X17863Y18863D01*
X18113Y18613D01*
X18530Y19847D01*
G37*
G36*
X18530Y19847D02*
X18113Y18613D01*
X18139Y18580D01*
X18530Y19847D01*
G37*
G36*
X18530Y19847D02*
X18139Y18580D01*
X18155Y18541D01*
X18530Y19847D01*
G37*
G36*
X18530Y19847D02*
X18155Y18541D01*
X18160Y18500D01*
X18530Y19847D01*
G37*
G36*
X18600Y19710D02*
X18530Y19847D01*
X18160Y18500D01*
X18600Y19710D01*
G37*
G36*
X18710Y19600D02*
X18600Y19710D01*
X18160Y18500D01*
X18710Y19600D01*
G37*
G36*
X18710Y19600D02*
X18160Y18500D01*
X18505Y18495D01*
X18710Y19600D01*
G37*
G36*
X18505Y18495D02*
X18160Y18500D01*
X18160Y18066D01*
X18505Y18495D01*
G37*
G36*
X18160Y18066D02*
X18505Y17721D01*
X18505Y18495D01*
X18160Y18066D01*
G37*
G36*
X18710Y19600D02*
X18505Y18495D01*
X18847Y19530D01*
X18710Y19600D01*
G37*
G36*
X18847Y19530D02*
X18505Y18495D01*
X19000Y19506D01*
X18847Y19530D01*
G37*
G36*
X19000Y19506D02*
X18505Y18495D01*
X19495Y18495D01*
X19000Y19506D01*
G37*
G36*
X19153Y19530D02*
X19000Y19506D01*
X19495Y18495D01*
X19153Y19530D01*
G37*
G36*
X19495Y18495D02*
X19290Y19600D01*
X19153Y19530D01*
X19495Y18495D01*
G37*
G36*
X19495Y18495D02*
X19710Y19600D01*
X19290Y19600D01*
X19495Y18495D01*
G37*
G36*
X19400Y19710D02*
X19290Y19600D01*
X19710Y19600D01*
X19400Y19710D01*
G37*
G36*
X19600Y19710D02*
X19400Y19710D01*
X19710Y19600D01*
X19600Y19710D01*
G37*
G36*
X19470Y19847D02*
X19400Y19710D01*
X19600Y19710D01*
X19470Y19847D01*
G37*
G36*
X19530Y19847D02*
X19470Y19847D01*
X19600Y19710D01*
X19530Y19847D01*
G37*
G36*
X19494Y20000D02*
X19470Y19847D01*
X19530Y19847D01*
X19494Y20000D01*
G37*
G36*
X19506Y20000D02*
X19494Y20000D01*
X19530Y19847D01*
X19506Y20000D01*
G37*
G36*
X19470Y20153D02*
X19494Y20000D01*
X19506Y20000D01*
X19470Y20153D01*
G37*
G36*
X19530Y20153D02*
X19470Y20153D01*
X19506Y20000D01*
X19530Y20153D01*
G37*
G36*
X19470Y20153D02*
X19530Y20153D01*
X19600Y20290D01*
X19470Y20153D01*
G37*
G36*
X19600Y20290D02*
X19400Y20290D01*
X19470Y20153D01*
X19600Y20290D01*
G37*
G36*
X19600Y20290D02*
X19400Y20710D01*
X19400Y20290D01*
X19600Y20290D01*
G37*
G36*
X19400Y20710D02*
X19290Y20400D01*
X19400Y20290D01*
X19400Y20710D01*
G37*
G36*
X19400Y20710D02*
X19290Y20600D01*
X19290Y20400D01*
X19400Y20710D01*
G37*
G36*
X19153Y20530D02*
X19290Y20400D01*
X19290Y20600D01*
X19153Y20530D01*
G37*
G36*
X19153Y20530D02*
X19153Y20470D01*
X19290Y20400D01*
X19153Y20530D01*
G37*
G36*
X19153Y20530D02*
X19000Y20494D01*
X19153Y20470D01*
X19153Y20530D01*
G37*
G36*
X19153Y20530D02*
X19000Y20506D01*
X19000Y20494D01*
X19153Y20530D01*
G37*
G36*
X19000Y20506D02*
X18847Y20530D01*
X19000Y20494D01*
X19000Y20506D01*
G37*
G36*
X18847Y20530D02*
X18847Y20470D01*
X19000Y20494D01*
X18847Y20530D01*
G37*
G36*
X18847Y20530D02*
X18710Y20600D01*
X18847Y20470D01*
X18847Y20530D01*
G37*
G36*
X18710Y20600D02*
X18710Y20400D01*
X18847Y20470D01*
X18710Y20600D01*
G37*
G36*
X18710Y20400D02*
X18710Y20600D01*
X18600Y20710D01*
X18710Y20400D01*
G37*
G36*
X18600Y20710D02*
X18600Y20290D01*
X18710Y20400D01*
X18600Y20710D01*
G37*
G36*
X18600Y20710D02*
X18159Y20500D01*
X18600Y20290D01*
X18600Y20710D01*
G37*
G36*
X18159Y20500D02*
X18154Y20459D01*
X18600Y20290D01*
X18159Y20500D01*
G37*
G36*
X18154Y20459D02*
X18138Y20421D01*
X18600Y20290D01*
X18154Y20459D01*
G37*
G36*
X18600Y20290D02*
X18138Y20421D01*
X18530Y20153D01*
X18600Y20290D01*
G37*
G36*
X18138Y20421D02*
X18112Y20388D01*
X18530Y20153D01*
X18138Y20421D01*
G37*
G36*
X18530Y20153D02*
X18112Y20388D01*
X18506Y20000D01*
X18530Y20153D01*
G37*
G36*
X18112Y20388D02*
X17862Y20138D01*
X18506Y20000D01*
X18112Y20388D01*
G37*
G36*
X18506Y20000D02*
X17862Y20138D01*
X18530Y19847D01*
X18506Y20000D01*
G37*
G36*
X18530Y19847D02*
X17862Y20138D01*
X17829Y20112D01*
X18530Y19847D01*
G37*
G36*
X18530Y19847D02*
X17829Y20112D01*
X17791Y20096D01*
X18530Y19847D01*
G37*
G36*
X18530Y20847D02*
X18159Y20500D01*
X18600Y20710D01*
X18530Y20847D01*
G37*
G36*
X18506Y21000D02*
X18159Y20500D01*
X18530Y20847D01*
X18506Y21000D01*
G37*
G36*
X18159Y21434D02*
X18159Y20500D01*
X18506Y21000D01*
X18159Y21434D01*
G37*
G36*
X18159Y21434D02*
X18506Y21000D01*
X18530Y21153D01*
X18159Y21434D01*
G37*
G36*
X18159Y21434D02*
X18530Y21153D01*
X18600Y21290D01*
X18159Y21434D01*
G37*
G36*
X18316Y21591D02*
X18159Y21434D01*
X18600Y21290D01*
X18316Y21591D01*
G37*
G36*
X18316Y21591D02*
X18600Y21290D01*
X18710Y21400D01*
X18316Y21591D01*
G37*
G36*
X18316Y21591D02*
X18710Y21400D01*
X18847Y21470D01*
X18316Y21591D01*
G37*
G36*
X18316Y21591D02*
X18847Y21470D01*
X19000Y21494D01*
X18316Y21591D01*
G37*
G36*
X18316Y21591D02*
X19000Y21494D01*
X19684Y21591D01*
X18316Y21591D01*
G37*
G36*
X19000Y21494D02*
X19153Y21470D01*
X19684Y21591D01*
X19000Y21494D01*
G37*
G36*
X19153Y21470D02*
X19290Y21400D01*
X19684Y21591D01*
X19153Y21470D01*
G37*
G36*
X19290Y21400D02*
X19400Y21290D01*
X19684Y21591D01*
X19290Y21400D01*
G37*
G36*
X19684Y21591D02*
X19400Y21290D01*
X19600Y21290D01*
X19684Y21591D01*
G37*
G36*
X19600Y21290D02*
X19400Y21290D01*
X19470Y21153D01*
X19600Y21290D01*
G37*
G36*
X19470Y21153D02*
X19530Y21153D01*
X19600Y21290D01*
X19470Y21153D01*
G37*
G36*
X19530Y21153D02*
X19470Y21153D01*
X19506Y21000D01*
X19530Y21153D01*
G37*
G36*
X19470Y21153D02*
X19494Y21000D01*
X19506Y21000D01*
X19470Y21153D01*
G37*
G36*
X19506Y21000D02*
X19494Y21000D01*
X19530Y20847D01*
X19506Y21000D01*
G37*
G36*
X19494Y21000D02*
X19470Y20847D01*
X19530Y20847D01*
X19494Y21000D01*
G37*
G36*
X19530Y20847D02*
X19470Y20847D01*
X19600Y20710D01*
X19530Y20847D01*
G37*
G36*
X19470Y20847D02*
X19400Y20710D01*
X19600Y20710D01*
X19470Y20847D01*
G37*
G36*
X19600Y20710D02*
X19400Y20710D01*
X19710Y20600D01*
X19600Y20710D01*
G37*
G36*
X19400Y20710D02*
X19600Y20290D01*
X19710Y20600D01*
X19400Y20710D01*
G37*
G36*
X19600Y20290D02*
X19710Y20400D01*
X19710Y20600D01*
X19600Y20290D01*
G37*
G36*
X19710Y20600D02*
X19710Y20400D01*
X19847Y20470D01*
X19710Y20600D01*
G37*
G36*
X19847Y20530D02*
X19710Y20600D01*
X19847Y20470D01*
X19847Y20530D01*
G37*
G36*
X19847Y20530D02*
X19847Y20470D01*
X20000Y20494D01*
X19847Y20530D01*
G37*
G36*
X20000Y20506D02*
X19847Y20530D01*
X20000Y20494D01*
X20000Y20506D01*
G37*
G36*
X20153Y20530D02*
X20000Y20506D01*
X20000Y20494D01*
X20153Y20530D01*
G37*
G36*
X20153Y20530D02*
X20000Y20494D01*
X20153Y20470D01*
X20153Y20530D01*
G37*
G36*
X20153Y20530D02*
X20153Y20470D01*
X20290Y20400D01*
X20153Y20530D01*
G37*
G36*
X20153Y20530D02*
X20290Y20400D01*
X20290Y20600D01*
X20153Y20530D01*
G37*
G36*
X20400Y20710D02*
X20290Y20600D01*
X20290Y20400D01*
X20400Y20710D01*
G37*
G36*
X20400Y20710D02*
X20290Y20400D01*
X20400Y20290D01*
X20400Y20710D01*
G37*
G36*
X20470Y20847D02*
X20400Y20710D01*
X20400Y20290D01*
X20470Y20847D01*
G37*
G36*
X20470Y20847D02*
X20400Y20290D01*
X20470Y20153D01*
X20470Y20847D01*
G37*
G36*
X20470Y20847D02*
X20470Y20153D01*
X20494Y20000D01*
X20470Y20847D01*
G37*
G36*
X20470Y20847D02*
X20494Y20000D01*
X20494Y21000D01*
X20470Y20847D01*
G37*
G36*
X20755Y16466D02*
X20494Y21000D01*
X20494Y20000D01*
X20755Y16466D01*
G37*
G36*
X20494Y18494D02*
X20755Y16466D01*
X20494Y20000D01*
X20494Y18494D01*
G37*
G36*
X20494Y20000D02*
X20470Y19847D01*
X20494Y18494D01*
X20494Y20000D01*
G37*
G36*
X20470Y19847D02*
X20400Y19710D01*
X20494Y18494D01*
X20470Y19847D01*
G37*
G36*
X20400Y19710D02*
X20290Y19600D01*
X20494Y18494D01*
X20400Y19710D01*
G37*
G36*
X20290Y19600D02*
X20153Y19530D01*
X20494Y18494D01*
X20290Y19600D01*
G37*
G36*
X20153Y19530D02*
X20000Y19506D01*
X20494Y18494D01*
X20153Y19530D01*
G37*
G36*
X20000Y19506D02*
X19506Y18494D01*
X20494Y18494D01*
X20000Y19506D01*
G37*
G36*
X20000Y19506D02*
X19847Y19530D01*
X19506Y18494D01*
X20000Y19506D01*
G37*
G36*
X19847Y19530D02*
X19495Y18495D01*
X19506Y18494D01*
X19847Y19530D01*
G37*
G36*
X19495Y18495D02*
X19495Y17505D01*
X19506Y18494D01*
X19495Y18495D01*
G37*
G36*
X19495Y17505D02*
X19506Y17506D01*
X19506Y18494D01*
X19495Y17505D01*
G37*
G36*
X19506Y17506D02*
X19495Y17505D01*
X19600Y17291D01*
X19506Y17506D01*
G37*
G36*
X19495Y17505D02*
X19400Y17291D01*
X19600Y17291D01*
X19495Y17505D01*
G37*
G36*
X19471Y17153D02*
X19600Y17291D01*
X19400Y17291D01*
X19471Y17153D01*
G37*
G36*
X19600Y17291D02*
X19471Y17153D01*
X19529Y17153D01*
X19600Y17291D01*
G37*
G36*
X19471Y17153D02*
X19495Y17000D01*
X19529Y17153D01*
X19471Y17153D01*
G37*
G36*
X19495Y17000D02*
X19505Y17000D01*
X19529Y17153D01*
X19495Y17000D01*
G37*
G36*
X19505Y17000D02*
X19495Y17000D01*
X19471Y16847D01*
X19505Y17000D01*
G37*
G36*
X19529Y16847D02*
X19505Y17000D01*
X19471Y16847D01*
X19529Y16847D01*
G37*
G36*
X19529Y16847D02*
X19471Y16847D01*
X19600Y16709D01*
X19529Y16847D01*
G37*
G36*
X19471Y16847D02*
X19400Y16709D01*
X19600Y16709D01*
X19471Y16847D01*
G37*
G36*
X19600Y16709D02*
X19400Y16709D01*
X19709Y16600D01*
X19600Y16709D01*
G37*
G36*
X19709Y16600D02*
X19400Y16709D01*
X19709Y16400D01*
X19709Y16600D01*
G37*
G36*
X19400Y16709D02*
X19600Y16291D01*
X19709Y16400D01*
X19400Y16709D01*
G37*
G36*
X19600Y16291D02*
X19400Y16709D01*
X19400Y16291D01*
X19600Y16291D01*
G37*
G36*
X19291Y16600D02*
X19400Y16291D01*
X19400Y16709D01*
X19291Y16600D01*
G37*
G36*
X19291Y16600D02*
X19291Y16400D01*
X19400Y16291D01*
X19291Y16600D01*
G37*
G36*
X19153Y16529D02*
X19291Y16400D01*
X19291Y16600D01*
X19153Y16529D01*
G37*
G36*
X19153Y16529D02*
X19153Y16471D01*
X19291Y16400D01*
X19153Y16529D01*
G37*
G36*
X19000Y16505D02*
X19153Y16471D01*
X19153Y16529D01*
X19000Y16505D01*
G37*
G36*
X19000Y16505D02*
X19000Y16495D01*
X19153Y16471D01*
X19000Y16505D01*
G37*
G36*
X18847Y16471D02*
X19000Y16495D01*
X19000Y16505D01*
X18847Y16471D01*
G37*
G36*
X18847Y16529D02*
X18847Y16471D01*
X19000Y16505D01*
X18847Y16529D01*
G37*
G36*
X18709Y16400D02*
X18847Y16471D01*
X18847Y16529D01*
X18709Y16400D01*
G37*
G36*
X18709Y16600D02*
X18709Y16400D01*
X18847Y16529D01*
X18709Y16600D01*
G37*
G36*
X18709Y16400D02*
X18709Y16600D01*
X18535Y16625D01*
X18709Y16400D01*
G37*
G36*
X18600Y16709D02*
X18535Y16625D01*
X18709Y16600D01*
X18600Y16709D01*
G37*
G36*
X18530Y16666D02*
X18535Y16625D01*
X18600Y16709D01*
X18530Y16666D01*
G37*
G36*
X18514Y16705D02*
X18530Y16666D01*
X18600Y16709D01*
X18514Y16705D01*
G37*
G36*
X18600Y16709D02*
X18488Y16738D01*
X18514Y16705D01*
X18600Y16709D01*
G37*
G36*
X18529Y16847D02*
X18488Y16738D01*
X18600Y16709D01*
X18529Y16847D01*
G37*
G36*
X18505Y17000D02*
X18488Y16738D01*
X18529Y16847D01*
X18505Y17000D01*
G37*
G36*
X18488Y16738D02*
X18505Y17000D01*
X17660Y17566D01*
X18488Y16738D01*
G37*
G36*
X17660Y17566D02*
X18505Y17000D01*
X18529Y17153D01*
X17660Y17566D01*
G37*
G36*
X18560Y17214D02*
X17660Y17566D01*
X18529Y17153D01*
X18560Y17214D01*
G37*
G36*
X17660Y17566D02*
X18560Y17214D01*
X17887Y17887D01*
X17660Y17566D01*
G37*
G36*
X17861Y17920D02*
X17660Y17566D01*
X17887Y17887D01*
X17861Y17920D01*
G37*
G36*
X17845Y17959D02*
X17660Y17566D01*
X17861Y17920D01*
X17845Y17959D01*
G37*
G36*
X17660Y17566D02*
X17845Y17959D01*
X17660Y18250D01*
X17660Y17566D01*
G37*
G36*
X17840Y18000D02*
X17660Y18250D01*
X17845Y17959D01*
X17840Y18000D01*
G37*
G36*
X17660Y18250D02*
X17840Y18000D01*
X17840Y18434D01*
X17660Y18250D01*
G37*
G36*
X17655Y18291D02*
X17660Y18250D01*
X17840Y18434D01*
X17655Y18291D01*
G37*
G36*
X17639Y18330D02*
X17655Y18291D01*
X17840Y18434D01*
X17639Y18330D01*
G37*
G36*
X17840Y18434D02*
X17613Y18363D01*
X17639Y18330D01*
X17840Y18434D01*
G37*
G36*
X17684Y18590D02*
X17613Y18363D01*
X17840Y18434D01*
X17684Y18590D01*
G37*
G36*
X17386Y18590D02*
X17613Y18363D01*
X17684Y18590D01*
X17386Y18590D01*
G37*
G36*
X18535Y16625D02*
X18600Y16291D01*
X18709Y16400D01*
X18535Y16625D01*
G37*
G36*
X18600Y16291D02*
X18535Y16625D01*
X18535Y16164D01*
X18600Y16291D01*
G37*
G36*
X19600Y16291D02*
X19400Y16291D01*
X19471Y16153D01*
X19600Y16291D01*
G37*
G36*
X19471Y16153D02*
X19529Y16153D01*
X19600Y16291D01*
X19471Y16153D01*
G37*
G36*
X19471Y16153D02*
X19495Y16000D01*
X19529Y16153D01*
X19471Y16153D01*
G37*
G36*
X19495Y16000D02*
X19505Y16000D01*
X19529Y16153D01*
X19495Y16000D01*
G37*
G36*
X19505Y16000D02*
X19495Y16000D01*
X19471Y15847D01*
X19505Y16000D01*
G37*
G36*
X19529Y15847D02*
X19505Y16000D01*
X19471Y15847D01*
X19529Y15847D01*
G37*
G36*
X19529Y15847D02*
X19471Y15847D01*
X19600Y15709D01*
X19529Y15847D01*
G37*
G36*
X19471Y15847D02*
X19400Y15709D01*
X19600Y15709D01*
X19471Y15847D01*
G37*
G36*
X19600Y15709D02*
X19400Y15709D01*
X19709Y15600D01*
X19600Y15709D01*
G37*
G36*
X19400Y15709D02*
X19291Y15600D01*
X19709Y15600D01*
X19400Y15709D01*
G37*
G36*
X19709Y15600D02*
X19291Y15600D01*
X19847Y15529D01*
X19709Y15600D01*
G37*
G36*
X19291Y15600D02*
X19153Y15529D01*
X19847Y15529D01*
X19291Y15600D01*
G37*
G36*
X19153Y15529D02*
X18816Y15410D01*
X19847Y15529D01*
X19153Y15529D01*
G37*
G36*
X19847Y15529D02*
X18816Y15410D01*
X20184Y15410D01*
X19847Y15529D01*
G37*
G36*
X20000Y15505D02*
X19847Y15529D01*
X20184Y15410D01*
X20000Y15505D01*
G37*
G36*
X20153Y15529D02*
X20000Y15505D01*
X20184Y15410D01*
X20153Y15529D01*
G37*
G36*
X20153Y15529D02*
X20184Y15410D01*
X20291Y15600D01*
X20153Y15529D01*
G37*
G36*
X20465Y15691D02*
X20291Y15600D01*
X20184Y15410D01*
X20465Y15691D01*
G37*
G36*
X20400Y15709D02*
X20291Y15600D01*
X20465Y15691D01*
X20400Y15709D01*
G37*
G36*
X20400Y15709D02*
X20465Y15691D01*
X20465Y15836D01*
X20400Y15709D01*
G37*
G36*
X18816Y15410D02*
X19153Y15529D01*
X19000Y15505D01*
X18816Y15410D01*
G37*
G36*
X18847Y15529D02*
X18816Y15410D01*
X19000Y15505D01*
X18847Y15529D01*
G37*
G36*
X18709Y15600D02*
X18816Y15410D01*
X18847Y15529D01*
X18709Y15600D01*
G37*
G36*
X18709Y15600D02*
X18535Y15691D01*
X18816Y15410D01*
X18709Y15600D01*
G37*
G36*
X18600Y15709D02*
X18535Y15691D01*
X18709Y15600D01*
X18600Y15709D01*
G37*
G36*
X18535Y15836D02*
X18535Y15691D01*
X18600Y15709D01*
X18535Y15836D01*
G37*
G36*
X19709Y16600D02*
X19709Y16400D01*
X19847Y16529D01*
X19709Y16600D01*
G37*
G36*
X19709Y16400D02*
X19847Y16471D01*
X19847Y16529D01*
X19709Y16400D01*
G37*
G36*
X19847Y16529D02*
X19847Y16471D01*
X20000Y16505D01*
X19847Y16529D01*
G37*
G36*
X19847Y16471D02*
X20000Y16495D01*
X20000Y16505D01*
X19847Y16471D01*
G37*
G36*
X20000Y16505D02*
X20000Y16495D01*
X20153Y16471D01*
X20000Y16505D01*
G37*
G36*
X20000Y16505D02*
X20153Y16471D01*
X20153Y16529D01*
X20000Y16505D01*
G37*
G36*
X20214Y16560D02*
X20153Y16529D01*
X20153Y16471D01*
X20214Y16560D01*
G37*
G36*
X20291Y16400D02*
X20214Y16560D01*
X20153Y16471D01*
X20291Y16400D01*
G37*
G36*
X20465Y16309D02*
X20214Y16560D01*
X20291Y16400D01*
X20465Y16309D01*
G37*
G36*
X20465Y16309D02*
X20291Y16400D01*
X20400Y16291D01*
X20465Y16309D01*
G37*
G36*
X20400Y16291D02*
X20465Y16164D01*
X20465Y16309D01*
X20400Y16291D01*
G37*
G36*
X19291Y17400D02*
X19400Y17291D01*
X19495Y17505D01*
X19291Y17400D01*
G37*
G36*
X19153Y17471D02*
X19291Y17400D01*
X19495Y17505D01*
X19153Y17471D01*
G37*
G36*
X19000Y17495D02*
X19153Y17471D01*
X19495Y17505D01*
X19000Y17495D01*
G37*
G36*
X18721Y17505D02*
X19000Y17495D01*
X19495Y17505D01*
X18721Y17505D01*
G37*
G36*
X18721Y17505D02*
X18847Y17471D01*
X19000Y17495D01*
X18721Y17505D01*
G37*
G36*
X18721Y17505D02*
X18786Y17440D01*
X18847Y17471D01*
X18721Y17505D01*
G37*
G36*
X19709Y17400D02*
X19506Y17506D01*
X19600Y17291D01*
X19709Y17400D01*
G37*
G36*
X19506Y17506D02*
X19709Y17400D01*
X19847Y17471D01*
X19506Y17506D01*
G37*
G36*
X19506Y17506D02*
X19847Y17471D01*
X20000Y17495D01*
X19506Y17506D01*
G37*
G36*
X19506Y17506D02*
X20000Y17495D01*
X20494Y17506D01*
X19506Y17506D01*
G37*
G36*
X20000Y17495D02*
X20153Y17471D01*
X20494Y17506D01*
X20000Y17495D01*
G37*
G36*
X20153Y17471D02*
X20291Y17400D01*
X20494Y17506D01*
X20153Y17471D01*
G37*
G36*
X20291Y17400D02*
X20400Y17291D01*
X20494Y17506D01*
X20291Y17400D01*
G37*
G36*
X20400Y17291D02*
X20471Y17153D01*
X20494Y17506D01*
X20400Y17291D01*
G37*
G36*
X20494Y17506D02*
X20471Y17153D01*
X20495Y17000D01*
X20494Y17506D01*
G37*
G36*
X20494Y17506D02*
X20495Y17000D01*
X20738Y16488D01*
X20494Y17506D01*
G37*
G36*
X20495Y17000D02*
X20471Y16847D01*
X20738Y16488D01*
X20495Y17000D01*
G37*
G36*
X20471Y16847D02*
X20440Y16786D01*
X20738Y16488D01*
X20471Y16847D01*
G37*
G36*
X20494Y17506D02*
X20738Y16488D01*
X20755Y16466D01*
X20494Y17506D01*
G37*
G36*
X20755Y16466D02*
X20494Y18494D01*
X20494Y17506D01*
X20755Y16466D01*
G37*
G36*
X19847Y19530D02*
X19710Y19600D01*
X19495Y18495D01*
X19847Y19530D01*
G37*
G36*
X20755Y23255D02*
X20494Y21000D01*
X20755Y16466D01*
X20755Y23255D01*
G37*
G36*
X20470Y21153D02*
X20494Y21000D01*
X20755Y23255D01*
X20470Y21153D01*
G37*
G36*
X20400Y21290D02*
X20470Y21153D01*
X20755Y23255D01*
X20400Y21290D01*
G37*
G36*
X20290Y21400D02*
X20400Y21290D01*
X20755Y23255D01*
X20290Y21400D01*
G37*
G36*
X20755Y23255D02*
X20138Y21580D01*
X20290Y21400D01*
X20755Y23255D01*
G37*
G36*
X20290Y21400D02*
X20138Y21580D01*
X20154Y21541D01*
X20290Y21400D01*
G37*
G36*
X20154Y21541D02*
X20159Y21500D01*
X20290Y21400D01*
X20154Y21541D01*
G37*
G36*
X20159Y21500D02*
X20159Y21467D01*
X20290Y21400D01*
X20159Y21500D01*
G37*
G36*
X20112Y21612D02*
X20138Y21580D01*
X20755Y23255D01*
X20112Y21612D01*
G37*
G36*
X19862Y21862D02*
X20112Y21612D01*
X20755Y23255D01*
X19862Y21862D01*
G37*
G36*
X19829Y21888D02*
X19862Y21862D01*
X20755Y23255D01*
X19829Y21888D01*
G37*
G36*
X19791Y21904D02*
X19829Y21888D01*
X20755Y23255D01*
X19791Y21904D01*
G37*
G36*
X19750Y21909D02*
X19791Y21904D01*
X20755Y23255D01*
X19750Y21909D01*
G37*
G36*
X20755Y23255D02*
X17944Y22725D01*
X19750Y21909D01*
X20755Y23255D01*
G37*
G36*
X19750Y21909D02*
X17944Y22725D01*
X17979Y22500D01*
X19750Y21909D01*
G37*
G36*
X17979Y22500D02*
X18250Y21909D01*
X19750Y21909D01*
X17979Y22500D01*
G37*
G36*
X18250Y21909D02*
X17979Y22500D01*
X17944Y22275D01*
X18250Y21909D01*
G37*
G36*
X18250Y21909D02*
X17944Y22275D01*
X18209Y21904D01*
X18250Y21909D01*
G37*
G36*
X17944Y22275D02*
X18171Y21888D01*
X18209Y21904D01*
X17944Y22275D01*
G37*
G36*
X18171Y21888D02*
X17944Y22275D01*
X17840Y22071D01*
X18171Y21888D01*
G37*
G36*
X18171Y21888D02*
X17840Y22071D01*
X18138Y21862D01*
X18171Y21888D01*
G37*
G36*
X18138Y21862D02*
X17840Y22071D01*
X17888Y21612D01*
X18138Y21862D01*
G37*
G36*
X17840Y22071D02*
X17679Y21910D01*
X17888Y21612D01*
X17840Y22071D01*
G37*
G36*
X17679Y21910D02*
X17862Y21579D01*
X17888Y21612D01*
X17679Y21910D01*
G37*
G36*
X17679Y21910D02*
X17475Y21806D01*
X17862Y21579D01*
X17679Y21910D01*
G37*
G36*
X17475Y21806D02*
X17494Y21494D01*
X17862Y21579D01*
X17475Y21806D01*
G37*
G36*
X17862Y21579D02*
X17494Y21494D01*
X17846Y21541D01*
X17862Y21579D01*
G37*
G36*
X17846Y21541D02*
X17494Y21494D01*
X17841Y21500D01*
X17846Y21541D01*
G37*
G36*
X17841Y21500D02*
X17494Y21494D01*
X17841Y20566D01*
X17841Y21500D01*
G37*
G36*
X17841Y20566D02*
X17494Y21494D01*
X17494Y20506D01*
X17841Y20566D01*
G37*
G36*
X17841Y20566D02*
X17494Y20506D01*
X17684Y20409D01*
X17841Y20566D01*
G37*
G36*
X17494Y20506D02*
X16506Y20506D01*
X17684Y20409D01*
X17494Y20506D01*
G37*
G36*
X16506Y20506D02*
X16250Y20409D01*
X17684Y20409D01*
X16506Y20506D01*
G37*
G36*
X16250Y20409D02*
X16506Y20506D01*
X16506Y21269D01*
X16250Y20409D01*
G37*
G36*
X16506Y21269D02*
X16209Y20404D01*
X16250Y20409D01*
X16506Y21269D01*
G37*
G36*
X15494Y21000D02*
X16209Y20404D01*
X16506Y21269D01*
X15494Y21000D01*
G37*
G36*
X16506Y21269D02*
X16184Y21591D01*
X15494Y21000D01*
X16506Y21269D01*
G37*
G36*
X15470Y21153D02*
X15494Y21000D01*
X16184Y21591D01*
X15470Y21153D01*
G37*
G36*
X15400Y21290D02*
X15470Y21153D01*
X16184Y21591D01*
X15400Y21290D01*
G37*
G36*
X15290Y21400D02*
X15400Y21290D01*
X16184Y21591D01*
X15290Y21400D01*
G37*
G36*
X15153Y21470D02*
X15290Y21400D01*
X16184Y21591D01*
X15153Y21470D01*
G37*
G36*
X16184Y21591D02*
X14816Y21591D01*
X15153Y21470D01*
X16184Y21591D01*
G37*
G36*
X14816Y21591D02*
X15000Y21494D01*
X15153Y21470D01*
X14816Y21591D01*
G37*
G36*
X14816Y21591D02*
X14847Y21470D01*
X15000Y21494D01*
X14816Y21591D01*
G37*
G36*
X14816Y21591D02*
X14710Y21400D01*
X14847Y21470D01*
X14816Y21591D01*
G37*
G36*
X14600Y21290D02*
X14710Y21400D01*
X14816Y21591D01*
X14600Y21290D01*
G37*
G36*
X14362Y21138D02*
X14600Y21290D01*
X14816Y21591D01*
X14362Y21138D01*
G37*
G36*
X14362Y21138D02*
X14530Y21153D01*
X14600Y21290D01*
X14362Y21138D01*
G37*
G36*
X14362Y21138D02*
X14506Y21000D01*
X14530Y21153D01*
X14362Y21138D01*
G37*
G36*
X14362Y21138D02*
X14329Y21112D01*
X14506Y21000D01*
X14362Y21138D01*
G37*
G36*
X14329Y21112D02*
X14329Y20888D01*
X14506Y21000D01*
X14329Y21112D01*
G37*
G36*
X14329Y20888D02*
X14362Y20862D01*
X14506Y21000D01*
X14329Y20888D01*
G37*
G36*
X14506Y21000D02*
X14362Y20862D01*
X14530Y20847D01*
X14506Y21000D01*
G37*
G36*
X14600Y20710D02*
X14530Y20847D01*
X14362Y20862D01*
X14600Y20710D01*
G37*
G36*
X14710Y20600D02*
X14600Y20710D01*
X14362Y20862D01*
X14710Y20600D01*
G37*
G36*
X14710Y20600D02*
X14362Y20862D01*
X15066Y20159D01*
X14710Y20600D01*
G37*
G36*
X14847Y20530D02*
X14710Y20600D01*
X15066Y20159D01*
X14847Y20530D01*
G37*
G36*
X15000Y20506D02*
X14847Y20530D01*
X15066Y20159D01*
X15000Y20506D01*
G37*
G36*
X15000Y20506D02*
X15066Y20159D01*
X15153Y20530D01*
X15000Y20506D01*
G37*
G36*
X15290Y20600D02*
X15153Y20530D01*
X15066Y20159D01*
X15290Y20600D01*
G37*
G36*
X15934Y20159D02*
X15290Y20600D01*
X15066Y20159D01*
X15934Y20159D01*
G37*
G36*
X15400Y20710D02*
X15290Y20600D01*
X15934Y20159D01*
X15400Y20710D01*
G37*
G36*
X15400Y20710D02*
X15934Y20159D01*
X16138Y20362D01*
X15400Y20710D01*
G37*
G36*
X15470Y20847D02*
X15400Y20710D01*
X16138Y20362D01*
X15470Y20847D01*
G37*
G36*
X16171Y20388D02*
X15470Y20847D01*
X16138Y20362D01*
X16171Y20388D01*
G37*
G36*
X16171Y20388D02*
X15494Y21000D01*
X15470Y20847D01*
X16171Y20388D01*
G37*
G36*
X16171Y20388D02*
X16209Y20404D01*
X15494Y21000D01*
X16171Y20388D01*
G37*
G36*
X14291Y21096D02*
X14329Y20888D01*
X14329Y21112D01*
X14291Y21096D01*
G37*
G36*
X14291Y21096D02*
X14291Y20904D01*
X14329Y20888D01*
X14291Y21096D01*
G37*
G36*
X14291Y21096D02*
X14250Y20909D01*
X14291Y20904D01*
X14291Y21096D01*
G37*
G36*
X14291Y21096D02*
X14250Y21091D01*
X14250Y20909D01*
X14291Y21096D01*
G37*
G36*
X13500Y20909D02*
X14250Y20909D01*
X14250Y21091D01*
X13500Y20909D01*
G37*
G36*
X14250Y21091D02*
X12500Y20989D01*
X13500Y20909D01*
X14250Y21091D01*
G37*
G36*
X12500Y20989D02*
X12651Y20965D01*
X13500Y20909D01*
X12500Y20989D01*
G37*
G36*
X13500Y20909D02*
X12651Y20965D01*
X13459Y20904D01*
X13500Y20909D01*
G37*
G36*
X13459Y20904D02*
X12651Y20965D01*
X13421Y20888D01*
X13459Y20904D01*
G37*
G36*
X13421Y20888D02*
X12651Y20965D01*
X12787Y20896D01*
X13421Y20888D01*
G37*
G36*
X13388Y20862D02*
X13421Y20888D01*
X12787Y20896D01*
X13388Y20862D01*
G37*
G36*
X12787Y20896D02*
X12896Y20787D01*
X13388Y20862D01*
X12787Y20896D01*
G37*
G36*
X13388Y20862D02*
X12896Y20787D01*
X13184Y20659D01*
X13388Y20862D01*
G37*
G36*
X12896Y20787D02*
X12961Y20659D01*
X13184Y20659D01*
X12896Y20787D01*
G37*
G36*
X14250Y21091D02*
X11316Y21091D01*
X12500Y20989D01*
X14250Y21091D01*
G37*
G36*
X12500Y20989D02*
X11316Y21091D01*
X12349Y20965D01*
X12500Y20989D01*
G37*
G36*
X17475Y21806D02*
X17250Y21771D01*
X17494Y21494D01*
X17475Y21806D01*
G37*
G36*
X17250Y21771D02*
X16731Y21494D01*
X17494Y21494D01*
X17250Y21771D01*
G37*
G36*
X17025Y21806D02*
X16731Y21494D01*
X17250Y21771D01*
X17025Y21806D01*
G37*
G36*
X17025Y21806D02*
X16821Y21910D01*
X16731Y21494D01*
X17025Y21806D01*
G37*
G36*
X16821Y21910D02*
X16362Y21862D01*
X16731Y21494D01*
X16821Y21910D01*
G37*
G36*
X16660Y22071D02*
X16362Y21862D01*
X16821Y21910D01*
X16660Y22071D01*
G37*
G36*
X16660Y22071D02*
X16329Y21888D01*
X16362Y21862D01*
X16660Y22071D01*
G37*
G36*
X16556Y22275D02*
X16329Y21888D01*
X16660Y22071D01*
X16556Y22275D01*
G37*
G36*
X16556Y22275D02*
X16291Y21904D01*
X16329Y21888D01*
X16556Y22275D01*
G37*
G36*
X16556Y22275D02*
X16250Y21909D01*
X16291Y21904D01*
X16556Y22275D01*
G37*
G36*
X16521Y22500D02*
X16250Y21909D01*
X16556Y22275D01*
X16521Y22500D01*
G37*
G36*
X16521Y22500D02*
X14750Y21909D01*
X16250Y21909D01*
X16521Y22500D01*
G37*
G36*
X17840Y22929D02*
X17944Y22725D01*
X20755Y23255D01*
X17840Y22929D01*
G37*
G36*
X17679Y23090D02*
X17840Y22929D01*
X20755Y23255D01*
X17679Y23090D01*
G37*
G36*
X17475Y23194D02*
X17679Y23090D01*
X20755Y23255D01*
X17475Y23194D01*
G37*
G36*
X17250Y23229D02*
X17475Y23194D01*
X20755Y23255D01*
X17250Y23229D01*
G37*
G36*
X7870Y23255D02*
X17250Y23229D01*
X20755Y23255D01*
X7870Y23255D01*
G37*
G36*
X19684Y21591D02*
X19600Y21290D01*
X19710Y21400D01*
X19684Y21591D01*
G37*
G36*
X19684Y21591D02*
X19710Y21400D01*
X19820Y21456D01*
X19684Y21591D01*
G37*
G36*
X14959Y19846D02*
X14650Y19710D01*
X15000Y19841D01*
X14959Y19846D01*
G37*
G36*
X14959Y19846D02*
X14921Y19862D01*
X14650Y19710D01*
X14959Y19846D01*
G37*
G36*
X14921Y19862D02*
X14720Y19847D01*
X14650Y19710D01*
X14921Y19862D01*
G37*
G36*
X14888Y19888D02*
X14720Y19847D01*
X14921Y19862D01*
X14888Y19888D01*
G37*
G36*
X14744Y20000D02*
X14720Y19847D01*
X14888Y19888D01*
X14744Y20000D01*
G37*
G36*
X14740Y20035D02*
X14744Y20000D01*
X14888Y19888D01*
X14740Y20035D01*
G37*
G36*
X14740Y20035D02*
X14738Y20035D01*
X14744Y20000D01*
X14740Y20035D01*
G37*
G36*
X13756Y20000D02*
X13250Y20341D01*
X13780Y19847D01*
X13756Y20000D01*
G37*
G36*
X13291Y20346D02*
X13250Y20341D01*
X13756Y20000D01*
X13291Y20346D01*
G37*
G36*
X13329Y20362D02*
X13291Y20346D01*
X13756Y20000D01*
X13329Y20362D01*
G37*
G36*
X13780Y20153D02*
X13329Y20362D01*
X13756Y20000D01*
X13780Y20153D01*
G37*
G36*
X13362Y20388D02*
X13329Y20362D01*
X13780Y20153D01*
X13362Y20388D01*
G37*
G36*
X13362Y20388D02*
X13780Y20153D01*
X13850Y20290D01*
X13362Y20388D01*
G37*
G36*
X13566Y20591D02*
X13362Y20388D01*
X13850Y20290D01*
X13566Y20591D01*
G37*
G36*
X13566Y20591D02*
X13850Y20290D01*
X13960Y20400D01*
X13566Y20591D01*
G37*
G36*
X13566Y20591D02*
X13960Y20400D01*
X14184Y20591D01*
X13566Y20591D01*
G37*
G36*
X13960Y20400D02*
X14097Y20470D01*
X14184Y20591D01*
X13960Y20400D01*
G37*
G36*
X14184Y20591D02*
X14097Y20470D01*
X14250Y20494D01*
X14184Y20591D01*
G37*
G36*
X14184Y20591D02*
X14250Y20494D01*
X14285Y20490D01*
X14184Y20591D01*
G37*
G36*
X14250Y20494D02*
X14285Y20488D01*
X14285Y20490D01*
X14250Y20494D01*
G37*
G36*
X9787Y20896D02*
X9896Y20787D01*
X10000Y21119D01*
X9787Y20896D01*
G37*
G36*
X9921Y21131D02*
X9787Y20896D01*
X10000Y21119D01*
X9921Y21131D01*
G37*
G36*
X9849Y21167D02*
X9787Y20896D01*
X9921Y21131D01*
X9849Y21167D01*
G37*
G36*
X9659Y20961D02*
X9787Y20896D01*
X9849Y21167D01*
X9659Y20961D01*
G37*
G36*
X9792Y21224D02*
X9659Y20961D01*
X9849Y21167D01*
X9792Y21224D01*
G37*
G36*
X9756Y21296D02*
X9659Y20961D01*
X9792Y21224D01*
X9756Y21296D01*
G37*
G36*
X9659Y20961D02*
X9756Y21296D01*
X9744Y21375D01*
X9659Y20961D01*
G37*
G36*
X9659Y21809D02*
X9659Y20961D01*
X9744Y21375D01*
X9659Y21809D01*
G37*
G36*
X9756Y21454D02*
X9659Y21809D01*
X9744Y21375D01*
X9756Y21454D01*
G37*
G36*
X9792Y21526D02*
X9659Y21809D01*
X9756Y21454D01*
X9792Y21526D01*
G37*
G36*
X9659Y21809D02*
X9792Y21526D01*
X9841Y21574D01*
X9659Y21809D01*
G37*
G36*
X9659Y21809D02*
X9841Y21574D01*
X9841Y21809D01*
X9659Y21809D01*
G37*
G36*
X10651Y20965D02*
X10710Y20935D01*
X11138Y21362D01*
X10651Y20965D01*
G37*
G36*
X14099Y21792D02*
X13900Y21710D01*
X14171Y21756D01*
X14099Y21792D01*
G37*
G36*
X13970Y21847D02*
X13900Y21710D01*
X14099Y21792D01*
X13970Y21847D01*
G37*
G36*
X14042Y21849D02*
X13970Y21847D01*
X14099Y21792D01*
X14042Y21849D01*
G37*
G36*
X14006Y21921D02*
X13970Y21847D01*
X14042Y21849D01*
X14006Y21921D01*
G37*
G36*
X13993Y21993D02*
X13970Y21847D01*
X14006Y21921D01*
X13993Y21993D01*
G37*
G36*
X13995Y21993D02*
X13993Y21993D01*
X14006Y21921D01*
X13995Y21993D01*
G37*
G36*
X7971Y22153D02*
X7870Y22580D01*
X7900Y22291D01*
X7971Y22153D01*
G37*
G36*
X7870Y22580D02*
X7791Y22400D01*
X7900Y22291D01*
X7870Y22580D01*
G37*
G36*
X7870Y22580D02*
X7660Y22467D01*
X7791Y22400D01*
X7870Y22580D01*
G37*
G36*
X7870Y22580D02*
X7660Y22580D01*
X7660Y22467D01*
X7870Y22580D01*
G37*
G36*
X6896Y20788D02*
X6863Y21137D01*
X6788Y20896D01*
X6896Y20788D01*
G37*
G36*
X6788Y20896D02*
X6863Y21137D01*
X6830Y21111D01*
X6788Y20896D01*
G37*
G36*
X6830Y21111D02*
X6791Y21095D01*
X6788Y20896D01*
X6830Y21111D01*
G37*
G36*
X6750Y21090D02*
X6788Y20896D01*
X6791Y21095D01*
X6750Y21090D01*
G37*
G36*
X6750Y21090D02*
X6651Y20966D01*
X6788Y20896D01*
X6750Y21090D01*
G37*
G36*
X6500Y20990D02*
X6651Y20966D01*
X6750Y21090D01*
X6500Y20990D01*
G37*
G36*
X6750Y21090D02*
X6316Y21090D01*
X6500Y20990D01*
X6750Y21090D01*
G37*
G36*
X6316Y21090D02*
X6349Y20966D01*
X6500Y20990D01*
X6316Y21090D01*
G37*
G36*
X6316Y21090D02*
X6212Y20896D01*
X6349Y20966D01*
X6316Y21090D01*
G37*
G36*
X6316Y21090D02*
X5936Y20710D01*
X6212Y20896D01*
X6316Y21090D01*
G37*
G36*
X5936Y20710D02*
X6104Y20788D01*
X6212Y20896D01*
X5936Y20710D01*
G37*
G36*
X6104Y20788D02*
X5936Y20710D01*
X6034Y20651D01*
X6104Y20788D01*
G37*
G36*
X5936Y20710D02*
X5966Y20651D01*
X6034Y20651D01*
X5936Y20710D01*
G37*
G36*
X5966Y20651D02*
X5990Y20500D01*
X6034Y20651D01*
X5966Y20651D01*
G37*
G36*
X5990Y20500D02*
X6010Y20500D01*
X6034Y20651D01*
X5990Y20500D01*
G37*
G36*
X6010Y20500D02*
X5990Y20500D01*
X5966Y20349D01*
X6010Y20500D01*
G37*
G36*
X6034Y20349D02*
X6010Y20500D01*
X5966Y20349D01*
X6034Y20349D01*
G37*
G36*
X6034Y20349D02*
X5966Y20349D01*
X6064Y20290D01*
X6034Y20349D01*
G37*
G36*
X5966Y20349D02*
X5896Y20212D01*
X6064Y20290D01*
X5966Y20349D01*
G37*
G36*
X6064Y20290D02*
X5896Y20212D01*
X5788Y20104D01*
X6064Y20290D01*
G37*
G36*
X4684Y18910D02*
X6064Y20290D01*
X5788Y20104D01*
X4684Y18910D01*
G37*
G36*
X5788Y20104D02*
X5651Y20034D01*
X4684Y18910D01*
X5788Y20104D01*
G37*
G36*
X5500Y20010D02*
X4684Y18910D01*
X5651Y20034D01*
X5500Y20010D01*
G37*
G36*
X5349Y20034D02*
X4684Y18910D01*
X5500Y20010D01*
X5349Y20034D01*
G37*
G36*
X5349Y20034D02*
X5290Y20064D01*
X4684Y18910D01*
X5349Y20034D01*
G37*
G36*
X5290Y20064D02*
X4363Y19137D01*
X4684Y18910D01*
X5290Y20064D01*
G37*
G36*
X4363Y19137D02*
X4330Y19111D01*
X4684Y18910D01*
X4363Y19137D01*
G37*
G36*
X4330Y19111D02*
X4291Y19095D01*
X4684Y18910D01*
X4330Y19111D01*
G37*
G36*
X4291Y19095D02*
X4250Y19090D01*
X4684Y18910D01*
X4291Y19095D01*
G37*
G36*
X4250Y19090D02*
X2750Y18910D01*
X4684Y18910D01*
X4250Y19090D01*
G37*
G36*
X2066Y19090D02*
X2750Y18910D01*
X4250Y19090D01*
X2066Y19090D01*
G37*
G36*
X2066Y19090D02*
X2709Y18905D01*
X2750Y18910D01*
X2066Y19090D01*
G37*
G36*
X2066Y19090D02*
X2670Y18889D01*
X2709Y18905D01*
X2066Y19090D01*
G37*
G36*
X2066Y19090D02*
X2637Y18863D01*
X2670Y18889D01*
X2066Y19090D01*
G37*
G36*
X2066Y19090D02*
X1137Y17363D01*
X2637Y18863D01*
X2066Y19090D01*
G37*
G36*
X660Y17684D02*
X1137Y17363D01*
X2066Y19090D01*
X660Y17684D01*
G37*
G36*
X660Y17684D02*
X1111Y17330D01*
X1137Y17363D01*
X660Y17684D01*
G37*
G36*
X660Y17684D02*
X1095Y17291D01*
X1111Y17330D01*
X660Y17684D01*
G37*
G36*
X660Y17684D02*
X1090Y17250D01*
X1095Y17291D01*
X660Y17684D01*
G37*
G36*
X660Y17684D02*
X660Y15386D01*
X1090Y17250D01*
X660Y17684D01*
G37*
G36*
X660Y15386D02*
X1090Y15816D01*
X1090Y17250D01*
X660Y15386D01*
G37*
G36*
X4863Y18637D02*
X9138Y17362D01*
X6651Y20034D01*
X4863Y18637D01*
G37*
G36*
X4863Y18637D02*
X6651Y20034D01*
X6500Y20010D01*
X4863Y18637D01*
G37*
G36*
X6500Y20010D02*
X6349Y20034D01*
X4863Y18637D01*
X6500Y20010D01*
G37*
G36*
X6349Y20034D02*
X6290Y20064D01*
X4863Y18637D01*
X6349Y20034D01*
G37*
G36*
X9138Y17362D02*
X4863Y18637D01*
X6500Y14989D01*
X9138Y17362D01*
G37*
G36*
X6500Y14989D02*
X4863Y18637D01*
X6349Y14965D01*
X6500Y14989D01*
G37*
G36*
X6349Y14965D02*
X4863Y18637D01*
X4830Y18611D01*
X6349Y14965D01*
G37*
G36*
X6500Y14989D02*
X6651Y14965D01*
X9138Y17362D01*
X6500Y14989D01*
G37*
G36*
X6651Y14965D02*
X6710Y14935D01*
X9138Y17362D01*
X6651Y14965D01*
G37*
G36*
X12829Y18244D02*
X16128Y18125D01*
X16250Y18144D01*
X12829Y18244D01*
G37*
G36*
X16128Y18125D02*
X12829Y18244D01*
X15000Y17909D01*
X16128Y18125D01*
G37*
G36*
X15000Y17909D02*
X12829Y18244D01*
X14959Y17904D01*
X15000Y17909D01*
G37*
G36*
X14959Y17904D02*
X12829Y18244D01*
X12901Y18208D01*
X14959Y17904D01*
G37*
G36*
X14959Y17904D02*
X12901Y18208D01*
X14921Y17888D01*
X14959Y17904D01*
G37*
G36*
X14921Y17888D02*
X12901Y18208D01*
X14888Y17862D01*
X14921Y17888D01*
G37*
G36*
X14888Y17862D02*
X12901Y18208D01*
X14250Y17494D01*
X14888Y17862D01*
G37*
G36*
X12958Y18151D02*
X14250Y17494D01*
X12901Y18208D01*
X12958Y18151D01*
G37*
G36*
X14250Y17494D02*
X12958Y18151D01*
X14097Y17470D01*
X14250Y17494D01*
G37*
G36*
X14097Y17470D02*
X12958Y18151D01*
X12994Y18079D01*
X14097Y17470D01*
G37*
G36*
X14097Y17470D02*
X12994Y18079D01*
X13006Y18000D01*
X14097Y17470D01*
G37*
G36*
X13006Y18000D02*
X13960Y17400D01*
X14097Y17470D01*
X13006Y18000D01*
G37*
G36*
X13960Y17400D02*
X13006Y18000D01*
X12994Y17921D01*
X13960Y17400D01*
G37*
G36*
X13960Y17400D02*
X12994Y17921D01*
X13850Y17290D01*
X13960Y17400D01*
G37*
G36*
X12994Y17921D02*
X12958Y17849D01*
X13850Y17290D01*
X12994Y17921D01*
G37*
G36*
X13850Y17290D02*
X12958Y17849D01*
X13780Y17153D01*
X13850Y17290D01*
G37*
G36*
X12958Y17849D02*
X12901Y17792D01*
X13780Y17153D01*
X12958Y17849D01*
G37*
G36*
X13780Y17153D02*
X12901Y17792D01*
X12829Y17756D01*
X13780Y17153D01*
G37*
G36*
X13780Y17153D02*
X12829Y17756D01*
X13756Y17000D01*
X13780Y17153D01*
G37*
G36*
X14250Y17494D02*
X14403Y17470D01*
X14888Y17862D01*
X14250Y17494D01*
G37*
G36*
X14403Y17470D02*
X14464Y17439D01*
X14888Y17862D01*
X14403Y17470D01*
G37*
G36*
X16128Y18125D02*
X15000Y17909D01*
X16018Y18069D01*
X16128Y18125D01*
G37*
G36*
X15000Y17909D02*
X15931Y17982D01*
X16018Y18069D01*
X15000Y17909D01*
G37*
G36*
X15000Y17909D02*
X15894Y17909D01*
X15931Y17982D01*
X15000Y17909D01*
G37*
G36*
X16644Y17144D02*
X16625Y17628D01*
X16569Y17518D01*
X16644Y17144D01*
G37*
G36*
X16569Y17518D02*
X16482Y17431D01*
X16644Y17144D01*
X16569Y17518D01*
G37*
G36*
X16482Y17431D02*
X16372Y17375D01*
X16644Y17144D01*
X16482Y17431D01*
G37*
G36*
X16372Y17375D02*
X16250Y17356D01*
X16644Y17144D01*
X16372Y17375D01*
G37*
G36*
X16250Y17356D02*
X15856Y17144D01*
X16644Y17144D01*
X16250Y17356D01*
G37*
G36*
X16128Y17375D02*
X15856Y17144D01*
X16250Y17356D01*
X16128Y17375D01*
G37*
G36*
X16018Y17431D02*
X15856Y17144D01*
X16128Y17375D01*
X16018Y17431D01*
G37*
G36*
X15931Y17518D02*
X15856Y17144D01*
X16018Y17431D01*
X15931Y17518D01*
G37*
G36*
X15931Y17518D02*
X15894Y17591D01*
X15856Y17144D01*
X15931Y17518D01*
G37*
G36*
X15894Y17591D02*
X15066Y17591D01*
X15856Y17144D01*
X15894Y17591D01*
G37*
G36*
X15066Y17591D02*
X14744Y17000D01*
X15856Y17144D01*
X15066Y17591D01*
G37*
G36*
X15856Y17144D02*
X14744Y17000D01*
X14720Y16847D01*
X15856Y17144D01*
G37*
G36*
X15856Y17144D02*
X14720Y16847D01*
X15856Y16356D01*
X15856Y17144D01*
G37*
G36*
X14720Y16847D02*
X14650Y16710D01*
X15856Y16356D01*
X14720Y16847D01*
G37*
G36*
X14650Y16710D02*
X14540Y16600D01*
X15856Y16356D01*
X14650Y16710D01*
G37*
G36*
X14540Y16600D02*
X14403Y16530D01*
X15856Y16356D01*
X14540Y16600D01*
G37*
G36*
X14403Y16530D02*
X14250Y16506D01*
X15856Y16356D01*
X14403Y16530D01*
G37*
G36*
X14720Y17153D02*
X14744Y17000D01*
X15066Y17591D01*
X14720Y17153D01*
G37*
G36*
X14689Y17214D02*
X14720Y17153D01*
X15066Y17591D01*
X14689Y17214D01*
G37*
G36*
X18215Y16559D02*
X17387Y17387D01*
X17875Y16285D01*
X18215Y16559D01*
G37*
G36*
X17916Y16280D02*
X18215Y16559D01*
X17875Y16285D01*
X17916Y16280D01*
G37*
G36*
X18215Y16559D02*
X17916Y16280D01*
X17955Y16264D01*
X18215Y16559D01*
G37*
G36*
X17955Y16264D02*
X17988Y16238D01*
X18215Y16559D01*
X17955Y16264D01*
G37*
G36*
X17988Y16238D02*
X18215Y16011D01*
X18215Y16559D01*
X17988Y16238D01*
G37*
G36*
X4660Y13500D02*
X4788Y14104D01*
X4660Y14038D01*
X4660Y13500D01*
G37*
G36*
X1468Y12933D02*
X910Y12066D01*
X1363Y11613D01*
X1468Y12933D01*
G37*
G36*
X1468Y12933D02*
X910Y12933D01*
X910Y12066D01*
X1468Y12933D01*
G37*
G36*
X2100Y8040D02*
X1389Y8420D01*
X2030Y7903D01*
X2100Y8040D01*
G37*
G36*
X1389Y8420D02*
X1363Y8387D01*
X2030Y7903D01*
X1389Y8420D01*
G37*
G36*
X1291Y7650D02*
X2030Y7903D01*
X1363Y8387D01*
X1291Y7650D01*
G37*
G36*
X1160Y8184D02*
X1291Y7650D01*
X1363Y8387D01*
X1160Y8184D01*
G37*
G36*
X1160Y8184D02*
X1160Y7717D01*
X1291Y7650D01*
X1160Y8184D01*
G37*
G36*
X2030Y7903D02*
X1291Y7650D01*
X2006Y7750D01*
X2030Y7903D01*
G37*
G36*
X2006Y7750D02*
X1291Y7650D01*
X1400Y7541D01*
X2006Y7750D01*
G37*
G36*
X2006Y7750D02*
X1400Y7541D01*
X2030Y7597D01*
X2006Y7750D01*
G37*
G36*
X2030Y7597D02*
X1400Y7541D01*
X1471Y7403D01*
X2030Y7597D01*
G37*
G36*
X2030Y7597D02*
X1471Y7403D01*
X2100Y7460D01*
X2030Y7597D01*
G37*
G36*
X1471Y7403D02*
X1495Y7250D01*
X2100Y7460D01*
X1471Y7403D01*
G37*
G36*
X1495Y7250D02*
X2100Y7040D01*
X2100Y7460D01*
X1495Y7250D01*
G37*
G36*
X2100Y7460D02*
X2100Y7040D01*
X2210Y7150D01*
X2100Y7460D01*
G37*
G36*
X2210Y7350D02*
X2100Y7460D01*
X2210Y7150D01*
X2210Y7350D01*
G37*
G36*
X2210Y7350D02*
X2210Y7150D01*
X2347Y7220D01*
X2210Y7350D01*
G37*
G36*
X2347Y7280D02*
X2210Y7350D01*
X2347Y7220D01*
X2347Y7280D01*
G37*
G36*
X2347Y7280D02*
X2347Y7220D01*
X2500Y7244D01*
X2347Y7280D01*
G37*
G36*
X2500Y7256D02*
X2347Y7280D01*
X2500Y7244D01*
X2500Y7256D01*
G37*
G36*
X2653Y7280D02*
X2500Y7256D01*
X2500Y7244D01*
X2653Y7280D01*
G37*
G36*
X2653Y7280D02*
X2500Y7244D01*
X2653Y7220D01*
X2653Y7280D01*
G37*
G36*
X2653Y7280D02*
X2653Y7220D01*
X2790Y7150D01*
X2653Y7280D01*
G37*
G36*
X2653Y7280D02*
X2790Y7150D01*
X2790Y7350D01*
X2653Y7280D01*
G37*
G36*
X2900Y7460D02*
X2790Y7350D01*
X2790Y7150D01*
X2900Y7460D01*
G37*
G36*
X2900Y7460D02*
X2790Y7150D01*
X2900Y7040D01*
X2900Y7460D01*
G37*
G36*
X2970Y7597D02*
X2900Y7460D01*
X2900Y7040D01*
X2970Y7597D01*
G37*
G36*
X2970Y7597D02*
X2900Y7040D01*
X2970Y6903D01*
X2970Y7597D01*
G37*
G36*
X2970Y7597D02*
X2970Y6903D01*
X2994Y6750D01*
X2970Y7597D01*
G37*
G36*
X2970Y7597D02*
X2994Y6750D01*
X2994Y7750D01*
X2970Y7597D01*
G37*
G36*
X2994Y7750D02*
X2994Y6750D01*
X11006Y6750D01*
X2994Y7750D01*
G37*
G36*
X11006Y6750D02*
X2994Y6750D01*
X11006Y5750D01*
X11006Y6750D01*
G37*
G36*
X2994Y6750D02*
X2994Y5750D01*
X11006Y5750D01*
X2994Y6750D01*
G37*
G36*
X11006Y5750D02*
X2994Y5750D01*
X11006Y4750D01*
X11006Y5750D01*
G37*
G36*
X2994Y5750D02*
X2994Y4750D01*
X11006Y4750D01*
X2994Y5750D01*
G37*
G36*
X11006Y4750D02*
X2994Y4750D01*
X11006Y3750D01*
X11006Y4750D01*
G37*
G36*
X11030Y4597D02*
X11006Y4750D01*
X11006Y3750D01*
X11030Y4597D01*
G37*
G36*
X11006Y3750D02*
X11030Y3903D01*
X11030Y4597D01*
X11006Y3750D01*
G37*
G36*
X11030Y4597D02*
X11030Y3903D01*
X11100Y4040D01*
X11030Y4597D01*
G37*
G36*
X11100Y4460D02*
X11030Y4597D01*
X11100Y4040D01*
X11100Y4460D01*
G37*
G36*
X11100Y4460D02*
X11100Y4040D01*
X11210Y4150D01*
X11100Y4460D01*
G37*
G36*
X11210Y4350D02*
X11100Y4460D01*
X11210Y4150D01*
X11210Y4350D01*
G37*
G36*
X11210Y4350D02*
X11210Y4150D01*
X11347Y4220D01*
X11210Y4350D01*
G37*
G36*
X11347Y4280D02*
X11210Y4350D01*
X11347Y4220D01*
X11347Y4280D01*
G37*
G36*
X11347Y4280D02*
X11347Y4220D01*
X11500Y4244D01*
X11347Y4280D01*
G37*
G36*
X11500Y4256D02*
X11347Y4280D01*
X11500Y4244D01*
X11500Y4256D01*
G37*
G36*
X11653Y4280D02*
X11500Y4256D01*
X11500Y4244D01*
X11653Y4280D01*
G37*
G36*
X11653Y4280D02*
X11500Y4244D01*
X11653Y4220D01*
X11653Y4280D01*
G37*
G36*
X11653Y4280D02*
X11653Y4220D01*
X11790Y4150D01*
X11653Y4280D01*
G37*
G36*
X11653Y4280D02*
X11790Y4150D01*
X11790Y4350D01*
X11653Y4280D01*
G37*
G36*
X11900Y4460D02*
X11790Y4350D01*
X11790Y4150D01*
X11900Y4460D01*
G37*
G36*
X11900Y4040D02*
X11900Y4460D01*
X11790Y4150D01*
X11900Y4040D01*
G37*
G36*
X12897Y4413D02*
X11900Y4460D01*
X11900Y4040D01*
X12897Y4413D01*
G37*
G36*
X11900Y4040D02*
X11970Y3903D01*
X12897Y4413D01*
X11900Y4040D01*
G37*
G36*
X12897Y4413D02*
X11970Y3903D01*
X12951Y4073D01*
X12897Y4413D01*
G37*
G36*
X11970Y3903D02*
X11994Y3750D01*
X12951Y4073D01*
X11970Y3903D01*
G37*
G36*
X12951Y4073D02*
X11994Y3750D01*
X13107Y3765D01*
X12951Y4073D01*
G37*
G36*
X13107Y3765D02*
X11994Y3750D01*
X11970Y3597D01*
X13107Y3765D01*
G37*
G36*
X13107Y2700D02*
X13107Y3765D01*
X11970Y3597D01*
X13107Y2700D01*
G37*
G36*
X11970Y3597D02*
X11900Y3460D01*
X13107Y2700D01*
X11970Y3597D01*
G37*
G36*
X13107Y2700D02*
X11900Y3460D01*
X12951Y2392D01*
X13107Y2700D01*
G37*
G36*
X12951Y2392D02*
X11900Y3460D01*
X11790Y3350D01*
X12951Y2392D01*
G37*
G36*
X12951Y2392D02*
X11790Y3350D01*
X11653Y3280D01*
X12951Y2392D01*
G37*
G36*
X12951Y2392D02*
X11653Y3280D01*
X12897Y2051D01*
X12951Y2392D01*
G37*
G36*
X11653Y3280D02*
X11500Y3256D01*
X12897Y2051D01*
X11653Y3280D01*
G37*
G36*
X12897Y2051D02*
X11500Y3256D01*
X12951Y1710D01*
X12897Y2051D01*
G37*
G36*
X11500Y3256D02*
X11347Y3280D01*
X12951Y1710D01*
X11500Y3256D01*
G37*
G36*
X11347Y3280D02*
X11210Y3350D01*
X12951Y1710D01*
X11347Y3280D01*
G37*
G36*
X13107Y2700D02*
X13352Y3521D01*
X13107Y3765D01*
X13107Y2700D01*
G37*
G36*
X13107Y2700D02*
X13352Y2944D01*
X13352Y3521D01*
X13107Y2700D01*
G37*
G36*
X13352Y3521D02*
X13352Y2944D01*
X13659Y3364D01*
X13352Y3521D01*
G37*
G36*
X13352Y2944D02*
X13659Y3100D01*
X13659Y3364D01*
X13352Y2944D01*
G37*
G36*
X13659Y3364D02*
X13659Y3100D01*
X14000Y3310D01*
X13659Y3364D01*
G37*
G36*
X13659Y3100D02*
X14000Y3154D01*
X14000Y3310D01*
X13659Y3100D01*
G37*
G36*
X14000Y3310D02*
X14000Y3154D01*
X14341Y3100D01*
X14000Y3310D01*
G37*
G36*
X14000Y3310D02*
X14341Y3100D01*
X14341Y3364D01*
X14000Y3310D01*
G37*
G36*
X11970Y4597D02*
X11900Y4460D01*
X12897Y4413D01*
X11970Y4597D01*
G37*
G36*
X11994Y4750D02*
X11970Y4597D01*
X12897Y4413D01*
X11994Y4750D01*
G37*
G36*
X11994Y4750D02*
X12897Y4413D01*
X12951Y4754D01*
X11994Y4750D01*
G37*
G36*
X11994Y4750D02*
X12951Y4754D01*
X11970Y4903D01*
X11994Y4750D01*
G37*
G36*
X12951Y4754D02*
X11970Y5597D01*
X11970Y4903D01*
X12951Y4754D01*
G37*
G36*
X11970Y5597D02*
X11900Y5040D01*
X11970Y4903D01*
X11970Y5597D01*
G37*
G36*
X11970Y5597D02*
X11900Y5460D01*
X11900Y5040D01*
X11970Y5597D01*
G37*
G36*
X11900Y5460D02*
X11790Y5150D01*
X11900Y5040D01*
X11900Y5460D01*
G37*
G36*
X11900Y5460D02*
X11790Y5350D01*
X11790Y5150D01*
X11900Y5460D01*
G37*
G36*
X11653Y5280D02*
X11790Y5150D01*
X11790Y5350D01*
X11653Y5280D01*
G37*
G36*
X11653Y5280D02*
X11653Y5220D01*
X11790Y5150D01*
X11653Y5280D01*
G37*
G36*
X11653Y5280D02*
X11500Y5244D01*
X11653Y5220D01*
X11653Y5280D01*
G37*
G36*
X11653Y5280D02*
X11500Y5256D01*
X11500Y5244D01*
X11653Y5280D01*
G37*
G36*
X11500Y5256D02*
X11347Y5280D01*
X11500Y5244D01*
X11500Y5256D01*
G37*
G36*
X11347Y5280D02*
X11347Y5220D01*
X11500Y5244D01*
X11347Y5280D01*
G37*
G36*
X11347Y5280D02*
X11210Y5350D01*
X11347Y5220D01*
X11347Y5280D01*
G37*
G36*
X11210Y5350D02*
X11210Y5150D01*
X11347Y5220D01*
X11210Y5350D01*
G37*
G36*
X11210Y5350D02*
X11100Y5460D01*
X11210Y5150D01*
X11210Y5350D01*
G37*
G36*
X11100Y5460D02*
X11100Y5040D01*
X11210Y5150D01*
X11100Y5460D01*
G37*
G36*
X11100Y5460D02*
X11030Y5597D01*
X11100Y5040D01*
X11100Y5460D01*
G37*
G36*
X11030Y5597D02*
X11030Y4903D01*
X11100Y5040D01*
X11030Y5597D01*
G37*
G36*
X11006Y4750D02*
X11030Y4903D01*
X11030Y5597D01*
X11006Y4750D01*
G37*
G36*
X11030Y5597D02*
X11006Y5750D01*
X11006Y4750D01*
X11030Y5597D01*
G37*
G36*
X13107Y5062D02*
X11970Y5597D01*
X12951Y4754D01*
X13107Y5062D01*
G37*
G36*
X13107Y5062D02*
X11994Y5750D01*
X11970Y5597D01*
X13107Y5062D01*
G37*
G36*
X13352Y5306D02*
X11994Y5750D01*
X13107Y5062D01*
X13352Y5306D01*
G37*
G36*
X11994Y5750D02*
X13352Y5306D01*
X12847Y6530D01*
X11994Y5750D01*
G37*
G36*
X13000Y6506D02*
X12847Y6530D01*
X13352Y5306D01*
X13000Y6506D01*
G37*
G36*
X13153Y6530D02*
X13000Y6506D01*
X13352Y5306D01*
X13153Y6530D01*
G37*
G36*
X13659Y5463D02*
X13153Y6530D01*
X13352Y5306D01*
X13659Y5463D01*
G37*
G36*
X13659Y5463D02*
X13290Y6600D01*
X13153Y6530D01*
X13659Y5463D01*
G37*
G36*
X14000Y5517D02*
X13290Y6600D01*
X13659Y5463D01*
X14000Y5517D01*
G37*
G36*
X13400Y6710D02*
X13290Y6600D01*
X14000Y5517D01*
X13400Y6710D01*
G37*
G36*
X13470Y6847D02*
X13400Y6710D01*
X14000Y5517D01*
X13470Y6847D01*
G37*
G36*
X14000Y5517D02*
X14850Y5644D01*
X13470Y6847D01*
X14000Y5517D01*
G37*
G36*
X14852Y5648D02*
X13470Y6847D01*
X14850Y5644D01*
X14852Y5648D01*
G37*
G36*
X14852Y5648D02*
X14888Y5677D01*
X13470Y6847D01*
X14852Y5648D01*
G37*
G36*
X14888Y5677D02*
X14896Y5681D01*
X13470Y6847D01*
X14888Y5677D01*
G37*
G36*
X14896Y5681D02*
X14938Y5699D01*
X13470Y6847D01*
X14896Y5681D01*
G37*
G36*
X15506Y7000D02*
X13470Y6847D01*
X14938Y5699D01*
X15506Y7000D01*
G37*
G36*
X15506Y7000D02*
X14938Y5699D01*
X14946Y5702D01*
X15506Y7000D01*
G37*
G36*
X14946Y5702D02*
X14938Y5699D01*
X14942Y5700D01*
X14946Y5702D01*
G37*
G36*
X14991Y5709D02*
X15506Y7000D01*
X14946Y5702D01*
X14991Y5709D01*
G37*
G36*
X14991Y5709D02*
X14946Y5702D01*
X14969Y5705D01*
X14991Y5709D01*
G37*
G36*
X14991Y5709D02*
X15530Y6847D01*
X15506Y7000D01*
X14991Y5709D01*
G37*
G36*
X15600Y6710D02*
X15530Y6847D01*
X14991Y5709D01*
X15600Y6710D01*
G37*
G36*
X15600Y6710D02*
X14991Y5709D01*
X15000Y5709D01*
X15600Y6710D01*
G37*
G36*
X14991Y5709D02*
X14996Y5708D01*
X15000Y5709D01*
X14991Y5709D01*
G37*
G36*
X15600Y6710D02*
X15000Y5709D01*
X15710Y6600D01*
X15600Y6710D01*
G37*
G36*
X15710Y6600D02*
X15000Y5709D01*
X15847Y6530D01*
X15710Y6600D01*
G37*
G36*
X16413Y5709D02*
X15847Y6530D01*
X15000Y5709D01*
X16413Y5709D01*
G37*
G36*
X16000Y6506D02*
X15847Y6530D01*
X16413Y5709D01*
X16000Y6506D01*
G37*
G36*
X16153Y6530D02*
X16000Y6506D01*
X16413Y5709D01*
X16153Y6530D01*
G37*
G36*
X16290Y6600D02*
X16153Y6530D01*
X16413Y5709D01*
X16290Y6600D01*
G37*
G36*
X17291Y6587D02*
X16290Y6600D01*
X16413Y5709D01*
X17291Y6587D01*
G37*
G36*
X16400Y6710D02*
X16290Y6600D01*
X17291Y6587D01*
X16400Y6710D01*
G37*
G36*
X16470Y6847D02*
X16400Y6710D01*
X17291Y6587D01*
X16470Y6847D01*
G37*
G36*
X16494Y7000D02*
X16470Y6847D01*
X17291Y6587D01*
X16494Y7000D01*
G37*
G36*
X16494Y7000D02*
X17291Y6587D01*
X17291Y7559D01*
X16494Y7000D01*
G37*
G36*
X17291Y7559D02*
X17210Y7600D01*
X16494Y7000D01*
X17291Y7559D01*
G37*
G36*
X17210Y7600D02*
X16470Y7153D01*
X16494Y7000D01*
X17210Y7600D01*
G37*
G36*
X17210Y7600D02*
X17100Y7710D01*
X16470Y7153D01*
X17210Y7600D01*
G37*
G36*
X17100Y7710D02*
X16400Y7290D01*
X16470Y7153D01*
X17100Y7710D01*
G37*
G36*
X17100Y7710D02*
X16604Y7819D01*
X16400Y7290D01*
X17100Y7710D01*
G37*
G36*
X16400Y7290D02*
X16604Y7819D01*
X16554Y7798D01*
X16400Y7290D01*
G37*
G36*
X16554Y7798D02*
X16500Y7791D01*
X16400Y7290D01*
X16554Y7798D01*
G37*
G36*
X16290Y7400D02*
X16400Y7290D01*
X16500Y7791D01*
X16290Y7400D01*
G37*
G36*
X16500Y7791D02*
X16217Y7684D01*
X16290Y7400D01*
X16500Y7791D01*
G37*
G36*
X16217Y7684D02*
X16153Y7470D01*
X16290Y7400D01*
X16217Y7684D01*
G37*
G36*
X16000Y7494D02*
X16153Y7470D01*
X16217Y7684D01*
X16000Y7494D01*
G37*
G36*
X16000Y7494D02*
X16217Y7684D01*
X15533Y7684D01*
X16000Y7494D01*
G37*
G36*
X15533Y7684D02*
X15847Y7470D01*
X16000Y7494D01*
X15533Y7684D01*
G37*
G36*
X15533Y7684D02*
X15710Y7400D01*
X15847Y7470D01*
X15533Y7684D01*
G37*
G36*
X15533Y7684D02*
X15600Y7290D01*
X15710Y7400D01*
X15533Y7684D01*
G37*
G36*
X15533Y7684D02*
X15530Y7153D01*
X15600Y7290D01*
X15533Y7684D01*
G37*
G36*
X15000Y7841D02*
X15530Y7153D01*
X15533Y7684D01*
X15000Y7841D01*
G37*
G36*
X15000Y7841D02*
X15533Y7684D01*
X15533Y7841D01*
X15000Y7841D01*
G37*
G36*
X15530Y7153D02*
X15000Y7841D01*
X14959Y7846D01*
X15530Y7153D01*
G37*
G36*
X15530Y7153D02*
X14959Y7846D01*
X15506Y7000D01*
X15530Y7153D01*
G37*
G36*
X14959Y7846D02*
X14921Y7862D01*
X15506Y7000D01*
X14959Y7846D01*
G37*
G36*
X15506Y7000D02*
X14921Y7862D01*
X13494Y7000D01*
X15506Y7000D01*
G37*
G36*
X14921Y7862D02*
X14888Y7888D01*
X13494Y7000D01*
X14921Y7862D01*
G37*
G36*
X14888Y7888D02*
X13470Y7153D01*
X13494Y7000D01*
X14888Y7888D01*
G37*
G36*
X13470Y7153D02*
X14888Y7888D01*
X14638Y8138D01*
X13470Y7153D01*
G37*
G36*
X14638Y8138D02*
X13400Y7290D01*
X13470Y7153D01*
X14638Y8138D01*
G37*
G36*
X14638Y8138D02*
X13679Y8160D01*
X13400Y7290D01*
X14638Y8138D01*
G37*
G36*
X13400Y7290D02*
X13679Y8160D01*
X13475Y8056D01*
X13400Y7290D01*
G37*
G36*
X13290Y7400D02*
X13400Y7290D01*
X13475Y8056D01*
X13290Y7400D01*
G37*
G36*
X13250Y8021D02*
X13290Y7400D01*
X13475Y8056D01*
X13250Y8021D01*
G37*
G36*
X13250Y8021D02*
X13153Y7470D01*
X13290Y7400D01*
X13250Y8021D01*
G37*
G36*
X13250Y8021D02*
X13000Y7494D01*
X13153Y7470D01*
X13250Y8021D01*
G37*
G36*
X13250Y8021D02*
X13025Y8056D01*
X13000Y7494D01*
X13250Y8021D01*
G37*
G36*
X13025Y8056D02*
X12847Y7470D01*
X13000Y7494D01*
X13025Y8056D01*
G37*
G36*
X13025Y8056D02*
X12821Y8160D01*
X12847Y7470D01*
X13025Y8056D01*
G37*
G36*
X12821Y8160D02*
X12710Y7400D01*
X12847Y7470D01*
X12821Y8160D01*
G37*
G36*
X12821Y8160D02*
X11994Y7750D01*
X12710Y7400D01*
X12821Y8160D01*
G37*
G36*
X12710Y7400D02*
X11994Y7750D01*
X12600Y7290D01*
X12710Y7400D01*
G37*
G36*
X11994Y7750D02*
X11970Y7597D01*
X12600Y7290D01*
X11994Y7750D01*
G37*
G36*
X11970Y7597D02*
X12530Y7153D01*
X12600Y7290D01*
X11970Y7597D01*
G37*
G36*
X11970Y7597D02*
X11900Y7460D01*
X12530Y7153D01*
X11970Y7597D01*
G37*
G36*
X11900Y7040D02*
X12530Y7153D01*
X11900Y7460D01*
X11900Y7040D01*
G37*
G36*
X11900Y7460D02*
X11790Y7150D01*
X11900Y7040D01*
X11900Y7460D01*
G37*
G36*
X11900Y7460D02*
X11790Y7350D01*
X11790Y7150D01*
X11900Y7460D01*
G37*
G36*
X11653Y7280D02*
X11790Y7150D01*
X11790Y7350D01*
X11653Y7280D01*
G37*
G36*
X11653Y7280D02*
X11653Y7220D01*
X11790Y7150D01*
X11653Y7280D01*
G37*
G36*
X11653Y7280D02*
X11500Y7244D01*
X11653Y7220D01*
X11653Y7280D01*
G37*
G36*
X11653Y7280D02*
X11500Y7256D01*
X11500Y7244D01*
X11653Y7280D01*
G37*
G36*
X11500Y7256D02*
X11347Y7280D01*
X11500Y7244D01*
X11500Y7256D01*
G37*
G36*
X11347Y7280D02*
X11347Y7220D01*
X11500Y7244D01*
X11347Y7280D01*
G37*
G36*
X11347Y7280D02*
X11210Y7350D01*
X11347Y7220D01*
X11347Y7280D01*
G37*
G36*
X11210Y7350D02*
X11210Y7150D01*
X11347Y7220D01*
X11210Y7350D01*
G37*
G36*
X11210Y7350D02*
X11100Y7460D01*
X11210Y7150D01*
X11210Y7350D01*
G37*
G36*
X11100Y7460D02*
X11100Y7040D01*
X11210Y7150D01*
X11100Y7460D01*
G37*
G36*
X11100Y7460D02*
X11030Y7597D01*
X11100Y7040D01*
X11100Y7460D01*
G37*
G36*
X11030Y7597D02*
X11030Y6903D01*
X11100Y7040D01*
X11030Y7597D01*
G37*
G36*
X11006Y6750D02*
X11030Y6903D01*
X11030Y7597D01*
X11006Y6750D01*
G37*
G36*
X11030Y7597D02*
X11006Y7750D01*
X11006Y6750D01*
X11030Y7597D01*
G37*
G36*
X11006Y7750D02*
X2994Y7750D01*
X11006Y6750D01*
X11006Y7750D01*
G37*
G36*
X12530Y7153D02*
X11900Y7040D01*
X12506Y7000D01*
X12530Y7153D01*
G37*
G36*
X12506Y7000D02*
X11900Y7040D01*
X11970Y6903D01*
X12506Y7000D01*
G37*
G36*
X12506Y7000D02*
X11970Y6903D01*
X12530Y6847D01*
X12506Y7000D01*
G37*
G36*
X11970Y6903D02*
X11994Y6750D01*
X12530Y6847D01*
X11970Y6903D01*
G37*
G36*
X12530Y6847D02*
X11994Y6750D01*
X12600Y6710D01*
X12530Y6847D01*
G37*
G36*
X11994Y6750D02*
X11970Y6597D01*
X12600Y6710D01*
X11994Y6750D01*
G37*
G36*
X12600Y6710D02*
X11970Y6597D01*
X12710Y6600D01*
X12600Y6710D01*
G37*
G36*
X12710Y6600D02*
X11970Y6597D01*
X11900Y6460D01*
X12710Y6600D01*
G37*
G36*
X11900Y6460D02*
X11900Y6040D01*
X12710Y6600D01*
X11900Y6460D01*
G37*
G36*
X11900Y6040D02*
X12847Y6530D01*
X12710Y6600D01*
X11900Y6040D01*
G37*
G36*
X11970Y5903D02*
X12847Y6530D01*
X11900Y6040D01*
X11970Y5903D01*
G37*
G36*
X12847Y6530D02*
X11970Y5903D01*
X11994Y5750D01*
X12847Y6530D01*
G37*
G36*
X11900Y6460D02*
X11790Y6150D01*
X11900Y6040D01*
X11900Y6460D01*
G37*
G36*
X11900Y6460D02*
X11790Y6350D01*
X11790Y6150D01*
X11900Y6460D01*
G37*
G36*
X11653Y6280D02*
X11790Y6150D01*
X11790Y6350D01*
X11653Y6280D01*
G37*
G36*
X11653Y6280D02*
X11653Y6220D01*
X11790Y6150D01*
X11653Y6280D01*
G37*
G36*
X11653Y6280D02*
X11500Y6244D01*
X11653Y6220D01*
X11653Y6280D01*
G37*
G36*
X11653Y6280D02*
X11500Y6256D01*
X11500Y6244D01*
X11653Y6280D01*
G37*
G36*
X11500Y6256D02*
X11347Y6280D01*
X11500Y6244D01*
X11500Y6256D01*
G37*
G36*
X11347Y6280D02*
X11347Y6220D01*
X11500Y6244D01*
X11347Y6280D01*
G37*
G36*
X11347Y6280D02*
X11210Y6350D01*
X11347Y6220D01*
X11347Y6280D01*
G37*
G36*
X11210Y6350D02*
X11210Y6150D01*
X11347Y6220D01*
X11210Y6350D01*
G37*
G36*
X11210Y6350D02*
X11100Y6460D01*
X11210Y6150D01*
X11210Y6350D01*
G37*
G36*
X11100Y6460D02*
X11100Y6040D01*
X11210Y6150D01*
X11100Y6460D01*
G37*
G36*
X11100Y6460D02*
X11030Y6597D01*
X11100Y6040D01*
X11100Y6460D01*
G37*
G36*
X11030Y6597D02*
X11030Y5903D01*
X11100Y6040D01*
X11030Y6597D01*
G37*
G36*
X11006Y5750D02*
X11030Y5903D01*
X11030Y6597D01*
X11006Y5750D01*
G37*
G36*
X11030Y6597D02*
X11006Y6750D01*
X11006Y5750D01*
X11030Y6597D01*
G37*
G36*
X11994Y7750D02*
X12821Y8160D01*
X11970Y7903D01*
X11994Y7750D01*
G37*
G36*
X12660Y8321D02*
X11970Y7903D01*
X12821Y8160D01*
X12660Y8321D01*
G37*
G36*
X11900Y8040D02*
X11970Y7903D01*
X12660Y8321D01*
X11900Y8040D01*
G37*
G36*
X12660Y8321D02*
X12556Y8525D01*
X11900Y8040D01*
X12660Y8321D01*
G37*
G36*
X14612Y8171D02*
X13679Y8160D01*
X14638Y8138D01*
X14612Y8171D01*
G37*
G36*
X14612Y8171D02*
X13840Y8321D01*
X13679Y8160D01*
X14612Y8171D01*
G37*
G36*
X14612Y8171D02*
X14596Y8209D01*
X13840Y8321D01*
X14612Y8171D01*
G37*
G36*
X14591Y8250D02*
X13840Y8321D01*
X14596Y8209D01*
X14591Y8250D01*
G37*
G36*
X13944Y8525D02*
X13840Y8321D01*
X14591Y8250D01*
X13944Y8525D01*
G37*
G36*
X14460Y8600D02*
X13944Y8525D01*
X14591Y8250D01*
X14460Y8600D01*
G37*
G36*
X14591Y8533D02*
X14460Y8600D01*
X14591Y8250D01*
X14591Y8533D01*
G37*
G36*
X14350Y8710D02*
X13944Y8525D01*
X14460Y8600D01*
X14350Y8710D01*
G37*
G36*
X13979Y8750D02*
X13944Y8525D01*
X14350Y8710D01*
X13979Y8750D01*
G37*
G36*
X14280Y8847D02*
X13979Y8750D01*
X14350Y8710D01*
X14280Y8847D01*
G37*
G36*
X13944Y8975D02*
X13979Y8750D01*
X14280Y8847D01*
X13944Y8975D01*
G37*
G36*
X14256Y9000D02*
X13944Y8975D01*
X14280Y8847D01*
X14256Y9000D01*
G37*
G36*
X13944Y8975D02*
X14256Y9000D01*
X14280Y9153D01*
X13944Y8975D01*
G37*
G36*
X13840Y9179D02*
X13944Y8975D01*
X14280Y9153D01*
X13840Y9179D01*
G37*
G36*
X14280Y9153D02*
X14350Y9290D01*
X13840Y9179D01*
X14280Y9153D01*
G37*
G36*
X14350Y9290D02*
X13679Y9340D01*
X13840Y9179D01*
X14350Y9290D01*
G37*
G36*
X14460Y9400D02*
X13679Y9340D01*
X14350Y9290D01*
X14460Y9400D01*
G37*
G36*
X13679Y9340D02*
X14460Y9400D01*
X13475Y9444D01*
X13679Y9340D01*
G37*
G36*
X15506Y7000D02*
X13494Y7000D01*
X13470Y6847D01*
X15506Y7000D01*
G37*
G36*
X16500Y7791D02*
X16217Y7791D01*
X16217Y7684D01*
X16500Y7791D01*
G37*
G36*
X17100Y7710D02*
X16648Y7852D01*
X16604Y7819D01*
X17100Y7710D01*
G37*
G36*
X17030Y7847D02*
X16648Y7852D01*
X17100Y7710D01*
X17030Y7847D01*
G37*
G36*
X17006Y8000D02*
X16648Y7852D01*
X17030Y7847D01*
X17006Y8000D01*
G37*
G36*
X16898Y8102D02*
X16648Y7852D01*
X17006Y8000D01*
X16898Y8102D01*
G37*
G36*
X16931Y8146D02*
X16898Y8102D01*
X17006Y8000D01*
X16931Y8146D01*
G37*
G36*
X16931Y8146D02*
X17006Y8000D01*
X17030Y8153D01*
X16931Y8146D01*
G37*
G36*
X16952Y8196D02*
X16931Y8146D01*
X17030Y8153D01*
X16952Y8196D01*
G37*
G36*
X16959Y8250D02*
X16952Y8196D01*
X17030Y8153D01*
X16959Y8250D01*
G37*
G36*
X16959Y8250D02*
X17030Y8153D01*
X17100Y8290D01*
X16959Y8250D01*
G37*
G36*
X16959Y8559D02*
X16959Y8250D01*
X17100Y8290D01*
X16959Y8559D01*
G37*
G36*
X16959Y8559D02*
X17100Y8290D01*
X17210Y8400D01*
X16959Y8559D01*
G37*
G36*
X17040Y8600D02*
X16959Y8559D01*
X17210Y8400D01*
X17040Y8600D01*
G37*
G36*
X17040Y8600D02*
X17210Y8400D01*
X17291Y8441D01*
X17040Y8600D01*
G37*
G36*
X17291Y8663D02*
X17040Y8600D01*
X17291Y8441D01*
X17291Y8663D01*
G37*
G36*
X17150Y8710D02*
X17040Y8600D01*
X17291Y8663D01*
X17150Y8710D01*
G37*
G36*
X17182Y8773D02*
X17150Y8710D01*
X17291Y8663D01*
X17182Y8773D01*
G37*
G36*
X14917Y5690D02*
X14938Y5699D01*
X14896Y5681D01*
X14917Y5690D01*
G37*
G36*
X14892Y5678D02*
X14896Y5681D01*
X14888Y5677D01*
X14892Y5678D01*
G37*
G36*
X14870Y5662D02*
X14888Y5677D01*
X14852Y5648D01*
X14870Y5662D01*
G37*
G36*
X14850Y5644D02*
X14000Y5517D01*
X14341Y5463D01*
X14850Y5644D01*
G37*
G36*
X14341Y5463D02*
X14846Y5641D01*
X14850Y5644D01*
X14341Y5463D01*
G37*
G36*
X14341Y5463D02*
X14573Y5345D01*
X14846Y5641D01*
X14341Y5463D01*
G37*
G36*
X2970Y5597D02*
X2994Y4750D01*
X2994Y5750D01*
X2970Y5597D01*
G37*
G36*
X2970Y5597D02*
X2970Y4903D01*
X2994Y4750D01*
X2970Y5597D01*
G37*
G36*
X2970Y5597D02*
X2900Y5040D01*
X2970Y4903D01*
X2970Y5597D01*
G37*
G36*
X2970Y5597D02*
X2900Y5460D01*
X2900Y5040D01*
X2970Y5597D01*
G37*
G36*
X2900Y5460D02*
X2790Y5150D01*
X2900Y5040D01*
X2900Y5460D01*
G37*
G36*
X2900Y5460D02*
X2790Y5350D01*
X2790Y5150D01*
X2900Y5460D01*
G37*
G36*
X2653Y5280D02*
X2790Y5150D01*
X2790Y5350D01*
X2653Y5280D01*
G37*
G36*
X2653Y5280D02*
X2653Y5220D01*
X2790Y5150D01*
X2653Y5280D01*
G37*
G36*
X2653Y5280D02*
X2500Y5244D01*
X2653Y5220D01*
X2653Y5280D01*
G37*
G36*
X2653Y5280D02*
X2500Y5256D01*
X2500Y5244D01*
X2653Y5280D01*
G37*
G36*
X2500Y5256D02*
X2347Y5280D01*
X2500Y5244D01*
X2500Y5256D01*
G37*
G36*
X2347Y5280D02*
X2347Y5220D01*
X2500Y5244D01*
X2347Y5280D01*
G37*
G36*
X2347Y5280D02*
X2210Y5350D01*
X2347Y5220D01*
X2347Y5280D01*
G37*
G36*
X2210Y5350D02*
X2210Y5150D01*
X2347Y5220D01*
X2210Y5350D01*
G37*
G36*
X2210Y5350D02*
X2100Y5460D01*
X2210Y5150D01*
X2210Y5350D01*
G37*
G36*
X2100Y5460D02*
X2100Y5040D01*
X2210Y5150D01*
X2100Y5460D01*
G37*
G36*
X1494Y5250D02*
X2100Y5040D01*
X2100Y5460D01*
X1494Y5250D01*
G37*
G36*
X1470Y5403D02*
X1494Y5250D01*
X2100Y5460D01*
X1470Y5403D01*
G37*
G36*
X2030Y5597D02*
X1470Y5403D01*
X2100Y5460D01*
X2030Y5597D01*
G37*
G36*
X2030Y5597D02*
X1400Y5540D01*
X1470Y5403D01*
X2030Y5597D01*
G37*
G36*
X2006Y5750D02*
X1400Y5540D01*
X2030Y5597D01*
X2006Y5750D01*
G37*
G36*
X1400Y5959D02*
X1400Y5540D01*
X2006Y5750D01*
X1400Y5959D01*
G37*
G36*
X1400Y5959D02*
X2006Y5750D01*
X2030Y5903D01*
X1400Y5959D01*
G37*
G36*
X1471Y6097D02*
X1400Y5959D01*
X2030Y5903D01*
X1471Y6097D01*
G37*
G36*
X2100Y6040D02*
X1471Y6097D01*
X2030Y5903D01*
X2100Y6040D01*
G37*
G36*
X2100Y6040D02*
X1495Y6250D01*
X1471Y6097D01*
X2100Y6040D01*
G37*
G36*
X1495Y6250D02*
X2100Y6040D01*
X2100Y6460D01*
X1495Y6250D01*
G37*
G36*
X2100Y6460D02*
X2100Y6040D01*
X2210Y6150D01*
X2100Y6460D01*
G37*
G36*
X2210Y6350D02*
X2100Y6460D01*
X2210Y6150D01*
X2210Y6350D01*
G37*
G36*
X2210Y6350D02*
X2210Y6150D01*
X2347Y6220D01*
X2210Y6350D01*
G37*
G36*
X2347Y6280D02*
X2210Y6350D01*
X2347Y6220D01*
X2347Y6280D01*
G37*
G36*
X2347Y6280D02*
X2347Y6220D01*
X2500Y6244D01*
X2347Y6280D01*
G37*
G36*
X2500Y6256D02*
X2347Y6280D01*
X2500Y6244D01*
X2500Y6256D01*
G37*
G36*
X2653Y6280D02*
X2500Y6256D01*
X2500Y6244D01*
X2653Y6280D01*
G37*
G36*
X2653Y6280D02*
X2500Y6244D01*
X2653Y6220D01*
X2653Y6280D01*
G37*
G36*
X2653Y6280D02*
X2653Y6220D01*
X2790Y6150D01*
X2653Y6280D01*
G37*
G36*
X2653Y6280D02*
X2790Y6150D01*
X2790Y6350D01*
X2653Y6280D01*
G37*
G36*
X2900Y6460D02*
X2790Y6350D01*
X2790Y6150D01*
X2900Y6460D01*
G37*
G36*
X2900Y6460D02*
X2790Y6150D01*
X2900Y6040D01*
X2900Y6460D01*
G37*
G36*
X2970Y6597D02*
X2900Y6460D01*
X2900Y6040D01*
X2970Y6597D01*
G37*
G36*
X2970Y6597D02*
X2900Y6040D01*
X2970Y5903D01*
X2970Y6597D01*
G37*
G36*
X2970Y6597D02*
X2970Y5903D01*
X2994Y5750D01*
X2970Y6597D01*
G37*
G36*
X2970Y6597D02*
X2994Y5750D01*
X2994Y6750D01*
X2970Y6597D01*
G37*
G36*
X1471Y6403D02*
X1495Y6250D01*
X2100Y6460D01*
X1471Y6403D01*
G37*
G36*
X2030Y6597D02*
X1471Y6403D01*
X2100Y6460D01*
X2030Y6597D01*
G37*
G36*
X2030Y6597D02*
X1400Y6541D01*
X1471Y6403D01*
X2030Y6597D01*
G37*
G36*
X2006Y6750D02*
X1400Y6541D01*
X2030Y6597D01*
X2006Y6750D01*
G37*
G36*
X1400Y6959D02*
X1400Y6541D01*
X2006Y6750D01*
X1400Y6959D01*
G37*
G36*
X1400Y6959D02*
X2006Y6750D01*
X2030Y6903D01*
X1400Y6959D01*
G37*
G36*
X1471Y7097D02*
X1400Y6959D01*
X2030Y6903D01*
X1471Y7097D01*
G37*
G36*
X2100Y7040D02*
X1471Y7097D01*
X2030Y6903D01*
X2100Y7040D01*
G37*
G36*
X2100Y7040D02*
X1495Y7250D01*
X1471Y7097D01*
X2100Y7040D01*
G37*
G36*
X1291Y6850D02*
X1400Y6541D01*
X1400Y6959D01*
X1291Y6850D01*
G37*
G36*
X1291Y6850D02*
X1291Y6650D01*
X1400Y6541D01*
X1291Y6850D01*
G37*
G36*
X1153Y6779D02*
X1291Y6650D01*
X1291Y6850D01*
X1153Y6779D01*
G37*
G36*
X1153Y6779D02*
X1153Y6721D01*
X1291Y6650D01*
X1153Y6779D01*
G37*
G36*
X1000Y6755D02*
X1153Y6721D01*
X1153Y6779D01*
X1000Y6755D01*
G37*
G36*
X1000Y6755D02*
X1000Y6745D01*
X1153Y6721D01*
X1000Y6755D01*
G37*
G36*
X847Y6721D02*
X1000Y6745D01*
X1000Y6755D01*
X847Y6721D01*
G37*
G36*
X847Y6779D02*
X847Y6721D01*
X1000Y6755D01*
X847Y6779D01*
G37*
G36*
X786Y6690D02*
X847Y6721D01*
X847Y6779D01*
X786Y6690D01*
G37*
G36*
X709Y6850D02*
X786Y6690D01*
X847Y6779D01*
X709Y6850D01*
G37*
G36*
X786Y6690D02*
X709Y6850D01*
X535Y6941D01*
X786Y6690D01*
G37*
G36*
X600Y6959D02*
X535Y6941D01*
X709Y6850D01*
X600Y6959D01*
G37*
G36*
X535Y7086D02*
X535Y6941D01*
X600Y6959D01*
X535Y7086D01*
G37*
G36*
X1291Y5850D02*
X1400Y5540D01*
X1400Y5959D01*
X1291Y5850D01*
G37*
G36*
X1291Y5850D02*
X1290Y5650D01*
X1400Y5540D01*
X1291Y5850D01*
G37*
G36*
X1153Y5779D02*
X1290Y5650D01*
X1291Y5850D01*
X1153Y5779D01*
G37*
G36*
X1153Y5779D02*
X1153Y5720D01*
X1290Y5650D01*
X1153Y5779D01*
G37*
G36*
X1000Y5755D02*
X1153Y5720D01*
X1153Y5779D01*
X1000Y5755D01*
G37*
G36*
X1000Y5755D02*
X1000Y5744D01*
X1153Y5720D01*
X1000Y5755D01*
G37*
G36*
X847Y5720D02*
X1000Y5744D01*
X1000Y5755D01*
X847Y5720D01*
G37*
G36*
X847Y5779D02*
X847Y5720D01*
X1000Y5755D01*
X847Y5779D01*
G37*
G36*
X847Y5779D02*
X710Y5650D01*
X847Y5720D01*
X847Y5779D01*
G37*
G36*
X709Y5850D02*
X710Y5650D01*
X847Y5779D01*
X709Y5850D01*
G37*
G36*
X709Y5850D02*
X600Y5540D01*
X710Y5650D01*
X709Y5850D01*
G37*
G36*
X600Y5959D02*
X600Y5540D01*
X709Y5850D01*
X600Y5959D01*
G37*
G36*
X600Y5959D02*
X530Y5403D01*
X600Y5540D01*
X600Y5959D01*
G37*
G36*
X529Y6097D02*
X530Y5403D01*
X600Y5959D01*
X529Y6097D01*
G37*
G36*
X530Y5403D02*
X529Y6097D01*
X262Y6762D01*
X530Y5403D01*
G37*
G36*
X529Y6097D02*
X505Y6250D01*
X262Y6762D01*
X529Y6097D01*
G37*
G36*
X262Y6762D02*
X505Y6250D01*
X529Y6403D01*
X262Y6762D01*
G37*
G36*
X262Y6762D02*
X529Y6403D01*
X560Y6464D01*
X262Y6762D01*
G37*
G36*
X530Y5403D02*
X262Y6762D01*
X506Y5250D01*
X530Y5403D01*
G37*
G36*
X2100Y5040D02*
X1494Y5250D01*
X1470Y5097D01*
X2100Y5040D01*
G37*
G36*
X2100Y5040D02*
X1470Y5097D01*
X2030Y4903D01*
X2100Y5040D01*
G37*
G36*
X1470Y5097D02*
X1400Y4960D01*
X2030Y4903D01*
X1470Y5097D01*
G37*
G36*
X1400Y4960D02*
X2006Y4750D01*
X2030Y4903D01*
X1400Y4960D01*
G37*
G36*
X15750Y9494D02*
X18000Y10091D01*
X13000Y10091D01*
X15750Y9494D01*
G37*
G36*
X15903Y9470D02*
X18000Y10091D01*
X15750Y9494D01*
X15903Y9470D01*
G37*
G36*
X16460Y8600D02*
X16350Y8710D01*
X16217Y8316D01*
X16460Y8600D01*
G37*
G36*
X16541Y8337D02*
X16460Y8600D01*
X16217Y8316D01*
X16541Y8337D01*
G37*
G36*
X16217Y8316D02*
X16413Y8209D01*
X16541Y8337D01*
X16217Y8316D01*
G37*
G36*
X16217Y8316D02*
X16217Y8209D01*
X16413Y8209D01*
X16217Y8316D01*
G37*
G36*
X16541Y8337D02*
X16541Y8559D01*
X16460Y8600D01*
X16541Y8337D01*
G37*
G36*
X17150Y9290D02*
X17250Y9209D01*
X17304Y9202D01*
X17150Y9290D01*
G37*
G36*
X17150Y9290D02*
X17191Y9209D01*
X17250Y9209D01*
X17150Y9290D01*
G37*
G36*
X19506Y9006D02*
X17681Y8854D01*
X17702Y8804D01*
X19506Y9006D01*
G37*
G36*
X19506Y9006D02*
X17702Y8804D01*
X17709Y8750D01*
X19506Y9006D01*
G37*
G36*
X17900Y8290D02*
X19506Y9006D01*
X17709Y8750D01*
X17900Y8290D01*
G37*
G36*
X17709Y8750D02*
X17790Y8400D01*
X17900Y8290D01*
X17709Y8750D01*
G37*
G36*
X17709Y8750D02*
X17709Y8441D01*
X17790Y8400D01*
X17709Y8750D01*
G37*
%LNSTD*%
%LPD*%
G54D11*
X16250Y16750D03*
G54D14*
X16250Y17750D03*
G54D20*
X15000Y21000D03*
G54D23*
X17000Y21000D03*
G54D20*
X4500Y22000D03*
X5500Y22000D03*
X6500Y22000D03*
X7500Y22000D03*
G54D26*
X14000Y4413D03*
X14000Y2051D03*
X15870Y3232D03*
G54D20*
X14250Y17000D03*
X14250Y20000D03*
G54D30*
X1500Y20500D03*
X2500Y20500D03*
X3500Y20500D03*
X4500Y20500D03*
X5500Y20500D03*
X6500Y20500D03*
X7500Y20500D03*
X8500Y20500D03*
X9500Y20500D03*
X10500Y20500D03*
X11500Y20500D03*
X12500Y20500D03*
X12500Y14500D03*
X11500Y14500D03*
X10500Y14500D03*
X9500Y14500D03*
X8500Y14500D03*
X7500Y14500D03*
X6500Y14500D03*
X5500Y14500D03*
X4500Y14500D03*
X3500Y14500D03*
X2500Y14500D03*
X1500Y14500D03*
G54D20*
X16750Y9000D03*
X15750Y9000D03*
X14750Y9000D03*
G54D36*
X15850Y13300D03*
G54D20*
X1000Y7250D03*
X1000Y6250D03*
X1000Y5250D03*
X1000Y4250D03*
X20000Y10500D03*
G54D23*
X20000Y9500D03*
G54D20*
X20000Y8500D03*
X20000Y7500D03*
X20000Y6500D03*
X20000Y5500D03*
X20000Y16000D03*
X20000Y17000D03*
G54D23*
X20000Y18000D03*
G54D20*
X19000Y16000D03*
X19000Y17000D03*
G54D23*
X19000Y18000D03*
G54D20*
X20000Y12000D03*
X20000Y13000D03*
G54D23*
X20000Y14000D03*
G54D20*
X19000Y12000D03*
X19000Y13000D03*
G54D23*
X19000Y14000D03*
G54D20*
X17750Y1250D03*
X19750Y1250D03*
X17750Y3250D03*
X19750Y3250D03*
X17500Y8000D03*
X17500Y5000D03*
X16000Y7000D03*
X13000Y7000D03*
X20000Y20000D03*
X20000Y21000D03*
X19000Y20000D03*
X19000Y21000D03*
X12500Y22000D03*
X13500Y22000D03*
X2500Y10750D03*
X2500Y9750D03*
X2500Y8750D03*
X2500Y7750D03*
X2500Y6750D03*
X2500Y5750D03*
X2500Y4750D03*
X2500Y3750D03*
X11500Y3750D03*
X11500Y4750D03*
X11500Y5750D03*
X11500Y6750D03*
X11500Y7750D03*
X11500Y8750D03*
X11500Y9750D03*
X11500Y10750D03*
G54D17*
X18500Y20375D02*
X18500Y20495D01*
X19875Y20000D02*
X19755Y20000D01*
X18500Y19625D02*
X18500Y19505D01*
X18875Y20000D02*
X18995Y20000D01*
X19500Y20375D02*
X19500Y20495D01*
X19125Y20000D02*
X19005Y20000D01*
X19500Y19625D02*
X19500Y19505D01*
X19875Y20000D02*
X19995Y20000D01*
X19500Y16375D02*
X19500Y16495D01*
X19125Y16000D02*
X19005Y16000D01*
X19500Y15625D02*
X19500Y15505D01*
X19875Y16000D02*
X19995Y16000D01*
X18500Y16375D02*
X18500Y16495D01*
X19875Y16000D02*
X19755Y16000D01*
X18500Y15625D02*
X18500Y15505D01*
X18875Y16000D02*
X18995Y16000D01*
X19500Y12375D02*
X19500Y12495D01*
X19125Y12000D02*
X19005Y12000D01*
X25250Y11625D02*
X25250Y11505D01*
X19875Y12000D02*
X19995Y12000D01*
X18500Y12375D02*
X18500Y12495D01*
X18125Y12000D02*
X18005Y12000D01*
X18875Y12000D02*
X18995Y12000D01*
G54D38*
X18347Y20529D02*
X18209Y20600D01*
X18100Y20709D01*
X18029Y20847D01*
X18005Y21000D01*
X18029Y21153D01*
X18100Y21291D01*
X18209Y21400D01*
X18347Y21471D01*
X18500Y21495D01*
X18653Y21471D01*
X18791Y21400D01*
X18900Y21291D01*
X18971Y21153D01*
X18995Y21000D01*
X18971Y20847D01*
X18900Y20709D01*
X18791Y20600D01*
X18653Y20529D01*
X18500Y20505D01*
X18347Y20529D01*
X19347Y19529D02*
X19209Y19600D01*
X19100Y19709D01*
X19029Y19847D01*
X19005Y20000D01*
X19029Y20153D01*
X19100Y20291D01*
X19209Y20400D01*
X19347Y20471D01*
X19500Y20495D01*
X19653Y20471D01*
X19791Y20400D01*
X19900Y20291D01*
X19971Y20153D01*
X19995Y20000D01*
X19971Y19847D01*
X19900Y19709D01*
X19791Y19600D01*
X19653Y19529D01*
X19500Y19505D01*
X19347Y19529D01*
X18347Y19529D02*
X18209Y19600D01*
X18100Y19709D01*
X18029Y19847D01*
X18005Y20000D01*
X18029Y20153D01*
X18100Y20291D01*
X18209Y20400D01*
X18347Y20471D01*
X18500Y20495D01*
X18653Y20471D01*
X18791Y20400D01*
X18900Y20291D01*
X18971Y20153D01*
X18995Y20000D01*
X18971Y19847D01*
X18900Y19709D01*
X18791Y19600D01*
X18653Y19529D01*
X18500Y19505D01*
X18347Y19529D01*
X19005Y17505D02*
X19005Y18495D01*
X19995Y18495D01*
X19995Y17505D01*
X19005Y17505D01*
X19347Y15529D02*
X19209Y15600D01*
X19100Y15709D01*
X19029Y15847D01*
X19005Y16000D01*
X19029Y16153D01*
X19100Y16291D01*
X19209Y16400D01*
X19347Y16471D01*
X19500Y16495D01*
X19653Y16471D01*
X19791Y16400D01*
X19900Y16291D01*
X19971Y16153D01*
X19995Y16000D01*
X19971Y15847D01*
X19900Y15709D01*
X19791Y15600D01*
X19653Y15529D01*
X19500Y15505D01*
X19347Y15529D01*
X18347Y15529D02*
X18209Y15600D01*
X18100Y15709D01*
X18029Y15847D01*
X18005Y16000D01*
X18029Y16153D01*
X18100Y16291D01*
X18209Y16400D01*
X18347Y16471D01*
X18500Y16495D01*
X18653Y16471D01*
X18791Y16400D01*
X18900Y16291D01*
X18971Y16153D01*
X18995Y16000D01*
X18971Y15847D01*
X18900Y15709D01*
X18791Y15600D01*
X18653Y15529D01*
X18500Y15505D01*
X18347Y15529D01*
X19005Y13505D02*
X19005Y14495D01*
X19995Y14495D01*
X19995Y13505D01*
X19005Y13505D01*
X18005Y13505D02*
X18005Y14495D01*
X18995Y14495D01*
X18995Y13505D01*
X18005Y13505D01*
X19347Y12529D02*
X19209Y12600D01*
X19100Y12709D01*
X19029Y12847D01*
X19005Y13000D01*
X19029Y13153D01*
X19100Y13291D01*
X19209Y13400D01*
X19347Y13471D01*
X19500Y13495D01*
X19653Y13471D01*
X19791Y13400D01*
X19900Y13291D01*
X19971Y13153D01*
X19995Y13000D01*
X19971Y12847D01*
X19900Y12709D01*
X19791Y12600D01*
X19653Y12529D01*
X19500Y12505D01*
X19347Y12529D01*
X25097Y11529D02*
X24959Y11600D01*
X24850Y11709D01*
X24779Y11847D01*
X24755Y12000D01*
X24779Y12153D01*
X24850Y12291D01*
X24959Y12400D01*
X25097Y12471D01*
X25250Y12495D01*
X25403Y12471D01*
X25541Y12400D01*
X25650Y12291D01*
X25721Y12153D01*
X25745Y12000D01*
X25721Y11847D01*
X25650Y11709D01*
X25541Y11600D01*
X25403Y11529D01*
X25250Y11505D01*
X25097Y11529D01*
G54D39*
X13250Y8750D03*
X17250Y22500D03*
G54D41*
X1000Y13250D03*
X1250Y13250D03*
G54D43*
X1000Y22250D03*
G54D41*
X15750Y8000D03*
X16000Y8000D03*
X9500Y22125D03*
X9750Y22125D03*
X10000Y22125D03*
G54D47*
X4500Y23000D03*
X5500Y23000D03*
X6500Y23000D03*
X7500Y23000D03*
G54D18*
X2000Y13750D02*
X1250Y13750D01*
G54D50*
X2000Y13750D03*
G54D18*
X1250Y13750D02*
X1000Y13500D01*
X1000Y13250D01*
X1000Y22250D02*
X2000Y22250D01*
G54D50*
X2000Y22250D03*
G54D18*
X15750Y8000D02*
X15000Y8000D01*
X14750Y8250D01*
X14750Y9000D01*
X10000Y22125D02*
X10000Y21375D01*
G54D50*
X10000Y21375D03*
G54D18*
X5500Y23000D02*
X5500Y22000D01*
X6500Y20500D02*
X4750Y18750D01*
X2750Y18750D01*
X1250Y17250D01*
X1250Y15750D01*
X750Y15250D01*
X750Y12000D01*
X1250Y11500D01*
X1250Y8500D01*
X1000Y8250D01*
X1000Y7250D01*
X6500Y23000D02*
X6500Y22000D01*
X7500Y22000D02*
X6750Y21250D01*
X6250Y21250D01*
X5500Y20500D01*
X1000Y6250D02*
X375Y6875D01*
X375Y8000D01*
X500Y8125D01*
X500Y17750D01*
X2000Y19250D01*
X4250Y19250D01*
X5500Y20500D01*
X7500Y23000D02*
X7500Y22000D01*
X14250Y17000D02*
X15000Y17750D01*
X16250Y17750D01*
X9750Y22125D02*
X9750Y22625D01*
X9875Y22750D01*
X14125Y22750D01*
X14250Y22625D01*
X14250Y22000D01*
G54D50*
X14250Y22000D03*
G54D51*
X17500Y8000D02*
X17500Y8750D01*
X17250Y9000D01*
X16750Y9000D01*
X14000Y4413D02*
X15000Y5500D01*
X16500Y5500D01*
X17500Y6500D01*
X17500Y8000D01*
X17750Y3250D02*
X16250Y4750D01*
X16250Y5500D01*
X16750Y9000D02*
X16750Y8250D01*
X16500Y8000D01*
X16000Y8000D01*
X16000Y8000D01*
G54D18*
X12500Y20500D02*
X13250Y20500D01*
X13500Y20750D01*
X14250Y20750D01*
X15000Y20000D01*
X16000Y20000D01*
X16250Y20250D01*
X17750Y20250D01*
X18000Y20500D01*
X18000Y21500D01*
X18250Y21750D01*
X19750Y21750D01*
X20000Y21500D01*
X20000Y21000D01*
X8500Y20500D02*
X10000Y19000D01*
X13500Y19000D01*
X13750Y19250D01*
X15500Y19250D01*
X16000Y18750D01*
X17750Y18750D01*
X18000Y18500D01*
X18000Y18000D01*
X19000Y17000D01*
X7500Y20500D02*
X9500Y18500D01*
X17250Y18500D01*
X17500Y18250D01*
X17500Y17500D01*
X18375Y16625D01*
X18375Y15625D01*
X18750Y15250D01*
X20250Y15250D01*
X20625Y15625D01*
X20625Y16375D01*
X20000Y17000D01*
X6500Y14500D02*
X9250Y17250D01*
X12000Y17250D01*
X12750Y18000D01*
X12750Y18000D01*
G54D50*
X12750Y18000D03*
G54D18*
X10500Y20500D02*
X11250Y21250D01*
X14250Y21250D01*
X14750Y21750D01*
X16250Y21750D01*
X17000Y21000D01*
X5500Y14500D02*
X7750Y12250D01*
X11000Y12250D01*
X13000Y10250D01*
X18000Y10250D01*
X18250Y10500D01*
X18250Y12250D01*
X19000Y13000D01*
X7500Y14500D02*
X8375Y15375D01*
X12750Y15375D01*
X13500Y16125D01*
X17875Y16125D01*
X18125Y15875D01*
X18125Y15250D01*
X18500Y14875D01*
X20250Y14875D01*
X20625Y14500D01*
X20625Y13250D01*
X20375Y13000D01*
X20000Y13000D01*
X1250Y13250D02*
X4250Y13250D01*
X4500Y13500D01*
X4500Y14500D01*
X9500Y20500D02*
X9500Y22125D01*
X9500Y22125D01*
%LNERASE*%
%LPC*%
G54D12*
X16250Y16750D03*
G54D15*
X16250Y17750D03*
G54D21*
X15000Y21000D03*
X17000Y21000D03*
X4500Y22000D03*
X5500Y22000D03*
X6500Y22000D03*
X7500Y22000D03*
G54D27*
X14000Y4413D03*
G54D29*
X14000Y2051D03*
X15870Y3232D03*
G54D21*
X14250Y17000D03*
X14250Y20000D03*
X1500Y20500D03*
X2500Y20500D03*
X3500Y20500D03*
X4500Y20500D03*
X5500Y20500D03*
X6500Y20500D03*
X7500Y20500D03*
X8500Y20500D03*
X9500Y20500D03*
X10500Y20500D03*
X11500Y20500D03*
X12500Y20500D03*
X12500Y14500D03*
X11500Y14500D03*
X10500Y14500D03*
X9500Y14500D03*
X8500Y14500D03*
X7500Y14500D03*
X6500Y14500D03*
X5500Y14500D03*
X4500Y14500D03*
X3500Y14500D03*
X2500Y14500D03*
X1500Y14500D03*
X16750Y9000D03*
X15750Y9000D03*
X14750Y9000D03*
X1000Y7250D03*
X1000Y6250D03*
X1000Y5250D03*
X1000Y4250D03*
X20000Y10500D03*
X20000Y9500D03*
X20000Y8500D03*
X20000Y7500D03*
X20000Y6500D03*
X20000Y5500D03*
X20000Y16000D03*
X20000Y17000D03*
X20000Y18000D03*
X19000Y16000D03*
X19000Y17000D03*
X19000Y18000D03*
X20000Y12000D03*
X20000Y13000D03*
X20000Y14000D03*
X19000Y12000D03*
X19000Y13000D03*
X19000Y14000D03*
X17750Y1250D03*
X19750Y1250D03*
X17750Y3250D03*
X19750Y3250D03*
X17500Y8000D03*
X17500Y5000D03*
X16000Y7000D03*
X13000Y7000D03*
X20000Y20000D03*
X20000Y21000D03*
X19000Y20000D03*
X19000Y21000D03*
X12500Y22000D03*
X13500Y22000D03*
X2500Y10750D03*
X2500Y9750D03*
X2500Y8750D03*
X2500Y7750D03*
X2500Y6750D03*
X2500Y5750D03*
X2500Y4750D03*
X2500Y3750D03*
X11500Y3750D03*
X11500Y4750D03*
X11500Y5750D03*
X11500Y6750D03*
X11500Y7750D03*
X11500Y8750D03*
X11500Y9750D03*
X11500Y10750D03*
G54D39*
X13250Y8750D03*
X17250Y22500D03*
%LNSTD*%
%LPD*%
G54D17*
X4750Y23000D02*
X4870Y23000D01*
X4250Y23000D02*
X4130Y23000D01*
X4500Y22700D02*
X4500Y22580D01*
X4875Y22000D02*
X4995Y22000D01*
X4500Y22375D02*
X4500Y22495D01*
X4125Y22000D02*
X4005Y22000D01*
X4500Y21625D02*
X4500Y21505D01*
X3500Y20130D02*
X3500Y20010D01*
X3130Y20500D02*
X3010Y20500D01*
X3500Y20870D02*
X3500Y20990D01*
X3870Y20500D02*
X3990Y20500D01*
X4500Y20130D02*
X4500Y20010D01*
X4130Y20500D02*
X4010Y20500D01*
X4500Y20870D02*
X4500Y20990D01*
X4870Y20500D02*
X4990Y20500D01*
X19000Y20375D02*
X19000Y20495D01*
X18625Y20000D02*
X18505Y20000D01*
X19000Y19625D02*
X19000Y19505D01*
X19375Y20000D02*
X19495Y20000D01*
X20000Y20375D02*
X20000Y20495D01*
X19625Y20000D02*
X19505Y20000D01*
X20000Y19625D02*
X20000Y19505D01*
X20375Y20000D02*
X20495Y20000D01*
X12875Y22000D02*
X12995Y22000D01*
X12500Y22375D02*
X12500Y22495D01*
X12125Y22000D02*
X12005Y22000D01*
X12500Y21625D02*
X12500Y21505D01*
X15375Y21000D02*
X15495Y21000D01*
X15000Y20625D02*
X15000Y20505D01*
X14625Y21000D02*
X14505Y21000D01*
X15000Y21375D02*
X15000Y21495D01*
X20000Y16375D02*
X20000Y16495D01*
X19625Y16000D02*
X19505Y16000D01*
X20000Y15625D02*
X20000Y15505D01*
X19000Y16375D02*
X19000Y16495D01*
X19000Y15625D02*
X19000Y15505D01*
X19375Y16000D02*
X19495Y16000D01*
X16250Y17025D02*
X16250Y17145D01*
X15975Y16750D02*
X15855Y16750D01*
X16250Y16475D02*
X16250Y16355D01*
X16525Y16750D02*
X16645Y16750D01*
X2500Y14130D02*
X2500Y14010D01*
X2130Y14500D02*
X2010Y14500D01*
X2500Y14870D02*
X2500Y14990D01*
X2870Y14500D02*
X2990Y14500D01*
X1375Y4250D02*
X1495Y4250D01*
X1000Y4625D02*
X1000Y4745D01*
X625Y4250D02*
X505Y4250D01*
X1000Y3875D02*
X1000Y3755D01*
X2125Y4750D02*
X2005Y4750D01*
X2500Y5125D02*
X2500Y5245D01*
X2875Y4750D02*
X2995Y4750D01*
X2500Y4375D02*
X2500Y4255D01*
X20000Y10125D02*
X20000Y10005D01*
X19625Y10500D02*
X19505Y10500D01*
X20000Y10875D02*
X20000Y10995D01*
X20375Y10500D02*
X20495Y10500D01*
X12625Y7000D02*
X12505Y7000D01*
X13000Y6625D02*
X13000Y6505D01*
X13375Y7000D02*
X13495Y7000D01*
X13000Y7375D02*
X13000Y7495D01*
X14984Y2051D02*
X15104Y2051D01*
X14000Y3035D02*
X14000Y3155D01*
X13016Y2051D02*
X12896Y2051D01*
X14000Y1067D02*
X14000Y947D01*
X20125Y3250D02*
X20245Y3250D01*
X19750Y3625D02*
X19750Y3745D01*
X19375Y3250D02*
X19255Y3250D01*
X19750Y2875D02*
X19750Y2755D01*
X17500Y4625D02*
X17500Y4505D01*
X17875Y5000D02*
X17995Y5000D01*
X17500Y5375D02*
X17500Y5495D01*
X17125Y5000D02*
X17005Y5000D01*
X20125Y1250D02*
X20245Y1250D01*
X19750Y1625D02*
X19750Y1745D01*
X19375Y1250D02*
X19255Y1250D01*
X19750Y875D02*
X19750Y755D01*
X15375Y9000D02*
X15255Y9000D01*
X15750Y9375D02*
X15750Y9495D01*
X16125Y9000D02*
X16245Y9000D01*
X15750Y8625D02*
X15750Y8505D01*
X20000Y12375D02*
X20000Y12495D01*
X19625Y12000D02*
X19505Y12000D01*
X20000Y11625D02*
X20000Y11505D01*
X20375Y12000D02*
X20495Y12000D01*
X19000Y12375D02*
X19000Y12495D01*
X18625Y12000D02*
X18505Y12000D01*
X19000Y11625D02*
X19000Y11505D01*
X19375Y12000D02*
X19495Y12000D01*
M02*
