G04 -- Generated By PCBWeb Designer*
%FSLAX24Y24*%
%MOIN*%
%OFA0B0*%
%SFA1.0B1.0*%
%AMROTRECT*21,1,$1,$2,0,0,$3*%
%AMROTOBLONG*1,1,$7,$1,$2*1,1,$7,$3,$4*21,1,$5,$6,0,0,$8*%
%ADD10C,0.025*%
%ADD11R,0.055X0.055*%
%ADD12C,0.033*%
%ADD13R,0.065X0.065*%
%ADD14C,0.055*%
%ADD15C,0.033*%
%ADD16C,0.065*%
%ADD17C,0.01*%
%ADD18C,0.008*%
%ADD19C,0.024*%
%ADD20R,0.0532X0.0532*%
%ADD21C,0.0315*%
%ADD22R,0.0632X0.0632*%
%ADD23C,0.0532*%
%ADD24C,0.0632*%
%ADD25C,0.075*%
%ADD26C,0.04*%
%ADD27C,0.085*%
%ADD28R,0.075X0.075*%
%ADD29R,0.085X0.085*%
%ADD30C,0.026*%
%ADD31C,0.074*%
%ADD32C,0.084*%
%ADD33C,0.0048*%
%ADD34C,0.0208*%
%ADD35C,0.175*%
%ADD36C,0.185*%
%ADD37C,0.1969*%
%ADD38C,0.1378*%
%ADD39C,0.2069*%
%ADD40C,0.126*%
%ADD41R,0.02X0.04*%
%ADD42R,0.03X0.05*%
%ADD43C,0.001*%
%ADD44C,0.0*%
%ADD45C,0.0275*%
G01*
%LNSTD*%
%LPD*%
G54D13*
X14300Y14800D03*
G54D16*
X15300Y14800D03*
G54D13*
X18400Y14800D03*
G54D16*
X19400Y14800D03*
G54D22*
X4000Y26750D03*
G54D24*
X5000Y26750D03*
X6000Y26750D03*
G54D22*
X4000Y25750D03*
G54D24*
X5000Y25750D03*
X6000Y25750D03*
G54D27*
X22900Y3400D03*
G54D29*
X20900Y3400D03*
G54D22*
X1000Y25750D03*
G54D24*
X2000Y25750D03*
X3000Y25750D03*
G54D27*
X9500Y25750D03*
X7500Y25750D03*
X21100Y14700D03*
X23100Y14700D03*
G54D22*
X1000Y26750D03*
G54D24*
X2000Y26750D03*
X3000Y26750D03*
G54D27*
X9500Y26750D03*
X7500Y26750D03*
X750Y7250D03*
X750Y6250D03*
X750Y5250D03*
X750Y4250D03*
G54D32*
X1200Y15500D03*
X2200Y15500D03*
X3200Y15500D03*
X4200Y15500D03*
X5200Y15500D03*
X6200Y15500D03*
X7200Y15500D03*
X8200Y15500D03*
X9200Y15500D03*
X10200Y15500D03*
X11200Y15500D03*
X12200Y15500D03*
X12200Y21500D03*
X11200Y21500D03*
X10200Y21500D03*
X9200Y21500D03*
X8200Y21500D03*
X7200Y21500D03*
X6200Y21500D03*
X5200Y21500D03*
X4200Y21500D03*
X3200Y21500D03*
X2200Y21500D03*
X1200Y21500D03*
G54D27*
X17200Y26100D03*
X18200Y26100D03*
X19200Y26100D03*
X20200Y26100D03*
G54D36*
X11700Y10500D03*
X11700Y8200D03*
X23300Y8200D03*
X23300Y10500D03*
G54D27*
X19000Y24000D03*
X18000Y24000D03*
X17000Y24000D03*
X16000Y24000D03*
X15000Y24000D03*
X14000Y24000D03*
X13000Y24000D03*
X12000Y24000D03*
X11000Y24000D03*
X10000Y24000D03*
X9000Y24000D03*
X8000Y24000D03*
X7000Y24000D03*
X6000Y24000D03*
X5000Y24000D03*
G54D29*
X5000Y13000D03*
G54D27*
X6000Y13000D03*
X7000Y13000D03*
X8000Y13000D03*
X9000Y13000D03*
X10000Y13000D03*
X11000Y13000D03*
X12000Y13000D03*
X13000Y13000D03*
X14000Y13000D03*
X15000Y13000D03*
X16000Y13000D03*
X17000Y13000D03*
X18000Y13000D03*
X19000Y13000D03*
G54D39*
X12500Y5213D03*
X12500Y2851D03*
X14370Y4032D03*
G54D42*
X16400Y6000D03*
X16700Y6000D03*
G54D27*
X16400Y800D03*
X17400Y800D03*
X18400Y800D03*
X11500Y700D03*
X13500Y700D03*
X8100Y10800D03*
X9100Y10800D03*
X7100Y10800D03*
X6100Y10800D03*
X5100Y10800D03*
X4100Y10800D03*
X16900Y14800D03*
X16900Y17800D03*
M02*
