G04 -- Generated By PCBWeb Designer*
%FSLAX24Y24*%
%MOIN*%
%OFA0B0*%
%SFA1.0B1.0*%
%AMROTRECT*21,1,$1,$2,0,0,$3*%
%AMROTOBLONG*1,1,$7,$1,$2*1,1,$7,$3,$4*21,1,$5,$6,0,0,$8*%
%ADD10C,0.025*%
%ADD11R,0.055X0.055*%
%ADD12C,0.033*%
%ADD13R,0.065X0.065*%
%ADD14C,0.055*%
%ADD15C,0.033*%
%ADD16C,0.065*%
%ADD17C,0.01*%
%ADD18C,0.008*%
%ADD19C,0.024*%
%ADD20C,0.075*%
%ADD21C,0.04*%
%ADD22C,0.085*%
%ADD23R,0.075X0.075*%
%ADD24R,0.085X0.085*%
%ADD25C,0.026*%
%ADD26C,0.1969*%
%ADD27C,0.1378*%
%ADD28C,0.2069*%
%ADD29C,0.126*%
%ADD30C,0.074*%
%ADD31C,0.084*%
%ADD32C,0.0048*%
%ADD33C,0.0208*%
%ADD34C,0.005*%
%ADD35C,0.021*%
%ADD36R,0.4X0.5*%
%ADD37R,0.41X0.51*%
%ADD38C,0.001*%
%ADD39C,0.1221*%
%ADD40C,0.1321*%
%ADD41R,0.0197X0.0394*%
%ADD42R,0.0297X0.0494*%
%ADD43R,0.0591X0.0591*%
%ADD44R,0.0691X0.0691*%
%ADD45R,0.05X0.05*%
%ADD46R,0.06X0.06*%
%ADD47R,0.05X0.06*%
%ADD48R,0.06X0.07*%
%ADD49C,0.0*%
%ADD50C,0.0275*%
%ADD51C,0.018*%
G01*
%LNSTD*%
%LPD*%
G54D13*
X16250Y16750D03*
G54D16*
X16250Y17750D03*
G54D22*
X15000Y21000D03*
G54D24*
X17000Y21000D03*
G54D22*
X4500Y22000D03*
X5500Y22000D03*
X6500Y22000D03*
X7500Y22000D03*
G54D28*
X14000Y4413D03*
X14000Y2051D03*
X15870Y3232D03*
G54D22*
X14250Y17000D03*
X14250Y20000D03*
G54D31*
X1500Y20500D03*
X2500Y20500D03*
X3500Y20500D03*
X4500Y20500D03*
X5500Y20500D03*
X6500Y20500D03*
X7500Y20500D03*
X8500Y20500D03*
X9500Y20500D03*
X10500Y20500D03*
X11500Y20500D03*
X12500Y20500D03*
X12500Y14500D03*
X11500Y14500D03*
X10500Y14500D03*
X9500Y14500D03*
X8500Y14500D03*
X7500Y14500D03*
X6500Y14500D03*
X5500Y14500D03*
X4500Y14500D03*
X3500Y14500D03*
X2500Y14500D03*
X1500Y14500D03*
G54D22*
X16750Y9000D03*
X15750Y9000D03*
X14750Y9000D03*
G54D37*
X15850Y13300D03*
G54D22*
X1000Y7250D03*
X1000Y6250D03*
X1000Y5250D03*
X1000Y4250D03*
X20000Y10500D03*
G54D24*
X20000Y9500D03*
G54D22*
X20000Y8500D03*
X20000Y7500D03*
X20000Y6500D03*
X20000Y5500D03*
X20000Y16000D03*
X20000Y17000D03*
G54D24*
X20000Y18000D03*
G54D22*
X19000Y16000D03*
X19000Y17000D03*
G54D24*
X19000Y18000D03*
G54D22*
X20000Y12000D03*
X20000Y13000D03*
G54D24*
X20000Y14000D03*
G54D22*
X19000Y12000D03*
X19000Y13000D03*
G54D24*
X19000Y14000D03*
G54D22*
X17750Y1250D03*
X19750Y1250D03*
X17750Y3250D03*
X19750Y3250D03*
X17500Y8000D03*
X17500Y5000D03*
X16000Y7000D03*
X13000Y7000D03*
X20000Y20000D03*
X20000Y21000D03*
X19000Y20000D03*
X19000Y21000D03*
X12500Y22000D03*
X13500Y22000D03*
X2500Y10750D03*
X2500Y9750D03*
X2500Y8750D03*
X2500Y7750D03*
X2500Y6750D03*
X2500Y5750D03*
X2500Y4750D03*
X2500Y3750D03*
X11500Y3750D03*
X11500Y4750D03*
X11500Y5750D03*
X11500Y6750D03*
X11500Y7750D03*
X11500Y8750D03*
X11500Y9750D03*
X11500Y10750D03*
G54D40*
X13250Y8750D03*
X17250Y22500D03*
G54D42*
X1000Y13250D03*
X1250Y13250D03*
G54D44*
X1000Y22250D03*
G54D42*
X15750Y8000D03*
X16000Y8000D03*
X9500Y22125D03*
X9750Y22125D03*
X10000Y22125D03*
G54D48*
X4500Y23000D03*
X5500Y23000D03*
X6500Y23000D03*
X7500Y23000D03*
M02*
