G04 -- Generated By PCBWeb Designer*
%FSLAX24Y24*%
%MOIN*%
%OFA0B0*%
%SFA1.0B1.0*%
%AMROTRECT*21,1,$1,$2,0,0,$3*%
%AMROTOBLONG*1,1,$7,$1,$2*1,1,$7,$3,$4*21,1,$5,$6,0,0,$8*%
%ADD10C,0.025*%
%ADD11R,0.055X0.055*%
%ADD12C,0.033*%
%ADD13R,0.065X0.065*%
%ADD14C,0.055*%
%ADD15C,0.033*%
%ADD16C,0.065*%
%ADD17C,0.01*%
%ADD18C,0.008*%
%ADD19C,0.024*%
%ADD20R,0.0532X0.0532*%
%ADD21C,0.0315*%
%ADD22R,0.0632X0.0632*%
%ADD23C,0.0532*%
%ADD24C,0.0632*%
%ADD25C,0.075*%
%ADD26C,0.04*%
%ADD27C,0.085*%
%ADD28R,0.075X0.075*%
%ADD29R,0.085X0.085*%
%ADD30C,0.026*%
%ADD31C,0.074*%
%ADD32C,0.084*%
%ADD33C,0.0048*%
%ADD34C,0.0208*%
%ADD35C,0.175*%
%ADD36C,0.185*%
%ADD37C,0.1969*%
%ADD38C,0.1378*%
%ADD39C,0.2069*%
%ADD40C,0.126*%
%ADD41R,0.02X0.04*%
%ADD42R,0.03X0.05*%
%ADD43C,0.001*%
%ADD44C,0.0*%
%ADD45C,0.0275*%
G01*
%LNERASE*%
%LPC*%
G54D19*
X13956Y15900D02*
X13956Y15300D01*
X14294Y15300D01*
X14819Y15900D02*
X14444Y15900D01*
X14444Y15300D01*
X14819Y15300D01*
X14444Y15600D02*
X14669Y15600D01*
X14969Y15300D02*
X14969Y15900D01*
X15231Y15900D01*
X15344Y15788D01*
X15344Y15413D01*
X15231Y15300D01*
X14969Y15300D01*
X14969Y15300D01*
X15494Y15300D02*
X15719Y15300D01*
X15606Y15300D02*
X15606Y15900D01*
X15494Y15825D01*
X18712Y15712D02*
X18600Y15825D01*
X18412Y15825D01*
X18300Y15712D01*
X18300Y15338D01*
X18412Y15225D01*
X18600Y15225D01*
X18712Y15338D01*
X18862Y15225D02*
X19088Y15225D01*
X18975Y15225D02*
X18975Y15825D01*
X18862Y15750D01*
X19238Y15712D02*
X19350Y15825D01*
X19462Y15825D01*
X19575Y15712D01*
X19575Y15562D01*
X19500Y15488D01*
X19312Y15488D01*
X19238Y15412D01*
X19238Y15225D01*
X19575Y15225D01*
G54D30*
X21500Y3350D02*
X21500Y3750D01*
X21700Y3550D02*
X21300Y3550D01*
X22450Y3600D02*
X22150Y3600D01*
X22300Y3300D02*
X22300Y2900D01*
X22125Y2900D01*
X22075Y2950D01*
X22075Y3050D01*
X22125Y3100D01*
X22075Y3150D01*
X22075Y3250D01*
X22125Y3300D01*
X22300Y3300D01*
X22125Y3100D02*
X22300Y3100D01*
X21975Y2900D02*
X21700Y2900D01*
X21975Y3300D01*
X21700Y3300D01*
X21600Y2900D02*
X21325Y2900D01*
X21600Y3300D01*
X21325Y3300D01*
X1600Y7425D02*
X1525Y7500D01*
X1425Y7500D01*
X1350Y7425D01*
X1350Y7350D01*
X1400Y7300D01*
X1550Y7300D01*
X1600Y7250D01*
X1600Y7175D01*
X1525Y7100D01*
X1425Y7100D01*
X1350Y7175D01*
X1975Y7425D02*
X1900Y7500D01*
X1775Y7500D01*
X1700Y7425D01*
X1700Y7175D01*
X1775Y7100D01*
X1900Y7100D01*
X1975Y7175D01*
X2075Y7500D02*
X2075Y7100D01*
X2300Y7100D01*
X1600Y6425D02*
X1525Y6500D01*
X1425Y6500D01*
X1350Y6425D01*
X1350Y6350D01*
X1400Y6300D01*
X1550Y6300D01*
X1600Y6250D01*
X1600Y6175D01*
X1525Y6100D01*
X1425Y6100D01*
X1350Y6175D01*
X1700Y6100D02*
X1700Y6500D01*
X1875Y6500D01*
X1950Y6425D01*
X1950Y6175D01*
X1875Y6100D01*
X1700Y6100D01*
X1700Y6100D01*
X2108Y6250D02*
X2292Y6250D01*
X2050Y6100D02*
X2200Y6500D01*
X2350Y6100D01*
X1350Y5500D02*
X1500Y5100D01*
X1650Y5500D01*
X2025Y5425D02*
X1950Y5500D01*
X1825Y5500D01*
X1750Y5425D01*
X1750Y5175D01*
X1825Y5100D01*
X1950Y5100D01*
X2025Y5175D01*
X2400Y5425D02*
X2325Y5500D01*
X2200Y5500D01*
X2125Y5425D01*
X2125Y5175D01*
X2200Y5100D01*
X2325Y5100D01*
X2400Y5175D01*
X1600Y4450D02*
X1550Y4500D01*
X1400Y4500D01*
X1350Y4450D01*
X1350Y4150D01*
X1400Y4100D01*
X1550Y4100D01*
X1600Y4150D01*
X1600Y4300D01*
X1425Y4300D01*
X1700Y4100D02*
X1700Y4500D01*
X1950Y4100D01*
X1950Y4500D01*
X2050Y4100D02*
X2050Y4500D01*
X2225Y4500D01*
X2300Y4425D01*
X2300Y4175D01*
X2225Y4100D01*
X2050Y4100D01*
X2050Y4100D01*
X3850Y7500D02*
X4150Y7500D01*
X4000Y7500D02*
X4000Y7100D01*
X4269Y7106D02*
X4269Y7412D01*
X4256Y7425D02*
X4269Y7438D01*
X4281Y7425D01*
X4269Y7412D01*
X4256Y7425D01*
X4381Y7325D02*
X4381Y7100D01*
X4381Y7288D02*
X4419Y7325D01*
X4519Y7325D01*
X4556Y7288D01*
X4556Y7100D01*
X4656Y7325D02*
X4744Y7100D01*
X4819Y7325D01*
X4744Y7100D02*
X4719Y7012D01*
X4706Y7000D01*
X4681Y7000D01*
X4919Y7100D02*
X4919Y7500D01*
X5094Y7500D01*
X5169Y7425D01*
X5169Y7350D01*
X5094Y7275D01*
X4919Y7275D01*
X5094Y7275D02*
X5194Y7100D01*
X5294Y7500D02*
X5594Y7500D01*
X5444Y7500D02*
X5444Y7100D01*
X5969Y7425D02*
X5894Y7500D01*
X5769Y7500D01*
X5694Y7425D01*
X5694Y7175D01*
X5769Y7100D01*
X5894Y7100D01*
X5969Y7175D01*
G54D19*
X918Y11274D02*
X918Y10749D01*
X993Y10674D01*
X1256Y10674D01*
X1331Y10749D01*
X1331Y11274D01*
X1481Y11274D02*
X1481Y10936D01*
X1781Y10936D01*
X1706Y11199D02*
X1706Y10674D01*
G54D34*
X11504Y17411D02*
X11470Y17377D01*
X11470Y17331D01*
X11504Y17296D01*
X11539Y17296D01*
X11562Y17319D01*
X11562Y17388D01*
X11585Y17411D01*
X11619Y17411D01*
X11654Y17377D01*
X11654Y17331D01*
X11619Y17296D01*
X11654Y17457D02*
X11470Y17457D01*
X11470Y17526D01*
X11493Y17550D01*
X11539Y17550D01*
X11562Y17526D01*
X11562Y17457D01*
X11585Y17622D02*
X11585Y17707D01*
X11654Y17596D02*
X11470Y17665D01*
X11654Y17734D01*
X11654Y17780D02*
X11470Y17780D01*
X11470Y17861D01*
X11504Y17895D01*
X11539Y17895D01*
X11573Y17861D01*
X11573Y17780D01*
X11573Y17861D02*
X11654Y17907D01*
X11654Y17953D02*
X11470Y17953D01*
X11470Y18033D02*
X11573Y17953D01*
X11654Y18045D01*
X11470Y18206D02*
X11470Y18091D01*
X11654Y18091D01*
X11562Y18091D02*
X11562Y18160D01*
X11470Y18252D02*
X11631Y18252D01*
X11654Y18275D01*
X11654Y18356D01*
X11631Y18379D01*
X11470Y18379D01*
X11654Y18425D02*
X11470Y18425D01*
X11654Y18540D01*
X11470Y18540D01*
X11654Y18586D02*
X11654Y18725D01*
X11654Y18771D02*
X11470Y18771D01*
X11470Y18840D01*
X11493Y18863D01*
X11539Y18863D01*
X11562Y18840D01*
X11562Y18771D01*
X11654Y18909D02*
X11470Y18909D01*
X11470Y18990D01*
X11504Y19024D01*
X11539Y19024D01*
X11573Y18990D01*
X11573Y18909D01*
X11573Y18990D02*
X11654Y19036D01*
X11608Y19082D02*
X11493Y19082D01*
X11470Y19105D01*
X11470Y19185D01*
X11493Y19208D01*
X11631Y19208D01*
X11654Y19185D01*
X11654Y19105D01*
X11631Y19082D01*
X11608Y19082D01*
X11654Y19254D02*
X11654Y19393D01*
X11654Y19439D02*
X11470Y19439D01*
X11596Y19496D01*
X11470Y19554D01*
X11654Y19554D01*
X11654Y19600D02*
X11654Y19669D01*
X11470Y19600D02*
X11470Y19669D01*
X11470Y19635D02*
X11654Y19635D01*
X11504Y19842D02*
X11470Y19807D01*
X11470Y19750D01*
X11504Y19715D01*
X11619Y19715D01*
X11654Y19750D01*
X11654Y19807D01*
X11619Y19842D01*
X11654Y19888D02*
X11470Y19888D01*
X11470Y19969D01*
X11504Y20003D01*
X11539Y20003D01*
X11573Y19969D01*
X11573Y19888D01*
X11573Y19969D02*
X11654Y20015D01*
X11608Y20061D02*
X11493Y20061D01*
X11470Y20084D01*
X11470Y20165D01*
X11493Y20188D01*
X11631Y20188D01*
X11654Y20165D01*
X11654Y20084D01*
X11631Y20061D01*
X11608Y20061D01*
X450Y18100D02*
X800Y18100D01*
X850Y18150D01*
X850Y18325D01*
X800Y18375D01*
X450Y18375D01*
X525Y18725D02*
X450Y18650D01*
X450Y18550D01*
X525Y18475D01*
X600Y18475D01*
X650Y18525D01*
X650Y18675D01*
X700Y18725D01*
X775Y18725D01*
X850Y18650D01*
X850Y18550D01*
X775Y18475D01*
X850Y18825D02*
X450Y18825D01*
X450Y19000D01*
X500Y19050D01*
X600Y19050D01*
X650Y19000D01*
X700Y19050D01*
X800Y19050D01*
X850Y19000D01*
X850Y18825D01*
X650Y19000D02*
X650Y18825D01*
G54D19*
X4250Y18125D02*
X4775Y18125D01*
X4850Y18200D01*
X4850Y18462D01*
X4775Y18538D01*
X4250Y18538D01*
X4250Y18688D02*
X4250Y19025D01*
X4850Y18688D01*
G54D30*
X15400Y20450D02*
X15250Y20600D01*
X15050Y20600D01*
X14900Y20450D01*
X14900Y20300D01*
X15000Y20200D01*
X15300Y20200D01*
X15400Y20100D01*
X15400Y19950D01*
X15250Y19800D01*
X15050Y19800D01*
X14900Y19950D01*
X16100Y20450D02*
X15950Y20600D01*
X15750Y20600D01*
X15600Y20450D01*
X15600Y20300D01*
X15700Y20200D01*
X16000Y20200D01*
X16100Y20100D01*
X16100Y19950D01*
X15950Y19800D01*
X15750Y19800D01*
X15600Y19950D01*
X16300Y19800D02*
X16300Y20600D01*
X16650Y20600D01*
X16800Y20450D01*
X16800Y19950D01*
X16650Y19800D01*
X16300Y19800D01*
X16300Y19800D01*
X17000Y19800D02*
X17300Y19800D01*
X17150Y19800D02*
X17150Y20600D01*
X17000Y20500D01*
X17500Y20500D02*
X17600Y20600D01*
X17850Y20600D01*
X17950Y20500D01*
X17950Y20300D01*
X17850Y20200D01*
X17700Y20200D01*
X17850Y20200D02*
X17950Y20100D01*
X17950Y19900D01*
X17850Y19800D01*
X17600Y19800D01*
X17500Y19900D01*
X18150Y20000D02*
X18200Y19900D01*
X18250Y19850D01*
X18350Y19800D01*
X18550Y19800D01*
X18650Y19850D01*
X18700Y19900D01*
X18750Y20000D01*
X18750Y20400D01*
X18700Y20500D01*
X18650Y20550D01*
X18550Y20600D01*
X18350Y20600D01*
X18250Y20550D01*
X18200Y20500D01*
X18150Y20400D01*
X18150Y20000D01*
X18150Y20000D01*
X18150Y19800D02*
X18750Y20600D01*
X19100Y20600D02*
X18950Y20450D01*
X18950Y19900D01*
X19050Y19800D01*
X19300Y19800D01*
X19400Y19900D01*
X19400Y20100D01*
X19300Y20200D01*
X19050Y20200D01*
X18950Y20100D01*
X19600Y19800D02*
X20200Y19800D01*
X20400Y20000D02*
X20400Y20500D01*
X20500Y20600D01*
X20850Y20600D01*
X20950Y20500D01*
X20950Y19900D01*
X20850Y19800D01*
X20500Y19800D01*
X20400Y19900D01*
X20400Y20000D01*
X21150Y20600D02*
X21150Y19800D01*
X21600Y19800D01*
X22300Y20600D02*
X21800Y20600D01*
X21800Y19800D01*
X22300Y19800D01*
X21800Y20200D02*
X22100Y20200D01*
X22500Y19800D02*
X22500Y20600D01*
X22850Y20600D01*
X23000Y20450D01*
X23000Y19950D01*
X22850Y19800D01*
X22500Y19800D01*
X22500Y19800D01*
X16800Y24300D02*
X16700Y24200D01*
X16700Y23900D01*
X16800Y23800D01*
X17400Y23800D01*
X17500Y23900D01*
X17500Y24200D01*
X17400Y24300D01*
X17100Y24300D01*
X17100Y23950D01*
X17500Y24500D02*
X16700Y24500D01*
X17500Y25000D01*
X16700Y25000D01*
X17500Y25200D02*
X16700Y25200D01*
X16700Y25550D01*
X16850Y25700D01*
X17350Y25700D01*
X17500Y25550D01*
X17500Y25200D01*
X17500Y25200D01*
X17700Y23800D02*
X18500Y24100D01*
X17700Y24400D01*
X17850Y25150D02*
X17700Y25000D01*
X17700Y24750D01*
X17850Y24600D01*
X18350Y24600D01*
X18500Y24750D01*
X18500Y25000D01*
X18350Y25150D01*
X17850Y25900D02*
X17700Y25750D01*
X17700Y25500D01*
X17850Y25350D01*
X18350Y25350D01*
X18500Y25500D01*
X18500Y25750D01*
X18350Y25900D01*
X18850Y24300D02*
X18700Y24150D01*
X18700Y23950D01*
X18850Y23800D01*
X19000Y23800D01*
X19100Y23900D01*
X19100Y24200D01*
X19200Y24300D01*
X19350Y24300D01*
X19500Y24150D01*
X19500Y23950D01*
X19350Y23800D01*
X18850Y25050D02*
X18700Y24900D01*
X18700Y24650D01*
X18850Y24500D01*
X19350Y24500D01*
X19500Y24650D01*
X19500Y24900D01*
X19350Y25050D01*
X18700Y25250D02*
X19500Y25250D01*
X19500Y25700D01*
X19850Y24300D02*
X19700Y24150D01*
X19700Y23950D01*
X19850Y23800D01*
X20000Y23800D01*
X20100Y23900D01*
X20100Y24200D01*
X20200Y24300D01*
X20350Y24300D01*
X20500Y24150D01*
X20500Y23950D01*
X20350Y23800D01*
X20500Y24500D02*
X19700Y24500D01*
X19700Y24850D01*
X19850Y25000D01*
X20350Y25000D01*
X20500Y24850D01*
X20500Y24500D01*
X20500Y24500D01*
X20200Y25315D02*
X20200Y25685D01*
X20500Y25200D02*
X19700Y25500D01*
X20500Y25800D01*
G54D19*
X21525Y26500D02*
X21525Y25975D01*
X21600Y25900D01*
X21862Y25900D01*
X21938Y25975D01*
X21938Y26500D01*
X22088Y25975D02*
X22162Y25900D01*
X22350Y25900D01*
X22425Y25975D01*
X22425Y26125D01*
X22350Y26200D01*
X22162Y26200D01*
X22088Y26125D01*
X22088Y25975D01*
X22088Y25975D01*
X22350Y26200D02*
X22425Y26275D01*
X22425Y26425D01*
X22350Y26500D01*
X22162Y26500D01*
X22088Y26425D01*
X22088Y26275D01*
X22162Y26200D01*
G54D30*
X13144Y8569D02*
X13444Y7769D01*
X13744Y8569D01*
X13944Y8119D02*
X14244Y8119D01*
X13065Y11010D02*
X13365Y10210D01*
X13665Y11010D01*
X14065Y10810D02*
X14065Y10410D01*
X13865Y10610D02*
X14265Y10610D01*
X20939Y7930D02*
X20939Y8430D01*
X21039Y8530D01*
X21389Y8530D01*
X21489Y8430D01*
X21489Y7830D01*
X21389Y7730D01*
X21039Y7730D01*
X20939Y7830D01*
X20939Y7930D01*
X21689Y8080D02*
X21989Y8080D01*
X20979Y10410D02*
X20979Y10910D01*
X21079Y11010D01*
X21429Y11010D01*
X21529Y10910D01*
X21529Y10310D01*
X21429Y10210D01*
X21079Y10210D01*
X20979Y10310D01*
X20979Y10410D01*
X21929Y10810D02*
X21929Y10410D01*
X21729Y10610D02*
X22129Y10610D01*
X14640Y9829D02*
X14640Y9029D01*
X15090Y9029D01*
X15840Y9679D02*
X15690Y9829D01*
X15440Y9829D01*
X15290Y9679D01*
X15290Y9179D01*
X15440Y9029D01*
X15690Y9029D01*
X15840Y9179D01*
X16040Y9379D02*
X16340Y9379D01*
X17040Y9829D02*
X16540Y9829D01*
X16540Y9029D01*
X16540Y9429D02*
X16840Y9429D01*
X17240Y9029D02*
X17540Y9029D01*
X17240Y9829D02*
X17540Y9829D01*
X17390Y9829D02*
X17390Y9029D01*
X17740Y9829D02*
X17740Y9029D01*
X18190Y9029D01*
X18390Y9829D02*
X18990Y9829D01*
X18690Y9829D02*
X18690Y9029D01*
X19690Y9829D02*
X19190Y9829D01*
X19190Y9029D01*
X19690Y9029D01*
X19190Y9429D02*
X19490Y9429D01*
X19890Y9029D02*
X19890Y9829D01*
X20240Y9829D01*
X20390Y9679D01*
X20390Y9529D01*
X20240Y9379D01*
X19890Y9379D01*
X20240Y9379D02*
X20440Y9029D01*
G54D19*
X17256Y11003D02*
X17256Y10478D01*
X17331Y10403D01*
X17593Y10403D01*
X17668Y10478D01*
X17668Y11003D01*
X17818Y10928D02*
X17893Y11003D01*
X18081Y11003D01*
X18156Y10928D01*
X18156Y10778D01*
X18081Y10703D01*
X17968Y10703D01*
X18081Y10703D02*
X18156Y10628D01*
X18156Y10478D01*
X18081Y10403D01*
X17893Y10403D01*
X17818Y10478D01*
X10841Y4348D02*
X10841Y3823D01*
X10916Y3748D01*
X11179Y3748D01*
X11254Y3823D01*
X11254Y4348D01*
X11404Y4235D02*
X11516Y4348D01*
X11629Y4348D01*
X11741Y4235D01*
X11741Y4085D01*
X11666Y4010D01*
X11479Y4010D01*
X11404Y3935D01*
X11404Y3748D01*
X11741Y3748D01*
G54D30*
X11325Y1809D02*
X11042Y1809D01*
X11042Y1561D01*
X11254Y1561D01*
X11325Y1490D01*
X11325Y1313D01*
X11254Y1242D01*
X11042Y1242D01*
X11467Y1490D02*
X11680Y1490D01*
X11821Y1242D02*
X12034Y1242D01*
X11928Y1242D02*
X11928Y1809D01*
X11821Y1738D01*
X12176Y1702D02*
X12282Y1809D01*
X12388Y1809D01*
X12494Y1702D01*
X12494Y1561D01*
X12424Y1490D01*
X12246Y1490D01*
X12176Y1419D01*
X12176Y1242D01*
X12494Y1242D01*
X12636Y1809D02*
X12849Y1242D01*
X13061Y1809D01*
X13345Y1242D02*
X13557Y1242D01*
X13345Y1809D02*
X13557Y1809D01*
X13451Y1809D02*
X13451Y1242D01*
X13699Y1242D02*
X13699Y1809D01*
X14054Y1242D01*
X14054Y1809D01*
X16000Y5000D02*
X16000Y4800D01*
X15900Y4900D02*
X16100Y4900D01*
X16400Y5100D02*
X16200Y5100D01*
X16200Y4925D01*
X16350Y4925D01*
X16400Y4875D01*
X16400Y4750D01*
X16350Y4700D01*
X16200Y4700D01*
X16500Y5100D02*
X16650Y4700D01*
X16800Y5100D01*
X17000Y5100D02*
X17150Y4700D01*
X17300Y5100D01*
X17400Y4700D02*
X17400Y5100D01*
X17575Y5100D01*
X17650Y5025D01*
X17650Y4950D01*
X17575Y4875D01*
X17400Y4875D01*
X17575Y4875D02*
X17675Y4700D01*
X18025Y5100D02*
X17775Y5100D01*
X17775Y4700D01*
X18025Y4700D01*
X17775Y4900D02*
X17925Y4900D01*
X18375Y5050D02*
X18325Y5100D01*
X18175Y5100D01*
X18125Y5050D01*
X18125Y4750D01*
X18175Y4700D01*
X18325Y4700D01*
X18375Y4750D01*
X18375Y4900D01*
X18200Y4900D01*
G54D19*
X15500Y6250D02*
X15550Y6200D01*
X15625Y6200D01*
X15700Y6275D01*
X15700Y6600D01*
X15575Y6600D02*
X15800Y6600D01*
X15900Y6200D02*
X16050Y6200D01*
X15975Y6200D02*
X15975Y6600D01*
X15900Y6550D01*
G54D30*
X12100Y575D02*
X12250Y575D01*
X12750Y700D02*
X12750Y500D01*
X12650Y600D02*
X12850Y600D01*
G54D19*
X650Y24900D02*
X400Y24900D01*
X400Y24500D01*
X400Y24700D02*
X550Y24700D01*
X750Y24900D02*
X750Y24500D01*
X975Y24500D01*
X1075Y24600D02*
X1075Y24850D01*
X1125Y24900D01*
X1300Y24900D01*
X1350Y24850D01*
X1350Y24550D01*
X1300Y24500D01*
X1125Y24500D01*
X1075Y24550D01*
X1075Y24600D01*
X1450Y24900D02*
X1525Y24500D01*
X1600Y24900D01*
X1675Y24500D01*
X1750Y24900D01*
X1950Y24825D02*
X2025Y24900D01*
X2100Y24900D01*
X2175Y24825D01*
X2175Y24725D01*
X2125Y24675D01*
X2000Y24675D01*
X1950Y24625D01*
X1950Y24500D01*
X2175Y24500D01*
X2375Y24675D02*
X2525Y24675D01*
X2625Y24675D02*
X2775Y24675D01*
X2975Y24900D02*
X3275Y24900D01*
X3125Y24900D02*
X3125Y24500D01*
X3625Y24900D02*
X3375Y24900D01*
X3375Y24500D01*
X3625Y24500D01*
X3375Y24700D02*
X3525Y24700D01*
X3725Y24500D02*
X3725Y24900D01*
X3850Y24625D01*
X3975Y24900D01*
X3975Y24500D01*
X4075Y24500D02*
X4075Y24900D01*
X4225Y24900D01*
X4275Y24850D01*
X4275Y24750D01*
X4225Y24700D01*
X4075Y24700D01*
X4475Y24825D02*
X4550Y24900D01*
X4625Y24900D01*
X4700Y24825D01*
X4700Y24725D01*
X4650Y24675D01*
X4525Y24675D01*
X4475Y24625D01*
X4475Y24500D01*
X4700Y24500D01*
X650Y24300D02*
X400Y24300D01*
X400Y23900D01*
X400Y24100D02*
X550Y24100D01*
X750Y24300D02*
X750Y23900D01*
X975Y23900D01*
X1075Y24000D02*
X1075Y24250D01*
X1125Y24300D01*
X1300Y24300D01*
X1350Y24250D01*
X1350Y23950D01*
X1300Y23900D01*
X1125Y23900D01*
X1075Y23950D01*
X1075Y24000D01*
X1450Y24300D02*
X1525Y23900D01*
X1600Y24300D01*
X1675Y23900D01*
X1750Y24300D01*
X1950Y23900D02*
X2100Y23900D01*
X2025Y23900D02*
X2025Y24300D01*
X1950Y24250D01*
X2300Y24075D02*
X2450Y24075D01*
X2550Y24075D02*
X2700Y24075D01*
X2900Y24300D02*
X3200Y24300D01*
X3050Y24300D02*
X3050Y23900D01*
X3550Y24300D02*
X3300Y24300D01*
X3300Y23900D01*
X3550Y23900D01*
X3300Y24100D02*
X3450Y24100D01*
X3650Y23900D02*
X3650Y24300D01*
X3775Y24025D01*
X3900Y24300D01*
X3900Y23900D01*
X4000Y23900D02*
X4000Y24300D01*
X4150Y24300D01*
X4200Y24250D01*
X4200Y24150D01*
X4150Y24100D01*
X4000Y24100D01*
X4400Y23900D02*
X4550Y23900D01*
X4475Y23900D02*
X4475Y24300D01*
X4400Y24250D01*
X950Y23650D02*
X900Y23700D01*
X750Y23700D01*
X700Y23650D01*
X700Y23350D01*
X750Y23300D01*
X900Y23300D01*
X950Y23350D01*
X950Y23500D01*
X775Y23500D01*
X1050Y23300D02*
X1050Y23700D01*
X1300Y23300D01*
X1300Y23700D01*
X1400Y23300D02*
X1400Y23700D01*
X1575Y23700D01*
X1650Y23625D01*
X1650Y23375D01*
X1575Y23300D01*
X1400Y23300D01*
X1400Y23300D01*
X1850Y23475D02*
X2000Y23475D01*
X2200Y23300D02*
X2200Y23700D01*
X2375Y23700D01*
X2450Y23625D01*
X2450Y23375D01*
X2375Y23300D01*
X2200Y23300D01*
X2200Y23300D01*
X2650Y23475D02*
X2800Y23475D01*
X3000Y23700D02*
X3150Y23300D01*
X3300Y23700D01*
X3675Y23625D02*
X3600Y23700D01*
X3475Y23700D01*
X3400Y23625D01*
X3400Y23375D01*
X3475Y23300D01*
X3600Y23300D01*
X3675Y23375D01*
X4050Y23625D02*
X3975Y23700D01*
X3850Y23700D01*
X3775Y23625D01*
X3775Y23375D01*
X3850Y23300D01*
X3975Y23300D01*
X4050Y23375D01*
X10350Y27000D02*
X10100Y27000D01*
X10100Y26600D01*
X10100Y26800D02*
X10250Y26800D01*
X10450Y27000D02*
X10450Y26600D01*
X10675Y26600D01*
X10775Y26700D02*
X10775Y26950D01*
X10825Y27000D01*
X11000Y27000D01*
X11050Y26950D01*
X11050Y26650D01*
X11000Y26600D01*
X10825Y26600D01*
X10775Y26650D01*
X10775Y26700D01*
X11208Y26750D02*
X11392Y26750D01*
X11150Y26600D02*
X11300Y27000D01*
X11450Y26600D01*
X11550Y27000D02*
X11850Y27000D01*
X11700Y27000D02*
X11700Y26600D01*
X12300Y26925D02*
X12225Y27000D01*
X12125Y27000D01*
X12050Y26925D01*
X12050Y26850D01*
X12100Y26800D01*
X12250Y26800D01*
X12300Y26750D01*
X12300Y26675D01*
X12225Y26600D01*
X12125Y26600D01*
X12050Y26675D01*
X12400Y27000D02*
X12475Y26600D01*
X12550Y27000D01*
X12625Y26600D01*
X12700Y27000D01*
X12900Y26925D02*
X12975Y27000D01*
X13050Y27000D01*
X13125Y26925D01*
X13125Y26825D01*
X13075Y26775D01*
X12950Y26775D01*
X12900Y26725D01*
X12900Y26600D01*
X13125Y26600D01*
X10350Y26300D02*
X10100Y26300D01*
X10100Y25900D01*
X10100Y26100D02*
X10250Y26100D01*
X10450Y26300D02*
X10450Y25900D01*
X10675Y25900D01*
X10775Y26000D02*
X10775Y26250D01*
X10825Y26300D01*
X11000Y26300D01*
X11050Y26250D01*
X11050Y25950D01*
X11000Y25900D01*
X10825Y25900D01*
X10775Y25950D01*
X10775Y26000D01*
X11208Y26050D02*
X11392Y26050D01*
X11150Y25900D02*
X11300Y26300D01*
X11450Y25900D01*
X11550Y26300D02*
X11850Y26300D01*
X11700Y26300D02*
X11700Y25900D01*
X12300Y26225D02*
X12225Y26300D01*
X12125Y26300D01*
X12050Y26225D01*
X12050Y26150D01*
X12100Y26100D01*
X12250Y26100D01*
X12300Y26050D01*
X12300Y25975D01*
X12225Y25900D01*
X12125Y25900D01*
X12050Y25975D01*
X12400Y26300D02*
X12475Y25900D01*
X12550Y26300D01*
X12625Y25900D01*
X12700Y26300D01*
X12900Y25900D02*
X13050Y25900D01*
X12975Y25900D02*
X12975Y26300D01*
X12900Y26250D01*
X10600Y25300D02*
X10750Y25300D01*
X10600Y25700D02*
X10750Y25700D01*
X10675Y25700D02*
X10675Y25300D01*
X10850Y25300D02*
X10850Y25700D01*
X11100Y25300D01*
X11100Y25700D01*
X11300Y25475D02*
X11450Y25475D01*
X11900Y25650D02*
X11850Y25700D01*
X11700Y25700D01*
X11650Y25650D01*
X11650Y25350D01*
X11700Y25300D01*
X11850Y25300D01*
X11900Y25350D01*
X11900Y25500D01*
X11725Y25500D01*
X12000Y25300D02*
X12000Y25700D01*
X12250Y25300D01*
X12250Y25700D01*
X12350Y25300D02*
X12350Y25700D01*
X12525Y25700D01*
X12600Y25625D01*
X12600Y25375D01*
X12525Y25300D01*
X12350Y25300D01*
X12350Y25300D01*
X800Y13900D02*
X800Y14700D01*
X1100Y14700D01*
X1200Y14600D01*
X1200Y14400D01*
X1100Y14300D01*
X800Y14300D01*
X1450Y14700D02*
X1450Y13900D01*
X1650Y14000D02*
X1750Y13900D01*
X1900Y13900D01*
X2000Y14000D01*
X2000Y14250D01*
X1900Y14350D01*
X1750Y14350D01*
X1650Y14250D01*
X1650Y14000D01*
X2000Y13900D02*
X2000Y14350D01*
X2200Y14350D02*
X2200Y13900D01*
X2200Y14275D02*
X2275Y14350D01*
X2475Y14350D01*
X2550Y14275D01*
X2550Y13900D01*
X2750Y14350D02*
X2950Y14350D01*
X2950Y13900D02*
X2900Y13900D01*
X2850Y13950D01*
X2850Y14700D01*
X3900Y14550D02*
X3750Y14700D01*
X3500Y14700D01*
X3350Y14550D01*
X3350Y14050D01*
X3500Y13900D01*
X3750Y13900D01*
X3900Y14050D01*
X4175Y14350D02*
X4100Y14275D01*
X4100Y13975D01*
X4175Y13900D01*
X4375Y13900D01*
X4450Y13975D01*
X4450Y14275D01*
X4375Y14350D01*
X4175Y14350D01*
X4650Y14350D02*
X4650Y13900D01*
X4650Y14275D02*
X4725Y14350D01*
X4925Y14350D01*
X5000Y14275D01*
X5000Y13900D01*
X5200Y14350D02*
X5400Y14350D01*
X5400Y13900D02*
X5350Y13900D01*
X5300Y13950D01*
X5300Y14700D01*
X5600Y14350D02*
X5600Y13900D01*
X5900Y14275D02*
X5825Y14350D01*
X5675Y14350D01*
X5600Y14275D01*
X5600Y14250D01*
X6175Y14350D02*
X6100Y14275D01*
X6100Y13975D01*
X6175Y13900D01*
X6375Y13900D01*
X6450Y13975D01*
X6450Y14275D01*
X6375Y14350D01*
X6175Y14350D01*
X6700Y14700D02*
X6700Y13900D01*
X6950Y14700D02*
X6950Y13900D01*
X7500Y14000D02*
X7400Y13900D01*
X7250Y13900D01*
X7150Y14000D01*
X7150Y14250D01*
X7250Y14350D01*
X7400Y14350D01*
X7500Y14250D01*
X7500Y14150D01*
X7150Y14150D01*
X7700Y14350D02*
X7700Y13900D01*
X8000Y14275D02*
X7925Y14350D01*
X7775Y14350D01*
X7700Y14275D01*
X7700Y14250D01*
X8400Y14350D02*
X8400Y13900D01*
X8700Y14275D02*
X8625Y14350D01*
X8475Y14350D01*
X8400Y14275D01*
X8400Y14250D01*
X9250Y14000D02*
X9150Y13900D01*
X9000Y13900D01*
X8900Y14000D01*
X8900Y14250D01*
X9000Y14350D01*
X9150Y14350D01*
X9250Y14250D01*
X9250Y14150D01*
X8900Y14150D01*
X9450Y14350D02*
X9600Y13900D01*
X9750Y14350D01*
X9950Y14600D02*
X10050Y14700D01*
X10300Y14700D01*
X10400Y14600D01*
X10400Y14400D01*
X10300Y14300D01*
X10150Y14300D01*
X10300Y14300D02*
X10400Y14200D01*
X10400Y14000D01*
X10300Y13900D01*
X10050Y13900D01*
X9950Y14000D01*
X700Y13400D02*
X1000Y13400D01*
X850Y13400D02*
X850Y13000D01*
X1119Y13006D02*
X1119Y13312D01*
X1106Y13325D02*
X1119Y13338D01*
X1131Y13325D01*
X1119Y13312D01*
X1106Y13325D01*
X1231Y13225D02*
X1231Y13000D01*
X1231Y13188D02*
X1269Y13225D01*
X1306Y13225D01*
X1344Y13188D01*
X1381Y13225D01*
X1419Y13225D01*
X1456Y13188D01*
X1456Y13000D01*
X1344Y13188D02*
X1344Y13112D01*
X1906Y13400D02*
X1656Y13400D01*
X1656Y13000D01*
X1906Y13000D01*
X1656Y13200D02*
X1806Y13200D01*
X2006Y13050D02*
X2056Y13000D01*
X2131Y13000D01*
X2181Y13050D01*
X2181Y13175D01*
X2131Y13225D01*
X2056Y13225D01*
X2006Y13175D01*
X2006Y13050D01*
X2181Y13000D02*
X2181Y13225D01*
X2444Y13188D02*
X2406Y13225D01*
X2319Y13225D01*
X2281Y13188D01*
X2281Y13138D01*
X2306Y13112D01*
X2419Y13112D01*
X2444Y13088D01*
X2444Y13038D01*
X2406Y13000D01*
X2319Y13000D01*
X2281Y13038D01*
X2544Y13225D02*
X2644Y13225D01*
X2644Y13000D02*
X2619Y13000D01*
X2594Y13025D01*
X2594Y13400D01*
X2744Y13225D02*
X2806Y13000D01*
X2856Y13225D01*
X2906Y13000D01*
X2969Y13225D01*
X3106Y13225D02*
X3069Y13188D01*
X3069Y13038D01*
X3106Y13000D01*
X3206Y13000D01*
X3244Y13038D01*
X3244Y13188D01*
X3206Y13225D01*
X3106Y13225D01*
X3381Y13225D02*
X3344Y13188D01*
X3344Y13038D01*
X3381Y13000D01*
X3481Y13000D01*
X3519Y13038D01*
X3519Y13188D01*
X3481Y13225D01*
X3381Y13225D01*
X3619Y13050D02*
X3619Y13175D01*
X3669Y13225D01*
X3744Y13225D01*
X3794Y13175D01*
X3794Y13050D01*
X3744Y13000D01*
X3669Y13000D01*
X3619Y13050D01*
X3794Y13000D02*
X3794Y13400D01*
G54D30*
X21600Y14500D02*
X21600Y14900D01*
X21775Y14900D01*
X21825Y14850D01*
X21825Y14750D01*
X21775Y14700D01*
X21825Y14650D01*
X21825Y14550D01*
X21775Y14500D01*
X21600Y14500D01*
X21775Y14700D02*
X21600Y14700D01*
X21925Y14900D02*
X22225Y14900D01*
X22075Y14900D02*
X22075Y14500D01*
X22325Y14500D02*
X22325Y14900D01*
X22575Y14500D01*
X22575Y14900D01*
X5600Y11300D02*
X5600Y11700D01*
X5775Y11700D01*
X5850Y11625D01*
X5850Y11550D01*
X5775Y11475D01*
X5600Y11475D01*
X5775Y11475D02*
X5875Y11300D01*
X6225Y11700D02*
X5975Y11700D01*
X5975Y11300D01*
X6225Y11300D01*
X5975Y11500D02*
X6125Y11500D01*
X6325Y11700D02*
X6325Y11300D01*
X6550Y11300D01*
X6708Y11450D02*
X6892Y11450D01*
X6650Y11300D02*
X6800Y11700D01*
X6950Y11300D01*
X7200Y11500D02*
X7350Y11700D01*
X7050Y11700D02*
X7200Y11500D01*
X7200Y11300D01*
X7700Y11625D02*
X7625Y11700D01*
X7525Y11700D01*
X7450Y11625D01*
X7450Y11550D01*
X7500Y11500D01*
X7650Y11500D01*
X7700Y11450D01*
X7700Y11375D01*
X7625Y11300D01*
X7525Y11300D01*
X7450Y11375D01*
G54D19*
X17200Y15881D02*
X16600Y15881D01*
X16600Y16144D01*
X16712Y16256D01*
X16825Y16256D01*
X16938Y16144D01*
X16938Y15881D01*
X16938Y16144D02*
X17200Y16294D01*
X17200Y16444D02*
X17200Y16669D01*
X17200Y16556D02*
X16600Y16556D01*
X16675Y16444D01*
%LNSTD*%
%LPD*%
G54D17*
X13800Y14300D02*
X13822Y14260D01*
X13845Y14220D01*
X13870Y14182D01*
X13897Y14145D01*
X13925Y14109D01*
X13955Y14074D01*
X13986Y14040D01*
X14019Y14008D01*
X14053Y13977D01*
X14088Y13948D01*
X14124Y13920D01*
X14162Y13894D01*
X14200Y13869D01*
X14240Y13846D01*
X14281Y13825D01*
X14322Y13805D01*
X14364Y13787D01*
X14407Y13771D01*
X14450Y13756D01*
X14495Y13744D01*
X14539Y13733D01*
X14584Y13725D01*
X14629Y13718D01*
X14675Y13713D01*
X14721Y13710D01*
X14766Y13709D01*
X14812Y13709D01*
X14858Y13712D01*
X14904Y13717D01*
X14949Y13723D01*
X14994Y13732D01*
X15039Y13742D01*
X15083Y13754D01*
X15126Y13768D01*
X15169Y13784D01*
X15212Y13802D01*
X15253Y13821D01*
X15294Y13842D01*
X15333Y13865D01*
X15372Y13890D01*
X15410Y13916D01*
X15446Y13943D01*
X15482Y13972D01*
X15516Y14003D01*
X15549Y14035D01*
X15580Y14068D01*
X15610Y14103D01*
X15639Y14139D01*
X15666Y14176D01*
X15691Y14214D01*
X15715Y14253D01*
X15737Y14293D01*
X15757Y14334D01*
X15776Y14376D01*
X15793Y14419D01*
X15808Y14462D01*
X15821Y14506D01*
X15833Y14550D01*
X15842Y14595D01*
X15850Y14640D01*
X15856Y14686D01*
X15859Y14731D01*
X15861Y14777D01*
X15861Y14823D01*
X15859Y14869D01*
X15856Y14914D01*
X15850Y14960D01*
X15842Y15005D01*
X15833Y15050D01*
X15821Y15094D01*
X15808Y15138D01*
X15793Y15181D01*
X15776Y15224D01*
X15757Y15266D01*
X15737Y15307D01*
X15715Y15347D01*
X15691Y15386D01*
X15666Y15424D01*
X15639Y15461D01*
X15610Y15497D01*
X15580Y15532D01*
X15549Y15565D01*
X15516Y15597D01*
X15482Y15628D01*
X15446Y15657D01*
X15410Y15684D01*
X15372Y15710D01*
X15333Y15735D01*
X15294Y15758D01*
X15253Y15779D01*
X15212Y15798D01*
X15169Y15816D01*
X15126Y15832D01*
X15083Y15846D01*
X15039Y15858D01*
X14994Y15868D01*
X14949Y15877D01*
X14904Y15883D01*
X14858Y15888D01*
X14812Y15891D01*
X14766Y15891D01*
X14721Y15890D01*
X14675Y15887D01*
X14629Y15882D01*
X14584Y15875D01*
X14539Y15867D01*
X14495Y15856D01*
X14450Y15844D01*
X14407Y15829D01*
X14364Y15813D01*
X14322Y15795D01*
X14281Y15775D01*
X14240Y15754D01*
X14200Y15731D01*
X14162Y15706D01*
X14124Y15680D01*
X14088Y15652D01*
X14053Y15623D01*
X14019Y15592D01*
X13986Y15560D01*
X13955Y15526D01*
X13925Y15491D01*
X13897Y15455D01*
X13870Y15418D01*
X13845Y15380D01*
X13822Y15340D01*
X13800Y15300D01*
X13800Y15300D01*
X13800Y14300D02*
X13800Y15300D01*
G54D18*
X13956Y15900D02*
X13956Y15300D01*
X14294Y15300D01*
X14819Y15900D02*
X14444Y15900D01*
X14444Y15300D01*
X14819Y15300D01*
X14444Y15600D02*
X14669Y15600D01*
X14969Y15300D02*
X14969Y15900D01*
X15231Y15900D01*
X15344Y15788D01*
X15344Y15413D01*
X15231Y15300D01*
X14969Y15300D01*
X14969Y15300D01*
X15494Y15300D02*
X15719Y15300D01*
X15606Y15300D02*
X15606Y15900D01*
X15494Y15825D01*
G54D17*
X17900Y14600D02*
X17909Y14559D01*
X17920Y14518D01*
X17933Y14478D01*
X17947Y14439D01*
X17963Y14400D01*
X17980Y14362D01*
X17999Y14325D01*
X18020Y14288D01*
X18042Y14252D01*
X18066Y14218D01*
X18091Y14184D01*
X18117Y14151D01*
X18145Y14120D01*
X18174Y14089D01*
X18204Y14060D01*
X18236Y14032D01*
X18268Y14006D01*
X18302Y13981D01*
X18336Y13957D01*
X18372Y13935D01*
X18409Y13914D01*
X18446Y13895D01*
X18484Y13878D01*
X18523Y13862D01*
X18562Y13847D01*
X18602Y13835D01*
X18643Y13824D01*
X18684Y13814D01*
X18725Y13807D01*
X18767Y13801D01*
X18809Y13797D01*
X18850Y13794D01*
X18892Y13794D01*
X18934Y13795D01*
X18976Y13798D01*
X19018Y13802D01*
X19059Y13809D01*
X19101Y13817D01*
X19142Y13827D01*
X19182Y13838D01*
X19222Y13851D01*
X19261Y13866D01*
X19300Y13883D01*
X19338Y13901D01*
X19375Y13920D01*
X19411Y13941D01*
X19446Y13964D01*
X19481Y13988D01*
X19514Y14014D01*
X19546Y14040D01*
X19577Y14069D01*
X19607Y14098D01*
X19636Y14129D01*
X19663Y14161D01*
X19689Y14194D01*
X19714Y14228D01*
X19737Y14263D01*
X19759Y14299D01*
X19779Y14335D01*
X19797Y14373D01*
X19814Y14412D01*
X19830Y14451D01*
X19844Y14490D01*
X19856Y14530D01*
X19866Y14571D01*
X19875Y14612D01*
X19882Y14654D01*
X19887Y14695D01*
X19891Y14737D01*
X19892Y14779D01*
X19892Y14821D01*
X19891Y14863D01*
X19887Y14905D01*
X19882Y14946D01*
X19875Y14988D01*
X19866Y15029D01*
X19856Y15070D01*
X19844Y15110D01*
X19830Y15149D01*
X19814Y15188D01*
X19797Y15227D01*
X19779Y15265D01*
X19759Y15301D01*
X19737Y15337D01*
X19714Y15372D01*
X19689Y15406D01*
X19663Y15439D01*
X19636Y15471D01*
X19607Y15502D01*
X19577Y15531D01*
X19546Y15560D01*
X19514Y15586D01*
X19481Y15612D01*
X19446Y15636D01*
X19411Y15659D01*
X19375Y15680D01*
X19338Y15699D01*
X19300Y15717D01*
X19261Y15734D01*
X19222Y15749D01*
X19182Y15762D01*
X19142Y15773D01*
X19101Y15783D01*
X19059Y15791D01*
X19018Y15798D01*
X18976Y15802D01*
X18934Y15805D01*
X18892Y15806D01*
X18850Y15806D01*
X18809Y15803D01*
X18767Y15799D01*
X18725Y15793D01*
X18684Y15786D01*
X18643Y15776D01*
X18602Y15765D01*
X18562Y15753D01*
X18523Y15738D01*
X18484Y15722D01*
X18446Y15705D01*
X18409Y15686D01*
X18372Y15665D01*
X18336Y15643D01*
X18302Y15619D01*
X18268Y15594D01*
X18236Y15568D01*
X18204Y15540D01*
X18174Y15511D01*
X18145Y15480D01*
X18117Y15449D01*
X18091Y15416D01*
X18066Y15382D01*
X18042Y15348D01*
X18020Y15312D01*
X17999Y15275D01*
X17980Y15238D01*
X17963Y15200D01*
X17947Y15161D01*
X17933Y15122D01*
X17920Y15082D01*
X17909Y15041D01*
X17900Y15000D01*
X17900Y15000D01*
G54D18*
X18712Y15712D02*
X18600Y15825D01*
X18412Y15825D01*
X18300Y15712D01*
X18300Y15338D01*
X18412Y15225D01*
X18600Y15225D01*
X18712Y15338D01*
X18862Y15225D02*
X19088Y15225D01*
X18975Y15225D02*
X18975Y15825D01*
X18862Y15750D01*
X19238Y15712D02*
X19350Y15825D01*
X19462Y15825D01*
X19575Y15712D01*
X19575Y15562D01*
X19500Y15488D01*
X19312Y15488D01*
X19238Y15412D01*
X19238Y15225D01*
X19575Y15225D01*
G54D17*
X3500Y27250D02*
X3500Y26250D01*
X6500Y26250D01*
X6500Y27250D01*
X3500Y27250D01*
X3500Y26250D02*
X3500Y25250D01*
X6500Y25250D01*
X6500Y26250D01*
X3500Y26250D01*
X23400Y2900D02*
X23400Y3900D01*
X20400Y3900D01*
X20400Y2900D01*
X23400Y2900D01*
X23400Y2900D01*
X21500Y3350D02*
X21500Y3750D01*
X21700Y3550D02*
X21300Y3550D01*
X22450Y3600D02*
X22150Y3600D01*
X22300Y3300D02*
X22300Y2900D01*
X22125Y2900D01*
X22075Y2950D01*
X22075Y3050D01*
X22125Y3100D01*
X22075Y3150D01*
X22075Y3250D01*
X22125Y3300D01*
X22300Y3300D01*
X22125Y3100D02*
X22300Y3100D01*
X21975Y2900D02*
X21700Y2900D01*
X21975Y3300D01*
X21700Y3300D01*
X21600Y2900D02*
X21325Y2900D01*
X21600Y3300D01*
X21325Y3300D01*
X500Y26250D02*
X500Y25250D01*
X3500Y25250D01*
X3500Y26250D01*
X500Y26250D01*
X500Y27250D02*
X500Y26250D01*
X3500Y26250D01*
X3500Y27250D01*
X500Y27250D01*
X250Y750D02*
X9699Y750D01*
X9699Y11774D01*
X250Y11774D01*
X250Y750D01*
X1600Y7425D02*
X1525Y7500D01*
X1425Y7500D01*
X1350Y7425D01*
X1350Y7350D01*
X1400Y7300D01*
X1550Y7300D01*
X1600Y7250D01*
X1600Y7175D01*
X1525Y7100D01*
X1425Y7100D01*
X1350Y7175D01*
X1975Y7425D02*
X1900Y7500D01*
X1775Y7500D01*
X1700Y7425D01*
X1700Y7175D01*
X1775Y7100D01*
X1900Y7100D01*
X1975Y7175D01*
X2075Y7500D02*
X2075Y7100D01*
X2300Y7100D01*
X1600Y6425D02*
X1525Y6500D01*
X1425Y6500D01*
X1350Y6425D01*
X1350Y6350D01*
X1400Y6300D01*
X1550Y6300D01*
X1600Y6250D01*
X1600Y6175D01*
X1525Y6100D01*
X1425Y6100D01*
X1350Y6175D01*
X1700Y6100D02*
X1700Y6500D01*
X1875Y6500D01*
X1950Y6425D01*
X1950Y6175D01*
X1875Y6100D01*
X1700Y6100D01*
X1700Y6100D01*
X2108Y6250D02*
X2292Y6250D01*
X2050Y6100D02*
X2200Y6500D01*
X2350Y6100D01*
X1350Y5500D02*
X1500Y5100D01*
X1650Y5500D01*
X2025Y5425D02*
X1950Y5500D01*
X1825Y5500D01*
X1750Y5425D01*
X1750Y5175D01*
X1825Y5100D01*
X1950Y5100D01*
X2025Y5175D01*
X2400Y5425D02*
X2325Y5500D01*
X2200Y5500D01*
X2125Y5425D01*
X2125Y5175D01*
X2200Y5100D01*
X2325Y5100D01*
X2400Y5175D01*
X1600Y4450D02*
X1550Y4500D01*
X1400Y4500D01*
X1350Y4450D01*
X1350Y4150D01*
X1400Y4100D01*
X1550Y4100D01*
X1600Y4150D01*
X1600Y4300D01*
X1425Y4300D01*
X1700Y4100D02*
X1700Y4500D01*
X1950Y4100D01*
X1950Y4500D01*
X2050Y4100D02*
X2050Y4500D01*
X2225Y4500D01*
X2300Y4425D01*
X2300Y4175D01*
X2225Y4100D01*
X2050Y4100D01*
X2050Y4100D01*
X3850Y7500D02*
X4150Y7500D01*
X4000Y7500D02*
X4000Y7100D01*
X4269Y7106D02*
X4269Y7412D01*
X4256Y7425D02*
X4269Y7438D01*
X4281Y7425D01*
X4269Y7412D01*
X4256Y7425D01*
X4381Y7325D02*
X4381Y7100D01*
X4381Y7288D02*
X4419Y7325D01*
X4519Y7325D01*
X4556Y7288D01*
X4556Y7100D01*
X4656Y7325D02*
X4744Y7100D01*
X4819Y7325D01*
X4744Y7100D02*
X4719Y7012D01*
X4706Y7000D01*
X4681Y7000D01*
X4919Y7100D02*
X4919Y7500D01*
X5094Y7500D01*
X5169Y7425D01*
X5169Y7350D01*
X5094Y7275D01*
X4919Y7275D01*
X5094Y7275D02*
X5194Y7100D01*
X5294Y7500D02*
X5594Y7500D01*
X5444Y7500D02*
X5444Y7100D01*
X5969Y7425D02*
X5894Y7500D01*
X5769Y7500D01*
X5694Y7425D01*
X5694Y7175D01*
X5769Y7100D01*
X5894Y7100D01*
X5969Y7175D01*
G54D18*
X918Y11274D02*
X918Y10749D01*
X993Y10674D01*
X1256Y10674D01*
X1331Y10749D01*
X1331Y11274D01*
X1481Y11274D02*
X1481Y10936D01*
X1781Y10936D01*
X1706Y11199D02*
X1706Y10674D01*
G54D33*
X11504Y17411D02*
X11470Y17377D01*
X11470Y17331D01*
X11504Y17296D01*
X11539Y17296D01*
X11562Y17319D01*
X11562Y17388D01*
X11585Y17411D01*
X11619Y17411D01*
X11654Y17377D01*
X11654Y17331D01*
X11619Y17296D01*
X11654Y17457D02*
X11470Y17457D01*
X11470Y17526D01*
X11493Y17550D01*
X11539Y17550D01*
X11562Y17526D01*
X11562Y17457D01*
X11585Y17622D02*
X11585Y17707D01*
X11654Y17596D02*
X11470Y17665D01*
X11654Y17734D01*
X11654Y17780D02*
X11470Y17780D01*
X11470Y17861D01*
X11504Y17895D01*
X11539Y17895D01*
X11573Y17861D01*
X11573Y17780D01*
X11573Y17861D02*
X11654Y17907D01*
X11654Y17953D02*
X11470Y17953D01*
X11470Y18033D02*
X11573Y17953D01*
X11654Y18045D01*
X11470Y18206D02*
X11470Y18091D01*
X11654Y18091D01*
X11562Y18091D02*
X11562Y18160D01*
X11470Y18252D02*
X11631Y18252D01*
X11654Y18275D01*
X11654Y18356D01*
X11631Y18379D01*
X11470Y18379D01*
X11654Y18425D02*
X11470Y18425D01*
X11654Y18540D01*
X11470Y18540D01*
X11654Y18586D02*
X11654Y18725D01*
X11654Y18771D02*
X11470Y18771D01*
X11470Y18840D01*
X11493Y18863D01*
X11539Y18863D01*
X11562Y18840D01*
X11562Y18771D01*
X11654Y18909D02*
X11470Y18909D01*
X11470Y18990D01*
X11504Y19024D01*
X11539Y19024D01*
X11573Y18990D01*
X11573Y18909D01*
X11573Y18990D02*
X11654Y19036D01*
X11608Y19082D02*
X11493Y19082D01*
X11470Y19105D01*
X11470Y19185D01*
X11493Y19208D01*
X11631Y19208D01*
X11654Y19185D01*
X11654Y19105D01*
X11631Y19082D01*
X11608Y19082D01*
X11654Y19254D02*
X11654Y19393D01*
X11654Y19439D02*
X11470Y19439D01*
X11596Y19496D01*
X11470Y19554D01*
X11654Y19554D01*
X11654Y19600D02*
X11654Y19669D01*
X11470Y19600D02*
X11470Y19669D01*
X11470Y19635D02*
X11654Y19635D01*
X11504Y19842D02*
X11470Y19807D01*
X11470Y19750D01*
X11504Y19715D01*
X11619Y19715D01*
X11654Y19750D01*
X11654Y19807D01*
X11619Y19842D01*
X11654Y19888D02*
X11470Y19888D01*
X11470Y19969D01*
X11504Y20003D01*
X11539Y20003D01*
X11573Y19969D01*
X11573Y19888D01*
X11573Y19969D02*
X11654Y20015D01*
X11608Y20061D02*
X11493Y20061D01*
X11470Y20084D01*
X11470Y20165D01*
X11493Y20188D01*
X11631Y20188D01*
X11654Y20165D01*
X11654Y20084D01*
X11631Y20061D01*
X11608Y20061D01*
G54D17*
X-50Y15000D02*
X12700Y15000D01*
X12700Y22000D01*
X-50Y22000D01*
X-50Y15000D01*
G54D33*
X450Y18100D02*
X800Y18100D01*
X850Y18150D01*
X850Y18325D01*
X800Y18375D01*
X450Y18375D01*
X525Y18725D02*
X450Y18650D01*
X450Y18550D01*
X525Y18475D01*
X600Y18475D01*
X650Y18525D01*
X650Y18675D01*
X700Y18725D01*
X775Y18725D01*
X850Y18650D01*
X850Y18550D01*
X775Y18475D01*
X850Y18825D02*
X450Y18825D01*
X450Y19000D01*
X500Y19050D01*
X600Y19050D01*
X650Y19000D01*
X700Y19050D01*
X800Y19050D01*
X850Y19000D01*
X850Y18825D01*
X650Y19000D02*
X650Y18825D01*
G54D18*
X4250Y18125D02*
X4775Y18125D01*
X4850Y18200D01*
X4850Y18462D01*
X4775Y18538D01*
X4250Y18538D01*
X4250Y18688D02*
X4250Y19025D01*
X4850Y18688D01*
G54D17*
X13200Y27100D02*
X24200Y27100D01*
X24200Y16600D01*
X13200Y16600D01*
X13200Y27100D01*
X15400Y20450D02*
X15250Y20600D01*
X15050Y20600D01*
X14900Y20450D01*
X14900Y20300D01*
X15000Y20200D01*
X15300Y20200D01*
X15400Y20100D01*
X15400Y19950D01*
X15250Y19800D01*
X15050Y19800D01*
X14900Y19950D01*
X16100Y20450D02*
X15950Y20600D01*
X15750Y20600D01*
X15600Y20450D01*
X15600Y20300D01*
X15700Y20200D01*
X16000Y20200D01*
X16100Y20100D01*
X16100Y19950D01*
X15950Y19800D01*
X15750Y19800D01*
X15600Y19950D01*
X16300Y19800D02*
X16300Y20600D01*
X16650Y20600D01*
X16800Y20450D01*
X16800Y19950D01*
X16650Y19800D01*
X16300Y19800D01*
X16300Y19800D01*
X17000Y19800D02*
X17300Y19800D01*
X17150Y19800D02*
X17150Y20600D01*
X17000Y20500D01*
X17500Y20500D02*
X17600Y20600D01*
X17850Y20600D01*
X17950Y20500D01*
X17950Y20300D01*
X17850Y20200D01*
X17700Y20200D01*
X17850Y20200D02*
X17950Y20100D01*
X17950Y19900D01*
X17850Y19800D01*
X17600Y19800D01*
X17500Y19900D01*
X18150Y20000D02*
X18200Y19900D01*
X18250Y19850D01*
X18350Y19800D01*
X18550Y19800D01*
X18650Y19850D01*
X18700Y19900D01*
X18750Y20000D01*
X18750Y20400D01*
X18700Y20500D01*
X18650Y20550D01*
X18550Y20600D01*
X18350Y20600D01*
X18250Y20550D01*
X18200Y20500D01*
X18150Y20400D01*
X18150Y20000D01*
X18150Y20000D01*
X18150Y19800D02*
X18750Y20600D01*
X19100Y20600D02*
X18950Y20450D01*
X18950Y19900D01*
X19050Y19800D01*
X19300Y19800D01*
X19400Y19900D01*
X19400Y20100D01*
X19300Y20200D01*
X19050Y20200D01*
X18950Y20100D01*
X19600Y19800D02*
X20200Y19800D01*
X20400Y20000D02*
X20400Y20500D01*
X20500Y20600D01*
X20850Y20600D01*
X20950Y20500D01*
X20950Y19900D01*
X20850Y19800D01*
X20500Y19800D01*
X20400Y19900D01*
X20400Y20000D01*
X21150Y20600D02*
X21150Y19800D01*
X21600Y19800D01*
X22300Y20600D02*
X21800Y20600D01*
X21800Y19800D01*
X22300Y19800D01*
X21800Y20200D02*
X22100Y20200D01*
X22500Y19800D02*
X22500Y20600D01*
X22850Y20600D01*
X23000Y20450D01*
X23000Y19950D01*
X22850Y19800D01*
X22500Y19800D01*
X22500Y19800D01*
X16800Y24300D02*
X16700Y24200D01*
X16700Y23900D01*
X16800Y23800D01*
X17400Y23800D01*
X17500Y23900D01*
X17500Y24200D01*
X17400Y24300D01*
X17100Y24300D01*
X17100Y23950D01*
X17500Y24500D02*
X16700Y24500D01*
X17500Y25000D01*
X16700Y25000D01*
X17500Y25200D02*
X16700Y25200D01*
X16700Y25550D01*
X16850Y25700D01*
X17350Y25700D01*
X17500Y25550D01*
X17500Y25200D01*
X17500Y25200D01*
X17700Y23800D02*
X18500Y24100D01*
X17700Y24400D01*
X17850Y25150D02*
X17700Y25000D01*
X17700Y24750D01*
X17850Y24600D01*
X18350Y24600D01*
X18500Y24750D01*
X18500Y25000D01*
X18350Y25150D01*
X17850Y25900D02*
X17700Y25750D01*
X17700Y25500D01*
X17850Y25350D01*
X18350Y25350D01*
X18500Y25500D01*
X18500Y25750D01*
X18350Y25900D01*
X18850Y24300D02*
X18700Y24150D01*
X18700Y23950D01*
X18850Y23800D01*
X19000Y23800D01*
X19100Y23900D01*
X19100Y24200D01*
X19200Y24300D01*
X19350Y24300D01*
X19500Y24150D01*
X19500Y23950D01*
X19350Y23800D01*
X18850Y25050D02*
X18700Y24900D01*
X18700Y24650D01*
X18850Y24500D01*
X19350Y24500D01*
X19500Y24650D01*
X19500Y24900D01*
X19350Y25050D01*
X18700Y25250D02*
X19500Y25250D01*
X19500Y25700D01*
X19850Y24300D02*
X19700Y24150D01*
X19700Y23950D01*
X19850Y23800D01*
X20000Y23800D01*
X20100Y23900D01*
X20100Y24200D01*
X20200Y24300D01*
X20350Y24300D01*
X20500Y24150D01*
X20500Y23950D01*
X20350Y23800D01*
X20500Y24500D02*
X19700Y24500D01*
X19700Y24850D01*
X19850Y25000D01*
X20350Y25000D01*
X20500Y24850D01*
X20500Y24500D01*
X20500Y24500D01*
X20200Y25315D02*
X20200Y25685D01*
X20500Y25200D02*
X19700Y25500D01*
X20500Y25800D01*
G54D18*
X21525Y26500D02*
X21525Y25975D01*
X21600Y25900D01*
X21862Y25900D01*
X21938Y25975D01*
X21938Y26500D01*
X22088Y25975D02*
X22162Y25900D01*
X22350Y25900D01*
X22425Y25975D01*
X22425Y26125D01*
X22350Y26200D01*
X22162Y26200D01*
X22088Y26125D01*
X22088Y25975D01*
X22088Y25975D01*
X22350Y26200D02*
X22425Y26275D01*
X22425Y26425D01*
X22350Y26500D01*
X22162Y26500D01*
X22088Y26425D01*
X22088Y26275D01*
X22162Y26200D01*
G54D17*
X10700Y6900D02*
X24361Y6900D01*
X24361Y11703D01*
X10700Y11703D01*
X10700Y6900D01*
X13144Y8569D02*
X13444Y7769D01*
X13744Y8569D01*
X13944Y8119D02*
X14244Y8119D01*
X13065Y11010D02*
X13365Y10210D01*
X13665Y11010D01*
X14065Y10810D02*
X14065Y10410D01*
X13865Y10610D02*
X14265Y10610D01*
X20939Y7930D02*
X20939Y8430D01*
X21039Y8530D01*
X21389Y8530D01*
X21489Y8430D01*
X21489Y7830D01*
X21389Y7730D01*
X21039Y7730D01*
X20939Y7830D01*
X20939Y7930D01*
X21689Y8080D02*
X21989Y8080D01*
X20979Y10410D02*
X20979Y10910D01*
X21079Y11010D01*
X21429Y11010D01*
X21529Y10910D01*
X21529Y10310D01*
X21429Y10210D01*
X21079Y10210D01*
X20979Y10310D01*
X20979Y10410D01*
X21929Y10810D02*
X21929Y10410D01*
X21729Y10610D02*
X22129Y10610D01*
X14640Y9829D02*
X14640Y9029D01*
X15090Y9029D01*
X15840Y9679D02*
X15690Y9829D01*
X15440Y9829D01*
X15290Y9679D01*
X15290Y9179D01*
X15440Y9029D01*
X15690Y9029D01*
X15840Y9179D01*
X16040Y9379D02*
X16340Y9379D01*
X17040Y9829D02*
X16540Y9829D01*
X16540Y9029D01*
X16540Y9429D02*
X16840Y9429D01*
X17240Y9029D02*
X17540Y9029D01*
X17240Y9829D02*
X17540Y9829D01*
X17390Y9829D02*
X17390Y9029D01*
X17740Y9829D02*
X17740Y9029D01*
X18190Y9029D01*
X18390Y9829D02*
X18990Y9829D01*
X18690Y9829D02*
X18690Y9029D01*
X19690Y9829D02*
X19190Y9829D01*
X19190Y9029D01*
X19690Y9029D01*
X19190Y9429D02*
X19490Y9429D01*
X19890Y9029D02*
X19890Y9829D01*
X20240Y9829D01*
X20390Y9679D01*
X20390Y9529D01*
X20240Y9379D01*
X19890Y9379D01*
X20240Y9379D02*
X20440Y9029D01*
G54D18*
X17256Y11003D02*
X17256Y10478D01*
X17331Y10403D01*
X17593Y10403D01*
X17668Y10478D01*
X17668Y11003D01*
X17818Y10928D02*
X17893Y11003D01*
X18081Y11003D01*
X18156Y10928D01*
X18156Y10778D01*
X18081Y10703D01*
X17968Y10703D01*
X18081Y10703D02*
X18156Y10628D01*
X18156Y10478D01*
X18081Y10403D01*
X17893Y10403D01*
X17818Y10478D01*
G54D17*
X10728Y5509D02*
X10728Y-200D01*
X14272Y-200D01*
X14272Y5509D01*
X10728Y5509D01*
G54D18*
X10841Y4348D02*
X10841Y3823D01*
X10916Y3748D01*
X11179Y3748D01*
X11254Y3823D01*
X11254Y4348D01*
X11404Y4235D02*
X11516Y4348D01*
X11629Y4348D01*
X11741Y4235D01*
X11741Y4085D01*
X11666Y4010D01*
X11479Y4010D01*
X11404Y3935D01*
X11404Y3748D01*
X11741Y3748D01*
G54D17*
X11325Y1809D02*
X11042Y1809D01*
X11042Y1561D01*
X11254Y1561D01*
X11325Y1490D01*
X11325Y1313D01*
X11254Y1242D01*
X11042Y1242D01*
X11467Y1490D02*
X11680Y1490D01*
X11821Y1242D02*
X12034Y1242D01*
X11928Y1242D02*
X11928Y1809D01*
X11821Y1738D01*
X12176Y1702D02*
X12282Y1809D01*
X12388Y1809D01*
X12494Y1702D01*
X12494Y1561D01*
X12424Y1490D01*
X12246Y1490D01*
X12176Y1419D01*
X12176Y1242D01*
X12494Y1242D01*
X12636Y1809D02*
X12849Y1242D01*
X13061Y1809D01*
X13345Y1242D02*
X13557Y1242D01*
X13345Y1809D02*
X13557Y1809D01*
X13451Y1809D02*
X13451Y1242D01*
X13699Y1242D02*
X13699Y1809D01*
X14054Y1242D01*
X14054Y1809D01*
X15800Y400D02*
X19000Y400D01*
X19000Y5600D01*
X15800Y5600D01*
X15800Y400D01*
X15800Y400D01*
X16000Y5000D02*
X16000Y4800D01*
X15900Y4900D02*
X16100Y4900D01*
X16400Y5100D02*
X16200Y5100D01*
X16200Y4925D01*
X16350Y4925D01*
X16400Y4875D01*
X16400Y4750D01*
X16350Y4700D01*
X16200Y4700D01*
X16500Y5100D02*
X16650Y4700D01*
X16800Y5100D01*
X17000Y5100D02*
X17150Y4700D01*
X17300Y5100D01*
X17400Y4700D02*
X17400Y5100D01*
X17575Y5100D01*
X17650Y5025D01*
X17650Y4950D01*
X17575Y4875D01*
X17400Y4875D01*
X17575Y4875D02*
X17675Y4700D01*
X18025Y5100D02*
X17775Y5100D01*
X17775Y4700D01*
X18025Y4700D01*
X17775Y4900D02*
X17925Y4900D01*
X18375Y5050D02*
X18325Y5100D01*
X18175Y5100D01*
X18125Y5050D01*
X18125Y4750D01*
X18175Y4700D01*
X18325Y4700D01*
X18375Y4750D01*
X18375Y4900D01*
X18200Y4900D01*
G54D18*
X15500Y6250D02*
X15550Y6200D01*
X15625Y6200D01*
X15700Y6275D01*
X15700Y6600D01*
X15575Y6600D02*
X15800Y6600D01*
X15900Y6200D02*
X16050Y6200D01*
X15975Y6200D02*
X15975Y6600D01*
X15900Y6550D01*
G54D17*
X12100Y575D02*
X12250Y575D01*
X12750Y700D02*
X12750Y500D01*
X12650Y600D02*
X12850Y600D01*
G54D18*
X650Y24900D02*
X400Y24900D01*
X400Y24500D01*
X400Y24700D02*
X550Y24700D01*
X750Y24900D02*
X750Y24500D01*
X975Y24500D01*
X1075Y24600D02*
X1075Y24850D01*
X1125Y24900D01*
X1300Y24900D01*
X1350Y24850D01*
X1350Y24550D01*
X1300Y24500D01*
X1125Y24500D01*
X1075Y24550D01*
X1075Y24600D01*
X1450Y24900D02*
X1525Y24500D01*
X1600Y24900D01*
X1675Y24500D01*
X1750Y24900D01*
X1950Y24825D02*
X2025Y24900D01*
X2100Y24900D01*
X2175Y24825D01*
X2175Y24725D01*
X2125Y24675D01*
X2000Y24675D01*
X1950Y24625D01*
X1950Y24500D01*
X2175Y24500D01*
X2375Y24675D02*
X2525Y24675D01*
X2625Y24675D02*
X2775Y24675D01*
X2975Y24900D02*
X3275Y24900D01*
X3125Y24900D02*
X3125Y24500D01*
X3625Y24900D02*
X3375Y24900D01*
X3375Y24500D01*
X3625Y24500D01*
X3375Y24700D02*
X3525Y24700D01*
X3725Y24500D02*
X3725Y24900D01*
X3850Y24625D01*
X3975Y24900D01*
X3975Y24500D01*
X4075Y24500D02*
X4075Y24900D01*
X4225Y24900D01*
X4275Y24850D01*
X4275Y24750D01*
X4225Y24700D01*
X4075Y24700D01*
X4475Y24825D02*
X4550Y24900D01*
X4625Y24900D01*
X4700Y24825D01*
X4700Y24725D01*
X4650Y24675D01*
X4525Y24675D01*
X4475Y24625D01*
X4475Y24500D01*
X4700Y24500D01*
X650Y24300D02*
X400Y24300D01*
X400Y23900D01*
X400Y24100D02*
X550Y24100D01*
X750Y24300D02*
X750Y23900D01*
X975Y23900D01*
X1075Y24000D02*
X1075Y24250D01*
X1125Y24300D01*
X1300Y24300D01*
X1350Y24250D01*
X1350Y23950D01*
X1300Y23900D01*
X1125Y23900D01*
X1075Y23950D01*
X1075Y24000D01*
X1450Y24300D02*
X1525Y23900D01*
X1600Y24300D01*
X1675Y23900D01*
X1750Y24300D01*
X1950Y23900D02*
X2100Y23900D01*
X2025Y23900D02*
X2025Y24300D01*
X1950Y24250D01*
X2300Y24075D02*
X2450Y24075D01*
X2550Y24075D02*
X2700Y24075D01*
X2900Y24300D02*
X3200Y24300D01*
X3050Y24300D02*
X3050Y23900D01*
X3550Y24300D02*
X3300Y24300D01*
X3300Y23900D01*
X3550Y23900D01*
X3300Y24100D02*
X3450Y24100D01*
X3650Y23900D02*
X3650Y24300D01*
X3775Y24025D01*
X3900Y24300D01*
X3900Y23900D01*
X4000Y23900D02*
X4000Y24300D01*
X4150Y24300D01*
X4200Y24250D01*
X4200Y24150D01*
X4150Y24100D01*
X4000Y24100D01*
X4400Y23900D02*
X4550Y23900D01*
X4475Y23900D02*
X4475Y24300D01*
X4400Y24250D01*
X950Y23650D02*
X900Y23700D01*
X750Y23700D01*
X700Y23650D01*
X700Y23350D01*
X750Y23300D01*
X900Y23300D01*
X950Y23350D01*
X950Y23500D01*
X775Y23500D01*
X1050Y23300D02*
X1050Y23700D01*
X1300Y23300D01*
X1300Y23700D01*
X1400Y23300D02*
X1400Y23700D01*
X1575Y23700D01*
X1650Y23625D01*
X1650Y23375D01*
X1575Y23300D01*
X1400Y23300D01*
X1400Y23300D01*
X1850Y23475D02*
X2000Y23475D01*
X2200Y23300D02*
X2200Y23700D01*
X2375Y23700D01*
X2450Y23625D01*
X2450Y23375D01*
X2375Y23300D01*
X2200Y23300D01*
X2200Y23300D01*
X2650Y23475D02*
X2800Y23475D01*
X3000Y23700D02*
X3150Y23300D01*
X3300Y23700D01*
X3675Y23625D02*
X3600Y23700D01*
X3475Y23700D01*
X3400Y23625D01*
X3400Y23375D01*
X3475Y23300D01*
X3600Y23300D01*
X3675Y23375D01*
X4050Y23625D02*
X3975Y23700D01*
X3850Y23700D01*
X3775Y23625D01*
X3775Y23375D01*
X3850Y23300D01*
X3975Y23300D01*
X4050Y23375D01*
X10350Y27000D02*
X10100Y27000D01*
X10100Y26600D01*
X10100Y26800D02*
X10250Y26800D01*
X10450Y27000D02*
X10450Y26600D01*
X10675Y26600D01*
X10775Y26700D02*
X10775Y26950D01*
X10825Y27000D01*
X11000Y27000D01*
X11050Y26950D01*
X11050Y26650D01*
X11000Y26600D01*
X10825Y26600D01*
X10775Y26650D01*
X10775Y26700D01*
X11208Y26750D02*
X11392Y26750D01*
X11150Y26600D02*
X11300Y27000D01*
X11450Y26600D01*
X11550Y27000D02*
X11850Y27000D01*
X11700Y27000D02*
X11700Y26600D01*
X12300Y26925D02*
X12225Y27000D01*
X12125Y27000D01*
X12050Y26925D01*
X12050Y26850D01*
X12100Y26800D01*
X12250Y26800D01*
X12300Y26750D01*
X12300Y26675D01*
X12225Y26600D01*
X12125Y26600D01*
X12050Y26675D01*
X12400Y27000D02*
X12475Y26600D01*
X12550Y27000D01*
X12625Y26600D01*
X12700Y27000D01*
X12900Y26925D02*
X12975Y27000D01*
X13050Y27000D01*
X13125Y26925D01*
X13125Y26825D01*
X13075Y26775D01*
X12950Y26775D01*
X12900Y26725D01*
X12900Y26600D01*
X13125Y26600D01*
X10350Y26300D02*
X10100Y26300D01*
X10100Y25900D01*
X10100Y26100D02*
X10250Y26100D01*
X10450Y26300D02*
X10450Y25900D01*
X10675Y25900D01*
X10775Y26000D02*
X10775Y26250D01*
X10825Y26300D01*
X11000Y26300D01*
X11050Y26250D01*
X11050Y25950D01*
X11000Y25900D01*
X10825Y25900D01*
X10775Y25950D01*
X10775Y26000D01*
X11208Y26050D02*
X11392Y26050D01*
X11150Y25900D02*
X11300Y26300D01*
X11450Y25900D01*
X11550Y26300D02*
X11850Y26300D01*
X11700Y26300D02*
X11700Y25900D01*
X12300Y26225D02*
X12225Y26300D01*
X12125Y26300D01*
X12050Y26225D01*
X12050Y26150D01*
X12100Y26100D01*
X12250Y26100D01*
X12300Y26050D01*
X12300Y25975D01*
X12225Y25900D01*
X12125Y25900D01*
X12050Y25975D01*
X12400Y26300D02*
X12475Y25900D01*
X12550Y26300D01*
X12625Y25900D01*
X12700Y26300D01*
X12900Y25900D02*
X13050Y25900D01*
X12975Y25900D02*
X12975Y26300D01*
X12900Y26250D01*
X10600Y25300D02*
X10750Y25300D01*
X10600Y25700D02*
X10750Y25700D01*
X10675Y25700D02*
X10675Y25300D01*
X10850Y25300D02*
X10850Y25700D01*
X11100Y25300D01*
X11100Y25700D01*
X11300Y25475D02*
X11450Y25475D01*
X11900Y25650D02*
X11850Y25700D01*
X11700Y25700D01*
X11650Y25650D01*
X11650Y25350D01*
X11700Y25300D01*
X11850Y25300D01*
X11900Y25350D01*
X11900Y25500D01*
X11725Y25500D01*
X12000Y25300D02*
X12000Y25700D01*
X12250Y25300D01*
X12250Y25700D01*
X12350Y25300D02*
X12350Y25700D01*
X12525Y25700D01*
X12600Y25625D01*
X12600Y25375D01*
X12525Y25300D01*
X12350Y25300D01*
X12350Y25300D01*
G54D17*
X7000Y27100D02*
X7000Y25200D01*
X13200Y25200D01*
X13200Y27200D01*
X7000Y27200D01*
X7000Y27100D01*
X7000Y27100D01*
G54D18*
X800Y13900D02*
X800Y14700D01*
X1100Y14700D01*
X1200Y14600D01*
X1200Y14400D01*
X1100Y14300D01*
X800Y14300D01*
X1450Y14700D02*
X1450Y13900D01*
X1650Y14000D02*
X1750Y13900D01*
X1900Y13900D01*
X2000Y14000D01*
X2000Y14250D01*
X1900Y14350D01*
X1750Y14350D01*
X1650Y14250D01*
X1650Y14000D01*
X2000Y13900D02*
X2000Y14350D01*
X2200Y14350D02*
X2200Y13900D01*
X2200Y14275D02*
X2275Y14350D01*
X2475Y14350D01*
X2550Y14275D01*
X2550Y13900D01*
X2750Y14350D02*
X2950Y14350D01*
X2950Y13900D02*
X2900Y13900D01*
X2850Y13950D01*
X2850Y14700D01*
X3900Y14550D02*
X3750Y14700D01*
X3500Y14700D01*
X3350Y14550D01*
X3350Y14050D01*
X3500Y13900D01*
X3750Y13900D01*
X3900Y14050D01*
X4175Y14350D02*
X4100Y14275D01*
X4100Y13975D01*
X4175Y13900D01*
X4375Y13900D01*
X4450Y13975D01*
X4450Y14275D01*
X4375Y14350D01*
X4175Y14350D01*
X4650Y14350D02*
X4650Y13900D01*
X4650Y14275D02*
X4725Y14350D01*
X4925Y14350D01*
X5000Y14275D01*
X5000Y13900D01*
X5200Y14350D02*
X5400Y14350D01*
X5400Y13900D02*
X5350Y13900D01*
X5300Y13950D01*
X5300Y14700D01*
X5600Y14350D02*
X5600Y13900D01*
X5900Y14275D02*
X5825Y14350D01*
X5675Y14350D01*
X5600Y14275D01*
X5600Y14250D01*
X6175Y14350D02*
X6100Y14275D01*
X6100Y13975D01*
X6175Y13900D01*
X6375Y13900D01*
X6450Y13975D01*
X6450Y14275D01*
X6375Y14350D01*
X6175Y14350D01*
X6700Y14700D02*
X6700Y13900D01*
X6950Y14700D02*
X6950Y13900D01*
X7500Y14000D02*
X7400Y13900D01*
X7250Y13900D01*
X7150Y14000D01*
X7150Y14250D01*
X7250Y14350D01*
X7400Y14350D01*
X7500Y14250D01*
X7500Y14150D01*
X7150Y14150D01*
X7700Y14350D02*
X7700Y13900D01*
X8000Y14275D02*
X7925Y14350D01*
X7775Y14350D01*
X7700Y14275D01*
X7700Y14250D01*
X8400Y14350D02*
X8400Y13900D01*
X8700Y14275D02*
X8625Y14350D01*
X8475Y14350D01*
X8400Y14275D01*
X8400Y14250D01*
X9250Y14000D02*
X9150Y13900D01*
X9000Y13900D01*
X8900Y14000D01*
X8900Y14250D01*
X9000Y14350D01*
X9150Y14350D01*
X9250Y14250D01*
X9250Y14150D01*
X8900Y14150D01*
X9450Y14350D02*
X9600Y13900D01*
X9750Y14350D01*
X9950Y14600D02*
X10050Y14700D01*
X10300Y14700D01*
X10400Y14600D01*
X10400Y14400D01*
X10300Y14300D01*
X10150Y14300D01*
X10300Y14300D02*
X10400Y14200D01*
X10400Y14000D01*
X10300Y13900D01*
X10050Y13900D01*
X9950Y14000D01*
X700Y13400D02*
X1000Y13400D01*
X850Y13400D02*
X850Y13000D01*
X1119Y13006D02*
X1119Y13312D01*
X1106Y13325D02*
X1119Y13338D01*
X1131Y13325D01*
X1119Y13312D01*
X1106Y13325D01*
X1231Y13225D02*
X1231Y13000D01*
X1231Y13188D02*
X1269Y13225D01*
X1306Y13225D01*
X1344Y13188D01*
X1381Y13225D01*
X1419Y13225D01*
X1456Y13188D01*
X1456Y13000D01*
X1344Y13188D02*
X1344Y13112D01*
X1906Y13400D02*
X1656Y13400D01*
X1656Y13000D01*
X1906Y13000D01*
X1656Y13200D02*
X1806Y13200D01*
X2006Y13050D02*
X2056Y13000D01*
X2131Y13000D01*
X2181Y13050D01*
X2181Y13175D01*
X2131Y13225D01*
X2056Y13225D01*
X2006Y13175D01*
X2006Y13050D01*
X2181Y13000D02*
X2181Y13225D01*
X2444Y13188D02*
X2406Y13225D01*
X2319Y13225D01*
X2281Y13188D01*
X2281Y13138D01*
X2306Y13112D01*
X2419Y13112D01*
X2444Y13088D01*
X2444Y13038D01*
X2406Y13000D01*
X2319Y13000D01*
X2281Y13038D01*
X2544Y13225D02*
X2644Y13225D01*
X2644Y13000D02*
X2619Y13000D01*
X2594Y13025D01*
X2594Y13400D01*
X2744Y13225D02*
X2806Y13000D01*
X2856Y13225D01*
X2906Y13000D01*
X2969Y13225D01*
X3106Y13225D02*
X3069Y13188D01*
X3069Y13038D01*
X3106Y13000D01*
X3206Y13000D01*
X3244Y13038D01*
X3244Y13188D01*
X3206Y13225D01*
X3106Y13225D01*
X3381Y13225D02*
X3344Y13188D01*
X3344Y13038D01*
X3381Y13000D01*
X3481Y13000D01*
X3519Y13038D01*
X3519Y13188D01*
X3481Y13225D01*
X3381Y13225D01*
X3619Y13050D02*
X3619Y13175D01*
X3669Y13225D01*
X3744Y13225D01*
X3794Y13175D01*
X3794Y13050D01*
X3744Y13000D01*
X3669Y13000D01*
X3619Y13050D01*
X3794Y13000D02*
X3794Y13400D01*
G54D17*
X21600Y14500D02*
X21600Y14900D01*
X21775Y14900D01*
X21825Y14850D01*
X21825Y14750D01*
X21775Y14700D01*
X21825Y14650D01*
X21825Y14550D01*
X21775Y14500D01*
X21600Y14500D01*
X21775Y14700D02*
X21600Y14700D01*
X21925Y14900D02*
X22225Y14900D01*
X22075Y14900D02*
X22075Y14500D01*
X22325Y14500D02*
X22325Y14900D01*
X22575Y14500D01*
X22575Y14900D01*
X5600Y11300D02*
X5600Y11700D01*
X5775Y11700D01*
X5850Y11625D01*
X5850Y11550D01*
X5775Y11475D01*
X5600Y11475D01*
X5775Y11475D02*
X5875Y11300D01*
X6225Y11700D02*
X5975Y11700D01*
X5975Y11300D01*
X6225Y11300D01*
X5975Y11500D02*
X6125Y11500D01*
X6325Y11700D02*
X6325Y11300D01*
X6550Y11300D01*
X6708Y11450D02*
X6892Y11450D01*
X6650Y11300D02*
X6800Y11700D01*
X6950Y11300D01*
X7200Y11500D02*
X7350Y11700D01*
X7050Y11700D02*
X7200Y11500D01*
X7200Y11300D01*
X7700Y11625D02*
X7625Y11700D01*
X7525Y11700D01*
X7450Y11625D01*
X7450Y11550D01*
X7500Y11500D01*
X7650Y11500D01*
X7700Y11450D01*
X7700Y11375D01*
X7625Y11300D01*
X7525Y11300D01*
X7450Y11375D01*
X16400Y15300D02*
X17400Y15300D01*
X17400Y17300D01*
X16400Y17300D01*
X16400Y15300D01*
X16400Y15300D01*
G54D18*
X17200Y15881D02*
X16600Y15881D01*
X16600Y16144D01*
X16712Y16256D01*
X16825Y16256D01*
X16938Y16144D01*
X16938Y15881D01*
X16938Y16144D02*
X17200Y16294D01*
X17200Y16444D02*
X17200Y16669D01*
X17200Y16556D02*
X16600Y16556D01*
X16675Y16444D01*
M02*
