G04 -- Generated By PCBWeb Designer*
%FSLAX24Y24*%
%MOIN*%
%OFA0B0*%
%SFA1.0B1.0*%
%AMROTRECT*21,1,$1,$2,0,0,$3*%
%AMROTOBLONG*1,1,$7,$1,$2*1,1,$7,$3,$4*21,1,$5,$6,0,0,$8*%
%ADD10C,0.025*%
%ADD11R,0.055X0.055*%
%ADD12C,0.033*%
%ADD13R,0.065X0.065*%
%ADD14C,0.055*%
%ADD15C,0.033*%
%ADD16C,0.065*%
%ADD17C,0.01*%
%ADD18C,0.008*%
%ADD19C,0.024*%
%ADD20R,0.0532X0.0532*%
%ADD21C,0.0315*%
%ADD22R,0.0632X0.0632*%
%ADD23C,0.0532*%
%ADD24C,0.0632*%
%ADD25C,0.075*%
%ADD26C,0.04*%
%ADD27C,0.085*%
%ADD28R,0.075X0.075*%
%ADD29R,0.085X0.085*%
%ADD30C,0.026*%
%ADD31C,0.074*%
%ADD32C,0.084*%
%ADD33C,0.0048*%
%ADD34C,0.0208*%
%ADD35C,0.175*%
%ADD36C,0.185*%
%ADD37C,0.1969*%
%ADD38C,0.1378*%
%ADD39C,0.2069*%
%ADD40C,0.126*%
%ADD41R,0.02X0.04*%
%ADD42R,0.03X0.05*%
%ADD43C,0.001*%
%ADD44C,0.0*%
%ADD45C,0.0275*%
G01*
%LNERASE*%
%LPC*%
G54D30*
X1500Y18100D02*
X1150Y18100D01*
X1100Y18150D01*
X1100Y18325D01*
X1150Y18375D01*
X1500Y18375D01*
X1425Y18725D02*
X1500Y18650D01*
X1500Y18550D01*
X1425Y18475D01*
X1350Y18475D01*
X1300Y18525D01*
X1300Y18675D01*
X1250Y18725D01*
X1175Y18725D01*
X1100Y18650D01*
X1100Y18550D01*
X1175Y18475D01*
X1100Y18825D02*
X1500Y18825D01*
X1500Y19000D01*
X1450Y19050D01*
X1350Y19050D01*
X1300Y19000D01*
X1250Y19050D01*
X1150Y19050D01*
X1100Y19000D01*
X1100Y18825D01*
X1300Y19000D02*
X1300Y18825D01*
X18850Y22600D02*
X19250Y22600D01*
X19250Y22775D01*
X19175Y22850D01*
X18925Y22850D01*
X18850Y22775D01*
X18850Y22600D01*
X18850Y22600D01*
X18950Y22950D02*
X18900Y22975D01*
X18875Y23000D01*
X18850Y23050D01*
X18850Y23150D01*
X18875Y23200D01*
X18900Y23225D01*
X18950Y23250D01*
X19150Y23250D01*
X19200Y23225D01*
X19225Y23200D01*
X19250Y23150D01*
X19250Y23050D01*
X19225Y23000D01*
X19200Y22975D01*
X19150Y22950D01*
X18950Y22950D01*
X18950Y22950D01*
X18850Y22950D02*
X19250Y23250D01*
X17850Y22600D02*
X18250Y22600D01*
X18250Y22775D01*
X18175Y22850D01*
X17925Y22850D01*
X17850Y22775D01*
X17850Y22600D01*
X17850Y22600D01*
X17850Y22950D02*
X17850Y23100D01*
X17850Y23025D02*
X18250Y23025D01*
X18200Y22950D01*
X16850Y22600D02*
X17250Y22600D01*
X17250Y22775D01*
X17175Y22850D01*
X16925Y22850D01*
X16850Y22775D01*
X16850Y22600D01*
X16850Y22600D01*
X17175Y22950D02*
X17250Y23025D01*
X17250Y23100D01*
X17175Y23175D01*
X17075Y23175D01*
X17025Y23125D01*
X17025Y23000D01*
X16975Y22950D01*
X16850Y22950D01*
X16850Y23175D01*
X15850Y22600D02*
X16250Y22600D01*
X16250Y22775D01*
X16175Y22850D01*
X15925Y22850D01*
X15850Y22775D01*
X15850Y22600D01*
X15850Y22600D01*
X16200Y22950D02*
X16250Y23000D01*
X16250Y23125D01*
X16200Y23175D01*
X16100Y23175D01*
X16050Y23125D01*
X16050Y23050D01*
X16050Y23125D02*
X16000Y23175D01*
X15900Y23175D01*
X15850Y23125D01*
X15850Y23000D01*
X15900Y22950D01*
X14850Y22600D02*
X15250Y22600D01*
X15250Y22775D01*
X15175Y22850D01*
X14925Y22850D01*
X14850Y22775D01*
X14850Y22600D01*
X14850Y22600D01*
X15250Y22950D02*
X15025Y22950D01*
X15025Y23150D01*
X15200Y23100D02*
X14850Y23100D01*
X11850Y22600D02*
X12250Y22600D01*
X12250Y22775D01*
X12175Y22850D01*
X11925Y22850D01*
X11850Y22775D01*
X11850Y22600D01*
X11850Y22600D01*
X12250Y23150D02*
X12250Y22950D01*
X12075Y22950D01*
X12075Y23100D01*
X12025Y23150D01*
X11900Y23150D01*
X11850Y23100D01*
X11850Y22950D01*
X10850Y22600D02*
X11250Y22600D01*
X11250Y22775D01*
X11175Y22850D01*
X10925Y22850D01*
X10850Y22775D01*
X10850Y22600D01*
X10850Y22600D01*
X11250Y23025D02*
X11175Y22950D01*
X10900Y22950D01*
X10850Y23000D01*
X10850Y23125D01*
X10900Y23175D01*
X11000Y23175D01*
X11050Y23125D01*
X11050Y23000D01*
X11000Y22950D01*
X9850Y22600D02*
X10250Y22600D01*
X10250Y22775D01*
X10175Y22850D01*
X9925Y22850D01*
X9850Y22775D01*
X9850Y22600D01*
X9850Y22600D01*
X10250Y22950D02*
X10250Y23175D01*
X9850Y22950D01*
X8850Y22600D02*
X9250Y22600D01*
X9250Y22775D01*
X9175Y22850D01*
X8925Y22850D01*
X8850Y22775D01*
X8850Y22600D01*
X8850Y22600D01*
X8900Y22950D02*
X8850Y23000D01*
X8850Y23125D01*
X8900Y23175D01*
X9000Y23175D01*
X9050Y23125D01*
X9050Y23000D01*
X9000Y22950D01*
X8900Y22950D01*
X8900Y22950D01*
X9050Y23125D02*
X9100Y23175D01*
X9200Y23175D01*
X9250Y23125D01*
X9250Y23000D01*
X9200Y22950D01*
X9100Y22950D01*
X9050Y23000D01*
X7850Y22600D02*
X8250Y22600D01*
X8250Y22775D01*
X8175Y22850D01*
X8100Y22850D01*
X8025Y22775D01*
X8025Y22600D01*
X8025Y22775D02*
X7850Y22875D01*
X7850Y22975D02*
X8250Y23275D01*
X8250Y22975D02*
X7850Y23275D01*
X7250Y22600D02*
X7250Y22900D01*
X7250Y22750D02*
X6850Y22750D01*
X6850Y23000D02*
X7250Y23300D01*
X7250Y23000D02*
X6850Y23300D01*
X6200Y22350D02*
X6250Y22300D01*
X6250Y22150D01*
X6200Y22100D01*
X5900Y22100D01*
X5850Y22150D01*
X5850Y22300D01*
X5900Y22350D01*
X6050Y22350D01*
X6050Y22175D01*
X5850Y22450D02*
X6250Y22450D01*
X5850Y22700D01*
X6250Y22700D01*
X5850Y22800D02*
X6250Y22800D01*
X6250Y22975D01*
X6175Y23050D01*
X5925Y23050D01*
X5850Y22975D01*
X5850Y22800D01*
X5850Y22800D01*
X5200Y22100D02*
X5250Y22150D01*
X5250Y22275D01*
X5200Y22325D01*
X5100Y22325D01*
X5050Y22275D01*
X5050Y22200D01*
X5050Y22275D02*
X5000Y22325D01*
X4900Y22325D01*
X4850Y22275D01*
X4850Y22150D01*
X4900Y22100D01*
X5250Y22425D02*
X4850Y22575D01*
X5250Y22725D01*
X5200Y22825D02*
X5250Y22875D01*
X5250Y23000D01*
X5200Y23050D01*
X5100Y23050D01*
X5050Y23000D01*
X5050Y22925D01*
X5050Y23000D02*
X5000Y23050D01*
X4900Y23050D01*
X4850Y23000D01*
X4850Y22875D01*
X4900Y22825D01*
X14200Y22100D02*
X14250Y22150D01*
X14250Y22275D01*
X14200Y22325D01*
X14100Y22325D01*
X14050Y22275D01*
X14050Y22200D01*
X14050Y22275D02*
X14000Y22325D01*
X13900Y22325D01*
X13850Y22275D01*
X13850Y22150D01*
X13900Y22100D01*
X14250Y22425D02*
X13850Y22575D01*
X14250Y22725D01*
X14200Y22825D02*
X14250Y22875D01*
X14250Y23000D01*
X14200Y23050D01*
X14100Y23050D01*
X14050Y23000D01*
X14050Y22925D01*
X14050Y23000D02*
X14000Y23050D01*
X13900Y23050D01*
X13850Y23000D01*
X13850Y22875D01*
X13900Y22825D01*
X9200Y13600D02*
X9250Y13650D01*
X9250Y13775D01*
X9200Y13825D01*
X9100Y13825D01*
X9050Y13775D01*
X9050Y13700D01*
X9050Y13775D02*
X9000Y13825D01*
X8900Y13825D01*
X8850Y13775D01*
X8850Y13650D01*
X8900Y13600D01*
X9250Y13925D02*
X8850Y14075D01*
X9250Y14225D01*
X9200Y14325D02*
X9250Y14375D01*
X9250Y14500D01*
X9200Y14550D01*
X9100Y14550D01*
X9050Y14500D01*
X9050Y14425D01*
X9050Y14500D02*
X9000Y14550D01*
X8900Y14550D01*
X8850Y14500D01*
X8850Y14375D01*
X8900Y14325D01*
X11200Y13600D02*
X11250Y13650D01*
X11250Y13775D01*
X11200Y13825D01*
X11100Y13825D01*
X11050Y13775D01*
X11050Y13700D01*
X11050Y13775D02*
X11000Y13825D01*
X10900Y13825D01*
X10850Y13775D01*
X10850Y13650D01*
X10900Y13600D01*
X11250Y13925D02*
X10850Y14075D01*
X11250Y14225D01*
X11200Y14325D02*
X11250Y14375D01*
X11250Y14500D01*
X11200Y14550D01*
X11100Y14550D01*
X11050Y14500D01*
X11050Y14425D01*
X11050Y14500D02*
X11000Y14550D01*
X10900Y14550D01*
X10850Y14500D01*
X10850Y14375D01*
X10900Y14325D01*
X13200Y22350D02*
X13250Y22300D01*
X13250Y22150D01*
X13200Y22100D01*
X12900Y22100D01*
X12850Y22150D01*
X12850Y22300D01*
X12900Y22350D01*
X13050Y22350D01*
X13050Y22175D01*
X12850Y22450D02*
X13250Y22450D01*
X12850Y22700D01*
X13250Y22700D01*
X12850Y22800D02*
X13250Y22800D01*
X13250Y22975D01*
X13175Y23050D01*
X12925Y23050D01*
X12850Y22975D01*
X12850Y22800D01*
X12850Y22800D01*
X10200Y13850D02*
X10250Y13800D01*
X10250Y13650D01*
X10200Y13600D01*
X9900Y13600D01*
X9850Y13650D01*
X9850Y13800D01*
X9900Y13850D01*
X10050Y13850D01*
X10050Y13675D01*
X9850Y13950D02*
X10250Y13950D01*
X9850Y14200D01*
X10250Y14200D01*
X9850Y14300D02*
X10250Y14300D01*
X10250Y14475D01*
X10175Y14550D01*
X9925Y14550D01*
X9850Y14475D01*
X9850Y14300D01*
X9850Y14300D01*
X12200Y13850D02*
X12250Y13800D01*
X12250Y13650D01*
X12200Y13600D01*
X11900Y13600D01*
X11850Y13650D01*
X11850Y13800D01*
X11900Y13850D01*
X12050Y13850D01*
X12050Y13675D01*
X11850Y13950D02*
X12250Y13950D01*
X11850Y14200D01*
X12250Y14200D01*
X11850Y14300D02*
X12250Y14300D01*
X12250Y14475D01*
X12175Y14550D01*
X11925Y14550D01*
X11850Y14475D01*
X11850Y14300D01*
X11850Y14300D01*
X6200Y13850D02*
X6250Y13800D01*
X6250Y13650D01*
X6200Y13600D01*
X5900Y13600D01*
X5850Y13650D01*
X5850Y13800D01*
X5900Y13850D01*
X6050Y13850D01*
X6050Y13675D01*
X5850Y13950D02*
X6250Y13950D01*
X5850Y14200D01*
X6250Y14200D01*
X5850Y14300D02*
X6250Y14300D01*
X6250Y14475D01*
X6175Y14550D01*
X5925Y14550D01*
X5850Y14475D01*
X5850Y14300D01*
X5850Y14300D01*
X6850Y13600D02*
X7250Y13600D01*
X7250Y13775D01*
X7175Y13850D01*
X7100Y13850D01*
X7025Y13775D01*
X7025Y13600D01*
X7025Y13775D02*
X6850Y13875D01*
X7175Y14225D02*
X7250Y14150D01*
X7250Y14050D01*
X7175Y13975D01*
X7100Y13975D01*
X7050Y14025D01*
X7050Y14175D01*
X7000Y14225D01*
X6925Y14225D01*
X6850Y14150D01*
X6850Y14050D01*
X6925Y13975D01*
X7250Y14325D02*
X7250Y14625D01*
X7250Y14475D02*
X6850Y14475D01*
X8250Y13850D02*
X8250Y13600D01*
X7850Y13600D01*
X7850Y13850D01*
X8050Y13600D02*
X8050Y13750D01*
X7850Y13950D02*
X8250Y13950D01*
X7850Y14200D01*
X8250Y14200D01*
X5250Y13800D02*
X5250Y13600D01*
X5075Y13600D01*
X5075Y13750D01*
X5025Y13800D01*
X4900Y13800D01*
X4850Y13750D01*
X4850Y13600D01*
X5250Y13900D02*
X4850Y14050D01*
X5250Y14200D01*
X12850Y13600D02*
X13250Y13600D01*
X13250Y13775D01*
X13175Y13850D01*
X13100Y13850D01*
X13025Y13775D01*
X13025Y13600D01*
X13025Y13775D02*
X12850Y13875D01*
X13175Y14225D02*
X13250Y14150D01*
X13250Y14050D01*
X13175Y13975D01*
X13100Y13975D01*
X13050Y14025D01*
X13050Y14175D01*
X13000Y14225D01*
X12925Y14225D01*
X12850Y14150D01*
X12850Y14050D01*
X12925Y13975D01*
X13250Y14325D02*
X12850Y14475D01*
X13250Y14625D01*
X13850Y13600D02*
X14250Y13600D01*
X14250Y13775D01*
X14175Y13850D01*
X14100Y13850D01*
X14025Y13775D01*
X14025Y13600D01*
X14025Y13775D02*
X13850Y13875D01*
X14175Y14225D02*
X14250Y14150D01*
X14250Y14050D01*
X14175Y13975D01*
X14100Y13975D01*
X14050Y14025D01*
X14050Y14175D01*
X14000Y14225D01*
X13925Y14225D01*
X13850Y14150D01*
X13850Y14050D01*
X13925Y13975D01*
X14250Y14325D02*
X13850Y14475D01*
X14250Y14625D01*
X14850Y13600D02*
X15250Y13600D01*
X15250Y13775D01*
X15175Y13850D01*
X15100Y13850D01*
X15025Y13775D01*
X15025Y13600D01*
X15025Y13775D02*
X14850Y13875D01*
X15175Y14225D02*
X15250Y14150D01*
X15250Y14050D01*
X15175Y13975D01*
X15100Y13975D01*
X15050Y14025D01*
X15050Y14175D01*
X15000Y14225D01*
X14925Y14225D01*
X14850Y14150D01*
X14850Y14050D01*
X14925Y13975D01*
X15250Y14325D02*
X14850Y14475D01*
X15250Y14625D01*
X15850Y13600D02*
X16250Y13600D01*
X16250Y13775D01*
X16175Y13850D01*
X16100Y13850D01*
X16025Y13775D01*
X16025Y13600D01*
X16025Y13775D02*
X15850Y13875D01*
X16175Y14225D02*
X16250Y14150D01*
X16250Y14050D01*
X16175Y13975D01*
X16100Y13975D01*
X16050Y14025D01*
X16050Y14175D01*
X16000Y14225D01*
X15925Y14225D01*
X15850Y14150D01*
X15850Y14050D01*
X15925Y13975D01*
X16250Y14325D02*
X15850Y14475D01*
X16250Y14625D01*
X16850Y13600D02*
X17250Y13600D01*
X17250Y13775D01*
X17175Y13850D01*
X17100Y13850D01*
X17025Y13775D01*
X17025Y13600D01*
X17025Y13775D02*
X16850Y13875D01*
X17175Y14225D02*
X17250Y14150D01*
X17250Y14050D01*
X17175Y13975D01*
X17100Y13975D01*
X17050Y14025D01*
X17050Y14175D01*
X17000Y14225D01*
X16925Y14225D01*
X16850Y14150D01*
X16850Y14050D01*
X16925Y13975D01*
X17250Y14325D02*
X16850Y14475D01*
X17250Y14625D01*
X17850Y13600D02*
X18250Y13600D01*
X18250Y13775D01*
X18175Y13850D01*
X18100Y13850D01*
X18025Y13775D01*
X18025Y13600D01*
X18025Y13775D02*
X17850Y13875D01*
X18175Y14225D02*
X18250Y14150D01*
X18250Y14050D01*
X18175Y13975D01*
X18100Y13975D01*
X18050Y14025D01*
X18050Y14175D01*
X18000Y14225D01*
X17925Y14225D01*
X17850Y14150D01*
X17850Y14050D01*
X17925Y13975D01*
X18250Y14325D02*
X17850Y14475D01*
X18250Y14625D01*
X19000Y13658D02*
X19000Y13842D01*
X18850Y13600D02*
X19250Y13750D01*
X18850Y13900D01*
X18950Y14000D02*
X18900Y14025D01*
X18875Y14050D01*
X18850Y14100D01*
X18850Y14200D01*
X18875Y14250D01*
X18900Y14275D01*
X18950Y14300D01*
X19150Y14300D01*
X19200Y14275D01*
X19225Y14250D01*
X19250Y14200D01*
X19250Y14100D01*
X19225Y14050D01*
X19200Y14025D01*
X19150Y14000D01*
X18950Y14000D01*
X18950Y14000D01*
X18850Y14000D02*
X19250Y14300D01*
X18100Y17100D02*
X18500Y17100D01*
X18100Y17350D01*
X18500Y17350D01*
X18325Y17488D02*
X18288Y17450D01*
X18138Y17450D01*
X18100Y17488D01*
X18100Y17588D01*
X18138Y17625D01*
X18288Y17625D01*
X18325Y17588D01*
X18325Y17488D01*
X18150Y17725D02*
X18275Y17725D01*
X18325Y17775D01*
X18325Y17850D01*
X18275Y17900D01*
X18150Y17900D01*
X18100Y17850D01*
X18100Y17775D01*
X18150Y17725D01*
X18100Y17900D02*
X18500Y17900D01*
X18150Y18175D02*
X18100Y18125D01*
X18100Y18050D01*
X18150Y18000D01*
X18275Y18000D01*
X18325Y18050D01*
X18325Y18125D01*
X18275Y18175D01*
X18225Y18175D01*
X18225Y18000D01*
X18100Y18275D02*
X18500Y18275D01*
X18225Y18400D01*
X18500Y18525D01*
X18100Y18525D01*
X18425Y18900D02*
X18500Y18825D01*
X18500Y18700D01*
X18425Y18625D01*
X18175Y18625D01*
X18100Y18700D01*
X18100Y18825D01*
X18175Y18900D01*
X18500Y19000D02*
X18150Y19000D01*
X18100Y19050D01*
X18100Y19225D01*
X18150Y19275D01*
X18500Y19275D01*
X18325Y19475D02*
X18100Y19550D01*
X18325Y19625D01*
X18450Y19725D02*
X18500Y19775D01*
X18500Y19900D01*
X18450Y19950D01*
X18350Y19950D01*
X18300Y19900D01*
X18300Y19825D01*
X18300Y19900D02*
X18250Y19950D01*
X18150Y19950D01*
X18100Y19900D01*
X18100Y19775D01*
X18150Y19725D01*
X22250Y18158D02*
X22250Y18342D01*
X22100Y18100D02*
X22500Y18250D01*
X22100Y18400D01*
X22325Y18500D02*
X22100Y18500D01*
X22288Y18500D02*
X22325Y18538D01*
X22325Y18638D01*
X22288Y18675D01*
X22100Y18675D01*
X22325Y18775D02*
X22325Y18875D01*
X22100Y18875D02*
X22100Y18850D01*
X22125Y18825D01*
X22500Y18825D01*
X22150Y19150D02*
X22100Y19100D01*
X22100Y19025D01*
X22150Y18975D01*
X22275Y18975D01*
X22325Y19025D01*
X22325Y19100D01*
X22275Y19150D01*
X22225Y19150D01*
X22225Y18975D01*
X22325Y19250D02*
X22100Y19250D01*
X22288Y19250D02*
X22325Y19288D01*
X22325Y19388D01*
X22288Y19425D01*
X22100Y19425D01*
X22325Y19525D02*
X22100Y19525D01*
X22288Y19525D02*
X22325Y19562D01*
X22325Y19662D01*
X22288Y19700D01*
X22100Y19700D01*
X22150Y19800D02*
X22100Y19850D01*
X22100Y19925D01*
X22150Y19975D01*
X22275Y19975D01*
X22325Y19925D01*
X22325Y19850D01*
X22275Y19800D01*
X22150Y19800D01*
X22100Y19975D02*
X22325Y19975D01*
G54D19*
X23800Y16681D02*
X23275Y16681D01*
X23200Y16756D01*
X23200Y17019D01*
X23275Y17094D01*
X23800Y17094D01*
X23200Y17244D02*
X23200Y17469D01*
X23200Y17356D02*
X23800Y17356D01*
X23725Y17244D01*
G54D30*
X4300Y24900D02*
X4000Y24900D01*
X4150Y24900D02*
X4150Y24500D01*
X3650Y24900D02*
X3900Y24900D01*
X3900Y24500D01*
X3650Y24500D01*
X3900Y24700D02*
X3750Y24700D01*
X3550Y24500D02*
X3550Y24900D01*
X3425Y24625D01*
X3300Y24900D01*
X3300Y24500D01*
X3200Y24500D02*
X3200Y24900D01*
X3050Y24900D01*
X3000Y24850D01*
X3000Y24750D01*
X3050Y24700D01*
X3200Y24700D01*
X2900Y24825D02*
X2825Y24900D01*
X2750Y24900D01*
X2675Y24825D01*
X2675Y24725D01*
X2725Y24675D01*
X2850Y24675D01*
X2900Y24625D01*
X2900Y24500D01*
X2675Y24500D01*
X2225Y24900D02*
X2475Y24900D01*
X2475Y24500D01*
X2475Y24700D02*
X2325Y24700D01*
X2125Y24900D02*
X2125Y24500D01*
X1900Y24500D01*
X1800Y24600D02*
X1800Y24850D01*
X1750Y24900D01*
X1575Y24900D01*
X1525Y24850D01*
X1525Y24550D01*
X1575Y24500D01*
X1750Y24500D01*
X1800Y24550D01*
X1800Y24600D01*
X1425Y24900D02*
X1350Y24500D01*
X1275Y24900D01*
X1200Y24500D01*
X1125Y24900D01*
X1025Y24825D02*
X950Y24900D01*
X875Y24900D01*
X800Y24825D01*
X800Y24725D01*
X850Y24675D01*
X975Y24675D01*
X1025Y24625D01*
X1025Y24500D01*
X800Y24500D01*
X4000Y24300D02*
X3700Y24300D01*
X3850Y24300D02*
X3850Y23900D01*
X3350Y24300D02*
X3600Y24300D01*
X3600Y23900D01*
X3350Y23900D01*
X3600Y24100D02*
X3450Y24100D01*
X3250Y23900D02*
X3250Y24300D01*
X3125Y24025D01*
X3000Y24300D01*
X3000Y23900D01*
X2900Y23900D02*
X2900Y24300D01*
X2750Y24300D01*
X2700Y24250D01*
X2700Y24150D01*
X2750Y24100D01*
X2900Y24100D01*
X2600Y23900D02*
X2450Y23900D01*
X2525Y23900D02*
X2525Y24300D01*
X2600Y24250D01*
X2000Y24300D02*
X2250Y24300D01*
X2250Y23900D01*
X2250Y24100D02*
X2100Y24100D01*
X1900Y24300D02*
X1900Y23900D01*
X1675Y23900D01*
X1575Y24000D02*
X1575Y24250D01*
X1525Y24300D01*
X1350Y24300D01*
X1300Y24250D01*
X1300Y23950D01*
X1350Y23900D01*
X1525Y23900D01*
X1575Y23950D01*
X1575Y24000D01*
X1200Y24300D02*
X1125Y23900D01*
X1050Y24300D01*
X975Y23900D01*
X900Y24300D01*
X800Y23900D02*
X650Y23900D01*
X725Y23900D02*
X725Y24300D01*
X800Y24250D01*
X6900Y10200D02*
X7300Y10200D01*
X7300Y9975D01*
X7150Y9818D02*
X7150Y9632D01*
X7300Y9875D02*
X6900Y9725D01*
X7300Y9575D01*
X7300Y9475D02*
X6900Y9475D01*
X7175Y9350D01*
X6900Y9225D01*
X7300Y9225D01*
X7300Y9125D02*
X6900Y9125D01*
X6900Y8975D01*
X6950Y8925D01*
X7050Y8925D01*
X7100Y8975D01*
X7100Y9125D01*
X7300Y8825D02*
X7300Y8675D01*
X7300Y8750D02*
X6900Y8750D01*
X6950Y8825D01*
X5900Y10200D02*
X6300Y10200D01*
X6300Y9975D01*
X6150Y9818D02*
X6150Y9632D01*
X6300Y9875D02*
X5900Y9725D01*
X6300Y9575D01*
X6300Y9475D02*
X5900Y9475D01*
X6175Y9350D01*
X5900Y9225D01*
X6300Y9225D01*
X6300Y9125D02*
X5900Y9125D01*
X5900Y8975D01*
X5950Y8925D01*
X6050Y8925D01*
X6100Y8975D01*
X6100Y9125D01*
X5975Y8825D02*
X5900Y8750D01*
X5900Y8675D01*
X5975Y8600D01*
X6075Y8600D01*
X6125Y8650D01*
X6125Y8775D01*
X6175Y8825D01*
X6300Y8825D01*
X6300Y8600D01*
X5300Y10200D02*
X4900Y10200D01*
X4900Y10050D01*
X4950Y10000D01*
X5050Y10000D01*
X5100Y10050D01*
X5100Y10200D01*
X4900Y9900D02*
X5250Y9900D01*
X5300Y9850D01*
X5300Y9675D01*
X5250Y9625D01*
X4900Y9625D01*
X5300Y9525D02*
X4900Y9525D01*
X5175Y9400D01*
X4900Y9275D01*
X5300Y9275D01*
X5300Y9175D02*
X4900Y9175D01*
X4900Y9025D01*
X4950Y8975D01*
X5050Y8975D01*
X5100Y9025D01*
X5100Y9175D01*
X5300Y8875D02*
X5300Y8725D01*
X5300Y8800D02*
X4900Y8800D01*
X4950Y8875D01*
X4300Y10200D02*
X3900Y10200D01*
X3900Y10050D01*
X3950Y10000D01*
X4050Y10000D01*
X4100Y10050D01*
X4100Y10200D01*
X3900Y9900D02*
X4250Y9900D01*
X4300Y9850D01*
X4300Y9675D01*
X4250Y9625D01*
X3900Y9625D01*
X4300Y9525D02*
X3900Y9525D01*
X4175Y9400D01*
X3900Y9275D01*
X4300Y9275D01*
X4300Y9175D02*
X3900Y9175D01*
X3900Y9025D01*
X3950Y8975D01*
X4050Y8975D01*
X4100Y9025D01*
X4100Y9175D01*
X3975Y8875D02*
X3900Y8800D01*
X3900Y8725D01*
X3975Y8650D01*
X4075Y8650D01*
X4125Y8700D01*
X4125Y8825D01*
X4175Y8875D01*
X4300Y8875D01*
X4300Y8650D01*
X7900Y10200D02*
X8300Y10050D01*
X7900Y9900D01*
X7975Y9525D02*
X7900Y9600D01*
X7900Y9725D01*
X7975Y9800D01*
X8225Y9800D01*
X8300Y9725D01*
X8300Y9600D01*
X8225Y9525D01*
X7975Y9150D02*
X7900Y9225D01*
X7900Y9350D01*
X7975Y9425D01*
X8225Y9425D01*
X8300Y9350D01*
X8300Y9225D01*
X8225Y9150D01*
X8950Y9950D02*
X8900Y10000D01*
X8900Y10150D01*
X8950Y10200D01*
X9250Y10200D01*
X9300Y10150D01*
X9300Y10000D01*
X9250Y9950D01*
X9100Y9950D01*
X9100Y10125D01*
X9300Y9850D02*
X8900Y9850D01*
X9300Y9600D01*
X8900Y9600D01*
X9300Y9500D02*
X8900Y9500D01*
X8900Y9325D01*
X8975Y9250D01*
X9225Y9250D01*
X9300Y9325D01*
X9300Y9500D01*
X9300Y9500D01*
G54D19*
X12850Y27000D02*
X13100Y27000D01*
X13100Y26600D01*
X13100Y26800D02*
X12950Y26800D01*
X12750Y27000D02*
X12750Y26600D01*
X12525Y26600D01*
X12425Y26700D02*
X12425Y26950D01*
X12375Y27000D01*
X12200Y27000D01*
X12150Y26950D01*
X12150Y26650D01*
X12200Y26600D01*
X12375Y26600D01*
X12425Y26650D01*
X12425Y26700D01*
X11992Y26750D02*
X11808Y26750D01*
X12050Y26600D02*
X11900Y27000D01*
X11750Y26600D01*
X11650Y27000D02*
X11350Y27000D01*
X11500Y27000D02*
X11500Y26600D01*
X10900Y26925D02*
X10975Y27000D01*
X11075Y27000D01*
X11150Y26925D01*
X11150Y26850D01*
X11100Y26800D01*
X10950Y26800D01*
X10900Y26750D01*
X10900Y26675D01*
X10975Y26600D01*
X11075Y26600D01*
X11150Y26675D01*
X10800Y27000D02*
X10725Y26600D01*
X10650Y27000D01*
X10575Y26600D01*
X10500Y27000D01*
X10300Y26925D02*
X10225Y27000D01*
X10150Y27000D01*
X10075Y26925D01*
X10075Y26825D01*
X10125Y26775D01*
X10250Y26775D01*
X10300Y26725D01*
X10300Y26600D01*
X10075Y26600D01*
X12850Y26300D02*
X13100Y26300D01*
X13100Y25900D01*
X13100Y26100D02*
X12950Y26100D01*
X12750Y26300D02*
X12750Y25900D01*
X12525Y25900D01*
X12425Y26000D02*
X12425Y26250D01*
X12375Y26300D01*
X12200Y26300D01*
X12150Y26250D01*
X12150Y25950D01*
X12200Y25900D01*
X12375Y25900D01*
X12425Y25950D01*
X12425Y26000D01*
X11992Y26050D02*
X11808Y26050D01*
X12050Y25900D02*
X11900Y26300D01*
X11750Y25900D01*
X11650Y26300D02*
X11350Y26300D01*
X11500Y26300D02*
X11500Y25900D01*
X10900Y26225D02*
X10975Y26300D01*
X11075Y26300D01*
X11150Y26225D01*
X11150Y26150D01*
X11100Y26100D01*
X10950Y26100D01*
X10900Y26050D01*
X10900Y25975D01*
X10975Y25900D01*
X11075Y25900D01*
X11150Y25975D01*
X10800Y26300D02*
X10725Y25900D01*
X10650Y26300D01*
X10575Y25900D01*
X10500Y26300D01*
X10300Y25900D02*
X10150Y25900D01*
X10225Y25900D02*
X10225Y26300D01*
X10300Y26250D01*
X12600Y25300D02*
X12450Y25300D01*
X12600Y25700D02*
X12450Y25700D01*
X12525Y25700D02*
X12525Y25300D01*
X12350Y25300D02*
X12350Y25700D01*
X12100Y25300D01*
X12100Y25700D01*
X11900Y25475D02*
X11750Y25475D01*
X11300Y25650D02*
X11350Y25700D01*
X11500Y25700D01*
X11550Y25650D01*
X11550Y25350D01*
X11500Y25300D01*
X11350Y25300D01*
X11300Y25350D01*
X11300Y25500D01*
X11475Y25500D01*
X11200Y25300D02*
X11200Y25700D01*
X10950Y25300D01*
X10950Y25700D01*
X10850Y25300D02*
X10850Y25700D01*
X10675Y25700D01*
X10600Y25625D01*
X10600Y25375D01*
X10675Y25300D01*
X10850Y25300D01*
X10850Y25300D01*
X3750Y23650D02*
X3800Y23700D01*
X3950Y23700D01*
X4000Y23650D01*
X4000Y23350D01*
X3950Y23300D01*
X3800Y23300D01*
X3750Y23350D01*
X3750Y23500D01*
X3925Y23500D01*
X3650Y23300D02*
X3650Y23700D01*
X3400Y23300D01*
X3400Y23700D01*
X3300Y23300D02*
X3300Y23700D01*
X3125Y23700D01*
X3050Y23625D01*
X3050Y23375D01*
X3125Y23300D01*
X3300Y23300D01*
X3300Y23300D01*
X2850Y23475D02*
X2700Y23475D01*
X2500Y23300D02*
X2500Y23700D01*
X2325Y23700D01*
X2250Y23625D01*
X2250Y23375D01*
X2325Y23300D01*
X2500Y23300D01*
X2500Y23300D01*
X2050Y23475D02*
X1900Y23475D01*
X1700Y23700D02*
X1550Y23300D01*
X1400Y23700D01*
X1025Y23625D02*
X1100Y23700D01*
X1225Y23700D01*
X1300Y23625D01*
X1300Y23375D01*
X1225Y23300D01*
X1100Y23300D01*
X1025Y23375D01*
X650Y23625D02*
X725Y23700D01*
X850Y23700D01*
X925Y23625D01*
X925Y23375D01*
X850Y23300D01*
X725Y23300D01*
X650Y23375D01*
X8440Y6450D02*
X8440Y6210D01*
X8305Y6210D01*
X8210Y6300D02*
X8100Y6300D01*
X8245Y6210D02*
X8155Y6450D01*
X8065Y6210D01*
X8005Y6210D02*
X8005Y6450D01*
X7930Y6285D01*
X7855Y6450D01*
X7855Y6210D01*
X7795Y6210D02*
X7795Y6450D01*
X7705Y6450D01*
X7675Y6420D01*
X7675Y6360D01*
X7705Y6330D01*
X7795Y6330D01*
X7615Y6210D02*
X7525Y6210D01*
X7570Y6210D02*
X7570Y6450D01*
X7615Y6420D01*
X7405Y6315D02*
X7315Y6315D01*
X7195Y6210D02*
X7105Y6210D01*
X7150Y6210D02*
X7150Y6450D01*
X7195Y6420D01*
X7045Y6270D02*
X7030Y6240D01*
X7015Y6225D01*
X6985Y6210D01*
X6925Y6210D01*
X6895Y6225D01*
X6880Y6240D01*
X6865Y6270D01*
X6865Y6390D01*
X6880Y6420D01*
X6895Y6435D01*
X6925Y6450D01*
X6985Y6450D01*
X7015Y6435D01*
X7030Y6420D01*
X7045Y6390D01*
X7045Y6270D01*
X7045Y6270D01*
X7045Y6210D02*
X6865Y6450D01*
X6745Y6315D02*
X6655Y6315D01*
X6500Y6300D02*
X6390Y6300D01*
X6535Y6210D02*
X6445Y6450D01*
X6355Y6210D01*
X6295Y6210D02*
X6205Y6210D01*
X6250Y6210D02*
X6250Y6450D01*
X6295Y6420D01*
X6145Y6270D02*
X6130Y6240D01*
X6115Y6225D01*
X6085Y6210D01*
X6025Y6210D01*
X5995Y6225D01*
X5980Y6240D01*
X5965Y6270D01*
X5965Y6390D01*
X5980Y6420D01*
X5995Y6435D01*
X6025Y6450D01*
X6085Y6450D01*
X6115Y6435D01*
X6130Y6420D01*
X6145Y6390D01*
X6145Y6270D01*
X6145Y6270D01*
X6145Y6210D02*
X5965Y6450D01*
X8490Y6050D02*
X8490Y5810D01*
X8355Y5810D01*
X8260Y5900D02*
X8150Y5900D01*
X8295Y5810D02*
X8205Y6050D01*
X8115Y5810D01*
X8055Y5810D02*
X8055Y6050D01*
X7980Y5885D01*
X7905Y6050D01*
X7905Y5810D01*
X7845Y5810D02*
X7845Y6050D01*
X7755Y6050D01*
X7725Y6020D01*
X7725Y5960D01*
X7755Y5930D01*
X7845Y5930D01*
X7665Y6005D02*
X7620Y6050D01*
X7575Y6050D01*
X7530Y6005D01*
X7530Y5945D01*
X7560Y5915D01*
X7635Y5915D01*
X7665Y5885D01*
X7665Y5810D01*
X7530Y5810D01*
X7410Y5915D02*
X7320Y5915D01*
X7200Y5810D02*
X7110Y5810D01*
X7155Y5810D02*
X7155Y6050D01*
X7200Y6020D01*
X7005Y6050D02*
X7050Y6005D01*
X7050Y5840D01*
X7020Y5810D01*
X6945Y5810D01*
X6915Y5840D01*
X6915Y5900D01*
X6945Y5930D01*
X7020Y5930D01*
X7050Y5900D01*
X6795Y5915D02*
X6705Y5915D01*
X6585Y5810D02*
X6585Y6050D01*
X6510Y5885D01*
X6435Y6050D01*
X6435Y5810D01*
X6375Y5870D02*
X6375Y6020D01*
X6345Y6050D01*
X6240Y6050D01*
X6210Y6020D01*
X6210Y5840D01*
X6240Y5810D01*
X6345Y5810D01*
X6375Y5840D01*
X6375Y5870D01*
X6000Y6005D02*
X6045Y6050D01*
X6105Y6050D01*
X6150Y6005D01*
X6150Y5960D01*
X6120Y5930D01*
X6030Y5930D01*
X6000Y5900D01*
X6000Y5855D01*
X6045Y5810D01*
X6105Y5810D01*
X6150Y5855D01*
X5940Y5810D02*
X5850Y5810D01*
X5940Y6050D02*
X5850Y6050D01*
X5895Y6050D02*
X5895Y5810D01*
X8390Y5410D02*
X8390Y5650D01*
X8300Y5650D01*
X8270Y5620D01*
X8270Y5560D01*
X8300Y5530D01*
X8390Y5530D01*
X8210Y5650D02*
X8210Y5440D01*
X8180Y5410D01*
X8075Y5410D01*
X8045Y5440D01*
X8045Y5650D01*
X7985Y5410D02*
X7985Y5650D01*
X7910Y5485D01*
X7835Y5650D01*
X7835Y5410D01*
X7775Y5410D02*
X7775Y5650D01*
X7685Y5650D01*
X7655Y5620D01*
X7655Y5560D01*
X7685Y5530D01*
X7775Y5530D01*
X7595Y5410D02*
X7505Y5410D01*
X7550Y5410D02*
X7550Y5650D01*
X7595Y5620D01*
X7385Y5515D02*
X7295Y5515D01*
X7175Y5410D02*
X7085Y5410D01*
X7130Y5410D02*
X7130Y5650D01*
X7175Y5620D01*
X7025Y5650D02*
X7025Y5515D01*
X6905Y5515D01*
X6935Y5620D02*
X6935Y5410D01*
X6785Y5515D02*
X6695Y5515D01*
X6575Y5410D02*
X6575Y5650D01*
X6500Y5485D01*
X6425Y5650D01*
X6425Y5410D01*
X6365Y5410D02*
X6275Y5410D01*
X6365Y5650D02*
X6275Y5650D01*
X6320Y5650D02*
X6320Y5410D01*
X6065Y5605D02*
X6110Y5650D01*
X6170Y5650D01*
X6215Y5605D01*
X6215Y5560D01*
X6185Y5530D01*
X6095Y5530D01*
X6065Y5500D01*
X6065Y5455D01*
X6110Y5410D01*
X6170Y5410D01*
X6215Y5455D01*
X6005Y5470D02*
X6005Y5620D01*
X5975Y5650D01*
X5870Y5650D01*
X5840Y5620D01*
X5840Y5440D01*
X5870Y5410D01*
X5975Y5410D01*
X6005Y5440D01*
X6005Y5470D01*
X8440Y5010D02*
X8440Y5250D01*
X8350Y5250D01*
X8320Y5220D01*
X8320Y5160D01*
X8350Y5130D01*
X8440Y5130D01*
X8260Y5250D02*
X8260Y5040D01*
X8230Y5010D01*
X8125Y5010D01*
X8095Y5040D01*
X8095Y5250D01*
X8035Y5010D02*
X8035Y5250D01*
X7960Y5085D01*
X7885Y5250D01*
X7885Y5010D01*
X7825Y5010D02*
X7825Y5250D01*
X7735Y5250D01*
X7705Y5220D01*
X7705Y5160D01*
X7735Y5130D01*
X7825Y5130D01*
X7645Y5205D02*
X7600Y5250D01*
X7555Y5250D01*
X7510Y5205D01*
X7510Y5145D01*
X7540Y5115D01*
X7615Y5115D01*
X7645Y5085D01*
X7645Y5010D01*
X7510Y5010D01*
X7390Y5115D02*
X7300Y5115D01*
X7180Y5010D02*
X7090Y5010D01*
X7135Y5010D02*
X7135Y5250D01*
X7180Y5220D01*
X6910Y5250D02*
X7030Y5250D01*
X7030Y5145D01*
X6940Y5145D01*
X6910Y5115D01*
X6910Y5040D01*
X6940Y5010D01*
X7030Y5010D01*
X6790Y5115D02*
X6700Y5115D01*
X6430Y5205D02*
X6475Y5250D01*
X6535Y5250D01*
X6580Y5205D01*
X6580Y5160D01*
X6550Y5130D01*
X6460Y5130D01*
X6430Y5100D01*
X6430Y5055D01*
X6475Y5010D01*
X6535Y5010D01*
X6580Y5055D01*
X6205Y5205D02*
X6250Y5250D01*
X6325Y5250D01*
X6370Y5205D01*
X6370Y5055D01*
X6325Y5010D01*
X6250Y5010D01*
X6205Y5055D01*
X6145Y5010D02*
X6145Y5250D01*
X6040Y5250D02*
X6145Y5115D01*
X6025Y5010D01*
X8340Y4850D02*
X8490Y4850D01*
X8490Y4610D01*
X8490Y4730D02*
X8400Y4730D01*
X8280Y4850D02*
X8280Y4610D01*
X8145Y4610D01*
X8085Y4670D02*
X8085Y4820D01*
X8055Y4850D01*
X7950Y4850D01*
X7920Y4820D01*
X7920Y4640D01*
X7950Y4610D01*
X8055Y4610D01*
X8085Y4640D01*
X8085Y4670D01*
X7860Y4850D02*
X7815Y4610D01*
X7770Y4850D01*
X7725Y4610D01*
X7680Y4850D01*
X7620Y4610D02*
X7530Y4610D01*
X7575Y4610D02*
X7575Y4850D01*
X7620Y4820D01*
X7410Y4715D02*
X7320Y4715D01*
X7140Y4610D02*
X7050Y4610D01*
X7095Y4610D02*
X7095Y4850D01*
X7140Y4820D01*
X6930Y4715D02*
X6840Y4715D01*
X6720Y4610D02*
X6630Y4610D01*
X6720Y4850D02*
X6630Y4850D01*
X6675Y4850D02*
X6675Y4610D01*
X6570Y4820D02*
X6540Y4850D01*
X6465Y4850D01*
X6435Y4820D01*
X6435Y4760D01*
X6465Y4730D01*
X6510Y4730D01*
X6465Y4730D02*
X6435Y4700D01*
X6435Y4640D01*
X6465Y4610D01*
X6540Y4610D01*
X6570Y4640D01*
X6315Y4715D02*
X6225Y4715D01*
X6105Y4850D02*
X5925Y4850D01*
X6015Y4850D02*
X6015Y4610D01*
X5865Y4610D02*
X5685Y4850D01*
X5865Y4850D02*
X5685Y4610D01*
X8390Y4450D02*
X8540Y4450D01*
X8540Y4210D01*
X8540Y4330D02*
X8450Y4330D01*
X8330Y4450D02*
X8330Y4210D01*
X8195Y4210D01*
X8135Y4270D02*
X8135Y4420D01*
X8105Y4450D01*
X8000Y4450D01*
X7970Y4420D01*
X7970Y4240D01*
X8000Y4210D01*
X8105Y4210D01*
X8135Y4240D01*
X8135Y4270D01*
X7910Y4450D02*
X7865Y4210D01*
X7820Y4450D01*
X7775Y4210D01*
X7730Y4450D01*
X7670Y4405D02*
X7625Y4450D01*
X7580Y4450D01*
X7535Y4405D01*
X7535Y4345D01*
X7565Y4315D01*
X7640Y4315D01*
X7670Y4285D01*
X7670Y4210D01*
X7535Y4210D01*
X7415Y4315D02*
X7325Y4315D01*
X7145Y4270D02*
X7130Y4240D01*
X7115Y4225D01*
X7085Y4210D01*
X7025Y4210D01*
X6995Y4225D01*
X6980Y4240D01*
X6965Y4270D01*
X6965Y4390D01*
X6980Y4420D01*
X6995Y4435D01*
X7025Y4450D01*
X7085Y4450D01*
X7115Y4435D01*
X7130Y4420D01*
X7145Y4390D01*
X7145Y4270D01*
X7145Y4270D01*
X7145Y4210D02*
X6965Y4450D01*
X6845Y4315D02*
X6755Y4315D01*
X6635Y4210D02*
X6545Y4210D01*
X6635Y4450D02*
X6545Y4450D01*
X6590Y4450D02*
X6590Y4210D01*
X6485Y4405D02*
X6440Y4450D01*
X6395Y4450D01*
X6350Y4405D01*
X6350Y4345D01*
X6380Y4315D01*
X6455Y4315D01*
X6485Y4285D01*
X6485Y4210D01*
X6350Y4210D01*
X6230Y4315D02*
X6140Y4315D01*
X6020Y4210D02*
X6020Y4450D01*
X5915Y4450D01*
X5870Y4405D01*
X5870Y4360D01*
X5915Y4315D01*
X6020Y4315D01*
X5915Y4315D02*
X5855Y4210D01*
X5795Y4210D02*
X5615Y4450D01*
X5795Y4450D02*
X5615Y4210D01*
X8290Y3810D02*
X8290Y4050D01*
X8185Y4050D01*
X8140Y4005D01*
X8140Y3855D01*
X8185Y3810D01*
X8290Y3810D01*
X8290Y3810D01*
X8080Y4050D02*
X8080Y3810D01*
X7945Y4050D02*
X7945Y3810D01*
X8080Y3930D02*
X7945Y3930D01*
X7885Y4050D02*
X7705Y4050D01*
X7795Y4050D02*
X7795Y3810D01*
X7645Y3810D02*
X7555Y3810D01*
X7600Y3810D02*
X7600Y4050D01*
X7645Y4020D01*
X7375Y3915D02*
X7285Y3915D01*
X7105Y4050D02*
X7105Y3915D01*
X6985Y3915D01*
X7015Y4020D02*
X7015Y3810D01*
X8340Y3410D02*
X8340Y3650D01*
X8235Y3650D01*
X8190Y3605D01*
X8190Y3455D01*
X8235Y3410D01*
X8340Y3410D01*
X8340Y3410D01*
X8130Y3650D02*
X8130Y3410D01*
X7995Y3650D02*
X7995Y3410D01*
X8130Y3530D02*
X7995Y3530D01*
X7935Y3650D02*
X7755Y3650D01*
X7845Y3650D02*
X7845Y3410D01*
X7695Y3605D02*
X7650Y3650D01*
X7605Y3650D01*
X7560Y3605D01*
X7560Y3545D01*
X7590Y3515D01*
X7665Y3515D01*
X7695Y3485D01*
X7695Y3410D01*
X7560Y3410D01*
X7380Y3515D02*
X7290Y3515D01*
X6990Y3650D02*
X7110Y3650D01*
X7110Y3545D01*
X7020Y3545D01*
X6990Y3515D01*
X6990Y3440D01*
X7020Y3410D01*
X7110Y3410D01*
X8090Y3205D02*
X8135Y3250D01*
X8195Y3250D01*
X8240Y3205D01*
X8240Y3160D01*
X8210Y3130D01*
X8120Y3130D01*
X8090Y3100D01*
X8090Y3055D01*
X8135Y3010D01*
X8195Y3010D01*
X8240Y3055D01*
X8030Y3010D02*
X8030Y3250D01*
X7925Y3250D01*
X7880Y3205D01*
X7880Y3055D01*
X7925Y3010D01*
X8030Y3010D01*
X8030Y3010D01*
X7786Y3100D02*
X7674Y3100D01*
X7820Y3010D02*
X7730Y3250D01*
X7640Y3010D01*
X7400Y3115D02*
X7310Y3115D01*
X7130Y3205D02*
X7085Y3250D01*
X7040Y3250D01*
X6995Y3205D01*
X6995Y3145D01*
X7025Y3115D01*
X7100Y3115D01*
X7130Y3085D01*
X7130Y3010D01*
X6995Y3010D01*
X6875Y3115D02*
X6785Y3115D01*
X6665Y3010D02*
X6575Y3010D01*
X6665Y3250D02*
X6575Y3250D01*
X6620Y3250D02*
X6620Y3010D01*
X6515Y3010D02*
X6425Y3010D01*
X6470Y3010D02*
X6470Y3250D01*
X6515Y3220D01*
X8040Y2805D02*
X8085Y2850D01*
X8145Y2850D01*
X8190Y2805D01*
X8190Y2760D01*
X8160Y2730D01*
X8070Y2730D01*
X8040Y2700D01*
X8040Y2655D01*
X8085Y2610D01*
X8145Y2610D01*
X8190Y2655D01*
X7815Y2805D02*
X7860Y2850D01*
X7935Y2850D01*
X7980Y2805D01*
X7980Y2655D01*
X7935Y2610D01*
X7860Y2610D01*
X7815Y2655D01*
X7755Y2850D02*
X7755Y2610D01*
X7620Y2610D01*
X7380Y2715D02*
X7290Y2715D01*
X7110Y2820D02*
X7080Y2850D01*
X7005Y2850D01*
X6975Y2820D01*
X6975Y2760D01*
X7005Y2730D01*
X7050Y2730D01*
X7005Y2730D02*
X6975Y2700D01*
X6975Y2640D01*
X7005Y2610D01*
X7080Y2610D01*
X7110Y2640D01*
X6855Y2715D02*
X6765Y2715D01*
X6645Y2610D02*
X6555Y2610D01*
X6645Y2850D02*
X6555Y2850D01*
X6600Y2850D02*
X6600Y2610D01*
X6495Y2670D02*
X6480Y2640D01*
X6465Y2625D01*
X6435Y2610D01*
X6375Y2610D01*
X6345Y2625D01*
X6330Y2640D01*
X6315Y2670D01*
X6315Y2790D01*
X6330Y2820D01*
X6345Y2835D01*
X6375Y2850D01*
X6435Y2850D01*
X6465Y2835D01*
X6480Y2820D01*
X6495Y2790D01*
X6495Y2670D01*
X6495Y2670D01*
X6495Y2610D02*
X6315Y2850D01*
X8390Y2210D02*
X8390Y2450D01*
X8285Y2450D01*
X8255Y2420D01*
X8255Y2360D01*
X8285Y2330D01*
X8255Y2300D01*
X8255Y2240D01*
X8285Y2210D01*
X8390Y2210D01*
X8285Y2330D02*
X8390Y2330D01*
X8195Y2450D02*
X8195Y2240D01*
X8165Y2210D01*
X8060Y2210D01*
X8030Y2240D01*
X8030Y2450D01*
X7970Y2450D02*
X7805Y2450D01*
X7970Y2210D01*
X7805Y2210D01*
X7745Y2450D02*
X7580Y2450D01*
X7745Y2210D01*
X7580Y2210D01*
X7400Y2315D02*
X7310Y2315D01*
X7130Y2450D02*
X6995Y2450D01*
X7130Y2210D01*
X6875Y2315D02*
X6785Y2315D01*
X6665Y2210D02*
X6575Y2210D01*
X6665Y2450D02*
X6575Y2450D01*
X6620Y2450D02*
X6620Y2210D01*
X6515Y2450D02*
X6515Y2315D01*
X6395Y2315D01*
X6425Y2420D02*
X6425Y2210D01*
X8240Y1810D02*
X8240Y2050D01*
X8135Y2050D01*
X8105Y2020D01*
X8105Y1960D01*
X8135Y1930D01*
X8105Y1900D01*
X8105Y1840D01*
X8135Y1810D01*
X8240Y1810D01*
X8135Y1930D02*
X8240Y1930D01*
X8045Y2050D02*
X7865Y2050D01*
X7955Y2050D02*
X7955Y1810D01*
X7805Y1810D02*
X7805Y2050D01*
X7655Y1810D01*
X7655Y2050D01*
X7415Y1915D02*
X7325Y1915D01*
X7145Y1840D02*
X7115Y1810D01*
X7040Y1810D01*
X7010Y1840D01*
X7010Y1900D01*
X7040Y1930D01*
X7115Y1930D01*
X7145Y1900D01*
X7145Y1840D01*
X7145Y1840D01*
X7040Y1930D02*
X7010Y1960D01*
X7010Y2020D01*
X7040Y2050D01*
X7115Y2050D01*
X7145Y2020D01*
X7145Y1960D01*
X7115Y1930D01*
X8540Y1650D02*
X8690Y1650D01*
X8690Y1410D01*
X8690Y1530D02*
X8600Y1530D01*
X8480Y1650D02*
X8480Y1410D01*
X8345Y1410D01*
X8285Y1470D02*
X8285Y1620D01*
X8255Y1650D01*
X8150Y1650D01*
X8120Y1620D01*
X8120Y1440D01*
X8150Y1410D01*
X8255Y1410D01*
X8285Y1440D01*
X8285Y1470D01*
X8026Y1500D02*
X7914Y1500D01*
X8060Y1410D02*
X7970Y1650D01*
X7880Y1410D01*
X7820Y1650D02*
X7640Y1650D01*
X7730Y1650D02*
X7730Y1410D01*
X7580Y1410D02*
X7490Y1410D01*
X7535Y1410D02*
X7535Y1650D01*
X7580Y1620D01*
X7430Y1515D02*
X7340Y1515D01*
X7160Y1620D02*
X7130Y1650D01*
X7055Y1650D01*
X7025Y1620D01*
X7025Y1560D01*
X7055Y1530D01*
X7130Y1530D01*
X7160Y1560D01*
X7160Y1620D01*
X7160Y1620D01*
X7025Y1560D02*
X7025Y1410D01*
X8540Y1250D02*
X8690Y1250D01*
X8690Y1010D01*
X8690Y1130D02*
X8600Y1130D01*
X8480Y1250D02*
X8480Y1010D01*
X8345Y1010D01*
X8285Y1070D02*
X8285Y1220D01*
X8255Y1250D01*
X8150Y1250D01*
X8120Y1220D01*
X8120Y1040D01*
X8150Y1010D01*
X8255Y1010D01*
X8285Y1040D01*
X8285Y1070D01*
X8026Y1100D02*
X7914Y1100D01*
X8060Y1010D02*
X7970Y1250D01*
X7880Y1010D01*
X7820Y1250D02*
X7640Y1250D01*
X7730Y1250D02*
X7730Y1010D01*
X7580Y1205D02*
X7535Y1250D01*
X7490Y1250D01*
X7445Y1205D01*
X7445Y1145D01*
X7475Y1115D01*
X7550Y1115D01*
X7580Y1085D01*
X7580Y1010D01*
X7445Y1010D01*
X7385Y1115D02*
X7295Y1115D01*
X7175Y1205D02*
X7130Y1250D01*
X7085Y1250D01*
X7040Y1205D01*
X7040Y1145D01*
X7070Y1115D01*
X7145Y1115D01*
X7175Y1085D01*
X7175Y1010D01*
X7040Y1010D01*
X6980Y1070D02*
X6965Y1040D01*
X6950Y1025D01*
X6920Y1010D01*
X6860Y1010D01*
X6830Y1025D01*
X6815Y1040D01*
X6800Y1070D01*
X6800Y1190D01*
X6815Y1220D01*
X6830Y1235D01*
X6860Y1250D01*
X6920Y1250D01*
X6950Y1235D01*
X6965Y1220D01*
X6980Y1190D01*
X6980Y1070D01*
X6980Y1070D01*
X6980Y1010D02*
X6800Y1250D01*
X6680Y1115D02*
X6590Y1115D01*
X6436Y1100D02*
X6324Y1100D01*
X6470Y1010D02*
X6380Y1250D01*
X6290Y1010D01*
X6230Y1205D02*
X6185Y1250D01*
X6140Y1250D01*
X6095Y1205D01*
X6095Y1145D01*
X6125Y1115D01*
X6200Y1115D01*
X6230Y1085D01*
X6230Y1010D01*
X6095Y1010D01*
X8110Y7340D02*
X8110Y7700D01*
X7975Y7700D01*
X7930Y7655D01*
X7930Y7565D01*
X7975Y7520D01*
X8110Y7520D01*
X7840Y7542D02*
X7840Y7340D01*
X7705Y7509D02*
X7739Y7542D01*
X7806Y7542D01*
X7840Y7509D01*
X7840Y7498D01*
X7581Y7542D02*
X7615Y7509D01*
X7615Y7374D01*
X7581Y7340D01*
X7491Y7340D01*
X7458Y7374D01*
X7458Y7509D01*
X7491Y7542D01*
X7581Y7542D01*
X7368Y7340D02*
X7368Y7700D01*
X7255Y7452D01*
X7142Y7700D01*
X7142Y7340D01*
X7036Y7346D02*
X7036Y7621D01*
X7047Y7632D02*
X7036Y7644D01*
X7024Y7632D01*
X7036Y7621D01*
X7047Y7632D01*
X6777Y7498D02*
X6822Y7542D01*
X6889Y7542D01*
X6934Y7498D01*
X6934Y7385D01*
X6889Y7340D01*
X6822Y7340D01*
X6777Y7385D01*
X6687Y7542D02*
X6687Y7340D01*
X6552Y7509D02*
X6586Y7542D01*
X6653Y7542D01*
X6687Y7509D01*
X6687Y7498D01*
X6428Y7542D02*
X6462Y7509D01*
X6462Y7374D01*
X6428Y7340D01*
X6338Y7340D01*
X6304Y7374D01*
X6304Y7509D01*
X6338Y7542D01*
X6428Y7542D01*
X6124Y7340D02*
X6124Y7700D01*
X5989Y7700D01*
X5944Y7655D01*
X5944Y7565D01*
X5989Y7520D01*
X6124Y7520D01*
X5838Y7346D02*
X5838Y7621D01*
X5849Y7632D02*
X5838Y7644D01*
X5826Y7632D01*
X5838Y7621D01*
X5849Y7632D01*
X5736Y7542D02*
X5736Y7340D01*
X5736Y7509D02*
X5702Y7542D01*
X5612Y7542D01*
X5579Y7509D01*
X5579Y7340D01*
X5455Y7542D02*
X5489Y7509D01*
X5489Y7374D01*
X5455Y7340D01*
X5365Y7340D01*
X5331Y7374D01*
X5331Y7509D01*
X5365Y7542D01*
X5455Y7542D01*
X5241Y7542D02*
X5241Y7374D01*
X5208Y7340D01*
X5118Y7340D01*
X5084Y7374D01*
X5084Y7542D01*
X5084Y7385D02*
X5084Y7340D01*
X4994Y7542D02*
X4904Y7542D01*
X4904Y7340D02*
X4926Y7340D01*
X4949Y7362D01*
X4949Y7700D01*
X4668Y7509D02*
X4701Y7542D01*
X4780Y7542D01*
X4814Y7509D01*
X4814Y7464D01*
X4791Y7441D01*
X4690Y7441D01*
X4668Y7419D01*
X4668Y7374D01*
X4701Y7340D01*
X4780Y7340D01*
X4814Y7374D01*
X8190Y6950D02*
X8340Y6950D01*
X8340Y6710D01*
X8340Y6830D02*
X8250Y6830D01*
X8130Y6950D02*
X8130Y6740D01*
X8100Y6710D01*
X7995Y6710D01*
X7965Y6740D01*
X7965Y6950D01*
X7905Y6710D02*
X7905Y6950D01*
X7755Y6710D01*
X7755Y6950D01*
X7530Y6905D02*
X7575Y6950D01*
X7650Y6950D01*
X7695Y6905D01*
X7695Y6755D01*
X7650Y6710D01*
X7575Y6710D01*
X7530Y6755D01*
X7410Y6815D02*
X7320Y6815D01*
X7200Y6710D02*
X7200Y6950D01*
X7110Y6950D01*
X7080Y6920D01*
X7080Y6860D01*
X7110Y6830D01*
X7200Y6830D01*
X7020Y6710D02*
X6930Y6710D01*
X7020Y6950D02*
X6930Y6950D01*
X6975Y6950D02*
X6975Y6710D01*
X6870Y6710D02*
X6870Y6950D01*
X6720Y6710D01*
X6720Y6950D01*
X6600Y6815D02*
X6510Y6815D01*
X6356Y6800D02*
X6244Y6800D01*
X6390Y6710D02*
X6300Y6950D01*
X6210Y6710D01*
X6150Y6950D02*
X6150Y6710D01*
X6015Y6710D01*
X5955Y6950D02*
X5775Y6950D01*
X5865Y6950D02*
X5865Y6710D01*
X5655Y6815D02*
X5565Y6815D01*
X5410Y6800D02*
X5300Y6800D01*
X5445Y6710D02*
X5355Y6950D01*
X5265Y6710D01*
X5205Y6950D02*
X5205Y6710D01*
X5070Y6710D01*
X5010Y6950D02*
X4830Y6950D01*
X4920Y6950D02*
X4920Y6710D01*
X4770Y6905D02*
X4725Y6950D01*
X4680Y6950D01*
X4635Y6905D01*
X4635Y6845D01*
X4665Y6815D01*
X4740Y6815D01*
X4770Y6785D01*
X4770Y6710D01*
X4635Y6710D01*
%LNSTD*%
%LPD*%
G54D17*
X24000Y12000D02*
X0Y12000D01*
X0Y25000D01*
X24000Y25000D01*
X24000Y12000D01*
X1500Y18100D02*
X1150Y18100D01*
X1100Y18150D01*
X1100Y18325D01*
X1150Y18375D01*
X1500Y18375D01*
X1425Y18725D02*
X1500Y18650D01*
X1500Y18550D01*
X1425Y18475D01*
X1350Y18475D01*
X1300Y18525D01*
X1300Y18675D01*
X1250Y18725D01*
X1175Y18725D01*
X1100Y18650D01*
X1100Y18550D01*
X1175Y18475D01*
X1100Y18825D02*
X1500Y18825D01*
X1500Y19000D01*
X1450Y19050D01*
X1350Y19050D01*
X1300Y19000D01*
X1250Y19050D01*
X1150Y19050D01*
X1100Y19000D01*
X1100Y18825D01*
X1300Y19000D02*
X1300Y18825D01*
X18850Y22600D02*
X19250Y22600D01*
X19250Y22775D01*
X19175Y22850D01*
X18925Y22850D01*
X18850Y22775D01*
X18850Y22600D01*
X18850Y22600D01*
X18950Y22950D02*
X18900Y22975D01*
X18875Y23000D01*
X18850Y23050D01*
X18850Y23150D01*
X18875Y23200D01*
X18900Y23225D01*
X18950Y23250D01*
X19150Y23250D01*
X19200Y23225D01*
X19225Y23200D01*
X19250Y23150D01*
X19250Y23050D01*
X19225Y23000D01*
X19200Y22975D01*
X19150Y22950D01*
X18950Y22950D01*
X18950Y22950D01*
X18850Y22950D02*
X19250Y23250D01*
X17850Y22600D02*
X18250Y22600D01*
X18250Y22775D01*
X18175Y22850D01*
X17925Y22850D01*
X17850Y22775D01*
X17850Y22600D01*
X17850Y22600D01*
X17850Y22950D02*
X17850Y23100D01*
X17850Y23025D02*
X18250Y23025D01*
X18200Y22950D01*
X16850Y22600D02*
X17250Y22600D01*
X17250Y22775D01*
X17175Y22850D01*
X16925Y22850D01*
X16850Y22775D01*
X16850Y22600D01*
X16850Y22600D01*
X17175Y22950D02*
X17250Y23025D01*
X17250Y23100D01*
X17175Y23175D01*
X17075Y23175D01*
X17025Y23125D01*
X17025Y23000D01*
X16975Y22950D01*
X16850Y22950D01*
X16850Y23175D01*
X15850Y22600D02*
X16250Y22600D01*
X16250Y22775D01*
X16175Y22850D01*
X15925Y22850D01*
X15850Y22775D01*
X15850Y22600D01*
X15850Y22600D01*
X16200Y22950D02*
X16250Y23000D01*
X16250Y23125D01*
X16200Y23175D01*
X16100Y23175D01*
X16050Y23125D01*
X16050Y23050D01*
X16050Y23125D02*
X16000Y23175D01*
X15900Y23175D01*
X15850Y23125D01*
X15850Y23000D01*
X15900Y22950D01*
X14850Y22600D02*
X15250Y22600D01*
X15250Y22775D01*
X15175Y22850D01*
X14925Y22850D01*
X14850Y22775D01*
X14850Y22600D01*
X14850Y22600D01*
X15250Y22950D02*
X15025Y22950D01*
X15025Y23150D01*
X15200Y23100D02*
X14850Y23100D01*
X11850Y22600D02*
X12250Y22600D01*
X12250Y22775D01*
X12175Y22850D01*
X11925Y22850D01*
X11850Y22775D01*
X11850Y22600D01*
X11850Y22600D01*
X12250Y23150D02*
X12250Y22950D01*
X12075Y22950D01*
X12075Y23100D01*
X12025Y23150D01*
X11900Y23150D01*
X11850Y23100D01*
X11850Y22950D01*
X10850Y22600D02*
X11250Y22600D01*
X11250Y22775D01*
X11175Y22850D01*
X10925Y22850D01*
X10850Y22775D01*
X10850Y22600D01*
X10850Y22600D01*
X11250Y23025D02*
X11175Y22950D01*
X10900Y22950D01*
X10850Y23000D01*
X10850Y23125D01*
X10900Y23175D01*
X11000Y23175D01*
X11050Y23125D01*
X11050Y23000D01*
X11000Y22950D01*
X9850Y22600D02*
X10250Y22600D01*
X10250Y22775D01*
X10175Y22850D01*
X9925Y22850D01*
X9850Y22775D01*
X9850Y22600D01*
X9850Y22600D01*
X10250Y22950D02*
X10250Y23175D01*
X9850Y22950D01*
X8850Y22600D02*
X9250Y22600D01*
X9250Y22775D01*
X9175Y22850D01*
X8925Y22850D01*
X8850Y22775D01*
X8850Y22600D01*
X8850Y22600D01*
X8900Y22950D02*
X8850Y23000D01*
X8850Y23125D01*
X8900Y23175D01*
X9000Y23175D01*
X9050Y23125D01*
X9050Y23000D01*
X9000Y22950D01*
X8900Y22950D01*
X8900Y22950D01*
X9050Y23125D02*
X9100Y23175D01*
X9200Y23175D01*
X9250Y23125D01*
X9250Y23000D01*
X9200Y22950D01*
X9100Y22950D01*
X9050Y23000D01*
X7850Y22600D02*
X8250Y22600D01*
X8250Y22775D01*
X8175Y22850D01*
X8100Y22850D01*
X8025Y22775D01*
X8025Y22600D01*
X8025Y22775D02*
X7850Y22875D01*
X7850Y22975D02*
X8250Y23275D01*
X8250Y22975D02*
X7850Y23275D01*
X7250Y22600D02*
X7250Y22900D01*
X7250Y22750D02*
X6850Y22750D01*
X6850Y23000D02*
X7250Y23300D01*
X7250Y23000D02*
X6850Y23300D01*
X6200Y22350D02*
X6250Y22300D01*
X6250Y22150D01*
X6200Y22100D01*
X5900Y22100D01*
X5850Y22150D01*
X5850Y22300D01*
X5900Y22350D01*
X6050Y22350D01*
X6050Y22175D01*
X5850Y22450D02*
X6250Y22450D01*
X5850Y22700D01*
X6250Y22700D01*
X5850Y22800D02*
X6250Y22800D01*
X6250Y22975D01*
X6175Y23050D01*
X5925Y23050D01*
X5850Y22975D01*
X5850Y22800D01*
X5850Y22800D01*
X5200Y22100D02*
X5250Y22150D01*
X5250Y22275D01*
X5200Y22325D01*
X5100Y22325D01*
X5050Y22275D01*
X5050Y22200D01*
X5050Y22275D02*
X5000Y22325D01*
X4900Y22325D01*
X4850Y22275D01*
X4850Y22150D01*
X4900Y22100D01*
X5250Y22425D02*
X4850Y22575D01*
X5250Y22725D01*
X5200Y22825D02*
X5250Y22875D01*
X5250Y23000D01*
X5200Y23050D01*
X5100Y23050D01*
X5050Y23000D01*
X5050Y22925D01*
X5050Y23000D02*
X5000Y23050D01*
X4900Y23050D01*
X4850Y23000D01*
X4850Y22875D01*
X4900Y22825D01*
X14200Y22100D02*
X14250Y22150D01*
X14250Y22275D01*
X14200Y22325D01*
X14100Y22325D01*
X14050Y22275D01*
X14050Y22200D01*
X14050Y22275D02*
X14000Y22325D01*
X13900Y22325D01*
X13850Y22275D01*
X13850Y22150D01*
X13900Y22100D01*
X14250Y22425D02*
X13850Y22575D01*
X14250Y22725D01*
X14200Y22825D02*
X14250Y22875D01*
X14250Y23000D01*
X14200Y23050D01*
X14100Y23050D01*
X14050Y23000D01*
X14050Y22925D01*
X14050Y23000D02*
X14000Y23050D01*
X13900Y23050D01*
X13850Y23000D01*
X13850Y22875D01*
X13900Y22825D01*
X9200Y13600D02*
X9250Y13650D01*
X9250Y13775D01*
X9200Y13825D01*
X9100Y13825D01*
X9050Y13775D01*
X9050Y13700D01*
X9050Y13775D02*
X9000Y13825D01*
X8900Y13825D01*
X8850Y13775D01*
X8850Y13650D01*
X8900Y13600D01*
X9250Y13925D02*
X8850Y14075D01*
X9250Y14225D01*
X9200Y14325D02*
X9250Y14375D01*
X9250Y14500D01*
X9200Y14550D01*
X9100Y14550D01*
X9050Y14500D01*
X9050Y14425D01*
X9050Y14500D02*
X9000Y14550D01*
X8900Y14550D01*
X8850Y14500D01*
X8850Y14375D01*
X8900Y14325D01*
X11200Y13600D02*
X11250Y13650D01*
X11250Y13775D01*
X11200Y13825D01*
X11100Y13825D01*
X11050Y13775D01*
X11050Y13700D01*
X11050Y13775D02*
X11000Y13825D01*
X10900Y13825D01*
X10850Y13775D01*
X10850Y13650D01*
X10900Y13600D01*
X11250Y13925D02*
X10850Y14075D01*
X11250Y14225D01*
X11200Y14325D02*
X11250Y14375D01*
X11250Y14500D01*
X11200Y14550D01*
X11100Y14550D01*
X11050Y14500D01*
X11050Y14425D01*
X11050Y14500D02*
X11000Y14550D01*
X10900Y14550D01*
X10850Y14500D01*
X10850Y14375D01*
X10900Y14325D01*
X13200Y22350D02*
X13250Y22300D01*
X13250Y22150D01*
X13200Y22100D01*
X12900Y22100D01*
X12850Y22150D01*
X12850Y22300D01*
X12900Y22350D01*
X13050Y22350D01*
X13050Y22175D01*
X12850Y22450D02*
X13250Y22450D01*
X12850Y22700D01*
X13250Y22700D01*
X12850Y22800D02*
X13250Y22800D01*
X13250Y22975D01*
X13175Y23050D01*
X12925Y23050D01*
X12850Y22975D01*
X12850Y22800D01*
X12850Y22800D01*
X10200Y13850D02*
X10250Y13800D01*
X10250Y13650D01*
X10200Y13600D01*
X9900Y13600D01*
X9850Y13650D01*
X9850Y13800D01*
X9900Y13850D01*
X10050Y13850D01*
X10050Y13675D01*
X9850Y13950D02*
X10250Y13950D01*
X9850Y14200D01*
X10250Y14200D01*
X9850Y14300D02*
X10250Y14300D01*
X10250Y14475D01*
X10175Y14550D01*
X9925Y14550D01*
X9850Y14475D01*
X9850Y14300D01*
X9850Y14300D01*
X12200Y13850D02*
X12250Y13800D01*
X12250Y13650D01*
X12200Y13600D01*
X11900Y13600D01*
X11850Y13650D01*
X11850Y13800D01*
X11900Y13850D01*
X12050Y13850D01*
X12050Y13675D01*
X11850Y13950D02*
X12250Y13950D01*
X11850Y14200D01*
X12250Y14200D01*
X11850Y14300D02*
X12250Y14300D01*
X12250Y14475D01*
X12175Y14550D01*
X11925Y14550D01*
X11850Y14475D01*
X11850Y14300D01*
X11850Y14300D01*
X6200Y13850D02*
X6250Y13800D01*
X6250Y13650D01*
X6200Y13600D01*
X5900Y13600D01*
X5850Y13650D01*
X5850Y13800D01*
X5900Y13850D01*
X6050Y13850D01*
X6050Y13675D01*
X5850Y13950D02*
X6250Y13950D01*
X5850Y14200D01*
X6250Y14200D01*
X5850Y14300D02*
X6250Y14300D01*
X6250Y14475D01*
X6175Y14550D01*
X5925Y14550D01*
X5850Y14475D01*
X5850Y14300D01*
X5850Y14300D01*
X6850Y13600D02*
X7250Y13600D01*
X7250Y13775D01*
X7175Y13850D01*
X7100Y13850D01*
X7025Y13775D01*
X7025Y13600D01*
X7025Y13775D02*
X6850Y13875D01*
X7175Y14225D02*
X7250Y14150D01*
X7250Y14050D01*
X7175Y13975D01*
X7100Y13975D01*
X7050Y14025D01*
X7050Y14175D01*
X7000Y14225D01*
X6925Y14225D01*
X6850Y14150D01*
X6850Y14050D01*
X6925Y13975D01*
X7250Y14325D02*
X7250Y14625D01*
X7250Y14475D02*
X6850Y14475D01*
X8250Y13850D02*
X8250Y13600D01*
X7850Y13600D01*
X7850Y13850D01*
X8050Y13600D02*
X8050Y13750D01*
X7850Y13950D02*
X8250Y13950D01*
X7850Y14200D01*
X8250Y14200D01*
X5250Y13800D02*
X5250Y13600D01*
X5075Y13600D01*
X5075Y13750D01*
X5025Y13800D01*
X4900Y13800D01*
X4850Y13750D01*
X4850Y13600D01*
X5250Y13900D02*
X4850Y14050D01*
X5250Y14200D01*
X12850Y13600D02*
X13250Y13600D01*
X13250Y13775D01*
X13175Y13850D01*
X13100Y13850D01*
X13025Y13775D01*
X13025Y13600D01*
X13025Y13775D02*
X12850Y13875D01*
X13175Y14225D02*
X13250Y14150D01*
X13250Y14050D01*
X13175Y13975D01*
X13100Y13975D01*
X13050Y14025D01*
X13050Y14175D01*
X13000Y14225D01*
X12925Y14225D01*
X12850Y14150D01*
X12850Y14050D01*
X12925Y13975D01*
X13250Y14325D02*
X12850Y14475D01*
X13250Y14625D01*
X13850Y13600D02*
X14250Y13600D01*
X14250Y13775D01*
X14175Y13850D01*
X14100Y13850D01*
X14025Y13775D01*
X14025Y13600D01*
X14025Y13775D02*
X13850Y13875D01*
X14175Y14225D02*
X14250Y14150D01*
X14250Y14050D01*
X14175Y13975D01*
X14100Y13975D01*
X14050Y14025D01*
X14050Y14175D01*
X14000Y14225D01*
X13925Y14225D01*
X13850Y14150D01*
X13850Y14050D01*
X13925Y13975D01*
X14250Y14325D02*
X13850Y14475D01*
X14250Y14625D01*
X14850Y13600D02*
X15250Y13600D01*
X15250Y13775D01*
X15175Y13850D01*
X15100Y13850D01*
X15025Y13775D01*
X15025Y13600D01*
X15025Y13775D02*
X14850Y13875D01*
X15175Y14225D02*
X15250Y14150D01*
X15250Y14050D01*
X15175Y13975D01*
X15100Y13975D01*
X15050Y14025D01*
X15050Y14175D01*
X15000Y14225D01*
X14925Y14225D01*
X14850Y14150D01*
X14850Y14050D01*
X14925Y13975D01*
X15250Y14325D02*
X14850Y14475D01*
X15250Y14625D01*
X15850Y13600D02*
X16250Y13600D01*
X16250Y13775D01*
X16175Y13850D01*
X16100Y13850D01*
X16025Y13775D01*
X16025Y13600D01*
X16025Y13775D02*
X15850Y13875D01*
X16175Y14225D02*
X16250Y14150D01*
X16250Y14050D01*
X16175Y13975D01*
X16100Y13975D01*
X16050Y14025D01*
X16050Y14175D01*
X16000Y14225D01*
X15925Y14225D01*
X15850Y14150D01*
X15850Y14050D01*
X15925Y13975D01*
X16250Y14325D02*
X15850Y14475D01*
X16250Y14625D01*
X16850Y13600D02*
X17250Y13600D01*
X17250Y13775D01*
X17175Y13850D01*
X17100Y13850D01*
X17025Y13775D01*
X17025Y13600D01*
X17025Y13775D02*
X16850Y13875D01*
X17175Y14225D02*
X17250Y14150D01*
X17250Y14050D01*
X17175Y13975D01*
X17100Y13975D01*
X17050Y14025D01*
X17050Y14175D01*
X17000Y14225D01*
X16925Y14225D01*
X16850Y14150D01*
X16850Y14050D01*
X16925Y13975D01*
X17250Y14325D02*
X16850Y14475D01*
X17250Y14625D01*
X17850Y13600D02*
X18250Y13600D01*
X18250Y13775D01*
X18175Y13850D01*
X18100Y13850D01*
X18025Y13775D01*
X18025Y13600D01*
X18025Y13775D02*
X17850Y13875D01*
X18175Y14225D02*
X18250Y14150D01*
X18250Y14050D01*
X18175Y13975D01*
X18100Y13975D01*
X18050Y14025D01*
X18050Y14175D01*
X18000Y14225D01*
X17925Y14225D01*
X17850Y14150D01*
X17850Y14050D01*
X17925Y13975D01*
X18250Y14325D02*
X17850Y14475D01*
X18250Y14625D01*
X19000Y13658D02*
X19000Y13842D01*
X18850Y13600D02*
X19250Y13750D01*
X18850Y13900D01*
X18950Y14000D02*
X18900Y14025D01*
X18875Y14050D01*
X18850Y14100D01*
X18850Y14200D01*
X18875Y14250D01*
X18900Y14275D01*
X18950Y14300D01*
X19150Y14300D01*
X19200Y14275D01*
X19225Y14250D01*
X19250Y14200D01*
X19250Y14100D01*
X19225Y14050D01*
X19200Y14025D01*
X19150Y14000D01*
X18950Y14000D01*
X18950Y14000D01*
X18850Y14000D02*
X19250Y14300D01*
X18100Y17100D02*
X18500Y17100D01*
X18100Y17350D01*
X18500Y17350D01*
X18325Y17488D02*
X18288Y17450D01*
X18138Y17450D01*
X18100Y17488D01*
X18100Y17588D01*
X18138Y17625D01*
X18288Y17625D01*
X18325Y17588D01*
X18325Y17488D01*
X18150Y17725D02*
X18275Y17725D01*
X18325Y17775D01*
X18325Y17850D01*
X18275Y17900D01*
X18150Y17900D01*
X18100Y17850D01*
X18100Y17775D01*
X18150Y17725D01*
X18100Y17900D02*
X18500Y17900D01*
X18150Y18175D02*
X18100Y18125D01*
X18100Y18050D01*
X18150Y18000D01*
X18275Y18000D01*
X18325Y18050D01*
X18325Y18125D01*
X18275Y18175D01*
X18225Y18175D01*
X18225Y18000D01*
X18100Y18275D02*
X18500Y18275D01*
X18225Y18400D01*
X18500Y18525D01*
X18100Y18525D01*
X18425Y18900D02*
X18500Y18825D01*
X18500Y18700D01*
X18425Y18625D01*
X18175Y18625D01*
X18100Y18700D01*
X18100Y18825D01*
X18175Y18900D01*
X18500Y19000D02*
X18150Y19000D01*
X18100Y19050D01*
X18100Y19225D01*
X18150Y19275D01*
X18500Y19275D01*
X18325Y19475D02*
X18100Y19550D01*
X18325Y19625D01*
X18450Y19725D02*
X18500Y19775D01*
X18500Y19900D01*
X18450Y19950D01*
X18350Y19950D01*
X18300Y19900D01*
X18300Y19825D01*
X18300Y19900D02*
X18250Y19950D01*
X18150Y19950D01*
X18100Y19900D01*
X18100Y19775D01*
X18150Y19725D01*
X22250Y18158D02*
X22250Y18342D01*
X22100Y18100D02*
X22500Y18250D01*
X22100Y18400D01*
X22325Y18500D02*
X22100Y18500D01*
X22288Y18500D02*
X22325Y18538D01*
X22325Y18638D01*
X22288Y18675D01*
X22100Y18675D01*
X22325Y18775D02*
X22325Y18875D01*
X22100Y18875D02*
X22100Y18850D01*
X22125Y18825D01*
X22500Y18825D01*
X22150Y19150D02*
X22100Y19100D01*
X22100Y19025D01*
X22150Y18975D01*
X22275Y18975D01*
X22325Y19025D01*
X22325Y19100D01*
X22275Y19150D01*
X22225Y19150D01*
X22225Y18975D01*
X22325Y19250D02*
X22100Y19250D01*
X22288Y19250D02*
X22325Y19288D01*
X22325Y19388D01*
X22288Y19425D01*
X22100Y19425D01*
X22325Y19525D02*
X22100Y19525D01*
X22288Y19525D02*
X22325Y19562D01*
X22325Y19662D01*
X22288Y19700D01*
X22100Y19700D01*
X22150Y19800D02*
X22100Y19850D01*
X22100Y19925D01*
X22150Y19975D01*
X22275Y19975D01*
X22325Y19925D01*
X22325Y19850D01*
X22275Y19800D01*
X22150Y19800D01*
X22100Y19975D02*
X22325Y19975D01*
G54D18*
X23800Y16681D02*
X23275Y16681D01*
X23200Y16756D01*
X23200Y17019D01*
X23275Y17094D01*
X23800Y17094D01*
X23200Y17244D02*
X23200Y17469D01*
X23200Y17356D02*
X23800Y17356D01*
X23725Y17244D01*
G54D17*
X4300Y24900D02*
X4000Y24900D01*
X4150Y24900D02*
X4150Y24500D01*
X3650Y24900D02*
X3900Y24900D01*
X3900Y24500D01*
X3650Y24500D01*
X3900Y24700D02*
X3750Y24700D01*
X3550Y24500D02*
X3550Y24900D01*
X3425Y24625D01*
X3300Y24900D01*
X3300Y24500D01*
X3200Y24500D02*
X3200Y24900D01*
X3050Y24900D01*
X3000Y24850D01*
X3000Y24750D01*
X3050Y24700D01*
X3200Y24700D01*
X2900Y24825D02*
X2825Y24900D01*
X2750Y24900D01*
X2675Y24825D01*
X2675Y24725D01*
X2725Y24675D01*
X2850Y24675D01*
X2900Y24625D01*
X2900Y24500D01*
X2675Y24500D01*
X2225Y24900D02*
X2475Y24900D01*
X2475Y24500D01*
X2475Y24700D02*
X2325Y24700D01*
X2125Y24900D02*
X2125Y24500D01*
X1900Y24500D01*
X1800Y24600D02*
X1800Y24850D01*
X1750Y24900D01*
X1575Y24900D01*
X1525Y24850D01*
X1525Y24550D01*
X1575Y24500D01*
X1750Y24500D01*
X1800Y24550D01*
X1800Y24600D01*
X1425Y24900D02*
X1350Y24500D01*
X1275Y24900D01*
X1200Y24500D01*
X1125Y24900D01*
X1025Y24825D02*
X950Y24900D01*
X875Y24900D01*
X800Y24825D01*
X800Y24725D01*
X850Y24675D01*
X975Y24675D01*
X1025Y24625D01*
X1025Y24500D01*
X800Y24500D01*
X4000Y24300D02*
X3700Y24300D01*
X3850Y24300D02*
X3850Y23900D01*
X3350Y24300D02*
X3600Y24300D01*
X3600Y23900D01*
X3350Y23900D01*
X3600Y24100D02*
X3450Y24100D01*
X3250Y23900D02*
X3250Y24300D01*
X3125Y24025D01*
X3000Y24300D01*
X3000Y23900D01*
X2900Y23900D02*
X2900Y24300D01*
X2750Y24300D01*
X2700Y24250D01*
X2700Y24150D01*
X2750Y24100D01*
X2900Y24100D01*
X2600Y23900D02*
X2450Y23900D01*
X2525Y23900D02*
X2525Y24300D01*
X2600Y24250D01*
X2000Y24300D02*
X2250Y24300D01*
X2250Y23900D01*
X2250Y24100D02*
X2100Y24100D01*
X1900Y24300D02*
X1900Y23900D01*
X1675Y23900D01*
X1575Y24000D02*
X1575Y24250D01*
X1525Y24300D01*
X1350Y24300D01*
X1300Y24250D01*
X1300Y23950D01*
X1350Y23900D01*
X1525Y23900D01*
X1575Y23950D01*
X1575Y24000D01*
X1200Y24300D02*
X1125Y23900D01*
X1050Y24300D01*
X975Y23900D01*
X900Y24300D01*
X800Y23900D02*
X650Y23900D01*
X725Y23900D02*
X725Y24300D01*
X800Y24250D01*
X6900Y10200D02*
X7300Y10200D01*
X7300Y9975D01*
X7150Y9818D02*
X7150Y9632D01*
X7300Y9875D02*
X6900Y9725D01*
X7300Y9575D01*
X7300Y9475D02*
X6900Y9475D01*
X7175Y9350D01*
X6900Y9225D01*
X7300Y9225D01*
X7300Y9125D02*
X6900Y9125D01*
X6900Y8975D01*
X6950Y8925D01*
X7050Y8925D01*
X7100Y8975D01*
X7100Y9125D01*
X7300Y8825D02*
X7300Y8675D01*
X7300Y8750D02*
X6900Y8750D01*
X6950Y8825D01*
X5900Y10200D02*
X6300Y10200D01*
X6300Y9975D01*
X6150Y9818D02*
X6150Y9632D01*
X6300Y9875D02*
X5900Y9725D01*
X6300Y9575D01*
X6300Y9475D02*
X5900Y9475D01*
X6175Y9350D01*
X5900Y9225D01*
X6300Y9225D01*
X6300Y9125D02*
X5900Y9125D01*
X5900Y8975D01*
X5950Y8925D01*
X6050Y8925D01*
X6100Y8975D01*
X6100Y9125D01*
X5975Y8825D02*
X5900Y8750D01*
X5900Y8675D01*
X5975Y8600D01*
X6075Y8600D01*
X6125Y8650D01*
X6125Y8775D01*
X6175Y8825D01*
X6300Y8825D01*
X6300Y8600D01*
X5300Y10200D02*
X4900Y10200D01*
X4900Y10050D01*
X4950Y10000D01*
X5050Y10000D01*
X5100Y10050D01*
X5100Y10200D01*
X4900Y9900D02*
X5250Y9900D01*
X5300Y9850D01*
X5300Y9675D01*
X5250Y9625D01*
X4900Y9625D01*
X5300Y9525D02*
X4900Y9525D01*
X5175Y9400D01*
X4900Y9275D01*
X5300Y9275D01*
X5300Y9175D02*
X4900Y9175D01*
X4900Y9025D01*
X4950Y8975D01*
X5050Y8975D01*
X5100Y9025D01*
X5100Y9175D01*
X5300Y8875D02*
X5300Y8725D01*
X5300Y8800D02*
X4900Y8800D01*
X4950Y8875D01*
X4300Y10200D02*
X3900Y10200D01*
X3900Y10050D01*
X3950Y10000D01*
X4050Y10000D01*
X4100Y10050D01*
X4100Y10200D01*
X3900Y9900D02*
X4250Y9900D01*
X4300Y9850D01*
X4300Y9675D01*
X4250Y9625D01*
X3900Y9625D01*
X4300Y9525D02*
X3900Y9525D01*
X4175Y9400D01*
X3900Y9275D01*
X4300Y9275D01*
X4300Y9175D02*
X3900Y9175D01*
X3900Y9025D01*
X3950Y8975D01*
X4050Y8975D01*
X4100Y9025D01*
X4100Y9175D01*
X3975Y8875D02*
X3900Y8800D01*
X3900Y8725D01*
X3975Y8650D01*
X4075Y8650D01*
X4125Y8700D01*
X4125Y8825D01*
X4175Y8875D01*
X4300Y8875D01*
X4300Y8650D01*
X7900Y10200D02*
X8300Y10050D01*
X7900Y9900D01*
X7975Y9525D02*
X7900Y9600D01*
X7900Y9725D01*
X7975Y9800D01*
X8225Y9800D01*
X8300Y9725D01*
X8300Y9600D01*
X8225Y9525D01*
X7975Y9150D02*
X7900Y9225D01*
X7900Y9350D01*
X7975Y9425D01*
X8225Y9425D01*
X8300Y9350D01*
X8300Y9225D01*
X8225Y9150D01*
X8950Y9950D02*
X8900Y10000D01*
X8900Y10150D01*
X8950Y10200D01*
X9250Y10200D01*
X9300Y10150D01*
X9300Y10000D01*
X9250Y9950D01*
X9100Y9950D01*
X9100Y10125D01*
X9300Y9850D02*
X8900Y9850D01*
X9300Y9600D01*
X8900Y9600D01*
X9300Y9500D02*
X8900Y9500D01*
X8900Y9325D01*
X8975Y9250D01*
X9225Y9250D01*
X9300Y9325D01*
X9300Y9500D01*
X9300Y9500D01*
G54D18*
X12850Y27000D02*
X13100Y27000D01*
X13100Y26600D01*
X13100Y26800D02*
X12950Y26800D01*
X12750Y27000D02*
X12750Y26600D01*
X12525Y26600D01*
X12425Y26700D02*
X12425Y26950D01*
X12375Y27000D01*
X12200Y27000D01*
X12150Y26950D01*
X12150Y26650D01*
X12200Y26600D01*
X12375Y26600D01*
X12425Y26650D01*
X12425Y26700D01*
X11992Y26750D02*
X11808Y26750D01*
X12050Y26600D02*
X11900Y27000D01*
X11750Y26600D01*
X11650Y27000D02*
X11350Y27000D01*
X11500Y27000D02*
X11500Y26600D01*
X10900Y26925D02*
X10975Y27000D01*
X11075Y27000D01*
X11150Y26925D01*
X11150Y26850D01*
X11100Y26800D01*
X10950Y26800D01*
X10900Y26750D01*
X10900Y26675D01*
X10975Y26600D01*
X11075Y26600D01*
X11150Y26675D01*
X10800Y27000D02*
X10725Y26600D01*
X10650Y27000D01*
X10575Y26600D01*
X10500Y27000D01*
X10300Y26925D02*
X10225Y27000D01*
X10150Y27000D01*
X10075Y26925D01*
X10075Y26825D01*
X10125Y26775D01*
X10250Y26775D01*
X10300Y26725D01*
X10300Y26600D01*
X10075Y26600D01*
X12850Y26300D02*
X13100Y26300D01*
X13100Y25900D01*
X13100Y26100D02*
X12950Y26100D01*
X12750Y26300D02*
X12750Y25900D01*
X12525Y25900D01*
X12425Y26000D02*
X12425Y26250D01*
X12375Y26300D01*
X12200Y26300D01*
X12150Y26250D01*
X12150Y25950D01*
X12200Y25900D01*
X12375Y25900D01*
X12425Y25950D01*
X12425Y26000D01*
X11992Y26050D02*
X11808Y26050D01*
X12050Y25900D02*
X11900Y26300D01*
X11750Y25900D01*
X11650Y26300D02*
X11350Y26300D01*
X11500Y26300D02*
X11500Y25900D01*
X10900Y26225D02*
X10975Y26300D01*
X11075Y26300D01*
X11150Y26225D01*
X11150Y26150D01*
X11100Y26100D01*
X10950Y26100D01*
X10900Y26050D01*
X10900Y25975D01*
X10975Y25900D01*
X11075Y25900D01*
X11150Y25975D01*
X10800Y26300D02*
X10725Y25900D01*
X10650Y26300D01*
X10575Y25900D01*
X10500Y26300D01*
X10300Y25900D02*
X10150Y25900D01*
X10225Y25900D02*
X10225Y26300D01*
X10300Y26250D01*
X12600Y25300D02*
X12450Y25300D01*
X12600Y25700D02*
X12450Y25700D01*
X12525Y25700D02*
X12525Y25300D01*
X12350Y25300D02*
X12350Y25700D01*
X12100Y25300D01*
X12100Y25700D01*
X11900Y25475D02*
X11750Y25475D01*
X11300Y25650D02*
X11350Y25700D01*
X11500Y25700D01*
X11550Y25650D01*
X11550Y25350D01*
X11500Y25300D01*
X11350Y25300D01*
X11300Y25350D01*
X11300Y25500D01*
X11475Y25500D01*
X11200Y25300D02*
X11200Y25700D01*
X10950Y25300D01*
X10950Y25700D01*
X10850Y25300D02*
X10850Y25700D01*
X10675Y25700D01*
X10600Y25625D01*
X10600Y25375D01*
X10675Y25300D01*
X10850Y25300D01*
X10850Y25300D01*
X3750Y23650D02*
X3800Y23700D01*
X3950Y23700D01*
X4000Y23650D01*
X4000Y23350D01*
X3950Y23300D01*
X3800Y23300D01*
X3750Y23350D01*
X3750Y23500D01*
X3925Y23500D01*
X3650Y23300D02*
X3650Y23700D01*
X3400Y23300D01*
X3400Y23700D01*
X3300Y23300D02*
X3300Y23700D01*
X3125Y23700D01*
X3050Y23625D01*
X3050Y23375D01*
X3125Y23300D01*
X3300Y23300D01*
X3300Y23300D01*
X2850Y23475D02*
X2700Y23475D01*
X2500Y23300D02*
X2500Y23700D01*
X2325Y23700D01*
X2250Y23625D01*
X2250Y23375D01*
X2325Y23300D01*
X2500Y23300D01*
X2500Y23300D01*
X2050Y23475D02*
X1900Y23475D01*
X1700Y23700D02*
X1550Y23300D01*
X1400Y23700D01*
X1025Y23625D02*
X1100Y23700D01*
X1225Y23700D01*
X1300Y23625D01*
X1300Y23375D01*
X1225Y23300D01*
X1100Y23300D01*
X1025Y23375D01*
X650Y23625D02*
X725Y23700D01*
X850Y23700D01*
X925Y23625D01*
X925Y23375D01*
X850Y23300D01*
X725Y23300D01*
X650Y23375D01*
X8440Y6450D02*
X8440Y6210D01*
X8305Y6210D01*
X8210Y6300D02*
X8100Y6300D01*
X8245Y6210D02*
X8155Y6450D01*
X8065Y6210D01*
X8005Y6210D02*
X8005Y6450D01*
X7930Y6285D01*
X7855Y6450D01*
X7855Y6210D01*
X7795Y6210D02*
X7795Y6450D01*
X7705Y6450D01*
X7675Y6420D01*
X7675Y6360D01*
X7705Y6330D01*
X7795Y6330D01*
X7615Y6210D02*
X7525Y6210D01*
X7570Y6210D02*
X7570Y6450D01*
X7615Y6420D01*
X7405Y6315D02*
X7315Y6315D01*
X7195Y6210D02*
X7105Y6210D01*
X7150Y6210D02*
X7150Y6450D01*
X7195Y6420D01*
X7045Y6270D02*
X7030Y6240D01*
X7015Y6225D01*
X6985Y6210D01*
X6925Y6210D01*
X6895Y6225D01*
X6880Y6240D01*
X6865Y6270D01*
X6865Y6390D01*
X6880Y6420D01*
X6895Y6435D01*
X6925Y6450D01*
X6985Y6450D01*
X7015Y6435D01*
X7030Y6420D01*
X7045Y6390D01*
X7045Y6270D01*
X7045Y6270D01*
X7045Y6210D02*
X6865Y6450D01*
X6745Y6315D02*
X6655Y6315D01*
X6500Y6300D02*
X6390Y6300D01*
X6535Y6210D02*
X6445Y6450D01*
X6355Y6210D01*
X6295Y6210D02*
X6205Y6210D01*
X6250Y6210D02*
X6250Y6450D01*
X6295Y6420D01*
X6145Y6270D02*
X6130Y6240D01*
X6115Y6225D01*
X6085Y6210D01*
X6025Y6210D01*
X5995Y6225D01*
X5980Y6240D01*
X5965Y6270D01*
X5965Y6390D01*
X5980Y6420D01*
X5995Y6435D01*
X6025Y6450D01*
X6085Y6450D01*
X6115Y6435D01*
X6130Y6420D01*
X6145Y6390D01*
X6145Y6270D01*
X6145Y6270D01*
X6145Y6210D02*
X5965Y6450D01*
X8490Y6050D02*
X8490Y5810D01*
X8355Y5810D01*
X8260Y5900D02*
X8150Y5900D01*
X8295Y5810D02*
X8205Y6050D01*
X8115Y5810D01*
X8055Y5810D02*
X8055Y6050D01*
X7980Y5885D01*
X7905Y6050D01*
X7905Y5810D01*
X7845Y5810D02*
X7845Y6050D01*
X7755Y6050D01*
X7725Y6020D01*
X7725Y5960D01*
X7755Y5930D01*
X7845Y5930D01*
X7665Y6005D02*
X7620Y6050D01*
X7575Y6050D01*
X7530Y6005D01*
X7530Y5945D01*
X7560Y5915D01*
X7635Y5915D01*
X7665Y5885D01*
X7665Y5810D01*
X7530Y5810D01*
X7410Y5915D02*
X7320Y5915D01*
X7200Y5810D02*
X7110Y5810D01*
X7155Y5810D02*
X7155Y6050D01*
X7200Y6020D01*
X7005Y6050D02*
X7050Y6005D01*
X7050Y5840D01*
X7020Y5810D01*
X6945Y5810D01*
X6915Y5840D01*
X6915Y5900D01*
X6945Y5930D01*
X7020Y5930D01*
X7050Y5900D01*
X6795Y5915D02*
X6705Y5915D01*
X6585Y5810D02*
X6585Y6050D01*
X6510Y5885D01*
X6435Y6050D01*
X6435Y5810D01*
X6375Y5870D02*
X6375Y6020D01*
X6345Y6050D01*
X6240Y6050D01*
X6210Y6020D01*
X6210Y5840D01*
X6240Y5810D01*
X6345Y5810D01*
X6375Y5840D01*
X6375Y5870D01*
X6000Y6005D02*
X6045Y6050D01*
X6105Y6050D01*
X6150Y6005D01*
X6150Y5960D01*
X6120Y5930D01*
X6030Y5930D01*
X6000Y5900D01*
X6000Y5855D01*
X6045Y5810D01*
X6105Y5810D01*
X6150Y5855D01*
X5940Y5810D02*
X5850Y5810D01*
X5940Y6050D02*
X5850Y6050D01*
X5895Y6050D02*
X5895Y5810D01*
X8390Y5410D02*
X8390Y5650D01*
X8300Y5650D01*
X8270Y5620D01*
X8270Y5560D01*
X8300Y5530D01*
X8390Y5530D01*
X8210Y5650D02*
X8210Y5440D01*
X8180Y5410D01*
X8075Y5410D01*
X8045Y5440D01*
X8045Y5650D01*
X7985Y5410D02*
X7985Y5650D01*
X7910Y5485D01*
X7835Y5650D01*
X7835Y5410D01*
X7775Y5410D02*
X7775Y5650D01*
X7685Y5650D01*
X7655Y5620D01*
X7655Y5560D01*
X7685Y5530D01*
X7775Y5530D01*
X7595Y5410D02*
X7505Y5410D01*
X7550Y5410D02*
X7550Y5650D01*
X7595Y5620D01*
X7385Y5515D02*
X7295Y5515D01*
X7175Y5410D02*
X7085Y5410D01*
X7130Y5410D02*
X7130Y5650D01*
X7175Y5620D01*
X7025Y5650D02*
X7025Y5515D01*
X6905Y5515D01*
X6935Y5620D02*
X6935Y5410D01*
X6785Y5515D02*
X6695Y5515D01*
X6575Y5410D02*
X6575Y5650D01*
X6500Y5485D01*
X6425Y5650D01*
X6425Y5410D01*
X6365Y5410D02*
X6275Y5410D01*
X6365Y5650D02*
X6275Y5650D01*
X6320Y5650D02*
X6320Y5410D01*
X6065Y5605D02*
X6110Y5650D01*
X6170Y5650D01*
X6215Y5605D01*
X6215Y5560D01*
X6185Y5530D01*
X6095Y5530D01*
X6065Y5500D01*
X6065Y5455D01*
X6110Y5410D01*
X6170Y5410D01*
X6215Y5455D01*
X6005Y5470D02*
X6005Y5620D01*
X5975Y5650D01*
X5870Y5650D01*
X5840Y5620D01*
X5840Y5440D01*
X5870Y5410D01*
X5975Y5410D01*
X6005Y5440D01*
X6005Y5470D01*
X8440Y5010D02*
X8440Y5250D01*
X8350Y5250D01*
X8320Y5220D01*
X8320Y5160D01*
X8350Y5130D01*
X8440Y5130D01*
X8260Y5250D02*
X8260Y5040D01*
X8230Y5010D01*
X8125Y5010D01*
X8095Y5040D01*
X8095Y5250D01*
X8035Y5010D02*
X8035Y5250D01*
X7960Y5085D01*
X7885Y5250D01*
X7885Y5010D01*
X7825Y5010D02*
X7825Y5250D01*
X7735Y5250D01*
X7705Y5220D01*
X7705Y5160D01*
X7735Y5130D01*
X7825Y5130D01*
X7645Y5205D02*
X7600Y5250D01*
X7555Y5250D01*
X7510Y5205D01*
X7510Y5145D01*
X7540Y5115D01*
X7615Y5115D01*
X7645Y5085D01*
X7645Y5010D01*
X7510Y5010D01*
X7390Y5115D02*
X7300Y5115D01*
X7180Y5010D02*
X7090Y5010D01*
X7135Y5010D02*
X7135Y5250D01*
X7180Y5220D01*
X6910Y5250D02*
X7030Y5250D01*
X7030Y5145D01*
X6940Y5145D01*
X6910Y5115D01*
X6910Y5040D01*
X6940Y5010D01*
X7030Y5010D01*
X6790Y5115D02*
X6700Y5115D01*
X6430Y5205D02*
X6475Y5250D01*
X6535Y5250D01*
X6580Y5205D01*
X6580Y5160D01*
X6550Y5130D01*
X6460Y5130D01*
X6430Y5100D01*
X6430Y5055D01*
X6475Y5010D01*
X6535Y5010D01*
X6580Y5055D01*
X6205Y5205D02*
X6250Y5250D01*
X6325Y5250D01*
X6370Y5205D01*
X6370Y5055D01*
X6325Y5010D01*
X6250Y5010D01*
X6205Y5055D01*
X6145Y5010D02*
X6145Y5250D01*
X6040Y5250D02*
X6145Y5115D01*
X6025Y5010D01*
X8340Y4850D02*
X8490Y4850D01*
X8490Y4610D01*
X8490Y4730D02*
X8400Y4730D01*
X8280Y4850D02*
X8280Y4610D01*
X8145Y4610D01*
X8085Y4670D02*
X8085Y4820D01*
X8055Y4850D01*
X7950Y4850D01*
X7920Y4820D01*
X7920Y4640D01*
X7950Y4610D01*
X8055Y4610D01*
X8085Y4640D01*
X8085Y4670D01*
X7860Y4850D02*
X7815Y4610D01*
X7770Y4850D01*
X7725Y4610D01*
X7680Y4850D01*
X7620Y4610D02*
X7530Y4610D01*
X7575Y4610D02*
X7575Y4850D01*
X7620Y4820D01*
X7410Y4715D02*
X7320Y4715D01*
X7140Y4610D02*
X7050Y4610D01*
X7095Y4610D02*
X7095Y4850D01*
X7140Y4820D01*
X6930Y4715D02*
X6840Y4715D01*
X6720Y4610D02*
X6630Y4610D01*
X6720Y4850D02*
X6630Y4850D01*
X6675Y4850D02*
X6675Y4610D01*
X6570Y4820D02*
X6540Y4850D01*
X6465Y4850D01*
X6435Y4820D01*
X6435Y4760D01*
X6465Y4730D01*
X6510Y4730D01*
X6465Y4730D02*
X6435Y4700D01*
X6435Y4640D01*
X6465Y4610D01*
X6540Y4610D01*
X6570Y4640D01*
X6315Y4715D02*
X6225Y4715D01*
X6105Y4850D02*
X5925Y4850D01*
X6015Y4850D02*
X6015Y4610D01*
X5865Y4610D02*
X5685Y4850D01*
X5865Y4850D02*
X5685Y4610D01*
X8390Y4450D02*
X8540Y4450D01*
X8540Y4210D01*
X8540Y4330D02*
X8450Y4330D01*
X8330Y4450D02*
X8330Y4210D01*
X8195Y4210D01*
X8135Y4270D02*
X8135Y4420D01*
X8105Y4450D01*
X8000Y4450D01*
X7970Y4420D01*
X7970Y4240D01*
X8000Y4210D01*
X8105Y4210D01*
X8135Y4240D01*
X8135Y4270D01*
X7910Y4450D02*
X7865Y4210D01*
X7820Y4450D01*
X7775Y4210D01*
X7730Y4450D01*
X7670Y4405D02*
X7625Y4450D01*
X7580Y4450D01*
X7535Y4405D01*
X7535Y4345D01*
X7565Y4315D01*
X7640Y4315D01*
X7670Y4285D01*
X7670Y4210D01*
X7535Y4210D01*
X7415Y4315D02*
X7325Y4315D01*
X7145Y4270D02*
X7130Y4240D01*
X7115Y4225D01*
X7085Y4210D01*
X7025Y4210D01*
X6995Y4225D01*
X6980Y4240D01*
X6965Y4270D01*
X6965Y4390D01*
X6980Y4420D01*
X6995Y4435D01*
X7025Y4450D01*
X7085Y4450D01*
X7115Y4435D01*
X7130Y4420D01*
X7145Y4390D01*
X7145Y4270D01*
X7145Y4270D01*
X7145Y4210D02*
X6965Y4450D01*
X6845Y4315D02*
X6755Y4315D01*
X6635Y4210D02*
X6545Y4210D01*
X6635Y4450D02*
X6545Y4450D01*
X6590Y4450D02*
X6590Y4210D01*
X6485Y4405D02*
X6440Y4450D01*
X6395Y4450D01*
X6350Y4405D01*
X6350Y4345D01*
X6380Y4315D01*
X6455Y4315D01*
X6485Y4285D01*
X6485Y4210D01*
X6350Y4210D01*
X6230Y4315D02*
X6140Y4315D01*
X6020Y4210D02*
X6020Y4450D01*
X5915Y4450D01*
X5870Y4405D01*
X5870Y4360D01*
X5915Y4315D01*
X6020Y4315D01*
X5915Y4315D02*
X5855Y4210D01*
X5795Y4210D02*
X5615Y4450D01*
X5795Y4450D02*
X5615Y4210D01*
X8290Y3810D02*
X8290Y4050D01*
X8185Y4050D01*
X8140Y4005D01*
X8140Y3855D01*
X8185Y3810D01*
X8290Y3810D01*
X8290Y3810D01*
X8080Y4050D02*
X8080Y3810D01*
X7945Y4050D02*
X7945Y3810D01*
X8080Y3930D02*
X7945Y3930D01*
X7885Y4050D02*
X7705Y4050D01*
X7795Y4050D02*
X7795Y3810D01*
X7645Y3810D02*
X7555Y3810D01*
X7600Y3810D02*
X7600Y4050D01*
X7645Y4020D01*
X7375Y3915D02*
X7285Y3915D01*
X7105Y4050D02*
X7105Y3915D01*
X6985Y3915D01*
X7015Y4020D02*
X7015Y3810D01*
X8340Y3410D02*
X8340Y3650D01*
X8235Y3650D01*
X8190Y3605D01*
X8190Y3455D01*
X8235Y3410D01*
X8340Y3410D01*
X8340Y3410D01*
X8130Y3650D02*
X8130Y3410D01*
X7995Y3650D02*
X7995Y3410D01*
X8130Y3530D02*
X7995Y3530D01*
X7935Y3650D02*
X7755Y3650D01*
X7845Y3650D02*
X7845Y3410D01*
X7695Y3605D02*
X7650Y3650D01*
X7605Y3650D01*
X7560Y3605D01*
X7560Y3545D01*
X7590Y3515D01*
X7665Y3515D01*
X7695Y3485D01*
X7695Y3410D01*
X7560Y3410D01*
X7380Y3515D02*
X7290Y3515D01*
X6990Y3650D02*
X7110Y3650D01*
X7110Y3545D01*
X7020Y3545D01*
X6990Y3515D01*
X6990Y3440D01*
X7020Y3410D01*
X7110Y3410D01*
X8090Y3205D02*
X8135Y3250D01*
X8195Y3250D01*
X8240Y3205D01*
X8240Y3160D01*
X8210Y3130D01*
X8120Y3130D01*
X8090Y3100D01*
X8090Y3055D01*
X8135Y3010D01*
X8195Y3010D01*
X8240Y3055D01*
X8030Y3010D02*
X8030Y3250D01*
X7925Y3250D01*
X7880Y3205D01*
X7880Y3055D01*
X7925Y3010D01*
X8030Y3010D01*
X8030Y3010D01*
X7786Y3100D02*
X7674Y3100D01*
X7820Y3010D02*
X7730Y3250D01*
X7640Y3010D01*
X7400Y3115D02*
X7310Y3115D01*
X7130Y3205D02*
X7085Y3250D01*
X7040Y3250D01*
X6995Y3205D01*
X6995Y3145D01*
X7025Y3115D01*
X7100Y3115D01*
X7130Y3085D01*
X7130Y3010D01*
X6995Y3010D01*
X6875Y3115D02*
X6785Y3115D01*
X6665Y3010D02*
X6575Y3010D01*
X6665Y3250D02*
X6575Y3250D01*
X6620Y3250D02*
X6620Y3010D01*
X6515Y3010D02*
X6425Y3010D01*
X6470Y3010D02*
X6470Y3250D01*
X6515Y3220D01*
X8040Y2805D02*
X8085Y2850D01*
X8145Y2850D01*
X8190Y2805D01*
X8190Y2760D01*
X8160Y2730D01*
X8070Y2730D01*
X8040Y2700D01*
X8040Y2655D01*
X8085Y2610D01*
X8145Y2610D01*
X8190Y2655D01*
X7815Y2805D02*
X7860Y2850D01*
X7935Y2850D01*
X7980Y2805D01*
X7980Y2655D01*
X7935Y2610D01*
X7860Y2610D01*
X7815Y2655D01*
X7755Y2850D02*
X7755Y2610D01*
X7620Y2610D01*
X7380Y2715D02*
X7290Y2715D01*
X7110Y2820D02*
X7080Y2850D01*
X7005Y2850D01*
X6975Y2820D01*
X6975Y2760D01*
X7005Y2730D01*
X7050Y2730D01*
X7005Y2730D02*
X6975Y2700D01*
X6975Y2640D01*
X7005Y2610D01*
X7080Y2610D01*
X7110Y2640D01*
X6855Y2715D02*
X6765Y2715D01*
X6645Y2610D02*
X6555Y2610D01*
X6645Y2850D02*
X6555Y2850D01*
X6600Y2850D02*
X6600Y2610D01*
X6495Y2670D02*
X6480Y2640D01*
X6465Y2625D01*
X6435Y2610D01*
X6375Y2610D01*
X6345Y2625D01*
X6330Y2640D01*
X6315Y2670D01*
X6315Y2790D01*
X6330Y2820D01*
X6345Y2835D01*
X6375Y2850D01*
X6435Y2850D01*
X6465Y2835D01*
X6480Y2820D01*
X6495Y2790D01*
X6495Y2670D01*
X6495Y2670D01*
X6495Y2610D02*
X6315Y2850D01*
X8390Y2210D02*
X8390Y2450D01*
X8285Y2450D01*
X8255Y2420D01*
X8255Y2360D01*
X8285Y2330D01*
X8255Y2300D01*
X8255Y2240D01*
X8285Y2210D01*
X8390Y2210D01*
X8285Y2330D02*
X8390Y2330D01*
X8195Y2450D02*
X8195Y2240D01*
X8165Y2210D01*
X8060Y2210D01*
X8030Y2240D01*
X8030Y2450D01*
X7970Y2450D02*
X7805Y2450D01*
X7970Y2210D01*
X7805Y2210D01*
X7745Y2450D02*
X7580Y2450D01*
X7745Y2210D01*
X7580Y2210D01*
X7400Y2315D02*
X7310Y2315D01*
X7130Y2450D02*
X6995Y2450D01*
X7130Y2210D01*
X6875Y2315D02*
X6785Y2315D01*
X6665Y2210D02*
X6575Y2210D01*
X6665Y2450D02*
X6575Y2450D01*
X6620Y2450D02*
X6620Y2210D01*
X6515Y2450D02*
X6515Y2315D01*
X6395Y2315D01*
X6425Y2420D02*
X6425Y2210D01*
X8240Y1810D02*
X8240Y2050D01*
X8135Y2050D01*
X8105Y2020D01*
X8105Y1960D01*
X8135Y1930D01*
X8105Y1900D01*
X8105Y1840D01*
X8135Y1810D01*
X8240Y1810D01*
X8135Y1930D02*
X8240Y1930D01*
X8045Y2050D02*
X7865Y2050D01*
X7955Y2050D02*
X7955Y1810D01*
X7805Y1810D02*
X7805Y2050D01*
X7655Y1810D01*
X7655Y2050D01*
X7415Y1915D02*
X7325Y1915D01*
X7145Y1840D02*
X7115Y1810D01*
X7040Y1810D01*
X7010Y1840D01*
X7010Y1900D01*
X7040Y1930D01*
X7115Y1930D01*
X7145Y1900D01*
X7145Y1840D01*
X7145Y1840D01*
X7040Y1930D02*
X7010Y1960D01*
X7010Y2020D01*
X7040Y2050D01*
X7115Y2050D01*
X7145Y2020D01*
X7145Y1960D01*
X7115Y1930D01*
X8540Y1650D02*
X8690Y1650D01*
X8690Y1410D01*
X8690Y1530D02*
X8600Y1530D01*
X8480Y1650D02*
X8480Y1410D01*
X8345Y1410D01*
X8285Y1470D02*
X8285Y1620D01*
X8255Y1650D01*
X8150Y1650D01*
X8120Y1620D01*
X8120Y1440D01*
X8150Y1410D01*
X8255Y1410D01*
X8285Y1440D01*
X8285Y1470D01*
X8026Y1500D02*
X7914Y1500D01*
X8060Y1410D02*
X7970Y1650D01*
X7880Y1410D01*
X7820Y1650D02*
X7640Y1650D01*
X7730Y1650D02*
X7730Y1410D01*
X7580Y1410D02*
X7490Y1410D01*
X7535Y1410D02*
X7535Y1650D01*
X7580Y1620D01*
X7430Y1515D02*
X7340Y1515D01*
X7160Y1620D02*
X7130Y1650D01*
X7055Y1650D01*
X7025Y1620D01*
X7025Y1560D01*
X7055Y1530D01*
X7130Y1530D01*
X7160Y1560D01*
X7160Y1620D01*
X7160Y1620D01*
X7025Y1560D02*
X7025Y1410D01*
X8540Y1250D02*
X8690Y1250D01*
X8690Y1010D01*
X8690Y1130D02*
X8600Y1130D01*
X8480Y1250D02*
X8480Y1010D01*
X8345Y1010D01*
X8285Y1070D02*
X8285Y1220D01*
X8255Y1250D01*
X8150Y1250D01*
X8120Y1220D01*
X8120Y1040D01*
X8150Y1010D01*
X8255Y1010D01*
X8285Y1040D01*
X8285Y1070D01*
X8026Y1100D02*
X7914Y1100D01*
X8060Y1010D02*
X7970Y1250D01*
X7880Y1010D01*
X7820Y1250D02*
X7640Y1250D01*
X7730Y1250D02*
X7730Y1010D01*
X7580Y1205D02*
X7535Y1250D01*
X7490Y1250D01*
X7445Y1205D01*
X7445Y1145D01*
X7475Y1115D01*
X7550Y1115D01*
X7580Y1085D01*
X7580Y1010D01*
X7445Y1010D01*
X7385Y1115D02*
X7295Y1115D01*
X7175Y1205D02*
X7130Y1250D01*
X7085Y1250D01*
X7040Y1205D01*
X7040Y1145D01*
X7070Y1115D01*
X7145Y1115D01*
X7175Y1085D01*
X7175Y1010D01*
X7040Y1010D01*
X6980Y1070D02*
X6965Y1040D01*
X6950Y1025D01*
X6920Y1010D01*
X6860Y1010D01*
X6830Y1025D01*
X6815Y1040D01*
X6800Y1070D01*
X6800Y1190D01*
X6815Y1220D01*
X6830Y1235D01*
X6860Y1250D01*
X6920Y1250D01*
X6950Y1235D01*
X6965Y1220D01*
X6980Y1190D01*
X6980Y1070D01*
X6980Y1070D01*
X6980Y1010D02*
X6800Y1250D01*
X6680Y1115D02*
X6590Y1115D01*
X6436Y1100D02*
X6324Y1100D01*
X6470Y1010D02*
X6380Y1250D01*
X6290Y1010D01*
X6230Y1205D02*
X6185Y1250D01*
X6140Y1250D01*
X6095Y1205D01*
X6095Y1145D01*
X6125Y1115D01*
X6200Y1115D01*
X6230Y1085D01*
X6230Y1010D01*
X6095Y1010D01*
G54D17*
X3400Y7850D02*
X3400Y7850D01*
X9200Y7850D01*
X9200Y850D01*
X3400Y850D01*
X3400Y7850D01*
G54D18*
X8110Y7340D02*
X8110Y7700D01*
X7975Y7700D01*
X7930Y7655D01*
X7930Y7565D01*
X7975Y7520D01*
X8110Y7520D01*
X7840Y7542D02*
X7840Y7340D01*
X7705Y7509D02*
X7739Y7542D01*
X7806Y7542D01*
X7840Y7509D01*
X7840Y7498D01*
X7581Y7542D02*
X7615Y7509D01*
X7615Y7374D01*
X7581Y7340D01*
X7491Y7340D01*
X7458Y7374D01*
X7458Y7509D01*
X7491Y7542D01*
X7581Y7542D01*
X7368Y7340D02*
X7368Y7700D01*
X7255Y7452D01*
X7142Y7700D01*
X7142Y7340D01*
X7036Y7346D02*
X7036Y7621D01*
X7047Y7632D02*
X7036Y7644D01*
X7024Y7632D01*
X7036Y7621D01*
X7047Y7632D01*
X6777Y7498D02*
X6822Y7542D01*
X6889Y7542D01*
X6934Y7498D01*
X6934Y7385D01*
X6889Y7340D01*
X6822Y7340D01*
X6777Y7385D01*
X6687Y7542D02*
X6687Y7340D01*
X6552Y7509D02*
X6586Y7542D01*
X6653Y7542D01*
X6687Y7509D01*
X6687Y7498D01*
X6428Y7542D02*
X6462Y7509D01*
X6462Y7374D01*
X6428Y7340D01*
X6338Y7340D01*
X6304Y7374D01*
X6304Y7509D01*
X6338Y7542D01*
X6428Y7542D01*
X6124Y7340D02*
X6124Y7700D01*
X5989Y7700D01*
X5944Y7655D01*
X5944Y7565D01*
X5989Y7520D01*
X6124Y7520D01*
X5838Y7346D02*
X5838Y7621D01*
X5849Y7632D02*
X5838Y7644D01*
X5826Y7632D01*
X5838Y7621D01*
X5849Y7632D01*
X5736Y7542D02*
X5736Y7340D01*
X5736Y7509D02*
X5702Y7542D01*
X5612Y7542D01*
X5579Y7509D01*
X5579Y7340D01*
X5455Y7542D02*
X5489Y7509D01*
X5489Y7374D01*
X5455Y7340D01*
X5365Y7340D01*
X5331Y7374D01*
X5331Y7509D01*
X5365Y7542D01*
X5455Y7542D01*
X5241Y7542D02*
X5241Y7374D01*
X5208Y7340D01*
X5118Y7340D01*
X5084Y7374D01*
X5084Y7542D01*
X5084Y7385D02*
X5084Y7340D01*
X4994Y7542D02*
X4904Y7542D01*
X4904Y7340D02*
X4926Y7340D01*
X4949Y7362D01*
X4949Y7700D01*
X4668Y7509D02*
X4701Y7542D01*
X4780Y7542D01*
X4814Y7509D01*
X4814Y7464D01*
X4791Y7441D01*
X4690Y7441D01*
X4668Y7419D01*
X4668Y7374D01*
X4701Y7340D01*
X4780Y7340D01*
X4814Y7374D01*
X8190Y6950D02*
X8340Y6950D01*
X8340Y6710D01*
X8340Y6830D02*
X8250Y6830D01*
X8130Y6950D02*
X8130Y6740D01*
X8100Y6710D01*
X7995Y6710D01*
X7965Y6740D01*
X7965Y6950D01*
X7905Y6710D02*
X7905Y6950D01*
X7755Y6710D01*
X7755Y6950D01*
X7530Y6905D02*
X7575Y6950D01*
X7650Y6950D01*
X7695Y6905D01*
X7695Y6755D01*
X7650Y6710D01*
X7575Y6710D01*
X7530Y6755D01*
X7410Y6815D02*
X7320Y6815D01*
X7200Y6710D02*
X7200Y6950D01*
X7110Y6950D01*
X7080Y6920D01*
X7080Y6860D01*
X7110Y6830D01*
X7200Y6830D01*
X7020Y6710D02*
X6930Y6710D01*
X7020Y6950D02*
X6930Y6950D01*
X6975Y6950D02*
X6975Y6710D01*
X6870Y6710D02*
X6870Y6950D01*
X6720Y6710D01*
X6720Y6950D01*
X6600Y6815D02*
X6510Y6815D01*
X6356Y6800D02*
X6244Y6800D01*
X6390Y6710D02*
X6300Y6950D01*
X6210Y6710D01*
X6150Y6950D02*
X6150Y6710D01*
X6015Y6710D01*
X5955Y6950D02*
X5775Y6950D01*
X5865Y6950D02*
X5865Y6710D01*
X5655Y6815D02*
X5565Y6815D01*
X5410Y6800D02*
X5300Y6800D01*
X5445Y6710D02*
X5355Y6950D01*
X5265Y6710D01*
X5205Y6950D02*
X5205Y6710D01*
X5070Y6710D01*
X5010Y6950D02*
X4830Y6950D01*
X4920Y6950D02*
X4920Y6710D01*
X4770Y6905D02*
X4725Y6950D01*
X4680Y6950D01*
X4635Y6905D01*
X4635Y6845D01*
X4665Y6815D01*
X4740Y6815D01*
X4770Y6785D01*
X4770Y6710D01*
X4635Y6710D01*
M02*
