G04 -- Generated By PCBWeb Designer*
%FSLAX24Y24*%
%MOIN*%
%OFA0B0*%
%SFA1.0B1.0*%
%AMROTRECT*21,1,$1,$2,0,0,$3*%
%AMROTOBLONG*1,1,$7,$1,$2*1,1,$7,$3,$4*21,1,$5,$6,0,0,$8*%
%ADD10C,0.025*%
%ADD11R,0.055X0.055*%
%ADD12C,0.033*%
%ADD13R,0.065X0.065*%
%ADD14C,0.055*%
%ADD15C,0.033*%
%ADD16C,0.065*%
%ADD17C,0.01*%
%ADD18C,0.008*%
%ADD19C,0.024*%
%ADD20C,0.075*%
%ADD21C,0.04*%
%ADD22C,0.085*%
%ADD23R,0.075X0.075*%
%ADD24R,0.085X0.085*%
%ADD25C,0.026*%
%ADD26C,0.1969*%
%ADD27C,0.1378*%
%ADD28C,0.2069*%
%ADD29C,0.126*%
%ADD30C,0.074*%
%ADD31C,0.084*%
%ADD32C,0.0048*%
%ADD33C,0.0208*%
%ADD34C,0.005*%
%ADD35C,0.021*%
%ADD36R,0.4X0.5*%
%ADD37R,0.41X0.51*%
%ADD38C,0.001*%
%ADD39C,0.1221*%
%ADD40C,0.1321*%
%ADD41R,0.0197X0.0394*%
%ADD42R,0.0297X0.0494*%
%ADD43R,0.0591X0.0591*%
%ADD44R,0.0691X0.0691*%
%ADD45R,0.05X0.05*%
%ADD46R,0.06X0.06*%
%ADD47R,0.05X0.06*%
%ADD48R,0.06X0.07*%
%ADD49C,0.0*%
%ADD50C,0.0275*%
%ADD51C,0.018*%
G01*
%LNERASE*%
%LPC*%
G54D25*
X16400Y20950D02*
X16400Y21350D01*
X16200Y21150D02*
X16600Y21150D01*
X15450Y21200D02*
X15750Y21200D01*
X15600Y20900D02*
X15600Y20500D01*
X15775Y20500D01*
X15825Y20550D01*
X15825Y20650D01*
X15775Y20700D01*
X15825Y20750D01*
X15825Y20850D01*
X15775Y20900D01*
X15600Y20900D01*
X15775Y20700D02*
X15600Y20700D01*
X15925Y20500D02*
X16200Y20500D01*
X15925Y20900D01*
X16200Y20900D01*
X16300Y20500D02*
X16575Y20500D01*
X16300Y20900D01*
X16575Y20900D01*
G54D33*
X13135Y18808D02*
X13100Y18842D01*
X13100Y18888D01*
X13135Y18923D01*
X13169Y18923D01*
X13192Y18900D01*
X13192Y18831D01*
X13215Y18808D01*
X13250Y18808D01*
X13284Y18842D01*
X13284Y18888D01*
X13250Y18923D01*
X13284Y18761D02*
X13100Y18761D01*
X13100Y18692D01*
X13123Y18669D01*
X13169Y18669D01*
X13192Y18692D01*
X13192Y18761D01*
X13215Y18597D02*
X13215Y18511D01*
X13284Y18623D02*
X13100Y18554D01*
X13284Y18485D01*
X13284Y18439D02*
X13100Y18439D01*
X13100Y18358D01*
X13135Y18324D01*
X13169Y18324D01*
X13204Y18358D01*
X13204Y18439D01*
X13204Y18358D02*
X13284Y18312D01*
X13284Y18266D02*
X13100Y18266D01*
X13100Y18185D02*
X13204Y18266D01*
X13284Y18174D01*
X13100Y18013D02*
X13100Y18128D01*
X13284Y18128D01*
X13192Y18128D02*
X13192Y18059D01*
X13100Y17967D02*
X13261Y17967D01*
X13284Y17944D01*
X13284Y17863D01*
X13261Y17840D01*
X13100Y17840D01*
X13284Y17794D02*
X13100Y17794D01*
X13284Y17679D01*
X13100Y17679D01*
X13284Y17632D02*
X13284Y17494D01*
X13284Y17448D02*
X13100Y17448D01*
X13100Y17379D01*
X13123Y17356D01*
X13169Y17356D01*
X13192Y17379D01*
X13192Y17448D01*
X13284Y17310D02*
X13100Y17310D01*
X13100Y17229D01*
X13135Y17195D01*
X13169Y17195D01*
X13204Y17229D01*
X13204Y17310D01*
X13204Y17229D02*
X13284Y17183D01*
X13238Y17137D02*
X13123Y17137D01*
X13100Y17114D01*
X13100Y17033D01*
X13123Y17010D01*
X13261Y17010D01*
X13284Y17033D01*
X13284Y17114D01*
X13261Y17137D01*
X13238Y17137D01*
X13284Y16964D02*
X13284Y16826D01*
X13284Y16780D02*
X13100Y16780D01*
X13227Y16722D01*
X13100Y16665D01*
X13284Y16665D01*
X13284Y16619D02*
X13284Y16550D01*
X13100Y16619D02*
X13100Y16550D01*
X13100Y16584D02*
X13284Y16584D01*
X13135Y16377D02*
X13100Y16411D01*
X13100Y16469D01*
X13135Y16504D01*
X13250Y16504D01*
X13284Y16469D01*
X13284Y16411D01*
X13250Y16377D01*
X13284Y16331D02*
X13100Y16331D01*
X13100Y16250D01*
X13135Y16216D01*
X13169Y16216D01*
X13204Y16250D01*
X13204Y16331D01*
X13204Y16250D02*
X13284Y16204D01*
X13238Y16158D02*
X13123Y16158D01*
X13100Y16135D01*
X13100Y16054D01*
X13123Y16031D01*
X13261Y16031D01*
X13284Y16054D01*
X13284Y16135D01*
X13261Y16158D01*
X13238Y16158D01*
G54D35*
X1300Y20020D02*
X1300Y19780D01*
X1300Y19900D02*
X1620Y19900D01*
X1620Y19700D02*
X1300Y19460D01*
X1300Y19700D02*
X1620Y19460D01*
X1620Y19380D02*
X1620Y19260D01*
X1620Y19320D02*
X1300Y19320D01*
X1340Y19380D01*
X1615Y19085D02*
X1370Y19085D01*
X1360Y19095D02*
X1350Y19085D01*
X1360Y19075D01*
X1370Y19085D01*
X1360Y19095D01*
X1340Y18995D02*
X1300Y18955D01*
X1300Y18855D01*
X1340Y18815D01*
X1420Y18815D01*
X1460Y18855D01*
X1460Y18915D01*
X1460Y18855D02*
X1500Y18815D01*
X1580Y18815D01*
X1620Y18855D01*
X1620Y18955D01*
X1580Y18995D01*
X2620Y19920D02*
X2300Y19920D01*
X2300Y19780D01*
X2360Y19720D01*
X2420Y19720D01*
X2480Y19780D01*
X2480Y19920D01*
X2480Y19780D02*
X2620Y19700D01*
X2620Y19620D02*
X2300Y19380D01*
X2300Y19620D02*
X2620Y19380D01*
X2620Y19300D02*
X2620Y19180D01*
X2620Y19240D02*
X2300Y19240D01*
X2340Y19300D01*
X2615Y19005D02*
X2370Y19005D01*
X2360Y19015D02*
X2350Y19005D01*
X2360Y18995D01*
X2370Y19005D01*
X2360Y19015D01*
X2360Y18915D02*
X2300Y18855D01*
X2300Y18795D01*
X2360Y18735D01*
X2440Y18735D01*
X2480Y18775D01*
X2480Y18875D01*
X2520Y18915D01*
X2620Y18915D01*
X2620Y18735D01*
X3340Y19720D02*
X3300Y19760D01*
X3300Y19880D01*
X3340Y19920D01*
X3580Y19920D01*
X3620Y19880D01*
X3620Y19760D01*
X3580Y19720D01*
X3460Y19720D01*
X3460Y19860D01*
X3620Y19640D02*
X3300Y19640D01*
X3620Y19440D01*
X3300Y19440D01*
X3620Y19360D02*
X3300Y19360D01*
X3300Y19220D01*
X3360Y19160D01*
X3560Y19160D01*
X3620Y19220D01*
X3620Y19360D01*
X3620Y19360D01*
X4340Y19720D02*
X4300Y19760D01*
X4300Y19880D01*
X4340Y19920D01*
X4580Y19920D01*
X4620Y19880D01*
X4620Y19760D01*
X4580Y19720D01*
X4460Y19720D01*
X4460Y19860D01*
X4620Y19640D02*
X4300Y19640D01*
X4620Y19440D01*
X4300Y19440D01*
X4620Y19360D02*
X4300Y19360D01*
X4300Y19220D01*
X4360Y19160D01*
X4560Y19160D01*
X4620Y19220D01*
X4620Y19360D01*
X4620Y19360D01*
X5360Y19920D02*
X5300Y19860D01*
X5300Y19800D01*
X5360Y19740D01*
X5440Y19740D01*
X5480Y19780D01*
X5480Y19880D01*
X5520Y19920D01*
X5620Y19920D01*
X5620Y19740D01*
X5360Y19380D02*
X5300Y19440D01*
X5300Y19520D01*
X5360Y19580D01*
X5420Y19580D01*
X5460Y19540D01*
X5460Y19420D01*
X5500Y19380D01*
X5560Y19380D01*
X5620Y19440D01*
X5620Y19520D01*
X5560Y19580D01*
X5620Y19300D02*
X5300Y19300D01*
X5300Y19160D01*
X5360Y19100D01*
X5560Y19100D01*
X5620Y19160D01*
X5620Y19300D01*
X5620Y19300D01*
X5500Y18974D02*
X5500Y18826D01*
X5620Y19020D02*
X5300Y18900D01*
X5620Y18780D01*
X5615Y18605D02*
X5370Y18605D01*
X5360Y18615D02*
X5350Y18605D01*
X5360Y18595D01*
X5370Y18605D01*
X5360Y18615D01*
X5620Y18515D02*
X5620Y18395D01*
X5620Y18455D02*
X5300Y18455D01*
X5340Y18515D01*
X10300Y19920D02*
X10300Y19740D01*
X10620Y19920D01*
X10615Y19565D02*
X10370Y19565D01*
X10360Y19575D02*
X10350Y19565D01*
X10360Y19555D01*
X10370Y19565D01*
X10360Y19575D01*
X10300Y19415D02*
X10360Y19475D01*
X10580Y19475D01*
X10620Y19435D01*
X10620Y19335D01*
X10580Y19295D01*
X10500Y19295D01*
X10460Y19335D01*
X10460Y19435D01*
X10500Y19475D01*
X6480Y19900D02*
X6360Y19780D01*
X6360Y19900D02*
X6480Y19780D01*
X6340Y19840D02*
X6500Y19840D01*
X6420Y19920D02*
X6420Y19760D01*
X6340Y19680D02*
X6300Y19640D01*
X6300Y19540D01*
X6340Y19500D01*
X6420Y19500D01*
X6460Y19540D01*
X6460Y19600D01*
X6460Y19540D02*
X6500Y19500D01*
X6580Y19500D01*
X6620Y19540D01*
X6620Y19640D01*
X6580Y19680D01*
X6360Y19140D02*
X6300Y19200D01*
X6300Y19280D01*
X6360Y19340D01*
X6420Y19340D01*
X6460Y19300D01*
X6460Y19180D01*
X6500Y19140D01*
X6560Y19140D01*
X6620Y19200D01*
X6620Y19280D01*
X6560Y19340D01*
X6360Y18840D02*
X6300Y18900D01*
X6300Y19000D01*
X6360Y19060D01*
X6560Y19060D01*
X6620Y19000D01*
X6620Y18900D01*
X6560Y18840D01*
X6300Y18760D02*
X6620Y18760D01*
X6620Y18580D01*
X6615Y18405D02*
X6370Y18405D01*
X6360Y18415D02*
X6350Y18405D01*
X6360Y18395D01*
X6370Y18405D01*
X6360Y18415D01*
X6540Y18315D02*
X6580Y18295D01*
X6600Y18275D01*
X6620Y18235D01*
X6620Y18155D01*
X6600Y18115D01*
X6580Y18095D01*
X6540Y18075D01*
X6380Y18075D01*
X6340Y18095D01*
X6320Y18115D01*
X6300Y18155D01*
X6300Y18235D01*
X6320Y18275D01*
X6340Y18295D01*
X6380Y18315D01*
X6540Y18315D01*
X6540Y18315D01*
X6620Y18315D02*
X6300Y18075D01*
X7300Y19920D02*
X7480Y19920D01*
X7480Y19760D01*
X7340Y19800D02*
X7620Y19800D01*
X7500Y19554D02*
X7500Y19406D01*
X7620Y19600D02*
X7300Y19480D01*
X7620Y19360D01*
X7300Y19220D02*
X7360Y19280D01*
X7580Y19280D01*
X7620Y19240D01*
X7620Y19140D01*
X7580Y19100D01*
X7500Y19100D01*
X7460Y19140D01*
X7460Y19240D01*
X7500Y19280D01*
X8480Y19900D02*
X8360Y19780D01*
X8360Y19900D02*
X8480Y19780D01*
X8340Y19840D02*
X8500Y19840D01*
X8420Y19920D02*
X8420Y19760D01*
X8300Y19520D02*
X8300Y19680D01*
X8440Y19680D01*
X8440Y19560D01*
X8480Y19520D01*
X8580Y19520D01*
X8620Y19560D01*
X8620Y19680D01*
X9480Y19900D02*
X9360Y19780D01*
X9360Y19900D02*
X9480Y19780D01*
X9340Y19840D02*
X9500Y19840D01*
X9420Y19920D02*
X9420Y19760D01*
X9300Y19620D02*
X9360Y19680D01*
X9580Y19680D01*
X9620Y19640D01*
X9620Y19540D01*
X9580Y19500D01*
X9500Y19500D01*
X9460Y19540D01*
X9460Y19640D01*
X9500Y19680D01*
X9500Y19294D02*
X9500Y19146D01*
X9620Y19340D02*
X9300Y19220D01*
X9620Y19100D01*
X9300Y19020D02*
X9300Y18840D01*
X9620Y19020D01*
X11580Y19920D02*
X11620Y19880D01*
X11620Y19780D01*
X11580Y19740D01*
X11500Y19740D01*
X11460Y19780D01*
X11460Y19880D01*
X11500Y19920D01*
X11580Y19920D01*
X11580Y19920D01*
X11460Y19780D02*
X11420Y19740D01*
X11340Y19740D01*
X11300Y19780D01*
X11300Y19880D01*
X11340Y19920D01*
X11420Y19920D01*
X11460Y19880D01*
X11500Y19534D02*
X11500Y19386D01*
X11620Y19580D02*
X11300Y19460D01*
X11620Y19340D01*
X11580Y19260D02*
X11620Y19220D01*
X11620Y19120D01*
X11580Y19080D01*
X11500Y19080D01*
X11460Y19120D01*
X11460Y19220D01*
X11500Y19260D01*
X11580Y19260D01*
X11580Y19260D01*
X11460Y19120D02*
X11420Y19080D01*
X11340Y19080D01*
X11300Y19120D01*
X11300Y19220D01*
X11340Y19260D01*
X11420Y19260D01*
X11460Y19220D01*
X11350Y18920D02*
X11330Y18890D01*
X11330Y18870D01*
X11370Y18830D01*
X11370Y18810D01*
X11350Y18780D01*
X12480Y19900D02*
X12360Y19780D01*
X12360Y19900D02*
X12480Y19780D01*
X12340Y19840D02*
X12500Y19840D01*
X12420Y19920D02*
X12420Y19760D01*
X12340Y19680D02*
X12300Y19640D01*
X12300Y19540D01*
X12340Y19500D01*
X12420Y19500D01*
X12460Y19540D01*
X12460Y19640D01*
X12420Y19680D01*
X12340Y19680D01*
X12340Y19680D01*
X12420Y19500D02*
X12620Y19500D01*
X12500Y19294D02*
X12500Y19146D01*
X12620Y19340D02*
X12300Y19220D01*
X12620Y19100D01*
X12340Y19020D02*
X12300Y18980D01*
X12300Y18880D01*
X12340Y18840D01*
X12420Y18840D01*
X12460Y18880D01*
X12460Y18980D01*
X12420Y19020D01*
X12340Y19020D01*
X12340Y19020D01*
X12420Y18840D02*
X12620Y18840D01*
X12350Y18680D02*
X12330Y18650D01*
X12330Y18630D01*
X12370Y18590D01*
X12370Y18570D01*
X12350Y18540D01*
X12480Y16900D02*
X12360Y16780D01*
X12360Y16900D02*
X12480Y16780D01*
X12340Y16840D02*
X12500Y16840D01*
X12420Y16920D02*
X12420Y16760D01*
X12620Y16680D02*
X12620Y16560D01*
X12620Y16620D02*
X12300Y16620D01*
X12340Y16680D01*
X12540Y16480D02*
X12580Y16460D01*
X12600Y16440D01*
X12620Y16400D01*
X12620Y16320D01*
X12600Y16280D01*
X12580Y16260D01*
X12540Y16240D01*
X12380Y16240D01*
X12340Y16260D01*
X12320Y16280D01*
X12300Y16320D01*
X12300Y16400D01*
X12320Y16440D01*
X12340Y16460D01*
X12380Y16480D01*
X12540Y16480D01*
X12540Y16480D01*
X12620Y16480D02*
X12300Y16240D01*
X12500Y16034D02*
X12500Y15886D01*
X12620Y16080D02*
X12300Y15960D01*
X12620Y15840D01*
X12620Y15760D02*
X12620Y15640D01*
X12620Y15700D02*
X12300Y15700D01*
X12340Y15760D01*
X12540Y15560D02*
X12580Y15540D01*
X12600Y15520D01*
X12620Y15480D01*
X12620Y15400D01*
X12600Y15360D01*
X12580Y15340D01*
X12540Y15320D01*
X12380Y15320D01*
X12340Y15340D01*
X12320Y15360D01*
X12300Y15400D01*
X12300Y15480D01*
X12320Y15520D01*
X12340Y15540D01*
X12380Y15560D01*
X12540Y15560D01*
X12540Y15560D01*
X12620Y15560D02*
X12300Y15320D01*
X12350Y15160D02*
X12330Y15130D01*
X12330Y15110D01*
X12370Y15070D01*
X12370Y15050D01*
X12350Y15020D01*
X11620Y16820D02*
X11620Y16700D01*
X11620Y16760D02*
X11300Y16760D01*
X11340Y16820D01*
X11300Y16560D02*
X11360Y16620D01*
X11580Y16620D01*
X11620Y16580D01*
X11620Y16480D01*
X11580Y16440D01*
X11500Y16440D01*
X11460Y16480D01*
X11460Y16580D01*
X11500Y16620D01*
X11620Y16280D02*
X11300Y16280D01*
X11520Y16180D01*
X11300Y16080D01*
X11620Y16080D01*
X11540Y16000D02*
X11340Y16000D01*
X11300Y15960D01*
X11300Y15820D01*
X11340Y15780D01*
X11580Y15780D01*
X11620Y15820D01*
X11620Y15960D01*
X11580Y16000D01*
X11540Y16000D01*
X11360Y15500D02*
X11300Y15560D01*
X11300Y15640D01*
X11360Y15700D01*
X11420Y15700D01*
X11460Y15660D01*
X11460Y15540D01*
X11500Y15500D01*
X11560Y15500D01*
X11620Y15560D01*
X11620Y15640D01*
X11560Y15700D01*
X11620Y15420D02*
X11620Y15300D01*
X11300Y15420D02*
X11300Y15300D01*
X11300Y15360D02*
X11620Y15360D01*
X11350Y15140D02*
X11330Y15110D01*
X11330Y15090D01*
X11370Y15050D01*
X11370Y15030D01*
X11350Y15000D01*
X10620Y16820D02*
X10620Y16700D01*
X10620Y16760D02*
X10300Y16760D01*
X10340Y16820D01*
X10300Y16620D02*
X10480Y16620D01*
X10480Y16460D01*
X10340Y16500D02*
X10620Y16500D01*
X10620Y16300D02*
X10300Y16300D01*
X10520Y16200D01*
X10300Y16100D01*
X10620Y16100D01*
X10620Y16020D02*
X10620Y15900D01*
X10300Y16020D02*
X10300Y15900D01*
X10300Y15960D02*
X10620Y15960D01*
X10360Y15620D02*
X10300Y15680D01*
X10300Y15760D01*
X10360Y15820D01*
X10420Y15820D01*
X10460Y15780D01*
X10460Y15660D01*
X10500Y15620D01*
X10560Y15620D01*
X10620Y15680D01*
X10620Y15760D01*
X10560Y15820D01*
X10540Y15540D02*
X10340Y15540D01*
X10300Y15500D01*
X10300Y15360D01*
X10340Y15320D01*
X10580Y15320D01*
X10620Y15360D01*
X10620Y15500D01*
X10580Y15540D01*
X10540Y15540D01*
X10350Y15160D02*
X10330Y15130D01*
X10330Y15110D01*
X10370Y15070D01*
X10370Y15050D01*
X10350Y15020D01*
X9620Y16820D02*
X9620Y16700D01*
X9620Y16760D02*
X9300Y16760D01*
X9340Y16820D01*
X9300Y16460D02*
X9300Y16620D01*
X9440Y16620D01*
X9440Y16500D01*
X9480Y16460D01*
X9580Y16460D01*
X9620Y16500D01*
X9620Y16620D01*
X9360Y16100D02*
X9300Y16160D01*
X9300Y16240D01*
X9360Y16300D01*
X9420Y16300D01*
X9460Y16260D01*
X9460Y16140D01*
X9500Y16100D01*
X9560Y16100D01*
X9620Y16160D01*
X9620Y16240D01*
X9560Y16300D01*
X9360Y15800D02*
X9300Y15860D01*
X9300Y15960D01*
X9360Y16020D01*
X9560Y16020D01*
X9620Y15960D01*
X9620Y15860D01*
X9560Y15800D01*
X9300Y15720D02*
X9620Y15720D01*
X9620Y15540D01*
X9620Y15460D02*
X9300Y15460D01*
X9300Y15320D02*
X9480Y15460D01*
X9620Y15300D01*
X9350Y15140D02*
X9330Y15110D01*
X9330Y15090D01*
X9370Y15050D01*
X9370Y15030D01*
X9350Y15000D01*
X8620Y16220D02*
X8620Y16100D01*
X8620Y16160D02*
X8300Y16160D01*
X8340Y16220D01*
X8580Y16020D02*
X8620Y15980D01*
X8620Y15880D01*
X8580Y15840D01*
X8500Y15840D01*
X8460Y15880D01*
X8460Y15980D01*
X8500Y16020D01*
X8580Y16020D01*
X8580Y16020D01*
X8460Y15880D02*
X8420Y15840D01*
X8340Y15840D01*
X8300Y15880D01*
X8300Y15980D01*
X8340Y16020D01*
X8420Y16020D01*
X8460Y15980D01*
X8500Y15634D02*
X8500Y15486D01*
X8620Y15680D02*
X8300Y15560D01*
X8620Y15440D01*
X8540Y15360D02*
X8580Y15340D01*
X8600Y15320D01*
X8620Y15280D01*
X8620Y15200D01*
X8600Y15160D01*
X8580Y15140D01*
X8540Y15120D01*
X8380Y15120D01*
X8340Y15140D01*
X8320Y15160D01*
X8300Y15200D01*
X8300Y15280D01*
X8320Y15320D01*
X8340Y15340D01*
X8380Y15360D01*
X8540Y15360D01*
X8540Y15360D01*
X8620Y15360D02*
X8300Y15120D01*
X7620Y16120D02*
X7620Y16000D01*
X7620Y16060D02*
X7300Y16060D01*
X7340Y16120D01*
X7340Y15920D02*
X7300Y15880D01*
X7300Y15780D01*
X7340Y15740D01*
X7420Y15740D01*
X7460Y15780D01*
X7460Y15880D01*
X7420Y15920D01*
X7340Y15920D01*
X7340Y15920D01*
X7420Y15740D02*
X7620Y15740D01*
X7500Y15534D02*
X7500Y15386D01*
X7620Y15580D02*
X7300Y15460D01*
X7620Y15340D01*
X7620Y15260D02*
X7620Y15140D01*
X7620Y15200D02*
X7300Y15200D01*
X7340Y15260D01*
X6360Y16220D02*
X6300Y16160D01*
X6300Y16100D01*
X6360Y16040D01*
X6440Y16040D01*
X6480Y16080D01*
X6480Y16180D01*
X6520Y16220D01*
X6620Y16220D01*
X6620Y16040D01*
X6540Y15960D02*
X6580Y15940D01*
X6600Y15920D01*
X6620Y15880D01*
X6620Y15800D01*
X6600Y15760D01*
X6580Y15740D01*
X6540Y15720D01*
X6380Y15720D01*
X6340Y15740D01*
X6320Y15760D01*
X6300Y15800D01*
X6300Y15880D01*
X6320Y15920D01*
X6340Y15940D01*
X6380Y15960D01*
X6540Y15960D01*
X6540Y15960D01*
X6620Y15960D02*
X6300Y15720D01*
X6500Y15514D02*
X6500Y15366D01*
X6620Y15560D02*
X6300Y15440D01*
X6620Y15320D01*
X6360Y15240D02*
X6300Y15180D01*
X6300Y15120D01*
X6360Y15060D01*
X6440Y15060D01*
X6480Y15100D01*
X6480Y15200D01*
X6520Y15240D01*
X6620Y15240D01*
X6620Y15060D01*
X5360Y16120D02*
X5300Y16060D01*
X5300Y16000D01*
X5360Y15940D01*
X5440Y15940D01*
X5480Y15980D01*
X5480Y16080D01*
X5520Y16120D01*
X5620Y16120D01*
X5620Y15940D01*
X5620Y15860D02*
X5620Y15740D01*
X5620Y15800D02*
X5300Y15800D01*
X5340Y15860D01*
X5500Y15534D02*
X5500Y15386D01*
X5620Y15580D02*
X5300Y15460D01*
X5620Y15340D01*
X5340Y15260D02*
X5300Y15220D01*
X5300Y15120D01*
X5340Y15080D01*
X5420Y15080D01*
X5460Y15120D01*
X5460Y15180D01*
X5460Y15120D02*
X5500Y15080D01*
X5580Y15080D01*
X5620Y15120D01*
X5620Y15220D01*
X5580Y15260D01*
X4300Y15920D02*
X4620Y15800D01*
X4300Y15680D01*
X4360Y15380D02*
X4300Y15440D01*
X4300Y15540D01*
X4360Y15600D01*
X4560Y15600D01*
X4620Y15540D01*
X4620Y15440D01*
X4560Y15380D01*
X4360Y15080D02*
X4300Y15140D01*
X4300Y15240D01*
X4360Y15300D01*
X4560Y15300D01*
X4620Y15240D01*
X4620Y15140D01*
X4560Y15080D01*
X3620Y15820D02*
X3300Y15820D01*
X3300Y15680D01*
X3360Y15620D01*
X3420Y15620D01*
X3480Y15680D01*
X3480Y15820D01*
X3480Y15680D02*
X3620Y15600D01*
X3360Y15320D02*
X3300Y15380D01*
X3300Y15460D01*
X3360Y15520D01*
X3420Y15520D01*
X3460Y15480D01*
X3460Y15360D01*
X3500Y15320D01*
X3560Y15320D01*
X3620Y15380D01*
X3620Y15460D01*
X3560Y15520D01*
X3300Y15240D02*
X3300Y15000D01*
X3300Y15120D02*
X3620Y15120D01*
X2340Y15620D02*
X2300Y15660D01*
X2300Y15780D01*
X2340Y15820D01*
X2580Y15820D01*
X2620Y15780D01*
X2620Y15660D01*
X2580Y15620D01*
X2460Y15620D01*
X2460Y15760D01*
X2620Y15540D02*
X2300Y15540D01*
X2620Y15340D01*
X2300Y15340D01*
X2620Y15260D02*
X2300Y15260D01*
X2300Y15120D01*
X2360Y15060D01*
X2560Y15060D01*
X2620Y15120D01*
X2620Y15260D01*
X2620Y15260D01*
X1620Y15920D02*
X1300Y15920D01*
X1300Y15780D01*
X1360Y15720D01*
X1420Y15720D01*
X1480Y15780D01*
X1480Y15920D01*
X1480Y15780D02*
X1620Y15700D01*
X1500Y15574D02*
X1500Y15426D01*
X1620Y15620D02*
X1300Y15500D01*
X1620Y15380D01*
X1300Y15300D02*
X1620Y15240D01*
X1300Y15180D01*
X1620Y15120D01*
X1300Y15060D01*
X500Y17720D02*
X780Y17720D01*
X820Y17680D01*
X820Y17540D01*
X780Y17500D01*
X500Y17500D01*
X560Y17220D02*
X500Y17280D01*
X500Y17360D01*
X560Y17420D01*
X620Y17420D01*
X660Y17380D01*
X660Y17260D01*
X700Y17220D01*
X760Y17220D01*
X820Y17280D01*
X820Y17360D01*
X760Y17420D01*
X820Y17140D02*
X500Y17140D01*
X500Y17000D01*
X540Y16960D01*
X620Y16960D01*
X660Y17000D01*
X700Y16960D01*
X780Y16960D01*
X820Y17000D01*
X820Y17140D01*
X660Y17000D02*
X660Y17140D01*
G54D19*
X3150Y17875D02*
X3675Y17875D01*
X3750Y17800D01*
X3750Y17538D01*
X3675Y17462D01*
X3150Y17462D01*
X3150Y17312D02*
X3150Y16975D01*
X3750Y17312D01*
G54D35*
X16650Y10000D02*
X16650Y9600D01*
X16425Y9600D01*
X16325Y9600D02*
X16325Y10000D01*
X16200Y9725D01*
X16075Y10000D01*
X16075Y9600D01*
X15975Y10000D02*
X15750Y10000D01*
X15975Y9600D01*
X15650Y9650D02*
X15600Y9600D01*
X15475Y9600D01*
X15425Y9650D01*
X15425Y9750D01*
X15475Y9800D01*
X15600Y9800D01*
X15650Y9750D01*
X15650Y9650D01*
X15650Y9650D01*
X15475Y9800D02*
X15425Y9850D01*
X15425Y9950D01*
X15475Y10000D01*
X15600Y10000D01*
X15650Y9950D01*
X15650Y9850D01*
X15600Y9800D01*
X15325Y9700D02*
X15300Y9650D01*
X15275Y9625D01*
X15225Y9600D01*
X15125Y9600D01*
X15075Y9625D01*
X15050Y9650D01*
X15025Y9700D01*
X15025Y9900D01*
X15050Y9950D01*
X15075Y9975D01*
X15125Y10000D01*
X15225Y10000D01*
X15275Y9975D01*
X15300Y9950D01*
X15325Y9900D01*
X15325Y9700D01*
X15325Y9700D01*
X15325Y9600D02*
X15025Y10000D01*
X14725Y10000D02*
X14925Y10000D01*
X14925Y9825D01*
X14775Y9825D01*
X14725Y9775D01*
X14725Y9650D01*
X14775Y9600D01*
X14925Y9600D01*
G54D19*
X16138Y15650D02*
X15688Y15650D01*
X15912Y15650D02*
X15912Y15050D01*
X15538Y15050D02*
X15312Y15050D01*
X15425Y15050D02*
X15425Y15650D01*
X15538Y15575D01*
X19600Y7544D02*
X20125Y7544D01*
X20200Y7469D01*
X20200Y7206D01*
X20125Y7131D01*
X19600Y7131D01*
X20200Y6981D02*
X20200Y6756D01*
X20200Y6869D02*
X19600Y6869D01*
X19675Y6981D01*
X19600Y6306D02*
X19600Y6606D01*
X19862Y6606D01*
X19862Y6381D01*
X19938Y6306D01*
X20125Y6306D01*
X20200Y6381D01*
X20200Y6606D01*
G54D25*
X7400Y1000D02*
X7400Y650D01*
X7350Y600D01*
X7175Y600D01*
X7125Y650D01*
X7125Y1000D01*
X6775Y925D02*
X6850Y1000D01*
X6950Y1000D01*
X7025Y925D01*
X7025Y850D01*
X6975Y800D01*
X6825Y800D01*
X6775Y750D01*
X6775Y675D01*
X6850Y600D01*
X6950Y600D01*
X7025Y675D01*
X6675Y600D02*
X6675Y1000D01*
X6500Y1000D01*
X6450Y950D01*
X6450Y850D01*
X6500Y800D01*
X6450Y750D01*
X6450Y650D01*
X6500Y600D01*
X6675Y600D01*
X6500Y800D02*
X6675Y800D01*
X10850Y8450D02*
X10850Y8850D01*
X10675Y8850D01*
X10600Y8775D01*
X10600Y8525D01*
X10675Y8450D01*
X10850Y8450D01*
X10850Y8450D01*
X10500Y8550D02*
X10475Y8500D01*
X10450Y8475D01*
X10400Y8450D01*
X10300Y8450D01*
X10250Y8475D01*
X10225Y8500D01*
X10200Y8550D01*
X10200Y8750D01*
X10225Y8800D01*
X10250Y8825D01*
X10300Y8850D01*
X10400Y8850D01*
X10450Y8825D01*
X10475Y8800D01*
X10500Y8750D01*
X10500Y8550D01*
X10500Y8550D01*
X10500Y8450D02*
X10200Y8850D01*
X3650Y8450D02*
X3650Y8850D01*
X3475Y8850D01*
X3400Y8775D01*
X3400Y8525D01*
X3475Y8450D01*
X3650Y8450D01*
X3650Y8450D01*
X3300Y8450D02*
X3150Y8450D01*
X3225Y8450D02*
X3225Y8850D01*
X3300Y8800D01*
X3750Y7500D02*
X3750Y7900D01*
X3575Y7900D01*
X3500Y7825D01*
X3500Y7575D01*
X3575Y7500D01*
X3750Y7500D01*
X3750Y7500D01*
X3400Y7825D02*
X3325Y7900D01*
X3250Y7900D01*
X3175Y7825D01*
X3175Y7725D01*
X3225Y7675D01*
X3350Y7675D01*
X3400Y7625D01*
X3400Y7500D01*
X3175Y7500D01*
X3750Y6500D02*
X3750Y6900D01*
X3575Y6900D01*
X3500Y6825D01*
X3500Y6575D01*
X3575Y6500D01*
X3750Y6500D01*
X3750Y6500D01*
X3400Y6850D02*
X3350Y6900D01*
X3225Y6900D01*
X3175Y6850D01*
X3175Y6750D01*
X3225Y6700D01*
X3300Y6700D01*
X3225Y6700D02*
X3175Y6650D01*
X3175Y6550D01*
X3225Y6500D01*
X3350Y6500D01*
X3400Y6550D01*
X3750Y5500D02*
X3750Y5900D01*
X3575Y5900D01*
X3500Y5825D01*
X3500Y5575D01*
X3575Y5500D01*
X3750Y5500D01*
X3750Y5500D01*
X3400Y5900D02*
X3400Y5675D01*
X3200Y5675D01*
X3250Y5850D02*
X3250Y5500D01*
X10850Y7450D02*
X10850Y7850D01*
X10675Y7850D01*
X10600Y7775D01*
X10600Y7525D01*
X10675Y7450D01*
X10850Y7450D01*
X10850Y7450D01*
X10300Y7850D02*
X10500Y7850D01*
X10500Y7675D01*
X10350Y7675D01*
X10300Y7625D01*
X10300Y7500D01*
X10350Y7450D01*
X10500Y7450D01*
X10850Y6450D02*
X10850Y6850D01*
X10675Y6850D01*
X10600Y6775D01*
X10600Y6525D01*
X10675Y6450D01*
X10850Y6450D01*
X10850Y6450D01*
X10425Y6850D02*
X10500Y6775D01*
X10500Y6500D01*
X10450Y6450D01*
X10325Y6450D01*
X10275Y6500D01*
X10275Y6600D01*
X10325Y6650D01*
X10450Y6650D01*
X10500Y6600D01*
X10850Y5450D02*
X10850Y5850D01*
X10675Y5850D01*
X10600Y5775D01*
X10600Y5525D01*
X10675Y5450D01*
X10850Y5450D01*
X10850Y5450D01*
X10500Y5850D02*
X10275Y5850D01*
X10500Y5450D01*
X10850Y4450D02*
X10850Y4850D01*
X10675Y4850D01*
X10600Y4775D01*
X10600Y4525D01*
X10675Y4450D01*
X10850Y4450D01*
X10850Y4450D01*
X10500Y4500D02*
X10450Y4450D01*
X10325Y4450D01*
X10275Y4500D01*
X10275Y4600D01*
X10325Y4650D01*
X10450Y4650D01*
X10500Y4600D01*
X10500Y4500D01*
X10500Y4500D01*
X10325Y4650D02*
X10275Y4700D01*
X10275Y4800D01*
X10325Y4850D01*
X10450Y4850D01*
X10500Y4800D01*
X10500Y4700D01*
X10450Y4650D01*
X3750Y9450D02*
X3750Y9850D01*
X3575Y9850D01*
X3500Y9775D01*
X3500Y9700D01*
X3575Y9625D01*
X3750Y9625D01*
X3575Y9625D02*
X3475Y9450D01*
X3375Y9450D02*
X3075Y9850D01*
X3375Y9850D02*
X3075Y9450D01*
X3850Y10850D02*
X3550Y10850D01*
X3700Y10850D02*
X3700Y10450D01*
X3450Y10450D02*
X3150Y10850D01*
X3450Y10850D02*
X3150Y10450D01*
X10850Y3800D02*
X10800Y3850D01*
X10675Y3850D01*
X10625Y3800D01*
X10625Y3700D01*
X10675Y3650D01*
X10750Y3650D01*
X10675Y3650D02*
X10625Y3600D01*
X10625Y3500D01*
X10675Y3450D01*
X10800Y3450D01*
X10850Y3500D01*
X10525Y3850D02*
X10375Y3450D01*
X10225Y3850D01*
X10125Y3800D02*
X10075Y3850D01*
X9950Y3850D01*
X9900Y3800D01*
X9900Y3700D01*
X9950Y3650D01*
X10025Y3650D01*
X9950Y3650D02*
X9900Y3600D01*
X9900Y3500D01*
X9950Y3450D01*
X10075Y3450D01*
X10125Y3500D01*
X3900Y4800D02*
X3950Y4850D01*
X4100Y4850D01*
X4150Y4800D01*
X4150Y4500D01*
X4100Y4450D01*
X3950Y4450D01*
X3900Y4500D01*
X3900Y4650D01*
X4075Y4650D01*
X3800Y4450D02*
X3800Y4850D01*
X3550Y4450D01*
X3550Y4850D01*
X3450Y4450D02*
X3450Y4850D01*
X3275Y4850D01*
X3200Y4775D01*
X3200Y4525D01*
X3275Y4450D01*
X3450Y4450D01*
X3450Y4450D01*
X10850Y10450D02*
X10850Y10850D01*
X10675Y10850D01*
X10600Y10775D01*
X10600Y10700D01*
X10675Y10625D01*
X10850Y10625D01*
X10675Y10625D02*
X10575Y10450D01*
X10225Y10775D02*
X10300Y10850D01*
X10400Y10850D01*
X10475Y10775D01*
X10475Y10700D01*
X10425Y10650D01*
X10275Y10650D01*
X10225Y10600D01*
X10225Y10525D01*
X10300Y10450D01*
X10400Y10450D01*
X10475Y10525D01*
X10125Y10850D02*
X9825Y10850D01*
X9975Y10850D02*
X9975Y10450D01*
X3650Y3850D02*
X3850Y3850D01*
X3850Y3675D01*
X3700Y3675D01*
X3650Y3625D01*
X3650Y3500D01*
X3700Y3450D01*
X3850Y3450D01*
X3550Y3850D02*
X3400Y3450D01*
X3250Y3850D01*
X10792Y9600D02*
X10608Y9600D01*
X10850Y9450D02*
X10700Y9850D01*
X10550Y9450D01*
X10450Y9550D02*
X10425Y9500D01*
X10400Y9475D01*
X10350Y9450D01*
X10250Y9450D01*
X10200Y9475D01*
X10175Y9500D01*
X10150Y9550D01*
X10150Y9750D01*
X10175Y9800D01*
X10200Y9825D01*
X10250Y9850D01*
X10350Y9850D01*
X10400Y9825D01*
X10425Y9800D01*
X10450Y9750D01*
X10450Y9550D01*
X10450Y9550D01*
X10450Y9450D02*
X10150Y9850D01*
X8650Y7500D02*
X8575Y7100D01*
X8500Y7500D01*
X8425Y7100D01*
X8350Y7500D01*
X8075Y7150D02*
X8125Y7100D01*
X8200Y7100D01*
X8250Y7150D01*
X8250Y7275D01*
X8200Y7325D01*
X8125Y7325D01*
X8075Y7275D01*
X8075Y7225D01*
X8250Y7225D01*
X7975Y7325D02*
X7975Y7100D01*
X7975Y7288D02*
X7938Y7325D01*
X7900Y7325D01*
X7862Y7288D01*
X7825Y7325D01*
X7788Y7325D01*
X7750Y7288D01*
X7750Y7100D01*
X7862Y7288D02*
X7862Y7212D01*
X7612Y7325D02*
X7650Y7288D01*
X7650Y7138D01*
X7612Y7100D01*
X7512Y7100D01*
X7475Y7138D01*
X7475Y7288D01*
X7512Y7325D01*
X7612Y7325D01*
X7212Y7288D02*
X7250Y7325D01*
X7338Y7325D01*
X7375Y7288D01*
X7375Y7238D01*
X7350Y7212D01*
X7238Y7212D01*
X7212Y7188D01*
X7212Y7138D01*
X7250Y7100D01*
X7338Y7100D01*
X7375Y7138D01*
X7112Y7100D02*
X6812Y7100D01*
X6712Y7100D02*
X6712Y7500D01*
X6538Y7500D01*
X6462Y7425D01*
X6462Y7175D01*
X6538Y7100D01*
X6712Y7100D01*
X6712Y7100D01*
X6362Y7100D02*
X6212Y7100D01*
X6288Y7100D02*
X6288Y7500D01*
X6362Y7450D01*
X6112Y7100D02*
X5812Y7100D01*
X5712Y7100D02*
X5712Y7500D01*
X5588Y7225D01*
X5462Y7500D01*
X5462Y7100D01*
X5344Y7106D02*
X5344Y7412D01*
X5356Y7425D02*
X5344Y7438D01*
X5331Y7425D01*
X5344Y7412D01*
X5356Y7425D01*
X5231Y7325D02*
X5231Y7100D01*
X5231Y7288D02*
X5194Y7325D01*
X5094Y7325D01*
X5056Y7288D01*
X5056Y7100D01*
X4938Y7106D02*
X4938Y7412D01*
X4950Y7425D02*
X4938Y7438D01*
X4925Y7425D01*
X4938Y7412D01*
X4950Y7425D01*
X7842Y13000D02*
X7658Y13000D01*
X7900Y12850D02*
X7750Y13250D01*
X7600Y12850D01*
X7500Y13075D02*
X7500Y12850D01*
X7500Y13038D02*
X7462Y13075D01*
X7362Y13075D01*
X7325Y13038D01*
X7325Y12850D01*
X7225Y13075D02*
X7125Y13075D01*
X7125Y12850D02*
X7150Y12850D01*
X7175Y12875D01*
X7175Y13250D01*
X6850Y12900D02*
X6900Y12850D01*
X6975Y12850D01*
X7025Y12900D01*
X7025Y13025D01*
X6975Y13075D01*
X6900Y13075D01*
X6850Y13025D01*
X6850Y12975D01*
X7025Y12975D01*
X6750Y13075D02*
X6750Y12850D01*
X6750Y13038D02*
X6712Y13075D01*
X6612Y13075D01*
X6575Y13038D01*
X6575Y12850D01*
X6475Y13075D02*
X6475Y12850D01*
X6475Y13038D02*
X6438Y13075D01*
X6338Y13075D01*
X6300Y13038D01*
X6300Y12850D01*
X6200Y12900D02*
X6150Y12850D01*
X6075Y12850D01*
X6025Y12900D01*
X6025Y13025D01*
X6075Y13075D01*
X6150Y13075D01*
X6200Y13025D01*
X6200Y12900D01*
X6025Y12850D02*
X6025Y13075D01*
G54D19*
X7406Y12150D02*
X7406Y11625D01*
X7331Y11550D01*
X7069Y11550D01*
X6994Y11625D01*
X6994Y12150D01*
X6844Y12150D02*
X6844Y11812D01*
X6544Y11812D01*
X6619Y12075D02*
X6619Y11550D01*
G54D25*
X18000Y21150D02*
X18000Y21400D01*
X18400Y21400D01*
X18200Y21400D02*
X18200Y21250D01*
X18000Y21050D02*
X18400Y21050D01*
X18400Y20825D01*
X18300Y20725D02*
X18050Y20725D01*
X18000Y20675D01*
X18000Y20500D01*
X18050Y20450D01*
X18350Y20450D01*
X18400Y20500D01*
X18400Y20675D01*
X18350Y20725D01*
X18300Y20725D01*
X18250Y20292D02*
X18250Y20108D01*
X18400Y20350D02*
X18000Y20200D01*
X18400Y20050D01*
X18000Y19950D02*
X18000Y19650D01*
X18000Y19800D02*
X18400Y19800D01*
X18000Y17900D02*
X18000Y18150D01*
X18400Y18150D01*
X18200Y18150D02*
X18200Y18000D01*
X18000Y17800D02*
X18400Y17800D01*
X18400Y17575D01*
X18300Y17475D02*
X18050Y17475D01*
X18000Y17425D01*
X18000Y17250D01*
X18050Y17200D01*
X18350Y17200D01*
X18400Y17250D01*
X18400Y17425D01*
X18350Y17475D01*
X18300Y17475D01*
X18000Y17100D02*
X18400Y17025D01*
X18000Y16950D01*
X18400Y16875D01*
X18000Y16800D01*
X18000Y14150D02*
X18000Y13850D01*
X18000Y14000D02*
X18400Y14000D01*
X18000Y13500D02*
X18000Y13750D01*
X18400Y13750D01*
X18400Y13500D01*
X18200Y13750D02*
X18200Y13600D01*
X18400Y13400D02*
X18000Y13400D01*
X18275Y13275D01*
X18000Y13150D01*
X18400Y13150D01*
X18400Y13050D02*
X18000Y13050D01*
X18000Y12900D01*
X18050Y12850D01*
X18150Y12850D01*
X18200Y12900D01*
X18200Y13050D01*
X19860Y21640D02*
X19650Y21640D01*
X19755Y21640D02*
X19755Y22200D01*
X19860Y22130D01*
X19230Y22095D02*
X19125Y22200D01*
X19020Y22200D01*
X18915Y22095D01*
X18915Y21955D01*
X18985Y21885D01*
X19160Y21885D01*
X19230Y21815D01*
X19230Y21640D01*
X18915Y21640D01*
X19860Y18640D02*
X19650Y18640D01*
X19755Y18640D02*
X19755Y19200D01*
X19860Y19130D01*
X19230Y19095D02*
X19125Y19200D01*
X19020Y19200D01*
X18915Y19095D01*
X18915Y18955D01*
X18985Y18885D01*
X19160Y18885D01*
X19230Y18815D01*
X19230Y18640D01*
X18915Y18640D01*
X19860Y14640D02*
X19650Y14640D01*
X19755Y14640D02*
X19755Y15200D01*
X19860Y15130D01*
X19230Y15095D02*
X19125Y15200D01*
X19020Y15200D01*
X18915Y15095D01*
X18915Y14955D01*
X18985Y14885D01*
X19160Y14885D01*
X19230Y14815D01*
X19230Y14640D01*
X18915Y14640D01*
X17500Y18900D02*
X17900Y18750D01*
X17500Y18600D01*
X17575Y18225D02*
X17500Y18300D01*
X17500Y18425D01*
X17575Y18500D01*
X17825Y18500D01*
X17900Y18425D01*
X17900Y18300D01*
X17825Y18225D01*
X17575Y17850D02*
X17500Y17925D01*
X17500Y18050D01*
X17575Y18125D01*
X17825Y18125D01*
X17900Y18050D01*
X17900Y17925D01*
X17825Y17850D01*
X17725Y17650D02*
X17725Y17500D01*
X17900Y17300D02*
X17500Y17300D01*
X17500Y17125D01*
X17575Y17050D01*
X17825Y17050D01*
X17900Y17125D01*
X17900Y17300D01*
X17900Y17300D01*
X17725Y16850D02*
X17725Y16700D01*
X17550Y16250D02*
X17500Y16300D01*
X17500Y16450D01*
X17550Y16500D01*
X17850Y16500D01*
X17900Y16450D01*
X17900Y16300D01*
X17850Y16250D01*
X17700Y16250D01*
X17700Y16425D01*
X17900Y16150D02*
X17500Y16150D01*
X17900Y15900D01*
X17500Y15900D01*
X17900Y15800D02*
X17500Y15800D01*
X17500Y15625D01*
X17575Y15550D01*
X17825Y15550D01*
X17900Y15625D01*
X17900Y15800D01*
X17900Y15800D01*
X13650Y22600D02*
X13650Y23000D01*
X13475Y23000D01*
X13425Y22950D01*
X13425Y22850D01*
X13475Y22800D01*
X13425Y22750D01*
X13425Y22650D01*
X13475Y22600D01*
X13650Y22600D01*
X13475Y22800D02*
X13650Y22800D01*
X13325Y23000D02*
X13025Y23000D01*
X13175Y23000D02*
X13175Y22600D01*
X12925Y22600D02*
X12925Y23000D01*
X12675Y22600D01*
X12675Y23000D01*
G54D19*
X1170Y21370D02*
X1130Y21330D01*
X1070Y21330D01*
X1010Y21390D01*
X1010Y21650D01*
X1110Y21650D02*
X930Y21650D01*
X850Y21330D02*
X730Y21330D01*
X790Y21330D02*
X790Y21650D01*
X850Y21610D01*
X1420Y12620D02*
X1380Y12580D01*
X1320Y12580D01*
X1260Y12640D01*
X1260Y12900D01*
X1360Y12900D02*
X1180Y12900D01*
X1100Y12840D02*
X1040Y12900D01*
X980Y12900D01*
X920Y12840D01*
X920Y12760D01*
X960Y12720D01*
X1060Y12720D01*
X1100Y12680D01*
X1100Y12580D01*
X920Y12580D01*
X15420Y7870D02*
X15380Y7830D01*
X15320Y7830D01*
X15260Y7890D01*
X15260Y8150D01*
X15360Y8150D02*
X15180Y8150D01*
X15100Y8110D02*
X15060Y8150D01*
X14960Y8150D01*
X14920Y8110D01*
X14920Y8030D01*
X14960Y7990D01*
X15020Y7990D01*
X14960Y7990D02*
X14920Y7950D01*
X14920Y7870D01*
X14960Y7830D01*
X15060Y7830D01*
X15100Y7870D01*
X9170Y21995D02*
X9130Y21955D01*
X9070Y21955D01*
X9010Y22015D01*
X9010Y22275D01*
X9110Y22275D02*
X8930Y22275D01*
X8850Y22275D02*
X8850Y22095D01*
X8690Y22095D01*
X8730Y22235D02*
X8730Y21955D01*
X10260Y21775D02*
X10420Y21775D01*
X10420Y21635D01*
X10300Y21635D01*
X10260Y21595D01*
X10260Y21495D01*
X10300Y21455D01*
X10420Y21455D01*
X10180Y21775D02*
X10060Y21455D01*
X9940Y21775D01*
X9740Y21515D02*
X9860Y21615D01*
X9740Y21715D01*
X9660Y21715D02*
X9540Y21615D01*
X9660Y21515D01*
X9460Y21455D02*
X9460Y21775D01*
X9320Y21775D01*
X9260Y21715D01*
X9260Y21515D01*
X9320Y21455D01*
X9460Y21455D01*
X9460Y21455D01*
X9120Y21775D02*
X9180Y21715D01*
X9180Y21495D01*
X9140Y21455D01*
X9040Y21455D01*
X9000Y21495D01*
X9000Y21575D01*
X9040Y21615D01*
X9140Y21615D01*
X9180Y21575D01*
G54D25*
X2565Y22745D02*
X2600Y22710D01*
X2600Y22605D01*
X2565Y22570D01*
X2355Y22570D01*
X2320Y22605D01*
X2320Y22710D01*
X2355Y22745D01*
X2460Y22745D01*
X2460Y22622D01*
X2320Y22815D02*
X2600Y22815D01*
X2320Y22990D01*
X2600Y22990D01*
X2320Y23060D02*
X2600Y23060D01*
X2600Y23182D01*
X2548Y23235D01*
X2372Y23235D01*
X2320Y23182D01*
X2320Y23060D01*
X2320Y23060D01*
X3100Y22570D02*
X2820Y22675D01*
X3100Y22780D01*
X3048Y23042D02*
X3100Y22990D01*
X3100Y22902D01*
X3048Y22850D01*
X2872Y22850D01*
X2820Y22902D01*
X2820Y22990D01*
X2872Y23042D01*
X3048Y23305D02*
X3100Y23252D01*
X3100Y23165D01*
X3048Y23112D01*
X2872Y23112D01*
X2820Y23165D01*
X2820Y23252D01*
X2872Y23305D01*
X3548Y22745D02*
X3600Y22692D01*
X3600Y22622D01*
X3548Y22570D01*
X3495Y22570D01*
X3460Y22605D01*
X3460Y22710D01*
X3425Y22745D01*
X3372Y22745D01*
X3320Y22692D01*
X3320Y22622D01*
X3372Y22570D01*
X3548Y23008D02*
X3600Y22955D01*
X3600Y22868D01*
X3548Y22815D01*
X3372Y22815D01*
X3320Y22868D01*
X3320Y22955D01*
X3372Y23008D01*
X3600Y23078D02*
X3320Y23078D01*
X3320Y23235D01*
X4048Y22745D02*
X4100Y22692D01*
X4100Y22622D01*
X4048Y22570D01*
X3995Y22570D01*
X3960Y22605D01*
X3960Y22710D01*
X3925Y22745D01*
X3872Y22745D01*
X3820Y22692D01*
X3820Y22622D01*
X3872Y22570D01*
X3820Y22815D02*
X4100Y22815D01*
X4100Y22938D01*
X4048Y22990D01*
X3872Y22990D01*
X3820Y22938D01*
X3820Y22815D01*
X3820Y22815D01*
X3925Y23100D02*
X3925Y23230D01*
X3820Y23060D02*
X4100Y23165D01*
X3820Y23270D01*
X9430Y22820D02*
X9325Y22820D01*
X9430Y23100D02*
X9325Y23100D01*
X9378Y23100D02*
X9378Y22820D01*
X9255Y23048D02*
X9202Y23100D01*
X9150Y23100D01*
X9098Y23048D01*
X9098Y22978D01*
X9132Y22942D01*
X9220Y22942D01*
X9255Y22908D01*
X9255Y22820D01*
X9098Y22820D01*
X8835Y23048D02*
X8888Y23100D01*
X8975Y23100D01*
X9028Y23048D01*
X9028Y22872D01*
X8975Y22820D01*
X8888Y22820D01*
X8835Y22872D01*
X8655Y22925D02*
X8525Y22925D01*
X8695Y22820D02*
X8590Y23100D01*
X8485Y22820D01*
X8415Y23100D02*
X8415Y22855D01*
X8380Y22820D01*
X8258Y22820D01*
X8222Y22855D01*
X8222Y23100D01*
X8152Y22820D02*
X7942Y23100D01*
X8152Y23100D02*
X7942Y22820D01*
%LNSTD*%
%LPD*%
G54D17*
X14500Y20500D02*
X14500Y21500D01*
X17500Y21500D01*
X17500Y20500D01*
X14500Y20500D01*
X14500Y20500D01*
X16400Y20950D02*
X16400Y21350D01*
X16200Y21150D02*
X16600Y21150D01*
X15450Y21200D02*
X15750Y21200D01*
X15600Y20900D02*
X15600Y20500D01*
X15775Y20500D01*
X15825Y20550D01*
X15825Y20650D01*
X15775Y20700D01*
X15825Y20750D01*
X15825Y20850D01*
X15775Y20900D01*
X15600Y20900D01*
X15775Y20700D02*
X15600Y20700D01*
X15925Y20500D02*
X16200Y20500D01*
X15925Y20900D01*
X16200Y20900D01*
X16300Y20500D02*
X16575Y20500D01*
X16300Y20900D01*
X16575Y20900D01*
G54D32*
X13135Y18808D02*
X13100Y18842D01*
X13100Y18888D01*
X13135Y18923D01*
X13169Y18923D01*
X13192Y18900D01*
X13192Y18831D01*
X13215Y18808D01*
X13250Y18808D01*
X13284Y18842D01*
X13284Y18888D01*
X13250Y18923D01*
X13284Y18761D02*
X13100Y18761D01*
X13100Y18692D01*
X13123Y18669D01*
X13169Y18669D01*
X13192Y18692D01*
X13192Y18761D01*
X13215Y18597D02*
X13215Y18511D01*
X13284Y18623D02*
X13100Y18554D01*
X13284Y18485D01*
X13284Y18439D02*
X13100Y18439D01*
X13100Y18358D01*
X13135Y18324D01*
X13169Y18324D01*
X13204Y18358D01*
X13204Y18439D01*
X13204Y18358D02*
X13284Y18312D01*
X13284Y18266D02*
X13100Y18266D01*
X13100Y18185D02*
X13204Y18266D01*
X13284Y18174D01*
X13100Y18013D02*
X13100Y18128D01*
X13284Y18128D01*
X13192Y18128D02*
X13192Y18059D01*
X13100Y17967D02*
X13261Y17967D01*
X13284Y17944D01*
X13284Y17863D01*
X13261Y17840D01*
X13100Y17840D01*
X13284Y17794D02*
X13100Y17794D01*
X13284Y17679D01*
X13100Y17679D01*
X13284Y17632D02*
X13284Y17494D01*
X13284Y17448D02*
X13100Y17448D01*
X13100Y17379D01*
X13123Y17356D01*
X13169Y17356D01*
X13192Y17379D01*
X13192Y17448D01*
X13284Y17310D02*
X13100Y17310D01*
X13100Y17229D01*
X13135Y17195D01*
X13169Y17195D01*
X13204Y17229D01*
X13204Y17310D01*
X13204Y17229D02*
X13284Y17183D01*
X13238Y17137D02*
X13123Y17137D01*
X13100Y17114D01*
X13100Y17033D01*
X13123Y17010D01*
X13261Y17010D01*
X13284Y17033D01*
X13284Y17114D01*
X13261Y17137D01*
X13238Y17137D01*
X13284Y16964D02*
X13284Y16826D01*
X13284Y16780D02*
X13100Y16780D01*
X13227Y16722D01*
X13100Y16665D01*
X13284Y16665D01*
X13284Y16619D02*
X13284Y16550D01*
X13100Y16619D02*
X13100Y16550D01*
X13100Y16584D02*
X13284Y16584D01*
X13135Y16377D02*
X13100Y16411D01*
X13100Y16469D01*
X13135Y16504D01*
X13250Y16504D01*
X13284Y16469D01*
X13284Y16411D01*
X13250Y16377D01*
X13284Y16331D02*
X13100Y16331D01*
X13100Y16250D01*
X13135Y16216D01*
X13169Y16216D01*
X13204Y16250D01*
X13204Y16331D01*
X13204Y16250D02*
X13284Y16204D01*
X13238Y16158D02*
X13123Y16158D01*
X13100Y16135D01*
X13100Y16054D01*
X13123Y16031D01*
X13261Y16031D01*
X13284Y16054D01*
X13284Y16135D01*
X13261Y16158D01*
X13238Y16158D01*
G54D17*
X300Y21100D02*
X13300Y21100D01*
X13300Y13900D01*
X300Y13900D01*
X300Y21100D01*
G54D34*
X1300Y20020D02*
X1300Y19780D01*
X1300Y19900D02*
X1620Y19900D01*
X1620Y19700D02*
X1300Y19460D01*
X1300Y19700D02*
X1620Y19460D01*
X1620Y19380D02*
X1620Y19260D01*
X1620Y19320D02*
X1300Y19320D01*
X1340Y19380D01*
X1615Y19085D02*
X1370Y19085D01*
X1360Y19095D02*
X1350Y19085D01*
X1360Y19075D01*
X1370Y19085D01*
X1360Y19095D01*
X1340Y18995D02*
X1300Y18955D01*
X1300Y18855D01*
X1340Y18815D01*
X1420Y18815D01*
X1460Y18855D01*
X1460Y18915D01*
X1460Y18855D02*
X1500Y18815D01*
X1580Y18815D01*
X1620Y18855D01*
X1620Y18955D01*
X1580Y18995D01*
X2620Y19920D02*
X2300Y19920D01*
X2300Y19780D01*
X2360Y19720D01*
X2420Y19720D01*
X2480Y19780D01*
X2480Y19920D01*
X2480Y19780D02*
X2620Y19700D01*
X2620Y19620D02*
X2300Y19380D01*
X2300Y19620D02*
X2620Y19380D01*
X2620Y19300D02*
X2620Y19180D01*
X2620Y19240D02*
X2300Y19240D01*
X2340Y19300D01*
X2615Y19005D02*
X2370Y19005D01*
X2360Y19015D02*
X2350Y19005D01*
X2360Y18995D01*
X2370Y19005D01*
X2360Y19015D01*
X2360Y18915D02*
X2300Y18855D01*
X2300Y18795D01*
X2360Y18735D01*
X2440Y18735D01*
X2480Y18775D01*
X2480Y18875D01*
X2520Y18915D01*
X2620Y18915D01*
X2620Y18735D01*
X3340Y19720D02*
X3300Y19760D01*
X3300Y19880D01*
X3340Y19920D01*
X3580Y19920D01*
X3620Y19880D01*
X3620Y19760D01*
X3580Y19720D01*
X3460Y19720D01*
X3460Y19860D01*
X3620Y19640D02*
X3300Y19640D01*
X3620Y19440D01*
X3300Y19440D01*
X3620Y19360D02*
X3300Y19360D01*
X3300Y19220D01*
X3360Y19160D01*
X3560Y19160D01*
X3620Y19220D01*
X3620Y19360D01*
X3620Y19360D01*
X4340Y19720D02*
X4300Y19760D01*
X4300Y19880D01*
X4340Y19920D01*
X4580Y19920D01*
X4620Y19880D01*
X4620Y19760D01*
X4580Y19720D01*
X4460Y19720D01*
X4460Y19860D01*
X4620Y19640D02*
X4300Y19640D01*
X4620Y19440D01*
X4300Y19440D01*
X4620Y19360D02*
X4300Y19360D01*
X4300Y19220D01*
X4360Y19160D01*
X4560Y19160D01*
X4620Y19220D01*
X4620Y19360D01*
X4620Y19360D01*
X5360Y19920D02*
X5300Y19860D01*
X5300Y19800D01*
X5360Y19740D01*
X5440Y19740D01*
X5480Y19780D01*
X5480Y19880D01*
X5520Y19920D01*
X5620Y19920D01*
X5620Y19740D01*
X5360Y19380D02*
X5300Y19440D01*
X5300Y19520D01*
X5360Y19580D01*
X5420Y19580D01*
X5460Y19540D01*
X5460Y19420D01*
X5500Y19380D01*
X5560Y19380D01*
X5620Y19440D01*
X5620Y19520D01*
X5560Y19580D01*
X5620Y19300D02*
X5300Y19300D01*
X5300Y19160D01*
X5360Y19100D01*
X5560Y19100D01*
X5620Y19160D01*
X5620Y19300D01*
X5620Y19300D01*
X5500Y18974D02*
X5500Y18826D01*
X5620Y19020D02*
X5300Y18900D01*
X5620Y18780D01*
X5615Y18605D02*
X5370Y18605D01*
X5360Y18615D02*
X5350Y18605D01*
X5360Y18595D01*
X5370Y18605D01*
X5360Y18615D01*
X5620Y18515D02*
X5620Y18395D01*
X5620Y18455D02*
X5300Y18455D01*
X5340Y18515D01*
X10300Y19920D02*
X10300Y19740D01*
X10620Y19920D01*
X10615Y19565D02*
X10370Y19565D01*
X10360Y19575D02*
X10350Y19565D01*
X10360Y19555D01*
X10370Y19565D01*
X10360Y19575D01*
X10300Y19415D02*
X10360Y19475D01*
X10580Y19475D01*
X10620Y19435D01*
X10620Y19335D01*
X10580Y19295D01*
X10500Y19295D01*
X10460Y19335D01*
X10460Y19435D01*
X10500Y19475D01*
X6480Y19900D02*
X6360Y19780D01*
X6360Y19900D02*
X6480Y19780D01*
X6340Y19840D02*
X6500Y19840D01*
X6420Y19920D02*
X6420Y19760D01*
X6340Y19680D02*
X6300Y19640D01*
X6300Y19540D01*
X6340Y19500D01*
X6420Y19500D01*
X6460Y19540D01*
X6460Y19600D01*
X6460Y19540D02*
X6500Y19500D01*
X6580Y19500D01*
X6620Y19540D01*
X6620Y19640D01*
X6580Y19680D01*
X6360Y19140D02*
X6300Y19200D01*
X6300Y19280D01*
X6360Y19340D01*
X6420Y19340D01*
X6460Y19300D01*
X6460Y19180D01*
X6500Y19140D01*
X6560Y19140D01*
X6620Y19200D01*
X6620Y19280D01*
X6560Y19340D01*
X6360Y18840D02*
X6300Y18900D01*
X6300Y19000D01*
X6360Y19060D01*
X6560Y19060D01*
X6620Y19000D01*
X6620Y18900D01*
X6560Y18840D01*
X6300Y18760D02*
X6620Y18760D01*
X6620Y18580D01*
X6615Y18405D02*
X6370Y18405D01*
X6360Y18415D02*
X6350Y18405D01*
X6360Y18395D01*
X6370Y18405D01*
X6360Y18415D01*
X6540Y18315D02*
X6580Y18295D01*
X6600Y18275D01*
X6620Y18235D01*
X6620Y18155D01*
X6600Y18115D01*
X6580Y18095D01*
X6540Y18075D01*
X6380Y18075D01*
X6340Y18095D01*
X6320Y18115D01*
X6300Y18155D01*
X6300Y18235D01*
X6320Y18275D01*
X6340Y18295D01*
X6380Y18315D01*
X6540Y18315D01*
X6540Y18315D01*
X6620Y18315D02*
X6300Y18075D01*
X7300Y19920D02*
X7480Y19920D01*
X7480Y19760D01*
X7340Y19800D02*
X7620Y19800D01*
X7500Y19554D02*
X7500Y19406D01*
X7620Y19600D02*
X7300Y19480D01*
X7620Y19360D01*
X7300Y19220D02*
X7360Y19280D01*
X7580Y19280D01*
X7620Y19240D01*
X7620Y19140D01*
X7580Y19100D01*
X7500Y19100D01*
X7460Y19140D01*
X7460Y19240D01*
X7500Y19280D01*
X8480Y19900D02*
X8360Y19780D01*
X8360Y19900D02*
X8480Y19780D01*
X8340Y19840D02*
X8500Y19840D01*
X8420Y19920D02*
X8420Y19760D01*
X8300Y19520D02*
X8300Y19680D01*
X8440Y19680D01*
X8440Y19560D01*
X8480Y19520D01*
X8580Y19520D01*
X8620Y19560D01*
X8620Y19680D01*
X9480Y19900D02*
X9360Y19780D01*
X9360Y19900D02*
X9480Y19780D01*
X9340Y19840D02*
X9500Y19840D01*
X9420Y19920D02*
X9420Y19760D01*
X9300Y19620D02*
X9360Y19680D01*
X9580Y19680D01*
X9620Y19640D01*
X9620Y19540D01*
X9580Y19500D01*
X9500Y19500D01*
X9460Y19540D01*
X9460Y19640D01*
X9500Y19680D01*
X9500Y19294D02*
X9500Y19146D01*
X9620Y19340D02*
X9300Y19220D01*
X9620Y19100D01*
X9300Y19020D02*
X9300Y18840D01*
X9620Y19020D01*
X11580Y19920D02*
X11620Y19880D01*
X11620Y19780D01*
X11580Y19740D01*
X11500Y19740D01*
X11460Y19780D01*
X11460Y19880D01*
X11500Y19920D01*
X11580Y19920D01*
X11580Y19920D01*
X11460Y19780D02*
X11420Y19740D01*
X11340Y19740D01*
X11300Y19780D01*
X11300Y19880D01*
X11340Y19920D01*
X11420Y19920D01*
X11460Y19880D01*
X11500Y19534D02*
X11500Y19386D01*
X11620Y19580D02*
X11300Y19460D01*
X11620Y19340D01*
X11580Y19260D02*
X11620Y19220D01*
X11620Y19120D01*
X11580Y19080D01*
X11500Y19080D01*
X11460Y19120D01*
X11460Y19220D01*
X11500Y19260D01*
X11580Y19260D01*
X11580Y19260D01*
X11460Y19120D02*
X11420Y19080D01*
X11340Y19080D01*
X11300Y19120D01*
X11300Y19220D01*
X11340Y19260D01*
X11420Y19260D01*
X11460Y19220D01*
X11350Y18920D02*
X11330Y18890D01*
X11330Y18870D01*
X11370Y18830D01*
X11370Y18810D01*
X11350Y18780D01*
X12480Y19900D02*
X12360Y19780D01*
X12360Y19900D02*
X12480Y19780D01*
X12340Y19840D02*
X12500Y19840D01*
X12420Y19920D02*
X12420Y19760D01*
X12340Y19680D02*
X12300Y19640D01*
X12300Y19540D01*
X12340Y19500D01*
X12420Y19500D01*
X12460Y19540D01*
X12460Y19640D01*
X12420Y19680D01*
X12340Y19680D01*
X12340Y19680D01*
X12420Y19500D02*
X12620Y19500D01*
X12500Y19294D02*
X12500Y19146D01*
X12620Y19340D02*
X12300Y19220D01*
X12620Y19100D01*
X12340Y19020D02*
X12300Y18980D01*
X12300Y18880D01*
X12340Y18840D01*
X12420Y18840D01*
X12460Y18880D01*
X12460Y18980D01*
X12420Y19020D01*
X12340Y19020D01*
X12340Y19020D01*
X12420Y18840D02*
X12620Y18840D01*
X12350Y18680D02*
X12330Y18650D01*
X12330Y18630D01*
X12370Y18590D01*
X12370Y18570D01*
X12350Y18540D01*
X12480Y16900D02*
X12360Y16780D01*
X12360Y16900D02*
X12480Y16780D01*
X12340Y16840D02*
X12500Y16840D01*
X12420Y16920D02*
X12420Y16760D01*
X12620Y16680D02*
X12620Y16560D01*
X12620Y16620D02*
X12300Y16620D01*
X12340Y16680D01*
X12540Y16480D02*
X12580Y16460D01*
X12600Y16440D01*
X12620Y16400D01*
X12620Y16320D01*
X12600Y16280D01*
X12580Y16260D01*
X12540Y16240D01*
X12380Y16240D01*
X12340Y16260D01*
X12320Y16280D01*
X12300Y16320D01*
X12300Y16400D01*
X12320Y16440D01*
X12340Y16460D01*
X12380Y16480D01*
X12540Y16480D01*
X12540Y16480D01*
X12620Y16480D02*
X12300Y16240D01*
X12500Y16034D02*
X12500Y15886D01*
X12620Y16080D02*
X12300Y15960D01*
X12620Y15840D01*
X12620Y15760D02*
X12620Y15640D01*
X12620Y15700D02*
X12300Y15700D01*
X12340Y15760D01*
X12540Y15560D02*
X12580Y15540D01*
X12600Y15520D01*
X12620Y15480D01*
X12620Y15400D01*
X12600Y15360D01*
X12580Y15340D01*
X12540Y15320D01*
X12380Y15320D01*
X12340Y15340D01*
X12320Y15360D01*
X12300Y15400D01*
X12300Y15480D01*
X12320Y15520D01*
X12340Y15540D01*
X12380Y15560D01*
X12540Y15560D01*
X12540Y15560D01*
X12620Y15560D02*
X12300Y15320D01*
X12350Y15160D02*
X12330Y15130D01*
X12330Y15110D01*
X12370Y15070D01*
X12370Y15050D01*
X12350Y15020D01*
X11620Y16820D02*
X11620Y16700D01*
X11620Y16760D02*
X11300Y16760D01*
X11340Y16820D01*
X11300Y16560D02*
X11360Y16620D01*
X11580Y16620D01*
X11620Y16580D01*
X11620Y16480D01*
X11580Y16440D01*
X11500Y16440D01*
X11460Y16480D01*
X11460Y16580D01*
X11500Y16620D01*
X11620Y16280D02*
X11300Y16280D01*
X11520Y16180D01*
X11300Y16080D01*
X11620Y16080D01*
X11540Y16000D02*
X11340Y16000D01*
X11300Y15960D01*
X11300Y15820D01*
X11340Y15780D01*
X11580Y15780D01*
X11620Y15820D01*
X11620Y15960D01*
X11580Y16000D01*
X11540Y16000D01*
X11360Y15500D02*
X11300Y15560D01*
X11300Y15640D01*
X11360Y15700D01*
X11420Y15700D01*
X11460Y15660D01*
X11460Y15540D01*
X11500Y15500D01*
X11560Y15500D01*
X11620Y15560D01*
X11620Y15640D01*
X11560Y15700D01*
X11620Y15420D02*
X11620Y15300D01*
X11300Y15420D02*
X11300Y15300D01*
X11300Y15360D02*
X11620Y15360D01*
X11350Y15140D02*
X11330Y15110D01*
X11330Y15090D01*
X11370Y15050D01*
X11370Y15030D01*
X11350Y15000D01*
X10620Y16820D02*
X10620Y16700D01*
X10620Y16760D02*
X10300Y16760D01*
X10340Y16820D01*
X10300Y16620D02*
X10480Y16620D01*
X10480Y16460D01*
X10340Y16500D02*
X10620Y16500D01*
X10620Y16300D02*
X10300Y16300D01*
X10520Y16200D01*
X10300Y16100D01*
X10620Y16100D01*
X10620Y16020D02*
X10620Y15900D01*
X10300Y16020D02*
X10300Y15900D01*
X10300Y15960D02*
X10620Y15960D01*
X10360Y15620D02*
X10300Y15680D01*
X10300Y15760D01*
X10360Y15820D01*
X10420Y15820D01*
X10460Y15780D01*
X10460Y15660D01*
X10500Y15620D01*
X10560Y15620D01*
X10620Y15680D01*
X10620Y15760D01*
X10560Y15820D01*
X10540Y15540D02*
X10340Y15540D01*
X10300Y15500D01*
X10300Y15360D01*
X10340Y15320D01*
X10580Y15320D01*
X10620Y15360D01*
X10620Y15500D01*
X10580Y15540D01*
X10540Y15540D01*
X10350Y15160D02*
X10330Y15130D01*
X10330Y15110D01*
X10370Y15070D01*
X10370Y15050D01*
X10350Y15020D01*
X9620Y16820D02*
X9620Y16700D01*
X9620Y16760D02*
X9300Y16760D01*
X9340Y16820D01*
X9300Y16460D02*
X9300Y16620D01*
X9440Y16620D01*
X9440Y16500D01*
X9480Y16460D01*
X9580Y16460D01*
X9620Y16500D01*
X9620Y16620D01*
X9360Y16100D02*
X9300Y16160D01*
X9300Y16240D01*
X9360Y16300D01*
X9420Y16300D01*
X9460Y16260D01*
X9460Y16140D01*
X9500Y16100D01*
X9560Y16100D01*
X9620Y16160D01*
X9620Y16240D01*
X9560Y16300D01*
X9360Y15800D02*
X9300Y15860D01*
X9300Y15960D01*
X9360Y16020D01*
X9560Y16020D01*
X9620Y15960D01*
X9620Y15860D01*
X9560Y15800D01*
X9300Y15720D02*
X9620Y15720D01*
X9620Y15540D01*
X9620Y15460D02*
X9300Y15460D01*
X9300Y15320D02*
X9480Y15460D01*
X9620Y15300D01*
X9350Y15140D02*
X9330Y15110D01*
X9330Y15090D01*
X9370Y15050D01*
X9370Y15030D01*
X9350Y15000D01*
X8620Y16220D02*
X8620Y16100D01*
X8620Y16160D02*
X8300Y16160D01*
X8340Y16220D01*
X8580Y16020D02*
X8620Y15980D01*
X8620Y15880D01*
X8580Y15840D01*
X8500Y15840D01*
X8460Y15880D01*
X8460Y15980D01*
X8500Y16020D01*
X8580Y16020D01*
X8580Y16020D01*
X8460Y15880D02*
X8420Y15840D01*
X8340Y15840D01*
X8300Y15880D01*
X8300Y15980D01*
X8340Y16020D01*
X8420Y16020D01*
X8460Y15980D01*
X8500Y15634D02*
X8500Y15486D01*
X8620Y15680D02*
X8300Y15560D01*
X8620Y15440D01*
X8540Y15360D02*
X8580Y15340D01*
X8600Y15320D01*
X8620Y15280D01*
X8620Y15200D01*
X8600Y15160D01*
X8580Y15140D01*
X8540Y15120D01*
X8380Y15120D01*
X8340Y15140D01*
X8320Y15160D01*
X8300Y15200D01*
X8300Y15280D01*
X8320Y15320D01*
X8340Y15340D01*
X8380Y15360D01*
X8540Y15360D01*
X8540Y15360D01*
X8620Y15360D02*
X8300Y15120D01*
X7620Y16120D02*
X7620Y16000D01*
X7620Y16060D02*
X7300Y16060D01*
X7340Y16120D01*
X7340Y15920D02*
X7300Y15880D01*
X7300Y15780D01*
X7340Y15740D01*
X7420Y15740D01*
X7460Y15780D01*
X7460Y15880D01*
X7420Y15920D01*
X7340Y15920D01*
X7340Y15920D01*
X7420Y15740D02*
X7620Y15740D01*
X7500Y15534D02*
X7500Y15386D01*
X7620Y15580D02*
X7300Y15460D01*
X7620Y15340D01*
X7620Y15260D02*
X7620Y15140D01*
X7620Y15200D02*
X7300Y15200D01*
X7340Y15260D01*
X6360Y16220D02*
X6300Y16160D01*
X6300Y16100D01*
X6360Y16040D01*
X6440Y16040D01*
X6480Y16080D01*
X6480Y16180D01*
X6520Y16220D01*
X6620Y16220D01*
X6620Y16040D01*
X6540Y15960D02*
X6580Y15940D01*
X6600Y15920D01*
X6620Y15880D01*
X6620Y15800D01*
X6600Y15760D01*
X6580Y15740D01*
X6540Y15720D01*
X6380Y15720D01*
X6340Y15740D01*
X6320Y15760D01*
X6300Y15800D01*
X6300Y15880D01*
X6320Y15920D01*
X6340Y15940D01*
X6380Y15960D01*
X6540Y15960D01*
X6540Y15960D01*
X6620Y15960D02*
X6300Y15720D01*
X6500Y15514D02*
X6500Y15366D01*
X6620Y15560D02*
X6300Y15440D01*
X6620Y15320D01*
X6360Y15240D02*
X6300Y15180D01*
X6300Y15120D01*
X6360Y15060D01*
X6440Y15060D01*
X6480Y15100D01*
X6480Y15200D01*
X6520Y15240D01*
X6620Y15240D01*
X6620Y15060D01*
X5360Y16120D02*
X5300Y16060D01*
X5300Y16000D01*
X5360Y15940D01*
X5440Y15940D01*
X5480Y15980D01*
X5480Y16080D01*
X5520Y16120D01*
X5620Y16120D01*
X5620Y15940D01*
X5620Y15860D02*
X5620Y15740D01*
X5620Y15800D02*
X5300Y15800D01*
X5340Y15860D01*
X5500Y15534D02*
X5500Y15386D01*
X5620Y15580D02*
X5300Y15460D01*
X5620Y15340D01*
X5340Y15260D02*
X5300Y15220D01*
X5300Y15120D01*
X5340Y15080D01*
X5420Y15080D01*
X5460Y15120D01*
X5460Y15180D01*
X5460Y15120D02*
X5500Y15080D01*
X5580Y15080D01*
X5620Y15120D01*
X5620Y15220D01*
X5580Y15260D01*
X4300Y15920D02*
X4620Y15800D01*
X4300Y15680D01*
X4360Y15380D02*
X4300Y15440D01*
X4300Y15540D01*
X4360Y15600D01*
X4560Y15600D01*
X4620Y15540D01*
X4620Y15440D01*
X4560Y15380D01*
X4360Y15080D02*
X4300Y15140D01*
X4300Y15240D01*
X4360Y15300D01*
X4560Y15300D01*
X4620Y15240D01*
X4620Y15140D01*
X4560Y15080D01*
X3620Y15820D02*
X3300Y15820D01*
X3300Y15680D01*
X3360Y15620D01*
X3420Y15620D01*
X3480Y15680D01*
X3480Y15820D01*
X3480Y15680D02*
X3620Y15600D01*
X3360Y15320D02*
X3300Y15380D01*
X3300Y15460D01*
X3360Y15520D01*
X3420Y15520D01*
X3460Y15480D01*
X3460Y15360D01*
X3500Y15320D01*
X3560Y15320D01*
X3620Y15380D01*
X3620Y15460D01*
X3560Y15520D01*
X3300Y15240D02*
X3300Y15000D01*
X3300Y15120D02*
X3620Y15120D01*
X2340Y15620D02*
X2300Y15660D01*
X2300Y15780D01*
X2340Y15820D01*
X2580Y15820D01*
X2620Y15780D01*
X2620Y15660D01*
X2580Y15620D01*
X2460Y15620D01*
X2460Y15760D01*
X2620Y15540D02*
X2300Y15540D01*
X2620Y15340D01*
X2300Y15340D01*
X2620Y15260D02*
X2300Y15260D01*
X2300Y15120D01*
X2360Y15060D01*
X2560Y15060D01*
X2620Y15120D01*
X2620Y15260D01*
X2620Y15260D01*
X1620Y15920D02*
X1300Y15920D01*
X1300Y15780D01*
X1360Y15720D01*
X1420Y15720D01*
X1480Y15780D01*
X1480Y15920D01*
X1480Y15780D02*
X1620Y15700D01*
X1500Y15574D02*
X1500Y15426D01*
X1620Y15620D02*
X1300Y15500D01*
X1620Y15380D01*
X1300Y15300D02*
X1620Y15240D01*
X1300Y15180D01*
X1620Y15120D01*
X1300Y15060D01*
X500Y17720D02*
X780Y17720D01*
X820Y17680D01*
X820Y17540D01*
X780Y17500D01*
X500Y17500D01*
X560Y17220D02*
X500Y17280D01*
X500Y17360D01*
X560Y17420D01*
X620Y17420D01*
X660Y17380D01*
X660Y17260D01*
X700Y17220D01*
X760Y17220D01*
X820Y17280D01*
X820Y17360D01*
X760Y17420D01*
X820Y17140D02*
X500Y17140D01*
X500Y17000D01*
X540Y16960D01*
X620Y16960D01*
X660Y17000D01*
X700Y16960D01*
X780Y16960D01*
X820Y17000D01*
X820Y17140D01*
X660Y17000D02*
X660Y17140D01*
G54D18*
X3150Y17875D02*
X3675Y17875D01*
X3750Y17800D01*
X3750Y17538D01*
X3675Y17462D01*
X3150Y17462D01*
X3150Y17312D02*
X3150Y16975D01*
X3750Y17312D01*
G54D17*
X18050Y8400D02*
X18050Y8400D01*
X18050Y16000D01*
X13550Y16000D01*
X13550Y8400D01*
X18050Y8400D01*
G54D34*
X16650Y10000D02*
X16650Y9600D01*
X16425Y9600D01*
X16325Y9600D02*
X16325Y10000D01*
X16200Y9725D01*
X16075Y10000D01*
X16075Y9600D01*
X15975Y10000D02*
X15750Y10000D01*
X15975Y9600D01*
X15650Y9650D02*
X15600Y9600D01*
X15475Y9600D01*
X15425Y9650D01*
X15425Y9750D01*
X15475Y9800D01*
X15600Y9800D01*
X15650Y9750D01*
X15650Y9650D01*
X15650Y9650D01*
X15475Y9800D02*
X15425Y9850D01*
X15425Y9950D01*
X15475Y10000D01*
X15600Y10000D01*
X15650Y9950D01*
X15650Y9850D01*
X15600Y9800D01*
X15325Y9700D02*
X15300Y9650D01*
X15275Y9625D01*
X15225Y9600D01*
X15125Y9600D01*
X15075Y9625D01*
X15050Y9650D01*
X15025Y9700D01*
X15025Y9900D01*
X15050Y9950D01*
X15075Y9975D01*
X15125Y10000D01*
X15225Y10000D01*
X15275Y9975D01*
X15300Y9950D01*
X15325Y9900D01*
X15325Y9700D01*
X15325Y9700D01*
X15325Y9600D02*
X15025Y10000D01*
X14725Y10000D02*
X14925Y10000D01*
X14925Y9825D01*
X14775Y9825D01*
X14725Y9775D01*
X14725Y9650D01*
X14775Y9600D01*
X14925Y9600D01*
G54D18*
X16138Y15650D02*
X15688Y15650D01*
X15912Y15650D02*
X15912Y15050D01*
X15538Y15050D02*
X15312Y15050D01*
X15425Y15050D02*
X15425Y15650D01*
X15538Y15575D01*
G54D17*
X19500Y11000D02*
X19500Y11000D01*
X19500Y5000D01*
X20500Y5000D01*
X20500Y11000D01*
X19500Y11000D01*
G54D18*
X19600Y7544D02*
X20125Y7544D01*
X20200Y7469D01*
X20200Y7206D01*
X20125Y7131D01*
X19600Y7131D01*
X20200Y6981D02*
X20200Y6756D01*
X20200Y6869D02*
X19600Y6869D01*
X19675Y6981D01*
X19600Y6306D02*
X19600Y6606D01*
X19862Y6606D01*
X19862Y6381D01*
X19938Y6306D01*
X20125Y6306D01*
X20200Y6381D01*
X20200Y6606D01*
G54D17*
X12250Y13750D02*
X12150Y250D01*
X1850Y250D01*
X1850Y13750D01*
X12250Y13750D01*
X7400Y1000D02*
X7400Y650D01*
X7350Y600D01*
X7175Y600D01*
X7125Y650D01*
X7125Y1000D01*
X6775Y925D02*
X6850Y1000D01*
X6950Y1000D01*
X7025Y925D01*
X7025Y850D01*
X6975Y800D01*
X6825Y800D01*
X6775Y750D01*
X6775Y675D01*
X6850Y600D01*
X6950Y600D01*
X7025Y675D01*
X6675Y600D02*
X6675Y1000D01*
X6500Y1000D01*
X6450Y950D01*
X6450Y850D01*
X6500Y800D01*
X6450Y750D01*
X6450Y650D01*
X6500Y600D01*
X6675Y600D01*
X6500Y800D02*
X6675Y800D01*
X10850Y8450D02*
X10850Y8850D01*
X10675Y8850D01*
X10600Y8775D01*
X10600Y8525D01*
X10675Y8450D01*
X10850Y8450D01*
X10850Y8450D01*
X10500Y8550D02*
X10475Y8500D01*
X10450Y8475D01*
X10400Y8450D01*
X10300Y8450D01*
X10250Y8475D01*
X10225Y8500D01*
X10200Y8550D01*
X10200Y8750D01*
X10225Y8800D01*
X10250Y8825D01*
X10300Y8850D01*
X10400Y8850D01*
X10450Y8825D01*
X10475Y8800D01*
X10500Y8750D01*
X10500Y8550D01*
X10500Y8550D01*
X10500Y8450D02*
X10200Y8850D01*
X3650Y8450D02*
X3650Y8850D01*
X3475Y8850D01*
X3400Y8775D01*
X3400Y8525D01*
X3475Y8450D01*
X3650Y8450D01*
X3650Y8450D01*
X3300Y8450D02*
X3150Y8450D01*
X3225Y8450D02*
X3225Y8850D01*
X3300Y8800D01*
X3750Y7500D02*
X3750Y7900D01*
X3575Y7900D01*
X3500Y7825D01*
X3500Y7575D01*
X3575Y7500D01*
X3750Y7500D01*
X3750Y7500D01*
X3400Y7825D02*
X3325Y7900D01*
X3250Y7900D01*
X3175Y7825D01*
X3175Y7725D01*
X3225Y7675D01*
X3350Y7675D01*
X3400Y7625D01*
X3400Y7500D01*
X3175Y7500D01*
X3750Y6500D02*
X3750Y6900D01*
X3575Y6900D01*
X3500Y6825D01*
X3500Y6575D01*
X3575Y6500D01*
X3750Y6500D01*
X3750Y6500D01*
X3400Y6850D02*
X3350Y6900D01*
X3225Y6900D01*
X3175Y6850D01*
X3175Y6750D01*
X3225Y6700D01*
X3300Y6700D01*
X3225Y6700D02*
X3175Y6650D01*
X3175Y6550D01*
X3225Y6500D01*
X3350Y6500D01*
X3400Y6550D01*
X3750Y5500D02*
X3750Y5900D01*
X3575Y5900D01*
X3500Y5825D01*
X3500Y5575D01*
X3575Y5500D01*
X3750Y5500D01*
X3750Y5500D01*
X3400Y5900D02*
X3400Y5675D01*
X3200Y5675D01*
X3250Y5850D02*
X3250Y5500D01*
X10850Y7450D02*
X10850Y7850D01*
X10675Y7850D01*
X10600Y7775D01*
X10600Y7525D01*
X10675Y7450D01*
X10850Y7450D01*
X10850Y7450D01*
X10300Y7850D02*
X10500Y7850D01*
X10500Y7675D01*
X10350Y7675D01*
X10300Y7625D01*
X10300Y7500D01*
X10350Y7450D01*
X10500Y7450D01*
X10850Y6450D02*
X10850Y6850D01*
X10675Y6850D01*
X10600Y6775D01*
X10600Y6525D01*
X10675Y6450D01*
X10850Y6450D01*
X10850Y6450D01*
X10425Y6850D02*
X10500Y6775D01*
X10500Y6500D01*
X10450Y6450D01*
X10325Y6450D01*
X10275Y6500D01*
X10275Y6600D01*
X10325Y6650D01*
X10450Y6650D01*
X10500Y6600D01*
X10850Y5450D02*
X10850Y5850D01*
X10675Y5850D01*
X10600Y5775D01*
X10600Y5525D01*
X10675Y5450D01*
X10850Y5450D01*
X10850Y5450D01*
X10500Y5850D02*
X10275Y5850D01*
X10500Y5450D01*
X10850Y4450D02*
X10850Y4850D01*
X10675Y4850D01*
X10600Y4775D01*
X10600Y4525D01*
X10675Y4450D01*
X10850Y4450D01*
X10850Y4450D01*
X10500Y4500D02*
X10450Y4450D01*
X10325Y4450D01*
X10275Y4500D01*
X10275Y4600D01*
X10325Y4650D01*
X10450Y4650D01*
X10500Y4600D01*
X10500Y4500D01*
X10500Y4500D01*
X10325Y4650D02*
X10275Y4700D01*
X10275Y4800D01*
X10325Y4850D01*
X10450Y4850D01*
X10500Y4800D01*
X10500Y4700D01*
X10450Y4650D01*
X3750Y9450D02*
X3750Y9850D01*
X3575Y9850D01*
X3500Y9775D01*
X3500Y9700D01*
X3575Y9625D01*
X3750Y9625D01*
X3575Y9625D02*
X3475Y9450D01*
X3375Y9450D02*
X3075Y9850D01*
X3375Y9850D02*
X3075Y9450D01*
X3850Y10850D02*
X3550Y10850D01*
X3700Y10850D02*
X3700Y10450D01*
X3450Y10450D02*
X3150Y10850D01*
X3450Y10850D02*
X3150Y10450D01*
X10850Y3800D02*
X10800Y3850D01*
X10675Y3850D01*
X10625Y3800D01*
X10625Y3700D01*
X10675Y3650D01*
X10750Y3650D01*
X10675Y3650D02*
X10625Y3600D01*
X10625Y3500D01*
X10675Y3450D01*
X10800Y3450D01*
X10850Y3500D01*
X10525Y3850D02*
X10375Y3450D01*
X10225Y3850D01*
X10125Y3800D02*
X10075Y3850D01*
X9950Y3850D01*
X9900Y3800D01*
X9900Y3700D01*
X9950Y3650D01*
X10025Y3650D01*
X9950Y3650D02*
X9900Y3600D01*
X9900Y3500D01*
X9950Y3450D01*
X10075Y3450D01*
X10125Y3500D01*
X3900Y4800D02*
X3950Y4850D01*
X4100Y4850D01*
X4150Y4800D01*
X4150Y4500D01*
X4100Y4450D01*
X3950Y4450D01*
X3900Y4500D01*
X3900Y4650D01*
X4075Y4650D01*
X3800Y4450D02*
X3800Y4850D01*
X3550Y4450D01*
X3550Y4850D01*
X3450Y4450D02*
X3450Y4850D01*
X3275Y4850D01*
X3200Y4775D01*
X3200Y4525D01*
X3275Y4450D01*
X3450Y4450D01*
X3450Y4450D01*
X10850Y10450D02*
X10850Y10850D01*
X10675Y10850D01*
X10600Y10775D01*
X10600Y10700D01*
X10675Y10625D01*
X10850Y10625D01*
X10675Y10625D02*
X10575Y10450D01*
X10225Y10775D02*
X10300Y10850D01*
X10400Y10850D01*
X10475Y10775D01*
X10475Y10700D01*
X10425Y10650D01*
X10275Y10650D01*
X10225Y10600D01*
X10225Y10525D01*
X10300Y10450D01*
X10400Y10450D01*
X10475Y10525D01*
X10125Y10850D02*
X9825Y10850D01*
X9975Y10850D02*
X9975Y10450D01*
X3650Y3850D02*
X3850Y3850D01*
X3850Y3675D01*
X3700Y3675D01*
X3650Y3625D01*
X3650Y3500D01*
X3700Y3450D01*
X3850Y3450D01*
X3550Y3850D02*
X3400Y3450D01*
X3250Y3850D01*
X10792Y9600D02*
X10608Y9600D01*
X10850Y9450D02*
X10700Y9850D01*
X10550Y9450D01*
X10450Y9550D02*
X10425Y9500D01*
X10400Y9475D01*
X10350Y9450D01*
X10250Y9450D01*
X10200Y9475D01*
X10175Y9500D01*
X10150Y9550D01*
X10150Y9750D01*
X10175Y9800D01*
X10200Y9825D01*
X10250Y9850D01*
X10350Y9850D01*
X10400Y9825D01*
X10425Y9800D01*
X10450Y9750D01*
X10450Y9550D01*
X10450Y9550D01*
X10450Y9450D02*
X10150Y9850D01*
X8650Y7500D02*
X8575Y7100D01*
X8500Y7500D01*
X8425Y7100D01*
X8350Y7500D01*
X8075Y7150D02*
X8125Y7100D01*
X8200Y7100D01*
X8250Y7150D01*
X8250Y7275D01*
X8200Y7325D01*
X8125Y7325D01*
X8075Y7275D01*
X8075Y7225D01*
X8250Y7225D01*
X7975Y7325D02*
X7975Y7100D01*
X7975Y7288D02*
X7938Y7325D01*
X7900Y7325D01*
X7862Y7288D01*
X7825Y7325D01*
X7788Y7325D01*
X7750Y7288D01*
X7750Y7100D01*
X7862Y7288D02*
X7862Y7212D01*
X7612Y7325D02*
X7650Y7288D01*
X7650Y7138D01*
X7612Y7100D01*
X7512Y7100D01*
X7475Y7138D01*
X7475Y7288D01*
X7512Y7325D01*
X7612Y7325D01*
X7212Y7288D02*
X7250Y7325D01*
X7338Y7325D01*
X7375Y7288D01*
X7375Y7238D01*
X7350Y7212D01*
X7238Y7212D01*
X7212Y7188D01*
X7212Y7138D01*
X7250Y7100D01*
X7338Y7100D01*
X7375Y7138D01*
X7112Y7100D02*
X6812Y7100D01*
X6712Y7100D02*
X6712Y7500D01*
X6538Y7500D01*
X6462Y7425D01*
X6462Y7175D01*
X6538Y7100D01*
X6712Y7100D01*
X6712Y7100D01*
X6362Y7100D02*
X6212Y7100D01*
X6288Y7100D02*
X6288Y7500D01*
X6362Y7450D01*
X6112Y7100D02*
X5812Y7100D01*
X5712Y7100D02*
X5712Y7500D01*
X5588Y7225D01*
X5462Y7500D01*
X5462Y7100D01*
X5344Y7106D02*
X5344Y7412D01*
X5356Y7425D02*
X5344Y7438D01*
X5331Y7425D01*
X5344Y7412D01*
X5356Y7425D01*
X5231Y7325D02*
X5231Y7100D01*
X5231Y7288D02*
X5194Y7325D01*
X5094Y7325D01*
X5056Y7288D01*
X5056Y7100D01*
X4938Y7106D02*
X4938Y7412D01*
X4950Y7425D02*
X4938Y7438D01*
X4925Y7425D01*
X4938Y7412D01*
X4950Y7425D01*
X7842Y13000D02*
X7658Y13000D01*
X7900Y12850D02*
X7750Y13250D01*
X7600Y12850D01*
X7500Y13075D02*
X7500Y12850D01*
X7500Y13038D02*
X7462Y13075D01*
X7362Y13075D01*
X7325Y13038D01*
X7325Y12850D01*
X7225Y13075D02*
X7125Y13075D01*
X7125Y12850D02*
X7150Y12850D01*
X7175Y12875D01*
X7175Y13250D01*
X6850Y12900D02*
X6900Y12850D01*
X6975Y12850D01*
X7025Y12900D01*
X7025Y13025D01*
X6975Y13075D01*
X6900Y13075D01*
X6850Y13025D01*
X6850Y12975D01*
X7025Y12975D01*
X6750Y13075D02*
X6750Y12850D01*
X6750Y13038D02*
X6712Y13075D01*
X6612Y13075D01*
X6575Y13038D01*
X6575Y12850D01*
X6475Y13075D02*
X6475Y12850D01*
X6475Y13038D02*
X6438Y13075D01*
X6338Y13075D01*
X6300Y13038D01*
X6300Y12850D01*
X6200Y12900D02*
X6150Y12850D01*
X6075Y12850D01*
X6025Y12900D01*
X6025Y13025D01*
X6075Y13075D01*
X6150Y13075D01*
X6200Y13025D01*
X6200Y12900D01*
X6025Y12850D02*
X6025Y13075D01*
G54D18*
X7406Y12150D02*
X7406Y11625D01*
X7331Y11550D01*
X7069Y11550D01*
X6994Y11625D01*
X6994Y12150D01*
X6844Y12150D02*
X6844Y11812D01*
X6544Y11812D01*
X6619Y12075D02*
X6619Y11550D01*
G54D17*
X18000Y21150D02*
X18000Y21400D01*
X18400Y21400D01*
X18200Y21400D02*
X18200Y21250D01*
X18000Y21050D02*
X18400Y21050D01*
X18400Y20825D01*
X18300Y20725D02*
X18050Y20725D01*
X18000Y20675D01*
X18000Y20500D01*
X18050Y20450D01*
X18350Y20450D01*
X18400Y20500D01*
X18400Y20675D01*
X18350Y20725D01*
X18300Y20725D01*
X18250Y20292D02*
X18250Y20108D01*
X18400Y20350D02*
X18000Y20200D01*
X18400Y20050D01*
X18000Y19950D02*
X18000Y19650D01*
X18000Y19800D02*
X18400Y19800D01*
X18000Y17900D02*
X18000Y18150D01*
X18400Y18150D01*
X18200Y18150D02*
X18200Y18000D01*
X18000Y17800D02*
X18400Y17800D01*
X18400Y17575D01*
X18300Y17475D02*
X18050Y17475D01*
X18000Y17425D01*
X18000Y17250D01*
X18050Y17200D01*
X18350Y17200D01*
X18400Y17250D01*
X18400Y17425D01*
X18350Y17475D01*
X18300Y17475D01*
X18000Y17100D02*
X18400Y17025D01*
X18000Y16950D01*
X18400Y16875D01*
X18000Y16800D01*
X18000Y14150D02*
X18000Y13850D01*
X18000Y14000D02*
X18400Y14000D01*
X18000Y13500D02*
X18000Y13750D01*
X18400Y13750D01*
X18400Y13500D01*
X18200Y13750D02*
X18200Y13600D01*
X18400Y13400D02*
X18000Y13400D01*
X18275Y13275D01*
X18000Y13150D01*
X18400Y13150D01*
X18400Y13050D02*
X18000Y13050D01*
X18000Y12900D01*
X18050Y12850D01*
X18150Y12850D01*
X18200Y12900D01*
X18200Y13050D01*
X19860Y21640D02*
X19650Y21640D01*
X19755Y21640D02*
X19755Y22200D01*
X19860Y22130D01*
X19230Y22095D02*
X19125Y22200D01*
X19020Y22200D01*
X18915Y22095D01*
X18915Y21955D01*
X18985Y21885D01*
X19160Y21885D01*
X19230Y21815D01*
X19230Y21640D01*
X18915Y21640D01*
X19860Y18640D02*
X19650Y18640D01*
X19755Y18640D02*
X19755Y19200D01*
X19860Y19130D01*
X19230Y19095D02*
X19125Y19200D01*
X19020Y19200D01*
X18915Y19095D01*
X18915Y18955D01*
X18985Y18885D01*
X19160Y18885D01*
X19230Y18815D01*
X19230Y18640D01*
X18915Y18640D01*
X19860Y14640D02*
X19650Y14640D01*
X19755Y14640D02*
X19755Y15200D01*
X19860Y15130D01*
X19230Y15095D02*
X19125Y15200D01*
X19020Y15200D01*
X18915Y15095D01*
X18915Y14955D01*
X18985Y14885D01*
X19160Y14885D01*
X19230Y14815D01*
X19230Y14640D01*
X18915Y14640D01*
X17500Y18900D02*
X17900Y18750D01*
X17500Y18600D01*
X17575Y18225D02*
X17500Y18300D01*
X17500Y18425D01*
X17575Y18500D01*
X17825Y18500D01*
X17900Y18425D01*
X17900Y18300D01*
X17825Y18225D01*
X17575Y17850D02*
X17500Y17925D01*
X17500Y18050D01*
X17575Y18125D01*
X17825Y18125D01*
X17900Y18050D01*
X17900Y17925D01*
X17825Y17850D01*
X17725Y17650D02*
X17725Y17500D01*
X17900Y17300D02*
X17500Y17300D01*
X17500Y17125D01*
X17575Y17050D01*
X17825Y17050D01*
X17900Y17125D01*
X17900Y17300D01*
X17900Y17300D01*
X17725Y16850D02*
X17725Y16700D01*
X17550Y16250D02*
X17500Y16300D01*
X17500Y16450D01*
X17550Y16500D01*
X17850Y16500D01*
X17900Y16450D01*
X17900Y16300D01*
X17850Y16250D01*
X17700Y16250D01*
X17700Y16425D01*
X17900Y16150D02*
X17500Y16150D01*
X17900Y15900D01*
X17500Y15900D01*
X17900Y15800D02*
X17500Y15800D01*
X17500Y15625D01*
X17575Y15550D01*
X17825Y15550D01*
X17900Y15625D01*
X17900Y15800D01*
X17900Y15800D01*
X13650Y22600D02*
X13650Y23000D01*
X13475Y23000D01*
X13425Y22950D01*
X13425Y22850D01*
X13475Y22800D01*
X13425Y22750D01*
X13425Y22650D01*
X13475Y22600D01*
X13650Y22600D01*
X13475Y22800D02*
X13650Y22800D01*
X13325Y23000D02*
X13025Y23000D01*
X13175Y23000D02*
X13175Y22600D01*
X12925Y22600D02*
X12925Y23000D01*
X12675Y22600D01*
X12675Y23000D01*
G54D18*
X1170Y21370D02*
X1130Y21330D01*
X1070Y21330D01*
X1010Y21390D01*
X1010Y21650D01*
X1110Y21650D02*
X930Y21650D01*
X850Y21330D02*
X730Y21330D01*
X790Y21330D02*
X790Y21650D01*
X850Y21610D01*
X1420Y12620D02*
X1380Y12580D01*
X1320Y12580D01*
X1260Y12640D01*
X1260Y12900D01*
X1360Y12900D02*
X1180Y12900D01*
X1100Y12840D02*
X1040Y12900D01*
X980Y12900D01*
X920Y12840D01*
X920Y12760D01*
X960Y12720D01*
X1060Y12720D01*
X1100Y12680D01*
X1100Y12580D01*
X920Y12580D01*
X15420Y7870D02*
X15380Y7830D01*
X15320Y7830D01*
X15260Y7890D01*
X15260Y8150D01*
X15360Y8150D02*
X15180Y8150D01*
X15100Y8110D02*
X15060Y8150D01*
X14960Y8150D01*
X14920Y8110D01*
X14920Y8030D01*
X14960Y7990D01*
X15020Y7990D01*
X14960Y7990D02*
X14920Y7950D01*
X14920Y7870D01*
X14960Y7830D01*
X15060Y7830D01*
X15100Y7870D01*
X9170Y21995D02*
X9130Y21955D01*
X9070Y21955D01*
X9010Y22015D01*
X9010Y22275D01*
X9110Y22275D02*
X8930Y22275D01*
X8850Y22275D02*
X8850Y22095D01*
X8690Y22095D01*
X8730Y22235D02*
X8730Y21955D01*
X10260Y21775D02*
X10420Y21775D01*
X10420Y21635D01*
X10300Y21635D01*
X10260Y21595D01*
X10260Y21495D01*
X10300Y21455D01*
X10420Y21455D01*
X10180Y21775D02*
X10060Y21455D01*
X9940Y21775D01*
X9740Y21515D02*
X9860Y21615D01*
X9740Y21715D01*
X9660Y21715D02*
X9540Y21615D01*
X9660Y21515D01*
X9460Y21455D02*
X9460Y21775D01*
X9320Y21775D01*
X9260Y21715D01*
X9260Y21515D01*
X9320Y21455D01*
X9460Y21455D01*
X9460Y21455D01*
X9120Y21775D02*
X9180Y21715D01*
X9180Y21495D01*
X9140Y21455D01*
X9040Y21455D01*
X9000Y21495D01*
X9000Y21575D01*
X9040Y21615D01*
X9140Y21615D01*
X9180Y21575D01*
G54D17*
X2565Y22745D02*
X2600Y22710D01*
X2600Y22605D01*
X2565Y22570D01*
X2355Y22570D01*
X2320Y22605D01*
X2320Y22710D01*
X2355Y22745D01*
X2460Y22745D01*
X2460Y22622D01*
X2320Y22815D02*
X2600Y22815D01*
X2320Y22990D01*
X2600Y22990D01*
X2320Y23060D02*
X2600Y23060D01*
X2600Y23182D01*
X2548Y23235D01*
X2372Y23235D01*
X2320Y23182D01*
X2320Y23060D01*
X2320Y23060D01*
X3100Y22570D02*
X2820Y22675D01*
X3100Y22780D01*
X3048Y23042D02*
X3100Y22990D01*
X3100Y22902D01*
X3048Y22850D01*
X2872Y22850D01*
X2820Y22902D01*
X2820Y22990D01*
X2872Y23042D01*
X3048Y23305D02*
X3100Y23252D01*
X3100Y23165D01*
X3048Y23112D01*
X2872Y23112D01*
X2820Y23165D01*
X2820Y23252D01*
X2872Y23305D01*
X3548Y22745D02*
X3600Y22692D01*
X3600Y22622D01*
X3548Y22570D01*
X3495Y22570D01*
X3460Y22605D01*
X3460Y22710D01*
X3425Y22745D01*
X3372Y22745D01*
X3320Y22692D01*
X3320Y22622D01*
X3372Y22570D01*
X3548Y23008D02*
X3600Y22955D01*
X3600Y22868D01*
X3548Y22815D01*
X3372Y22815D01*
X3320Y22868D01*
X3320Y22955D01*
X3372Y23008D01*
X3600Y23078D02*
X3320Y23078D01*
X3320Y23235D01*
X4048Y22745D02*
X4100Y22692D01*
X4100Y22622D01*
X4048Y22570D01*
X3995Y22570D01*
X3960Y22605D01*
X3960Y22710D01*
X3925Y22745D01*
X3872Y22745D01*
X3820Y22692D01*
X3820Y22622D01*
X3872Y22570D01*
X3820Y22815D02*
X4100Y22815D01*
X4100Y22938D01*
X4048Y22990D01*
X3872Y22990D01*
X3820Y22938D01*
X3820Y22815D01*
X3820Y22815D01*
X3925Y23100D02*
X3925Y23230D01*
X3820Y23060D02*
X4100Y23165D01*
X3820Y23270D01*
X9430Y22820D02*
X9325Y22820D01*
X9430Y23100D02*
X9325Y23100D01*
X9378Y23100D02*
X9378Y22820D01*
X9255Y23048D02*
X9202Y23100D01*
X9150Y23100D01*
X9098Y23048D01*
X9098Y22978D01*
X9132Y22942D01*
X9220Y22942D01*
X9255Y22908D01*
X9255Y22820D01*
X9098Y22820D01*
X8835Y23048D02*
X8888Y23100D01*
X8975Y23100D01*
X9028Y23048D01*
X9028Y22872D01*
X8975Y22820D01*
X8888Y22820D01*
X8835Y22872D01*
X8655Y22925D02*
X8525Y22925D01*
X8695Y22820D02*
X8590Y23100D01*
X8485Y22820D01*
X8415Y23100D02*
X8415Y22855D01*
X8380Y22820D01*
X8258Y22820D01*
X8222Y22855D01*
X8222Y23100D01*
X8152Y22820D02*
X7942Y23100D01*
X8152Y23100D02*
X7942Y22820D01*
M02*
